G04*
G04 #@! TF.GenerationSoftware,Altium Limited,Altium Designer,19.0.4 (130)*
G04*
G04 Layer_Color=8388736*
%FSLAX25Y25*%
%MOIN*%
G70*
G01*
G75*
%ADD29C,0.00697*%
%ADD30C,0.00590*%
%ADD31C,0.01181*%
%ADD32C,0.01378*%
%ADD33C,0.00500*%
%ADD34R,0.01817X0.01975*%
%ADD35R,0.03162X0.04737*%
%ADD36R,0.04461X0.04658*%
%ADD37R,0.04658X0.04461*%
%ADD38R,0.07100X0.08674*%
%ADD39R,0.09856X0.11430*%
%ADD40R,0.02178X0.02400*%
%ADD41R,0.02180X0.02400*%
%ADD42R,0.03162X0.03358*%
%ADD43R,0.04737X0.05131*%
%ADD44R,0.05367X0.06509*%
%ADD45C,0.10800*%
%ADD46O,0.08674X0.06312*%
%ADD47R,0.08674X0.06312*%
%ADD48O,0.08800X0.50800*%
%ADD49C,0.06800*%
G36*
X27414Y77416D02*
X27191Y77217D01*
Y76226D01*
X27829D01*
X28128Y76556D01*
X28628Y76064D01*
X27191D01*
Y75235D01*
X28182D01*
X28512Y75565D01*
X29012Y75074D01*
X27191D01*
Y74329D01*
X28105D01*
X28297Y74605D01*
X28704Y74298D01*
X28489Y74106D01*
Y72762D01*
Y72754D01*
Y72739D01*
Y72716D01*
X28482Y72678D01*
X28466Y72593D01*
X28436Y72486D01*
X28405Y72432D01*
X28374Y72370D01*
X28328Y72317D01*
X28282Y72263D01*
X28221Y72209D01*
X28144Y72155D01*
X28059Y72109D01*
X27967Y72071D01*
Y72086D01*
Y72125D01*
X27952Y72178D01*
X27913Y72247D01*
X27883Y72286D01*
X27852Y72324D01*
X27798Y72370D01*
X27744Y72409D01*
X27675Y72455D01*
X27591Y72493D01*
X27499Y72532D01*
X27384Y72570D01*
Y72678D01*
X27399D01*
X27422Y72670D01*
X27453D01*
X27522Y72662D01*
X27614Y72654D01*
X27714Y72639D01*
X27806Y72632D01*
X27898Y72624D01*
X27983D01*
X28005Y72632D01*
X28036Y72639D01*
X28067Y72662D01*
X28098Y72693D01*
X28128Y72739D01*
X28152Y72808D01*
X28159Y72900D01*
Y74168D01*
X27191D01*
Y72263D01*
Y72255D01*
Y72240D01*
Y72217D01*
Y72186D01*
Y72102D01*
X27199Y71986D01*
Y71864D01*
X27207Y71725D01*
X27215Y71587D01*
X27222Y71449D01*
X26838Y71249D01*
Y71257D01*
Y71288D01*
Y71334D01*
X26846Y71403D01*
Y71472D01*
Y71556D01*
Y71649D01*
X26853Y71748D01*
Y71956D01*
X26861Y72148D01*
Y72240D01*
Y72324D01*
Y72393D01*
Y72455D01*
Y74168D01*
X25901D01*
Y72209D01*
X25540Y72017D01*
Y72025D01*
Y72048D01*
Y72086D01*
X25548Y72140D01*
Y72201D01*
Y72278D01*
X25556Y72363D01*
Y72455D01*
X25563Y72662D01*
Y72885D01*
X25571Y73123D01*
Y73361D01*
Y73369D01*
Y73392D01*
Y73422D01*
Y73469D01*
Y73522D01*
Y73592D01*
Y73668D01*
Y73753D01*
X25563Y73929D01*
X25556Y74129D01*
X25548Y74344D01*
X25540Y74551D01*
X25932Y74329D01*
X26861D01*
Y75074D01*
X25894D01*
X25824Y75066D01*
X25740D01*
X25640Y75051D01*
X25525Y75035D01*
X25410Y75020D01*
X25295Y74989D01*
X25049Y75235D01*
X26861D01*
Y76064D01*
X25870D01*
Y76057D01*
X25855Y76041D01*
X25848Y76018D01*
X25824Y75988D01*
X25771Y75903D01*
X25701Y75796D01*
X25617Y75673D01*
X25525Y75542D01*
X25425Y75412D01*
X25325Y75289D01*
X25241Y75319D01*
Y75327D01*
X25256Y75343D01*
X25264Y75373D01*
X25287Y75419D01*
X25310Y75465D01*
X25333Y75527D01*
X25394Y75665D01*
X25464Y75819D01*
X25533Y75988D01*
X25602Y76164D01*
X25655Y76333D01*
Y76341D01*
X25663Y76356D01*
X25671Y76379D01*
X25679Y76410D01*
X25701Y76487D01*
X25725Y76594D01*
X25755Y76710D01*
X25778Y76832D01*
X25801Y76963D01*
X25817Y77078D01*
X26339Y76802D01*
X26331Y76794D01*
X26308Y76779D01*
X26270Y76748D01*
X26216Y76702D01*
X26155Y76625D01*
X26085Y76525D01*
X26047Y76464D01*
X26009Y76395D01*
X25970Y76310D01*
X25932Y76226D01*
X26861D01*
Y76640D01*
Y76648D01*
Y76671D01*
Y76702D01*
Y76748D01*
Y76802D01*
Y76871D01*
Y77017D01*
X26853Y77178D01*
Y77347D01*
X26846Y77516D01*
X26838Y77662D01*
X27414Y77416D01*
D02*
G37*
G36*
X20663Y77355D02*
X20395Y77186D01*
Y76771D01*
X22069D01*
Y76779D01*
Y76786D01*
Y76809D01*
Y76840D01*
Y76917D01*
Y77017D01*
X22061Y77140D01*
X22053Y77286D01*
X22046Y77439D01*
X22038Y77601D01*
X22699Y77324D01*
X22430Y77155D01*
Y76771D01*
X23421D01*
X23828Y77186D01*
X24411Y76610D01*
X22430D01*
Y75949D01*
X22069Y75811D01*
Y76610D01*
X20395D01*
Y75888D01*
X20034Y75750D01*
Y76610D01*
X18928D01*
X18859Y76602D01*
X18774D01*
X18667Y76587D01*
X18559Y76571D01*
X18444Y76556D01*
X18329Y76525D01*
X18083Y76771D01*
X20034D01*
Y76779D01*
Y76786D01*
Y76809D01*
Y76840D01*
Y76925D01*
Y77032D01*
X20026Y77163D01*
X20018Y77309D01*
X20011Y77470D01*
X20003Y77631D01*
X20663Y77355D01*
D02*
G37*
G36*
X21577Y76003D02*
X21355Y75811D01*
Y75235D01*
X22676D01*
X22898Y75534D01*
X23359Y75204D01*
X23113Y75012D01*
Y73615D01*
X23444D01*
X23858Y73998D01*
X24381Y73453D01*
X21577D01*
X21585Y73446D01*
X21600Y73422D01*
X21631Y73377D01*
X21669Y73323D01*
X21716Y73261D01*
X21777Y73185D01*
X21846Y73100D01*
X21923Y73015D01*
X22015Y72923D01*
X22107Y72824D01*
X22215Y72724D01*
X22330Y72624D01*
X22453Y72524D01*
X22591Y72432D01*
X22729Y72347D01*
X22875Y72263D01*
X22883Y72255D01*
X22914Y72247D01*
X22952Y72224D01*
X23013Y72201D01*
X23083Y72171D01*
X23167Y72132D01*
X23259Y72094D01*
X23359Y72056D01*
X23589Y71979D01*
X23828Y71910D01*
X24081Y71856D01*
X24204Y71841D01*
X24327Y71833D01*
Y71718D01*
X24311D01*
X24258Y71702D01*
X24189Y71679D01*
X24112Y71641D01*
X24020Y71587D01*
X23943Y71526D01*
X23874Y71441D01*
X23851Y71387D01*
X23828Y71334D01*
X23820D01*
X23805Y71341D01*
X23774Y71349D01*
X23735Y71372D01*
X23682Y71387D01*
X23628Y71410D01*
X23559Y71449D01*
X23474Y71479D01*
X23390Y71526D01*
X23298Y71572D01*
X23083Y71687D01*
X22852Y71833D01*
X22722Y71917D01*
X22591Y72009D01*
X22583Y72017D01*
X22560Y72032D01*
X22522Y72063D01*
X22476Y72102D01*
X22414Y72155D01*
X22345Y72217D01*
X22261Y72294D01*
X22176Y72378D01*
X22092Y72478D01*
X22000Y72585D01*
X21900Y72701D01*
X21808Y72831D01*
X21708Y72969D01*
X21616Y73123D01*
X21524Y73284D01*
X21439Y73453D01*
X21216D01*
X21209Y73438D01*
X21201Y73407D01*
X21178Y73353D01*
X21147Y73284D01*
X21109Y73192D01*
X21063Y73100D01*
X21001Y72985D01*
X20932Y72870D01*
X20855Y72747D01*
X20771Y72624D01*
X20671Y72493D01*
X20571Y72370D01*
X20456Y72247D01*
X20325Y72140D01*
X20187Y72032D01*
X20041Y71940D01*
X20034Y71933D01*
X20003Y71917D01*
X19957Y71894D01*
X19903Y71864D01*
X19826Y71825D01*
X19734Y71779D01*
X19627Y71733D01*
X19512Y71679D01*
X19381Y71625D01*
X19243Y71564D01*
X19089Y71510D01*
X18936Y71449D01*
X18767Y71395D01*
X18590Y71341D01*
X18221Y71249D01*
X18191Y71334D01*
X18206Y71341D01*
X18237Y71349D01*
X18298Y71372D01*
X18375Y71403D01*
X18467Y71441D01*
X18567Y71479D01*
X18690Y71533D01*
X18813Y71587D01*
X19089Y71718D01*
X19373Y71864D01*
X19650Y72032D01*
X19780Y72117D01*
X19895Y72209D01*
X19903Y72217D01*
X19926Y72232D01*
X19957Y72263D01*
X19995Y72301D01*
X20049Y72347D01*
X20103Y72409D01*
X20164Y72478D01*
X20233Y72555D01*
X20310Y72639D01*
X20387Y72731D01*
X20456Y72831D01*
X20533Y72946D01*
X20679Y73185D01*
X20802Y73453D01*
X18843D01*
X18774Y73446D01*
X18690D01*
X18590Y73430D01*
X18475Y73415D01*
X18360Y73400D01*
X18244Y73369D01*
X17999Y73615D01*
X19212D01*
Y73622D01*
Y73630D01*
Y73676D01*
Y73753D01*
Y73853D01*
Y73968D01*
Y74098D01*
Y74244D01*
Y74398D01*
X19204Y74713D01*
Y74866D01*
X19197Y75020D01*
Y75158D01*
X19189Y75281D01*
Y75396D01*
X19181Y75481D01*
X19565Y75235D01*
X20971D01*
Y75243D01*
Y75250D01*
Y75273D01*
Y75304D01*
Y75343D01*
Y75389D01*
Y75442D01*
Y75504D01*
X20963Y75573D01*
Y75650D01*
Y75734D01*
X20955Y75826D01*
Y75926D01*
X20948Y76041D01*
X20940Y76279D01*
X21577Y76003D01*
D02*
G37*
G36*
X29949Y76372D02*
X29726Y76203D01*
Y73668D01*
Y73661D01*
Y73630D01*
Y73584D01*
Y73522D01*
X29733Y73446D01*
Y73346D01*
X29741Y73230D01*
X29749Y73092D01*
X29365Y72870D01*
Y72877D01*
Y72900D01*
Y72931D01*
X29373Y72977D01*
Y73039D01*
Y73115D01*
X29380Y73207D01*
Y73307D01*
Y73422D01*
X29388Y73553D01*
Y73699D01*
Y73860D01*
X29396Y74037D01*
Y74221D01*
Y74429D01*
Y74644D01*
Y74659D01*
Y74697D01*
Y74759D01*
Y74843D01*
Y74943D01*
Y75066D01*
Y75197D01*
Y75343D01*
X29388Y75496D01*
Y75657D01*
X29380Y75995D01*
X29373Y76326D01*
Y76487D01*
X29365Y76640D01*
X29949Y76372D01*
D02*
G37*
G36*
X31185Y77416D02*
X30993Y77224D01*
Y72071D01*
Y72063D01*
Y72048D01*
Y72017D01*
X30985Y71979D01*
Y71933D01*
X30970Y71879D01*
X30939Y71756D01*
X30909Y71687D01*
X30878Y71618D01*
X30832Y71549D01*
X30786Y71487D01*
X30724Y71418D01*
X30648Y71357D01*
X30563Y71303D01*
X30471Y71249D01*
Y71257D01*
X30463Y71272D01*
Y71295D01*
X30448Y71318D01*
X30432Y71357D01*
X30409Y71395D01*
X30371Y71441D01*
X30333Y71487D01*
X30286Y71541D01*
X30217Y71587D01*
X30148Y71633D01*
X30056Y71687D01*
X29956Y71725D01*
X29841Y71771D01*
X29711Y71802D01*
X29557Y71833D01*
Y71940D01*
X29641D01*
X29688Y71933D01*
X29856D01*
X29979Y71925D01*
X30117D01*
X30240Y71917D01*
X30371D01*
X30402Y71925D01*
X30440Y71933D01*
X30494Y71948D01*
X30548Y71979D01*
X30586Y72025D01*
X30617Y72094D01*
X30632Y72178D01*
Y76832D01*
Y76840D01*
Y76855D01*
Y76878D01*
Y76909D01*
Y76994D01*
Y77109D01*
X30624Y77240D01*
X30617Y77385D01*
X30609Y77539D01*
X30601Y77693D01*
X31185Y77416D01*
D02*
G37*
G36*
X30926Y68053D02*
X30147D01*
Y68937D01*
X30926D01*
Y68053D01*
D02*
G37*
G36*
X27706Y67294D02*
X27764D01*
X27831Y67284D01*
X27975Y67255D01*
X28148Y67207D01*
X28321Y67140D01*
X28484Y67044D01*
X28638Y66919D01*
X28657Y66900D01*
X28696Y66852D01*
X28754Y66756D01*
X28831Y66631D01*
X28898Y66467D01*
X28955Y66275D01*
X28994Y66035D01*
X29013Y65900D01*
Y65756D01*
Y62623D01*
X28235D01*
Y65497D01*
Y65506D01*
Y65516D01*
Y65574D01*
Y65660D01*
X28225Y65756D01*
X28206Y65977D01*
X28187Y66083D01*
X28158Y66169D01*
Y66179D01*
X28139Y66208D01*
X28119Y66246D01*
X28091Y66294D01*
X28052Y66342D01*
X28004Y66400D01*
X27946Y66458D01*
X27879Y66506D01*
X27869Y66515D01*
X27841Y66525D01*
X27802Y66544D01*
X27754Y66573D01*
X27687Y66592D01*
X27600Y66611D01*
X27514Y66621D01*
X27418Y66631D01*
X27341D01*
X27245Y66611D01*
X27139Y66592D01*
X27014Y66554D01*
X26880Y66496D01*
X26735Y66410D01*
X26611Y66304D01*
X26601Y66285D01*
X26562Y66246D01*
X26515Y66169D01*
X26457Y66054D01*
X26390Y65910D01*
X26342Y65737D01*
X26303Y65526D01*
X26294Y65276D01*
Y62623D01*
X25515D01*
Y65593D01*
Y65602D01*
Y65612D01*
Y65641D01*
Y65679D01*
X25505Y65775D01*
X25496Y65881D01*
X25467Y66016D01*
X25438Y66141D01*
X25390Y66265D01*
X25323Y66371D01*
X25313Y66381D01*
X25284Y66410D01*
X25246Y66458D01*
X25179Y66506D01*
X25092Y66544D01*
X24986Y66592D01*
X24862Y66621D01*
X24708Y66631D01*
X24650D01*
X24592Y66621D01*
X24506Y66611D01*
X24419Y66592D01*
X24314Y66554D01*
X24208Y66515D01*
X24102Y66458D01*
X24093Y66448D01*
X24054Y66429D01*
X24006Y66381D01*
X23949Y66333D01*
X23881Y66256D01*
X23814Y66169D01*
X23756Y66064D01*
X23699Y65948D01*
X23689Y65929D01*
X23679Y65891D01*
X23660Y65814D01*
X23641Y65708D01*
X23612Y65574D01*
X23593Y65410D01*
X23583Y65218D01*
X23574Y64997D01*
Y62623D01*
X22795D01*
Y67198D01*
X23487D01*
Y66554D01*
X23497Y66573D01*
X23526Y66611D01*
X23574Y66669D01*
X23641Y66746D01*
X23718Y66833D01*
X23814Y66919D01*
X23929Y67015D01*
X24054Y67092D01*
X24074Y67102D01*
X24122Y67121D01*
X24198Y67159D01*
X24295Y67198D01*
X24419Y67236D01*
X24554Y67274D01*
X24717Y67294D01*
X24881Y67303D01*
X24967D01*
X25063Y67294D01*
X25179Y67274D01*
X25304Y67255D01*
X25448Y67217D01*
X25582Y67159D01*
X25707Y67092D01*
X25727Y67082D01*
X25765Y67054D01*
X25823Y67005D01*
X25890Y66938D01*
X25967Y66852D01*
X26044Y66756D01*
X26111Y66631D01*
X26169Y66496D01*
X26178Y66506D01*
X26197Y66535D01*
X26226Y66573D01*
X26265Y66621D01*
X26322Y66688D01*
X26390Y66756D01*
X26466Y66823D01*
X26553Y66900D01*
X26649Y66977D01*
X26755Y67044D01*
X27005Y67178D01*
X27139Y67226D01*
X27283Y67265D01*
X27427Y67294D01*
X27591Y67303D01*
X27658D01*
X27706Y67294D01*
D02*
G37*
G36*
X32867Y62623D02*
X32088D01*
Y68937D01*
X32867D01*
Y62623D01*
D02*
G37*
G36*
X30926D02*
X30147D01*
Y67198D01*
X30926D01*
Y62623D01*
D02*
G37*
G36*
X19922Y68956D02*
X20037Y68937D01*
X20172Y68918D01*
X20326Y68879D01*
X20479Y68822D01*
X20624Y68755D01*
X20643Y68745D01*
X20691Y68716D01*
X20758Y68668D01*
X20854Y68610D01*
X20950Y68524D01*
X21056Y68418D01*
X21162Y68303D01*
X21258Y68168D01*
X21267Y68149D01*
X21296Y68101D01*
X21344Y68015D01*
X21402Y67909D01*
X21460Y67774D01*
X21527Y67611D01*
X21594Y67428D01*
X21652Y67226D01*
Y67217D01*
X21661Y67198D01*
Y67169D01*
X21671Y67121D01*
X21690Y67073D01*
X21700Y67005D01*
X21710Y66919D01*
X21729Y66833D01*
X21738Y66727D01*
X21748Y66621D01*
X21767Y66496D01*
X21777Y66362D01*
X21786Y66217D01*
Y66073D01*
X21796Y65737D01*
Y65727D01*
Y65689D01*
Y65631D01*
Y65554D01*
X21786Y65458D01*
Y65352D01*
X21777Y65228D01*
X21767Y65093D01*
X21738Y64805D01*
X21700Y64507D01*
X21642Y64209D01*
X21604Y64074D01*
X21565Y63940D01*
Y63930D01*
X21556Y63911D01*
X21546Y63873D01*
X21527Y63824D01*
X21498Y63767D01*
X21469Y63709D01*
X21392Y63556D01*
X21296Y63383D01*
X21181Y63209D01*
X21046Y63037D01*
X20883Y62883D01*
X20873D01*
X20864Y62863D01*
X20835Y62854D01*
X20806Y62825D01*
X20700Y62767D01*
X20575Y62700D01*
X20403Y62633D01*
X20210Y62575D01*
X19989Y62537D01*
X19739Y62518D01*
X19653D01*
X19586Y62527D01*
X19509Y62537D01*
X19422Y62556D01*
X19326Y62575D01*
X19220Y62594D01*
X18990Y62671D01*
X18865Y62729D01*
X18750Y62787D01*
X18625Y62863D01*
X18509Y62950D01*
X18404Y63046D01*
X18298Y63161D01*
X18288Y63171D01*
X18269Y63200D01*
X18240Y63248D01*
X18202Y63315D01*
X18154Y63402D01*
X18106Y63507D01*
X18048Y63632D01*
X17990Y63786D01*
X17933Y63950D01*
X17875Y64142D01*
X17827Y64353D01*
X17779Y64584D01*
X17741Y64843D01*
X17712Y65112D01*
X17693Y65420D01*
X17683Y65737D01*
Y65747D01*
Y65785D01*
Y65843D01*
Y65920D01*
X17693Y66016D01*
Y66121D01*
X17702Y66246D01*
X17712Y66381D01*
X17741Y66669D01*
X17779Y66967D01*
X17827Y67265D01*
X17865Y67400D01*
X17904Y67534D01*
Y67544D01*
X17913Y67563D01*
X17933Y67601D01*
X17952Y67649D01*
X17971Y67707D01*
X18000Y67774D01*
X18077Y67928D01*
X18173Y68101D01*
X18288Y68274D01*
X18423Y68437D01*
X18586Y68591D01*
X18596D01*
X18606Y68610D01*
X18634Y68629D01*
X18673Y68649D01*
X18769Y68706D01*
X18903Y68783D01*
X19067Y68851D01*
X19268Y68908D01*
X19490Y68947D01*
X19739Y68966D01*
X19826D01*
X19922Y68956D01*
D02*
G37*
G36*
X120176Y61963D02*
X119398D01*
Y66903D01*
X119388Y66893D01*
X119350Y66855D01*
X119283Y66807D01*
X119196Y66739D01*
X119091Y66653D01*
X118966Y66566D01*
X118822Y66461D01*
X118658Y66365D01*
X118649D01*
X118639Y66355D01*
X118581Y66317D01*
X118495Y66269D01*
X118389Y66211D01*
X118264Y66144D01*
X118130Y66086D01*
X117985Y66019D01*
X117851Y65961D01*
Y66720D01*
X117860D01*
X117880Y66730D01*
X117918Y66749D01*
X117957Y66778D01*
X118014Y66807D01*
X118081Y66836D01*
X118235Y66922D01*
X118408Y67028D01*
X118600Y67153D01*
X118793Y67297D01*
X118975Y67451D01*
X118985Y67460D01*
X118994Y67470D01*
X119052Y67528D01*
X119139Y67614D01*
X119244Y67720D01*
X119360Y67854D01*
X119475Y67998D01*
X119581Y68152D01*
X119667Y68306D01*
X120176D01*
Y61963D01*
D02*
G37*
G36*
X134197Y68296D02*
X134313Y68277D01*
X134447Y68258D01*
X134601Y68219D01*
X134755Y68162D01*
X134899Y68094D01*
X134918Y68085D01*
X134966Y68056D01*
X135034Y68008D01*
X135130Y67950D01*
X135226Y67864D01*
X135331Y67758D01*
X135437Y67643D01*
X135533Y67508D01*
X135543Y67489D01*
X135572Y67441D01*
X135620Y67355D01*
X135677Y67249D01*
X135735Y67114D01*
X135802Y66951D01*
X135870Y66768D01*
X135927Y66566D01*
Y66557D01*
X135937Y66538D01*
Y66509D01*
X135947Y66461D01*
X135966Y66413D01*
X135975Y66346D01*
X135985Y66259D01*
X136004Y66172D01*
X136014Y66067D01*
X136023Y65961D01*
X136043Y65836D01*
X136052Y65702D01*
X136062Y65557D01*
Y65413D01*
X136072Y65077D01*
Y65067D01*
Y65029D01*
Y64971D01*
Y64894D01*
X136062Y64798D01*
Y64692D01*
X136052Y64568D01*
X136043Y64433D01*
X136014Y64145D01*
X135975Y63847D01*
X135918Y63549D01*
X135879Y63414D01*
X135841Y63280D01*
Y63270D01*
X135831Y63251D01*
X135822Y63213D01*
X135802Y63165D01*
X135774Y63107D01*
X135745Y63049D01*
X135668Y62896D01*
X135572Y62722D01*
X135456Y62550D01*
X135322Y62376D01*
X135159Y62223D01*
X135149D01*
X135139Y62204D01*
X135110Y62194D01*
X135082Y62165D01*
X134976Y62107D01*
X134851Y62040D01*
X134678Y61973D01*
X134486Y61915D01*
X134265Y61877D01*
X134015Y61858D01*
X133928D01*
X133861Y61867D01*
X133784Y61877D01*
X133698Y61896D01*
X133602Y61915D01*
X133496Y61935D01*
X133265Y62011D01*
X133140Y62069D01*
X133025Y62127D01*
X132900Y62204D01*
X132785Y62290D01*
X132679Y62386D01*
X132573Y62502D01*
X132564Y62511D01*
X132545Y62540D01*
X132516Y62588D01*
X132477Y62655D01*
X132429Y62742D01*
X132381Y62847D01*
X132324Y62972D01*
X132266Y63126D01*
X132208Y63289D01*
X132151Y63482D01*
X132103Y63693D01*
X132054Y63924D01*
X132016Y64183D01*
X131987Y64452D01*
X131968Y64760D01*
X131958Y65077D01*
Y65087D01*
Y65125D01*
Y65183D01*
Y65259D01*
X131968Y65356D01*
Y65461D01*
X131978Y65586D01*
X131987Y65721D01*
X132016Y66009D01*
X132054Y66307D01*
X132103Y66605D01*
X132141Y66739D01*
X132179Y66874D01*
Y66884D01*
X132189Y66903D01*
X132208Y66941D01*
X132228Y66989D01*
X132247Y67047D01*
X132275Y67114D01*
X132352Y67268D01*
X132448Y67441D01*
X132564Y67614D01*
X132698Y67777D01*
X132862Y67931D01*
X132871D01*
X132881Y67950D01*
X132910Y67970D01*
X132948Y67989D01*
X133044Y68046D01*
X133179Y68123D01*
X133342Y68191D01*
X133544Y68248D01*
X133765Y68287D01*
X134015Y68306D01*
X134101D01*
X134197Y68296D01*
D02*
G37*
G36*
X129296D02*
X129412Y68277D01*
X129546Y68258D01*
X129700Y68219D01*
X129854Y68162D01*
X129998Y68094D01*
X130017Y68085D01*
X130065Y68056D01*
X130132Y68008D01*
X130229Y67950D01*
X130325Y67864D01*
X130430Y67758D01*
X130536Y67643D01*
X130632Y67508D01*
X130642Y67489D01*
X130671Y67441D01*
X130719Y67355D01*
X130776Y67249D01*
X130834Y67114D01*
X130901Y66951D01*
X130969Y66768D01*
X131026Y66566D01*
Y66557D01*
X131036Y66538D01*
Y66509D01*
X131045Y66461D01*
X131065Y66413D01*
X131074Y66346D01*
X131084Y66259D01*
X131103Y66172D01*
X131113Y66067D01*
X131122Y65961D01*
X131141Y65836D01*
X131151Y65702D01*
X131161Y65557D01*
Y65413D01*
X131170Y65077D01*
Y65067D01*
Y65029D01*
Y64971D01*
Y64894D01*
X131161Y64798D01*
Y64692D01*
X131151Y64568D01*
X131141Y64433D01*
X131113Y64145D01*
X131074Y63847D01*
X131017Y63549D01*
X130978Y63414D01*
X130940Y63280D01*
Y63270D01*
X130930Y63251D01*
X130921Y63213D01*
X130901Y63165D01*
X130872Y63107D01*
X130844Y63049D01*
X130767Y62896D01*
X130671Y62722D01*
X130555Y62550D01*
X130421Y62376D01*
X130257Y62223D01*
X130248D01*
X130238Y62204D01*
X130209Y62194D01*
X130181Y62165D01*
X130075Y62107D01*
X129950Y62040D01*
X129777Y61973D01*
X129585Y61915D01*
X129364Y61877D01*
X129114Y61858D01*
X129027D01*
X128960Y61867D01*
X128883Y61877D01*
X128797Y61896D01*
X128701Y61915D01*
X128595Y61935D01*
X128364Y62011D01*
X128239Y62069D01*
X128124Y62127D01*
X127999Y62204D01*
X127884Y62290D01*
X127778Y62386D01*
X127672Y62502D01*
X127663Y62511D01*
X127644Y62540D01*
X127615Y62588D01*
X127576Y62655D01*
X127528Y62742D01*
X127480Y62847D01*
X127422Y62972D01*
X127365Y63126D01*
X127307Y63289D01*
X127250Y63482D01*
X127201Y63693D01*
X127153Y63924D01*
X127115Y64183D01*
X127086Y64452D01*
X127067Y64760D01*
X127057Y65077D01*
Y65087D01*
Y65125D01*
Y65183D01*
Y65259D01*
X127067Y65356D01*
Y65461D01*
X127076Y65586D01*
X127086Y65721D01*
X127115Y66009D01*
X127153Y66307D01*
X127201Y66605D01*
X127240Y66739D01*
X127278Y66874D01*
Y66884D01*
X127288Y66903D01*
X127307Y66941D01*
X127326Y66989D01*
X127346Y67047D01*
X127374Y67114D01*
X127451Y67268D01*
X127547Y67441D01*
X127663Y67614D01*
X127797Y67777D01*
X127961Y67931D01*
X127970D01*
X127980Y67950D01*
X128009Y67970D01*
X128047Y67989D01*
X128143Y68046D01*
X128278Y68123D01*
X128441Y68191D01*
X128643Y68248D01*
X128864Y68287D01*
X129114Y68306D01*
X129200D01*
X129296Y68296D01*
D02*
G37*
G36*
X124395D02*
X124511Y68277D01*
X124645Y68258D01*
X124799Y68219D01*
X124953Y68162D01*
X125097Y68094D01*
X125116Y68085D01*
X125164Y68056D01*
X125231Y68008D01*
X125328Y67950D01*
X125424Y67864D01*
X125529Y67758D01*
X125635Y67643D01*
X125731Y67508D01*
X125741Y67489D01*
X125769Y67441D01*
X125818Y67355D01*
X125875Y67249D01*
X125933Y67114D01*
X126000Y66951D01*
X126067Y66768D01*
X126125Y66566D01*
Y66557D01*
X126135Y66538D01*
Y66509D01*
X126144Y66461D01*
X126164Y66413D01*
X126173Y66346D01*
X126183Y66259D01*
X126202Y66172D01*
X126212Y66067D01*
X126221Y65961D01*
X126240Y65836D01*
X126250Y65702D01*
X126260Y65557D01*
Y65413D01*
X126269Y65077D01*
Y65067D01*
Y65029D01*
Y64971D01*
Y64894D01*
X126260Y64798D01*
Y64692D01*
X126250Y64568D01*
X126240Y64433D01*
X126212Y64145D01*
X126173Y63847D01*
X126116Y63549D01*
X126077Y63414D01*
X126039Y63280D01*
Y63270D01*
X126029Y63251D01*
X126019Y63213D01*
X126000Y63165D01*
X125971Y63107D01*
X125943Y63049D01*
X125866Y62896D01*
X125769Y62722D01*
X125654Y62550D01*
X125520Y62376D01*
X125356Y62223D01*
X125347D01*
X125337Y62204D01*
X125308Y62194D01*
X125279Y62165D01*
X125174Y62107D01*
X125049Y62040D01*
X124876Y61973D01*
X124684Y61915D01*
X124463Y61877D01*
X124213Y61858D01*
X124126D01*
X124059Y61867D01*
X123982Y61877D01*
X123896Y61896D01*
X123800Y61915D01*
X123694Y61935D01*
X123463Y62011D01*
X123338Y62069D01*
X123223Y62127D01*
X123098Y62204D01*
X122983Y62290D01*
X122877Y62386D01*
X122771Y62502D01*
X122762Y62511D01*
X122742Y62540D01*
X122714Y62588D01*
X122675Y62655D01*
X122627Y62742D01*
X122579Y62847D01*
X122521Y62972D01*
X122464Y63126D01*
X122406Y63289D01*
X122348Y63482D01*
X122300Y63693D01*
X122252Y63924D01*
X122214Y64183D01*
X122185Y64452D01*
X122166Y64760D01*
X122156Y65077D01*
Y65087D01*
Y65125D01*
Y65183D01*
Y65259D01*
X122166Y65356D01*
Y65461D01*
X122175Y65586D01*
X122185Y65721D01*
X122214Y66009D01*
X122252Y66307D01*
X122300Y66605D01*
X122339Y66739D01*
X122377Y66874D01*
Y66884D01*
X122387Y66903D01*
X122406Y66941D01*
X122425Y66989D01*
X122444Y67047D01*
X122473Y67114D01*
X122550Y67268D01*
X122646Y67441D01*
X122762Y67614D01*
X122896Y67777D01*
X123059Y67931D01*
X123069D01*
X123079Y67950D01*
X123108Y67970D01*
X123146Y67989D01*
X123242Y68046D01*
X123377Y68123D01*
X123540Y68191D01*
X123742Y68248D01*
X123963Y68287D01*
X124213Y68306D01*
X124299D01*
X124395Y68296D01*
D02*
G37*
G36*
X206093Y68383D02*
X206170Y68374D01*
X206257Y68364D01*
X206353Y68354D01*
X206458Y68326D01*
X206689Y68268D01*
X206929Y68182D01*
X207054Y68124D01*
X207170Y68057D01*
X207275Y67970D01*
X207381Y67884D01*
X207391Y67874D01*
X207400Y67864D01*
X207429Y67835D01*
X207468Y67797D01*
X207506Y67739D01*
X207554Y67682D01*
X207650Y67538D01*
X207746Y67355D01*
X207833Y67144D01*
X207900Y66903D01*
X207910Y66769D01*
X207919Y66634D01*
Y66615D01*
Y66567D01*
X207910Y66490D01*
X207900Y66394D01*
X207881Y66279D01*
X207852Y66154D01*
X207814Y66019D01*
X207756Y65885D01*
X207746Y65865D01*
X207727Y65817D01*
X207689Y65750D01*
X207631Y65654D01*
X207564Y65539D01*
X207477Y65404D01*
X207362Y65270D01*
X207237Y65116D01*
X207218Y65097D01*
X207170Y65039D01*
X207083Y64952D01*
X207026Y64895D01*
X206958Y64828D01*
X206881Y64751D01*
X206785Y64664D01*
X206689Y64578D01*
X206583Y64472D01*
X206468Y64366D01*
X206334Y64251D01*
X206199Y64136D01*
X206045Y64001D01*
X206036Y63991D01*
X206016Y63972D01*
X205978Y63943D01*
X205930Y63905D01*
X205815Y63809D01*
X205670Y63684D01*
X205526Y63550D01*
X205373Y63415D01*
X205248Y63300D01*
X205200Y63252D01*
X205152Y63204D01*
X205142Y63194D01*
X205123Y63165D01*
X205084Y63127D01*
X205036Y63069D01*
X204930Y62944D01*
X204825Y62790D01*
X207929D01*
Y62050D01*
X203748D01*
Y62060D01*
Y62098D01*
Y62156D01*
X203758Y62223D01*
X203768Y62300D01*
X203777Y62387D01*
X203806Y62483D01*
X203835Y62579D01*
Y62589D01*
X203845Y62598D01*
X203864Y62656D01*
X203902Y62733D01*
X203960Y62848D01*
X204027Y62973D01*
X204123Y63117D01*
X204219Y63261D01*
X204344Y63415D01*
Y63424D01*
X204364Y63434D01*
X204412Y63492D01*
X204488Y63578D01*
X204604Y63694D01*
X204748Y63828D01*
X204921Y63991D01*
X205132Y64174D01*
X205363Y64376D01*
X205373Y64385D01*
X205411Y64414D01*
X205459Y64453D01*
X205526Y64520D01*
X205613Y64587D01*
X205709Y64674D01*
X205920Y64856D01*
X206151Y65077D01*
X206382Y65298D01*
X206497Y65404D01*
X206593Y65510D01*
X206680Y65616D01*
X206756Y65712D01*
Y65721D01*
X206776Y65731D01*
X206795Y65760D01*
X206814Y65798D01*
X206872Y65894D01*
X206939Y66019D01*
X207006Y66163D01*
X207064Y66317D01*
X207102Y66490D01*
X207122Y66654D01*
Y66663D01*
Y66673D01*
X207112Y66730D01*
X207102Y66817D01*
X207083Y66923D01*
X207035Y67048D01*
X206978Y67172D01*
X206901Y67307D01*
X206785Y67432D01*
X206766Y67441D01*
X206728Y67480D01*
X206651Y67528D01*
X206555Y67595D01*
X206430Y67653D01*
X206286Y67701D01*
X206113Y67739D01*
X205920Y67749D01*
X205863D01*
X205824Y67739D01*
X205728Y67730D01*
X205603Y67711D01*
X205459Y67663D01*
X205305Y67605D01*
X205161Y67518D01*
X205027Y67403D01*
X205017Y67384D01*
X204979Y67345D01*
X204921Y67269D01*
X204863Y67163D01*
X204796Y67028D01*
X204748Y66874D01*
X204710Y66692D01*
X204690Y66480D01*
X203893Y66567D01*
Y66577D01*
Y66605D01*
X203902Y66654D01*
X203912Y66711D01*
X203931Y66788D01*
X203941Y66874D01*
X203998Y67067D01*
X204075Y67288D01*
X204181Y67509D01*
X204325Y67730D01*
X204402Y67826D01*
X204498Y67922D01*
X204508Y67932D01*
X204527Y67941D01*
X204556Y67970D01*
X204594Y67999D01*
X204652Y68028D01*
X204719Y68076D01*
X204796Y68114D01*
X204883Y68162D01*
X204979Y68201D01*
X205084Y68249D01*
X205209Y68287D01*
X205334Y68316D01*
X205623Y68374D01*
X205776Y68383D01*
X205940Y68393D01*
X206026D01*
X206093Y68383D01*
D02*
G37*
G36*
X220797D02*
X220912Y68364D01*
X221046Y68345D01*
X221200Y68306D01*
X221354Y68249D01*
X221498Y68182D01*
X221517Y68172D01*
X221566Y68143D01*
X221633Y68095D01*
X221729Y68037D01*
X221825Y67951D01*
X221931Y67845D01*
X222036Y67730D01*
X222132Y67595D01*
X222142Y67576D01*
X222171Y67528D01*
X222219Y67441D01*
X222277Y67336D01*
X222334Y67201D01*
X222401Y67038D01*
X222469Y66855D01*
X222527Y66654D01*
Y66644D01*
X222536Y66625D01*
Y66596D01*
X222546Y66548D01*
X222565Y66500D01*
X222574Y66432D01*
X222584Y66346D01*
X222603Y66259D01*
X222613Y66154D01*
X222623Y66048D01*
X222642Y65923D01*
X222651Y65789D01*
X222661Y65644D01*
Y65500D01*
X222671Y65164D01*
Y65154D01*
Y65116D01*
Y65058D01*
Y64981D01*
X222661Y64885D01*
Y64780D01*
X222651Y64655D01*
X222642Y64520D01*
X222613Y64232D01*
X222574Y63934D01*
X222517Y63636D01*
X222478Y63501D01*
X222440Y63367D01*
Y63357D01*
X222430Y63338D01*
X222421Y63300D01*
X222401Y63252D01*
X222373Y63194D01*
X222344Y63136D01*
X222267Y62982D01*
X222171Y62809D01*
X222056Y62637D01*
X221921Y62463D01*
X221758Y62310D01*
X221748D01*
X221738Y62291D01*
X221710Y62281D01*
X221681Y62252D01*
X221575Y62194D01*
X221450Y62127D01*
X221277Y62060D01*
X221085Y62002D01*
X220864Y61964D01*
X220614Y61945D01*
X220528D01*
X220460Y61954D01*
X220383Y61964D01*
X220297Y61983D01*
X220201Y62002D01*
X220095Y62021D01*
X219865Y62098D01*
X219740Y62156D01*
X219624Y62214D01*
X219499Y62291D01*
X219384Y62377D01*
X219278Y62473D01*
X219173Y62589D01*
X219163Y62598D01*
X219144Y62627D01*
X219115Y62675D01*
X219076Y62742D01*
X219028Y62829D01*
X218980Y62934D01*
X218923Y63059D01*
X218865Y63213D01*
X218807Y63376D01*
X218750Y63569D01*
X218702Y63780D01*
X218654Y64011D01*
X218615Y64270D01*
X218586Y64539D01*
X218567Y64847D01*
X218558Y65164D01*
Y65174D01*
Y65212D01*
Y65270D01*
Y65346D01*
X218567Y65443D01*
Y65548D01*
X218577Y65673D01*
X218586Y65808D01*
X218615Y66096D01*
X218654Y66394D01*
X218702Y66692D01*
X218740Y66826D01*
X218778Y66961D01*
Y66971D01*
X218788Y66990D01*
X218807Y67028D01*
X218827Y67076D01*
X218846Y67134D01*
X218875Y67201D01*
X218952Y67355D01*
X219048Y67528D01*
X219163Y67701D01*
X219298Y67864D01*
X219461Y68018D01*
X219471D01*
X219480Y68037D01*
X219509Y68057D01*
X219547Y68076D01*
X219643Y68133D01*
X219778Y68210D01*
X219941Y68278D01*
X220143Y68335D01*
X220364Y68374D01*
X220614Y68393D01*
X220701D01*
X220797Y68383D01*
D02*
G37*
G36*
X215896D02*
X216011Y68364D01*
X216145Y68345D01*
X216299Y68306D01*
X216453Y68249D01*
X216597Y68182D01*
X216616Y68172D01*
X216664Y68143D01*
X216732Y68095D01*
X216828Y68037D01*
X216924Y67951D01*
X217030Y67845D01*
X217135Y67730D01*
X217231Y67595D01*
X217241Y67576D01*
X217270Y67528D01*
X217318Y67441D01*
X217375Y67336D01*
X217433Y67201D01*
X217500Y67038D01*
X217568Y66855D01*
X217625Y66654D01*
Y66644D01*
X217635Y66625D01*
Y66596D01*
X217645Y66548D01*
X217664Y66500D01*
X217673Y66432D01*
X217683Y66346D01*
X217702Y66259D01*
X217712Y66154D01*
X217722Y66048D01*
X217741Y65923D01*
X217750Y65789D01*
X217760Y65644D01*
Y65500D01*
X217770Y65164D01*
Y65154D01*
Y65116D01*
Y65058D01*
Y64981D01*
X217760Y64885D01*
Y64780D01*
X217750Y64655D01*
X217741Y64520D01*
X217712Y64232D01*
X217673Y63934D01*
X217616Y63636D01*
X217577Y63501D01*
X217539Y63367D01*
Y63357D01*
X217529Y63338D01*
X217520Y63300D01*
X217500Y63252D01*
X217472Y63194D01*
X217443Y63136D01*
X217366Y62982D01*
X217270Y62809D01*
X217155Y62637D01*
X217020Y62463D01*
X216857Y62310D01*
X216847D01*
X216837Y62291D01*
X216809Y62281D01*
X216780Y62252D01*
X216674Y62194D01*
X216549Y62127D01*
X216376Y62060D01*
X216184Y62002D01*
X215963Y61964D01*
X215713Y61945D01*
X215627D01*
X215559Y61954D01*
X215482Y61964D01*
X215396Y61983D01*
X215300Y62002D01*
X215194Y62021D01*
X214963Y62098D01*
X214839Y62156D01*
X214723Y62214D01*
X214598Y62291D01*
X214483Y62377D01*
X214377Y62473D01*
X214271Y62589D01*
X214262Y62598D01*
X214243Y62627D01*
X214214Y62675D01*
X214175Y62742D01*
X214127Y62829D01*
X214079Y62934D01*
X214022Y63059D01*
X213964Y63213D01*
X213906Y63376D01*
X213849Y63569D01*
X213801Y63780D01*
X213753Y64011D01*
X213714Y64270D01*
X213685Y64539D01*
X213666Y64847D01*
X213656Y65164D01*
Y65174D01*
Y65212D01*
Y65270D01*
Y65346D01*
X213666Y65443D01*
Y65548D01*
X213676Y65673D01*
X213685Y65808D01*
X213714Y66096D01*
X213753Y66394D01*
X213801Y66692D01*
X213839Y66826D01*
X213877Y66961D01*
Y66971D01*
X213887Y66990D01*
X213906Y67028D01*
X213926Y67076D01*
X213945Y67134D01*
X213973Y67201D01*
X214050Y67355D01*
X214146Y67528D01*
X214262Y67701D01*
X214396Y67864D01*
X214560Y68018D01*
X214569D01*
X214579Y68037D01*
X214608Y68057D01*
X214646Y68076D01*
X214742Y68133D01*
X214877Y68210D01*
X215040Y68278D01*
X215242Y68335D01*
X215463Y68374D01*
X215713Y68393D01*
X215799D01*
X215896Y68383D01*
D02*
G37*
G36*
X210995D02*
X211110Y68364D01*
X211244Y68345D01*
X211398Y68306D01*
X211552Y68249D01*
X211696Y68182D01*
X211715Y68172D01*
X211763Y68143D01*
X211830Y68095D01*
X211927Y68037D01*
X212023Y67951D01*
X212128Y67845D01*
X212234Y67730D01*
X212330Y67595D01*
X212340Y67576D01*
X212369Y67528D01*
X212417Y67441D01*
X212474Y67336D01*
X212532Y67201D01*
X212599Y67038D01*
X212667Y66855D01*
X212724Y66654D01*
Y66644D01*
X212734Y66625D01*
Y66596D01*
X212743Y66548D01*
X212763Y66500D01*
X212772Y66432D01*
X212782Y66346D01*
X212801Y66259D01*
X212811Y66154D01*
X212820Y66048D01*
X212840Y65923D01*
X212849Y65789D01*
X212859Y65644D01*
Y65500D01*
X212868Y65164D01*
Y65154D01*
Y65116D01*
Y65058D01*
Y64981D01*
X212859Y64885D01*
Y64780D01*
X212849Y64655D01*
X212840Y64520D01*
X212811Y64232D01*
X212772Y63934D01*
X212715Y63636D01*
X212676Y63501D01*
X212638Y63367D01*
Y63357D01*
X212628Y63338D01*
X212618Y63300D01*
X212599Y63252D01*
X212571Y63194D01*
X212542Y63136D01*
X212465Y62982D01*
X212369Y62809D01*
X212253Y62637D01*
X212119Y62463D01*
X211955Y62310D01*
X211946D01*
X211936Y62291D01*
X211907Y62281D01*
X211879Y62252D01*
X211773Y62194D01*
X211648Y62127D01*
X211475Y62060D01*
X211283Y62002D01*
X211062Y61964D01*
X210812Y61945D01*
X210725D01*
X210658Y61954D01*
X210581Y61964D01*
X210495Y61983D01*
X210399Y62002D01*
X210293Y62021D01*
X210062Y62098D01*
X209937Y62156D01*
X209822Y62214D01*
X209697Y62291D01*
X209582Y62377D01*
X209476Y62473D01*
X209370Y62589D01*
X209361Y62598D01*
X209342Y62627D01*
X209313Y62675D01*
X209274Y62742D01*
X209226Y62829D01*
X209178Y62934D01*
X209120Y63059D01*
X209063Y63213D01*
X209005Y63376D01*
X208947Y63569D01*
X208899Y63780D01*
X208851Y64011D01*
X208813Y64270D01*
X208784Y64539D01*
X208765Y64847D01*
X208755Y65164D01*
Y65174D01*
Y65212D01*
Y65270D01*
Y65346D01*
X208765Y65443D01*
Y65548D01*
X208774Y65673D01*
X208784Y65808D01*
X208813Y66096D01*
X208851Y66394D01*
X208899Y66692D01*
X208938Y66826D01*
X208976Y66961D01*
Y66971D01*
X208986Y66990D01*
X209005Y67028D01*
X209024Y67076D01*
X209044Y67134D01*
X209072Y67201D01*
X209149Y67355D01*
X209245Y67528D01*
X209361Y67701D01*
X209495Y67864D01*
X209659Y68018D01*
X209668D01*
X209678Y68037D01*
X209707Y68057D01*
X209745Y68076D01*
X209841Y68133D01*
X209976Y68210D01*
X210139Y68278D01*
X210341Y68335D01*
X210562Y68374D01*
X210812Y68393D01*
X210898D01*
X210995Y68383D01*
D02*
G37*
G36*
X234219Y143300D02*
X234246Y143297D01*
X234276Y143293D01*
X234310Y143290D01*
X234348Y143283D01*
X234429Y143260D01*
X234514Y143229D01*
X234562Y143209D01*
X234606Y143185D01*
X234650Y143157D01*
X234691Y143127D01*
X234695Y143123D01*
X234701Y143117D01*
X234715Y143103D01*
X234732Y143086D01*
X234752Y143066D01*
X234776Y143038D01*
X234800Y143008D01*
X234824Y142971D01*
X234851Y142933D01*
X234875Y142889D01*
X234899Y142838D01*
X234919Y142787D01*
X234936Y142729D01*
X234950Y142671D01*
X234956Y142607D01*
X234960Y142539D01*
Y142508D01*
X234956Y142488D01*
X234953Y142464D01*
X234950Y142433D01*
X234946Y142399D01*
X234939Y142362D01*
X234919Y142284D01*
X234888Y142202D01*
X234868Y142161D01*
X234844Y142121D01*
X234820Y142080D01*
X234790Y142042D01*
X234786Y142039D01*
X234783Y142035D01*
X234773Y142025D01*
X234759Y142012D01*
X234742Y141998D01*
X234722Y141981D01*
X234698Y141964D01*
X234671Y141944D01*
X234606Y141906D01*
X234528Y141869D01*
X234440Y141842D01*
X234389Y141832D01*
X234338Y141825D01*
X234317Y142114D01*
X234321D01*
X234327D01*
X234338Y142117D01*
X234351Y142121D01*
X234389Y142131D01*
X234436Y142144D01*
X234487Y142161D01*
X234538Y142189D01*
X234589Y142219D01*
X234633Y142260D01*
X234637Y142267D01*
X234650Y142280D01*
X234664Y142304D01*
X234684Y142338D01*
X234701Y142379D01*
X234718Y142427D01*
X234732Y142481D01*
X234735Y142539D01*
Y142559D01*
X234732Y142573D01*
X234729Y142610D01*
X234718Y142658D01*
X234698Y142709D01*
X234674Y142766D01*
X234637Y142821D01*
X234616Y142848D01*
X234589Y142875D01*
X234586D01*
X234582Y142882D01*
X234562Y142896D01*
X234528Y142920D01*
X234484Y142943D01*
X234426Y142967D01*
X234358Y142991D01*
X234280Y143005D01*
X234191Y143011D01*
X234188D01*
X234181D01*
X234168D01*
X234154Y143008D01*
X234134D01*
X234110Y143005D01*
X234055Y142994D01*
X233998Y142981D01*
X233936Y142957D01*
X233875Y142923D01*
X233821Y142879D01*
X233814Y142872D01*
X233800Y142855D01*
X233777Y142828D01*
X233753Y142787D01*
X233729Y142739D01*
X233705Y142678D01*
X233692Y142610D01*
X233685Y142535D01*
Y142511D01*
X233688Y142488D01*
X233692Y142454D01*
X233702Y142416D01*
X233712Y142376D01*
X233729Y142335D01*
X233749Y142294D01*
X233753Y142290D01*
X233760Y142277D01*
X233773Y142256D01*
X233790Y142233D01*
X233814Y142209D01*
X233841Y142182D01*
X233872Y142155D01*
X233906Y142131D01*
X233868Y141872D01*
X232723Y142090D01*
Y143198D01*
X232984D01*
Y142307D01*
X233586Y142185D01*
X233583Y142189D01*
X233579Y142195D01*
X233573Y142206D01*
X233562Y142219D01*
X233552Y142239D01*
X233542Y142260D01*
X233515Y142314D01*
X233488Y142376D01*
X233467Y142447D01*
X233450Y142525D01*
X233443Y142607D01*
Y142634D01*
X233447Y142654D01*
X233450Y142682D01*
X233454Y142709D01*
X233460Y142743D01*
X233467Y142777D01*
X233494Y142855D01*
X233508Y142896D01*
X233528Y142937D01*
X233552Y142981D01*
X233579Y143022D01*
X233610Y143062D01*
X233647Y143100D01*
X233651Y143103D01*
X233658Y143110D01*
X233668Y143120D01*
X233685Y143130D01*
X233705Y143147D01*
X233729Y143164D01*
X233756Y143181D01*
X233787Y143202D01*
X233824Y143222D01*
X233862Y143239D01*
X233906Y143256D01*
X233950Y143273D01*
X234001Y143283D01*
X234052Y143293D01*
X234110Y143300D01*
X234168Y143304D01*
X234171D01*
X234181D01*
X234198D01*
X234219Y143300D01*
D02*
G37*
G36*
X234389Y141243D02*
X234922D01*
Y140968D01*
X234389D01*
Y139999D01*
X234137D01*
X232692Y141019D01*
Y141243D01*
X234137D01*
Y141546D01*
X234389D01*
Y141243D01*
D02*
G37*
G36*
X219186Y106052D02*
X219224D01*
X219269Y106049D01*
X219317Y106045D01*
X219421Y106035D01*
X219528Y106021D01*
X219635Y106001D01*
X219683Y105987D01*
X219731Y105973D01*
X219735D01*
X219741Y105970D01*
X219755Y105966D01*
X219773Y105959D01*
X219793Y105949D01*
X219814Y105938D01*
X219869Y105911D01*
X219931Y105876D01*
X219993Y105835D01*
X220055Y105787D01*
X220111Y105728D01*
Y105725D01*
X220117Y105721D01*
X220121Y105711D01*
X220131Y105700D01*
X220152Y105663D01*
X220176Y105618D01*
X220200Y105555D01*
X220221Y105487D01*
X220235Y105407D01*
X220242Y105317D01*
Y105286D01*
X220238Y105262D01*
X220235Y105235D01*
X220228Y105204D01*
X220221Y105169D01*
X220214Y105131D01*
X220186Y105048D01*
X220166Y105003D01*
X220145Y104962D01*
X220117Y104917D01*
X220087Y104876D01*
X220052Y104838D01*
X220011Y104800D01*
X220007Y104797D01*
X219997Y104790D01*
X219980Y104779D01*
X219955Y104765D01*
X219924Y104748D01*
X219886Y104731D01*
X219842Y104710D01*
X219786Y104690D01*
X219728Y104669D01*
X219659Y104648D01*
X219583Y104631D01*
X219500Y104614D01*
X219407Y104600D01*
X219310Y104589D01*
X219200Y104583D01*
X219086Y104579D01*
X219082D01*
X219069D01*
X219048D01*
X219020D01*
X218986Y104583D01*
X218948D01*
X218903Y104586D01*
X218855Y104589D01*
X218751Y104600D01*
X218644Y104614D01*
X218537Y104631D01*
X218489Y104645D01*
X218441Y104658D01*
X218437D01*
X218430Y104662D01*
X218417Y104669D01*
X218399Y104676D01*
X218379Y104683D01*
X218355Y104693D01*
X218299Y104721D01*
X218237Y104755D01*
X218175Y104797D01*
X218116Y104845D01*
X218061Y104903D01*
Y104907D01*
X218054Y104910D01*
X218047Y104921D01*
X218041Y104935D01*
X218020Y104969D01*
X217992Y105017D01*
X217968Y105076D01*
X217947Y105148D01*
X217934Y105228D01*
X217927Y105317D01*
Y105349D01*
X217930Y105383D01*
X217937Y105424D01*
X217944Y105473D01*
X217958Y105528D01*
X217979Y105583D01*
X218003Y105635D01*
X218006Y105642D01*
X218016Y105659D01*
X218034Y105683D01*
X218054Y105718D01*
X218085Y105752D01*
X218123Y105790D01*
X218165Y105828D01*
X218213Y105863D01*
X218220Y105866D01*
X218237Y105876D01*
X218268Y105894D01*
X218306Y105914D01*
X218355Y105935D01*
X218413Y105959D01*
X218479Y105983D01*
X218551Y106004D01*
X218555D01*
X218562Y106008D01*
X218572D01*
X218589Y106011D01*
X218606Y106018D01*
X218631Y106021D01*
X218662Y106025D01*
X218693Y106032D01*
X218731Y106035D01*
X218769Y106038D01*
X218813Y106045D01*
X218862Y106049D01*
X218914Y106052D01*
X218965D01*
X219086Y106056D01*
X219089D01*
X219103D01*
X219124D01*
X219151D01*
X219186Y106052D01*
D02*
G37*
G36*
X219131Y104307D02*
X219176D01*
X219220Y104303D01*
X219272Y104300D01*
X219383Y104286D01*
X219500Y104269D01*
X219614Y104244D01*
X219666Y104231D01*
X219717Y104214D01*
X219721D01*
X219728Y104210D01*
X219741Y104203D01*
X219759Y104196D01*
X219783Y104186D01*
X219807Y104175D01*
X219862Y104145D01*
X219928Y104103D01*
X219993Y104055D01*
X220055Y104000D01*
X220111Y103934D01*
Y103931D01*
X220117Y103927D01*
X220121Y103917D01*
X220131Y103900D01*
X220142Y103882D01*
X220152Y103862D01*
X220176Y103810D01*
X220200Y103744D01*
X220221Y103672D01*
X220235Y103586D01*
X220242Y103496D01*
Y103472D01*
X220238Y103451D01*
Y103430D01*
X220235Y103403D01*
X220224Y103341D01*
X220207Y103272D01*
X220180Y103199D01*
X220145Y103130D01*
X220097Y103061D01*
X220093Y103058D01*
X220090Y103054D01*
X220069Y103034D01*
X220035Y103006D01*
X219990Y102971D01*
X219931Y102937D01*
X219859Y102906D01*
X219776Y102878D01*
X219679Y102861D01*
X219659Y103127D01*
X219662D01*
X219666D01*
X219676Y103130D01*
X219690Y103134D01*
X219724Y103140D01*
X219762Y103154D01*
X219807Y103172D01*
X219852Y103192D01*
X219897Y103220D01*
X219931Y103254D01*
X219935Y103258D01*
X219945Y103272D01*
X219959Y103292D01*
X219973Y103323D01*
X219986Y103358D01*
X220000Y103399D01*
X220011Y103448D01*
X220014Y103503D01*
Y103524D01*
X220011Y103548D01*
X220007Y103579D01*
X220000Y103613D01*
X219990Y103651D01*
X219976Y103689D01*
X219955Y103727D01*
X219952Y103730D01*
X219945Y103744D01*
X219931Y103761D01*
X219914Y103782D01*
X219893Y103810D01*
X219866Y103834D01*
X219835Y103862D01*
X219800Y103886D01*
X219797Y103889D01*
X219783Y103896D01*
X219759Y103906D01*
X219728Y103924D01*
X219690Y103937D01*
X219645Y103955D01*
X219593Y103972D01*
X219534Y103989D01*
X219531D01*
X219528Y103993D01*
X219517D01*
X219507Y103996D01*
X219472Y104003D01*
X219427Y104010D01*
X219376Y104017D01*
X219321Y104024D01*
X219258Y104031D01*
X219193D01*
X219189D01*
X219179D01*
X219162D01*
X219138D01*
X219145Y104027D01*
X219158Y104013D01*
X219186Y103996D01*
X219214Y103969D01*
X219248Y103937D01*
X219286Y103896D01*
X219321Y103851D01*
X219355Y103799D01*
X219358Y103793D01*
X219369Y103775D01*
X219379Y103744D01*
X219393Y103706D01*
X219410Y103662D01*
X219421Y103610D01*
X219431Y103551D01*
X219434Y103489D01*
Y103461D01*
X219431Y103441D01*
X219427Y103417D01*
X219424Y103389D01*
X219410Y103323D01*
X219386Y103247D01*
X219369Y103209D01*
X219348Y103168D01*
X219324Y103130D01*
X219296Y103089D01*
X219265Y103051D01*
X219231Y103013D01*
X219227Y103009D01*
X219220Y103006D01*
X219210Y102996D01*
X219193Y102982D01*
X219172Y102968D01*
X219148Y102951D01*
X219120Y102934D01*
X219086Y102916D01*
X219052Y102899D01*
X219010Y102882D01*
X218965Y102865D01*
X218917Y102851D01*
X218865Y102837D01*
X218813Y102827D01*
X218755Y102823D01*
X218693Y102820D01*
X218689D01*
X218679D01*
X218658D01*
X218634Y102823D01*
X218606Y102827D01*
X218572Y102830D01*
X218534Y102837D01*
X218493Y102844D01*
X218406Y102868D01*
X218358Y102885D01*
X218313Y102906D01*
X218265Y102927D01*
X218220Y102954D01*
X218179Y102985D01*
X218137Y103020D01*
X218134Y103023D01*
X218127Y103030D01*
X218116Y103041D01*
X218103Y103058D01*
X218089Y103075D01*
X218072Y103099D01*
X218051Y103127D01*
X218030Y103161D01*
X218013Y103196D01*
X217992Y103234D01*
X217958Y103320D01*
X217947Y103368D01*
X217937Y103420D01*
X217930Y103475D01*
X217927Y103530D01*
Y103551D01*
X217930Y103568D01*
Y103586D01*
X217934Y103610D01*
X217940Y103665D01*
X217958Y103727D01*
X217979Y103793D01*
X218006Y103865D01*
X218047Y103934D01*
Y103937D01*
X218054Y103941D01*
X218061Y103951D01*
X218068Y103965D01*
X218096Y103996D01*
X218134Y104037D01*
X218185Y104082D01*
X218241Y104131D01*
X218310Y104175D01*
X218389Y104214D01*
X218392D01*
X218399Y104217D01*
X218413Y104224D01*
X218430Y104227D01*
X218451Y104238D01*
X218479Y104244D01*
X218513Y104251D01*
X218551Y104262D01*
X218593Y104272D01*
X218641Y104279D01*
X218693Y104289D01*
X218748Y104296D01*
X218810Y104300D01*
X218876Y104307D01*
X218948Y104310D01*
X219024D01*
X219027D01*
X219044D01*
X219065D01*
X219096D01*
X219131Y104307D01*
D02*
G37*
G36*
X234017Y69336D02*
X234027Y69336D01*
X234044Y69336D01*
X234063Y69332D01*
X234089Y69328D01*
X234119Y69325D01*
X234152Y69321D01*
X234188Y69314D01*
X234266Y69289D01*
X234347Y69258D01*
X234393Y69238D01*
X234435Y69214D01*
X234477Y69187D01*
X234516Y69157D01*
X234519Y69154D01*
X234526Y69147D01*
X234539Y69134D01*
X234555Y69117D01*
X234574Y69097D01*
X234597Y69070D01*
X234619Y69040D01*
X234641Y69004D01*
X234667Y68967D01*
X234689Y68924D01*
X234711Y68875D01*
X234730Y68825D01*
X234746Y68769D01*
X234758Y68713D01*
X234763Y68651D01*
X234765Y68585D01*
X234765Y68555D01*
X234761Y68536D01*
X234757Y68513D01*
X234754Y68484D01*
X234750Y68451D01*
X234743Y68415D01*
X234722Y68340D01*
X234691Y68262D01*
X234670Y68223D01*
X234647Y68184D01*
X234623Y68145D01*
X234593Y68109D01*
X234590Y68106D01*
X234586Y68103D01*
X234576Y68093D01*
X234563Y68080D01*
X234546Y68067D01*
X234526Y68051D01*
X234503Y68035D01*
X234476Y68016D01*
X234414Y67981D01*
X234337Y67946D01*
X234252Y67922D01*
X234202Y67913D01*
X234153Y67907D01*
X234138Y68186D01*
X234142Y68186D01*
X234148Y68186D01*
X234158Y68189D01*
X234171Y68192D01*
X234208Y68201D01*
X234254Y68213D01*
X234303Y68229D01*
X234353Y68254D01*
X234402Y68283D01*
X234446Y68322D01*
X234449Y68328D01*
X234462Y68341D01*
X234476Y68364D01*
X234496Y68396D01*
X234513Y68435D01*
X234530Y68481D01*
X234545Y68533D01*
X234549Y68589D01*
X234549Y68608D01*
X234546Y68622D01*
X234543Y68658D01*
X234534Y68704D01*
X234516Y68753D01*
X234494Y68810D01*
X234458Y68863D01*
X234439Y68889D01*
X234414Y68916D01*
X234410Y68916D01*
X234407Y68923D01*
X234388Y68936D01*
X234355Y68960D01*
X234313Y68983D01*
X234258Y69007D01*
X234192Y69031D01*
X234117Y69046D01*
X234032Y69054D01*
X234029Y69054D01*
X234022Y69054D01*
X234009Y69054D01*
X233996Y69051D01*
X233976Y69051D01*
X233953Y69049D01*
X233901Y69040D01*
X233845Y69028D01*
X233785Y69006D01*
X233726Y68974D01*
X233672Y68932D01*
X233666Y68926D01*
X233652Y68910D01*
X233629Y68884D01*
X233605Y68845D01*
X233581Y68799D01*
X233558Y68741D01*
X233543Y68675D01*
X233535Y68603D01*
X233535Y68580D01*
X233538Y68557D01*
X233541Y68524D01*
X233550Y68488D01*
X233559Y68449D01*
X233575Y68409D01*
X233594Y68369D01*
X233597Y68366D01*
X233603Y68353D01*
X233616Y68333D01*
X233632Y68310D01*
X233654Y68286D01*
X233680Y68260D01*
X233709Y68233D01*
X233742Y68209D01*
X233701Y67961D01*
X232600Y68190D01*
X232618Y69259D01*
X232871Y69254D01*
X232856Y68395D01*
X233434Y68267D01*
X233431Y68270D01*
X233428Y68277D01*
X233422Y68287D01*
X233412Y68300D01*
X233402Y68320D01*
X233393Y68340D01*
X233368Y68393D01*
X233343Y68452D01*
X233324Y68522D01*
X233309Y68597D01*
X233304Y68676D01*
X233304Y68702D01*
X233308Y68722D01*
X233312Y68748D01*
X233315Y68774D01*
X233322Y68807D01*
X233330Y68840D01*
X233357Y68915D01*
X233371Y68954D01*
X233391Y68993D01*
X233415Y69035D01*
X233442Y69074D01*
X233472Y69113D01*
X233509Y69148D01*
X233512Y69152D01*
X233519Y69158D01*
X233529Y69168D01*
X233545Y69177D01*
X233565Y69193D01*
X233589Y69209D01*
X233615Y69225D01*
X233645Y69244D01*
X233681Y69263D01*
X233718Y69279D01*
X233761Y69295D01*
X233804Y69310D01*
X233853Y69319D01*
X233902Y69328D01*
X233958Y69334D01*
X234014Y69336D01*
X234017Y69336D01*
D02*
G37*
G36*
X234080Y67646D02*
X234089Y67646D01*
X234103Y67645D01*
X234122Y67642D01*
X234148Y67638D01*
X234175Y67634D01*
X234207Y67627D01*
X234240Y67617D01*
X234315Y67592D01*
X234357Y67575D01*
X234396Y67551D01*
X234435Y67528D01*
X234474Y67501D01*
X234513Y67467D01*
X234552Y67431D01*
X234555Y67427D01*
X234561Y67421D01*
X234568Y67411D01*
X234580Y67394D01*
X234596Y67374D01*
X234612Y67348D01*
X234628Y67318D01*
X234644Y67288D01*
X234663Y67252D01*
X234679Y67212D01*
X234695Y67169D01*
X234710Y67123D01*
X234722Y67074D01*
X234728Y67021D01*
X234734Y66965D01*
X234736Y66909D01*
X234736Y66883D01*
X234732Y66863D01*
X234728Y66837D01*
X234724Y66811D01*
X234721Y66778D01*
X234714Y66746D01*
X234693Y66671D01*
X234658Y66592D01*
X234641Y66553D01*
X234618Y66518D01*
X234591Y66479D01*
X234561Y66443D01*
X234557Y66440D01*
X234554Y66437D01*
X234544Y66427D01*
X234530Y66414D01*
X234511Y66401D01*
X234491Y66385D01*
X234467Y66366D01*
X234441Y66350D01*
X234375Y66312D01*
X234299Y66280D01*
X234213Y66252D01*
X234167Y66243D01*
X234117Y66238D01*
X234086Y66504D01*
X234089Y66504D01*
X234096Y66507D01*
X234109Y66507D01*
X234122Y66513D01*
X234162Y66522D01*
X234211Y66538D01*
X234264Y66557D01*
X234320Y66582D01*
X234370Y66614D01*
X234413Y66649D01*
X234417Y66656D01*
X234430Y66668D01*
X234443Y66691D01*
X234464Y66724D01*
X234481Y66760D01*
X234498Y66805D01*
X234512Y66857D01*
X234516Y66913D01*
X234517Y66933D01*
X234514Y66946D01*
X234511Y66979D01*
X234502Y67022D01*
X234486Y67074D01*
X234468Y67127D01*
X234436Y67180D01*
X234394Y67230D01*
X234387Y67237D01*
X234371Y67250D01*
X234345Y67270D01*
X234307Y67297D01*
X234261Y67321D01*
X234206Y67342D01*
X234143Y67356D01*
X234075Y67364D01*
X234071Y67364D01*
X234068Y67364D01*
X234058Y67364D01*
X234045Y67361D01*
X234012Y67358D01*
X233969Y67349D01*
X233923Y67337D01*
X233871Y67315D01*
X233821Y67286D01*
X233774Y67247D01*
X233768Y67241D01*
X233754Y67228D01*
X233737Y67202D01*
X233714Y67167D01*
X233690Y67124D01*
X233673Y67072D01*
X233659Y67017D01*
X233651Y66951D01*
X233650Y66922D01*
X233653Y66899D01*
X233656Y66872D01*
X233659Y66839D01*
X233665Y66803D01*
X233674Y66764D01*
X233442Y66797D01*
X233442Y66814D01*
X233445Y66827D01*
X233446Y66869D01*
X233443Y66899D01*
X233437Y66942D01*
X233429Y66988D01*
X233413Y67037D01*
X233394Y67090D01*
X233366Y67143D01*
X233362Y67150D01*
X233350Y67166D01*
X233327Y67186D01*
X233298Y67213D01*
X233262Y67240D01*
X233217Y67260D01*
X233161Y67278D01*
X233096Y67286D01*
X233092Y67286D01*
X233089Y67286D01*
X233073Y67286D01*
X233047Y67280D01*
X233010Y67274D01*
X232974Y67265D01*
X232934Y67246D01*
X232891Y67224D01*
X232855Y67191D01*
X232851Y67188D01*
X232838Y67175D01*
X232821Y67153D01*
X232804Y67123D01*
X232784Y67088D01*
X232770Y67045D01*
X232756Y66996D01*
X232752Y66941D01*
X232751Y66914D01*
X232757Y66885D01*
X232763Y66852D01*
X232772Y66809D01*
X232791Y66766D01*
X232814Y66723D01*
X232846Y66680D01*
X232849Y66676D01*
X232862Y66663D01*
X232885Y66646D01*
X232917Y66626D01*
X232956Y66602D01*
X233005Y66582D01*
X233064Y66561D01*
X233132Y66547D01*
X233082Y66282D01*
X233078Y66282D01*
X233068Y66286D01*
X233055Y66289D01*
X233039Y66293D01*
X233016Y66299D01*
X232990Y66307D01*
X232931Y66330D01*
X232866Y66358D01*
X232798Y66399D01*
X232733Y66445D01*
X232675Y66506D01*
X232672Y66509D01*
X232669Y66512D01*
X232663Y66522D01*
X232653Y66539D01*
X232643Y66555D01*
X232631Y66575D01*
X232602Y66625D01*
X232577Y66688D01*
X232555Y66764D01*
X232540Y66846D01*
X232535Y66892D01*
X232536Y66967D01*
X232540Y67000D01*
X232547Y67043D01*
X232558Y67092D01*
X232572Y67147D01*
X232592Y67203D01*
X232620Y67258D01*
X232620Y67261D01*
X232623Y67264D01*
X232633Y67284D01*
X232650Y67310D01*
X232674Y67342D01*
X232704Y67378D01*
X232740Y67416D01*
X232784Y67452D01*
X232830Y67484D01*
X232837Y67487D01*
X232853Y67497D01*
X232880Y67509D01*
X232913Y67522D01*
X232956Y67534D01*
X233002Y67546D01*
X233051Y67555D01*
X233107Y67558D01*
X233114Y67558D01*
X233130Y67557D01*
X233156Y67554D01*
X233189Y67546D01*
X233228Y67536D01*
X233271Y67522D01*
X233316Y67505D01*
X233358Y67478D01*
X233365Y67474D01*
X233378Y67464D01*
X233397Y67444D01*
X233423Y67421D01*
X233452Y67388D01*
X233481Y67351D01*
X233513Y67304D01*
X233538Y67252D01*
X233538Y67255D01*
X233541Y67261D01*
X233542Y67271D01*
X233548Y67284D01*
X233559Y67317D01*
X233579Y67359D01*
X233603Y67405D01*
X233637Y67453D01*
X233677Y67502D01*
X233727Y67544D01*
X233734Y67547D01*
X233753Y67559D01*
X233783Y67575D01*
X233823Y67598D01*
X233873Y67616D01*
X233932Y67632D01*
X234001Y67644D01*
X234076Y67646D01*
X234080Y67646D01*
D02*
G37*
G36*
X234676Y65549D02*
X234672Y65283D01*
X232986Y65313D01*
X232989Y65309D01*
X233002Y65296D01*
X233018Y65273D01*
X233040Y65243D01*
X233069Y65206D01*
X233098Y65163D01*
X233133Y65113D01*
X233165Y65057D01*
X233165Y65054D01*
X233168Y65050D01*
X233181Y65030D01*
X233197Y65001D01*
X233216Y64964D01*
X233238Y64921D01*
X233257Y64875D01*
X233279Y64825D01*
X233298Y64779D01*
X233039Y64784D01*
X233039Y64787D01*
X233036Y64793D01*
X233030Y64807D01*
X233020Y64820D01*
X233010Y64840D01*
X233001Y64863D01*
X232972Y64916D01*
X232937Y64976D01*
X232896Y65042D01*
X232848Y65108D01*
X232796Y65172D01*
X232793Y65175D01*
X232790Y65178D01*
X232771Y65198D01*
X232742Y65228D01*
X232706Y65265D01*
X232661Y65305D01*
X232612Y65345D01*
X232561Y65382D01*
X232509Y65413D01*
X232512Y65587D01*
X234676Y65549D01*
D02*
G37*
G36*
X181150Y149138D02*
X181008Y145057D01*
X181863Y145027D01*
X181838Y144316D01*
X180983Y144346D01*
X180930Y142838D01*
X180152Y142865D01*
X180205Y144373D01*
X177468Y144469D01*
X177493Y145179D01*
X180517Y149161D01*
X181150Y149138D01*
D02*
G37*
G36*
X179192Y132500D02*
X178570D01*
Y136448D01*
X178562Y136440D01*
X178532Y136409D01*
X178478Y136371D01*
X178409Y136317D01*
X178324Y136248D01*
X178225Y136179D01*
X178109Y136094D01*
X177979Y136017D01*
X177971D01*
X177963Y136010D01*
X177917Y135979D01*
X177848Y135941D01*
X177764Y135895D01*
X177664Y135841D01*
X177556Y135795D01*
X177441Y135741D01*
X177334Y135695D01*
Y136302D01*
X177341D01*
X177357Y136309D01*
X177387Y136325D01*
X177418Y136348D01*
X177464Y136371D01*
X177518Y136394D01*
X177641Y136463D01*
X177779Y136547D01*
X177933Y136647D01*
X178086Y136762D01*
X178232Y136885D01*
X178240Y136893D01*
X178247Y136901D01*
X178294Y136947D01*
X178363Y137016D01*
X178447Y137100D01*
X178539Y137208D01*
X178631Y137323D01*
X178716Y137446D01*
X178785Y137569D01*
X179192D01*
Y132500D01*
D02*
G37*
G36*
X174730Y137561D02*
X174792Y137553D01*
X174861Y137546D01*
X174937Y137538D01*
X175022Y137515D01*
X175206Y137469D01*
X175398Y137400D01*
X175498Y137354D01*
X175590Y137300D01*
X175675Y137231D01*
X175759Y137162D01*
X175767Y137154D01*
X175775Y137146D01*
X175798Y137123D01*
X175828Y137093D01*
X175859Y137047D01*
X175897Y137001D01*
X175974Y136885D01*
X176051Y136739D01*
X176120Y136570D01*
X176174Y136378D01*
X176182Y136271D01*
X176189Y136163D01*
Y136148D01*
Y136110D01*
X176182Y136048D01*
X176174Y135971D01*
X176159Y135879D01*
X176136Y135779D01*
X176105Y135672D01*
X176059Y135564D01*
X176051Y135549D01*
X176036Y135511D01*
X176005Y135457D01*
X175959Y135380D01*
X175905Y135288D01*
X175836Y135180D01*
X175744Y135073D01*
X175644Y134950D01*
X175629Y134935D01*
X175590Y134889D01*
X175521Y134819D01*
X175475Y134773D01*
X175421Y134720D01*
X175360Y134658D01*
X175283Y134589D01*
X175206Y134520D01*
X175122Y134435D01*
X175030Y134351D01*
X174922Y134259D01*
X174815Y134167D01*
X174692Y134059D01*
X174684Y134051D01*
X174669Y134036D01*
X174638Y134013D01*
X174600Y133982D01*
X174507Y133905D01*
X174392Y133806D01*
X174277Y133698D01*
X174154Y133591D01*
X174054Y133498D01*
X174016Y133460D01*
X173977Y133422D01*
X173970Y133414D01*
X173954Y133391D01*
X173924Y133360D01*
X173885Y133314D01*
X173801Y133214D01*
X173716Y133091D01*
X176197D01*
Y132500D01*
X172856D01*
Y132508D01*
Y132538D01*
Y132585D01*
X172864Y132638D01*
X172871Y132700D01*
X172879Y132769D01*
X172902Y132846D01*
X172925Y132922D01*
Y132930D01*
X172933Y132938D01*
X172948Y132984D01*
X172979Y133045D01*
X173025Y133137D01*
X173079Y133237D01*
X173156Y133352D01*
X173232Y133468D01*
X173332Y133591D01*
Y133598D01*
X173348Y133606D01*
X173386Y133652D01*
X173448Y133721D01*
X173540Y133813D01*
X173655Y133921D01*
X173793Y134051D01*
X173962Y134197D01*
X174146Y134359D01*
X174154Y134366D01*
X174185Y134389D01*
X174223Y134420D01*
X174277Y134474D01*
X174346Y134528D01*
X174423Y134597D01*
X174592Y134743D01*
X174776Y134919D01*
X174960Y135096D01*
X175053Y135180D01*
X175129Y135265D01*
X175199Y135349D01*
X175260Y135426D01*
Y135434D01*
X175275Y135441D01*
X175291Y135465D01*
X175306Y135495D01*
X175352Y135572D01*
X175406Y135672D01*
X175460Y135787D01*
X175506Y135910D01*
X175537Y136048D01*
X175552Y136179D01*
Y136186D01*
Y136194D01*
X175544Y136240D01*
X175537Y136309D01*
X175521Y136394D01*
X175483Y136494D01*
X175437Y136593D01*
X175375Y136701D01*
X175283Y136801D01*
X175268Y136809D01*
X175237Y136839D01*
X175175Y136878D01*
X175099Y136931D01*
X174999Y136977D01*
X174884Y137016D01*
X174745Y137047D01*
X174592Y137054D01*
X174546D01*
X174515Y137047D01*
X174438Y137039D01*
X174338Y137023D01*
X174223Y136985D01*
X174100Y136939D01*
X173985Y136870D01*
X173878Y136778D01*
X173870Y136762D01*
X173839Y136732D01*
X173793Y136670D01*
X173747Y136586D01*
X173693Y136478D01*
X173655Y136355D01*
X173624Y136209D01*
X173609Y136040D01*
X172971Y136110D01*
Y136117D01*
Y136140D01*
X172979Y136179D01*
X172987Y136225D01*
X173002Y136286D01*
X173010Y136355D01*
X173056Y136509D01*
X173117Y136686D01*
X173202Y136862D01*
X173317Y137039D01*
X173378Y137116D01*
X173455Y137192D01*
X173463Y137200D01*
X173478Y137208D01*
X173501Y137231D01*
X173532Y137254D01*
X173578Y137277D01*
X173632Y137315D01*
X173693Y137346D01*
X173762Y137384D01*
X173839Y137415D01*
X173924Y137454D01*
X174023Y137484D01*
X174123Y137507D01*
X174354Y137553D01*
X174477Y137561D01*
X174607Y137569D01*
X174676D01*
X174730Y137561D01*
D02*
G37*
G36*
X171359Y132500D02*
X170737D01*
Y136448D01*
X170729Y136440D01*
X170698Y136409D01*
X170644Y136371D01*
X170575Y136317D01*
X170491Y136248D01*
X170391Y136179D01*
X170276Y136094D01*
X170145Y136017D01*
X170137D01*
X170130Y136010D01*
X170084Y135979D01*
X170015Y135941D01*
X169930Y135895D01*
X169830Y135841D01*
X169723Y135795D01*
X169607Y135741D01*
X169500Y135695D01*
Y136302D01*
X169508D01*
X169523Y136309D01*
X169554Y136325D01*
X169585Y136348D01*
X169631Y136371D01*
X169684Y136394D01*
X169807Y136463D01*
X169945Y136547D01*
X170099Y136647D01*
X170253Y136762D01*
X170399Y136885D01*
X170406Y136893D01*
X170414Y136901D01*
X170460Y136947D01*
X170529Y137016D01*
X170614Y137100D01*
X170706Y137208D01*
X170798Y137323D01*
X170882Y137446D01*
X170951Y137569D01*
X171359D01*
Y132500D01*
D02*
G37*
G36*
X182564Y137561D02*
X182656Y137546D01*
X182763Y137530D01*
X182886Y137500D01*
X183009Y137454D01*
X183124Y137400D01*
X183140Y137392D01*
X183178Y137369D01*
X183232Y137331D01*
X183309Y137285D01*
X183385Y137215D01*
X183470Y137131D01*
X183554Y137039D01*
X183631Y136931D01*
X183639Y136916D01*
X183662Y136878D01*
X183700Y136809D01*
X183746Y136724D01*
X183792Y136617D01*
X183846Y136486D01*
X183900Y136340D01*
X183946Y136179D01*
Y136171D01*
X183954Y136156D01*
Y136133D01*
X183961Y136094D01*
X183977Y136056D01*
X183984Y136002D01*
X183992Y135933D01*
X184008Y135864D01*
X184015Y135779D01*
X184023Y135695D01*
X184038Y135595D01*
X184046Y135487D01*
X184054Y135372D01*
Y135257D01*
X184061Y134988D01*
Y134981D01*
Y134950D01*
Y134904D01*
Y134842D01*
X184054Y134766D01*
Y134681D01*
X184046Y134581D01*
X184038Y134474D01*
X184015Y134243D01*
X183984Y134005D01*
X183938Y133767D01*
X183908Y133660D01*
X183877Y133552D01*
Y133545D01*
X183869Y133529D01*
X183862Y133498D01*
X183846Y133460D01*
X183823Y133414D01*
X183800Y133368D01*
X183739Y133245D01*
X183662Y133107D01*
X183570Y132968D01*
X183462Y132830D01*
X183332Y132707D01*
X183324D01*
X183316Y132692D01*
X183293Y132684D01*
X183270Y132661D01*
X183186Y132615D01*
X183086Y132561D01*
X182948Y132508D01*
X182794Y132462D01*
X182617Y132431D01*
X182418Y132415D01*
X182349D01*
X182295Y132423D01*
X182233Y132431D01*
X182164Y132446D01*
X182088Y132462D01*
X182003Y132477D01*
X181819Y132538D01*
X181719Y132585D01*
X181627Y132631D01*
X181527Y132692D01*
X181435Y132761D01*
X181350Y132838D01*
X181266Y132930D01*
X181258Y132938D01*
X181243Y132961D01*
X181220Y132999D01*
X181189Y133053D01*
X181151Y133122D01*
X181112Y133207D01*
X181066Y133306D01*
X181020Y133429D01*
X180974Y133560D01*
X180928Y133713D01*
X180889Y133882D01*
X180851Y134067D01*
X180820Y134274D01*
X180797Y134489D01*
X180782Y134735D01*
X180774Y134988D01*
Y134996D01*
Y135027D01*
Y135073D01*
Y135134D01*
X180782Y135211D01*
Y135295D01*
X180790Y135395D01*
X180797Y135503D01*
X180820Y135733D01*
X180851Y135971D01*
X180889Y136209D01*
X180920Y136317D01*
X180951Y136425D01*
Y136432D01*
X180959Y136448D01*
X180974Y136478D01*
X180989Y136517D01*
X181005Y136563D01*
X181028Y136617D01*
X181089Y136739D01*
X181166Y136878D01*
X181258Y137016D01*
X181366Y137146D01*
X181496Y137269D01*
X181504D01*
X181511Y137285D01*
X181535Y137300D01*
X181565Y137315D01*
X181642Y137361D01*
X181750Y137423D01*
X181880Y137477D01*
X182041Y137523D01*
X182218Y137553D01*
X182418Y137569D01*
X182487D01*
X182564Y137561D01*
D02*
G37*
G36*
X151156D02*
X151202D01*
X151263Y137553D01*
X151402Y137530D01*
X151555Y137484D01*
X151716Y137423D01*
X151878Y137346D01*
X151955Y137292D01*
X152031Y137231D01*
X152039D01*
X152047Y137215D01*
X152093Y137169D01*
X152154Y137093D01*
X152231Y136993D01*
X152315Y136862D01*
X152385Y136709D01*
X152454Y136524D01*
X152492Y136317D01*
X151878Y136271D01*
Y136279D01*
Y136286D01*
X151862Y136332D01*
X151839Y136394D01*
X151816Y136471D01*
X151740Y136647D01*
X151693Y136724D01*
X151640Y136793D01*
X151632Y136809D01*
X151594Y136839D01*
X151540Y136878D01*
X151471Y136931D01*
X151379Y136977D01*
X151271Y137023D01*
X151148Y137054D01*
X151018Y137062D01*
X150964D01*
X150910Y137054D01*
X150841Y137039D01*
X150757Y137023D01*
X150664Y136993D01*
X150580Y136947D01*
X150488Y136893D01*
X150472Y136885D01*
X150442Y136855D01*
X150388Y136801D01*
X150326Y136732D01*
X150250Y136647D01*
X150173Y136540D01*
X150096Y136409D01*
X150027Y136263D01*
Y136256D01*
X150019Y136248D01*
X150012Y136217D01*
X150004Y136186D01*
X149988Y136148D01*
X149973Y136094D01*
X149958Y136033D01*
X149942Y135964D01*
X149927Y135887D01*
X149912Y135802D01*
X149896Y135703D01*
X149881Y135603D01*
X149873Y135487D01*
X149866Y135365D01*
X149858Y135234D01*
Y135103D01*
X149866Y135111D01*
X149896Y135150D01*
X149942Y135211D01*
X150012Y135288D01*
X150088Y135372D01*
X150180Y135457D01*
X150288Y135534D01*
X150403Y135603D01*
X150419Y135610D01*
X150457Y135626D01*
X150526Y135656D01*
X150611Y135687D01*
X150710Y135718D01*
X150826Y135749D01*
X150949Y135764D01*
X151079Y135772D01*
X151140D01*
X151187Y135764D01*
X151240Y135756D01*
X151302Y135749D01*
X151448Y135718D01*
X151609Y135656D01*
X151701Y135626D01*
X151786Y135580D01*
X151878Y135526D01*
X151970Y135465D01*
X152054Y135395D01*
X152139Y135311D01*
X152147Y135303D01*
X152154Y135288D01*
X152177Y135265D01*
X152208Y135226D01*
X152239Y135180D01*
X152277Y135127D01*
X152315Y135065D01*
X152362Y134996D01*
X152400Y134912D01*
X152438Y134827D01*
X152477Y134727D01*
X152507Y134627D01*
X152538Y134512D01*
X152561Y134397D01*
X152569Y134266D01*
X152577Y134136D01*
Y134128D01*
Y134113D01*
Y134090D01*
Y134059D01*
X152569Y134013D01*
Y133967D01*
X152554Y133844D01*
X152523Y133713D01*
X152492Y133560D01*
X152438Y133406D01*
X152369Y133253D01*
Y133245D01*
X152362Y133237D01*
X152346Y133214D01*
X152331Y133184D01*
X152285Y133114D01*
X152223Y133022D01*
X152139Y132922D01*
X152039Y132823D01*
X151932Y132723D01*
X151801Y132631D01*
X151786Y132623D01*
X151740Y132600D01*
X151663Y132561D01*
X151571Y132523D01*
X151448Y132485D01*
X151309Y132446D01*
X151156Y132423D01*
X150995Y132415D01*
X150964D01*
X150918Y132423D01*
X150864D01*
X150803Y132431D01*
X150726Y132446D01*
X150641Y132462D01*
X150549Y132485D01*
X150449Y132515D01*
X150342Y132554D01*
X150242Y132600D01*
X150134Y132654D01*
X150027Y132723D01*
X149919Y132799D01*
X149820Y132884D01*
X149727Y132984D01*
X149720Y132992D01*
X149704Y133015D01*
X149681Y133045D01*
X149651Y133091D01*
X149612Y133153D01*
X149574Y133230D01*
X149528Y133322D01*
X149489Y133429D01*
X149443Y133552D01*
X149397Y133690D01*
X149359Y133844D01*
X149320Y134013D01*
X149290Y134197D01*
X149267Y134405D01*
X149251Y134620D01*
X149243Y134858D01*
Y134865D01*
Y134873D01*
Y134896D01*
Y134919D01*
Y134996D01*
X149251Y135096D01*
X149259Y135219D01*
X149274Y135357D01*
X149290Y135511D01*
X149313Y135672D01*
X149336Y135848D01*
X149374Y136025D01*
X149420Y136202D01*
X149474Y136371D01*
X149535Y136547D01*
X149604Y136701D01*
X149689Y136855D01*
X149781Y136985D01*
X149789Y136993D01*
X149804Y137008D01*
X149827Y137039D01*
X149866Y137077D01*
X149919Y137123D01*
X149973Y137169D01*
X150042Y137223D01*
X150119Y137277D01*
X150204Y137331D01*
X150303Y137384D01*
X150403Y137431D01*
X150518Y137477D01*
X150641Y137515D01*
X150772Y137546D01*
X150910Y137561D01*
X151056Y137569D01*
X151110D01*
X151156Y137561D01*
D02*
G37*
G36*
X143230D02*
X143291Y137553D01*
X143361Y137546D01*
X143437Y137538D01*
X143522Y137515D01*
X143706Y137469D01*
X143898Y137400D01*
X143998Y137354D01*
X144090Y137300D01*
X144175Y137231D01*
X144259Y137162D01*
X144267Y137154D01*
X144275Y137146D01*
X144298Y137123D01*
X144328Y137093D01*
X144359Y137047D01*
X144397Y137001D01*
X144474Y136885D01*
X144551Y136739D01*
X144620Y136570D01*
X144674Y136378D01*
X144682Y136271D01*
X144689Y136163D01*
Y136148D01*
Y136110D01*
X144682Y136048D01*
X144674Y135971D01*
X144659Y135879D01*
X144635Y135779D01*
X144605Y135672D01*
X144559Y135564D01*
X144551Y135549D01*
X144536Y135511D01*
X144505Y135457D01*
X144459Y135380D01*
X144405Y135288D01*
X144336Y135180D01*
X144244Y135073D01*
X144144Y134950D01*
X144129Y134935D01*
X144090Y134889D01*
X144021Y134819D01*
X143975Y134773D01*
X143921Y134720D01*
X143860Y134658D01*
X143783Y134589D01*
X143706Y134520D01*
X143622Y134435D01*
X143530Y134351D01*
X143422Y134259D01*
X143315Y134167D01*
X143192Y134059D01*
X143184Y134051D01*
X143169Y134036D01*
X143138Y134013D01*
X143099Y133982D01*
X143007Y133905D01*
X142892Y133806D01*
X142777Y133698D01*
X142654Y133591D01*
X142554Y133498D01*
X142516Y133460D01*
X142477Y133422D01*
X142470Y133414D01*
X142454Y133391D01*
X142424Y133360D01*
X142385Y133314D01*
X142301Y133214D01*
X142216Y133091D01*
X144697D01*
Y132500D01*
X141356D01*
Y132508D01*
Y132538D01*
Y132585D01*
X141364Y132638D01*
X141372Y132700D01*
X141379Y132769D01*
X141402Y132846D01*
X141425Y132922D01*
Y132930D01*
X141433Y132938D01*
X141448Y132984D01*
X141479Y133045D01*
X141525Y133137D01*
X141579Y133237D01*
X141656Y133352D01*
X141733Y133468D01*
X141832Y133591D01*
Y133598D01*
X141848Y133606D01*
X141886Y133652D01*
X141947Y133721D01*
X142040Y133813D01*
X142155Y133921D01*
X142293Y134051D01*
X142462Y134197D01*
X142646Y134359D01*
X142654Y134366D01*
X142685Y134389D01*
X142723Y134420D01*
X142777Y134474D01*
X142846Y134528D01*
X142923Y134597D01*
X143092Y134743D01*
X143276Y134919D01*
X143461Y135096D01*
X143553Y135180D01*
X143629Y135265D01*
X143699Y135349D01*
X143760Y135426D01*
Y135434D01*
X143775Y135441D01*
X143791Y135465D01*
X143806Y135495D01*
X143852Y135572D01*
X143906Y135672D01*
X143960Y135787D01*
X144006Y135910D01*
X144036Y136048D01*
X144052Y136179D01*
Y136186D01*
Y136194D01*
X144044Y136240D01*
X144036Y136309D01*
X144021Y136394D01*
X143983Y136494D01*
X143937Y136593D01*
X143875Y136701D01*
X143783Y136801D01*
X143768Y136809D01*
X143737Y136839D01*
X143675Y136878D01*
X143599Y136931D01*
X143499Y136977D01*
X143384Y137016D01*
X143245Y137047D01*
X143092Y137054D01*
X143046D01*
X143015Y137047D01*
X142938Y137039D01*
X142838Y137023D01*
X142723Y136985D01*
X142600Y136939D01*
X142485Y136870D01*
X142378Y136778D01*
X142370Y136762D01*
X142339Y136732D01*
X142293Y136670D01*
X142247Y136586D01*
X142193Y136478D01*
X142155Y136355D01*
X142124Y136209D01*
X142109Y136040D01*
X141471Y136110D01*
Y136117D01*
Y136140D01*
X141479Y136179D01*
X141487Y136225D01*
X141502Y136286D01*
X141510Y136355D01*
X141556Y136509D01*
X141617Y136686D01*
X141702Y136862D01*
X141817Y137039D01*
X141878Y137116D01*
X141955Y137192D01*
X141963Y137200D01*
X141978Y137208D01*
X142001Y137231D01*
X142032Y137254D01*
X142078Y137277D01*
X142132Y137315D01*
X142193Y137346D01*
X142262Y137384D01*
X142339Y137415D01*
X142424Y137454D01*
X142524Y137484D01*
X142623Y137507D01*
X142854Y137553D01*
X142977Y137561D01*
X143107Y137569D01*
X143176D01*
X143230Y137561D01*
D02*
G37*
G36*
X139859Y132500D02*
X139236D01*
Y136448D01*
X139229Y136440D01*
X139198Y136409D01*
X139144Y136371D01*
X139075Y136317D01*
X138991Y136248D01*
X138891Y136179D01*
X138776Y136094D01*
X138645Y136017D01*
X138637D01*
X138630Y136010D01*
X138584Y135979D01*
X138515Y135941D01*
X138430Y135895D01*
X138330Y135841D01*
X138223Y135795D01*
X138108Y135741D01*
X138000Y135695D01*
Y136302D01*
X138008D01*
X138023Y136309D01*
X138054Y136325D01*
X138084Y136348D01*
X138131Y136371D01*
X138184Y136394D01*
X138307Y136463D01*
X138445Y136547D01*
X138599Y136647D01*
X138753Y136762D01*
X138899Y136885D01*
X138906Y136893D01*
X138914Y136901D01*
X138960Y136947D01*
X139029Y137016D01*
X139114Y137100D01*
X139206Y137208D01*
X139298Y137323D01*
X139382Y137446D01*
X139452Y137569D01*
X139859D01*
Y132500D01*
D02*
G37*
G36*
X147147Y137561D02*
X147239Y137546D01*
X147347Y137530D01*
X147469Y137500D01*
X147592Y137454D01*
X147707Y137400D01*
X147723Y137392D01*
X147761Y137369D01*
X147815Y137331D01*
X147892Y137285D01*
X147969Y137215D01*
X148053Y137131D01*
X148138Y137039D01*
X148214Y136931D01*
X148222Y136916D01*
X148245Y136878D01*
X148284Y136809D01*
X148330Y136724D01*
X148376Y136617D01*
X148429Y136486D01*
X148483Y136340D01*
X148529Y136179D01*
Y136171D01*
X148537Y136156D01*
Y136133D01*
X148545Y136094D01*
X148560Y136056D01*
X148568Y136002D01*
X148575Y135933D01*
X148591Y135864D01*
X148598Y135779D01*
X148606Y135695D01*
X148621Y135595D01*
X148629Y135487D01*
X148637Y135372D01*
Y135257D01*
X148644Y134988D01*
Y134981D01*
Y134950D01*
Y134904D01*
Y134842D01*
X148637Y134766D01*
Y134681D01*
X148629Y134581D01*
X148621Y134474D01*
X148598Y134243D01*
X148568Y134005D01*
X148522Y133767D01*
X148491Y133660D01*
X148460Y133552D01*
Y133545D01*
X148452Y133529D01*
X148445Y133498D01*
X148429Y133460D01*
X148406Y133414D01*
X148383Y133368D01*
X148322Y133245D01*
X148245Y133107D01*
X148153Y132968D01*
X148045Y132830D01*
X147915Y132707D01*
X147907D01*
X147899Y132692D01*
X147877Y132684D01*
X147853Y132661D01*
X147769Y132615D01*
X147669Y132561D01*
X147531Y132508D01*
X147377Y132462D01*
X147201Y132431D01*
X147001Y132415D01*
X146932D01*
X146878Y132423D01*
X146817Y132431D01*
X146748Y132446D01*
X146671Y132462D01*
X146586Y132477D01*
X146402Y132538D01*
X146302Y132585D01*
X146210Y132631D01*
X146110Y132692D01*
X146018Y132761D01*
X145933Y132838D01*
X145849Y132930D01*
X145841Y132938D01*
X145826Y132961D01*
X145803Y132999D01*
X145772Y133053D01*
X145734Y133122D01*
X145695Y133207D01*
X145649Y133306D01*
X145603Y133429D01*
X145557Y133560D01*
X145511Y133713D01*
X145473Y133882D01*
X145434Y134067D01*
X145404Y134274D01*
X145380Y134489D01*
X145365Y134735D01*
X145357Y134988D01*
Y134996D01*
Y135027D01*
Y135073D01*
Y135134D01*
X145365Y135211D01*
Y135295D01*
X145373Y135395D01*
X145380Y135503D01*
X145404Y135733D01*
X145434Y135971D01*
X145473Y136209D01*
X145503Y136317D01*
X145534Y136425D01*
Y136432D01*
X145542Y136448D01*
X145557Y136478D01*
X145572Y136517D01*
X145588Y136563D01*
X145611Y136617D01*
X145672Y136739D01*
X145749Y136878D01*
X145841Y137016D01*
X145949Y137146D01*
X146079Y137269D01*
X146087D01*
X146095Y137285D01*
X146118Y137300D01*
X146149Y137315D01*
X146225Y137361D01*
X146333Y137423D01*
X146463Y137477D01*
X146625Y137523D01*
X146801Y137553D01*
X147001Y137569D01*
X147070D01*
X147147Y137561D01*
D02*
G37*
G36*
X129353Y136878D02*
X127341D01*
X127065Y135518D01*
X127072Y135526D01*
X127087Y135534D01*
X127111Y135549D01*
X127141Y135572D01*
X127187Y135595D01*
X127233Y135618D01*
X127356Y135679D01*
X127495Y135741D01*
X127656Y135787D01*
X127832Y135825D01*
X128017Y135841D01*
X128078D01*
X128124Y135833D01*
X128186Y135825D01*
X128247Y135818D01*
X128324Y135802D01*
X128401Y135787D01*
X128577Y135726D01*
X128670Y135695D01*
X128762Y135649D01*
X128862Y135595D01*
X128954Y135534D01*
X129046Y135465D01*
X129130Y135380D01*
X129138Y135372D01*
X129153Y135357D01*
X129176Y135334D01*
X129200Y135295D01*
X129238Y135249D01*
X129276Y135196D01*
X129315Y135134D01*
X129361Y135065D01*
X129407Y134981D01*
X129445Y134896D01*
X129484Y134796D01*
X129522Y134696D01*
X129545Y134581D01*
X129568Y134466D01*
X129584Y134335D01*
X129591Y134205D01*
Y134197D01*
Y134174D01*
Y134136D01*
X129584Y134090D01*
X129576Y134028D01*
X129568Y133959D01*
X129560Y133882D01*
X129545Y133798D01*
X129491Y133614D01*
X129422Y133422D01*
X129376Y133314D01*
X129322Y133214D01*
X129261Y133114D01*
X129192Y133022D01*
X129184Y133015D01*
X129169Y132999D01*
X129138Y132968D01*
X129100Y132930D01*
X129054Y132884D01*
X128992Y132830D01*
X128923Y132776D01*
X128839Y132723D01*
X128754Y132661D01*
X128654Y132607D01*
X128539Y132554D01*
X128424Y132508D01*
X128293Y132469D01*
X128163Y132439D01*
X128017Y132423D01*
X127863Y132415D01*
X127794D01*
X127748Y132423D01*
X127694Y132431D01*
X127625Y132439D01*
X127548Y132446D01*
X127464Y132462D01*
X127287Y132508D01*
X127103Y132577D01*
X127011Y132623D01*
X126919Y132677D01*
X126826Y132730D01*
X126742Y132799D01*
X126734Y132807D01*
X126727Y132815D01*
X126704Y132838D01*
X126673Y132869D01*
X126642Y132907D01*
X126604Y132953D01*
X126565Y133007D01*
X126519Y133068D01*
X126435Y133214D01*
X126350Y133391D01*
X126289Y133591D01*
X126266Y133706D01*
X126250Y133821D01*
X126903Y133867D01*
Y133859D01*
Y133844D01*
X126911Y133821D01*
X126919Y133790D01*
X126942Y133706D01*
X126972Y133598D01*
X127011Y133483D01*
X127072Y133368D01*
X127141Y133253D01*
X127233Y133153D01*
X127249Y133145D01*
X127279Y133114D01*
X127333Y133084D01*
X127410Y133038D01*
X127502Y132999D01*
X127610Y132961D01*
X127733Y132930D01*
X127863Y132922D01*
X127909D01*
X127940Y132930D01*
X128024Y132938D01*
X128132Y132961D01*
X128247Y133007D01*
X128378Y133061D01*
X128501Y133145D01*
X128562Y133191D01*
X128623Y133253D01*
Y133260D01*
X128639Y133268D01*
X128670Y133314D01*
X128723Y133391D01*
X128777Y133491D01*
X128831Y133621D01*
X128885Y133775D01*
X128915Y133951D01*
X128931Y134151D01*
Y134159D01*
Y134174D01*
Y134205D01*
X128923Y134236D01*
Y134282D01*
X128915Y134335D01*
X128892Y134458D01*
X128862Y134589D01*
X128808Y134727D01*
X128731Y134865D01*
X128631Y134988D01*
X128616Y135004D01*
X128577Y135034D01*
X128516Y135088D01*
X128424Y135142D01*
X128316Y135196D01*
X128178Y135249D01*
X128024Y135280D01*
X127856Y135295D01*
X127802D01*
X127748Y135288D01*
X127671Y135280D01*
X127587Y135257D01*
X127495Y135234D01*
X127402Y135196D01*
X127310Y135150D01*
X127303Y135142D01*
X127272Y135127D01*
X127226Y135096D01*
X127172Y135057D01*
X127118Y135004D01*
X127057Y134942D01*
X126995Y134873D01*
X126942Y134796D01*
X126358Y134881D01*
X126849Y137469D01*
X129353D01*
Y136878D01*
D02*
G37*
G36*
X124123Y137561D02*
X124215Y137546D01*
X124323Y137530D01*
X124446Y137500D01*
X124568Y137454D01*
X124684Y137400D01*
X124699Y137392D01*
X124737Y137369D01*
X124791Y137331D01*
X124868Y137285D01*
X124945Y137215D01*
X125029Y137131D01*
X125114Y137039D01*
X125191Y136931D01*
X125198Y136916D01*
X125221Y136878D01*
X125260Y136809D01*
X125306Y136724D01*
X125352Y136617D01*
X125406Y136486D01*
X125459Y136340D01*
X125505Y136179D01*
Y136171D01*
X125513Y136156D01*
Y136133D01*
X125521Y136094D01*
X125536Y136056D01*
X125544Y136002D01*
X125551Y135933D01*
X125567Y135864D01*
X125575Y135779D01*
X125582Y135695D01*
X125598Y135595D01*
X125605Y135487D01*
X125613Y135372D01*
Y135257D01*
X125621Y134988D01*
Y134981D01*
Y134950D01*
Y134904D01*
Y134842D01*
X125613Y134766D01*
Y134681D01*
X125605Y134581D01*
X125598Y134474D01*
X125575Y134243D01*
X125544Y134005D01*
X125498Y133767D01*
X125467Y133660D01*
X125436Y133552D01*
Y133545D01*
X125429Y133529D01*
X125421Y133498D01*
X125406Y133460D01*
X125383Y133414D01*
X125359Y133368D01*
X125298Y133245D01*
X125221Y133107D01*
X125129Y132968D01*
X125022Y132830D01*
X124891Y132707D01*
X124883D01*
X124876Y132692D01*
X124853Y132684D01*
X124830Y132661D01*
X124745Y132615D01*
X124645Y132561D01*
X124507Y132508D01*
X124353Y132462D01*
X124177Y132431D01*
X123977Y132415D01*
X123908D01*
X123854Y132423D01*
X123793Y132431D01*
X123724Y132446D01*
X123647Y132462D01*
X123562Y132477D01*
X123378Y132538D01*
X123278Y132585D01*
X123186Y132631D01*
X123086Y132692D01*
X122994Y132761D01*
X122910Y132838D01*
X122825Y132930D01*
X122817Y132938D01*
X122802Y132961D01*
X122779Y132999D01*
X122748Y133053D01*
X122710Y133122D01*
X122671Y133207D01*
X122625Y133306D01*
X122579Y133429D01*
X122533Y133560D01*
X122487Y133713D01*
X122449Y133882D01*
X122410Y134067D01*
X122380Y134274D01*
X122357Y134489D01*
X122341Y134735D01*
X122334Y134988D01*
Y134996D01*
Y135027D01*
Y135073D01*
Y135134D01*
X122341Y135211D01*
Y135295D01*
X122349Y135395D01*
X122357Y135503D01*
X122380Y135733D01*
X122410Y135971D01*
X122449Y136209D01*
X122479Y136317D01*
X122510Y136425D01*
Y136432D01*
X122518Y136448D01*
X122533Y136478D01*
X122549Y136517D01*
X122564Y136563D01*
X122587Y136617D01*
X122649Y136739D01*
X122725Y136878D01*
X122817Y137016D01*
X122925Y137146D01*
X123056Y137269D01*
X123063D01*
X123071Y137285D01*
X123094Y137300D01*
X123125Y137315D01*
X123201Y137361D01*
X123309Y137423D01*
X123440Y137477D01*
X123601Y137523D01*
X123777Y137553D01*
X123977Y137569D01*
X124046D01*
X124123Y137561D01*
D02*
G37*
G36*
X120160D02*
X120222D01*
X120283Y137546D01*
X120437Y137523D01*
X120606Y137477D01*
X120782Y137408D01*
X120874Y137361D01*
X120959Y137315D01*
X121043Y137254D01*
X121120Y137185D01*
X121128Y137177D01*
X121135Y137169D01*
X121159Y137146D01*
X121182Y137116D01*
X121212Y137077D01*
X121251Y137031D01*
X121327Y136924D01*
X121397Y136785D01*
X121466Y136624D01*
X121512Y136448D01*
X121519Y136348D01*
X121527Y136248D01*
Y136232D01*
Y136186D01*
X121519Y136125D01*
X121504Y136040D01*
X121481Y135941D01*
X121450Y135841D01*
X121404Y135733D01*
X121343Y135633D01*
X121335Y135626D01*
X121312Y135595D01*
X121266Y135549D01*
X121205Y135487D01*
X121128Y135426D01*
X121028Y135365D01*
X120913Y135295D01*
X120782Y135242D01*
X120790D01*
X120805Y135234D01*
X120828Y135226D01*
X120859Y135211D01*
X120943Y135173D01*
X121043Y135127D01*
X121159Y135057D01*
X121274Y134973D01*
X121389Y134865D01*
X121489Y134750D01*
X121496Y134735D01*
X121527Y134689D01*
X121566Y134620D01*
X121612Y134520D01*
X121658Y134405D01*
X121696Y134266D01*
X121727Y134113D01*
X121735Y133944D01*
Y133936D01*
Y133913D01*
Y133882D01*
X121727Y133836D01*
X121719Y133783D01*
X121712Y133713D01*
X121681Y133560D01*
X121619Y133391D01*
X121589Y133299D01*
X121543Y133207D01*
X121489Y133114D01*
X121427Y133022D01*
X121358Y132938D01*
X121274Y132853D01*
X121266Y132846D01*
X121251Y132838D01*
X121228Y132815D01*
X121189Y132784D01*
X121143Y132753D01*
X121089Y132715D01*
X121028Y132677D01*
X120951Y132638D01*
X120867Y132592D01*
X120775Y132554D01*
X120675Y132515D01*
X120567Y132485D01*
X120460Y132454D01*
X120337Y132431D01*
X120206Y132423D01*
X120068Y132415D01*
X119999D01*
X119945Y132423D01*
X119884Y132431D01*
X119807Y132439D01*
X119730Y132454D01*
X119638Y132469D01*
X119446Y132523D01*
X119346Y132561D01*
X119246Y132600D01*
X119146Y132654D01*
X119047Y132707D01*
X118954Y132776D01*
X118862Y132853D01*
X118855Y132861D01*
X118839Y132876D01*
X118824Y132899D01*
X118793Y132930D01*
X118755Y132976D01*
X118716Y133030D01*
X118678Y133091D01*
X118640Y133160D01*
X118593Y133237D01*
X118555Y133322D01*
X118478Y133506D01*
X118447Y133614D01*
X118432Y133721D01*
X118417Y133836D01*
X118409Y133959D01*
Y133967D01*
Y133982D01*
Y134005D01*
X118417Y134044D01*
Y134082D01*
X118424Y134136D01*
X118440Y134243D01*
X118471Y134374D01*
X118517Y134512D01*
X118570Y134650D01*
X118655Y134781D01*
Y134789D01*
X118670Y134796D01*
X118701Y134835D01*
X118762Y134896D01*
X118839Y134965D01*
X118939Y135042D01*
X119062Y135119D01*
X119208Y135188D01*
X119369Y135242D01*
X119361D01*
X119354Y135249D01*
X119308Y135265D01*
X119239Y135303D01*
X119154Y135342D01*
X119054Y135403D01*
X118962Y135472D01*
X118870Y135549D01*
X118793Y135641D01*
X118785Y135656D01*
X118762Y135687D01*
X118732Y135741D01*
X118701Y135818D01*
X118670Y135910D01*
X118640Y136017D01*
X118616Y136133D01*
X118609Y136263D01*
Y136271D01*
Y136286D01*
Y136317D01*
X118616Y136355D01*
X118624Y136401D01*
X118632Y136455D01*
X118655Y136586D01*
X118701Y136732D01*
X118778Y136885D01*
X118816Y136970D01*
X118870Y137047D01*
X118931Y137123D01*
X119000Y137192D01*
X119008Y137200D01*
X119016Y137208D01*
X119039Y137231D01*
X119070Y137254D01*
X119116Y137277D01*
X119162Y137315D01*
X119216Y137346D01*
X119285Y137384D01*
X119431Y137454D01*
X119615Y137507D01*
X119822Y137553D01*
X119930Y137561D01*
X120053Y137569D01*
X120114D01*
X120160Y137561D01*
D02*
G37*
G36*
X116289D02*
X116382Y137546D01*
X116489Y137530D01*
X116612Y137500D01*
X116735Y137454D01*
X116850Y137400D01*
X116865Y137392D01*
X116904Y137369D01*
X116958Y137331D01*
X117034Y137285D01*
X117111Y137215D01*
X117196Y137131D01*
X117280Y137039D01*
X117357Y136931D01*
X117365Y136916D01*
X117388Y136878D01*
X117426Y136809D01*
X117472Y136724D01*
X117518Y136617D01*
X117572Y136486D01*
X117626Y136340D01*
X117672Y136179D01*
Y136171D01*
X117680Y136156D01*
Y136133D01*
X117687Y136094D01*
X117703Y136056D01*
X117710Y136002D01*
X117718Y135933D01*
X117733Y135864D01*
X117741Y135779D01*
X117749Y135695D01*
X117764Y135595D01*
X117772Y135487D01*
X117779Y135372D01*
Y135257D01*
X117787Y134988D01*
Y134981D01*
Y134950D01*
Y134904D01*
Y134842D01*
X117779Y134766D01*
Y134681D01*
X117772Y134581D01*
X117764Y134474D01*
X117741Y134243D01*
X117710Y134005D01*
X117664Y133767D01*
X117633Y133660D01*
X117603Y133552D01*
Y133545D01*
X117595Y133529D01*
X117587Y133498D01*
X117572Y133460D01*
X117549Y133414D01*
X117526Y133368D01*
X117464Y133245D01*
X117388Y133107D01*
X117296Y132968D01*
X117188Y132830D01*
X117057Y132707D01*
X117050D01*
X117042Y132692D01*
X117019Y132684D01*
X116996Y132661D01*
X116911Y132615D01*
X116812Y132561D01*
X116673Y132508D01*
X116520Y132462D01*
X116343Y132431D01*
X116144Y132415D01*
X116074D01*
X116021Y132423D01*
X115959Y132431D01*
X115890Y132446D01*
X115813Y132462D01*
X115729Y132477D01*
X115544Y132538D01*
X115445Y132585D01*
X115352Y132631D01*
X115253Y132692D01*
X115161Y132761D01*
X115076Y132838D01*
X114991Y132930D01*
X114984Y132938D01*
X114969Y132961D01*
X114945Y132999D01*
X114915Y133053D01*
X114876Y133122D01*
X114838Y133207D01*
X114792Y133306D01*
X114746Y133429D01*
X114700Y133560D01*
X114654Y133713D01*
X114615Y133882D01*
X114577Y134067D01*
X114546Y134274D01*
X114523Y134489D01*
X114508Y134735D01*
X114500Y134988D01*
Y134996D01*
Y135027D01*
Y135073D01*
Y135134D01*
X114508Y135211D01*
Y135295D01*
X114515Y135395D01*
X114523Y135503D01*
X114546Y135733D01*
X114577Y135971D01*
X114615Y136209D01*
X114646Y136317D01*
X114677Y136425D01*
Y136432D01*
X114684Y136448D01*
X114700Y136478D01*
X114715Y136517D01*
X114730Y136563D01*
X114753Y136617D01*
X114815Y136739D01*
X114892Y136878D01*
X114984Y137016D01*
X115091Y137146D01*
X115222Y137269D01*
X115230D01*
X115237Y137285D01*
X115260Y137300D01*
X115291Y137315D01*
X115368Y137361D01*
X115475Y137423D01*
X115606Y137477D01*
X115767Y137523D01*
X115944Y137553D01*
X116144Y137569D01*
X116213D01*
X116289Y137561D01*
D02*
G37*
G36*
X97621Y137758D02*
X97667D01*
X97729Y137751D01*
X97867Y137728D01*
X98021Y137682D01*
X98182Y137620D01*
X98343Y137543D01*
X98420Y137490D01*
X98497Y137428D01*
X98504D01*
X98512Y137413D01*
X98558Y137367D01*
X98620Y137290D01*
X98696Y137190D01*
X98781Y137059D01*
X98850Y136906D01*
X98919Y136722D01*
X98958Y136514D01*
X98343Y136468D01*
Y136476D01*
Y136484D01*
X98328Y136530D01*
X98305Y136591D01*
X98282Y136668D01*
X98205Y136845D01*
X98159Y136921D01*
X98105Y136990D01*
X98097Y137006D01*
X98059Y137037D01*
X98005Y137075D01*
X97936Y137129D01*
X97844Y137175D01*
X97736Y137221D01*
X97614Y137251D01*
X97483Y137259D01*
X97429D01*
X97375Y137251D01*
X97306Y137236D01*
X97222Y137221D01*
X97130Y137190D01*
X97045Y137144D01*
X96953Y137090D01*
X96938Y137083D01*
X96907Y137052D01*
X96853Y136998D01*
X96792Y136929D01*
X96715Y136845D01*
X96638Y136737D01*
X96561Y136606D01*
X96492Y136460D01*
Y136453D01*
X96485Y136445D01*
X96477Y136414D01*
X96469Y136384D01*
X96454Y136345D01*
X96438Y136292D01*
X96423Y136230D01*
X96408Y136161D01*
X96392Y136084D01*
X96377Y136000D01*
X96362Y135900D01*
X96346Y135800D01*
X96339Y135685D01*
X96331Y135562D01*
X96323Y135431D01*
Y135301D01*
X96331Y135309D01*
X96362Y135347D01*
X96408Y135408D01*
X96477Y135485D01*
X96554Y135570D01*
X96646Y135654D01*
X96753Y135731D01*
X96869Y135800D01*
X96884Y135808D01*
X96922Y135823D01*
X96991Y135854D01*
X97076Y135884D01*
X97176Y135915D01*
X97291Y135946D01*
X97414Y135961D01*
X97544Y135969D01*
X97606D01*
X97652Y135961D01*
X97706Y135954D01*
X97767Y135946D01*
X97913Y135915D01*
X98074Y135854D01*
X98167Y135823D01*
X98251Y135777D01*
X98343Y135723D01*
X98435Y135662D01*
X98520Y135593D01*
X98604Y135508D01*
X98612Y135501D01*
X98620Y135485D01*
X98643Y135462D01*
X98673Y135424D01*
X98704Y135378D01*
X98743Y135324D01*
X98781Y135262D01*
X98827Y135193D01*
X98865Y135109D01*
X98904Y135024D01*
X98942Y134924D01*
X98973Y134825D01*
X99004Y134710D01*
X99027Y134594D01*
X99034Y134464D01*
X99042Y134333D01*
Y134326D01*
Y134310D01*
Y134287D01*
Y134256D01*
X99034Y134210D01*
Y134164D01*
X99019Y134041D01*
X98988Y133911D01*
X98958Y133757D01*
X98904Y133604D01*
X98835Y133450D01*
Y133442D01*
X98827Y133435D01*
X98812Y133412D01*
X98796Y133381D01*
X98750Y133312D01*
X98689Y133220D01*
X98604Y133120D01*
X98504Y133020D01*
X98397Y132920D01*
X98266Y132828D01*
X98251Y132820D01*
X98205Y132797D01*
X98128Y132759D01*
X98036Y132720D01*
X97913Y132682D01*
X97775Y132643D01*
X97621Y132621D01*
X97460Y132613D01*
X97429D01*
X97383Y132621D01*
X97329D01*
X97268Y132628D01*
X97191Y132643D01*
X97107Y132659D01*
X97014Y132682D01*
X96915Y132713D01*
X96807Y132751D01*
X96707Y132797D01*
X96600Y132851D01*
X96492Y132920D01*
X96385Y132997D01*
X96285Y133081D01*
X96193Y133181D01*
X96185Y133189D01*
X96170Y133212D01*
X96147Y133243D01*
X96116Y133289D01*
X96078Y133350D01*
X96039Y133427D01*
X95993Y133519D01*
X95955Y133627D01*
X95909Y133749D01*
X95863Y133888D01*
X95824Y134041D01*
X95786Y134210D01*
X95755Y134395D01*
X95732Y134602D01*
X95717Y134817D01*
X95709Y135055D01*
Y135063D01*
Y135070D01*
Y135093D01*
Y135117D01*
Y135193D01*
X95717Y135293D01*
X95724Y135416D01*
X95740Y135554D01*
X95755Y135708D01*
X95778Y135869D01*
X95801Y136046D01*
X95839Y136222D01*
X95885Y136399D01*
X95939Y136568D01*
X96001Y136745D01*
X96070Y136898D01*
X96154Y137052D01*
X96246Y137182D01*
X96254Y137190D01*
X96270Y137206D01*
X96293Y137236D01*
X96331Y137275D01*
X96385Y137321D01*
X96438Y137367D01*
X96508Y137420D01*
X96584Y137474D01*
X96669Y137528D01*
X96769Y137582D01*
X96869Y137628D01*
X96984Y137674D01*
X97107Y137712D01*
X97237Y137743D01*
X97375Y137758D01*
X97521Y137766D01*
X97575D01*
X97621Y137758D01*
D02*
G37*
G36*
X105301D02*
X105401Y137743D01*
X105516Y137720D01*
X105647Y137689D01*
X105777Y137643D01*
X105908Y137582D01*
X105916D01*
X105923Y137574D01*
X105969Y137551D01*
X106031Y137513D01*
X106108Y137459D01*
X106192Y137390D01*
X106284Y137305D01*
X106369Y137206D01*
X106446Y137098D01*
X106453Y137083D01*
X106476Y137044D01*
X106507Y136983D01*
X106538Y136906D01*
X106568Y136806D01*
X106599Y136699D01*
X106622Y136583D01*
X106630Y136453D01*
Y136437D01*
Y136399D01*
X106622Y136338D01*
X106607Y136261D01*
X106584Y136169D01*
X106553Y136069D01*
X106515Y135961D01*
X106453Y135862D01*
X106446Y135846D01*
X106422Y135815D01*
X106376Y135769D01*
X106323Y135708D01*
X106246Y135639D01*
X106161Y135570D01*
X106054Y135493D01*
X105931Y135431D01*
X105939D01*
X105954Y135424D01*
X105977D01*
X106008Y135408D01*
X106085Y135385D01*
X106184Y135339D01*
X106292Y135285D01*
X106407Y135209D01*
X106522Y135117D01*
X106622Y135001D01*
X106630Y134986D01*
X106661Y134940D01*
X106699Y134871D01*
X106753Y134779D01*
X106799Y134663D01*
X106837Y134525D01*
X106868Y134364D01*
X106876Y134187D01*
Y134179D01*
Y134157D01*
Y134126D01*
X106868Y134080D01*
X106860Y134018D01*
X106853Y133957D01*
X106837Y133880D01*
X106814Y133803D01*
X106760Y133627D01*
X106722Y133527D01*
X106668Y133435D01*
X106614Y133342D01*
X106553Y133250D01*
X106476Y133158D01*
X106392Y133066D01*
X106384Y133058D01*
X106369Y133043D01*
X106346Y133028D01*
X106307Y132997D01*
X106261Y132958D01*
X106200Y132920D01*
X106131Y132882D01*
X106061Y132843D01*
X105977Y132797D01*
X105885Y132759D01*
X105785Y132720D01*
X105677Y132682D01*
X105562Y132651D01*
X105439Y132636D01*
X105309Y132621D01*
X105178Y132613D01*
X105117D01*
X105071Y132621D01*
X105009Y132628D01*
X104948Y132636D01*
X104871Y132643D01*
X104794Y132659D01*
X104618Y132705D01*
X104433Y132782D01*
X104341Y132820D01*
X104257Y132874D01*
X104165Y132935D01*
X104080Y133004D01*
X104072Y133012D01*
X104065Y133020D01*
X104042Y133043D01*
X104011Y133074D01*
X103980Y133120D01*
X103942Y133166D01*
X103896Y133220D01*
X103857Y133281D01*
X103765Y133435D01*
X103688Y133611D01*
X103619Y133811D01*
X103596Y133918D01*
X103581Y134034D01*
X104203Y134118D01*
Y134110D01*
X104211Y134095D01*
Y134064D01*
X104226Y134034D01*
X104249Y133941D01*
X104287Y133826D01*
X104333Y133703D01*
X104395Y133573D01*
X104472Y133458D01*
X104556Y133358D01*
X104572Y133350D01*
X104602Y133319D01*
X104656Y133289D01*
X104733Y133243D01*
X104817Y133204D01*
X104925Y133166D01*
X105048Y133135D01*
X105178Y133127D01*
X105224D01*
X105255Y133135D01*
X105332Y133143D01*
X105432Y133166D01*
X105555Y133204D01*
X105677Y133250D01*
X105800Y133327D01*
X105916Y133427D01*
X105931Y133442D01*
X105962Y133481D01*
X106008Y133542D01*
X106069Y133634D01*
X106123Y133742D01*
X106169Y133872D01*
X106200Y134018D01*
X106215Y134179D01*
Y134187D01*
Y134195D01*
Y134218D01*
X106207Y134249D01*
X106200Y134326D01*
X106177Y134425D01*
X106146Y134533D01*
X106092Y134656D01*
X106023Y134771D01*
X105931Y134878D01*
X105916Y134894D01*
X105885Y134924D01*
X105823Y134963D01*
X105739Y135017D01*
X105639Y135070D01*
X105516Y135109D01*
X105386Y135140D01*
X105232Y135155D01*
X105163D01*
X105109Y135147D01*
X105048Y135140D01*
X104971Y135132D01*
X104886Y135117D01*
X104794Y135093D01*
X104863Y135639D01*
X104902D01*
X104933Y135631D01*
X105032D01*
X105102Y135639D01*
X105201Y135654D01*
X105309Y135677D01*
X105424Y135715D01*
X105547Y135762D01*
X105670Y135831D01*
X105685Y135838D01*
X105724Y135869D01*
X105770Y135923D01*
X105831Y135992D01*
X105893Y136076D01*
X105939Y136184D01*
X105977Y136315D01*
X105992Y136468D01*
Y136476D01*
Y136484D01*
Y136522D01*
X105977Y136583D01*
X105962Y136668D01*
X105939Y136752D01*
X105893Y136845D01*
X105839Y136944D01*
X105762Y137029D01*
X105754Y137037D01*
X105724Y137067D01*
X105670Y137106D01*
X105601Y137144D01*
X105516Y137190D01*
X105416Y137221D01*
X105301Y137251D01*
X105171Y137259D01*
X105109D01*
X105040Y137244D01*
X104963Y137229D01*
X104863Y137206D01*
X104764Y137159D01*
X104664Y137106D01*
X104564Y137029D01*
X104556Y137021D01*
X104525Y136990D01*
X104487Y136937D01*
X104441Y136860D01*
X104387Y136768D01*
X104341Y136653D01*
X104295Y136514D01*
X104264Y136353D01*
X103642Y136460D01*
Y136468D01*
X103650Y136491D01*
X103658Y136522D01*
X103665Y136560D01*
X103681Y136614D01*
X103696Y136676D01*
X103750Y136814D01*
X103811Y136967D01*
X103903Y137129D01*
X104011Y137282D01*
X104149Y137420D01*
X104157Y137428D01*
X104165Y137436D01*
X104188Y137451D01*
X104226Y137474D01*
X104264Y137497D01*
X104311Y137528D01*
X104426Y137597D01*
X104572Y137659D01*
X104748Y137712D01*
X104940Y137751D01*
X105048Y137766D01*
X105224D01*
X105301Y137758D01*
D02*
G37*
G36*
X101446D02*
X101538Y137743D01*
X101646Y137728D01*
X101768Y137697D01*
X101891Y137651D01*
X102006Y137597D01*
X102022Y137590D01*
X102060Y137566D01*
X102114Y137528D01*
X102191Y137482D01*
X102268Y137413D01*
X102352Y137328D01*
X102437Y137236D01*
X102513Y137129D01*
X102521Y137113D01*
X102544Y137075D01*
X102583Y137006D01*
X102629Y136921D01*
X102675Y136814D01*
X102728Y136683D01*
X102782Y136537D01*
X102828Y136376D01*
Y136368D01*
X102836Y136353D01*
Y136330D01*
X102844Y136292D01*
X102859Y136253D01*
X102867Y136199D01*
X102874Y136130D01*
X102890Y136061D01*
X102897Y135977D01*
X102905Y135892D01*
X102920Y135792D01*
X102928Y135685D01*
X102936Y135570D01*
Y135454D01*
X102943Y135186D01*
Y135178D01*
Y135147D01*
Y135101D01*
Y135040D01*
X102936Y134963D01*
Y134878D01*
X102928Y134779D01*
X102920Y134671D01*
X102897Y134441D01*
X102867Y134203D01*
X102821Y133965D01*
X102790Y133857D01*
X102759Y133749D01*
Y133742D01*
X102751Y133726D01*
X102744Y133696D01*
X102728Y133657D01*
X102705Y133611D01*
X102682Y133565D01*
X102621Y133442D01*
X102544Y133304D01*
X102452Y133166D01*
X102344Y133028D01*
X102214Y132905D01*
X102206D01*
X102199Y132889D01*
X102175Y132882D01*
X102152Y132859D01*
X102068Y132812D01*
X101968Y132759D01*
X101830Y132705D01*
X101676Y132659D01*
X101500Y132628D01*
X101300Y132613D01*
X101231D01*
X101177Y132621D01*
X101116Y132628D01*
X101047Y132643D01*
X100970Y132659D01*
X100885Y132674D01*
X100701Y132736D01*
X100601Y132782D01*
X100509Y132828D01*
X100409Y132889D01*
X100317Y132958D01*
X100232Y133035D01*
X100148Y133127D01*
X100140Y133135D01*
X100125Y133158D01*
X100102Y133196D01*
X100071Y133250D01*
X100033Y133319D01*
X99994Y133404D01*
X99948Y133504D01*
X99902Y133627D01*
X99856Y133757D01*
X99810Y133911D01*
X99772Y134080D01*
X99733Y134264D01*
X99703Y134471D01*
X99679Y134686D01*
X99664Y134932D01*
X99656Y135186D01*
Y135193D01*
Y135224D01*
Y135270D01*
Y135331D01*
X99664Y135408D01*
Y135493D01*
X99672Y135593D01*
X99679Y135700D01*
X99703Y135931D01*
X99733Y136169D01*
X99772Y136407D01*
X99802Y136514D01*
X99833Y136622D01*
Y136629D01*
X99841Y136645D01*
X99856Y136676D01*
X99871Y136714D01*
X99887Y136760D01*
X99910Y136814D01*
X99971Y136937D01*
X100048Y137075D01*
X100140Y137213D01*
X100248Y137344D01*
X100378Y137467D01*
X100386D01*
X100394Y137482D01*
X100417Y137497D01*
X100447Y137513D01*
X100524Y137559D01*
X100632Y137620D01*
X100762Y137674D01*
X100924Y137720D01*
X101100Y137751D01*
X101300Y137766D01*
X101369D01*
X101446Y137758D01*
D02*
G37*
G36*
X93612D02*
X93704Y137743D01*
X93812Y137728D01*
X93935Y137697D01*
X94058Y137651D01*
X94173Y137597D01*
X94188Y137590D01*
X94227Y137566D01*
X94280Y137528D01*
X94357Y137482D01*
X94434Y137413D01*
X94519Y137328D01*
X94603Y137236D01*
X94680Y137129D01*
X94687Y137113D01*
X94710Y137075D01*
X94749Y137006D01*
X94795Y136921D01*
X94841Y136814D01*
X94895Y136683D01*
X94949Y136537D01*
X94995Y136376D01*
Y136368D01*
X95002Y136353D01*
Y136330D01*
X95010Y136292D01*
X95025Y136253D01*
X95033Y136199D01*
X95041Y136130D01*
X95056Y136061D01*
X95064Y135977D01*
X95071Y135892D01*
X95087Y135792D01*
X95095Y135685D01*
X95102Y135570D01*
Y135454D01*
X95110Y135186D01*
Y135178D01*
Y135147D01*
Y135101D01*
Y135040D01*
X95102Y134963D01*
Y134878D01*
X95095Y134779D01*
X95087Y134671D01*
X95064Y134441D01*
X95033Y134203D01*
X94987Y133965D01*
X94956Y133857D01*
X94925Y133749D01*
Y133742D01*
X94918Y133726D01*
X94910Y133696D01*
X94895Y133657D01*
X94872Y133611D01*
X94849Y133565D01*
X94787Y133442D01*
X94710Y133304D01*
X94618Y133166D01*
X94511Y133028D01*
X94380Y132905D01*
X94373D01*
X94365Y132889D01*
X94342Y132882D01*
X94319Y132859D01*
X94234Y132812D01*
X94134Y132759D01*
X93996Y132705D01*
X93843Y132659D01*
X93666Y132628D01*
X93466Y132613D01*
X93397D01*
X93343Y132621D01*
X93282Y132628D01*
X93213Y132643D01*
X93136Y132659D01*
X93052Y132674D01*
X92867Y132736D01*
X92767Y132782D01*
X92675Y132828D01*
X92575Y132889D01*
X92483Y132958D01*
X92399Y133035D01*
X92314Y133127D01*
X92307Y133135D01*
X92291Y133158D01*
X92268Y133196D01*
X92238Y133250D01*
X92199Y133319D01*
X92161Y133404D01*
X92115Y133504D01*
X92069Y133627D01*
X92023Y133757D01*
X91976Y133911D01*
X91938Y134080D01*
X91900Y134264D01*
X91869Y134471D01*
X91846Y134686D01*
X91830Y134932D01*
X91823Y135186D01*
Y135193D01*
Y135224D01*
Y135270D01*
Y135331D01*
X91830Y135408D01*
Y135493D01*
X91838Y135593D01*
X91846Y135700D01*
X91869Y135931D01*
X91900Y136169D01*
X91938Y136407D01*
X91969Y136514D01*
X91999Y136622D01*
Y136629D01*
X92007Y136645D01*
X92023Y136676D01*
X92038Y136714D01*
X92053Y136760D01*
X92076Y136814D01*
X92138Y136937D01*
X92215Y137075D01*
X92307Y137213D01*
X92414Y137344D01*
X92545Y137467D01*
X92552D01*
X92560Y137482D01*
X92583Y137497D01*
X92614Y137513D01*
X92691Y137559D01*
X92798Y137620D01*
X92929Y137674D01*
X93090Y137720D01*
X93267Y137751D01*
X93466Y137766D01*
X93535D01*
X93612Y137758D01*
D02*
G37*
G36*
X86040Y138061D02*
X86101Y138053D01*
X86170Y138046D01*
X86247Y138038D01*
X86332Y138015D01*
X86516Y137969D01*
X86708Y137900D01*
X86808Y137854D01*
X86900Y137800D01*
X86984Y137731D01*
X87069Y137662D01*
X87077Y137654D01*
X87084Y137646D01*
X87107Y137623D01*
X87138Y137593D01*
X87169Y137547D01*
X87207Y137501D01*
X87284Y137385D01*
X87361Y137239D01*
X87430Y137070D01*
X87484Y136878D01*
X87491Y136771D01*
X87499Y136663D01*
Y136648D01*
Y136610D01*
X87491Y136548D01*
X87484Y136471D01*
X87468Y136379D01*
X87445Y136279D01*
X87415Y136172D01*
X87369Y136064D01*
X87361Y136049D01*
X87345Y136011D01*
X87315Y135957D01*
X87269Y135880D01*
X87215Y135788D01*
X87146Y135680D01*
X87054Y135573D01*
X86954Y135450D01*
X86938Y135435D01*
X86900Y135389D01*
X86831Y135319D01*
X86785Y135273D01*
X86731Y135220D01*
X86670Y135158D01*
X86593Y135089D01*
X86516Y135020D01*
X86431Y134935D01*
X86339Y134851D01*
X86232Y134759D01*
X86124Y134667D01*
X86001Y134559D01*
X85994Y134551D01*
X85978Y134536D01*
X85948Y134513D01*
X85909Y134482D01*
X85817Y134405D01*
X85702Y134306D01*
X85587Y134198D01*
X85464Y134091D01*
X85364Y133998D01*
X85326Y133960D01*
X85287Y133922D01*
X85280Y133914D01*
X85264Y133891D01*
X85233Y133860D01*
X85195Y133814D01*
X85111Y133714D01*
X85026Y133591D01*
X87507D01*
Y133000D01*
X84166D01*
Y133008D01*
Y133038D01*
Y133084D01*
X84174Y133138D01*
X84181Y133200D01*
X84189Y133269D01*
X84212Y133346D01*
X84235Y133422D01*
Y133430D01*
X84243Y133438D01*
X84258Y133484D01*
X84289Y133545D01*
X84335Y133637D01*
X84389Y133737D01*
X84465Y133853D01*
X84542Y133968D01*
X84642Y134091D01*
Y134098D01*
X84657Y134106D01*
X84696Y134152D01*
X84757Y134221D01*
X84849Y134313D01*
X84965Y134421D01*
X85103Y134551D01*
X85272Y134697D01*
X85456Y134859D01*
X85464Y134866D01*
X85495Y134889D01*
X85533Y134920D01*
X85587Y134974D01*
X85656Y135028D01*
X85733Y135097D01*
X85902Y135243D01*
X86086Y135419D01*
X86270Y135596D01*
X86362Y135680D01*
X86439Y135765D01*
X86508Y135849D01*
X86570Y135926D01*
Y135934D01*
X86585Y135941D01*
X86601Y135965D01*
X86616Y135995D01*
X86662Y136072D01*
X86716Y136172D01*
X86769Y136287D01*
X86816Y136410D01*
X86846Y136548D01*
X86862Y136679D01*
Y136686D01*
Y136694D01*
X86854Y136740D01*
X86846Y136809D01*
X86831Y136894D01*
X86792Y136994D01*
X86746Y137093D01*
X86685Y137201D01*
X86593Y137301D01*
X86577Y137309D01*
X86547Y137339D01*
X86485Y137378D01*
X86409Y137431D01*
X86309Y137477D01*
X86193Y137516D01*
X86055Y137547D01*
X85902Y137554D01*
X85856D01*
X85825Y137547D01*
X85748Y137539D01*
X85648Y137523D01*
X85533Y137485D01*
X85410Y137439D01*
X85295Y137370D01*
X85187Y137278D01*
X85180Y137262D01*
X85149Y137232D01*
X85103Y137170D01*
X85057Y137086D01*
X85003Y136978D01*
X84965Y136855D01*
X84934Y136709D01*
X84919Y136540D01*
X84281Y136610D01*
Y136617D01*
Y136640D01*
X84289Y136679D01*
X84297Y136725D01*
X84312Y136786D01*
X84320Y136855D01*
X84366Y137009D01*
X84427Y137186D01*
X84512Y137362D01*
X84627Y137539D01*
X84688Y137616D01*
X84765Y137692D01*
X84773Y137700D01*
X84788Y137708D01*
X84811Y137731D01*
X84842Y137754D01*
X84888Y137777D01*
X84942Y137815D01*
X85003Y137846D01*
X85072Y137884D01*
X85149Y137915D01*
X85233Y137954D01*
X85333Y137984D01*
X85433Y138007D01*
X85663Y138053D01*
X85786Y138061D01*
X85917Y138069D01*
X85986D01*
X86040Y138061D01*
D02*
G37*
G36*
X79020Y134774D02*
X79704D01*
Y134206D01*
X79020D01*
Y133000D01*
X78398D01*
Y134206D01*
X76209D01*
Y134774D01*
X78513Y138038D01*
X79020D01*
Y134774D01*
D02*
G37*
G36*
X82123Y138061D02*
X82215Y138046D01*
X82323Y138030D01*
X82446Y138000D01*
X82569Y137954D01*
X82684Y137900D01*
X82699Y137892D01*
X82737Y137869D01*
X82791Y137831D01*
X82868Y137785D01*
X82945Y137715D01*
X83029Y137631D01*
X83114Y137539D01*
X83191Y137431D01*
X83198Y137416D01*
X83221Y137378D01*
X83260Y137309D01*
X83306Y137224D01*
X83352Y137117D01*
X83406Y136986D01*
X83459Y136840D01*
X83505Y136679D01*
Y136671D01*
X83513Y136656D01*
Y136633D01*
X83521Y136594D01*
X83536Y136556D01*
X83544Y136502D01*
X83552Y136433D01*
X83567Y136364D01*
X83575Y136279D01*
X83582Y136195D01*
X83598Y136095D01*
X83605Y135987D01*
X83613Y135872D01*
Y135757D01*
X83621Y135488D01*
Y135481D01*
Y135450D01*
Y135404D01*
Y135342D01*
X83613Y135266D01*
Y135181D01*
X83605Y135081D01*
X83598Y134974D01*
X83575Y134743D01*
X83544Y134505D01*
X83498Y134267D01*
X83467Y134160D01*
X83436Y134052D01*
Y134045D01*
X83429Y134029D01*
X83421Y133998D01*
X83406Y133960D01*
X83383Y133914D01*
X83359Y133868D01*
X83298Y133745D01*
X83221Y133607D01*
X83129Y133468D01*
X83022Y133330D01*
X82891Y133207D01*
X82883D01*
X82876Y133192D01*
X82853Y133184D01*
X82830Y133161D01*
X82745Y133115D01*
X82645Y133061D01*
X82507Y133008D01*
X82353Y132962D01*
X82177Y132931D01*
X81977Y132915D01*
X81908D01*
X81854Y132923D01*
X81793Y132931D01*
X81724Y132946D01*
X81647Y132962D01*
X81562Y132977D01*
X81378Y133038D01*
X81278Y133084D01*
X81186Y133131D01*
X81086Y133192D01*
X80994Y133261D01*
X80910Y133338D01*
X80825Y133430D01*
X80817Y133438D01*
X80802Y133461D01*
X80779Y133499D01*
X80748Y133553D01*
X80710Y133622D01*
X80672Y133707D01*
X80625Y133806D01*
X80579Y133929D01*
X80533Y134060D01*
X80487Y134213D01*
X80449Y134382D01*
X80410Y134567D01*
X80380Y134774D01*
X80357Y134989D01*
X80341Y135235D01*
X80334Y135488D01*
Y135496D01*
Y135527D01*
Y135573D01*
Y135634D01*
X80341Y135711D01*
Y135795D01*
X80349Y135895D01*
X80357Y136003D01*
X80380Y136233D01*
X80410Y136471D01*
X80449Y136709D01*
X80480Y136817D01*
X80510Y136925D01*
Y136932D01*
X80518Y136948D01*
X80533Y136978D01*
X80549Y137017D01*
X80564Y137063D01*
X80587Y137117D01*
X80648Y137239D01*
X80725Y137378D01*
X80817Y137516D01*
X80925Y137646D01*
X81055Y137769D01*
X81063D01*
X81071Y137785D01*
X81094Y137800D01*
X81125Y137815D01*
X81201Y137861D01*
X81309Y137923D01*
X81440Y137977D01*
X81601Y138023D01*
X81777Y138053D01*
X81977Y138069D01*
X82046D01*
X82123Y138061D01*
D02*
G37*
G36*
X74289D02*
X74382Y138046D01*
X74489Y138030D01*
X74612Y138000D01*
X74735Y137954D01*
X74850Y137900D01*
X74865Y137892D01*
X74904Y137869D01*
X74958Y137831D01*
X75034Y137785D01*
X75111Y137715D01*
X75196Y137631D01*
X75280Y137539D01*
X75357Y137431D01*
X75365Y137416D01*
X75388Y137378D01*
X75426Y137309D01*
X75472Y137224D01*
X75518Y137117D01*
X75572Y136986D01*
X75626Y136840D01*
X75672Y136679D01*
Y136671D01*
X75679Y136656D01*
Y136633D01*
X75687Y136594D01*
X75703Y136556D01*
X75710Y136502D01*
X75718Y136433D01*
X75733Y136364D01*
X75741Y136279D01*
X75749Y136195D01*
X75764Y136095D01*
X75772Y135987D01*
X75779Y135872D01*
Y135757D01*
X75787Y135488D01*
Y135481D01*
Y135450D01*
Y135404D01*
Y135342D01*
X75779Y135266D01*
Y135181D01*
X75772Y135081D01*
X75764Y134974D01*
X75741Y134743D01*
X75710Y134505D01*
X75664Y134267D01*
X75633Y134160D01*
X75603Y134052D01*
Y134045D01*
X75595Y134029D01*
X75587Y133998D01*
X75572Y133960D01*
X75549Y133914D01*
X75526Y133868D01*
X75464Y133745D01*
X75388Y133607D01*
X75296Y133468D01*
X75188Y133330D01*
X75057Y133207D01*
X75050D01*
X75042Y133192D01*
X75019Y133184D01*
X74996Y133161D01*
X74911Y133115D01*
X74812Y133061D01*
X74673Y133008D01*
X74520Y132962D01*
X74343Y132931D01*
X74143Y132915D01*
X74074D01*
X74021Y132923D01*
X73959Y132931D01*
X73890Y132946D01*
X73813Y132962D01*
X73729Y132977D01*
X73545Y133038D01*
X73445Y133084D01*
X73352Y133131D01*
X73253Y133192D01*
X73160Y133261D01*
X73076Y133338D01*
X72992Y133430D01*
X72984Y133438D01*
X72969Y133461D01*
X72945Y133499D01*
X72915Y133553D01*
X72876Y133622D01*
X72838Y133707D01*
X72792Y133806D01*
X72746Y133929D01*
X72700Y134060D01*
X72654Y134213D01*
X72615Y134382D01*
X72577Y134567D01*
X72546Y134774D01*
X72523Y134989D01*
X72508Y135235D01*
X72500Y135488D01*
Y135496D01*
Y135527D01*
Y135573D01*
Y135634D01*
X72508Y135711D01*
Y135795D01*
X72515Y135895D01*
X72523Y136003D01*
X72546Y136233D01*
X72577Y136471D01*
X72615Y136709D01*
X72646Y136817D01*
X72677Y136925D01*
Y136932D01*
X72684Y136948D01*
X72700Y136978D01*
X72715Y137017D01*
X72730Y137063D01*
X72753Y137117D01*
X72815Y137239D01*
X72892Y137378D01*
X72984Y137516D01*
X73091Y137646D01*
X73222Y137769D01*
X73230D01*
X73237Y137785D01*
X73260Y137800D01*
X73291Y137815D01*
X73368Y137861D01*
X73475Y137923D01*
X73606Y137977D01*
X73767Y138023D01*
X73944Y138053D01*
X74143Y138069D01*
X74213D01*
X74289Y138061D01*
D02*
G37*
G36*
X66416Y132697D02*
X65794D01*
Y136645D01*
X65786Y136637D01*
X65755Y136606D01*
X65702Y136568D01*
X65632Y136514D01*
X65548Y136445D01*
X65448Y136376D01*
X65333Y136292D01*
X65202Y136215D01*
X65195D01*
X65187Y136207D01*
X65141Y136176D01*
X65072Y136138D01*
X64987Y136092D01*
X64887Y136038D01*
X64780Y135992D01*
X64665Y135938D01*
X64557Y135892D01*
Y136499D01*
X64565D01*
X64580Y136507D01*
X64611Y136522D01*
X64642Y136545D01*
X64688Y136568D01*
X64741Y136591D01*
X64864Y136660D01*
X65003Y136745D01*
X65156Y136845D01*
X65310Y136960D01*
X65456Y137083D01*
X65463Y137090D01*
X65471Y137098D01*
X65517Y137144D01*
X65586Y137213D01*
X65671Y137298D01*
X65763Y137405D01*
X65855Y137520D01*
X65940Y137643D01*
X66009Y137766D01*
X66416D01*
Y132697D01*
D02*
G37*
G36*
X58037Y137758D02*
X58098Y137751D01*
X58167Y137743D01*
X58244Y137735D01*
X58329Y137712D01*
X58513Y137666D01*
X58705Y137597D01*
X58805Y137551D01*
X58897Y137497D01*
X58982Y137428D01*
X59066Y137359D01*
X59074Y137351D01*
X59081Y137344D01*
X59104Y137321D01*
X59135Y137290D01*
X59166Y137244D01*
X59204Y137198D01*
X59281Y137083D01*
X59358Y136937D01*
X59427Y136768D01*
X59481Y136576D01*
X59488Y136468D01*
X59496Y136361D01*
Y136345D01*
Y136307D01*
X59488Y136246D01*
X59481Y136169D01*
X59465Y136076D01*
X59442Y135977D01*
X59412Y135869D01*
X59365Y135762D01*
X59358Y135746D01*
X59342Y135708D01*
X59312Y135654D01*
X59266Y135577D01*
X59212Y135485D01*
X59143Y135378D01*
X59051Y135270D01*
X58951Y135147D01*
X58935Y135132D01*
X58897Y135086D01*
X58828Y135017D01*
X58782Y134971D01*
X58728Y134917D01*
X58667Y134855D01*
X58590Y134786D01*
X58513Y134717D01*
X58429Y134633D01*
X58336Y134548D01*
X58229Y134456D01*
X58121Y134364D01*
X57998Y134256D01*
X57991Y134249D01*
X57975Y134233D01*
X57945Y134210D01*
X57906Y134179D01*
X57814Y134103D01*
X57699Y134003D01*
X57584Y133895D01*
X57461Y133788D01*
X57361Y133696D01*
X57323Y133657D01*
X57284Y133619D01*
X57276Y133611D01*
X57261Y133588D01*
X57230Y133557D01*
X57192Y133511D01*
X57108Y133412D01*
X57023Y133289D01*
X59504D01*
Y132697D01*
X56163D01*
Y132705D01*
Y132736D01*
Y132782D01*
X56171Y132835D01*
X56178Y132897D01*
X56186Y132966D01*
X56209Y133043D01*
X56232Y133120D01*
Y133127D01*
X56240Y133135D01*
X56255Y133181D01*
X56286Y133243D01*
X56332Y133335D01*
X56386Y133435D01*
X56462Y133550D01*
X56539Y133665D01*
X56639Y133788D01*
Y133795D01*
X56654Y133803D01*
X56693Y133849D01*
X56754Y133918D01*
X56846Y134011D01*
X56962Y134118D01*
X57100Y134249D01*
X57269Y134395D01*
X57453Y134556D01*
X57461Y134564D01*
X57492Y134587D01*
X57530Y134617D01*
X57584Y134671D01*
X57653Y134725D01*
X57730Y134794D01*
X57899Y134940D01*
X58083Y135117D01*
X58267Y135293D01*
X58359Y135378D01*
X58436Y135462D01*
X58505Y135547D01*
X58567Y135623D01*
Y135631D01*
X58582Y135639D01*
X58597Y135662D01*
X58613Y135693D01*
X58659Y135769D01*
X58713Y135869D01*
X58766Y135984D01*
X58812Y136107D01*
X58843Y136246D01*
X58859Y136376D01*
Y136384D01*
Y136391D01*
X58851Y136437D01*
X58843Y136507D01*
X58828Y136591D01*
X58789Y136691D01*
X58743Y136791D01*
X58682Y136898D01*
X58590Y136998D01*
X58574Y137006D01*
X58544Y137037D01*
X58482Y137075D01*
X58406Y137129D01*
X58306Y137175D01*
X58190Y137213D01*
X58052Y137244D01*
X57899Y137251D01*
X57853D01*
X57822Y137244D01*
X57745Y137236D01*
X57645Y137221D01*
X57530Y137182D01*
X57407Y137136D01*
X57292Y137067D01*
X57184Y136975D01*
X57177Y136960D01*
X57146Y136929D01*
X57100Y136867D01*
X57054Y136783D01*
X57000Y136676D01*
X56962Y136553D01*
X56931Y136407D01*
X56916Y136238D01*
X56278Y136307D01*
Y136315D01*
Y136338D01*
X56286Y136376D01*
X56293Y136422D01*
X56309Y136484D01*
X56317Y136553D01*
X56363Y136706D01*
X56424Y136883D01*
X56508Y137059D01*
X56624Y137236D01*
X56685Y137313D01*
X56762Y137390D01*
X56770Y137398D01*
X56785Y137405D01*
X56808Y137428D01*
X56839Y137451D01*
X56885Y137474D01*
X56939Y137513D01*
X57000Y137543D01*
X57069Y137582D01*
X57146Y137612D01*
X57230Y137651D01*
X57330Y137682D01*
X57430Y137705D01*
X57661Y137751D01*
X57783Y137758D01*
X57914Y137766D01*
X57983D01*
X58037Y137758D01*
D02*
G37*
G36*
X61954D02*
X62046Y137743D01*
X62153Y137728D01*
X62276Y137697D01*
X62399Y137651D01*
X62514Y137597D01*
X62530Y137590D01*
X62568Y137566D01*
X62622Y137528D01*
X62699Y137482D01*
X62775Y137413D01*
X62860Y137328D01*
X62944Y137236D01*
X63021Y137129D01*
X63029Y137113D01*
X63052Y137075D01*
X63090Y137006D01*
X63136Y136921D01*
X63182Y136814D01*
X63236Y136683D01*
X63290Y136537D01*
X63336Y136376D01*
Y136368D01*
X63344Y136353D01*
Y136330D01*
X63351Y136292D01*
X63367Y136253D01*
X63374Y136199D01*
X63382Y136130D01*
X63398Y136061D01*
X63405Y135977D01*
X63413Y135892D01*
X63428Y135792D01*
X63436Y135685D01*
X63444Y135570D01*
Y135454D01*
X63451Y135186D01*
Y135178D01*
Y135147D01*
Y135101D01*
Y135040D01*
X63444Y134963D01*
Y134878D01*
X63436Y134779D01*
X63428Y134671D01*
X63405Y134441D01*
X63374Y134203D01*
X63328Y133965D01*
X63298Y133857D01*
X63267Y133749D01*
Y133742D01*
X63259Y133726D01*
X63252Y133696D01*
X63236Y133657D01*
X63213Y133611D01*
X63190Y133565D01*
X63129Y133442D01*
X63052Y133304D01*
X62960Y133166D01*
X62852Y133028D01*
X62722Y132905D01*
X62714D01*
X62706Y132889D01*
X62683Y132882D01*
X62660Y132859D01*
X62576Y132812D01*
X62476Y132759D01*
X62338Y132705D01*
X62184Y132659D01*
X62007Y132628D01*
X61808Y132613D01*
X61739D01*
X61685Y132621D01*
X61623Y132628D01*
X61554Y132643D01*
X61478Y132659D01*
X61393Y132674D01*
X61209Y132736D01*
X61109Y132782D01*
X61017Y132828D01*
X60917Y132889D01*
X60825Y132958D01*
X60740Y133035D01*
X60656Y133127D01*
X60648Y133135D01*
X60633Y133158D01*
X60610Y133196D01*
X60579Y133250D01*
X60540Y133319D01*
X60502Y133404D01*
X60456Y133504D01*
X60410Y133627D01*
X60364Y133757D01*
X60318Y133911D01*
X60279Y134080D01*
X60241Y134264D01*
X60210Y134471D01*
X60187Y134686D01*
X60172Y134932D01*
X60164Y135186D01*
Y135193D01*
Y135224D01*
Y135270D01*
Y135331D01*
X60172Y135408D01*
Y135493D01*
X60180Y135593D01*
X60187Y135700D01*
X60210Y135931D01*
X60241Y136169D01*
X60279Y136407D01*
X60310Y136514D01*
X60341Y136622D01*
Y136629D01*
X60348Y136645D01*
X60364Y136676D01*
X60379Y136714D01*
X60395Y136760D01*
X60418Y136814D01*
X60479Y136937D01*
X60556Y137075D01*
X60648Y137213D01*
X60756Y137344D01*
X60886Y137467D01*
X60894D01*
X60901Y137482D01*
X60925Y137497D01*
X60955Y137513D01*
X61032Y137559D01*
X61140Y137620D01*
X61270Y137674D01*
X61431Y137720D01*
X61608Y137751D01*
X61808Y137766D01*
X61877D01*
X61954Y137758D01*
D02*
G37*
G36*
X54120D02*
X54212Y137743D01*
X54320Y137728D01*
X54443Y137697D01*
X54566Y137651D01*
X54681Y137597D01*
X54696Y137590D01*
X54734Y137566D01*
X54788Y137528D01*
X54865Y137482D01*
X54942Y137413D01*
X55026Y137328D01*
X55111Y137236D01*
X55188Y137129D01*
X55195Y137113D01*
X55218Y137075D01*
X55257Y137006D01*
X55303Y136921D01*
X55349Y136814D01*
X55403Y136683D01*
X55456Y136537D01*
X55502Y136376D01*
Y136368D01*
X55510Y136353D01*
Y136330D01*
X55518Y136292D01*
X55533Y136253D01*
X55541Y136199D01*
X55549Y136130D01*
X55564Y136061D01*
X55572Y135977D01*
X55579Y135892D01*
X55595Y135792D01*
X55602Y135685D01*
X55610Y135570D01*
Y135454D01*
X55618Y135186D01*
Y135178D01*
Y135147D01*
Y135101D01*
Y135040D01*
X55610Y134963D01*
Y134878D01*
X55602Y134779D01*
X55595Y134671D01*
X55572Y134441D01*
X55541Y134203D01*
X55495Y133965D01*
X55464Y133857D01*
X55433Y133749D01*
Y133742D01*
X55426Y133726D01*
X55418Y133696D01*
X55403Y133657D01*
X55380Y133611D01*
X55357Y133565D01*
X55295Y133442D01*
X55218Y133304D01*
X55126Y133166D01*
X55019Y133028D01*
X54888Y132905D01*
X54880D01*
X54873Y132889D01*
X54850Y132882D01*
X54827Y132859D01*
X54742Y132812D01*
X54642Y132759D01*
X54504Y132705D01*
X54350Y132659D01*
X54174Y132628D01*
X53974Y132613D01*
X53905D01*
X53851Y132621D01*
X53790Y132628D01*
X53721Y132643D01*
X53644Y132659D01*
X53559Y132674D01*
X53375Y132736D01*
X53275Y132782D01*
X53183Y132828D01*
X53083Y132889D01*
X52991Y132958D01*
X52907Y133035D01*
X52822Y133127D01*
X52814Y133135D01*
X52799Y133158D01*
X52776Y133196D01*
X52745Y133250D01*
X52707Y133319D01*
X52668Y133404D01*
X52622Y133504D01*
X52576Y133627D01*
X52530Y133757D01*
X52484Y133911D01*
X52446Y134080D01*
X52407Y134264D01*
X52377Y134471D01*
X52354Y134686D01*
X52338Y134932D01*
X52331Y135186D01*
Y135193D01*
Y135224D01*
Y135270D01*
Y135331D01*
X52338Y135408D01*
Y135493D01*
X52346Y135593D01*
X52354Y135700D01*
X52377Y135931D01*
X52407Y136169D01*
X52446Y136407D01*
X52477Y136514D01*
X52507Y136622D01*
Y136629D01*
X52515Y136645D01*
X52530Y136676D01*
X52546Y136714D01*
X52561Y136760D01*
X52584Y136814D01*
X52645Y136937D01*
X52722Y137075D01*
X52814Y137213D01*
X52922Y137344D01*
X53053Y137467D01*
X53060D01*
X53068Y137482D01*
X53091Y137497D01*
X53122Y137513D01*
X53198Y137559D01*
X53306Y137620D01*
X53436Y137674D01*
X53598Y137720D01*
X53774Y137751D01*
X53974Y137766D01*
X54043D01*
X54120Y137758D01*
D02*
G37*
G36*
X291191Y147536D02*
X291249Y147537D01*
X291316Y147528D01*
X291461Y147502D01*
X291635Y147457D01*
X291809Y147393D01*
X291974Y147299D01*
X292130Y147177D01*
X292149Y147158D01*
X292189Y147111D01*
X292248Y147016D01*
X292327Y146892D01*
X292397Y146730D01*
X292458Y146539D01*
X292501Y146299D01*
X292522Y146165D01*
X292525Y146021D01*
X292579Y142889D01*
X291801Y142875D01*
X291751Y145748D01*
X291751Y145758D01*
X291751Y145767D01*
X291750Y145825D01*
X291748Y145911D01*
X291737Y146007D01*
X291714Y146228D01*
X291693Y146333D01*
X291662Y146419D01*
X291662Y146429D01*
X291642Y146457D01*
X291623Y146495D01*
X291593Y146543D01*
X291554Y146590D01*
X291505Y146647D01*
X291446Y146704D01*
X291378Y146751D01*
X291368Y146760D01*
X291339Y146769D01*
X291300Y146788D01*
X291252Y146816D01*
X291184Y146834D01*
X291097Y146852D01*
X291011Y146860D01*
X290915Y146868D01*
X290838Y146866D01*
X290742Y146845D01*
X290636Y146824D01*
X290512Y146784D01*
X290379Y146724D01*
X290236Y146635D01*
X290113Y146527D01*
X290104Y146507D01*
X290066Y146468D01*
X290019Y146391D01*
X289964Y146274D01*
X289899Y146129D01*
X289854Y145955D01*
X289819Y145743D01*
X289814Y145493D01*
X289860Y142841D01*
X289082Y142828D01*
X289030Y145797D01*
X289030Y145806D01*
X289030Y145816D01*
X289029Y145845D01*
X289029Y145883D01*
X289017Y145979D01*
X289006Y146085D01*
X288975Y146219D01*
X288944Y146343D01*
X288894Y146467D01*
X288824Y146572D01*
X288815Y146581D01*
X288785Y146609D01*
X288746Y146657D01*
X288678Y146704D01*
X288591Y146740D01*
X288484Y146787D01*
X288359Y146813D01*
X288205Y146820D01*
X288147Y146819D01*
X288090Y146809D01*
X288003Y146798D01*
X287917Y146777D01*
X287812Y146737D01*
X287707Y146696D01*
X287603Y146637D01*
X287593Y146627D01*
X287555Y146607D01*
X287508Y146558D01*
X287451Y146509D01*
X287385Y146431D01*
X287319Y146344D01*
X287263Y146237D01*
X287208Y146121D01*
X287199Y146101D01*
X287190Y146063D01*
X287172Y145985D01*
X287154Y145879D01*
X287128Y145744D01*
X287112Y145581D01*
X287105Y145388D01*
X287100Y145167D01*
X287141Y142794D01*
X286363Y142780D01*
X286283Y147354D01*
X286975Y147366D01*
X286986Y146722D01*
X286995Y146741D01*
X287023Y146780D01*
X287070Y146839D01*
X287136Y146917D01*
X287212Y147005D01*
X287306Y147093D01*
X287420Y147191D01*
X287543Y147270D01*
X287562Y147280D01*
X287610Y147300D01*
X287686Y147340D01*
X287782Y147380D01*
X287906Y147421D01*
X288040Y147461D01*
X288203Y147483D01*
X288366Y147496D01*
X288453Y147497D01*
X288549Y147490D01*
X288665Y147472D01*
X288790Y147455D01*
X288934Y147419D01*
X289070Y147364D01*
X289196Y147299D01*
X289215Y147290D01*
X289254Y147262D01*
X289313Y147214D01*
X289381Y147148D01*
X289460Y147063D01*
X289538Y146968D01*
X289608Y146845D01*
X289668Y146711D01*
X289677Y146721D01*
X289696Y146750D01*
X289724Y146789D01*
X289762Y146838D01*
X289818Y146906D01*
X289884Y146975D01*
X289960Y147043D01*
X290045Y147122D01*
X290140Y147200D01*
X290244Y147269D01*
X290492Y147408D01*
X290625Y147459D01*
X290769Y147499D01*
X290913Y147531D01*
X291076Y147543D01*
X291143Y147544D01*
X291191Y147536D01*
D02*
G37*
G36*
X283841Y147407D02*
X283908Y147408D01*
X283975Y147400D01*
X284149Y147374D01*
X284342Y147329D01*
X284554Y147266D01*
X284758Y147173D01*
X284943Y147052D01*
X284952Y147052D01*
X284962Y147033D01*
X285021Y146986D01*
X285099Y146901D01*
X285197Y146787D01*
X285306Y146635D01*
X285405Y146454D01*
X285495Y146235D01*
X285566Y145996D01*
X284819Y145867D01*
X284819Y145877D01*
X284809Y145886D01*
X284799Y145944D01*
X284768Y146020D01*
X284728Y146125D01*
X284668Y146240D01*
X284599Y146354D01*
X284520Y146458D01*
X284423Y146552D01*
X284413Y146562D01*
X284374Y146590D01*
X284316Y146627D01*
X284238Y146674D01*
X284141Y146711D01*
X284035Y146748D01*
X283900Y146774D01*
X283765Y146781D01*
X283707Y146780D01*
X283669Y146770D01*
X283564Y146758D01*
X283430Y146727D01*
X283277Y146667D01*
X283124Y146587D01*
X282963Y146488D01*
X282887Y146420D01*
X282821Y146342D01*
X282802Y146322D01*
X282793Y146293D01*
X282765Y146264D01*
X282737Y146215D01*
X282709Y146157D01*
X282681Y146089D01*
X282654Y146012D01*
X282617Y145925D01*
X282590Y145828D01*
X282563Y145713D01*
X282536Y145597D01*
X282510Y145462D01*
X282503Y145317D01*
X282486Y145163D01*
X282489Y145000D01*
X282489Y144991D01*
X282490Y144962D01*
X282490Y144914D01*
X282501Y144846D01*
X282503Y144770D01*
X282514Y144683D01*
X282546Y144492D01*
X282588Y144271D01*
X282650Y144042D01*
X282740Y143842D01*
X282799Y143746D01*
X282858Y143661D01*
X282878Y143642D01*
X282927Y143595D01*
X283005Y143529D01*
X283112Y143464D01*
X283238Y143389D01*
X283402Y143324D01*
X283576Y143279D01*
X283672Y143271D01*
X283778Y143264D01*
X283855Y143265D01*
X283941Y143286D01*
X284047Y143307D01*
X284162Y143338D01*
X284295Y143388D01*
X284419Y143457D01*
X284533Y143556D01*
X284542Y143565D01*
X284580Y143614D01*
X284636Y143673D01*
X284692Y143770D01*
X284757Y143896D01*
X284822Y144041D01*
X284877Y144225D01*
X284911Y144427D01*
X285672Y144335D01*
X285673Y144325D01*
X285664Y144296D01*
X285654Y144258D01*
X285646Y144209D01*
X285628Y144142D01*
X285610Y144065D01*
X285555Y143881D01*
X285472Y143687D01*
X285361Y143474D01*
X285220Y143279D01*
X285050Y143094D01*
X285040Y143094D01*
X285031Y143074D01*
X285003Y143054D01*
X284965Y143025D01*
X284908Y142985D01*
X284851Y142946D01*
X284708Y142867D01*
X284527Y142787D01*
X284307Y142706D01*
X284068Y142654D01*
X283933Y142642D01*
X283799Y142630D01*
X283713Y142628D01*
X283645Y142637D01*
X283568Y142645D01*
X283472Y142653D01*
X283376Y142670D01*
X283260Y142697D01*
X283018Y142760D01*
X282892Y142816D01*
X282766Y142871D01*
X282640Y142936D01*
X282524Y143011D01*
X282407Y143105D01*
X282290Y143209D01*
X282280Y143218D01*
X282260Y143237D01*
X282240Y143275D01*
X282201Y143323D01*
X282152Y143389D01*
X282102Y143465D01*
X282053Y143551D01*
X282003Y143656D01*
X281943Y143770D01*
X281893Y143904D01*
X281842Y144047D01*
X281792Y144209D01*
X281750Y144372D01*
X281728Y144564D01*
X281705Y144756D01*
X281692Y144967D01*
X281692Y144976D01*
X281691Y144996D01*
X281691Y145044D01*
X281690Y145092D01*
X281698Y145159D01*
X281697Y145227D01*
X281713Y145409D01*
X281738Y145612D01*
X281783Y145824D01*
X281836Y146055D01*
X281909Y146268D01*
X281909Y146278D01*
X281919Y146297D01*
X281937Y146326D01*
X281956Y146365D01*
X282012Y146462D01*
X282086Y146589D01*
X282190Y146725D01*
X282312Y146862D01*
X282464Y146999D01*
X282635Y147117D01*
X282644Y147117D01*
X282654Y147127D01*
X282682Y147147D01*
X282720Y147167D01*
X282825Y147207D01*
X282959Y147267D01*
X283112Y147318D01*
X283303Y147369D01*
X283504Y147401D01*
X283716Y147415D01*
X283792Y147416D01*
X283841Y147407D01*
D02*
G37*
G36*
X280874Y148317D02*
X280865Y148307D01*
X280846Y148287D01*
X280818Y148248D01*
X280770Y148199D01*
X280724Y148131D01*
X280658Y148053D01*
X280582Y147956D01*
X280507Y147859D01*
X280423Y147742D01*
X280329Y147606D01*
X280226Y147469D01*
X280132Y147314D01*
X280029Y147149D01*
X279917Y146974D01*
X279815Y146780D01*
X279703Y146585D01*
X279693Y146576D01*
X279675Y146537D01*
X279647Y146479D01*
X279610Y146401D01*
X279564Y146304D01*
X279508Y146188D01*
X279443Y146052D01*
X279378Y145907D01*
X279314Y145752D01*
X279240Y145578D01*
X279166Y145394D01*
X279093Y145200D01*
X278955Y144804D01*
X278828Y144379D01*
X278828Y144369D01*
X278819Y144340D01*
X278810Y144301D01*
X278792Y144244D01*
X278774Y144166D01*
X278757Y144079D01*
X278739Y143974D01*
X278712Y143867D01*
X278695Y143742D01*
X278669Y143607D01*
X278626Y143318D01*
X278593Y142991D01*
X278570Y142644D01*
X277773Y142630D01*
X277772Y142640D01*
X277772Y142669D01*
X277771Y142707D01*
X277780Y142765D01*
X277779Y142832D01*
X277787Y142919D01*
X277795Y143025D01*
X277802Y143131D01*
X277819Y143256D01*
X277836Y143400D01*
X277853Y143545D01*
X277879Y143699D01*
X277905Y143872D01*
X277940Y144046D01*
X278030Y144432D01*
X278029Y144442D01*
X278038Y144480D01*
X278057Y144538D01*
X278074Y144615D01*
X278102Y144712D01*
X278138Y144818D01*
X278174Y144944D01*
X278220Y145089D01*
X278275Y145234D01*
X278330Y145398D01*
X278458Y145747D01*
X278615Y146115D01*
X278791Y146483D01*
X278801Y146493D01*
X278819Y146531D01*
X278848Y146580D01*
X278885Y146648D01*
X278931Y146735D01*
X278987Y146832D01*
X279053Y146939D01*
X279118Y147065D01*
X279286Y147328D01*
X279473Y147610D01*
X279670Y147892D01*
X279887Y148165D01*
X276793Y148111D01*
X276780Y148851D01*
X280863Y148922D01*
X280874Y148317D01*
D02*
G37*
G36*
X221017Y148837D02*
X221004Y148097D01*
X218487Y148141D01*
X218111Y146446D01*
X218121Y146456D01*
X218140Y146465D01*
X218169Y146484D01*
X218208Y146512D01*
X218267Y146540D01*
X218325Y146567D01*
X218480Y146642D01*
X218654Y146715D01*
X218857Y146769D01*
X219079Y146814D01*
X219310Y146829D01*
X219387Y146828D01*
X219444Y146817D01*
X219521Y146806D01*
X219597Y146795D01*
X219693Y146774D01*
X219789Y146753D01*
X220008Y146672D01*
X220123Y146632D01*
X220237Y146572D01*
X220361Y146503D01*
X220475Y146424D01*
X220589Y146336D01*
X220693Y146228D01*
X220702Y146218D01*
X220721Y146199D01*
X220749Y146169D01*
X220777Y146121D01*
X220825Y146062D01*
X220871Y145994D01*
X220918Y145917D01*
X220974Y145829D01*
X221030Y145722D01*
X221076Y145616D01*
X221122Y145490D01*
X221168Y145364D01*
X221194Y145220D01*
X221220Y145075D01*
X221237Y144911D01*
X221244Y144748D01*
X221244Y144738D01*
X221243Y144710D01*
X221242Y144661D01*
X221232Y144604D01*
X221221Y144527D01*
X221210Y144441D01*
X221198Y144345D01*
X221177Y144240D01*
X221106Y144010D01*
X221015Y143772D01*
X220955Y143638D01*
X220886Y143514D01*
X220807Y143391D01*
X220718Y143277D01*
X220708Y143268D01*
X220689Y143249D01*
X220650Y143211D01*
X220601Y143164D01*
X220542Y143107D01*
X220464Y143041D01*
X220376Y142975D01*
X220270Y142910D01*
X220163Y142835D01*
X220037Y142770D01*
X219891Y142705D01*
X219746Y142650D01*
X219582Y142605D01*
X219418Y142569D01*
X219235Y142553D01*
X219043Y142547D01*
X218956Y142548D01*
X218899Y142559D01*
X218832Y142570D01*
X218745Y142581D01*
X218649Y142592D01*
X218544Y142613D01*
X218324Y142675D01*
X218095Y142765D01*
X217981Y142825D01*
X217866Y142894D01*
X217752Y142963D01*
X217648Y143052D01*
X217639Y143062D01*
X217629Y143071D01*
X217601Y143101D01*
X217563Y143140D01*
X217526Y143189D01*
X217479Y143247D01*
X217432Y143315D01*
X217375Y143393D01*
X217273Y143577D01*
X217171Y143800D01*
X217099Y144051D01*
X217072Y144196D01*
X217056Y144340D01*
X217873Y144384D01*
X217873Y144374D01*
X217873Y144355D01*
X217882Y144326D01*
X217891Y144287D01*
X217918Y144181D01*
X217954Y144046D01*
X217999Y143901D01*
X218074Y143756D01*
X218158Y143610D01*
X218271Y143483D01*
X218290Y143473D01*
X218328Y143434D01*
X218394Y143394D01*
X218489Y143335D01*
X218604Y143285D01*
X218738Y143235D01*
X218891Y143193D01*
X219054Y143181D01*
X219111Y143180D01*
X219150Y143189D01*
X219256Y143197D01*
X219391Y143223D01*
X219536Y143278D01*
X219701Y143343D01*
X219856Y143446D01*
X219934Y143502D01*
X220012Y143578D01*
X220012Y143587D01*
X220032Y143596D01*
X220071Y143653D01*
X220140Y143748D01*
X220210Y143872D01*
X220280Y144034D01*
X220350Y144225D01*
X220393Y144446D01*
X220416Y144695D01*
X220416Y144705D01*
X220417Y144724D01*
X220417Y144762D01*
X220408Y144801D01*
X220409Y144859D01*
X220401Y144926D01*
X220375Y145080D01*
X220339Y145244D01*
X220275Y145418D01*
X220182Y145593D01*
X220060Y145749D01*
X220041Y145768D01*
X219993Y145808D01*
X219918Y145876D01*
X219804Y145946D01*
X219670Y146015D01*
X219498Y146086D01*
X219307Y146127D01*
X219096Y146150D01*
X219029Y146151D01*
X218961Y146143D01*
X218865Y146135D01*
X218759Y146108D01*
X218643Y146081D01*
X218527Y146035D01*
X218410Y145980D01*
X218401Y145970D01*
X218362Y145952D01*
X218304Y145914D01*
X218236Y145867D01*
X218167Y145801D01*
X218089Y145726D01*
X218011Y145641D01*
X217942Y145546D01*
X217213Y145664D01*
X217885Y148891D01*
X221017Y148837D01*
D02*
G37*
G36*
X140424Y149526D02*
X140520Y149513D01*
X140644Y149489D01*
X140787Y149455D01*
X140949Y149411D01*
X141110Y149348D01*
X141271Y149265D01*
X141281Y149265D01*
X141290Y149255D01*
X141347Y149224D01*
X141422Y149173D01*
X141515Y149103D01*
X141618Y149013D01*
X141729Y148903D01*
X141831Y148775D01*
X141922Y148637D01*
X141931Y148617D01*
X141958Y148568D01*
X141994Y148490D01*
X142029Y148393D01*
X142063Y148266D01*
X142097Y148131D01*
X142121Y147985D01*
X142124Y147822D01*
X142124Y147803D01*
X142122Y147755D01*
X142110Y147678D01*
X142087Y147583D01*
X142054Y147469D01*
X142012Y147345D01*
X141959Y147212D01*
X141878Y147090D01*
X141867Y147071D01*
X141837Y147034D01*
X141778Y146978D01*
X141708Y146904D01*
X141609Y146821D01*
X141500Y146738D01*
X141362Y146647D01*
X141206Y146575D01*
X141216Y146575D01*
X141234Y146564D01*
X141263Y146563D01*
X141301Y146543D01*
X141396Y146511D01*
X141519Y146449D01*
X141651Y146377D01*
X141792Y146276D01*
X141932Y146156D01*
X142051Y146007D01*
X142060Y145987D01*
X142097Y145929D01*
X142142Y145840D01*
X142205Y145723D01*
X142258Y145577D01*
X142300Y145402D01*
X142331Y145199D01*
X142333Y144978D01*
X142332Y144968D01*
X142332Y144939D01*
X142330Y144901D01*
X142318Y144844D01*
X142306Y144767D01*
X142294Y144691D01*
X142271Y144596D01*
X142239Y144500D01*
X142164Y144282D01*
X142112Y144159D01*
X142041Y144046D01*
X141969Y143933D01*
X141889Y143820D01*
X141788Y143708D01*
X141679Y143597D01*
X141669Y143588D01*
X141649Y143569D01*
X141620Y143551D01*
X141570Y143514D01*
X141511Y143468D01*
X141432Y143423D01*
X141344Y143378D01*
X141256Y143333D01*
X141148Y143279D01*
X141032Y143235D01*
X140905Y143191D01*
X140769Y143148D01*
X140623Y143114D01*
X140469Y143101D01*
X140305Y143087D01*
X140142Y143083D01*
X140065Y143086D01*
X140007Y143097D01*
X139931Y143110D01*
X139854Y143122D01*
X139759Y143135D01*
X139663Y143158D01*
X139444Y143223D01*
X139217Y143327D01*
X139104Y143379D01*
X139000Y143450D01*
X138888Y143531D01*
X138785Y143621D01*
X138776Y143631D01*
X138767Y143641D01*
X138739Y143671D01*
X138702Y143710D01*
X138665Y143769D01*
X138619Y143829D01*
X138564Y143898D01*
X138519Y143976D01*
X138410Y144173D01*
X138322Y144397D01*
X138244Y144650D01*
X138220Y144785D01*
X138206Y144930D01*
X138988Y145008D01*
X138987Y144999D01*
X138996Y144979D01*
X138995Y144941D01*
X139013Y144902D01*
X139038Y144785D01*
X139081Y144640D01*
X139133Y144484D01*
X139204Y144318D01*
X139295Y144170D01*
X139396Y144042D01*
X139415Y144032D01*
X139452Y143992D01*
X139518Y143951D01*
X139612Y143890D01*
X139716Y143839D01*
X139849Y143786D01*
X140001Y143742D01*
X140164Y143727D01*
X140222Y143725D01*
X140260Y143733D01*
X140357Y143739D01*
X140483Y143764D01*
X140638Y143806D01*
X140794Y143859D01*
X140951Y143949D01*
X141099Y144069D01*
X141119Y144088D01*
X141159Y144134D01*
X141219Y144209D01*
X141300Y144322D01*
X141372Y144454D01*
X141436Y144615D01*
X141480Y144796D01*
X141507Y144997D01*
X141507Y145007D01*
X141507Y145016D01*
X141508Y145045D01*
X141500Y145084D01*
X141494Y145180D01*
X141469Y145306D01*
X141436Y145442D01*
X141374Y145598D01*
X141292Y145745D01*
X141182Y145884D01*
X141163Y145904D01*
X141126Y145943D01*
X141051Y145994D01*
X140948Y146065D01*
X140825Y146136D01*
X140673Y146190D01*
X140511Y146234D01*
X140320Y146260D01*
X140233Y146263D01*
X140166Y146256D01*
X140089Y146249D01*
X139992Y146242D01*
X139886Y146227D01*
X139770Y146202D01*
X139880Y146881D01*
X139928Y146879D01*
X139966Y146868D01*
X140091Y146864D01*
X140178Y146871D01*
X140303Y146886D01*
X140439Y146910D01*
X140584Y146953D01*
X140740Y147005D01*
X140897Y147086D01*
X140916Y147095D01*
X140966Y147132D01*
X141026Y147197D01*
X141105Y147281D01*
X141186Y147383D01*
X141248Y147516D01*
X141302Y147678D01*
X141328Y147869D01*
X141328Y147879D01*
X141329Y147888D01*
X141330Y147936D01*
X141314Y148014D01*
X141298Y148120D01*
X141273Y148227D01*
X141220Y148344D01*
X141157Y148471D01*
X141064Y148580D01*
X141055Y148590D01*
X141018Y148630D01*
X140952Y148680D01*
X140868Y148731D01*
X140764Y148793D01*
X140640Y148835D01*
X140498Y148879D01*
X140335Y148894D01*
X140258Y148897D01*
X140171Y148881D01*
X140074Y148865D01*
X139948Y148840D01*
X139822Y148787D01*
X139694Y148724D01*
X139566Y148632D01*
X139556Y148623D01*
X139516Y148586D01*
X139466Y148521D01*
X139405Y148426D01*
X139334Y148314D01*
X139271Y148172D01*
X139207Y148001D01*
X139162Y147800D01*
X138389Y147962D01*
X138389Y147972D01*
X138400Y148000D01*
X138411Y148038D01*
X138422Y148086D01*
X138444Y148152D01*
X138465Y148229D01*
X138539Y148399D01*
X138622Y148589D01*
X138744Y148786D01*
X138886Y148974D01*
X139065Y149140D01*
X139075Y149150D01*
X139084Y149159D01*
X139114Y149177D01*
X139163Y149204D01*
X139212Y149231D01*
X139271Y149268D01*
X139418Y149349D01*
X139603Y149420D01*
X139826Y149479D01*
X140068Y149519D01*
X140203Y149533D01*
X140424Y149526D01*
D02*
G37*
G36*
X100972Y149220D02*
X101049Y149212D01*
X101136Y149204D01*
X101232Y149196D01*
X101338Y149169D01*
X101570Y149116D01*
X101812Y149033D01*
X101938Y148978D01*
X102054Y148912D01*
X102161Y148828D01*
X102269Y148743D01*
X102278Y148734D01*
X102288Y148724D01*
X102317Y148696D01*
X102357Y148658D01*
X102396Y148601D01*
X102445Y148544D01*
X102544Y148402D01*
X102643Y148221D01*
X102733Y148011D01*
X102805Y147772D01*
X102816Y147638D01*
X102828Y147503D01*
X102829Y147484D01*
X102830Y147436D01*
X102821Y147359D01*
X102813Y147263D01*
X102796Y147147D01*
X102769Y147022D01*
X102733Y146887D01*
X102678Y146751D01*
X102669Y146732D01*
X102650Y146683D01*
X102613Y146616D01*
X102557Y146518D01*
X102492Y146402D01*
X102408Y146266D01*
X102295Y146129D01*
X102173Y145973D01*
X102154Y145954D01*
X102107Y145895D01*
X102022Y145807D01*
X101965Y145749D01*
X101899Y145680D01*
X101824Y145602D01*
X101729Y145514D01*
X101634Y145426D01*
X101531Y145318D01*
X101417Y145211D01*
X101285Y145093D01*
X101152Y144975D01*
X101001Y144838D01*
X100991Y144828D01*
X100972Y144809D01*
X100935Y144779D01*
X100887Y144740D01*
X100774Y144642D01*
X100631Y144514D01*
X100490Y144377D01*
X100338Y144240D01*
X100215Y144123D01*
X100168Y144074D01*
X100121Y144025D01*
X100112Y144015D01*
X100093Y143986D01*
X100055Y143947D01*
X100008Y143888D01*
X99905Y143762D01*
X99801Y143606D01*
X102905Y143660D01*
X102918Y142920D01*
X98738Y142847D01*
X98738Y142857D01*
X98738Y142895D01*
X98737Y142953D01*
X98745Y143020D01*
X98753Y143098D01*
X98761Y143184D01*
X98788Y143281D01*
X98816Y143377D01*
X98815Y143387D01*
X98825Y143397D01*
X98843Y143455D01*
X98880Y143532D01*
X98936Y143649D01*
X99001Y143775D01*
X99094Y143921D01*
X99188Y144066D01*
X99310Y144222D01*
X99310Y144232D01*
X99329Y144242D01*
X99376Y144300D01*
X99452Y144388D01*
X99565Y144505D01*
X99707Y144642D01*
X99877Y144809D01*
X100085Y144995D01*
X100312Y145201D01*
X100321Y145211D01*
X100359Y145240D01*
X100407Y145279D01*
X100473Y145348D01*
X100558Y145417D01*
X100653Y145505D01*
X100861Y145691D01*
X101088Y145916D01*
X101314Y146141D01*
X101428Y146249D01*
X101522Y146356D01*
X101607Y146463D01*
X101682Y146561D01*
X101682Y146570D01*
X101701Y146580D01*
X101719Y146609D01*
X101738Y146648D01*
X101794Y146745D01*
X101859Y146871D01*
X101924Y147017D01*
X101979Y147171D01*
X102014Y147345D01*
X102031Y147509D01*
X102030Y147518D01*
X102030Y147528D01*
X102020Y147585D01*
X102008Y147672D01*
X101987Y147777D01*
X101937Y147901D01*
X101877Y148025D01*
X101798Y148158D01*
X101681Y148281D01*
X101661Y148291D01*
X101622Y148328D01*
X101544Y148375D01*
X101447Y148441D01*
X101321Y148496D01*
X101176Y148541D01*
X101003Y148577D01*
X100810Y148583D01*
X100753Y148582D01*
X100715Y148572D01*
X100619Y148561D01*
X100494Y148539D01*
X100351Y148489D01*
X100198Y148428D01*
X100055Y148339D01*
X99923Y148222D01*
X99914Y148202D01*
X99876Y148163D01*
X99819Y148085D01*
X99764Y147979D01*
X99699Y147843D01*
X99653Y147688D01*
X99618Y147505D01*
X99603Y147293D01*
X98804Y147366D01*
X98803Y147376D01*
X98803Y147404D01*
X98812Y147453D01*
X98820Y147510D01*
X98838Y147588D01*
X98846Y147674D01*
X98901Y147867D01*
X98974Y148090D01*
X99075Y148313D01*
X99216Y148536D01*
X99291Y148634D01*
X99385Y148731D01*
X99395Y148741D01*
X99414Y148751D01*
X99442Y148780D01*
X99480Y148810D01*
X99537Y148840D01*
X99604Y148889D01*
X99680Y148929D01*
X99765Y148978D01*
X99861Y149018D01*
X99966Y149068D01*
X100090Y149109D01*
X100214Y149140D01*
X100502Y149203D01*
X100655Y149215D01*
X100818Y149227D01*
X100905Y149229D01*
X100972Y149220D01*
D02*
G37*
G36*
X62385Y143009D02*
X61607D01*
Y147949D01*
X61597Y147939D01*
X61559Y147901D01*
X61492Y147853D01*
X61405Y147785D01*
X61299Y147699D01*
X61174Y147612D01*
X61030Y147507D01*
X60867Y147411D01*
X60857D01*
X60848Y147401D01*
X60790Y147362D01*
X60704Y147314D01*
X60598Y147257D01*
X60473Y147189D01*
X60338Y147132D01*
X60194Y147064D01*
X60060Y147007D01*
Y147766D01*
X60069D01*
X60088Y147776D01*
X60127Y147795D01*
X60165Y147824D01*
X60223Y147853D01*
X60290Y147881D01*
X60444Y147968D01*
X60617Y148074D01*
X60809Y148198D01*
X61001Y148343D01*
X61184Y148496D01*
X61194Y148506D01*
X61203Y148516D01*
X61261Y148573D01*
X61347Y148660D01*
X61453Y148766D01*
X61568Y148900D01*
X61684Y149044D01*
X61790Y149198D01*
X61876Y149352D01*
X62385D01*
Y143009D01*
D02*
G37*
G36*
X23189Y148981D02*
X23305Y148962D01*
X23439Y148943D01*
X23593Y148904D01*
X23747Y148847D01*
X23891Y148779D01*
X23910Y148770D01*
X23958Y148741D01*
X24025Y148693D01*
X24122Y148635D01*
X24218Y148549D01*
X24323Y148443D01*
X24429Y148328D01*
X24525Y148193D01*
X24535Y148174D01*
X24564Y148126D01*
X24612Y148039D01*
X24669Y147934D01*
X24727Y147799D01*
X24794Y147636D01*
X24862Y147453D01*
X24919Y147251D01*
Y147242D01*
X24929Y147223D01*
Y147194D01*
X24938Y147146D01*
X24958Y147098D01*
X24967Y147030D01*
X24977Y146944D01*
X24996Y146858D01*
X25006Y146752D01*
X25015Y146646D01*
X25034Y146521D01*
X25044Y146387D01*
X25054Y146242D01*
Y146098D01*
X25063Y145762D01*
Y145752D01*
Y145714D01*
Y145656D01*
Y145579D01*
X25054Y145483D01*
Y145378D01*
X25044Y145253D01*
X25034Y145118D01*
X25006Y144830D01*
X24967Y144532D01*
X24910Y144234D01*
X24871Y144099D01*
X24833Y143965D01*
Y143955D01*
X24823Y143936D01*
X24814Y143898D01*
X24794Y143850D01*
X24766Y143792D01*
X24737Y143734D01*
X24660Y143580D01*
X24564Y143407D01*
X24448Y143235D01*
X24314Y143061D01*
X24150Y142908D01*
X24141D01*
X24131Y142889D01*
X24102Y142879D01*
X24074Y142850D01*
X23968Y142792D01*
X23843Y142725D01*
X23670Y142658D01*
X23478Y142600D01*
X23257Y142562D01*
X23007Y142543D01*
X22920D01*
X22853Y142552D01*
X22776Y142562D01*
X22690Y142581D01*
X22594Y142600D01*
X22488Y142620D01*
X22257Y142696D01*
X22132Y142754D01*
X22017Y142812D01*
X21892Y142889D01*
X21777Y142975D01*
X21671Y143071D01*
X21565Y143186D01*
X21556Y143196D01*
X21536Y143225D01*
X21508Y143273D01*
X21469Y143340D01*
X21421Y143427D01*
X21373Y143532D01*
X21316Y143657D01*
X21258Y143811D01*
X21200Y143974D01*
X21143Y144167D01*
X21094Y144378D01*
X21046Y144609D01*
X21008Y144868D01*
X20979Y145137D01*
X20960Y145445D01*
X20950Y145762D01*
Y145772D01*
Y145810D01*
Y145868D01*
Y145944D01*
X20960Y146041D01*
Y146146D01*
X20969Y146271D01*
X20979Y146406D01*
X21008Y146694D01*
X21046Y146992D01*
X21094Y147290D01*
X21133Y147424D01*
X21171Y147559D01*
Y147569D01*
X21181Y147588D01*
X21200Y147626D01*
X21219Y147674D01*
X21239Y147732D01*
X21267Y147799D01*
X21344Y147953D01*
X21440Y148126D01*
X21556Y148299D01*
X21690Y148462D01*
X21854Y148616D01*
X21863D01*
X21873Y148635D01*
X21902Y148654D01*
X21940Y148674D01*
X22036Y148731D01*
X22171Y148808D01*
X22334Y148876D01*
X22536Y148933D01*
X22757Y148972D01*
X23007Y148991D01*
X23093D01*
X23189Y148981D01*
D02*
G37*
%LPC*%
G36*
X22760Y75074D02*
X21355D01*
Y75066D01*
Y75043D01*
Y75005D01*
Y74951D01*
Y74889D01*
X21347Y74805D01*
Y74721D01*
X21339Y74621D01*
Y74521D01*
X21332Y74406D01*
X21309Y74160D01*
X21285Y73891D01*
X21247Y73615D01*
X22760D01*
Y75074D01*
D02*
G37*
G36*
X20971D02*
X19565D01*
Y73615D01*
X20832D01*
Y73622D01*
X20840Y73645D01*
Y73676D01*
X20848Y73730D01*
X20855Y73783D01*
X20871Y73860D01*
X20878Y73937D01*
X20894Y74037D01*
X20901Y74137D01*
X20917Y74244D01*
X20925Y74367D01*
X20940Y74498D01*
X20955Y74774D01*
X20971Y75074D01*
D02*
G37*
G36*
X19730Y68322D02*
X19682D01*
X19643Y68312D01*
X19547Y68303D01*
X19422Y68264D01*
X19288Y68207D01*
X19144Y68130D01*
X19000Y68015D01*
X18932Y67938D01*
X18875Y67861D01*
Y67851D01*
X18855Y67832D01*
X18836Y67794D01*
X18817Y67745D01*
X18788Y67678D01*
X18750Y67601D01*
X18711Y67496D01*
X18682Y67380D01*
X18644Y67246D01*
X18606Y67092D01*
X18577Y66919D01*
X18538Y66717D01*
X18519Y66506D01*
X18500Y66275D01*
X18481Y66016D01*
Y65737D01*
Y65718D01*
Y65670D01*
Y65593D01*
X18490Y65487D01*
Y65362D01*
X18500Y65218D01*
X18509Y65055D01*
X18529Y64891D01*
X18567Y64545D01*
X18634Y64199D01*
X18673Y64046D01*
X18721Y63901D01*
X18778Y63767D01*
X18836Y63661D01*
Y63652D01*
X18855Y63642D01*
X18903Y63584D01*
X18980Y63498D01*
X19086Y63411D01*
X19220Y63315D01*
X19374Y63229D01*
X19547Y63171D01*
X19643Y63161D01*
X19739Y63152D01*
X19787D01*
X19826Y63161D01*
X19922Y63181D01*
X20047Y63219D01*
X20191Y63277D01*
X20335Y63363D01*
X20412Y63421D01*
X20489Y63498D01*
X20566Y63575D01*
X20633Y63661D01*
Y63671D01*
X20652Y63690D01*
X20672Y63719D01*
X20691Y63767D01*
X20720Y63824D01*
X20749Y63911D01*
X20777Y64007D01*
X20816Y64113D01*
X20854Y64247D01*
X20883Y64391D01*
X20912Y64565D01*
X20941Y64757D01*
X20969Y64968D01*
X20979Y65199D01*
X20998Y65458D01*
Y65737D01*
Y65756D01*
Y65804D01*
Y65881D01*
X20989Y65987D01*
Y66112D01*
X20979Y66256D01*
X20969Y66410D01*
X20950Y66583D01*
X20912Y66929D01*
X20845Y67265D01*
X20806Y67428D01*
X20758Y67572D01*
X20700Y67697D01*
X20633Y67803D01*
Y67813D01*
X20614Y67822D01*
X20566Y67880D01*
X20489Y67967D01*
X20383Y68063D01*
X20249Y68159D01*
X20095Y68245D01*
X19922Y68303D01*
X19826Y68312D01*
X19730Y68322D01*
D02*
G37*
G36*
X134005Y67662D02*
X133957D01*
X133919Y67652D01*
X133823Y67643D01*
X133698Y67604D01*
X133563Y67547D01*
X133419Y67470D01*
X133275Y67355D01*
X133208Y67278D01*
X133150Y67201D01*
Y67191D01*
X133131Y67172D01*
X133112Y67133D01*
X133092Y67085D01*
X133063Y67018D01*
X133025Y66941D01*
X132987Y66836D01*
X132958Y66720D01*
X132919Y66586D01*
X132881Y66432D01*
X132852Y66259D01*
X132814Y66057D01*
X132794Y65846D01*
X132775Y65615D01*
X132756Y65356D01*
Y65077D01*
Y65058D01*
Y65010D01*
Y64933D01*
X132766Y64827D01*
Y64702D01*
X132775Y64558D01*
X132785Y64395D01*
X132804Y64231D01*
X132843Y63885D01*
X132910Y63539D01*
X132948Y63386D01*
X132996Y63241D01*
X133054Y63107D01*
X133112Y63001D01*
Y62992D01*
X133131Y62982D01*
X133179Y62924D01*
X133256Y62838D01*
X133361Y62751D01*
X133496Y62655D01*
X133650Y62569D01*
X133823Y62511D01*
X133919Y62502D01*
X134015Y62492D01*
X134063D01*
X134101Y62502D01*
X134197Y62521D01*
X134322Y62559D01*
X134467Y62617D01*
X134611Y62703D01*
X134688Y62761D01*
X134765Y62838D01*
X134841Y62915D01*
X134909Y63001D01*
Y63011D01*
X134928Y63030D01*
X134947Y63059D01*
X134966Y63107D01*
X134995Y63165D01*
X135024Y63251D01*
X135053Y63347D01*
X135091Y63453D01*
X135130Y63587D01*
X135159Y63731D01*
X135187Y63905D01*
X135216Y64097D01*
X135245Y64308D01*
X135255Y64539D01*
X135274Y64798D01*
Y65077D01*
Y65096D01*
Y65144D01*
Y65221D01*
X135264Y65327D01*
Y65452D01*
X135255Y65596D01*
X135245Y65750D01*
X135226Y65923D01*
X135187Y66269D01*
X135120Y66605D01*
X135082Y66768D01*
X135034Y66913D01*
X134976Y67037D01*
X134909Y67143D01*
Y67153D01*
X134889Y67162D01*
X134841Y67220D01*
X134765Y67307D01*
X134659Y67403D01*
X134524Y67499D01*
X134371Y67585D01*
X134197Y67643D01*
X134101Y67652D01*
X134005Y67662D01*
D02*
G37*
G36*
X129104D02*
X129056D01*
X129018Y67652D01*
X128922Y67643D01*
X128797Y67604D01*
X128662Y67547D01*
X128518Y67470D01*
X128374Y67355D01*
X128307Y67278D01*
X128249Y67201D01*
Y67191D01*
X128230Y67172D01*
X128210Y67133D01*
X128191Y67085D01*
X128162Y67018D01*
X128124Y66941D01*
X128085Y66836D01*
X128057Y66720D01*
X128018Y66586D01*
X127980Y66432D01*
X127951Y66259D01*
X127913Y66057D01*
X127893Y65846D01*
X127874Y65615D01*
X127855Y65356D01*
Y65077D01*
Y65058D01*
Y65010D01*
Y64933D01*
X127865Y64827D01*
Y64702D01*
X127874Y64558D01*
X127884Y64395D01*
X127903Y64231D01*
X127941Y63885D01*
X128009Y63539D01*
X128047Y63386D01*
X128095Y63241D01*
X128153Y63107D01*
X128210Y63001D01*
Y62992D01*
X128230Y62982D01*
X128278Y62924D01*
X128355Y62838D01*
X128460Y62751D01*
X128595Y62655D01*
X128749Y62569D01*
X128922Y62511D01*
X129018Y62502D01*
X129114Y62492D01*
X129162D01*
X129200Y62502D01*
X129296Y62521D01*
X129421Y62559D01*
X129566Y62617D01*
X129710Y62703D01*
X129787Y62761D01*
X129863Y62838D01*
X129940Y62915D01*
X130008Y63001D01*
Y63011D01*
X130027Y63030D01*
X130046Y63059D01*
X130065Y63107D01*
X130094Y63165D01*
X130123Y63251D01*
X130152Y63347D01*
X130190Y63453D01*
X130229Y63587D01*
X130257Y63731D01*
X130286Y63905D01*
X130315Y64097D01*
X130344Y64308D01*
X130353Y64539D01*
X130373Y64798D01*
Y65077D01*
Y65096D01*
Y65144D01*
Y65221D01*
X130363Y65327D01*
Y65452D01*
X130353Y65596D01*
X130344Y65750D01*
X130325Y65923D01*
X130286Y66269D01*
X130219Y66605D01*
X130181Y66768D01*
X130132Y66913D01*
X130075Y67037D01*
X130008Y67143D01*
Y67153D01*
X129988Y67162D01*
X129940Y67220D01*
X129863Y67307D01*
X129758Y67403D01*
X129623Y67499D01*
X129469Y67585D01*
X129296Y67643D01*
X129200Y67652D01*
X129104Y67662D01*
D02*
G37*
G36*
X124203D02*
X124155D01*
X124117Y67652D01*
X124021Y67643D01*
X123896Y67604D01*
X123761Y67547D01*
X123617Y67470D01*
X123473Y67355D01*
X123406Y67278D01*
X123348Y67201D01*
Y67191D01*
X123329Y67172D01*
X123309Y67133D01*
X123290Y67085D01*
X123261Y67018D01*
X123223Y66941D01*
X123184Y66836D01*
X123156Y66720D01*
X123117Y66586D01*
X123079Y66432D01*
X123050Y66259D01*
X123012Y66057D01*
X122992Y65846D01*
X122973Y65615D01*
X122954Y65356D01*
Y65077D01*
Y65058D01*
Y65010D01*
Y64933D01*
X122963Y64827D01*
Y64702D01*
X122973Y64558D01*
X122983Y64395D01*
X123002Y64231D01*
X123040Y63885D01*
X123108Y63539D01*
X123146Y63386D01*
X123194Y63241D01*
X123252Y63107D01*
X123309Y63001D01*
Y62992D01*
X123329Y62982D01*
X123377Y62924D01*
X123453Y62838D01*
X123559Y62751D01*
X123694Y62655D01*
X123847Y62569D01*
X124021Y62511D01*
X124117Y62502D01*
X124213Y62492D01*
X124261D01*
X124299Y62502D01*
X124395Y62521D01*
X124520Y62559D01*
X124664Y62617D01*
X124809Y62703D01*
X124885Y62761D01*
X124962Y62838D01*
X125039Y62915D01*
X125106Y63001D01*
Y63011D01*
X125126Y63030D01*
X125145Y63059D01*
X125164Y63107D01*
X125193Y63165D01*
X125222Y63251D01*
X125251Y63347D01*
X125289Y63453D01*
X125328Y63587D01*
X125356Y63731D01*
X125385Y63905D01*
X125414Y64097D01*
X125443Y64308D01*
X125452Y64539D01*
X125472Y64798D01*
Y65077D01*
Y65096D01*
Y65144D01*
Y65221D01*
X125462Y65327D01*
Y65452D01*
X125452Y65596D01*
X125443Y65750D01*
X125424Y65923D01*
X125385Y66269D01*
X125318Y66605D01*
X125279Y66768D01*
X125231Y66913D01*
X125174Y67037D01*
X125106Y67143D01*
Y67153D01*
X125087Y67162D01*
X125039Y67220D01*
X124962Y67307D01*
X124857Y67403D01*
X124722Y67499D01*
X124568Y67585D01*
X124395Y67643D01*
X124299Y67652D01*
X124203Y67662D01*
D02*
G37*
G36*
X220604Y67749D02*
X220556D01*
X220518Y67739D01*
X220422Y67730D01*
X220297Y67691D01*
X220162Y67634D01*
X220018Y67557D01*
X219874Y67441D01*
X219807Y67365D01*
X219749Y67288D01*
Y67278D01*
X219730Y67259D01*
X219711Y67220D01*
X219691Y67172D01*
X219663Y67105D01*
X219624Y67028D01*
X219586Y66923D01*
X219557Y66807D01*
X219518Y66673D01*
X219480Y66519D01*
X219451Y66346D01*
X219413Y66144D01*
X219394Y65933D01*
X219374Y65702D01*
X219355Y65443D01*
Y65164D01*
Y65145D01*
Y65097D01*
Y65020D01*
X219365Y64914D01*
Y64789D01*
X219374Y64645D01*
X219384Y64482D01*
X219403Y64318D01*
X219442Y63972D01*
X219509Y63626D01*
X219547Y63473D01*
X219595Y63328D01*
X219653Y63194D01*
X219711Y63088D01*
Y63079D01*
X219730Y63069D01*
X219778Y63011D01*
X219855Y62925D01*
X219961Y62838D01*
X220095Y62742D01*
X220249Y62656D01*
X220422Y62598D01*
X220518Y62589D01*
X220614Y62579D01*
X220662D01*
X220701Y62589D01*
X220797Y62608D01*
X220922Y62646D01*
X221066Y62704D01*
X221210Y62790D01*
X221287Y62848D01*
X221364Y62925D01*
X221441Y63002D01*
X221508Y63088D01*
Y63098D01*
X221527Y63117D01*
X221546Y63146D01*
X221566Y63194D01*
X221594Y63252D01*
X221623Y63338D01*
X221652Y63434D01*
X221690Y63540D01*
X221729Y63674D01*
X221758Y63819D01*
X221786Y63991D01*
X221815Y64184D01*
X221844Y64395D01*
X221854Y64626D01*
X221873Y64885D01*
Y65164D01*
Y65183D01*
Y65231D01*
Y65308D01*
X221863Y65414D01*
Y65539D01*
X221854Y65683D01*
X221844Y65837D01*
X221825Y66010D01*
X221786Y66356D01*
X221719Y66692D01*
X221681Y66855D01*
X221633Y67000D01*
X221575Y67124D01*
X221508Y67230D01*
Y67240D01*
X221489Y67249D01*
X221441Y67307D01*
X221364Y67393D01*
X221258Y67490D01*
X221123Y67586D01*
X220970Y67672D01*
X220797Y67730D01*
X220701Y67739D01*
X220604Y67749D01*
D02*
G37*
G36*
X215703D02*
X215655D01*
X215617Y67739D01*
X215521Y67730D01*
X215396Y67691D01*
X215261Y67634D01*
X215117Y67557D01*
X214973Y67441D01*
X214906Y67365D01*
X214848Y67288D01*
Y67278D01*
X214829Y67259D01*
X214810Y67220D01*
X214790Y67172D01*
X214762Y67105D01*
X214723Y67028D01*
X214685Y66923D01*
X214656Y66807D01*
X214617Y66673D01*
X214579Y66519D01*
X214550Y66346D01*
X214512Y66144D01*
X214493Y65933D01*
X214473Y65702D01*
X214454Y65443D01*
Y65164D01*
Y65145D01*
Y65097D01*
Y65020D01*
X214464Y64914D01*
Y64789D01*
X214473Y64645D01*
X214483Y64482D01*
X214502Y64318D01*
X214541Y63972D01*
X214608Y63626D01*
X214646Y63473D01*
X214694Y63328D01*
X214752Y63194D01*
X214810Y63088D01*
Y63079D01*
X214829Y63069D01*
X214877Y63011D01*
X214954Y62925D01*
X215059Y62838D01*
X215194Y62742D01*
X215348Y62656D01*
X215521Y62598D01*
X215617Y62589D01*
X215713Y62579D01*
X215761D01*
X215799Y62589D01*
X215896Y62608D01*
X216020Y62646D01*
X216165Y62704D01*
X216309Y62790D01*
X216386Y62848D01*
X216462Y62925D01*
X216539Y63002D01*
X216607Y63088D01*
Y63098D01*
X216626Y63117D01*
X216645Y63146D01*
X216664Y63194D01*
X216693Y63252D01*
X216722Y63338D01*
X216751Y63434D01*
X216789Y63540D01*
X216828Y63674D01*
X216857Y63819D01*
X216885Y63991D01*
X216914Y64184D01*
X216943Y64395D01*
X216953Y64626D01*
X216972Y64885D01*
Y65164D01*
Y65183D01*
Y65231D01*
Y65308D01*
X216962Y65414D01*
Y65539D01*
X216953Y65683D01*
X216943Y65837D01*
X216924Y66010D01*
X216885Y66356D01*
X216818Y66692D01*
X216780Y66855D01*
X216732Y67000D01*
X216674Y67124D01*
X216607Y67230D01*
Y67240D01*
X216587Y67249D01*
X216539Y67307D01*
X216462Y67393D01*
X216357Y67490D01*
X216222Y67586D01*
X216069Y67672D01*
X215896Y67730D01*
X215799Y67739D01*
X215703Y67749D01*
D02*
G37*
G36*
X210802D02*
X210754D01*
X210716Y67739D01*
X210620Y67730D01*
X210495Y67691D01*
X210360Y67634D01*
X210216Y67557D01*
X210072Y67441D01*
X210005Y67365D01*
X209947Y67288D01*
Y67278D01*
X209928Y67259D01*
X209909Y67220D01*
X209889Y67172D01*
X209860Y67105D01*
X209822Y67028D01*
X209784Y66923D01*
X209755Y66807D01*
X209716Y66673D01*
X209678Y66519D01*
X209649Y66346D01*
X209611Y66144D01*
X209591Y65933D01*
X209572Y65702D01*
X209553Y65443D01*
Y65164D01*
Y65145D01*
Y65097D01*
Y65020D01*
X209563Y64914D01*
Y64789D01*
X209572Y64645D01*
X209582Y64482D01*
X209601Y64318D01*
X209639Y63972D01*
X209707Y63626D01*
X209745Y63473D01*
X209793Y63328D01*
X209851Y63194D01*
X209909Y63088D01*
Y63079D01*
X209928Y63069D01*
X209976Y63011D01*
X210053Y62925D01*
X210158Y62838D01*
X210293Y62742D01*
X210447Y62656D01*
X210620Y62598D01*
X210716Y62589D01*
X210812Y62579D01*
X210860D01*
X210898Y62589D01*
X210995Y62608D01*
X211119Y62646D01*
X211263Y62704D01*
X211408Y62790D01*
X211485Y62848D01*
X211561Y62925D01*
X211638Y63002D01*
X211706Y63088D01*
Y63098D01*
X211725Y63117D01*
X211744Y63146D01*
X211763Y63194D01*
X211792Y63252D01*
X211821Y63338D01*
X211850Y63434D01*
X211888Y63540D01*
X211927Y63674D01*
X211955Y63819D01*
X211984Y63991D01*
X212013Y64184D01*
X212042Y64395D01*
X212052Y64626D01*
X212071Y64885D01*
Y65164D01*
Y65183D01*
Y65231D01*
Y65308D01*
X212061Y65414D01*
Y65539D01*
X212052Y65683D01*
X212042Y65837D01*
X212023Y66010D01*
X211984Y66356D01*
X211917Y66692D01*
X211879Y66855D01*
X211830Y67000D01*
X211773Y67124D01*
X211706Y67230D01*
Y67240D01*
X211686Y67249D01*
X211638Y67307D01*
X211561Y67393D01*
X211456Y67490D01*
X211321Y67586D01*
X211167Y67672D01*
X210995Y67730D01*
X210898Y67739D01*
X210802Y67749D01*
D02*
G37*
G36*
X234137Y140968D02*
X233137D01*
X234137Y140268D01*
Y140968D01*
D02*
G37*
G36*
X219186Y105769D02*
X219086D01*
X219079D01*
X219062D01*
X219034D01*
X218996Y105766D01*
X218951D01*
X218900Y105763D01*
X218845Y105759D01*
X218782Y105752D01*
X218658Y105738D01*
X218537Y105714D01*
X218479Y105700D01*
X218427Y105683D01*
X218382Y105663D01*
X218344Y105638D01*
X218341D01*
X218337Y105631D01*
X218317Y105614D01*
X218286Y105587D01*
X218251Y105549D01*
X218217Y105500D01*
X218185Y105445D01*
X218165Y105383D01*
X218161Y105349D01*
X218158Y105314D01*
Y105297D01*
X218161Y105283D01*
X218165Y105248D01*
X218179Y105204D01*
X218199Y105155D01*
X218227Y105104D01*
X218268Y105052D01*
X218296Y105028D01*
X218323Y105007D01*
X218327D01*
X218334Y105000D01*
X218348Y104993D01*
X218365Y104986D01*
X218389Y104976D01*
X218417Y104962D01*
X218455Y104948D01*
X218496Y104938D01*
X218544Y104924D01*
X218600Y104910D01*
X218662Y104900D01*
X218734Y104886D01*
X218810Y104879D01*
X218893Y104872D01*
X218986Y104866D01*
X219086D01*
X219093D01*
X219110D01*
X219138D01*
X219176Y104869D01*
X219220D01*
X219272Y104872D01*
X219331Y104876D01*
X219390Y104883D01*
X219514Y104897D01*
X219638Y104921D01*
X219693Y104935D01*
X219745Y104952D01*
X219793Y104973D01*
X219831Y104993D01*
X219835D01*
X219838Y105000D01*
X219859Y105017D01*
X219890Y105045D01*
X219921Y105083D01*
X219955Y105131D01*
X219986Y105186D01*
X220007Y105248D01*
X220011Y105283D01*
X220014Y105317D01*
Y105335D01*
X220011Y105349D01*
X220004Y105383D01*
X219990Y105428D01*
X219969Y105480D01*
X219938Y105531D01*
X219917Y105559D01*
X219890Y105587D01*
X219862Y105614D01*
X219831Y105638D01*
X219828D01*
X219821Y105645D01*
X219810Y105652D01*
X219793Y105659D01*
X219773Y105669D01*
X219741Y105680D01*
X219707Y105690D01*
X219669Y105704D01*
X219621Y105718D01*
X219569Y105728D01*
X219507Y105738D01*
X219438Y105749D01*
X219362Y105759D01*
X219279Y105763D01*
X219186Y105769D01*
D02*
G37*
G36*
X218682Y104000D02*
X218679D01*
X218672D01*
X218658D01*
X218641Y103996D01*
X218620D01*
X218600Y103993D01*
X218544Y103982D01*
X218482Y103969D01*
X218420Y103944D01*
X218358Y103913D01*
X218299Y103872D01*
X218292Y103865D01*
X218279Y103848D01*
X218254Y103824D01*
X218227Y103786D01*
X218203Y103741D01*
X218179Y103689D01*
X218165Y103630D01*
X218158Y103565D01*
Y103548D01*
X218161Y103534D01*
X218165Y103499D01*
X218175Y103454D01*
X218196Y103403D01*
X218224Y103351D01*
X218258Y103296D01*
X218282Y103268D01*
X218310Y103241D01*
X218317Y103234D01*
X218337Y103220D01*
X218372Y103199D01*
X218417Y103175D01*
X218472Y103147D01*
X218541Y103127D01*
X218617Y103113D01*
X218703Y103106D01*
X218706D01*
X218713D01*
X218724D01*
X218738Y103110D01*
X218779Y103113D01*
X218827Y103123D01*
X218886Y103137D01*
X218945Y103161D01*
X219000Y103192D01*
X219055Y103234D01*
X219062Y103241D01*
X219076Y103258D01*
X219096Y103285D01*
X219120Y103323D01*
X219148Y103372D01*
X219169Y103427D01*
X219182Y103489D01*
X219189Y103558D01*
Y103575D01*
X219186Y103589D01*
X219182Y103623D01*
X219172Y103668D01*
X219155Y103717D01*
X219134Y103772D01*
X219100Y103824D01*
X219055Y103872D01*
X219048Y103879D01*
X219031Y103893D01*
X219000Y103913D01*
X218958Y103937D01*
X218903Y103958D01*
X218841Y103979D01*
X218765Y103993D01*
X218682Y104000D01*
D02*
G37*
G36*
X180329Y147907D02*
X178251Y145153D01*
X180230Y145084D01*
X180329Y147907D01*
D02*
G37*
G36*
X182410Y137054D02*
X182372D01*
X182341Y137047D01*
X182264Y137039D01*
X182164Y137008D01*
X182057Y136962D01*
X181942Y136901D01*
X181826Y136809D01*
X181773Y136747D01*
X181727Y136686D01*
Y136678D01*
X181711Y136663D01*
X181696Y136632D01*
X181681Y136593D01*
X181657Y136540D01*
X181627Y136478D01*
X181596Y136394D01*
X181573Y136302D01*
X181542Y136194D01*
X181511Y136071D01*
X181489Y135933D01*
X181458Y135772D01*
X181442Y135603D01*
X181427Y135418D01*
X181412Y135211D01*
Y134988D01*
Y134973D01*
Y134935D01*
Y134873D01*
X181419Y134789D01*
Y134689D01*
X181427Y134574D01*
X181435Y134443D01*
X181450Y134312D01*
X181481Y134036D01*
X181535Y133759D01*
X181565Y133637D01*
X181604Y133521D01*
X181650Y133414D01*
X181696Y133329D01*
Y133322D01*
X181711Y133314D01*
X181750Y133268D01*
X181811Y133199D01*
X181895Y133130D01*
X182003Y133053D01*
X182126Y132984D01*
X182264Y132938D01*
X182341Y132930D01*
X182418Y132922D01*
X182456D01*
X182487Y132930D01*
X182564Y132945D01*
X182664Y132976D01*
X182779Y133022D01*
X182894Y133091D01*
X182955Y133137D01*
X183017Y133199D01*
X183078Y133260D01*
X183132Y133329D01*
Y133337D01*
X183147Y133352D01*
X183163Y133376D01*
X183178Y133414D01*
X183201Y133460D01*
X183224Y133529D01*
X183247Y133606D01*
X183278Y133690D01*
X183309Y133798D01*
X183332Y133913D01*
X183355Y134051D01*
X183378Y134205D01*
X183401Y134374D01*
X183408Y134558D01*
X183424Y134766D01*
Y134988D01*
Y135004D01*
Y135042D01*
Y135103D01*
X183416Y135188D01*
Y135288D01*
X183408Y135403D01*
X183401Y135526D01*
X183385Y135664D01*
X183355Y135941D01*
X183301Y136209D01*
X183270Y136340D01*
X183232Y136455D01*
X183186Y136555D01*
X183132Y136639D01*
Y136647D01*
X183117Y136655D01*
X183078Y136701D01*
X183017Y136770D01*
X182932Y136847D01*
X182825Y136924D01*
X182702Y136993D01*
X182564Y137039D01*
X182487Y137047D01*
X182410Y137054D01*
D02*
G37*
G36*
X150956Y135226D02*
X150918D01*
X150887Y135219D01*
X150810Y135211D01*
X150710Y135188D01*
X150603Y135150D01*
X150480Y135096D01*
X150365Y135019D01*
X150250Y134919D01*
X150234Y134904D01*
X150204Y134865D01*
X150157Y134796D01*
X150104Y134712D01*
X150050Y134597D01*
X150004Y134458D01*
X149973Y134305D01*
X149958Y134128D01*
Y134113D01*
Y134074D01*
X149965Y134013D01*
X149973Y133936D01*
X149988Y133836D01*
X150012Y133737D01*
X150042Y133629D01*
X150088Y133514D01*
X150096Y133498D01*
X150111Y133468D01*
X150142Y133414D01*
X150188Y133352D01*
X150242Y133276D01*
X150303Y133207D01*
X150380Y133130D01*
X150465Y133068D01*
X150472Y133061D01*
X150511Y133045D01*
X150557Y133022D01*
X150618Y132999D01*
X150695Y132968D01*
X150787Y132945D01*
X150879Y132930D01*
X150979Y132922D01*
X151018D01*
X151048Y132930D01*
X151117Y132938D01*
X151217Y132961D01*
X151317Y132999D01*
X151432Y133053D01*
X151548Y133130D01*
X151655Y133237D01*
X151670Y133253D01*
X151701Y133299D01*
X151747Y133368D01*
X151801Y133460D01*
X151847Y133583D01*
X151893Y133737D01*
X151924Y133905D01*
X151939Y134097D01*
Y134105D01*
Y134121D01*
Y134151D01*
X151932Y134182D01*
Y134228D01*
X151924Y134282D01*
X151909Y134397D01*
X151870Y134528D01*
X151824Y134666D01*
X151755Y134796D01*
X151663Y134919D01*
X151647Y134935D01*
X151617Y134965D01*
X151555Y135019D01*
X151471Y135073D01*
X151371Y135127D01*
X151248Y135180D01*
X151110Y135211D01*
X150956Y135226D01*
D02*
G37*
G36*
X146993Y137054D02*
X146955D01*
X146924Y137047D01*
X146847Y137039D01*
X146748Y137008D01*
X146640Y136962D01*
X146525Y136901D01*
X146410Y136809D01*
X146356Y136747D01*
X146310Y136686D01*
Y136678D01*
X146294Y136663D01*
X146279Y136632D01*
X146264Y136593D01*
X146241Y136540D01*
X146210Y136478D01*
X146179Y136394D01*
X146156Y136302D01*
X146125Y136194D01*
X146095Y136071D01*
X146072Y135933D01*
X146041Y135772D01*
X146026Y135603D01*
X146010Y135418D01*
X145995Y135211D01*
Y134988D01*
Y134973D01*
Y134935D01*
Y134873D01*
X146003Y134789D01*
Y134689D01*
X146010Y134574D01*
X146018Y134443D01*
X146033Y134312D01*
X146064Y134036D01*
X146118Y133759D01*
X146149Y133637D01*
X146187Y133521D01*
X146233Y133414D01*
X146279Y133329D01*
Y133322D01*
X146294Y133314D01*
X146333Y133268D01*
X146394Y133199D01*
X146479Y133130D01*
X146586Y133053D01*
X146709Y132984D01*
X146847Y132938D01*
X146924Y132930D01*
X147001Y132922D01*
X147039D01*
X147070Y132930D01*
X147147Y132945D01*
X147247Y132976D01*
X147362Y133022D01*
X147477Y133091D01*
X147539Y133137D01*
X147600Y133199D01*
X147661Y133260D01*
X147715Y133329D01*
Y133337D01*
X147731Y133352D01*
X147746Y133376D01*
X147761Y133414D01*
X147784Y133460D01*
X147807Y133529D01*
X147830Y133606D01*
X147861Y133690D01*
X147892Y133798D01*
X147915Y133913D01*
X147938Y134051D01*
X147961Y134205D01*
X147984Y134374D01*
X147992Y134558D01*
X148007Y134766D01*
Y134988D01*
Y135004D01*
Y135042D01*
Y135103D01*
X147999Y135188D01*
Y135288D01*
X147992Y135403D01*
X147984Y135526D01*
X147969Y135664D01*
X147938Y135941D01*
X147884Y136209D01*
X147853Y136340D01*
X147815Y136455D01*
X147769Y136555D01*
X147715Y136639D01*
Y136647D01*
X147700Y136655D01*
X147661Y136701D01*
X147600Y136770D01*
X147515Y136847D01*
X147408Y136924D01*
X147285Y136993D01*
X147147Y137039D01*
X147070Y137047D01*
X146993Y137054D01*
D02*
G37*
G36*
X123969D02*
X123931D01*
X123900Y137047D01*
X123823Y137039D01*
X123724Y137008D01*
X123616Y136962D01*
X123501Y136901D01*
X123386Y136809D01*
X123332Y136747D01*
X123286Y136686D01*
Y136678D01*
X123271Y136663D01*
X123255Y136632D01*
X123240Y136593D01*
X123217Y136540D01*
X123186Y136478D01*
X123155Y136394D01*
X123132Y136302D01*
X123102Y136194D01*
X123071Y136071D01*
X123048Y135933D01*
X123017Y135772D01*
X123002Y135603D01*
X122986Y135418D01*
X122971Y135211D01*
Y134988D01*
Y134973D01*
Y134935D01*
Y134873D01*
X122979Y134789D01*
Y134689D01*
X122986Y134574D01*
X122994Y134443D01*
X123009Y134312D01*
X123040Y134036D01*
X123094Y133759D01*
X123125Y133637D01*
X123163Y133521D01*
X123209Y133414D01*
X123255Y133329D01*
Y133322D01*
X123271Y133314D01*
X123309Y133268D01*
X123370Y133199D01*
X123455Y133130D01*
X123562Y133053D01*
X123685Y132984D01*
X123823Y132938D01*
X123900Y132930D01*
X123977Y132922D01*
X124015D01*
X124046Y132930D01*
X124123Y132945D01*
X124223Y132976D01*
X124338Y133022D01*
X124453Y133091D01*
X124515Y133137D01*
X124576Y133199D01*
X124638Y133260D01*
X124691Y133329D01*
Y133337D01*
X124707Y133352D01*
X124722Y133376D01*
X124737Y133414D01*
X124760Y133460D01*
X124784Y133529D01*
X124807Y133606D01*
X124837Y133690D01*
X124868Y133798D01*
X124891Y133913D01*
X124914Y134051D01*
X124937Y134205D01*
X124960Y134374D01*
X124968Y134558D01*
X124983Y134766D01*
Y134988D01*
Y135004D01*
Y135042D01*
Y135103D01*
X124976Y135188D01*
Y135288D01*
X124968Y135403D01*
X124960Y135526D01*
X124945Y135664D01*
X124914Y135941D01*
X124860Y136209D01*
X124830Y136340D01*
X124791Y136455D01*
X124745Y136555D01*
X124691Y136639D01*
Y136647D01*
X124676Y136655D01*
X124638Y136701D01*
X124576Y136770D01*
X124492Y136847D01*
X124384Y136924D01*
X124261Y136993D01*
X124123Y137039D01*
X124046Y137047D01*
X123969Y137054D01*
D02*
G37*
G36*
X120068Y137062D02*
X120007D01*
X119945Y137047D01*
X119861Y137031D01*
X119769Y137008D01*
X119669Y136962D01*
X119569Y136908D01*
X119477Y136831D01*
X119469Y136824D01*
X119438Y136793D01*
X119407Y136739D01*
X119361Y136678D01*
X119323Y136601D01*
X119285Y136501D01*
X119254Y136401D01*
X119246Y136286D01*
Y136271D01*
Y136225D01*
X119262Y136163D01*
X119277Y136079D01*
X119300Y135987D01*
X119338Y135895D01*
X119392Y135795D01*
X119469Y135703D01*
X119477Y135695D01*
X119507Y135672D01*
X119561Y135633D01*
X119630Y135595D01*
X119715Y135549D01*
X119822Y135518D01*
X119937Y135487D01*
X120068Y135480D01*
X120129D01*
X120191Y135495D01*
X120275Y135511D01*
X120368Y135534D01*
X120467Y135572D01*
X120567Y135626D01*
X120659Y135703D01*
X120667Y135710D01*
X120698Y135741D01*
X120736Y135787D01*
X120775Y135856D01*
X120821Y135933D01*
X120851Y136033D01*
X120882Y136140D01*
X120890Y136256D01*
Y136263D01*
Y136271D01*
Y136309D01*
X120874Y136378D01*
X120859Y136455D01*
X120828Y136540D01*
X120790Y136639D01*
X120729Y136732D01*
X120652Y136824D01*
X120644Y136831D01*
X120613Y136862D01*
X120560Y136901D01*
X120490Y136947D01*
X120406Y136985D01*
X120306Y137023D01*
X120199Y137054D01*
X120068Y137062D01*
D02*
G37*
G36*
X120053Y134973D02*
X120014D01*
X119983Y134965D01*
X119899Y134958D01*
X119799Y134935D01*
X119684Y134904D01*
X119561Y134850D01*
X119446Y134781D01*
X119331Y134681D01*
X119315Y134666D01*
X119285Y134627D01*
X119239Y134566D01*
X119193Y134481D01*
X119139Y134374D01*
X119093Y134251D01*
X119062Y134105D01*
X119047Y133951D01*
Y133944D01*
Y133905D01*
X119054Y133859D01*
X119062Y133790D01*
X119077Y133713D01*
X119100Y133621D01*
X119131Y133529D01*
X119169Y133437D01*
X119177Y133429D01*
X119193Y133399D01*
X119223Y133352D01*
X119262Y133299D01*
X119315Y133237D01*
X119377Y133168D01*
X119454Y133107D01*
X119538Y133053D01*
X119553Y133045D01*
X119584Y133030D01*
X119630Y133015D01*
X119699Y132992D01*
X119784Y132961D01*
X119868Y132945D01*
X119968Y132930D01*
X120076Y132922D01*
X120122D01*
X120152Y132930D01*
X120229Y132938D01*
X120337Y132961D01*
X120452Y132992D01*
X120575Y133045D01*
X120690Y133114D01*
X120805Y133207D01*
X120821Y133222D01*
X120851Y133260D01*
X120897Y133322D01*
X120951Y133406D01*
X121005Y133506D01*
X121051Y133637D01*
X121082Y133775D01*
X121097Y133936D01*
Y133944D01*
Y133959D01*
Y133982D01*
X121089Y134013D01*
X121082Y134090D01*
X121059Y134197D01*
X121028Y134312D01*
X120974Y134435D01*
X120897Y134558D01*
X120798Y134673D01*
X120782Y134689D01*
X120744Y134720D01*
X120682Y134766D01*
X120598Y134827D01*
X120490Y134881D01*
X120360Y134927D01*
X120214Y134958D01*
X120053Y134973D01*
D02*
G37*
G36*
X116136Y137054D02*
X116097D01*
X116067Y137047D01*
X115990Y137039D01*
X115890Y137008D01*
X115783Y136962D01*
X115667Y136901D01*
X115552Y136809D01*
X115498Y136747D01*
X115452Y136686D01*
Y136678D01*
X115437Y136663D01*
X115422Y136632D01*
X115406Y136593D01*
X115383Y136540D01*
X115352Y136478D01*
X115322Y136394D01*
X115299Y136302D01*
X115268Y136194D01*
X115237Y136071D01*
X115214Y135933D01*
X115183Y135772D01*
X115168Y135603D01*
X115153Y135418D01*
X115137Y135211D01*
Y134988D01*
Y134973D01*
Y134935D01*
Y134873D01*
X115145Y134789D01*
Y134689D01*
X115153Y134574D01*
X115161Y134443D01*
X115176Y134312D01*
X115207Y134036D01*
X115260Y133759D01*
X115291Y133637D01*
X115329Y133521D01*
X115375Y133414D01*
X115422Y133329D01*
Y133322D01*
X115437Y133314D01*
X115475Y133268D01*
X115537Y133199D01*
X115621Y133130D01*
X115729Y133053D01*
X115852Y132984D01*
X115990Y132938D01*
X116067Y132930D01*
X116144Y132922D01*
X116182D01*
X116213Y132930D01*
X116289Y132945D01*
X116389Y132976D01*
X116505Y133022D01*
X116620Y133091D01*
X116681Y133137D01*
X116743Y133199D01*
X116804Y133260D01*
X116858Y133329D01*
Y133337D01*
X116873Y133352D01*
X116888Y133376D01*
X116904Y133414D01*
X116927Y133460D01*
X116950Y133529D01*
X116973Y133606D01*
X117004Y133690D01*
X117034Y133798D01*
X117057Y133913D01*
X117080Y134051D01*
X117104Y134205D01*
X117127Y134374D01*
X117134Y134558D01*
X117150Y134766D01*
Y134988D01*
Y135004D01*
Y135042D01*
Y135103D01*
X117142Y135188D01*
Y135288D01*
X117134Y135403D01*
X117127Y135526D01*
X117111Y135664D01*
X117080Y135941D01*
X117027Y136209D01*
X116996Y136340D01*
X116958Y136455D01*
X116911Y136555D01*
X116858Y136639D01*
Y136647D01*
X116842Y136655D01*
X116804Y136701D01*
X116743Y136770D01*
X116658Y136847D01*
X116551Y136924D01*
X116428Y136993D01*
X116289Y137039D01*
X116213Y137047D01*
X116136Y137054D01*
D02*
G37*
G36*
X97421Y135424D02*
X97383D01*
X97352Y135416D01*
X97276Y135408D01*
X97176Y135385D01*
X97068Y135347D01*
X96945Y135293D01*
X96830Y135216D01*
X96715Y135117D01*
X96700Y135101D01*
X96669Y135063D01*
X96623Y134994D01*
X96569Y134909D01*
X96515Y134794D01*
X96469Y134656D01*
X96438Y134502D01*
X96423Y134326D01*
Y134310D01*
Y134272D01*
X96431Y134210D01*
X96438Y134134D01*
X96454Y134034D01*
X96477Y133934D01*
X96508Y133826D01*
X96554Y133711D01*
X96561Y133696D01*
X96577Y133665D01*
X96607Y133611D01*
X96653Y133550D01*
X96707Y133473D01*
X96769Y133404D01*
X96846Y133327D01*
X96930Y133266D01*
X96938Y133258D01*
X96976Y133243D01*
X97022Y133220D01*
X97084Y133196D01*
X97160Y133166D01*
X97253Y133143D01*
X97345Y133127D01*
X97445Y133120D01*
X97483D01*
X97514Y133127D01*
X97583Y133135D01*
X97683Y133158D01*
X97782Y133196D01*
X97898Y133250D01*
X98013Y133327D01*
X98120Y133435D01*
X98136Y133450D01*
X98167Y133496D01*
X98213Y133565D01*
X98266Y133657D01*
X98312Y133780D01*
X98359Y133934D01*
X98389Y134103D01*
X98405Y134295D01*
Y134302D01*
Y134318D01*
Y134348D01*
X98397Y134379D01*
Y134425D01*
X98389Y134479D01*
X98374Y134594D01*
X98335Y134725D01*
X98289Y134863D01*
X98220Y134994D01*
X98128Y135117D01*
X98113Y135132D01*
X98082Y135163D01*
X98021Y135216D01*
X97936Y135270D01*
X97836Y135324D01*
X97713Y135378D01*
X97575Y135408D01*
X97421Y135424D01*
D02*
G37*
G36*
X101292Y137251D02*
X101254D01*
X101223Y137244D01*
X101146Y137236D01*
X101047Y137206D01*
X100939Y137159D01*
X100824Y137098D01*
X100709Y137006D01*
X100655Y136944D01*
X100609Y136883D01*
Y136875D01*
X100593Y136860D01*
X100578Y136829D01*
X100563Y136791D01*
X100540Y136737D01*
X100509Y136676D01*
X100478Y136591D01*
X100455Y136499D01*
X100424Y136391D01*
X100394Y136268D01*
X100371Y136130D01*
X100340Y135969D01*
X100325Y135800D01*
X100309Y135616D01*
X100294Y135408D01*
Y135186D01*
Y135170D01*
Y135132D01*
Y135070D01*
X100302Y134986D01*
Y134886D01*
X100309Y134771D01*
X100317Y134640D01*
X100332Y134510D01*
X100363Y134233D01*
X100417Y133957D01*
X100447Y133834D01*
X100486Y133719D01*
X100532Y133611D01*
X100578Y133527D01*
Y133519D01*
X100593Y133511D01*
X100632Y133465D01*
X100693Y133396D01*
X100778Y133327D01*
X100885Y133250D01*
X101008Y133181D01*
X101146Y133135D01*
X101223Y133127D01*
X101300Y133120D01*
X101338D01*
X101369Y133127D01*
X101446Y133143D01*
X101546Y133174D01*
X101661Y133220D01*
X101776Y133289D01*
X101838Y133335D01*
X101899Y133396D01*
X101960Y133458D01*
X102014Y133527D01*
Y133534D01*
X102030Y133550D01*
X102045Y133573D01*
X102060Y133611D01*
X102083Y133657D01*
X102106Y133726D01*
X102129Y133803D01*
X102160Y133888D01*
X102191Y133995D01*
X102214Y134110D01*
X102237Y134249D01*
X102260Y134402D01*
X102283Y134571D01*
X102291Y134756D01*
X102306Y134963D01*
Y135186D01*
Y135201D01*
Y135239D01*
Y135301D01*
X102298Y135385D01*
Y135485D01*
X102291Y135600D01*
X102283Y135723D01*
X102268Y135862D01*
X102237Y136138D01*
X102183Y136407D01*
X102152Y136537D01*
X102114Y136653D01*
X102068Y136752D01*
X102014Y136837D01*
Y136845D01*
X101999Y136852D01*
X101960Y136898D01*
X101899Y136967D01*
X101814Y137044D01*
X101707Y137121D01*
X101584Y137190D01*
X101446Y137236D01*
X101369Y137244D01*
X101292Y137251D01*
D02*
G37*
G36*
X93459D02*
X93420D01*
X93389Y137244D01*
X93313Y137236D01*
X93213Y137206D01*
X93105Y137159D01*
X92990Y137098D01*
X92875Y137006D01*
X92821Y136944D01*
X92775Y136883D01*
Y136875D01*
X92760Y136860D01*
X92744Y136829D01*
X92729Y136791D01*
X92706Y136737D01*
X92675Y136676D01*
X92645Y136591D01*
X92621Y136499D01*
X92591Y136391D01*
X92560Y136268D01*
X92537Y136130D01*
X92506Y135969D01*
X92491Y135800D01*
X92476Y135616D01*
X92460Y135408D01*
Y135186D01*
Y135170D01*
Y135132D01*
Y135070D01*
X92468Y134986D01*
Y134886D01*
X92476Y134771D01*
X92483Y134640D01*
X92499Y134510D01*
X92529Y134233D01*
X92583Y133957D01*
X92614Y133834D01*
X92652Y133719D01*
X92698Y133611D01*
X92744Y133527D01*
Y133519D01*
X92760Y133511D01*
X92798Y133465D01*
X92860Y133396D01*
X92944Y133327D01*
X93052Y133250D01*
X93174Y133181D01*
X93313Y133135D01*
X93389Y133127D01*
X93466Y133120D01*
X93505D01*
X93535Y133127D01*
X93612Y133143D01*
X93712Y133174D01*
X93827Y133220D01*
X93942Y133289D01*
X94004Y133335D01*
X94065Y133396D01*
X94127Y133458D01*
X94181Y133527D01*
Y133534D01*
X94196Y133550D01*
X94211Y133573D01*
X94227Y133611D01*
X94250Y133657D01*
X94273Y133726D01*
X94296Y133803D01*
X94327Y133888D01*
X94357Y133995D01*
X94380Y134110D01*
X94403Y134249D01*
X94426Y134402D01*
X94449Y134571D01*
X94457Y134756D01*
X94472Y134963D01*
Y135186D01*
Y135201D01*
Y135239D01*
Y135301D01*
X94465Y135385D01*
Y135485D01*
X94457Y135600D01*
X94449Y135723D01*
X94434Y135862D01*
X94403Y136138D01*
X94349Y136407D01*
X94319Y136537D01*
X94280Y136653D01*
X94234Y136752D01*
X94181Y136837D01*
Y136845D01*
X94165Y136852D01*
X94127Y136898D01*
X94065Y136967D01*
X93981Y137044D01*
X93873Y137121D01*
X93751Y137190D01*
X93612Y137236D01*
X93535Y137244D01*
X93459Y137251D01*
D02*
G37*
G36*
X78398Y137032D02*
X76816Y134774D01*
X78398D01*
Y137032D01*
D02*
G37*
G36*
X81969Y137554D02*
X81931D01*
X81900Y137547D01*
X81823Y137539D01*
X81724Y137508D01*
X81616Y137462D01*
X81501Y137401D01*
X81386Y137309D01*
X81332Y137247D01*
X81286Y137186D01*
Y137178D01*
X81271Y137163D01*
X81255Y137132D01*
X81240Y137093D01*
X81217Y137040D01*
X81186Y136978D01*
X81155Y136894D01*
X81132Y136802D01*
X81102Y136694D01*
X81071Y136571D01*
X81048Y136433D01*
X81017Y136272D01*
X81002Y136103D01*
X80986Y135918D01*
X80971Y135711D01*
Y135488D01*
Y135473D01*
Y135435D01*
Y135373D01*
X80979Y135289D01*
Y135189D01*
X80986Y135074D01*
X80994Y134943D01*
X81009Y134812D01*
X81040Y134536D01*
X81094Y134259D01*
X81125Y134137D01*
X81163Y134021D01*
X81209Y133914D01*
X81255Y133829D01*
Y133822D01*
X81271Y133814D01*
X81309Y133768D01*
X81370Y133699D01*
X81455Y133630D01*
X81562Y133553D01*
X81685Y133484D01*
X81823Y133438D01*
X81900Y133430D01*
X81977Y133422D01*
X82016D01*
X82046Y133430D01*
X82123Y133445D01*
X82223Y133476D01*
X82338Y133522D01*
X82453Y133591D01*
X82515Y133637D01*
X82576Y133699D01*
X82638Y133760D01*
X82691Y133829D01*
Y133837D01*
X82707Y133853D01*
X82722Y133876D01*
X82737Y133914D01*
X82761Y133960D01*
X82784Y134029D01*
X82807Y134106D01*
X82837Y134190D01*
X82868Y134298D01*
X82891Y134413D01*
X82914Y134551D01*
X82937Y134705D01*
X82960Y134874D01*
X82968Y135058D01*
X82983Y135266D01*
Y135488D01*
Y135504D01*
Y135542D01*
Y135603D01*
X82976Y135688D01*
Y135788D01*
X82968Y135903D01*
X82960Y136026D01*
X82945Y136164D01*
X82914Y136441D01*
X82860Y136709D01*
X82830Y136840D01*
X82791Y136955D01*
X82745Y137055D01*
X82691Y137139D01*
Y137147D01*
X82676Y137155D01*
X82638Y137201D01*
X82576Y137270D01*
X82492Y137347D01*
X82384Y137424D01*
X82261Y137493D01*
X82123Y137539D01*
X82046Y137547D01*
X81969Y137554D01*
D02*
G37*
G36*
X74136D02*
X74097D01*
X74067Y137547D01*
X73990Y137539D01*
X73890Y137508D01*
X73783Y137462D01*
X73667Y137401D01*
X73552Y137309D01*
X73498Y137247D01*
X73452Y137186D01*
Y137178D01*
X73437Y137163D01*
X73422Y137132D01*
X73406Y137093D01*
X73383Y137040D01*
X73352Y136978D01*
X73322Y136894D01*
X73299Y136802D01*
X73268Y136694D01*
X73237Y136571D01*
X73214Y136433D01*
X73184Y136272D01*
X73168Y136103D01*
X73153Y135918D01*
X73137Y135711D01*
Y135488D01*
Y135473D01*
Y135435D01*
Y135373D01*
X73145Y135289D01*
Y135189D01*
X73153Y135074D01*
X73160Y134943D01*
X73176Y134812D01*
X73207Y134536D01*
X73260Y134259D01*
X73291Y134137D01*
X73329Y134021D01*
X73375Y133914D01*
X73422Y133829D01*
Y133822D01*
X73437Y133814D01*
X73475Y133768D01*
X73537Y133699D01*
X73621Y133630D01*
X73729Y133553D01*
X73852Y133484D01*
X73990Y133438D01*
X74067Y133430D01*
X74143Y133422D01*
X74182D01*
X74213Y133430D01*
X74289Y133445D01*
X74389Y133476D01*
X74505Y133522D01*
X74620Y133591D01*
X74681Y133637D01*
X74743Y133699D01*
X74804Y133760D01*
X74858Y133829D01*
Y133837D01*
X74873Y133853D01*
X74888Y133876D01*
X74904Y133914D01*
X74927Y133960D01*
X74950Y134029D01*
X74973Y134106D01*
X75004Y134190D01*
X75034Y134298D01*
X75057Y134413D01*
X75081Y134551D01*
X75103Y134705D01*
X75127Y134874D01*
X75134Y135058D01*
X75150Y135266D01*
Y135488D01*
Y135504D01*
Y135542D01*
Y135603D01*
X75142Y135688D01*
Y135788D01*
X75134Y135903D01*
X75127Y136026D01*
X75111Y136164D01*
X75081Y136441D01*
X75027Y136709D01*
X74996Y136840D01*
X74958Y136955D01*
X74911Y137055D01*
X74858Y137139D01*
Y137147D01*
X74842Y137155D01*
X74804Y137201D01*
X74743Y137270D01*
X74658Y137347D01*
X74551Y137424D01*
X74428Y137493D01*
X74289Y137539D01*
X74213Y137547D01*
X74136Y137554D01*
D02*
G37*
G36*
X61800Y137251D02*
X61762D01*
X61731Y137244D01*
X61654Y137236D01*
X61554Y137206D01*
X61447Y137159D01*
X61332Y137098D01*
X61216Y137006D01*
X61163Y136944D01*
X61116Y136883D01*
Y136875D01*
X61101Y136860D01*
X61086Y136829D01*
X61070Y136791D01*
X61047Y136737D01*
X61017Y136676D01*
X60986Y136591D01*
X60963Y136499D01*
X60932Y136391D01*
X60901Y136268D01*
X60878Y136130D01*
X60848Y135969D01*
X60832Y135800D01*
X60817Y135616D01*
X60802Y135408D01*
Y135186D01*
Y135170D01*
Y135132D01*
Y135070D01*
X60809Y134986D01*
Y134886D01*
X60817Y134771D01*
X60825Y134640D01*
X60840Y134510D01*
X60871Y134233D01*
X60925Y133957D01*
X60955Y133834D01*
X60994Y133719D01*
X61040Y133611D01*
X61086Y133527D01*
Y133519D01*
X61101Y133511D01*
X61140Y133465D01*
X61201Y133396D01*
X61286Y133327D01*
X61393Y133250D01*
X61516Y133181D01*
X61654Y133135D01*
X61731Y133127D01*
X61808Y133120D01*
X61846D01*
X61877Y133127D01*
X61954Y133143D01*
X62054Y133174D01*
X62169Y133220D01*
X62284Y133289D01*
X62345Y133335D01*
X62407Y133396D01*
X62468Y133458D01*
X62522Y133527D01*
Y133534D01*
X62537Y133550D01*
X62553Y133573D01*
X62568Y133611D01*
X62591Y133657D01*
X62614Y133726D01*
X62637Y133803D01*
X62668Y133888D01*
X62699Y133995D01*
X62722Y134110D01*
X62745Y134249D01*
X62768Y134402D01*
X62791Y134571D01*
X62798Y134756D01*
X62814Y134963D01*
Y135186D01*
Y135201D01*
Y135239D01*
Y135301D01*
X62806Y135385D01*
Y135485D01*
X62798Y135600D01*
X62791Y135723D01*
X62775Y135862D01*
X62745Y136138D01*
X62691Y136407D01*
X62660Y136537D01*
X62622Y136653D01*
X62576Y136752D01*
X62522Y136837D01*
Y136845D01*
X62507Y136852D01*
X62468Y136898D01*
X62407Y136967D01*
X62322Y137044D01*
X62215Y137121D01*
X62092Y137190D01*
X61954Y137236D01*
X61877Y137244D01*
X61800Y137251D01*
D02*
G37*
G36*
X53966D02*
X53928D01*
X53897Y137244D01*
X53821Y137236D01*
X53721Y137206D01*
X53613Y137159D01*
X53498Y137098D01*
X53383Y137006D01*
X53329Y136944D01*
X53283Y136883D01*
Y136875D01*
X53268Y136860D01*
X53252Y136829D01*
X53237Y136791D01*
X53214Y136737D01*
X53183Y136676D01*
X53152Y136591D01*
X53129Y136499D01*
X53099Y136391D01*
X53068Y136268D01*
X53045Y136130D01*
X53014Y135969D01*
X52999Y135800D01*
X52983Y135616D01*
X52968Y135408D01*
Y135186D01*
Y135170D01*
Y135132D01*
Y135070D01*
X52976Y134986D01*
Y134886D01*
X52983Y134771D01*
X52991Y134640D01*
X53006Y134510D01*
X53037Y134233D01*
X53091Y133957D01*
X53122Y133834D01*
X53160Y133719D01*
X53206Y133611D01*
X53252Y133527D01*
Y133519D01*
X53268Y133511D01*
X53306Y133465D01*
X53367Y133396D01*
X53452Y133327D01*
X53559Y133250D01*
X53682Y133181D01*
X53821Y133135D01*
X53897Y133127D01*
X53974Y133120D01*
X54013D01*
X54043Y133127D01*
X54120Y133143D01*
X54220Y133174D01*
X54335Y133220D01*
X54450Y133289D01*
X54512Y133335D01*
X54573Y133396D01*
X54635Y133458D01*
X54688Y133527D01*
Y133534D01*
X54704Y133550D01*
X54719Y133573D01*
X54734Y133611D01*
X54757Y133657D01*
X54781Y133726D01*
X54804Y133803D01*
X54834Y133888D01*
X54865Y133995D01*
X54888Y134110D01*
X54911Y134249D01*
X54934Y134402D01*
X54957Y134571D01*
X54965Y134756D01*
X54980Y134963D01*
Y135186D01*
Y135201D01*
Y135239D01*
Y135301D01*
X54972Y135385D01*
Y135485D01*
X54965Y135600D01*
X54957Y135723D01*
X54942Y135862D01*
X54911Y136138D01*
X54857Y136407D01*
X54827Y136537D01*
X54788Y136653D01*
X54742Y136752D01*
X54688Y136837D01*
Y136845D01*
X54673Y136852D01*
X54635Y136898D01*
X54573Y136967D01*
X54489Y137044D01*
X54381Y137121D01*
X54258Y137190D01*
X54120Y137236D01*
X54043Y137244D01*
X53966Y137251D01*
D02*
G37*
G36*
X22997Y148347D02*
X22949D01*
X22911Y148337D01*
X22815Y148328D01*
X22690Y148289D01*
X22555Y148232D01*
X22411Y148155D01*
X22267Y148039D01*
X22200Y147963D01*
X22142Y147886D01*
Y147876D01*
X22123Y147857D01*
X22104Y147819D01*
X22084Y147770D01*
X22055Y147703D01*
X22017Y147626D01*
X21979Y147521D01*
X21950Y147405D01*
X21911Y147271D01*
X21873Y147117D01*
X21844Y146944D01*
X21806Y146742D01*
X21786Y146531D01*
X21767Y146300D01*
X21748Y146041D01*
Y145762D01*
Y145743D01*
Y145695D01*
Y145618D01*
X21757Y145512D01*
Y145387D01*
X21767Y145243D01*
X21777Y145080D01*
X21796Y144916D01*
X21834Y144570D01*
X21902Y144224D01*
X21940Y144071D01*
X21988Y143926D01*
X22046Y143792D01*
X22104Y143686D01*
Y143677D01*
X22123Y143667D01*
X22171Y143609D01*
X22248Y143523D01*
X22353Y143436D01*
X22488Y143340D01*
X22642Y143254D01*
X22815Y143196D01*
X22911Y143186D01*
X23007Y143177D01*
X23055D01*
X23093Y143186D01*
X23189Y143206D01*
X23314Y143244D01*
X23459Y143302D01*
X23603Y143388D01*
X23679Y143446D01*
X23756Y143523D01*
X23833Y143600D01*
X23901Y143686D01*
Y143696D01*
X23920Y143715D01*
X23939Y143744D01*
X23958Y143792D01*
X23987Y143850D01*
X24016Y143936D01*
X24045Y144032D01*
X24083Y144138D01*
X24122Y144272D01*
X24150Y144416D01*
X24179Y144589D01*
X24208Y144782D01*
X24237Y144993D01*
X24247Y145224D01*
X24266Y145483D01*
Y145762D01*
Y145781D01*
Y145829D01*
Y145906D01*
X24256Y146012D01*
Y146137D01*
X24247Y146281D01*
X24237Y146435D01*
X24218Y146608D01*
X24179Y146954D01*
X24112Y147290D01*
X24074Y147453D01*
X24025Y147598D01*
X23968Y147722D01*
X23901Y147828D01*
Y147838D01*
X23881Y147847D01*
X23833Y147905D01*
X23756Y147992D01*
X23651Y148088D01*
X23516Y148184D01*
X23362Y148270D01*
X23189Y148328D01*
X23093Y148337D01*
X22997Y148347D01*
D02*
G37*
%LPD*%
D29*
X270369Y152827D02*
G03*
X270369Y55244I0J-48792D01*
G01*
Y55244D02*
Y152827D01*
X270334Y55235D02*
Y152818D01*
D30*
X270363Y109679D02*
G03*
X270363Y98114I0J-5783D01*
G01*
X224543Y120788D02*
X264929Y105875D01*
X253482Y149811D02*
X268332Y109311D01*
X245965Y146285D02*
X267458Y108896D01*
X239354Y141701D02*
X266625Y108309D01*
X236034Y138701D02*
X266274Y107985D01*
X233050Y135466D02*
X265926Y107605D01*
X228002Y128236D02*
X265355Y106788D01*
X262485Y152186D02*
X269382Y109596D01*
X222279Y112280D02*
X264669Y104907D01*
X224607Y87109D02*
X264927Y101924D01*
X232747Y72968D02*
X265937Y100174D01*
X228077Y79704D02*
X265356Y101003D01*
X235920Y69483D02*
X266277Y99804D01*
X238882Y66763D02*
X266656Y99458D01*
X246032Y61746D02*
X267477Y98886D01*
X253819Y58136D02*
X268389Y98461D01*
X261810Y56000D02*
X269347Y98204D01*
X222329Y95503D02*
X264669Y102890D01*
X221586Y103931D02*
X270399Y103960D01*
D31*
X16169Y34752D02*
Y62252D01*
X34169Y34752D02*
Y54752D01*
X32169Y34752D02*
Y54752D01*
X30169Y34752D02*
Y54752D01*
X28169Y34752D02*
Y54752D01*
X26169Y34752D02*
Y58252D01*
X24169Y34752D02*
Y54752D01*
X22169Y34752D02*
Y54752D01*
X20169Y52752D02*
Y54752D01*
X18169Y34752D02*
Y54752D01*
X20169Y34752D02*
Y52752D01*
X254169Y34752D02*
Y54752D01*
X252169Y34752D02*
Y54752D01*
X250169Y34752D02*
Y54752D01*
X248169Y34752D02*
Y54752D01*
X246169Y34752D02*
Y58252D01*
X244169Y34752D02*
Y54752D01*
X242169Y34752D02*
Y54752D01*
X240169Y52752D02*
Y54752D01*
X238169Y34752D02*
Y54752D01*
X240169Y34752D02*
Y52752D01*
X256169Y34752D02*
Y58252D01*
X274169Y34752D02*
Y54752D01*
X272169Y34752D02*
Y54752D01*
X270169Y34752D02*
Y54752D01*
X268169Y34752D02*
Y54752D01*
X266169Y34752D02*
Y62252D01*
X264169Y34752D02*
Y54752D01*
X262169Y34752D02*
Y54752D01*
X260169Y52752D02*
Y54752D01*
X258169Y34752D02*
Y54752D01*
X260169Y34752D02*
Y52752D01*
X276169Y34752D02*
Y58252D01*
X294169Y34752D02*
Y54752D01*
X292169Y34752D02*
Y54752D01*
X290169Y34752D02*
Y54752D01*
X288169Y34752D02*
Y54752D01*
X286169Y34752D02*
Y58252D01*
X284169Y34752D02*
Y54752D01*
X282169Y34752D02*
Y54752D01*
X280169Y52752D02*
Y54752D01*
X278169Y34752D02*
Y54752D01*
X280169Y34752D02*
Y52752D01*
X296169Y34752D02*
Y58252D01*
X236169Y34752D02*
Y58252D01*
X220169Y34752D02*
Y52752D01*
X218169Y34752D02*
Y54752D01*
X220169Y52752D02*
Y54752D01*
X222169Y34752D02*
Y54752D01*
X224169Y34752D02*
Y54752D01*
X226169Y34752D02*
Y58252D01*
X228169Y34752D02*
Y54752D01*
X230169Y34752D02*
Y54752D01*
X232169Y34752D02*
Y54752D01*
X234169Y34752D02*
Y54752D01*
X154169Y34752D02*
Y54752D01*
X174169Y34752D02*
Y54752D01*
X172169Y34752D02*
Y54752D01*
X170169Y34752D02*
Y54752D01*
X168169Y34752D02*
Y54752D01*
X166169Y34752D02*
Y62252D01*
X164169Y34752D02*
Y54752D01*
X176169Y34752D02*
Y58252D01*
X194169Y34752D02*
Y54752D01*
X192169Y34752D02*
Y54752D01*
X190169Y34752D02*
Y54752D01*
X188169Y34752D02*
Y54752D01*
X186169Y34752D02*
Y58252D01*
X184169Y34752D02*
Y54752D01*
X182169Y34752D02*
Y54752D01*
X180169Y52752D02*
Y54752D01*
X178169Y34752D02*
Y54752D01*
X180169Y34752D02*
Y52752D01*
X196169Y34752D02*
Y58252D01*
X214169Y34752D02*
Y54752D01*
X212169Y34752D02*
Y54752D01*
X210169Y34752D02*
Y54752D01*
X208169Y34752D02*
Y54752D01*
X206169Y34752D02*
Y58252D01*
X204169Y34752D02*
Y54752D01*
X202169Y34752D02*
Y54752D01*
X200169Y52752D02*
Y54752D01*
X198169Y34752D02*
Y54752D01*
X200169Y34752D02*
Y52752D01*
X216169Y34752D02*
Y62252D01*
X136169Y34752D02*
Y58252D01*
X120169Y34752D02*
Y52752D01*
X118169Y34752D02*
Y54752D01*
X120169Y52752D02*
Y54752D01*
X122169Y34752D02*
Y54752D01*
X124169Y34752D02*
Y54752D01*
X116169Y34752D02*
Y62252D01*
X100169Y34752D02*
Y52752D01*
X98169Y34752D02*
Y54752D01*
X100169Y52752D02*
Y54752D01*
X102169Y34752D02*
Y54752D01*
X104169Y34752D02*
Y54752D01*
X106169Y34752D02*
Y58252D01*
X108169Y34752D02*
Y54752D01*
X110169Y34752D02*
Y54752D01*
X112169Y34752D02*
Y54752D01*
X114169Y34752D02*
Y54752D01*
X96169Y34752D02*
Y58252D01*
X80169Y34752D02*
Y52752D01*
X78169Y34752D02*
Y54752D01*
X80169Y52752D02*
Y54752D01*
X82169Y34752D02*
Y54752D01*
X84169Y34752D02*
Y54752D01*
X86169Y34752D02*
Y58252D01*
X88169Y34752D02*
Y54752D01*
X90169Y34752D02*
Y54752D01*
X92169Y34752D02*
Y54752D01*
X94169Y34752D02*
Y54752D01*
X76169Y34752D02*
Y58252D01*
X60169Y34752D02*
Y52752D01*
X58169Y34752D02*
Y54752D01*
X60169Y52752D02*
Y54752D01*
X62169Y34752D02*
Y54752D01*
X64169Y34752D02*
Y54752D01*
X66169Y34752D02*
Y62252D01*
X68169Y34752D02*
Y54752D01*
X70169Y34752D02*
Y54752D01*
X72169Y34752D02*
Y54752D01*
X74169Y34752D02*
Y54752D01*
X56169Y34752D02*
Y58252D01*
X40169Y34752D02*
Y52752D01*
X38169Y34752D02*
Y54752D01*
X40169Y52752D02*
Y54752D01*
X42169Y34752D02*
Y54752D01*
X44169Y34752D02*
Y54752D01*
X46169Y34752D02*
Y58252D01*
X48169Y34752D02*
Y54752D01*
X50169Y34752D02*
Y54752D01*
X52169Y34752D02*
Y54752D01*
X54169Y34752D02*
Y54752D01*
X134169Y34752D02*
Y54752D01*
X132169Y34752D02*
Y54752D01*
X130169Y34752D02*
Y54752D01*
X128169Y34752D02*
Y54752D01*
X126169Y34752D02*
Y58252D01*
X160169Y34752D02*
Y52752D01*
X158169Y34752D02*
Y54752D01*
X160169Y52752D02*
Y54752D01*
X162169Y34752D02*
Y54752D01*
X156169Y34752D02*
Y58252D01*
X140169Y34752D02*
Y52752D01*
X138169Y34752D02*
Y54752D01*
X140169Y52752D02*
Y54752D01*
X142169Y34752D02*
Y54752D01*
X144169Y34752D02*
Y54752D01*
X146169Y34752D02*
Y58252D01*
X148169Y34752D02*
Y54752D01*
X150169Y34752D02*
Y54752D01*
X152169Y34752D02*
Y54752D01*
X36169Y34752D02*
Y58252D01*
D32*
X17831Y143799D02*
Y171358D01*
X257988Y151673D02*
Y171358D01*
X261925Y151673D02*
Y171358D01*
X265862Y151673D02*
Y171358D01*
X269799Y151673D02*
Y171358D01*
X273736Y147736D02*
Y171358D01*
X277673Y151673D02*
Y171358D01*
X281610Y151673D02*
Y171358D01*
X285547Y151673D02*
Y171358D01*
X289484Y151673D02*
Y171358D01*
X293421Y143799D02*
Y171358D01*
X218618Y151673D02*
Y171358D01*
X222555Y151673D02*
Y171358D01*
X226492Y151673D02*
Y171358D01*
X230429Y151673D02*
Y171358D01*
X234366Y147736D02*
Y171358D01*
X238303Y151673D02*
Y171358D01*
X242240Y151673D02*
Y171358D01*
X246177Y151673D02*
Y171358D01*
X250114Y151673D02*
Y171358D01*
X254051Y143799D02*
Y171358D01*
X179248Y151673D02*
Y171358D01*
X183185Y151673D02*
Y171358D01*
X187122Y151673D02*
Y171358D01*
X191059Y151673D02*
Y171358D01*
X194996Y147736D02*
Y171358D01*
X198933Y151673D02*
Y171358D01*
X202870Y151673D02*
Y171358D01*
X206807Y151673D02*
Y171358D01*
X210744Y151673D02*
Y171358D01*
X214681Y143799D02*
Y171358D01*
X139878Y151673D02*
Y171358D01*
X143815Y151673D02*
Y171358D01*
X147752Y151673D02*
Y171358D01*
X151689Y151673D02*
Y171358D01*
X155626Y147736D02*
Y171358D01*
X159563Y151673D02*
Y171358D01*
X163500Y151673D02*
Y171358D01*
X167437Y151673D02*
Y171358D01*
X171374Y151673D02*
Y171358D01*
X175311Y143799D02*
Y171358D01*
X100508Y151673D02*
Y171358D01*
X104445Y151673D02*
Y171358D01*
X108382Y151673D02*
Y171358D01*
X112319Y151673D02*
Y171358D01*
X116256Y147736D02*
Y171358D01*
X120193Y151673D02*
Y171358D01*
X124130Y151673D02*
Y171358D01*
X128067Y151673D02*
Y171358D01*
X132004Y151673D02*
Y171358D01*
X135941Y143799D02*
Y171358D01*
X61138Y151673D02*
Y171358D01*
X65075Y151673D02*
Y171358D01*
X69012Y151673D02*
Y171358D01*
X72949Y151673D02*
Y171358D01*
X76886Y147736D02*
Y171358D01*
X80823Y151673D02*
Y171358D01*
X84760Y151673D02*
Y171358D01*
X88697Y151673D02*
Y171358D01*
X92634Y151673D02*
Y171358D01*
X96571Y143799D02*
Y171358D01*
X57201Y143799D02*
Y171358D01*
X53264Y151673D02*
Y171358D01*
X49327Y151673D02*
Y171358D01*
X45390Y151673D02*
Y171358D01*
X41453Y151673D02*
Y171358D01*
X37516Y147736D02*
Y171358D01*
X33579Y151673D02*
Y171358D01*
X29642Y151673D02*
Y171358D01*
X25705Y151673D02*
Y171358D01*
X21768Y154322D02*
Y171358D01*
Y151673D02*
Y154322D01*
D33*
X51500Y124500D02*
Y127499D01*
X53000D01*
X53499Y126999D01*
Y125999D01*
X53000Y125500D01*
X51500D01*
X52500D02*
X53499Y124500D01*
X51500Y117999D02*
Y115000D01*
X53499D01*
Y121999D02*
X53000Y122499D01*
X52000D01*
X51500Y121999D01*
Y120000D01*
X52000Y119500D01*
X53000D01*
X53499Y120000D01*
D34*
X60622Y116500D02*
D03*
X58378D02*
D03*
X60622Y121500D02*
D03*
X58378D02*
D03*
D35*
X48500Y76500D02*
D03*
X44760Y85555D02*
D03*
X52240D02*
D03*
D36*
X42362Y91531D02*
D03*
X36299D02*
D03*
X54969Y91531D02*
D03*
X61032D02*
D03*
D37*
X48500Y98000D02*
D03*
Y104063D02*
D03*
D38*
X151715Y120610D02*
D03*
X139117D02*
D03*
D39*
X184260D02*
D03*
X170660D02*
D03*
D40*
X60599Y126000D02*
D03*
D41*
X57999D02*
D03*
D42*
X76852Y120949D02*
D03*
X80192D02*
D03*
D43*
X102144Y120950D02*
D03*
X96633Y120949D02*
D03*
D44*
X125766Y120950D02*
D03*
X117766D02*
D03*
D45*
X17500Y155500D02*
D03*
D46*
X721000Y80658D02*
D03*
Y90500D02*
D03*
Y100343D02*
D03*
D47*
Y110185D02*
D03*
D48*
X16999Y103999D02*
D03*
D49*
X270079Y104004D02*
D03*
M02*
