G04*
G04 #@! TF.GenerationSoftware,Altium Limited,Altium Designer,19.0.4 (130)*
G04*
G04 Layer_Color=255*
%FSLAX25Y25*%
%MOIN*%
G70*
G01*
G75*
%ADD50C,0.10000*%
%ADD51O,0.07874X0.05512*%
%ADD52R,0.07874X0.05512*%
%ADD53O,0.08000X0.50000*%
%ADD55R,0.02362X0.04724*%
%ADD56R,0.04331X0.02559*%
%ADD57O,0.07480X0.01772*%
%ADD58O,0.01772X0.07480*%
%ADD59O,0.05906X0.01772*%
%ADD60O,0.01772X0.05906*%
D50*
X17500Y155500D02*
D03*
D51*
X721000Y80658D02*
D03*
Y90500D02*
D03*
Y100343D02*
D03*
D52*
Y110185D02*
D03*
D53*
X16999Y103999D02*
D03*
D55*
X69055Y129839D02*
D03*
X74055D02*
D03*
X79055D02*
D03*
X69055Y109366D02*
D03*
X79055D02*
D03*
D56*
X52809Y128672D02*
D03*
Y124932D02*
D03*
Y121192D02*
D03*
X43361D02*
D03*
Y124932D02*
D03*
Y128672D02*
D03*
D57*
X201142Y119512D02*
D03*
Y116363D02*
D03*
Y113213D02*
D03*
Y110063D02*
D03*
Y106914D02*
D03*
Y103764D02*
D03*
Y100614D02*
D03*
Y97465D02*
D03*
Y94315D02*
D03*
Y91166D02*
D03*
Y88016D02*
D03*
X152717D02*
D03*
Y91166D02*
D03*
Y94315D02*
D03*
Y97465D02*
D03*
Y100614D02*
D03*
Y103764D02*
D03*
Y106914D02*
D03*
Y110063D02*
D03*
Y113213D02*
D03*
Y116363D02*
D03*
Y119512D02*
D03*
D58*
X192677Y79552D02*
D03*
X189527D02*
D03*
X186378D02*
D03*
X183228D02*
D03*
X180079D02*
D03*
X176929D02*
D03*
X173779D02*
D03*
X170630D02*
D03*
X167480D02*
D03*
X164331D02*
D03*
X161181D02*
D03*
Y127977D02*
D03*
X164331D02*
D03*
X167480D02*
D03*
X170630D02*
D03*
X173779D02*
D03*
X176929D02*
D03*
X180079D02*
D03*
X183228D02*
D03*
X186378D02*
D03*
X189527D02*
D03*
X192677D02*
D03*
D59*
X130354Y122752D02*
D03*
Y119603D02*
D03*
Y116453D02*
D03*
Y113303D02*
D03*
Y110154D02*
D03*
Y107004D02*
D03*
Y103855D02*
D03*
Y100705D02*
D03*
X97283D02*
D03*
Y103855D02*
D03*
Y107004D02*
D03*
Y110154D02*
D03*
Y113303D02*
D03*
Y116453D02*
D03*
Y119603D02*
D03*
Y122752D02*
D03*
D60*
X124843Y95193D02*
D03*
X121693D02*
D03*
X118543D02*
D03*
X115394D02*
D03*
X112244D02*
D03*
X109095D02*
D03*
X105945D02*
D03*
X102795D02*
D03*
Y128264D02*
D03*
X105945D02*
D03*
X109095D02*
D03*
X112244D02*
D03*
X115394D02*
D03*
X118543D02*
D03*
X121693D02*
D03*
X124843D02*
D03*
M02*
