G04*
G04 #@! TF.GenerationSoftware,Altium Limited,Altium Designer,19.0.4 (130)*
G04*
G04 Layer_Color=16711935*
%FSLAX25Y25*%
%MOIN*%
G70*
G01*
G75*
%ADD12C,0.00394*%
%ADD74C,0.00197*%
D12*
X51628Y118829D02*
Y131034D01*
X44542Y118829D02*
Y131034D01*
X51628D01*
X44542Y118829D02*
X51628D01*
X38563Y93961D02*
X39744Y95142D01*
X39350Y93567D02*
X40531Y94748D01*
X37756Y91531D02*
X40905D01*
X38543Y89957D02*
Y93106D01*
Y91531D02*
X40118Y89957D01*
X38543Y91531D02*
X40118Y93106D01*
Y89957D02*
Y93106D01*
X57587Y87921D02*
X58768Y89102D01*
X56799Y88315D02*
X57980Y89496D01*
X56425Y91531D02*
X59575D01*
X58787Y89957D02*
Y93106D01*
X57213D02*
X58787Y91531D01*
X57213Y89957D02*
X58787Y91531D01*
X57213Y89957D02*
Y93106D01*
X50929Y101799D02*
X52110Y100618D01*
X50536Y101012D02*
X51717Y99831D01*
X48500Y99457D02*
Y102606D01*
X46925Y101819D02*
X50075D01*
X46925Y100244D02*
X48500Y101819D01*
X50075Y100244D01*
X46925D02*
X50075D01*
D74*
X58319Y117091D02*
X60681D01*
X58319Y115909D02*
X60681D01*
Y117091D01*
X58319Y115909D02*
Y117091D01*
M02*
