G04*
G04 #@! TF.GenerationSoftware,Altium Limited,Altium Designer,19.0.4 (130)*
G04*
G04 Layer_Color=16711935*
%FSLAX25Y25*%
%MOIN*%
G70*
G01*
G75*
%ADD32C,0.01378*%
%ADD45C,0.10800*%
%ADD46O,0.08674X0.06312*%
%ADD47R,0.08674X0.06312*%
%ADD48O,0.08800X0.50800*%
%ADD49C,0.06800*%
%ADD61C,0.00933*%
%ADD62C,0.00826*%
%ADD63C,0.00300*%
%ADD64R,0.03162X0.05524*%
%ADD65R,0.05131X0.03359*%
%ADD66O,0.08280X0.02572*%
%ADD67O,0.02572X0.08280*%
%ADD68O,0.06706X0.02572*%
%ADD69O,0.02572X0.06706*%
G36*
X269612Y155791D02*
X269642Y155793D01*
X269666Y155792D01*
X269685Y155791D01*
X269697Y155790D01*
X269700Y155790D01*
X269800Y155781D01*
X269897Y155770D01*
X269981Y155757D01*
X270062Y155740D01*
X270135Y155721D01*
X270201Y155703D01*
X270260Y155681D01*
X270311Y155660D01*
X270359Y155640D01*
X270397Y155619D01*
X270430Y155602D01*
X270456Y155586D01*
X270477Y155572D01*
X270492Y155563D01*
X270500Y155556D01*
X270503Y155553D01*
X270538Y155518D01*
X270567Y155483D01*
X270592Y155445D01*
X270614Y155404D01*
X270631Y155367D01*
X270647Y155326D01*
X270667Y155252D01*
X270671Y155218D01*
X270676Y155188D01*
X270680Y155160D01*
X270682Y155136D01*
X270684Y155114D01*
X270683Y155087D01*
X270673Y155008D01*
X270657Y154939D01*
X270635Y154879D01*
X270611Y154826D01*
X270588Y154787D01*
X270568Y154755D01*
X270558Y154746D01*
X270555Y154737D01*
X270549Y154735D01*
X270549Y154732D01*
X270497Y154683D01*
X270440Y154643D01*
X270384Y154609D01*
X270327Y154582D01*
X270278Y154560D01*
X270259Y154552D01*
X270240Y154544D01*
X270225Y154539D01*
X270213Y154536D01*
X270206Y154533D01*
X270203Y154534D01*
X270160Y154524D01*
X270117Y154514D01*
X270022Y154500D01*
X269927Y154493D01*
X269836Y154489D01*
X269793Y154488D01*
X269753Y154487D01*
X269720Y154489D01*
X269689Y154488D01*
X269665Y154489D01*
X269647Y154490D01*
X269635Y154490D01*
X269632Y154490D01*
X269526Y154499D01*
X269480Y154501D01*
X269435Y154507D01*
X269392Y154512D01*
X269353Y154520D01*
X269320Y154525D01*
X269287Y154530D01*
X269260Y154537D01*
X269233Y154542D01*
X269212Y154546D01*
X269197Y154553D01*
X269182Y154557D01*
X269173Y154557D01*
X269167Y154560D01*
X269163Y154561D01*
X269101Y154582D01*
X269044Y154606D01*
X268994Y154630D01*
X268952Y154651D01*
X268920Y154671D01*
X268893Y154688D01*
X268879Y154697D01*
X268873Y154701D01*
X268832Y154733D01*
X268797Y154769D01*
X268765Y154804D01*
X268740Y154836D01*
X268723Y154867D01*
X268709Y154889D01*
X268701Y154905D01*
X268698Y154911D01*
X268679Y154957D01*
X268663Y155007D01*
X268654Y155056D01*
X268650Y155099D01*
X268646Y155136D01*
X268644Y155166D01*
X268646Y155194D01*
X268656Y155272D01*
X268672Y155341D01*
X268693Y155404D01*
X268717Y155455D01*
X268744Y155496D01*
X268764Y155525D01*
X268770Y155537D01*
X268777Y155546D01*
X268783Y155549D01*
X268783Y155552D01*
X268834Y155601D01*
X268888Y155641D01*
X268945Y155674D01*
X269001Y155702D01*
X269051Y155723D01*
X269073Y155731D01*
X269091Y155736D01*
X269107Y155742D01*
X269119Y155747D01*
X269125Y155750D01*
X269128Y155750D01*
X269172Y155760D01*
X269215Y155770D01*
X269310Y155780D01*
X269404Y155787D01*
X269496Y155791D01*
X269539Y155792D01*
X269578Y155793D01*
X269612Y155791D01*
D02*
G37*
G36*
X261533Y156858D02*
X261509Y156804D01*
X261489Y156755D01*
X261465Y156709D01*
X261445Y156669D01*
X261428Y156637D01*
X261414Y156616D01*
X261411Y156613D01*
X261411Y156609D01*
X261377Y156549D01*
X261339Y156495D01*
X261308Y156449D01*
X261277Y156410D01*
X261253Y156377D01*
X261236Y156352D01*
X261222Y156338D01*
X261218Y156334D01*
X263027Y156366D01*
X263032Y156081D01*
X260709Y156041D01*
X260706Y156227D01*
X260762Y156260D01*
X260818Y156299D01*
X260870Y156342D01*
X260918Y156386D01*
X260956Y156425D01*
X260987Y156457D01*
X261008Y156479D01*
X261012Y156482D01*
X261015Y156486D01*
X261070Y156554D01*
X261122Y156625D01*
X261166Y156696D01*
X261204Y156760D01*
X261234Y156817D01*
X261245Y156842D01*
X261255Y156863D01*
X261265Y156878D01*
X261272Y156892D01*
X261275Y156899D01*
X261275Y156902D01*
X261553Y156907D01*
X261533Y156858D01*
D02*
G37*
G36*
X262021Y155335D02*
X262134Y155330D01*
X262232Y155321D01*
X262328Y155308D01*
X262412Y155292D01*
X262490Y155276D01*
X262561Y155256D01*
X262621Y155236D01*
X262678Y155216D01*
X262724Y155195D01*
X262763Y155179D01*
X262795Y155161D01*
X262820Y155148D01*
X262838Y155138D01*
X262848Y155131D01*
X262852Y155127D01*
X262895Y155089D01*
X262930Y155051D01*
X262963Y155010D01*
X262992Y154964D01*
X263014Y154922D01*
X263036Y154877D01*
X263065Y154793D01*
X263073Y154754D01*
X263081Y154719D01*
X263088Y154688D01*
X263092Y154660D01*
X263096Y154635D01*
X263097Y154604D01*
X263091Y154512D01*
X263079Y154431D01*
X263059Y154360D01*
X263035Y154296D01*
X263011Y154250D01*
X262991Y154211D01*
X262981Y154200D01*
X262977Y154190D01*
X262970Y154186D01*
X262970Y154182D01*
X262915Y154122D01*
X262853Y154071D01*
X262790Y154028D01*
X262727Y153991D01*
X262671Y153962D01*
X262650Y153952D01*
X262630Y153941D01*
X262612Y153933D01*
X262598Y153929D01*
X262591Y153926D01*
X262588Y153926D01*
X262539Y153911D01*
X262490Y153896D01*
X262381Y153873D01*
X262272Y153857D01*
X262167Y153844D01*
X262117Y153840D01*
X262072Y153836D01*
X262033Y153835D01*
X261998Y153831D01*
X261970Y153830D01*
X261948Y153830D01*
X261934Y153830D01*
X261931Y153830D01*
X261808Y153831D01*
X261755Y153830D01*
X261702Y153833D01*
X261653Y153835D01*
X261607Y153842D01*
X261568Y153845D01*
X261529Y153847D01*
X261497Y153854D01*
X261466Y153857D01*
X261441Y153860D01*
X261423Y153867D01*
X261406Y153870D01*
X261395Y153870D01*
X261388Y153873D01*
X261385Y153873D01*
X261310Y153893D01*
X261243Y153916D01*
X261183Y153940D01*
X261133Y153960D01*
X261094Y153981D01*
X261062Y153998D01*
X261044Y154008D01*
X261037Y154011D01*
X260987Y154046D01*
X260944Y154084D01*
X260905Y154122D01*
X260873Y154156D01*
X260851Y154191D01*
X260833Y154216D01*
X260822Y154233D01*
X260818Y154240D01*
X260793Y154292D01*
X260771Y154348D01*
X260756Y154404D01*
X260748Y154453D01*
X260740Y154496D01*
X260736Y154531D01*
X260735Y154562D01*
X260741Y154654D01*
X260753Y154735D01*
X260773Y154809D01*
X260797Y154870D01*
X260824Y154919D01*
X260845Y154955D01*
X260851Y154969D01*
X260858Y154980D01*
X260865Y154983D01*
X260865Y154987D01*
X260920Y155048D01*
X260979Y155098D01*
X261042Y155141D01*
X261105Y155178D01*
X261160Y155207D01*
X261185Y155218D01*
X261206Y155225D01*
X261224Y155233D01*
X261237Y155240D01*
X261244Y155244D01*
X261248Y155244D01*
X261297Y155259D01*
X261346Y155274D01*
X261455Y155293D01*
X261564Y155309D01*
X261669Y155321D01*
X261718Y155326D01*
X261764Y155330D01*
X261803Y155331D01*
X261838Y155335D01*
X261866Y155335D01*
X261887Y155336D01*
X261901Y155336D01*
X261905Y155336D01*
X262021Y155335D01*
D02*
G37*
G36*
X254187Y153361D02*
X253925D01*
Y154459D01*
X253871Y154422D01*
X253827Y154385D01*
X253806Y154368D01*
X253793Y154354D01*
X253783Y154347D01*
X253779Y154344D01*
X253762Y154327D01*
X253745Y154310D01*
X253704Y154266D01*
X253657Y154211D01*
X253609Y154160D01*
X253565Y154109D01*
X253531Y154068D01*
X253517Y154051D01*
X253507Y154038D01*
X253500Y154031D01*
X253497Y154028D01*
X253449Y153973D01*
X253409Y153926D01*
X253368Y153878D01*
X253330Y153837D01*
X253293Y153800D01*
X253262Y153766D01*
X253232Y153732D01*
X253204Y153705D01*
X253181Y153681D01*
X253160Y153660D01*
X253130Y153630D01*
X253109Y153613D01*
X253102Y153606D01*
X253048Y153562D01*
X253000Y153521D01*
X252953Y153490D01*
X252912Y153467D01*
X252878Y153446D01*
X252854Y153433D01*
X252837Y153426D01*
X252831Y153422D01*
X252783Y153402D01*
X252735Y153388D01*
X252691Y153378D01*
X252650Y153371D01*
X252616Y153368D01*
X252589Y153365D01*
X252572D01*
X252565D01*
X252518Y153368D01*
X252470Y153371D01*
X252385Y153395D01*
X252310Y153426D01*
X252246Y153460D01*
X252195Y153494D01*
X252174Y153511D01*
X252154Y153524D01*
X252140Y153538D01*
X252130Y153548D01*
X252127Y153552D01*
X252123Y153555D01*
X252093Y153592D01*
X252062Y153630D01*
X252038Y153671D01*
X252018Y153715D01*
X251987Y153800D01*
X251967Y153881D01*
X251957Y153919D01*
X251953Y153953D01*
X251950Y153983D01*
X251946Y154011D01*
X251943Y154034D01*
Y154065D01*
X251946Y154123D01*
X251950Y154177D01*
X251970Y154279D01*
X251980Y154323D01*
X251994Y154368D01*
X252011Y154405D01*
X252025Y154439D01*
X252042Y154470D01*
X252055Y154497D01*
X252072Y154521D01*
X252082Y154541D01*
X252093Y154555D01*
X252103Y154565D01*
X252106Y154572D01*
X252110Y154575D01*
X252144Y154609D01*
X252178Y154636D01*
X252256Y154687D01*
X252334Y154725D01*
X252412Y154752D01*
X252480Y154772D01*
X252511Y154776D01*
X252538Y154782D01*
X252558Y154786D01*
X252575Y154789D01*
X252586D01*
X252589D01*
X252620Y154507D01*
X252545Y154500D01*
X252480Y154487D01*
X252426Y154470D01*
X252378Y154446D01*
X252341Y154425D01*
X252314Y154405D01*
X252300Y154391D01*
X252293Y154388D01*
X252253Y154340D01*
X252222Y154289D01*
X252202Y154235D01*
X252185Y154184D01*
X252178Y154140D01*
X252174Y154106D01*
X252171Y154092D01*
Y154072D01*
X252174Y154004D01*
X252188Y153943D01*
X252205Y153892D01*
X252225Y153847D01*
X252249Y153813D01*
X252266Y153786D01*
X252280Y153773D01*
X252283Y153766D01*
X252327Y153725D01*
X252375Y153698D01*
X252419Y153677D01*
X252463Y153660D01*
X252501Y153654D01*
X252531Y153650D01*
X252552Y153647D01*
X252555D01*
X252558D01*
X252616Y153654D01*
X252677Y153667D01*
X252732Y153688D01*
X252783Y153711D01*
X252827Y153735D01*
X252861Y153756D01*
X252875Y153762D01*
X252885Y153769D01*
X252888Y153776D01*
X252892D01*
X252926Y153803D01*
X252963Y153834D01*
X253000Y153868D01*
X253038Y153909D01*
X253116Y153990D01*
X253194Y154072D01*
X253259Y154147D01*
X253290Y154181D01*
X253313Y154211D01*
X253337Y154235D01*
X253351Y154252D01*
X253361Y154266D01*
X253364Y154269D01*
X253436Y154351D01*
X253500Y154425D01*
X253558Y154487D01*
X253606Y154538D01*
X253646Y154578D01*
X253677Y154606D01*
X253697Y154623D01*
X253701Y154629D01*
X253704D01*
X253759Y154674D01*
X253810Y154708D01*
X253861Y154742D01*
X253905Y154765D01*
X253946Y154786D01*
X253973Y154799D01*
X253993Y154806D01*
X253997Y154810D01*
X254000D01*
X254034Y154820D01*
X254068Y154830D01*
X254099Y154833D01*
X254126Y154837D01*
X254150Y154840D01*
X254170D01*
X254184D01*
X254187D01*
Y153361D01*
D02*
G37*
G36*
X253198Y153065D02*
X253307Y153059D01*
X253402Y153048D01*
X253493Y153035D01*
X253575Y153018D01*
X253650Y153001D01*
X253718Y152980D01*
X253776Y152960D01*
X253830Y152940D01*
X253874Y152919D01*
X253912Y152902D01*
X253942Y152885D01*
X253966Y152872D01*
X253983Y152861D01*
X253993Y152855D01*
X253997Y152851D01*
X254037Y152814D01*
X254071Y152776D01*
X254102Y152736D01*
X254129Y152691D01*
X254150Y152651D01*
X254170Y152606D01*
X254197Y152525D01*
X254204Y152487D01*
X254211Y152453D01*
X254218Y152423D01*
X254221Y152396D01*
X254224Y152372D01*
Y152341D01*
X254218Y152253D01*
X254204Y152175D01*
X254184Y152107D01*
X254160Y152045D01*
X254136Y152001D01*
X254116Y151964D01*
X254105Y151954D01*
X254102Y151943D01*
X254095Y151940D01*
Y151937D01*
X254041Y151879D01*
X253980Y151831D01*
X253919Y151790D01*
X253857Y151756D01*
X253803Y151729D01*
X253783Y151719D01*
X253762Y151709D01*
X253745Y151702D01*
X253731Y151699D01*
X253725Y151695D01*
X253721D01*
X253674Y151682D01*
X253626Y151668D01*
X253521Y151648D01*
X253415Y151634D01*
X253313Y151624D01*
X253266Y151620D01*
X253222Y151617D01*
X253184D01*
X253150Y151614D01*
X253123D01*
X253102D01*
X253089D01*
X253085D01*
X252966Y151617D01*
X252916D01*
X252865Y151620D01*
X252817Y151624D01*
X252773Y151631D01*
X252735Y151634D01*
X252698Y151637D01*
X252667Y151644D01*
X252637Y151648D01*
X252613Y151651D01*
X252596Y151658D01*
X252579Y151661D01*
X252569D01*
X252562Y151665D01*
X252558D01*
X252487Y151685D01*
X252422Y151709D01*
X252365Y151733D01*
X252317Y151753D01*
X252280Y151773D01*
X252249Y151790D01*
X252232Y151801D01*
X252225Y151804D01*
X252178Y151838D01*
X252137Y151875D01*
X252099Y151913D01*
X252069Y151947D01*
X252048Y151981D01*
X252031Y152005D01*
X252021Y152022D01*
X252018Y152028D01*
X251994Y152079D01*
X251974Y152134D01*
X251960Y152188D01*
X251953Y152236D01*
X251946Y152277D01*
X251943Y152311D01*
Y152341D01*
X251950Y152430D01*
X251963Y152508D01*
X251984Y152579D01*
X252008Y152637D01*
X252035Y152685D01*
X252055Y152719D01*
X252062Y152732D01*
X252069Y152742D01*
X252076Y152746D01*
Y152749D01*
X252130Y152807D01*
X252188Y152855D01*
X252249Y152895D01*
X252310Y152929D01*
X252365Y152957D01*
X252389Y152967D01*
X252409Y152974D01*
X252426Y152980D01*
X252439Y152987D01*
X252446Y152991D01*
X252450D01*
X252497Y153004D01*
X252545Y153018D01*
X252650Y153035D01*
X252756Y153048D01*
X252858Y153059D01*
X252905Y153062D01*
X252950Y153065D01*
X252987D01*
X253021Y153069D01*
X253048D01*
X253068D01*
X253082D01*
X253085D01*
X253198Y153065D01*
D02*
G37*
G36*
X220839Y115343D02*
X220890Y115336D01*
X220938Y115329D01*
X220986Y115316D01*
X221067Y115282D01*
X221105Y115265D01*
X221139Y115244D01*
X221169Y115227D01*
X221196Y115210D01*
X221220Y115193D01*
X221241Y115176D01*
X221254Y115163D01*
X221264Y115156D01*
X221271Y115149D01*
X221275Y115146D01*
X221309Y115105D01*
X221339Y115064D01*
X221363Y115020D01*
X221387Y114976D01*
X221404Y114931D01*
X221421Y114887D01*
X221445Y114802D01*
X221451Y114761D01*
X221458Y114727D01*
X221462Y114693D01*
X221465Y114666D01*
X221468Y114643D01*
Y114612D01*
X221465Y114551D01*
X221462Y114493D01*
X221451Y114438D01*
X221438Y114391D01*
X221424Y114343D01*
X221407Y114299D01*
X221390Y114258D01*
X221370Y114221D01*
X221353Y114187D01*
X221336Y114160D01*
X221319Y114136D01*
X221305Y114116D01*
X221292Y114099D01*
X221281Y114088D01*
X221278Y114082D01*
X221275Y114078D01*
X221237Y114041D01*
X221200Y114010D01*
X221159Y113983D01*
X221118Y113959D01*
X221077Y113939D01*
X221037Y113925D01*
X220962Y113898D01*
X220894Y113884D01*
X220863Y113881D01*
X220839Y113877D01*
X220819Y113874D01*
X220805D01*
X220795D01*
X220792D01*
X220717Y113877D01*
X220649Y113891D01*
X220588Y113908D01*
X220537Y113928D01*
X220493Y113949D01*
X220462Y113966D01*
X220442Y113979D01*
X220435Y113983D01*
X220384Y114027D01*
X220336Y114078D01*
X220299Y114129D01*
X220268Y114180D01*
X220248Y114224D01*
X220231Y114262D01*
X220224Y114275D01*
X220221Y114286D01*
X220217Y114292D01*
Y114296D01*
X220193Y114238D01*
X220163Y114187D01*
X220136Y114143D01*
X220108Y114109D01*
X220081Y114082D01*
X220061Y114061D01*
X220047Y114051D01*
X220044Y114048D01*
X220000Y114020D01*
X219952Y114000D01*
X219908Y113986D01*
X219864Y113976D01*
X219826Y113969D01*
X219799Y113966D01*
X219779D01*
X219772D01*
X219728Y113969D01*
X219683Y113973D01*
X219605Y113993D01*
X219534Y114024D01*
X219473Y114054D01*
X219425Y114088D01*
X219405Y114105D01*
X219388Y114119D01*
X219374Y114129D01*
X219364Y114139D01*
X219360Y114143D01*
X219357Y114146D01*
X219326Y114180D01*
X219299Y114217D01*
X219279Y114255D01*
X219258Y114296D01*
X219228Y114374D01*
X219207Y114449D01*
X219197Y114517D01*
X219190Y114544D01*
Y114571D01*
X219187Y114592D01*
Y114619D01*
X219190Y114673D01*
X219194Y114721D01*
X219214Y114813D01*
X219238Y114894D01*
X219269Y114959D01*
X219286Y114989D01*
X219299Y115013D01*
X219316Y115033D01*
X219326Y115054D01*
X219337Y115068D01*
X219347Y115078D01*
X219350Y115081D01*
X219354Y115085D01*
X219384Y115115D01*
X219418Y115142D01*
X219452Y115166D01*
X219490Y115183D01*
X219558Y115217D01*
X219622Y115237D01*
X219680Y115248D01*
X219704Y115251D01*
X219724Y115254D01*
X219741Y115258D01*
X219755D01*
X219762D01*
X219765D01*
X219823Y115254D01*
X219874Y115244D01*
X219921Y115231D01*
X219962Y115217D01*
X219996Y115203D01*
X220020Y115190D01*
X220034Y115180D01*
X220040Y115176D01*
X220081Y115142D01*
X220115Y115102D01*
X220146Y115061D01*
X220173Y115016D01*
X220190Y114979D01*
X220207Y114948D01*
X220214Y114928D01*
X220217Y114925D01*
Y114921D01*
X220241Y114993D01*
X220272Y115057D01*
X220306Y115112D01*
X220340Y115156D01*
X220370Y115190D01*
X220397Y115217D01*
X220414Y115231D01*
X220418Y115237D01*
X220421D01*
X220479Y115275D01*
X220540Y115299D01*
X220601Y115319D01*
X220659Y115333D01*
X220707Y115340D01*
X220731Y115343D01*
X220748D01*
X220765Y115346D01*
X220775D01*
X220782D01*
X220785D01*
X220839Y115343D01*
D02*
G37*
G36*
X220442Y113605D02*
X220550Y113599D01*
X220646Y113589D01*
X220737Y113575D01*
X220819Y113558D01*
X220894Y113541D01*
X220962Y113521D01*
X221020Y113500D01*
X221074Y113480D01*
X221118Y113459D01*
X221156Y113442D01*
X221186Y113425D01*
X221210Y113412D01*
X221227Y113401D01*
X221237Y113395D01*
X221241Y113391D01*
X221281Y113354D01*
X221315Y113317D01*
X221346Y113276D01*
X221373Y113232D01*
X221394Y113191D01*
X221414Y113146D01*
X221441Y113065D01*
X221448Y113028D01*
X221455Y112994D01*
X221462Y112963D01*
X221465Y112936D01*
X221468Y112912D01*
Y112881D01*
X221462Y112793D01*
X221448Y112715D01*
X221428Y112647D01*
X221404Y112585D01*
X221380Y112541D01*
X221360Y112504D01*
X221349Y112494D01*
X221346Y112484D01*
X221339Y112480D01*
Y112477D01*
X221285Y112419D01*
X221224Y112371D01*
X221162Y112330D01*
X221101Y112296D01*
X221047Y112269D01*
X221026Y112259D01*
X221006Y112249D01*
X220989Y112242D01*
X220975Y112239D01*
X220969Y112235D01*
X220965D01*
X220918Y112222D01*
X220870Y112208D01*
X220765Y112188D01*
X220659Y112174D01*
X220557Y112164D01*
X220510Y112161D01*
X220465Y112157D01*
X220428D01*
X220394Y112154D01*
X220367D01*
X220346D01*
X220333D01*
X220329D01*
X220210Y112157D01*
X220159D01*
X220108Y112161D01*
X220061Y112164D01*
X220017Y112171D01*
X219979Y112174D01*
X219942Y112178D01*
X219911Y112184D01*
X219881Y112188D01*
X219857Y112191D01*
X219840Y112198D01*
X219823Y112201D01*
X219813D01*
X219806Y112205D01*
X219802D01*
X219731Y112225D01*
X219666Y112249D01*
X219609Y112273D01*
X219561Y112293D01*
X219524Y112313D01*
X219493Y112330D01*
X219476Y112341D01*
X219469Y112344D01*
X219422Y112378D01*
X219381Y112416D01*
X219343Y112453D01*
X219313Y112487D01*
X219292Y112521D01*
X219275Y112545D01*
X219265Y112562D01*
X219262Y112568D01*
X219238Y112619D01*
X219218Y112674D01*
X219204Y112728D01*
X219197Y112776D01*
X219190Y112817D01*
X219187Y112851D01*
Y112881D01*
X219194Y112970D01*
X219207Y113048D01*
X219228Y113119D01*
X219252Y113177D01*
X219279Y113225D01*
X219299Y113259D01*
X219306Y113272D01*
X219313Y113283D01*
X219320Y113286D01*
Y113289D01*
X219374Y113347D01*
X219432Y113395D01*
X219493Y113435D01*
X219554Y113470D01*
X219609Y113497D01*
X219632Y113507D01*
X219653Y113514D01*
X219670Y113521D01*
X219683Y113527D01*
X219690Y113531D01*
X219694D01*
X219741Y113544D01*
X219789Y113558D01*
X219894Y113575D01*
X220000Y113589D01*
X220102Y113599D01*
X220149Y113602D01*
X220193Y113605D01*
X220231D01*
X220265Y113609D01*
X220292D01*
X220312D01*
X220326D01*
X220329D01*
X220442Y113605D01*
D02*
G37*
G36*
X219531Y98599D02*
X219507Y98548D01*
X219487Y98500D01*
X219463Y98456D01*
X219443Y98418D01*
X219426Y98388D01*
X219412Y98368D01*
X219409Y98364D01*
Y98361D01*
X219375Y98303D01*
X219337Y98252D01*
X219307Y98208D01*
X219276Y98170D01*
X219252Y98140D01*
X219235Y98116D01*
X219222Y98102D01*
X219218Y98099D01*
X220966D01*
Y97824D01*
X218722D01*
Y98004D01*
X218776Y98034D01*
X218831Y98072D01*
X218882Y98112D01*
X218929Y98153D01*
X218967Y98191D01*
X218997Y98221D01*
X219018Y98242D01*
X219021Y98245D01*
X219024Y98248D01*
X219079Y98313D01*
X219130Y98381D01*
X219174Y98449D01*
X219212Y98510D01*
X219242Y98565D01*
X219252Y98589D01*
X219263Y98609D01*
X219273Y98623D01*
X219280Y98636D01*
X219283Y98643D01*
Y98646D01*
X219551D01*
X219531Y98599D01*
D02*
G37*
G36*
X219976Y97120D02*
X220085Y97113D01*
X220181Y97103D01*
X220272Y97089D01*
X220354Y97072D01*
X220429Y97055D01*
X220497Y97035D01*
X220554Y97014D01*
X220609Y96994D01*
X220653Y96974D01*
X220690Y96956D01*
X220721Y96939D01*
X220745Y96926D01*
X220762Y96916D01*
X220772Y96909D01*
X220776Y96905D01*
X220816Y96868D01*
X220850Y96831D01*
X220881Y96790D01*
X220908Y96746D01*
X220929Y96705D01*
X220949Y96661D01*
X220976Y96579D01*
X220983Y96542D01*
X220990Y96508D01*
X220996Y96477D01*
X221000Y96450D01*
X221003Y96426D01*
Y96395D01*
X220996Y96307D01*
X220983Y96229D01*
X220963Y96161D01*
X220939Y96100D01*
X220915Y96056D01*
X220895Y96018D01*
X220884Y96008D01*
X220881Y95998D01*
X220874Y95994D01*
Y95991D01*
X220820Y95933D01*
X220759Y95885D01*
X220697Y95845D01*
X220636Y95811D01*
X220582Y95784D01*
X220561Y95773D01*
X220541Y95763D01*
X220524Y95756D01*
X220510Y95753D01*
X220503Y95749D01*
X220500D01*
X220452Y95736D01*
X220405Y95722D01*
X220300Y95702D01*
X220194Y95688D01*
X220092Y95678D01*
X220044Y95675D01*
X220000Y95671D01*
X219963D01*
X219929Y95668D01*
X219902D01*
X219881D01*
X219868D01*
X219864D01*
X219745Y95671D01*
X219694D01*
X219643Y95675D01*
X219596Y95678D01*
X219551Y95685D01*
X219514Y95688D01*
X219477Y95692D01*
X219446Y95698D01*
X219415Y95702D01*
X219392Y95705D01*
X219375Y95712D01*
X219358Y95715D01*
X219348D01*
X219341Y95719D01*
X219337D01*
X219266Y95739D01*
X219201Y95763D01*
X219144Y95787D01*
X219096Y95807D01*
X219058Y95828D01*
X219028Y95845D01*
X219011Y95855D01*
X219004Y95858D01*
X218956Y95892D01*
X218916Y95930D01*
X218878Y95967D01*
X218848Y96001D01*
X218827Y96035D01*
X218810Y96059D01*
X218800Y96076D01*
X218797Y96083D01*
X218773Y96134D01*
X218753Y96188D01*
X218739Y96242D01*
X218732Y96290D01*
X218725Y96331D01*
X218722Y96365D01*
Y96395D01*
X218729Y96484D01*
X218742Y96562D01*
X218763Y96633D01*
X218787Y96691D01*
X218814Y96739D01*
X218834Y96773D01*
X218841Y96786D01*
X218848Y96797D01*
X218854Y96800D01*
Y96803D01*
X218909Y96861D01*
X218967Y96909D01*
X219028Y96950D01*
X219089Y96984D01*
X219144Y97011D01*
X219167Y97021D01*
X219188Y97028D01*
X219205Y97035D01*
X219218Y97041D01*
X219225Y97045D01*
X219229D01*
X219276Y97058D01*
X219324Y97072D01*
X219429Y97089D01*
X219534Y97103D01*
X219637Y97113D01*
X219684Y97116D01*
X219728Y97120D01*
X219766D01*
X219800Y97123D01*
X219827D01*
X219847D01*
X219861D01*
X219864D01*
X219976Y97120D01*
D02*
G37*
G36*
Y95386D02*
X220085Y95379D01*
X220181Y95369D01*
X220272Y95355D01*
X220354Y95338D01*
X220429Y95321D01*
X220497Y95301D01*
X220554Y95280D01*
X220609Y95260D01*
X220653Y95240D01*
X220690Y95223D01*
X220721Y95205D01*
X220745Y95192D01*
X220762Y95182D01*
X220772Y95175D01*
X220776Y95171D01*
X220816Y95134D01*
X220850Y95097D01*
X220881Y95056D01*
X220908Y95012D01*
X220929Y94971D01*
X220949Y94927D01*
X220976Y94845D01*
X220983Y94808D01*
X220990Y94774D01*
X220996Y94743D01*
X221000Y94716D01*
X221003Y94692D01*
Y94661D01*
X220996Y94573D01*
X220983Y94495D01*
X220963Y94427D01*
X220939Y94366D01*
X220915Y94322D01*
X220895Y94284D01*
X220884Y94274D01*
X220881Y94264D01*
X220874Y94260D01*
Y94257D01*
X220820Y94199D01*
X220759Y94152D01*
X220697Y94111D01*
X220636Y94077D01*
X220582Y94050D01*
X220561Y94039D01*
X220541Y94029D01*
X220524Y94022D01*
X220510Y94019D01*
X220503Y94016D01*
X220500D01*
X220452Y94002D01*
X220405Y93988D01*
X220300Y93968D01*
X220194Y93954D01*
X220092Y93944D01*
X220044Y93941D01*
X220000Y93937D01*
X219963D01*
X219929Y93934D01*
X219902D01*
X219881D01*
X219868D01*
X219864D01*
X219745Y93937D01*
X219694D01*
X219643Y93941D01*
X219596Y93944D01*
X219551Y93951D01*
X219514Y93954D01*
X219477Y93958D01*
X219446Y93964D01*
X219415Y93968D01*
X219392Y93971D01*
X219375Y93978D01*
X219358Y93981D01*
X219348D01*
X219341Y93985D01*
X219337D01*
X219266Y94005D01*
X219201Y94029D01*
X219144Y94053D01*
X219096Y94073D01*
X219058Y94094D01*
X219028Y94111D01*
X219011Y94121D01*
X219004Y94124D01*
X218956Y94158D01*
X218916Y94196D01*
X218878Y94233D01*
X218848Y94267D01*
X218827Y94301D01*
X218810Y94325D01*
X218800Y94342D01*
X218797Y94349D01*
X218773Y94400D01*
X218753Y94454D01*
X218739Y94508D01*
X218732Y94556D01*
X218725Y94597D01*
X218722Y94631D01*
Y94661D01*
X218729Y94750D01*
X218742Y94828D01*
X218763Y94899D01*
X218787Y94957D01*
X218814Y95005D01*
X218834Y95039D01*
X218841Y95052D01*
X218848Y95063D01*
X218854Y95066D01*
Y95069D01*
X218909Y95127D01*
X218967Y95175D01*
X219028Y95216D01*
X219089Y95250D01*
X219144Y95277D01*
X219167Y95287D01*
X219188Y95294D01*
X219205Y95301D01*
X219218Y95307D01*
X219225Y95311D01*
X219229D01*
X219276Y95324D01*
X219324Y95338D01*
X219429Y95355D01*
X219534Y95369D01*
X219637Y95379D01*
X219684Y95382D01*
X219728Y95386D01*
X219766D01*
X219800Y95389D01*
X219827D01*
X219847D01*
X219861D01*
X219864D01*
X219976Y95386D01*
D02*
G37*
G36*
X269247Y53989D02*
X269223Y53938D01*
X269203Y53890D01*
X269179Y53846D01*
X269158Y53809D01*
X269141Y53778D01*
X269128Y53758D01*
X269124Y53754D01*
Y53751D01*
X269091Y53693D01*
X269053Y53642D01*
X269022Y53598D01*
X268992Y53561D01*
X268968Y53530D01*
X268951Y53506D01*
X268937Y53492D01*
X268934Y53489D01*
X270682D01*
Y53214D01*
X268438D01*
Y53394D01*
X268492Y53425D01*
X268547Y53462D01*
X268597Y53503D01*
X268645Y53544D01*
X268683Y53581D01*
X268713Y53611D01*
X268733Y53632D01*
X268737Y53635D01*
X268740Y53639D01*
X268795Y53703D01*
X268846Y53771D01*
X268890Y53839D01*
X268927Y53900D01*
X268958Y53955D01*
X268968Y53979D01*
X268978Y53999D01*
X268988Y54013D01*
X268995Y54026D01*
X268999Y54033D01*
Y54036D01*
X269267D01*
X269247Y53989D01*
D02*
G37*
G36*
X270090Y52513D02*
X270141Y52507D01*
X270189Y52500D01*
X270236Y52486D01*
X270318Y52452D01*
X270355Y52435D01*
X270389Y52415D01*
X270420Y52398D01*
X270447Y52381D01*
X270471Y52364D01*
X270491Y52347D01*
X270505Y52333D01*
X270515Y52326D01*
X270522Y52320D01*
X270525Y52316D01*
X270559Y52275D01*
X270590Y52235D01*
X270614Y52190D01*
X270637Y52146D01*
X270654Y52102D01*
X270672Y52058D01*
X270695Y51973D01*
X270702Y51932D01*
X270709Y51898D01*
X270712Y51864D01*
X270716Y51837D01*
X270719Y51813D01*
Y51782D01*
X270716Y51721D01*
X270712Y51663D01*
X270702Y51609D01*
X270689Y51561D01*
X270675Y51514D01*
X270658Y51469D01*
X270641Y51429D01*
X270620Y51391D01*
X270603Y51357D01*
X270586Y51330D01*
X270569Y51306D01*
X270556Y51286D01*
X270542Y51269D01*
X270532Y51259D01*
X270529Y51252D01*
X270525Y51249D01*
X270488Y51211D01*
X270450Y51180D01*
X270410Y51153D01*
X270369Y51130D01*
X270328Y51109D01*
X270287Y51095D01*
X270212Y51068D01*
X270145Y51055D01*
X270114Y51051D01*
X270090Y51048D01*
X270070Y51044D01*
X270056D01*
X270046D01*
X270042D01*
X269968Y51048D01*
X269900Y51061D01*
X269839Y51078D01*
X269787Y51099D01*
X269743Y51119D01*
X269713Y51136D01*
X269692Y51150D01*
X269685Y51153D01*
X269635Y51197D01*
X269587Y51249D01*
X269549Y51300D01*
X269519Y51350D01*
X269498Y51395D01*
X269481Y51432D01*
X269475Y51446D01*
X269471Y51456D01*
X269468Y51463D01*
Y51466D01*
X269444Y51408D01*
X269413Y51357D01*
X269386Y51313D01*
X269359Y51279D01*
X269332Y51252D01*
X269311Y51231D01*
X269298Y51221D01*
X269295Y51218D01*
X269250Y51191D01*
X269203Y51170D01*
X269158Y51157D01*
X269114Y51147D01*
X269077Y51140D01*
X269050Y51136D01*
X269029D01*
X269022D01*
X268978Y51140D01*
X268934Y51143D01*
X268856Y51164D01*
X268784Y51194D01*
X268723Y51225D01*
X268676Y51259D01*
X268655Y51276D01*
X268638Y51289D01*
X268625Y51300D01*
X268614Y51310D01*
X268611Y51313D01*
X268608Y51316D01*
X268577Y51350D01*
X268550Y51388D01*
X268529Y51425D01*
X268509Y51466D01*
X268478Y51544D01*
X268458Y51619D01*
X268448Y51687D01*
X268441Y51714D01*
Y51741D01*
X268438Y51762D01*
Y51789D01*
X268441Y51844D01*
X268444Y51891D01*
X268465Y51983D01*
X268489Y52065D01*
X268519Y52129D01*
X268536Y52160D01*
X268550Y52184D01*
X268567Y52204D01*
X268577Y52224D01*
X268587Y52238D01*
X268597Y52248D01*
X268601Y52251D01*
X268604Y52255D01*
X268635Y52285D01*
X268669Y52313D01*
X268703Y52337D01*
X268740Y52354D01*
X268808Y52387D01*
X268873Y52408D01*
X268931Y52418D01*
X268954Y52421D01*
X268975Y52425D01*
X268992Y52428D01*
X269005D01*
X269012D01*
X269016D01*
X269074Y52425D01*
X269124Y52415D01*
X269172Y52401D01*
X269213Y52387D01*
X269247Y52374D01*
X269271Y52360D01*
X269284Y52350D01*
X269291Y52347D01*
X269332Y52313D01*
X269366Y52272D01*
X269396Y52231D01*
X269424Y52187D01*
X269441Y52149D01*
X269458Y52119D01*
X269464Y52099D01*
X269468Y52095D01*
Y52092D01*
X269492Y52163D01*
X269522Y52228D01*
X269556Y52282D01*
X269590Y52326D01*
X269621Y52360D01*
X269648Y52387D01*
X269665Y52401D01*
X269668Y52408D01*
X269672D01*
X269730Y52445D01*
X269791Y52469D01*
X269852Y52490D01*
X269910Y52503D01*
X269957Y52510D01*
X269981Y52513D01*
X269998D01*
X270015Y52517D01*
X270025D01*
X270032D01*
X270036D01*
X270090Y52513D01*
D02*
G37*
G36*
X269692Y50776D02*
X269801Y50769D01*
X269896Y50759D01*
X269988Y50745D01*
X270070Y50728D01*
X270145Y50711D01*
X270212Y50691D01*
X270270Y50670D01*
X270325Y50650D01*
X270369Y50630D01*
X270406Y50613D01*
X270437Y50596D01*
X270461Y50582D01*
X270478Y50572D01*
X270488Y50565D01*
X270491Y50562D01*
X270532Y50524D01*
X270566Y50487D01*
X270597Y50446D01*
X270624Y50402D01*
X270644Y50361D01*
X270665Y50317D01*
X270692Y50235D01*
X270699Y50198D01*
X270706Y50164D01*
X270712Y50133D01*
X270716Y50106D01*
X270719Y50082D01*
Y50052D01*
X270712Y49963D01*
X270699Y49885D01*
X270678Y49817D01*
X270654Y49756D01*
X270631Y49712D01*
X270610Y49674D01*
X270600Y49664D01*
X270597Y49654D01*
X270590Y49650D01*
Y49647D01*
X270535Y49589D01*
X270474Y49542D01*
X270413Y49501D01*
X270352Y49467D01*
X270297Y49440D01*
X270277Y49430D01*
X270257Y49419D01*
X270240Y49413D01*
X270226Y49409D01*
X270219Y49406D01*
X270216D01*
X270168Y49392D01*
X270121Y49378D01*
X270015Y49358D01*
X269910Y49345D01*
X269808Y49334D01*
X269760Y49331D01*
X269716Y49327D01*
X269679D01*
X269645Y49324D01*
X269618D01*
X269597D01*
X269583D01*
X269580D01*
X269461Y49327D01*
X269410D01*
X269359Y49331D01*
X269311Y49334D01*
X269267Y49341D01*
X269230Y49345D01*
X269193Y49348D01*
X269162Y49355D01*
X269131Y49358D01*
X269108Y49362D01*
X269091Y49368D01*
X269074Y49372D01*
X269063D01*
X269056Y49375D01*
X269053D01*
X268982Y49395D01*
X268917Y49419D01*
X268859Y49443D01*
X268812Y49463D01*
X268774Y49484D01*
X268744Y49501D01*
X268727Y49511D01*
X268720Y49514D01*
X268672Y49549D01*
X268631Y49586D01*
X268594Y49623D01*
X268564Y49657D01*
X268543Y49691D01*
X268526Y49715D01*
X268516Y49732D01*
X268512Y49739D01*
X268489Y49790D01*
X268468Y49844D01*
X268455Y49899D01*
X268448Y49946D01*
X268441Y49987D01*
X268438Y50021D01*
Y50052D01*
X268444Y50140D01*
X268458Y50218D01*
X268478Y50290D01*
X268502Y50348D01*
X268529Y50395D01*
X268550Y50429D01*
X268557Y50443D01*
X268564Y50453D01*
X268570Y50456D01*
Y50460D01*
X268625Y50517D01*
X268683Y50565D01*
X268744Y50606D01*
X268805Y50640D01*
X268859Y50667D01*
X268883Y50677D01*
X268903Y50684D01*
X268920Y50691D01*
X268934Y50698D01*
X268941Y50701D01*
X268944D01*
X268992Y50715D01*
X269039Y50728D01*
X269145Y50745D01*
X269250Y50759D01*
X269352Y50769D01*
X269400Y50773D01*
X269444Y50776D01*
X269481D01*
X269515Y50779D01*
X269543D01*
X269563D01*
X269577D01*
X269580D01*
X269692Y50776D01*
D02*
G37*
G36*
X261531Y55355D02*
X261507Y55301D01*
X261487Y55252D01*
X261463Y55206D01*
X261442Y55167D01*
X261425Y55135D01*
X261412Y55113D01*
X261408Y55110D01*
X261408Y55106D01*
X261374Y55046D01*
X261336Y54992D01*
X261305Y54946D01*
X261275Y54907D01*
X261250Y54874D01*
X261233Y54850D01*
X261219Y54835D01*
X261216Y54832D01*
X263025Y54863D01*
X263030Y54578D01*
X260707Y54538D01*
X260704Y54724D01*
X260760Y54757D01*
X260815Y54796D01*
X260867Y54840D01*
X260916Y54883D01*
X260954Y54922D01*
X260985Y54954D01*
X261006Y54976D01*
X261009Y54979D01*
X261013Y54983D01*
X261068Y55051D01*
X261119Y55122D01*
X261164Y55193D01*
X261202Y55257D01*
X261232Y55314D01*
X261242Y55339D01*
X261252Y55360D01*
X261263Y55375D01*
X261270Y55389D01*
X261273Y55396D01*
X261273Y55400D01*
X261551Y55404D01*
X261531Y55355D01*
D02*
G37*
G36*
X261050Y52667D02*
X261147Y52750D01*
X261247Y52825D01*
X261348Y52898D01*
X261442Y52963D01*
X261488Y52988D01*
X261526Y53013D01*
X261561Y53035D01*
X261592Y53053D01*
X261616Y53068D01*
X261634Y53079D01*
X261648Y53086D01*
X261651Y53090D01*
X261784Y53159D01*
X261916Y53221D01*
X262042Y53272D01*
X262102Y53295D01*
X262154Y53317D01*
X262207Y53335D01*
X262252Y53350D01*
X262291Y53365D01*
X262326Y53376D01*
X262354Y53383D01*
X262375Y53391D01*
X262389Y53395D01*
X262392Y53395D01*
X262532Y53432D01*
X262596Y53448D01*
X262659Y53459D01*
X262715Y53471D01*
X262768Y53479D01*
X262820Y53487D01*
X262866Y53495D01*
X262904Y53499D01*
X262943Y53503D01*
X262975Y53507D01*
X262999Y53507D01*
X263020Y53511D01*
X263035Y53512D01*
X263045Y53512D01*
X263049Y53512D01*
X263054Y53220D01*
X262927Y53207D01*
X262808Y53191D01*
X262702Y53171D01*
X262653Y53160D01*
X262608Y53152D01*
X262569Y53141D01*
X262531Y53133D01*
X262499Y53126D01*
X262471Y53118D01*
X262450Y53111D01*
X262436Y53107D01*
X262425Y53103D01*
X262422Y53103D01*
X262268Y53051D01*
X262125Y52996D01*
X262055Y52966D01*
X261988Y52937D01*
X261926Y52908D01*
X261870Y52882D01*
X261817Y52857D01*
X261768Y52831D01*
X261726Y52809D01*
X261692Y52791D01*
X261664Y52776D01*
X261643Y52766D01*
X261629Y52758D01*
X261625Y52755D01*
X261556Y52711D01*
X261486Y52671D01*
X261423Y52628D01*
X261364Y52588D01*
X261309Y52552D01*
X261260Y52512D01*
X261211Y52476D01*
X261170Y52444D01*
X261135Y52415D01*
X261100Y52386D01*
X261072Y52361D01*
X261048Y52343D01*
X261031Y52325D01*
X261017Y52315D01*
X261010Y52307D01*
X261007Y52304D01*
X260785Y52300D01*
X260759Y53796D01*
X261030Y53800D01*
X261050Y52667D01*
D02*
G37*
G36*
X262050Y52037D02*
X262163Y52032D01*
X262261Y52023D01*
X262357Y52011D01*
X262441Y51994D01*
X262519Y51978D01*
X262590Y51958D01*
X262650Y51938D01*
X262707Y51918D01*
X262753Y51898D01*
X262792Y51881D01*
X262824Y51864D01*
X262849Y51850D01*
X262866Y51840D01*
X262877Y51833D01*
X262881Y51829D01*
X262924Y51792D01*
X262960Y51753D01*
X262992Y51712D01*
X263021Y51666D01*
X263043Y51625D01*
X263065Y51579D01*
X263094Y51495D01*
X263102Y51457D01*
X263110Y51422D01*
X263117Y51390D01*
X263121Y51362D01*
X263125Y51337D01*
X263126Y51306D01*
X263120Y51214D01*
X263108Y51133D01*
X263088Y51062D01*
X263064Y50998D01*
X263040Y50952D01*
X263020Y50913D01*
X263010Y50902D01*
X263006Y50892D01*
X262999Y50888D01*
X262999Y50885D01*
X262944Y50824D01*
X262882Y50773D01*
X262819Y50730D01*
X262756Y50694D01*
X262700Y50665D01*
X262680Y50654D01*
X262659Y50643D01*
X262641Y50635D01*
X262627Y50632D01*
X262620Y50628D01*
X262617Y50628D01*
X262567Y50613D01*
X262519Y50598D01*
X262410Y50575D01*
X262301Y50559D01*
X262195Y50547D01*
X262146Y50542D01*
X262101Y50538D01*
X262062Y50537D01*
X262027Y50533D01*
X261999Y50533D01*
X261978Y50532D01*
X261963Y50532D01*
X261960Y50532D01*
X261837Y50533D01*
X261784Y50533D01*
X261731Y50535D01*
X261682Y50538D01*
X261636Y50544D01*
X261597Y50547D01*
X261558Y50550D01*
X261526Y50556D01*
X261495Y50559D01*
X261470Y50562D01*
X261452Y50569D01*
X261435Y50572D01*
X261424Y50572D01*
X261417Y50575D01*
X261414Y50575D01*
X261339Y50595D01*
X261272Y50619D01*
X261212Y50642D01*
X261162Y50662D01*
X261123Y50683D01*
X261091Y50700D01*
X261073Y50710D01*
X261066Y50713D01*
X261016Y50748D01*
X260973Y50786D01*
X260934Y50824D01*
X260902Y50858D01*
X260880Y50893D01*
X260862Y50918D01*
X260851Y50935D01*
X260847Y50942D01*
X260822Y50994D01*
X260800Y51050D01*
X260785Y51107D01*
X260777Y51156D01*
X260769Y51198D01*
X260765Y51233D01*
X260764Y51265D01*
X260770Y51356D01*
X260782Y51437D01*
X260802Y51512D01*
X260826Y51572D01*
X260853Y51622D01*
X260874Y51657D01*
X260880Y51671D01*
X260887Y51682D01*
X260894Y51686D01*
X260894Y51689D01*
X260949Y51750D01*
X261008Y51800D01*
X261071Y51844D01*
X261134Y51880D01*
X261190Y51909D01*
X261214Y51920D01*
X261235Y51928D01*
X261252Y51935D01*
X261266Y51942D01*
X261273Y51946D01*
X261277Y51946D01*
X261326Y51961D01*
X261375Y51976D01*
X261484Y51995D01*
X261593Y52011D01*
X261698Y52024D01*
X261747Y52028D01*
X261793Y52032D01*
X261832Y52033D01*
X261867Y52037D01*
X261895Y52038D01*
X261916Y52038D01*
X261930Y52038D01*
X261934Y52038D01*
X262050Y52037D01*
D02*
G37*
G36*
X252751Y57476D02*
X252727Y57425D01*
X252707Y57377D01*
X252683Y57333D01*
X252663Y57296D01*
X252646Y57265D01*
X252632Y57245D01*
X252629Y57241D01*
Y57238D01*
X252595Y57180D01*
X252557Y57129D01*
X252527Y57085D01*
X252496Y57048D01*
X252472Y57017D01*
X252455Y56993D01*
X252442Y56980D01*
X252438Y56976D01*
X254186D01*
Y56701D01*
X251942D01*
Y56881D01*
X251996Y56912D01*
X252051Y56949D01*
X252102Y56990D01*
X252149Y57031D01*
X252187Y57068D01*
X252217Y57099D01*
X252238Y57119D01*
X252241Y57122D01*
X252244Y57126D01*
X252299Y57191D01*
X252350Y57258D01*
X252394Y57327D01*
X252432Y57388D01*
X252462Y57442D01*
X252472Y57466D01*
X252483Y57486D01*
X252493Y57500D01*
X252500Y57513D01*
X252503Y57520D01*
Y57524D01*
X252771D01*
X252751Y57476D01*
D02*
G37*
G36*
X253247Y56011D02*
X253343Y56004D01*
X253434Y55994D01*
X253516Y55980D01*
X253591Y55963D01*
X253659Y55946D01*
X253720Y55926D01*
X253774Y55905D01*
X253822Y55888D01*
X253863Y55868D01*
X253897Y55851D01*
X253924Y55834D01*
X253944Y55820D01*
X253958Y55810D01*
X253968Y55803D01*
X253972Y55800D01*
X254016Y55759D01*
X254053Y55715D01*
X254087Y55667D01*
X254118Y55620D01*
X254142Y55572D01*
X254162Y55528D01*
X254179Y55480D01*
X254193Y55436D01*
X254203Y55395D01*
X254210Y55358D01*
X254217Y55324D01*
X254220Y55297D01*
Y55273D01*
X254223Y55252D01*
Y55239D01*
X254220Y55168D01*
X254210Y55099D01*
X254193Y55038D01*
X254176Y54984D01*
X254159Y54943D01*
X254142Y54909D01*
X254132Y54889D01*
X254128Y54882D01*
X254087Y54824D01*
X254043Y54777D01*
X253999Y54732D01*
X253955Y54695D01*
X253914Y54668D01*
X253883Y54647D01*
X253870Y54641D01*
X253859Y54634D01*
X253856Y54630D01*
X253853D01*
X253785Y54600D01*
X253717Y54576D01*
X253649Y54562D01*
X253591Y54549D01*
X253537Y54542D01*
X253516D01*
X253496Y54539D01*
X253482D01*
X253472D01*
X253465D01*
X253462D01*
X253404Y54542D01*
X253346Y54545D01*
X253295Y54555D01*
X253244Y54569D01*
X253200Y54583D01*
X253156Y54600D01*
X253118Y54617D01*
X253081Y54634D01*
X253050Y54654D01*
X253023Y54671D01*
X252999Y54688D01*
X252979Y54702D01*
X252962Y54715D01*
X252952Y54725D01*
X252945Y54729D01*
X252941Y54732D01*
X252904Y54770D01*
X252873Y54807D01*
X252846Y54848D01*
X252822Y54889D01*
X252802Y54926D01*
X252788Y54967D01*
X252761Y55038D01*
X252748Y55103D01*
X252744Y55130D01*
X252741Y55154D01*
X252737Y55174D01*
Y55202D01*
X252741Y55259D01*
X252748Y55314D01*
X252761Y55365D01*
X252775Y55409D01*
X252788Y55446D01*
X252802Y55477D01*
X252809Y55494D01*
X252812Y55501D01*
X252843Y55552D01*
X252877Y55599D01*
X252914Y55640D01*
X252952Y55674D01*
X252986Y55705D01*
X253013Y55725D01*
X253030Y55739D01*
X253033Y55742D01*
X252976D01*
X252918Y55739D01*
X252863Y55735D01*
X252812Y55732D01*
X252768Y55725D01*
X252724Y55718D01*
X252687Y55712D01*
X252653Y55705D01*
X252622Y55698D01*
X252595Y55691D01*
X252571Y55684D01*
X252554Y55677D01*
X252540Y55674D01*
X252527Y55671D01*
X252523Y55667D01*
X252520D01*
X252455Y55637D01*
X252397Y55603D01*
X252350Y55569D01*
X252312Y55535D01*
X252282Y55507D01*
X252258Y55484D01*
X252244Y55470D01*
X252241Y55463D01*
X252217Y55423D01*
X252197Y55385D01*
X252183Y55344D01*
X252176Y55307D01*
X252170Y55276D01*
X252166Y55252D01*
Y55229D01*
X252170Y55171D01*
X252183Y55116D01*
X252204Y55069D01*
X252224Y55028D01*
X252248Y54997D01*
X252265Y54974D01*
X252278Y54957D01*
X252285Y54953D01*
X252316Y54930D01*
X252350Y54909D01*
X252428Y54875D01*
X252462Y54865D01*
X252489Y54855D01*
X252510Y54848D01*
X252513D01*
X252517D01*
X252496Y54576D01*
X252404Y54593D01*
X252323Y54624D01*
X252255Y54654D01*
X252197Y54691D01*
X252153Y54725D01*
X252119Y54753D01*
X252098Y54773D01*
X252092Y54777D01*
Y54780D01*
X252064Y54814D01*
X252041Y54848D01*
X252007Y54919D01*
X251979Y54991D01*
X251959Y55059D01*
X251949Y55120D01*
X251945Y55147D01*
Y55168D01*
X251942Y55188D01*
Y55212D01*
X251945Y55276D01*
X251952Y55338D01*
X251966Y55395D01*
X251983Y55450D01*
X252003Y55501D01*
X252024Y55545D01*
X252047Y55589D01*
X252071Y55626D01*
X252095Y55660D01*
X252119Y55691D01*
X252139Y55715D01*
X252160Y55739D01*
X252176Y55756D01*
X252190Y55766D01*
X252197Y55773D01*
X252200Y55776D01*
X252258Y55817D01*
X252326Y55854D01*
X252394Y55885D01*
X252472Y55912D01*
X252547Y55936D01*
X252625Y55956D01*
X252703Y55973D01*
X252782Y55984D01*
X252853Y55994D01*
X252921Y56001D01*
X252982Y56007D01*
X253037Y56011D01*
X253081Y56014D01*
X253115D01*
X253125D01*
X253135D01*
X253139D01*
X253142D01*
X253247Y56011D01*
D02*
G37*
G36*
X253197Y54263D02*
X253305Y54256D01*
X253400Y54246D01*
X253492Y54233D01*
X253574Y54216D01*
X253649Y54198D01*
X253717Y54178D01*
X253774Y54158D01*
X253829Y54137D01*
X253873Y54117D01*
X253910Y54100D01*
X253941Y54083D01*
X253965Y54069D01*
X253982Y54059D01*
X253992Y54052D01*
X253995Y54049D01*
X254036Y54011D01*
X254070Y53974D01*
X254101Y53933D01*
X254128Y53889D01*
X254149Y53848D01*
X254169Y53804D01*
X254196Y53723D01*
X254203Y53685D01*
X254210Y53651D01*
X254217Y53620D01*
X254220Y53593D01*
X254223Y53570D01*
Y53539D01*
X254217Y53451D01*
X254203Y53372D01*
X254183Y53304D01*
X254159Y53243D01*
X254135Y53199D01*
X254115Y53162D01*
X254104Y53151D01*
X254101Y53141D01*
X254094Y53138D01*
Y53134D01*
X254040Y53076D01*
X253978Y53029D01*
X253917Y52988D01*
X253856Y52954D01*
X253802Y52927D01*
X253781Y52917D01*
X253761Y52907D01*
X253744Y52900D01*
X253730Y52896D01*
X253724Y52893D01*
X253720D01*
X253673Y52879D01*
X253625Y52866D01*
X253520Y52845D01*
X253414Y52832D01*
X253312Y52821D01*
X253264Y52818D01*
X253220Y52815D01*
X253183D01*
X253149Y52811D01*
X253122D01*
X253101D01*
X253088D01*
X253084D01*
X252965Y52815D01*
X252914D01*
X252863Y52818D01*
X252816Y52821D01*
X252771Y52828D01*
X252734Y52832D01*
X252697Y52835D01*
X252666Y52842D01*
X252636Y52845D01*
X252612Y52849D01*
X252595Y52855D01*
X252578Y52859D01*
X252568D01*
X252561Y52862D01*
X252557D01*
X252486Y52883D01*
X252421Y52907D01*
X252363Y52930D01*
X252316Y52951D01*
X252278Y52971D01*
X252248Y52988D01*
X252231Y52998D01*
X252224Y53002D01*
X252176Y53036D01*
X252136Y53073D01*
X252098Y53110D01*
X252068Y53145D01*
X252047Y53179D01*
X252030Y53202D01*
X252020Y53219D01*
X252017Y53226D01*
X251993Y53277D01*
X251973Y53332D01*
X251959Y53386D01*
X251952Y53434D01*
X251945Y53474D01*
X251942Y53508D01*
Y53539D01*
X251949Y53627D01*
X251962Y53706D01*
X251983Y53777D01*
X252007Y53835D01*
X252034Y53882D01*
X252054Y53916D01*
X252061Y53930D01*
X252068Y53940D01*
X252075Y53944D01*
Y53947D01*
X252129Y54005D01*
X252187Y54052D01*
X252248Y54093D01*
X252309Y54127D01*
X252363Y54154D01*
X252387Y54164D01*
X252408Y54171D01*
X252425Y54178D01*
X252438Y54185D01*
X252445Y54188D01*
X252449D01*
X252496Y54202D01*
X252544Y54216D01*
X252649Y54233D01*
X252754Y54246D01*
X252856Y54256D01*
X252904Y54260D01*
X252948Y54263D01*
X252986D01*
X253020Y54267D01*
X253047D01*
X253067D01*
X253081D01*
X253084D01*
X253197Y54263D01*
D02*
G37*
G36*
X219071Y105863D02*
X219129Y105860D01*
X219180Y105850D01*
X219231Y105836D01*
X219278Y105823D01*
X219322Y105806D01*
X219363Y105789D01*
X219397Y105772D01*
X219431Y105754D01*
X219458Y105738D01*
X219482Y105721D01*
X219503Y105707D01*
X219520Y105693D01*
X219530Y105683D01*
X219537Y105680D01*
X219540Y105676D01*
X219574Y105639D01*
X219605Y105602D01*
X219632Y105561D01*
X219656Y105523D01*
X219676Y105482D01*
X219693Y105445D01*
X219717Y105370D01*
X219730Y105306D01*
X219734Y105279D01*
X219737Y105255D01*
X219741Y105234D01*
Y105207D01*
X219737Y105146D01*
X219727Y105088D01*
X219717Y105037D01*
X219700Y104993D01*
X219686Y104955D01*
X219676Y104925D01*
X219666Y104908D01*
X219662Y104901D01*
X219628Y104850D01*
X219594Y104806D01*
X219557Y104765D01*
X219523Y104735D01*
X219496Y104707D01*
X219469Y104690D01*
X219455Y104677D01*
X219448Y104673D01*
X219472D01*
X219489D01*
X219499D01*
X219503D01*
X219567D01*
X219628Y104680D01*
X219683Y104687D01*
X219734Y104694D01*
X219778Y104701D01*
X219812Y104707D01*
X219822Y104711D01*
X219832D01*
X219836Y104714D01*
X219839D01*
X219897Y104731D01*
X219948Y104748D01*
X219992Y104765D01*
X220030Y104779D01*
X220060Y104796D01*
X220084Y104806D01*
X220098Y104813D01*
X220101Y104816D01*
X220135Y104840D01*
X220166Y104867D01*
X220193Y104891D01*
X220213Y104918D01*
X220230Y104939D01*
X220244Y104955D01*
X220251Y104969D01*
X220254Y104973D01*
X220274Y105010D01*
X220288Y105047D01*
X220298Y105085D01*
X220305Y105119D01*
X220308Y105149D01*
X220312Y105173D01*
Y105194D01*
X220308Y105248D01*
X220298Y105296D01*
X220285Y105336D01*
X220271Y105370D01*
X220257Y105401D01*
X220244Y105421D01*
X220234Y105435D01*
X220230Y105438D01*
X220196Y105472D01*
X220152Y105499D01*
X220108Y105520D01*
X220064Y105537D01*
X220026Y105551D01*
X219992Y105557D01*
X219979Y105561D01*
X219968Y105564D01*
X219965D01*
X219962D01*
X219982Y105826D01*
X220077Y105809D01*
X220159Y105782D01*
X220230Y105751D01*
X220288Y105717D01*
X220332Y105683D01*
X220366Y105656D01*
X220387Y105635D01*
X220390Y105632D01*
X220393Y105629D01*
X220441Y105561D01*
X220475Y105493D01*
X220502Y105421D01*
X220519Y105353D01*
X220529Y105292D01*
X220533Y105265D01*
Y105245D01*
X220536Y105224D01*
Y105200D01*
X220529Y105112D01*
X220516Y105027D01*
X220495Y104955D01*
X220472Y104891D01*
X220448Y104840D01*
X220438Y104820D01*
X220427Y104803D01*
X220417Y104786D01*
X220414Y104775D01*
X220407Y104772D01*
Y104769D01*
X220353Y104704D01*
X220291Y104649D01*
X220227Y104602D01*
X220162Y104561D01*
X220108Y104531D01*
X220084Y104520D01*
X220060Y104510D01*
X220043Y104503D01*
X220030Y104497D01*
X220023Y104493D01*
X220019D01*
X219968Y104476D01*
X219917Y104463D01*
X219805Y104439D01*
X219690Y104422D01*
X219581Y104408D01*
X219530Y104405D01*
X219486Y104401D01*
X219441D01*
X219407Y104398D01*
X219377D01*
X219356D01*
X219339D01*
X219336D01*
X219261D01*
X219190Y104401D01*
X219125Y104408D01*
X219064Y104412D01*
X219010Y104418D01*
X218959Y104429D01*
X218911Y104435D01*
X218870Y104446D01*
X218833Y104456D01*
X218799Y104463D01*
X218772Y104469D01*
X218751Y104480D01*
X218734Y104483D01*
X218721Y104490D01*
X218714Y104493D01*
X218710D01*
X218632Y104531D01*
X218564Y104575D01*
X218510Y104622D01*
X218459Y104667D01*
X218421Y104707D01*
X218394Y104738D01*
X218387Y104752D01*
X218381Y104762D01*
X218374Y104765D01*
Y104769D01*
X218333Y104837D01*
X218306Y104908D01*
X218285Y104973D01*
X218268Y105034D01*
X218262Y105088D01*
X218258Y105112D01*
Y105129D01*
X218255Y105146D01*
Y105166D01*
X218258Y105221D01*
X218265Y105275D01*
X218275Y105326D01*
X218285Y105374D01*
X218319Y105459D01*
X218340Y105496D01*
X218357Y105530D01*
X218377Y105564D01*
X218398Y105591D01*
X218415Y105615D01*
X218428Y105632D01*
X218442Y105649D01*
X218452Y105659D01*
X218459Y105666D01*
X218462Y105670D01*
X218503Y105703D01*
X218544Y105734D01*
X218588Y105761D01*
X218636Y105782D01*
X218680Y105802D01*
X218727Y105819D01*
X218812Y105843D01*
X218853Y105850D01*
X218891Y105857D01*
X218925Y105860D01*
X218952Y105863D01*
X218976Y105867D01*
X218996D01*
X219006D01*
X219010D01*
X219071Y105863D01*
D02*
G37*
G36*
X219509Y104129D02*
X219618Y104123D01*
X219713Y104112D01*
X219805Y104099D01*
X219887Y104082D01*
X219962Y104065D01*
X220030Y104044D01*
X220087Y104024D01*
X220142Y104004D01*
X220186Y103983D01*
X220223Y103966D01*
X220254Y103949D01*
X220278Y103936D01*
X220295Y103925D01*
X220305Y103919D01*
X220308Y103915D01*
X220349Y103878D01*
X220383Y103840D01*
X220414Y103799D01*
X220441Y103755D01*
X220461Y103715D01*
X220482Y103670D01*
X220509Y103589D01*
X220516Y103551D01*
X220523Y103517D01*
X220529Y103487D01*
X220533Y103460D01*
X220536Y103436D01*
Y103405D01*
X220529Y103317D01*
X220516Y103239D01*
X220495Y103171D01*
X220472Y103109D01*
X220448Y103065D01*
X220427Y103028D01*
X220417Y103018D01*
X220414Y103007D01*
X220407Y103004D01*
Y103000D01*
X220353Y102943D01*
X220291Y102895D01*
X220230Y102854D01*
X220169Y102820D01*
X220115Y102793D01*
X220094Y102783D01*
X220074Y102773D01*
X220057Y102766D01*
X220043Y102763D01*
X220036Y102759D01*
X220033D01*
X219985Y102746D01*
X219938Y102732D01*
X219832Y102712D01*
X219727Y102698D01*
X219625Y102688D01*
X219577Y102684D01*
X219533Y102681D01*
X219496D01*
X219462Y102678D01*
X219435D01*
X219414D01*
X219401D01*
X219397D01*
X219278Y102681D01*
X219227D01*
X219176Y102684D01*
X219129Y102688D01*
X219084Y102695D01*
X219047Y102698D01*
X219010Y102701D01*
X218979Y102708D01*
X218948Y102712D01*
X218925Y102715D01*
X218908Y102722D01*
X218891Y102725D01*
X218880D01*
X218874Y102728D01*
X218870D01*
X218799Y102749D01*
X218734Y102773D01*
X218676Y102797D01*
X218629Y102817D01*
X218591Y102837D01*
X218561Y102854D01*
X218544Y102865D01*
X218537Y102868D01*
X218489Y102902D01*
X218449Y102939D01*
X218411Y102977D01*
X218381Y103011D01*
X218360Y103045D01*
X218343Y103069D01*
X218333Y103085D01*
X218330Y103092D01*
X218306Y103143D01*
X218285Y103198D01*
X218272Y103252D01*
X218265Y103300D01*
X218258Y103341D01*
X218255Y103375D01*
Y103405D01*
X218262Y103494D01*
X218275Y103572D01*
X218296Y103643D01*
X218319Y103701D01*
X218347Y103749D01*
X218367Y103782D01*
X218374Y103796D01*
X218381Y103806D01*
X218387Y103810D01*
Y103813D01*
X218442Y103871D01*
X218500Y103919D01*
X218561Y103959D01*
X218622Y103993D01*
X218676Y104021D01*
X218700Y104031D01*
X218721Y104038D01*
X218738Y104044D01*
X218751Y104051D01*
X218758Y104054D01*
X218761D01*
X218809Y104068D01*
X218857Y104082D01*
X218962Y104099D01*
X219067Y104112D01*
X219169Y104123D01*
X219217Y104126D01*
X219261Y104129D01*
X219299D01*
X219333Y104133D01*
X219360D01*
X219380D01*
X219394D01*
X219397D01*
X219509Y104129D01*
D02*
G37*
G36*
X233190Y69942D02*
X233166Y69889D01*
X233145Y69840D01*
X233122Y69793D01*
X233101Y69754D01*
X233084Y69722D01*
X233070Y69701D01*
X233067Y69697D01*
X233067Y69694D01*
X233033Y69634D01*
X232995Y69580D01*
X232964Y69534D01*
X232933Y69494D01*
X232909Y69462D01*
X232892Y69437D01*
X232878Y69423D01*
X232875Y69419D01*
X234684Y69451D01*
X234689Y69166D01*
X232366Y69125D01*
X232363Y69312D01*
X232418Y69345D01*
X232474Y69384D01*
X232526Y69428D01*
X232575Y69471D01*
X232613Y69510D01*
X232644Y69542D01*
X232664Y69564D01*
X232668Y69567D01*
X232671Y69571D01*
X232727Y69639D01*
X232778Y69710D01*
X232823Y69781D01*
X232860Y69845D01*
X232891Y69902D01*
X232901Y69927D01*
X232911Y69948D01*
X232922Y69963D01*
X232928Y69977D01*
X232932Y69984D01*
X232932Y69987D01*
X233210Y69992D01*
X233190Y69942D01*
D02*
G37*
G36*
X234142Y68421D02*
X234191Y68411D01*
X234283Y68381D01*
X234365Y68347D01*
X234436Y68306D01*
X234465Y68289D01*
X234490Y68268D01*
X234511Y68251D01*
X234532Y68237D01*
X234547Y68224D01*
X234558Y68213D01*
X234561Y68210D01*
X234565Y68206D01*
X234597Y68168D01*
X234626Y68126D01*
X234651Y68088D01*
X234669Y68046D01*
X234706Y67962D01*
X234729Y67882D01*
X234736Y67847D01*
X234740Y67812D01*
X234745Y67783D01*
X234749Y67755D01*
X234752Y67734D01*
X234753Y67706D01*
X234751Y67646D01*
X234745Y67586D01*
X234738Y67530D01*
X234725Y67477D01*
X234708Y67427D01*
X234692Y67381D01*
X234675Y67339D01*
X234654Y67299D01*
X234637Y67268D01*
X234620Y67236D01*
X234603Y67207D01*
X234586Y67186D01*
X234572Y67168D01*
X234565Y67157D01*
X234558Y67150D01*
X234555Y67146D01*
X234513Y67107D01*
X234472Y67071D01*
X234430Y67042D01*
X234388Y67017D01*
X234347Y66991D01*
X234301Y66973D01*
X234221Y66947D01*
X234186Y66936D01*
X234150Y66928D01*
X234122Y66924D01*
X234094Y66920D01*
X234073Y66916D01*
X234059Y66916D01*
X234049Y66916D01*
X234045Y66916D01*
X233964Y66918D01*
X233890Y66931D01*
X233826Y66947D01*
X233773Y66967D01*
X233730Y66991D01*
X233698Y67008D01*
X233677Y67022D01*
X233670Y67025D01*
X233616Y67070D01*
X233573Y67122D01*
X233537Y67174D01*
X233512Y67223D01*
X233490Y67269D01*
X233478Y67304D01*
X233471Y67318D01*
X233471Y67328D01*
X233467Y67335D01*
X233467Y67339D01*
X233440Y67282D01*
X233406Y67232D01*
X233375Y67193D01*
X233344Y67157D01*
X233316Y67132D01*
X233295Y67110D01*
X233281Y67099D01*
X233274Y67096D01*
X233229Y67067D01*
X233180Y67049D01*
X233135Y67034D01*
X233093Y67022D01*
X233057Y67015D01*
X233029Y67011D01*
X233012Y67010D01*
X233005Y67010D01*
X232945Y67013D01*
X232892Y67022D01*
X232842Y67036D01*
X232796Y67049D01*
X232761Y67062D01*
X232733Y67076D01*
X232715Y67086D01*
X232708Y67089D01*
X232658Y67124D01*
X232611Y67162D01*
X232572Y67203D01*
X232540Y67242D01*
X232514Y67276D01*
X232496Y67304D01*
X232485Y67325D01*
X232482Y67329D01*
X232482Y67332D01*
X232453Y67391D01*
X232430Y67451D01*
X232415Y67510D01*
X232404Y67563D01*
X232396Y67609D01*
X232392Y67644D01*
X232390Y67725D01*
X232397Y67774D01*
X232413Y67862D01*
X232436Y67944D01*
X232463Y68011D01*
X232493Y68064D01*
X232507Y68086D01*
X232518Y68104D01*
X232528Y68121D01*
X232535Y68132D01*
X232538Y68136D01*
X232541Y68139D01*
X232604Y68204D01*
X232673Y68254D01*
X232747Y68298D01*
X232816Y68327D01*
X232879Y68353D01*
X232907Y68360D01*
X232932Y68368D01*
X232949Y68372D01*
X232963Y68375D01*
X232974Y68379D01*
X232977Y68379D01*
X233032Y68095D01*
X232958Y68080D01*
X232895Y68057D01*
X232843Y68035D01*
X232801Y68010D01*
X232766Y67988D01*
X232742Y67970D01*
X232728Y67956D01*
X232724Y67952D01*
X232690Y67906D01*
X232666Y67860D01*
X232646Y67814D01*
X232636Y67768D01*
X232630Y67732D01*
X232623Y67701D01*
X232624Y67672D01*
X232628Y67613D01*
X232643Y67560D01*
X232658Y67515D01*
X232680Y67476D01*
X232698Y67445D01*
X232716Y67421D01*
X232730Y67407D01*
X232734Y67403D01*
X232773Y67369D01*
X232819Y67345D01*
X232862Y67325D01*
X232901Y67315D01*
X232940Y67308D01*
X232968Y67302D01*
X232986Y67302D01*
X232989Y67302D01*
X232993Y67302D01*
X233063Y67311D01*
X233122Y67329D01*
X233171Y67351D01*
X233210Y67380D01*
X233241Y67409D01*
X233265Y67430D01*
X233279Y67448D01*
X233282Y67455D01*
X233313Y67512D01*
X233333Y67569D01*
X233350Y67622D01*
X233359Y67671D01*
X233366Y67717D01*
X233369Y67749D01*
X233368Y67795D01*
X233364Y67809D01*
X233364Y67826D01*
X233613Y67862D01*
X233603Y67820D01*
X233597Y67781D01*
X233594Y67746D01*
X233591Y67717D01*
X233588Y67693D01*
X233588Y67661D01*
X233597Y67591D01*
X233612Y67531D01*
X233630Y67475D01*
X233656Y67430D01*
X233681Y67392D01*
X233699Y67364D01*
X233714Y67350D01*
X233721Y67343D01*
X233771Y67302D01*
X233824Y67271D01*
X233881Y67247D01*
X233930Y67234D01*
X233976Y67224D01*
X234012Y67221D01*
X234026Y67218D01*
X234036Y67218D01*
X234040Y67218D01*
X234043Y67218D01*
X234117Y67227D01*
X234184Y67242D01*
X234243Y67264D01*
X234292Y67290D01*
X234334Y67319D01*
X234362Y67340D01*
X234379Y67355D01*
X234386Y67362D01*
X234431Y67415D01*
X234465Y67472D01*
X234485Y67529D01*
X234502Y67585D01*
X234511Y67632D01*
X234514Y67667D01*
X234518Y67681D01*
X234517Y67702D01*
X234513Y67762D01*
X234497Y67818D01*
X234479Y67867D01*
X234461Y67905D01*
X234439Y67940D01*
X234424Y67964D01*
X234410Y67978D01*
X234407Y67985D01*
X234360Y68023D01*
X234307Y68057D01*
X234246Y68085D01*
X234190Y68105D01*
X234137Y68121D01*
X234094Y68131D01*
X234080Y68138D01*
X234066Y68138D01*
X234059Y68141D01*
X234055Y68141D01*
X234089Y68427D01*
X234142Y68421D01*
D02*
G37*
G36*
X234180Y66629D02*
X234233Y66620D01*
X234325Y66593D01*
X234407Y66556D01*
X234474Y66518D01*
X234503Y66498D01*
X234528Y66480D01*
X234549Y66463D01*
X234567Y66449D01*
X234581Y66436D01*
X234592Y66425D01*
X234596Y66422D01*
X234599Y66418D01*
X234632Y66380D01*
X234657Y66338D01*
X234682Y66297D01*
X234704Y66255D01*
X234737Y66171D01*
X234760Y66090D01*
X234768Y66052D01*
X234772Y66017D01*
X234776Y65985D01*
X234780Y65960D01*
X234784Y65939D01*
X234784Y65908D01*
X234782Y65837D01*
X234776Y65770D01*
X234763Y65710D01*
X234747Y65650D01*
X234726Y65597D01*
X234703Y65544D01*
X234679Y65497D01*
X234651Y65458D01*
X234627Y65419D01*
X234603Y65387D01*
X234579Y65358D01*
X234558Y65337D01*
X234541Y65319D01*
X234527Y65305D01*
X234520Y65298D01*
X234517Y65294D01*
X234475Y65262D01*
X234430Y65233D01*
X234385Y65207D01*
X234336Y65185D01*
X234248Y65152D01*
X234164Y65126D01*
X234126Y65118D01*
X234090Y65114D01*
X234059Y65110D01*
X234031Y65106D01*
X234010Y65102D01*
X233992Y65102D01*
X233982Y65101D01*
X233978Y65101D01*
X233918Y65104D01*
X233858Y65110D01*
X233805Y65120D01*
X233752Y65129D01*
X233706Y65146D01*
X233660Y65163D01*
X233621Y65180D01*
X233582Y65200D01*
X233550Y65221D01*
X233522Y65238D01*
X233497Y65255D01*
X233475Y65272D01*
X233457Y65282D01*
X233447Y65293D01*
X233439Y65300D01*
X233436Y65303D01*
X233397Y65341D01*
X233364Y65383D01*
X233335Y65425D01*
X233310Y65470D01*
X233288Y65512D01*
X233273Y65554D01*
X233244Y65634D01*
X233236Y65669D01*
X233228Y65705D01*
X233224Y65733D01*
X233220Y65761D01*
X233216Y65782D01*
X233216Y65810D01*
X233221Y65894D01*
X233238Y65976D01*
X233257Y66050D01*
X233284Y66114D01*
X233312Y66171D01*
X233322Y66192D01*
X233332Y66213D01*
X233342Y66228D01*
X233349Y66238D01*
X233353Y66245D01*
X233356Y66249D01*
X232735Y66111D01*
X232751Y65189D01*
X232480Y65184D01*
X232460Y66332D01*
X233643Y66578D01*
X233686Y66311D01*
X233651Y66286D01*
X233620Y66257D01*
X233592Y66228D01*
X233568Y66203D01*
X233551Y66178D01*
X233537Y66157D01*
X233530Y66143D01*
X233527Y66139D01*
X233507Y66097D01*
X233490Y66054D01*
X233480Y66012D01*
X233470Y65973D01*
X233467Y65938D01*
X233464Y65913D01*
X233465Y65888D01*
X233473Y65811D01*
X233488Y65741D01*
X233514Y65678D01*
X233539Y65629D01*
X233565Y65587D01*
X233590Y65559D01*
X233604Y65542D01*
X233611Y65535D01*
X233669Y65490D01*
X233733Y65456D01*
X233796Y65433D01*
X233856Y65420D01*
X233913Y65410D01*
X233938Y65407D01*
X233959Y65407D01*
X233973Y65404D01*
X233987Y65404D01*
X233994Y65404D01*
X233998Y65405D01*
X234089Y65413D01*
X234170Y65429D01*
X234240Y65455D01*
X234299Y65480D01*
X234344Y65506D01*
X234379Y65531D01*
X234400Y65545D01*
X234403Y65553D01*
X234407Y65553D01*
X234434Y65581D01*
X234455Y65610D01*
X234493Y65667D01*
X234516Y65727D01*
X234537Y65780D01*
X234546Y65830D01*
X234549Y65868D01*
X234552Y65882D01*
X234552Y65904D01*
X234547Y65963D01*
X234532Y66019D01*
X234514Y66068D01*
X234496Y66110D01*
X234474Y66145D01*
X234459Y66170D01*
X234445Y66183D01*
X234441Y66190D01*
X234395Y66232D01*
X234342Y66263D01*
X234288Y66290D01*
X234235Y66306D01*
X234186Y66320D01*
X234147Y66329D01*
X234133Y66333D01*
X234122Y66336D01*
X234115Y66336D01*
X234111Y66336D01*
X234127Y66636D01*
X234180Y66629D01*
D02*
G37*
G36*
X221573Y89046D02*
X221549Y88992D01*
X221529Y88943D01*
X221505Y88897D01*
X221485Y88857D01*
X221468Y88825D01*
X221454Y88804D01*
X221451Y88801D01*
X221451Y88797D01*
X221416Y88736D01*
X221379Y88683D01*
X221348Y88637D01*
X221317Y88598D01*
X221293Y88565D01*
X221276Y88540D01*
X221262Y88526D01*
X221258Y88522D01*
X223067Y88554D01*
X223072Y88269D01*
X220749Y88228D01*
X220746Y88415D01*
X220802Y88448D01*
X220858Y88487D01*
X220910Y88530D01*
X220958Y88574D01*
X220996Y88613D01*
X221027Y88645D01*
X221048Y88667D01*
X221052Y88670D01*
X221055Y88674D01*
X221110Y88742D01*
X221162Y88813D01*
X221206Y88884D01*
X221244Y88948D01*
X221274Y89005D01*
X221285Y89030D01*
X221295Y89051D01*
X221305Y89065D01*
X221312Y89080D01*
X221315Y89087D01*
X221315Y89090D01*
X221593Y89095D01*
X221573Y89046D01*
D02*
G37*
G36*
X221604Y87251D02*
X221581Y87197D01*
X221560Y87148D01*
X221537Y87102D01*
X221516Y87063D01*
X221499Y87031D01*
X221485Y87009D01*
X221482Y87006D01*
X221482Y87002D01*
X221448Y86942D01*
X221410Y86888D01*
X221379Y86842D01*
X221348Y86803D01*
X221324Y86770D01*
X221307Y86746D01*
X221293Y86731D01*
X221290Y86728D01*
X223099Y86759D01*
X223104Y86474D01*
X220781Y86434D01*
X220778Y86620D01*
X220833Y86653D01*
X220889Y86692D01*
X220941Y86736D01*
X220989Y86779D01*
X221027Y86818D01*
X221059Y86850D01*
X221079Y86872D01*
X221083Y86875D01*
X221086Y86879D01*
X221142Y86947D01*
X221193Y87018D01*
X221238Y87089D01*
X221275Y87153D01*
X221306Y87210D01*
X221316Y87235D01*
X221326Y87256D01*
X221337Y87271D01*
X221343Y87285D01*
X221347Y87292D01*
X221347Y87295D01*
X221625Y87300D01*
X221604Y87251D01*
D02*
G37*
G36*
X222092Y85728D02*
X222205Y85723D01*
X222304Y85714D01*
X222399Y85701D01*
X222484Y85685D01*
X222561Y85669D01*
X222632Y85649D01*
X222692Y85629D01*
X222749Y85609D01*
X222795Y85589D01*
X222834Y85572D01*
X222866Y85555D01*
X222891Y85541D01*
X222909Y85531D01*
X222920Y85524D01*
X222923Y85520D01*
X222966Y85482D01*
X223002Y85444D01*
X223034Y85403D01*
X223063Y85357D01*
X223085Y85316D01*
X223107Y85270D01*
X223137Y85186D01*
X223144Y85148D01*
X223152Y85113D01*
X223160Y85081D01*
X223164Y85053D01*
X223168Y85028D01*
X223168Y84997D01*
X223163Y84905D01*
X223150Y84824D01*
X223130Y84753D01*
X223107Y84689D01*
X223083Y84643D01*
X223062Y84604D01*
X223052Y84593D01*
X223049Y84583D01*
X223042Y84579D01*
X223042Y84575D01*
X222986Y84515D01*
X222924Y84464D01*
X222861Y84421D01*
X222799Y84385D01*
X222743Y84355D01*
X222722Y84345D01*
X222701Y84334D01*
X222683Y84326D01*
X222669Y84323D01*
X222662Y84319D01*
X222659Y84319D01*
X222610Y84304D01*
X222561Y84289D01*
X222452Y84266D01*
X222343Y84250D01*
X222238Y84237D01*
X222189Y84233D01*
X222143Y84229D01*
X222104Y84228D01*
X222069Y84224D01*
X222041Y84224D01*
X222020Y84223D01*
X222006Y84223D01*
X222002Y84223D01*
X221879Y84224D01*
X221826Y84223D01*
X221773Y84226D01*
X221724Y84229D01*
X221678Y84235D01*
X221639Y84238D01*
X221601Y84241D01*
X221569Y84247D01*
X221537Y84250D01*
X221512Y84253D01*
X221495Y84260D01*
X221477Y84263D01*
X221466Y84263D01*
X221459Y84266D01*
X221456Y84266D01*
X221381Y84286D01*
X221314Y84309D01*
X221254Y84333D01*
X221204Y84353D01*
X221165Y84374D01*
X221133Y84391D01*
X221115Y84401D01*
X221108Y84404D01*
X221059Y84439D01*
X221016Y84477D01*
X220976Y84515D01*
X220944Y84549D01*
X220922Y84584D01*
X220904Y84609D01*
X220893Y84626D01*
X220890Y84633D01*
X220864Y84685D01*
X220842Y84741D01*
X220827Y84797D01*
X220819Y84847D01*
X220811Y84889D01*
X220807Y84924D01*
X220807Y84955D01*
X220812Y85047D01*
X220825Y85128D01*
X220845Y85202D01*
X220868Y85263D01*
X220895Y85312D01*
X220916Y85348D01*
X220923Y85362D01*
X220930Y85373D01*
X220936Y85377D01*
X220936Y85380D01*
X220992Y85441D01*
X221051Y85491D01*
X221113Y85535D01*
X221176Y85571D01*
X221232Y85600D01*
X221256Y85611D01*
X221277Y85618D01*
X221295Y85626D01*
X221309Y85633D01*
X221316Y85637D01*
X221319Y85637D01*
X221368Y85652D01*
X221417Y85667D01*
X221526Y85686D01*
X221635Y85702D01*
X221740Y85715D01*
X221790Y85719D01*
X221835Y85723D01*
X221874Y85724D01*
X221909Y85728D01*
X221937Y85729D01*
X221958Y85729D01*
X221972Y85729D01*
X221976Y85729D01*
X222092Y85728D01*
D02*
G37*
G36*
X235020Y142204D02*
X235554D01*
Y141929D01*
X235020D01*
Y141627D01*
X234768D01*
Y141929D01*
X233323D01*
Y142154D01*
X234768Y143174D01*
X235020D01*
Y142204D01*
D02*
G37*
G36*
Y141341D02*
X235071Y141331D01*
X235159Y141304D01*
X235238Y141266D01*
X235302Y141229D01*
X235329Y141208D01*
X235353Y141191D01*
X235374Y141174D01*
X235391Y141161D01*
X235404Y141147D01*
X235414Y141137D01*
X235418Y141133D01*
X235421Y141130D01*
X235452Y141093D01*
X235476Y141052D01*
X235499Y141011D01*
X235520Y140970D01*
X235550Y140889D01*
X235571Y140811D01*
X235578Y140773D01*
X235581Y140739D01*
X235584Y140708D01*
X235588Y140685D01*
X235591Y140664D01*
Y140634D01*
X235588Y140566D01*
X235581Y140501D01*
X235567Y140443D01*
X235550Y140385D01*
X235530Y140334D01*
X235506Y140284D01*
X235482Y140239D01*
X235455Y140202D01*
X235431Y140164D01*
X235408Y140134D01*
X235384Y140107D01*
X235363Y140086D01*
X235346Y140069D01*
X235333Y140056D01*
X235326Y140049D01*
X235323Y140045D01*
X235282Y140015D01*
X235238Y139988D01*
X235193Y139964D01*
X235146Y139944D01*
X235061Y139913D01*
X234979Y139889D01*
X234942Y139882D01*
X234908Y139879D01*
X234877Y139875D01*
X234850Y139872D01*
X234830Y139869D01*
X234813D01*
X234802D01*
X234799D01*
X234741Y139872D01*
X234683Y139879D01*
X234632Y139889D01*
X234581Y139899D01*
X234537Y139916D01*
X234493Y139933D01*
X234456Y139950D01*
X234418Y139971D01*
X234388Y139991D01*
X234360Y140008D01*
X234337Y140025D01*
X234316Y140042D01*
X234299Y140052D01*
X234289Y140062D01*
X234282Y140069D01*
X234279Y140073D01*
X234241Y140110D01*
X234211Y140151D01*
X234184Y140192D01*
X234160Y140236D01*
X234139Y140277D01*
X234126Y140317D01*
X234099Y140396D01*
X234092Y140430D01*
X234085Y140464D01*
X234082Y140491D01*
X234078Y140518D01*
X234075Y140539D01*
Y140566D01*
X234082Y140647D01*
X234099Y140726D01*
X234119Y140797D01*
X234146Y140858D01*
X234173Y140912D01*
X234184Y140933D01*
X234194Y140953D01*
X234204Y140967D01*
X234211Y140977D01*
X234214Y140984D01*
X234218Y140987D01*
X233616Y140865D01*
Y139974D01*
X233354D01*
Y141083D01*
X234500Y141300D01*
X234537Y141042D01*
X234503Y141018D01*
X234473Y140991D01*
X234445Y140963D01*
X234422Y140940D01*
X234405Y140916D01*
X234391Y140895D01*
X234384Y140882D01*
X234381Y140878D01*
X234360Y140838D01*
X234343Y140797D01*
X234333Y140756D01*
X234323Y140719D01*
X234320Y140685D01*
X234316Y140661D01*
Y140637D01*
X234323Y140562D01*
X234337Y140494D01*
X234360Y140433D01*
X234384Y140385D01*
X234408Y140345D01*
X234432Y140317D01*
X234445Y140301D01*
X234452Y140294D01*
X234507Y140250D01*
X234568Y140216D01*
X234629Y140192D01*
X234687Y140178D01*
X234741Y140168D01*
X234765Y140164D01*
X234785D01*
X234799Y140161D01*
X234813D01*
X234819D01*
X234823D01*
X234911Y140168D01*
X234989Y140182D01*
X235057Y140205D01*
X235115Y140229D01*
X235159Y140253D01*
X235193Y140277D01*
X235214Y140290D01*
X235217Y140297D01*
X235221D01*
X235248Y140324D01*
X235268Y140351D01*
X235306Y140406D01*
X235329Y140464D01*
X235350Y140515D01*
X235360Y140562D01*
X235363Y140600D01*
X235367Y140613D01*
Y140634D01*
X235363Y140691D01*
X235350Y140746D01*
X235333Y140794D01*
X235316Y140834D01*
X235295Y140868D01*
X235282Y140892D01*
X235268Y140906D01*
X235265Y140912D01*
X235221Y140953D01*
X235170Y140984D01*
X235119Y141011D01*
X235068Y141028D01*
X235020Y141042D01*
X234983Y141052D01*
X234969Y141055D01*
X234959Y141059D01*
X234952D01*
X234949D01*
X234969Y141348D01*
X235020Y141341D01*
D02*
G37*
G36*
X224822Y81147D02*
X224798Y81094D01*
X224778Y81044D01*
X224754Y80998D01*
X224734Y80959D01*
X224716Y80927D01*
X224703Y80906D01*
X224699Y80902D01*
X224699Y80898D01*
X224665Y80838D01*
X224627Y80785D01*
X224597Y80738D01*
X224566Y80699D01*
X224541Y80667D01*
X224524Y80642D01*
X224511Y80628D01*
X224507Y80624D01*
X226316Y80656D01*
X226321Y80370D01*
X223998Y80330D01*
X223995Y80516D01*
X224051Y80549D01*
X224106Y80589D01*
X224158Y80632D01*
X224207Y80675D01*
X224245Y80714D01*
X224276Y80747D01*
X224297Y80768D01*
X224300Y80772D01*
X224304Y80775D01*
X224359Y80843D01*
X224410Y80914D01*
X224455Y80986D01*
X224493Y81050D01*
X224523Y81107D01*
X224533Y81131D01*
X224544Y81153D01*
X224554Y81167D01*
X224561Y81181D01*
X224564Y81188D01*
X224564Y81192D01*
X224842Y81197D01*
X224822Y81147D01*
D02*
G37*
G36*
X226360Y78153D02*
X226089Y78149D01*
X226069Y79285D01*
X226013Y79246D01*
X225968Y79206D01*
X225947Y79188D01*
X225934Y79174D01*
X225923Y79167D01*
X225920Y79163D01*
X225902Y79145D01*
X225885Y79127D01*
X225844Y79081D01*
X225795Y79023D01*
X225747Y78970D01*
X225702Y78916D01*
X225668Y78873D01*
X225654Y78856D01*
X225644Y78841D01*
X225637Y78834D01*
X225633Y78831D01*
X225585Y78773D01*
X225544Y78723D01*
X225502Y78673D01*
X225464Y78631D01*
X225426Y78591D01*
X225395Y78555D01*
X225364Y78520D01*
X225336Y78491D01*
X225312Y78466D01*
X225291Y78444D01*
X225260Y78412D01*
X225239Y78394D01*
X225233Y78387D01*
X225177Y78340D01*
X225129Y78297D01*
X225080Y78265D01*
X225038Y78239D01*
X225003Y78218D01*
X224979Y78203D01*
X224961Y78196D01*
X224954Y78192D01*
X224905Y78170D01*
X224856Y78155D01*
X224811Y78144D01*
X224769Y78136D01*
X224734Y78132D01*
X224706Y78128D01*
X224688Y78128D01*
X224681Y78127D01*
X224632Y78130D01*
X224582Y78133D01*
X224494Y78156D01*
X224416Y78186D01*
X224348Y78220D01*
X224295Y78254D01*
X224273Y78272D01*
X224252Y78285D01*
X224238Y78299D01*
X224227Y78310D01*
X224223Y78313D01*
X224220Y78317D01*
X224188Y78355D01*
X224155Y78393D01*
X224130Y78435D01*
X224108Y78480D01*
X224075Y78567D01*
X224052Y78652D01*
X224041Y78690D01*
X224037Y78725D01*
X224033Y78757D01*
X224029Y78785D01*
X224025Y78810D01*
X224024Y78841D01*
X224027Y78901D01*
X224029Y78957D01*
X224048Y79063D01*
X224058Y79109D01*
X224072Y79155D01*
X224088Y79194D01*
X224102Y79230D01*
X224119Y79262D01*
X224132Y79290D01*
X224150Y79315D01*
X224160Y79337D01*
X224170Y79351D01*
X224181Y79361D01*
X224184Y79369D01*
X224187Y79372D01*
X224222Y79408D01*
X224257Y79437D01*
X224337Y79491D01*
X224417Y79531D01*
X224497Y79561D01*
X224568Y79583D01*
X224599Y79587D01*
X224627Y79595D01*
X224648Y79598D01*
X224666Y79602D01*
X224676Y79602D01*
X224680Y79603D01*
X224717Y79311D01*
X224639Y79303D01*
X224573Y79287D01*
X224517Y79269D01*
X224468Y79243D01*
X224429Y79221D01*
X224402Y79200D01*
X224388Y79186D01*
X224381Y79182D01*
X224340Y79132D01*
X224309Y79079D01*
X224289Y79022D01*
X224272Y78969D01*
X224266Y78923D01*
X224263Y78888D01*
X224259Y78873D01*
X224260Y78852D01*
X224265Y78782D01*
X224280Y78719D01*
X224298Y78667D01*
X224320Y78621D01*
X224345Y78586D01*
X224364Y78558D01*
X224378Y78545D01*
X224381Y78538D01*
X224428Y78496D01*
X224478Y78469D01*
X224524Y78449D01*
X224570Y78432D01*
X224609Y78426D01*
X224640Y78422D01*
X224662Y78419D01*
X224665Y78419D01*
X224669Y78420D01*
X224728Y78427D01*
X224792Y78443D01*
X224848Y78465D01*
X224900Y78490D01*
X224945Y78516D01*
X224980Y78538D01*
X224994Y78545D01*
X225004Y78552D01*
X225008Y78559D01*
X225011Y78559D01*
X225046Y78588D01*
X225084Y78620D01*
X225122Y78656D01*
X225160Y78699D01*
X225240Y78785D01*
X225319Y78871D01*
X225385Y78949D01*
X225416Y78985D01*
X225440Y79017D01*
X225464Y79042D01*
X225478Y79060D01*
X225488Y79075D01*
X225492Y79078D01*
X225564Y79164D01*
X225630Y79242D01*
X225688Y79307D01*
X225737Y79361D01*
X225778Y79404D01*
X225809Y79432D01*
X225830Y79450D01*
X225834Y79457D01*
X225837Y79457D01*
X225893Y79504D01*
X225945Y79540D01*
X225997Y79576D01*
X226042Y79602D01*
X226084Y79624D01*
X226112Y79638D01*
X226133Y79646D01*
X226136Y79649D01*
X226140Y79649D01*
X226175Y79660D01*
X226210Y79672D01*
X226242Y79676D01*
X226270Y79680D01*
X226294Y79684D01*
X226315Y79684D01*
X226329Y79684D01*
X226333Y79684D01*
X226360Y78153D01*
D02*
G37*
G36*
X225341Y77829D02*
X225454Y77824D01*
X225552Y77815D01*
X225648Y77803D01*
X225732Y77787D01*
X225810Y77771D01*
X225881Y77751D01*
X225941Y77731D01*
X225998Y77710D01*
X226044Y77690D01*
X226083Y77673D01*
X226115Y77656D01*
X226140Y77643D01*
X226158Y77632D01*
X226168Y77625D01*
X226172Y77622D01*
X226215Y77584D01*
X226251Y77546D01*
X226283Y77504D01*
X226312Y77459D01*
X226334Y77417D01*
X226356Y77372D01*
X226385Y77288D01*
X226393Y77249D01*
X226401Y77214D01*
X226408Y77182D01*
X226412Y77154D01*
X226416Y77130D01*
X226417Y77098D01*
X226411Y77007D01*
X226399Y76925D01*
X226379Y76854D01*
X226355Y76791D01*
X226331Y76745D01*
X226311Y76705D01*
X226301Y76695D01*
X226297Y76684D01*
X226290Y76680D01*
X226290Y76677D01*
X226235Y76616D01*
X226173Y76566D01*
X226110Y76522D01*
X226047Y76486D01*
X225992Y76457D01*
X225971Y76446D01*
X225950Y76435D01*
X225932Y76428D01*
X225918Y76424D01*
X225911Y76420D01*
X225908Y76420D01*
X225859Y76405D01*
X225810Y76390D01*
X225701Y76367D01*
X225592Y76351D01*
X225487Y76339D01*
X225437Y76335D01*
X225392Y76330D01*
X225353Y76330D01*
X225318Y76326D01*
X225290Y76325D01*
X225269Y76325D01*
X225255Y76324D01*
X225251Y76324D01*
X225128Y76326D01*
X225075Y76325D01*
X225022Y76327D01*
X224973Y76330D01*
X224927Y76336D01*
X224888Y76339D01*
X224849Y76342D01*
X224818Y76349D01*
X224786Y76351D01*
X224761Y76354D01*
X224743Y76361D01*
X224726Y76364D01*
X224715Y76364D01*
X224708Y76368D01*
X224705Y76368D01*
X224630Y76388D01*
X224563Y76411D01*
X224503Y76434D01*
X224453Y76455D01*
X224414Y76475D01*
X224382Y76492D01*
X224364Y76503D01*
X224357Y76506D01*
X224307Y76540D01*
X224264Y76578D01*
X224225Y76616D01*
X224193Y76651D01*
X224171Y76686D01*
X224153Y76710D01*
X224142Y76727D01*
X224138Y76734D01*
X224113Y76787D01*
X224091Y76843D01*
X224076Y76899D01*
X224068Y76948D01*
X224060Y76990D01*
X224056Y77025D01*
X224055Y77057D01*
X224061Y77148D01*
X224073Y77230D01*
X224093Y77304D01*
X224117Y77364D01*
X224144Y77414D01*
X224165Y77450D01*
X224171Y77464D01*
X224178Y77474D01*
X224185Y77478D01*
X224185Y77482D01*
X224240Y77542D01*
X224299Y77593D01*
X224362Y77636D01*
X224425Y77672D01*
X224481Y77701D01*
X224505Y77713D01*
X224526Y77720D01*
X224543Y77727D01*
X224557Y77735D01*
X224565Y77738D01*
X224568Y77738D01*
X224617Y77753D01*
X224666Y77768D01*
X224775Y77788D01*
X224884Y77804D01*
X224989Y77816D01*
X225038Y77820D01*
X225084Y77825D01*
X225123Y77825D01*
X225158Y77829D01*
X225186Y77830D01*
X225207Y77830D01*
X225221Y77831D01*
X225225Y77831D01*
X225341Y77829D01*
D02*
G37*
G36*
X229752Y73972D02*
X229728Y73921D01*
X229708Y73873D01*
X229684Y73829D01*
X229663Y73792D01*
X229646Y73761D01*
X229633Y73741D01*
X229629Y73737D01*
Y73734D01*
X229595Y73676D01*
X229558Y73625D01*
X229527Y73581D01*
X229497Y73544D01*
X229473Y73513D01*
X229456Y73489D01*
X229443Y73475D01*
X229439Y73472D01*
X231187D01*
Y73197D01*
X228943D01*
Y73377D01*
X228997Y73408D01*
X229051Y73445D01*
X229102Y73486D01*
X229150Y73527D01*
X229187Y73564D01*
X229218Y73594D01*
X229239Y73615D01*
X229242Y73618D01*
X229245Y73622D01*
X229300Y73686D01*
X229351Y73754D01*
X229395Y73822D01*
X229432Y73883D01*
X229463Y73938D01*
X229473Y73962D01*
X229483Y73982D01*
X229493Y73996D01*
X229500Y74009D01*
X229504Y74016D01*
Y74019D01*
X229772D01*
X229752Y73972D01*
D02*
G37*
G36*
X230646Y72486D02*
X230694Y72476D01*
X230782Y72445D01*
X230860Y72411D01*
X230928Y72370D01*
X230956Y72354D01*
X230979Y72333D01*
X231000Y72316D01*
X231020Y72303D01*
X231034Y72289D01*
X231044Y72279D01*
X231047Y72275D01*
X231051Y72272D01*
X231081Y72234D01*
X231108Y72194D01*
X231132Y72156D01*
X231149Y72115D01*
X231183Y72034D01*
X231204Y71956D01*
X231210Y71922D01*
X231214Y71888D01*
X231217Y71860D01*
X231221Y71833D01*
X231224Y71813D01*
Y71786D01*
X231221Y71728D01*
X231214Y71670D01*
X231207Y71616D01*
X231193Y71565D01*
X231176Y71517D01*
X231159Y71473D01*
X231142Y71432D01*
X231122Y71395D01*
X231105Y71364D01*
X231088Y71333D01*
X231071Y71306D01*
X231054Y71286D01*
X231041Y71269D01*
X231034Y71259D01*
X231027Y71252D01*
X231024Y71249D01*
X230983Y71211D01*
X230942Y71177D01*
X230901Y71150D01*
X230860Y71126D01*
X230820Y71102D01*
X230775Y71085D01*
X230697Y71061D01*
X230663Y71051D01*
X230629Y71044D01*
X230602Y71041D01*
X230575Y71038D01*
X230554Y71034D01*
X230541D01*
X230531D01*
X230527D01*
X230449Y71038D01*
X230378Y71051D01*
X230316Y71068D01*
X230265Y71089D01*
X230224Y71113D01*
X230194Y71130D01*
X230173Y71143D01*
X230167Y71147D01*
X230116Y71191D01*
X230075Y71242D01*
X230041Y71293D01*
X230017Y71340D01*
X229997Y71385D01*
X229987Y71418D01*
X229980Y71432D01*
Y71442D01*
X229976Y71449D01*
Y71452D01*
X229949Y71398D01*
X229915Y71351D01*
X229885Y71313D01*
X229854Y71279D01*
X229827Y71255D01*
X229806Y71235D01*
X229793Y71225D01*
X229786Y71221D01*
X229742Y71194D01*
X229694Y71177D01*
X229650Y71163D01*
X229609Y71153D01*
X229575Y71147D01*
X229548Y71143D01*
X229531D01*
X229524D01*
X229466Y71147D01*
X229415Y71157D01*
X229368Y71170D01*
X229324Y71184D01*
X229290Y71197D01*
X229262Y71211D01*
X229245Y71221D01*
X229239Y71225D01*
X229191Y71259D01*
X229147Y71296D01*
X229109Y71337D01*
X229079Y71374D01*
X229055Y71408D01*
X229038Y71435D01*
X229028Y71456D01*
X229024Y71459D01*
Y71463D01*
X228997Y71521D01*
X228977Y71578D01*
X228963Y71636D01*
X228953Y71687D01*
X228946Y71731D01*
X228943Y71765D01*
Y71843D01*
X228949Y71891D01*
X228966Y71976D01*
X228990Y72054D01*
X229017Y72119D01*
X229048Y72170D01*
X229062Y72190D01*
X229072Y72207D01*
X229082Y72224D01*
X229089Y72234D01*
X229092Y72238D01*
X229096Y72241D01*
X229157Y72303D01*
X229225Y72350D01*
X229296Y72391D01*
X229364Y72418D01*
X229426Y72442D01*
X229453Y72449D01*
X229476Y72456D01*
X229493Y72459D01*
X229507Y72462D01*
X229517Y72466D01*
X229521D01*
X229568Y72190D01*
X229497Y72177D01*
X229436Y72156D01*
X229385Y72136D01*
X229344Y72112D01*
X229310Y72092D01*
X229286Y72075D01*
X229273Y72061D01*
X229269Y72058D01*
X229235Y72013D01*
X229211Y71969D01*
X229191Y71925D01*
X229181Y71881D01*
X229174Y71847D01*
X229167Y71816D01*
Y71789D01*
X229170Y71731D01*
X229184Y71680D01*
X229198Y71636D01*
X229218Y71599D01*
X229235Y71568D01*
X229252Y71544D01*
X229266Y71531D01*
X229269Y71527D01*
X229307Y71493D01*
X229351Y71469D01*
X229392Y71449D01*
X229429Y71439D01*
X229466Y71432D01*
X229493Y71425D01*
X229510D01*
X229514D01*
X229517D01*
X229585Y71432D01*
X229643Y71449D01*
X229691Y71469D01*
X229728Y71497D01*
X229759Y71524D01*
X229783Y71544D01*
X229796Y71561D01*
X229800Y71568D01*
X229830Y71623D01*
X229851Y71677D01*
X229868Y71728D01*
X229878Y71776D01*
X229885Y71820D01*
X229888Y71850D01*
Y71895D01*
X229885Y71908D01*
Y71925D01*
X230126Y71956D01*
X230116Y71915D01*
X230109Y71877D01*
X230105Y71843D01*
X230102Y71816D01*
X230099Y71793D01*
Y71762D01*
X230105Y71694D01*
X230119Y71636D01*
X230136Y71582D01*
X230160Y71538D01*
X230184Y71500D01*
X230201Y71473D01*
X230214Y71459D01*
X230221Y71452D01*
X230269Y71412D01*
X230320Y71381D01*
X230374Y71357D01*
X230422Y71344D01*
X230466Y71333D01*
X230500Y71330D01*
X230514Y71327D01*
X230524D01*
X230527D01*
X230531D01*
X230602Y71333D01*
X230666Y71347D01*
X230724Y71368D01*
X230772Y71391D01*
X230813Y71418D01*
X230840Y71439D01*
X230857Y71452D01*
X230864Y71459D01*
X230908Y71510D01*
X230942Y71565D01*
X230962Y71619D01*
X230979Y71674D01*
X230990Y71718D01*
X230993Y71752D01*
X230996Y71765D01*
Y71786D01*
X230993Y71843D01*
X230979Y71898D01*
X230962Y71946D01*
X230945Y71983D01*
X230925Y72017D01*
X230911Y72041D01*
X230898Y72054D01*
X230894Y72061D01*
X230850Y72098D01*
X230799Y72132D01*
X230741Y72160D01*
X230687Y72180D01*
X230636Y72197D01*
X230595Y72207D01*
X230581Y72214D01*
X230568D01*
X230561Y72218D01*
X230558D01*
X230595Y72493D01*
X230646Y72486D01*
D02*
G37*
G36*
X230197Y70759D02*
X230306Y70752D01*
X230401Y70742D01*
X230493Y70728D01*
X230575Y70711D01*
X230649Y70694D01*
X230717Y70674D01*
X230775Y70653D01*
X230830Y70633D01*
X230874Y70613D01*
X230911Y70596D01*
X230942Y70579D01*
X230966Y70565D01*
X230983Y70555D01*
X230993Y70548D01*
X230996Y70545D01*
X231037Y70507D01*
X231071Y70470D01*
X231102Y70429D01*
X231129Y70385D01*
X231149Y70344D01*
X231170Y70300D01*
X231197Y70218D01*
X231204Y70181D01*
X231210Y70147D01*
X231217Y70116D01*
X231221Y70089D01*
X231224Y70065D01*
Y70035D01*
X231217Y69946D01*
X231204Y69868D01*
X231183Y69800D01*
X231159Y69739D01*
X231136Y69695D01*
X231115Y69657D01*
X231105Y69647D01*
X231102Y69637D01*
X231095Y69634D01*
Y69630D01*
X231041Y69572D01*
X230979Y69525D01*
X230918Y69484D01*
X230857Y69450D01*
X230802Y69423D01*
X230782Y69412D01*
X230762Y69402D01*
X230745Y69396D01*
X230731Y69392D01*
X230724Y69389D01*
X230721D01*
X230673Y69375D01*
X230626Y69362D01*
X230520Y69341D01*
X230415Y69327D01*
X230313Y69317D01*
X230265Y69314D01*
X230221Y69310D01*
X230184D01*
X230150Y69307D01*
X230122D01*
X230102D01*
X230088D01*
X230085D01*
X229966Y69310D01*
X229915D01*
X229864Y69314D01*
X229817Y69317D01*
X229772Y69324D01*
X229735Y69327D01*
X229697Y69331D01*
X229667Y69338D01*
X229636Y69341D01*
X229612Y69345D01*
X229595Y69351D01*
X229578Y69355D01*
X229568D01*
X229561Y69358D01*
X229558D01*
X229487Y69379D01*
X229422Y69402D01*
X229364Y69426D01*
X229317Y69446D01*
X229279Y69467D01*
X229249Y69484D01*
X229232Y69494D01*
X229225Y69498D01*
X229177Y69532D01*
X229136Y69569D01*
X229099Y69606D01*
X229068Y69640D01*
X229048Y69674D01*
X229031Y69698D01*
X229021Y69715D01*
X229017Y69722D01*
X228994Y69773D01*
X228973Y69827D01*
X228960Y69882D01*
X228953Y69929D01*
X228946Y69970D01*
X228943Y70004D01*
Y70035D01*
X228949Y70123D01*
X228963Y70201D01*
X228983Y70273D01*
X229007Y70331D01*
X229034Y70378D01*
X229055Y70412D01*
X229062Y70426D01*
X229068Y70436D01*
X229075Y70439D01*
Y70443D01*
X229130Y70500D01*
X229187Y70548D01*
X229249Y70589D01*
X229310Y70623D01*
X229364Y70650D01*
X229388Y70660D01*
X229409Y70667D01*
X229426Y70674D01*
X229439Y70681D01*
X229446Y70684D01*
X229449D01*
X229497Y70698D01*
X229544Y70711D01*
X229650Y70728D01*
X229755Y70742D01*
X229857Y70752D01*
X229905Y70755D01*
X229949Y70759D01*
X229987D01*
X230020Y70762D01*
X230048D01*
X230068D01*
X230082D01*
X230085D01*
X230197Y70759D01*
D02*
G37*
G36*
X245518Y150888D02*
X245565Y150878D01*
X245654Y150847D01*
X245732Y150813D01*
X245800Y150773D01*
X245827Y150756D01*
X245851Y150735D01*
X245871Y150718D01*
X245892Y150705D01*
X245905Y150691D01*
X245916Y150681D01*
X245919Y150677D01*
X245922Y150674D01*
X245953Y150636D01*
X245980Y150596D01*
X246004Y150558D01*
X246021Y150517D01*
X246055Y150436D01*
X246075Y150358D01*
X246082Y150324D01*
X246086Y150290D01*
X246089Y150262D01*
X246092Y150235D01*
X246096Y150215D01*
Y150188D01*
X246092Y150130D01*
X246086Y150072D01*
X246079Y150018D01*
X246065Y149967D01*
X246048Y149919D01*
X246031Y149875D01*
X246014Y149834D01*
X245994Y149797D01*
X245977Y149766D01*
X245960Y149735D01*
X245943Y149708D01*
X245926Y149688D01*
X245912Y149671D01*
X245905Y149661D01*
X245899Y149654D01*
X245895Y149651D01*
X245854Y149613D01*
X245814Y149579D01*
X245773Y149552D01*
X245732Y149528D01*
X245691Y149504D01*
X245647Y149487D01*
X245569Y149463D01*
X245535Y149453D01*
X245501Y149446D01*
X245474Y149443D01*
X245446Y149440D01*
X245426Y149436D01*
X245412D01*
X245402D01*
X245399D01*
X245321Y149440D01*
X245249Y149453D01*
X245188Y149470D01*
X245137Y149491D01*
X245096Y149514D01*
X245066Y149531D01*
X245045Y149545D01*
X245038Y149548D01*
X244987Y149593D01*
X244947Y149644D01*
X244913Y149695D01*
X244889Y149742D01*
X244868Y149786D01*
X244858Y149820D01*
X244851Y149834D01*
Y149844D01*
X244848Y149851D01*
Y149855D01*
X244821Y149800D01*
X244787Y149752D01*
X244756Y149715D01*
X244726Y149681D01*
X244698Y149657D01*
X244678Y149637D01*
X244664Y149627D01*
X244658Y149623D01*
X244613Y149596D01*
X244566Y149579D01*
X244522Y149565D01*
X244481Y149555D01*
X244447Y149548D01*
X244420Y149545D01*
X244403D01*
X244396D01*
X244338Y149548D01*
X244287Y149559D01*
X244239Y149572D01*
X244195Y149586D01*
X244161Y149600D01*
X244134Y149613D01*
X244117Y149623D01*
X244110Y149627D01*
X244063Y149661D01*
X244018Y149698D01*
X243981Y149739D01*
X243950Y149776D01*
X243927Y149810D01*
X243910Y149838D01*
X243899Y149858D01*
X243896Y149861D01*
Y149865D01*
X243869Y149923D01*
X243848Y149980D01*
X243835Y150038D01*
X243825Y150089D01*
X243818Y150133D01*
X243814Y150167D01*
Y150245D01*
X243821Y150293D01*
X243838Y150378D01*
X243862Y150456D01*
X243889Y150521D01*
X243920Y150572D01*
X243933Y150592D01*
X243944Y150609D01*
X243954Y150626D01*
X243961Y150636D01*
X243964Y150640D01*
X243967Y150643D01*
X244029Y150705D01*
X244097Y150752D01*
X244168Y150793D01*
X244236Y150820D01*
X244297Y150844D01*
X244324Y150851D01*
X244348Y150857D01*
X244365Y150861D01*
X244379Y150864D01*
X244389Y150868D01*
X244392D01*
X244440Y150592D01*
X244369Y150579D01*
X244307Y150558D01*
X244256Y150538D01*
X244216Y150514D01*
X244182Y150494D01*
X244158Y150477D01*
X244144Y150463D01*
X244141Y150460D01*
X244107Y150416D01*
X244083Y150371D01*
X244063Y150327D01*
X244052Y150283D01*
X244046Y150249D01*
X244039Y150218D01*
Y150191D01*
X244042Y150133D01*
X244056Y150082D01*
X244069Y150038D01*
X244090Y150001D01*
X244107Y149970D01*
X244124Y149946D01*
X244137Y149933D01*
X244141Y149929D01*
X244178Y149895D01*
X244222Y149872D01*
X244263Y149851D01*
X244301Y149841D01*
X244338Y149834D01*
X244365Y149827D01*
X244382D01*
X244386D01*
X244389D01*
X244457Y149834D01*
X244515Y149851D01*
X244562Y149872D01*
X244600Y149899D01*
X244630Y149926D01*
X244654Y149946D01*
X244668Y149963D01*
X244671Y149970D01*
X244702Y150024D01*
X244722Y150079D01*
X244739Y150130D01*
X244749Y150178D01*
X244756Y150222D01*
X244760Y150252D01*
Y150296D01*
X244756Y150310D01*
Y150327D01*
X244998Y150358D01*
X244987Y150317D01*
X244981Y150279D01*
X244977Y150245D01*
X244974Y150218D01*
X244970Y150195D01*
Y150164D01*
X244977Y150096D01*
X244991Y150038D01*
X245008Y149984D01*
X245032Y149940D01*
X245055Y149902D01*
X245072Y149875D01*
X245086Y149861D01*
X245093Y149855D01*
X245140Y149814D01*
X245191Y149783D01*
X245246Y149759D01*
X245293Y149746D01*
X245338Y149735D01*
X245372Y149732D01*
X245385Y149729D01*
X245395D01*
X245399D01*
X245402D01*
X245474Y149735D01*
X245538Y149749D01*
X245596Y149769D01*
X245644Y149793D01*
X245684Y149820D01*
X245712Y149841D01*
X245729Y149855D01*
X245735Y149861D01*
X245780Y149912D01*
X245814Y149967D01*
X245834Y150021D01*
X245851Y150075D01*
X245861Y150120D01*
X245865Y150154D01*
X245868Y150167D01*
Y150188D01*
X245865Y150245D01*
X245851Y150300D01*
X245834Y150347D01*
X245817Y150385D01*
X245797Y150419D01*
X245783Y150443D01*
X245769Y150456D01*
X245766Y150463D01*
X245722Y150501D01*
X245671Y150534D01*
X245613Y150562D01*
X245559Y150582D01*
X245508Y150599D01*
X245467Y150609D01*
X245453Y150616D01*
X245440D01*
X245433Y150619D01*
X245429D01*
X245467Y150895D01*
X245518Y150888D01*
D02*
G37*
G36*
X245069Y149161D02*
X245178Y149154D01*
X245273Y149144D01*
X245365Y149130D01*
X245446Y149113D01*
X245521Y149096D01*
X245589Y149076D01*
X245647Y149056D01*
X245701Y149035D01*
X245746Y149015D01*
X245783Y148998D01*
X245814Y148981D01*
X245837Y148967D01*
X245854Y148957D01*
X245865Y148950D01*
X245868Y148947D01*
X245909Y148909D01*
X245943Y148872D01*
X245973Y148831D01*
X246001Y148787D01*
X246021Y148746D01*
X246041Y148702D01*
X246069Y148620D01*
X246075Y148583D01*
X246082Y148549D01*
X246089Y148518D01*
X246092Y148491D01*
X246096Y148467D01*
Y148437D01*
X246089Y148348D01*
X246075Y148270D01*
X246055Y148202D01*
X246031Y148141D01*
X246007Y148097D01*
X245987Y148059D01*
X245977Y148049D01*
X245973Y148039D01*
X245967Y148036D01*
Y148032D01*
X245912Y147974D01*
X245851Y147927D01*
X245790Y147886D01*
X245729Y147852D01*
X245674Y147825D01*
X245654Y147815D01*
X245633Y147804D01*
X245616Y147798D01*
X245603Y147794D01*
X245596Y147791D01*
X245593D01*
X245545Y147777D01*
X245497Y147764D01*
X245392Y147743D01*
X245287Y147730D01*
X245185Y147719D01*
X245137Y147716D01*
X245093Y147713D01*
X245055D01*
X245021Y147709D01*
X244994D01*
X244974D01*
X244960D01*
X244957D01*
X244838Y147713D01*
X244787D01*
X244736Y147716D01*
X244688Y147719D01*
X244644Y147726D01*
X244607Y147730D01*
X244569Y147733D01*
X244539Y147740D01*
X244508Y147743D01*
X244484Y147747D01*
X244467Y147753D01*
X244450Y147757D01*
X244440D01*
X244433Y147760D01*
X244430D01*
X244358Y147781D01*
X244294Y147804D01*
X244236Y147828D01*
X244188Y147848D01*
X244151Y147869D01*
X244120Y147886D01*
X244103Y147896D01*
X244097Y147899D01*
X244049Y147933D01*
X244008Y147971D01*
X243971Y148008D01*
X243940Y148042D01*
X243920Y148076D01*
X243903Y148100D01*
X243893Y148117D01*
X243889Y148124D01*
X243865Y148175D01*
X243845Y148229D01*
X243831Y148284D01*
X243825Y148331D01*
X243818Y148372D01*
X243814Y148406D01*
Y148437D01*
X243821Y148525D01*
X243835Y148603D01*
X243855Y148675D01*
X243879Y148732D01*
X243906Y148780D01*
X243927Y148814D01*
X243933Y148828D01*
X243940Y148838D01*
X243947Y148841D01*
Y148845D01*
X244001Y148902D01*
X244059Y148950D01*
X244120Y148991D01*
X244182Y149025D01*
X244236Y149052D01*
X244260Y149062D01*
X244280Y149069D01*
X244297Y149076D01*
X244311Y149083D01*
X244318Y149086D01*
X244321D01*
X244369Y149100D01*
X244416Y149113D01*
X244522Y149130D01*
X244627Y149144D01*
X244729Y149154D01*
X244777Y149158D01*
X244821Y149161D01*
X244858D01*
X244892Y149164D01*
X244919D01*
X244940D01*
X244953D01*
X244957D01*
X245069Y149161D01*
D02*
G37*
G36*
X226764Y132531D02*
X226859Y132524D01*
X226951Y132514D01*
X227033Y132500D01*
X227108Y132483D01*
X227175Y132466D01*
X227237Y132446D01*
X227291Y132425D01*
X227339Y132408D01*
X227379Y132388D01*
X227414Y132371D01*
X227441Y132354D01*
X227461Y132341D01*
X227475Y132330D01*
X227485Y132324D01*
X227488Y132320D01*
X227533Y132279D01*
X227570Y132235D01*
X227604Y132187D01*
X227635Y132140D01*
X227658Y132092D01*
X227679Y132048D01*
X227696Y132001D01*
X227709Y131956D01*
X227719Y131915D01*
X227726Y131878D01*
X227733Y131844D01*
X227736Y131817D01*
Y131793D01*
X227740Y131773D01*
Y131759D01*
X227736Y131688D01*
X227726Y131620D01*
X227709Y131559D01*
X227692Y131504D01*
X227675Y131463D01*
X227658Y131429D01*
X227648Y131409D01*
X227645Y131402D01*
X227604Y131344D01*
X227560Y131297D01*
X227516Y131253D01*
X227471Y131215D01*
X227431Y131188D01*
X227400Y131167D01*
X227386Y131161D01*
X227376Y131154D01*
X227373Y131150D01*
X227369D01*
X227301Y131120D01*
X227233Y131096D01*
X227165Y131082D01*
X227108Y131069D01*
X227053Y131062D01*
X227033D01*
X227012Y131059D01*
X226999D01*
X226989D01*
X226982D01*
X226978D01*
X226920Y131062D01*
X226863Y131065D01*
X226812Y131076D01*
X226761Y131089D01*
X226716Y131103D01*
X226672Y131120D01*
X226635Y131137D01*
X226597Y131154D01*
X226567Y131174D01*
X226540Y131191D01*
X226516Y131208D01*
X226495Y131222D01*
X226479Y131236D01*
X226468Y131246D01*
X226462Y131249D01*
X226458Y131253D01*
X226421Y131290D01*
X226390Y131327D01*
X226363Y131368D01*
X226339Y131409D01*
X226319Y131446D01*
X226305Y131487D01*
X226278Y131559D01*
X226264Y131623D01*
X226261Y131650D01*
X226257Y131674D01*
X226254Y131694D01*
Y131722D01*
X226257Y131780D01*
X226264Y131834D01*
X226278Y131885D01*
X226291Y131929D01*
X226305Y131966D01*
X226319Y131997D01*
X226325Y132014D01*
X226329Y132021D01*
X226360Y132072D01*
X226393Y132120D01*
X226431Y132160D01*
X226468Y132194D01*
X226502Y132225D01*
X226529Y132245D01*
X226547Y132259D01*
X226550Y132262D01*
X226492D01*
X226434Y132259D01*
X226380Y132255D01*
X226329Y132252D01*
X226285Y132245D01*
X226240Y132238D01*
X226203Y132232D01*
X226169Y132225D01*
X226138Y132218D01*
X226111Y132211D01*
X226087Y132204D01*
X226070Y132198D01*
X226057Y132194D01*
X226043Y132191D01*
X226040Y132187D01*
X226037D01*
X225972Y132157D01*
X225914Y132123D01*
X225866Y132089D01*
X225829Y132055D01*
X225799Y132028D01*
X225775Y132004D01*
X225761Y131990D01*
X225758Y131983D01*
X225734Y131943D01*
X225713Y131905D01*
X225700Y131865D01*
X225693Y131827D01*
X225686Y131797D01*
X225683Y131773D01*
Y131749D01*
X225686Y131691D01*
X225700Y131637D01*
X225720Y131589D01*
X225741Y131548D01*
X225764Y131518D01*
X225781Y131494D01*
X225795Y131477D01*
X225802Y131474D01*
X225833Y131450D01*
X225866Y131429D01*
X225945Y131395D01*
X225979Y131385D01*
X226006Y131375D01*
X226026Y131368D01*
X226030D01*
X226033D01*
X226013Y131096D01*
X225921Y131113D01*
X225839Y131144D01*
X225771Y131174D01*
X225713Y131212D01*
X225669Y131246D01*
X225635Y131273D01*
X225615Y131293D01*
X225608Y131297D01*
Y131300D01*
X225581Y131334D01*
X225557Y131368D01*
X225523Y131439D01*
X225496Y131511D01*
X225476Y131579D01*
X225465Y131640D01*
X225462Y131667D01*
Y131688D01*
X225458Y131708D01*
Y131732D01*
X225462Y131797D01*
X225469Y131858D01*
X225482Y131915D01*
X225499Y131970D01*
X225520Y132021D01*
X225540Y132065D01*
X225564Y132109D01*
X225588Y132147D01*
X225611Y132181D01*
X225635Y132211D01*
X225656Y132235D01*
X225676Y132259D01*
X225693Y132276D01*
X225707Y132286D01*
X225713Y132293D01*
X225717Y132296D01*
X225775Y132337D01*
X225843Y132375D01*
X225911Y132405D01*
X225989Y132432D01*
X226064Y132456D01*
X226142Y132476D01*
X226220Y132493D01*
X226298Y132504D01*
X226370Y132514D01*
X226438Y132521D01*
X226499Y132527D01*
X226553Y132531D01*
X226597Y132534D01*
X226631D01*
X226642D01*
X226652D01*
X226655D01*
X226659D01*
X226764Y132531D01*
D02*
G37*
G36*
X226713Y130783D02*
X226822Y130777D01*
X226917Y130766D01*
X227009Y130753D01*
X227091Y130736D01*
X227165Y130719D01*
X227233Y130698D01*
X227291Y130678D01*
X227345Y130657D01*
X227390Y130637D01*
X227427Y130620D01*
X227458Y130603D01*
X227481Y130589D01*
X227499Y130579D01*
X227509Y130572D01*
X227512Y130569D01*
X227553Y130532D01*
X227587Y130494D01*
X227618Y130454D01*
X227645Y130409D01*
X227665Y130368D01*
X227685Y130324D01*
X227713Y130243D01*
X227719Y130205D01*
X227726Y130171D01*
X227733Y130141D01*
X227736Y130113D01*
X227740Y130090D01*
Y130059D01*
X227733Y129971D01*
X227719Y129893D01*
X227699Y129824D01*
X227675Y129763D01*
X227652Y129719D01*
X227631Y129682D01*
X227621Y129672D01*
X227618Y129661D01*
X227611Y129658D01*
Y129655D01*
X227556Y129597D01*
X227495Y129549D01*
X227434Y129508D01*
X227373Y129474D01*
X227318Y129447D01*
X227298Y129437D01*
X227277Y129427D01*
X227260Y129420D01*
X227247Y129417D01*
X227240Y129413D01*
X227237D01*
X227189Y129400D01*
X227141Y129386D01*
X227036Y129366D01*
X226931Y129352D01*
X226829Y129342D01*
X226781Y129338D01*
X226737Y129335D01*
X226699D01*
X226665Y129332D01*
X226638D01*
X226618D01*
X226604D01*
X226601D01*
X226482Y129335D01*
X226431D01*
X226380Y129338D01*
X226332Y129342D01*
X226288Y129349D01*
X226251Y129352D01*
X226213Y129355D01*
X226183Y129362D01*
X226152Y129366D01*
X226128Y129369D01*
X226111Y129376D01*
X226094Y129379D01*
X226084D01*
X226077Y129383D01*
X226074D01*
X226002Y129403D01*
X225938Y129427D01*
X225880Y129451D01*
X225833Y129471D01*
X225795Y129491D01*
X225764Y129508D01*
X225747Y129518D01*
X225741Y129522D01*
X225693Y129556D01*
X225652Y129593D01*
X225615Y129631D01*
X225584Y129665D01*
X225564Y129699D01*
X225547Y129722D01*
X225537Y129739D01*
X225533Y129746D01*
X225510Y129797D01*
X225489Y129852D01*
X225476Y129906D01*
X225469Y129954D01*
X225462Y129994D01*
X225458Y130028D01*
Y130059D01*
X225465Y130148D01*
X225479Y130226D01*
X225499Y130297D01*
X225523Y130355D01*
X225550Y130403D01*
X225571Y130437D01*
X225577Y130450D01*
X225584Y130460D01*
X225591Y130464D01*
Y130467D01*
X225645Y130525D01*
X225703Y130572D01*
X225764Y130613D01*
X225826Y130647D01*
X225880Y130675D01*
X225904Y130685D01*
X225924Y130692D01*
X225941Y130698D01*
X225955Y130705D01*
X225962Y130709D01*
X225965D01*
X226013Y130722D01*
X226060Y130736D01*
X226166Y130753D01*
X226271Y130766D01*
X226373Y130777D01*
X226421Y130780D01*
X226465Y130783D01*
X226502D01*
X226536Y130787D01*
X226564D01*
X226584D01*
X226597D01*
X226601D01*
X226713Y130783D01*
D02*
G37*
G36*
X221410Y123276D02*
X221392Y122220D01*
X221485Y122294D01*
X221582Y122361D01*
X221678Y122425D01*
X221767Y122483D01*
X221810Y122505D01*
X221847Y122527D01*
X221880Y122547D01*
X221910Y122562D01*
X221933Y122575D01*
X221950Y122585D01*
X221963Y122591D01*
X221966Y122594D01*
X222092Y122654D01*
X222217Y122708D01*
X222336Y122752D01*
X222392Y122770D01*
X222442Y122789D01*
X222491Y122805D01*
X222534Y122817D01*
X222571Y122830D01*
X222604Y122839D01*
X222630Y122845D01*
X222650Y122851D01*
X222663Y122854D01*
X222666Y122854D01*
X222798Y122885D01*
X222857Y122897D01*
X222916Y122906D01*
X222969Y122915D01*
X223018Y122920D01*
X223068Y122926D01*
X223110Y122932D01*
X223147Y122934D01*
X223183Y122937D01*
X223212Y122940D01*
X223235Y122939D01*
X223255Y122942D01*
X223268Y122942D01*
X223278Y122942D01*
X223281Y122942D01*
X223276Y122670D01*
X223158Y122662D01*
X223046Y122651D01*
X222948Y122636D01*
X222902Y122627D01*
X222859Y122621D01*
X222823Y122612D01*
X222786Y122606D01*
X222757Y122600D01*
X222730Y122594D01*
X222711Y122588D01*
X222697Y122585D01*
X222688Y122582D01*
X222684Y122582D01*
X222539Y122538D01*
X222404Y122491D01*
X222338Y122466D01*
X222275Y122441D01*
X222216Y122416D01*
X222163Y122394D01*
X222113Y122372D01*
X222067Y122350D01*
X222027Y122331D01*
X221994Y122315D01*
X221968Y122302D01*
X221948Y122293D01*
X221935Y122286D01*
X221931Y122283D01*
X221865Y122245D01*
X221799Y122210D01*
X221739Y122172D01*
X221683Y122137D01*
X221630Y122105D01*
X221583Y122069D01*
X221536Y122037D01*
X221497Y122009D01*
X221463Y121983D01*
X221430Y121957D01*
X221404Y121935D01*
X221380Y121919D01*
X221364Y121903D01*
X221350Y121893D01*
X221344Y121887D01*
X221340Y121883D01*
X221134Y121887D01*
X221158Y123281D01*
X221410Y123276D01*
D02*
G37*
G36*
X222159Y121607D02*
X222179Y121606D01*
X222192Y121606D01*
X222195Y121606D01*
X222303Y121601D01*
X222408Y121592D01*
X222500Y121581D01*
X222588Y121566D01*
X222666Y121549D01*
X222738Y121531D01*
X222803Y121510D01*
X222859Y121490D01*
X222911Y121469D01*
X222953Y121448D01*
X222989Y121431D01*
X223018Y121414D01*
X223041Y121401D01*
X223057Y121391D01*
X223067Y121384D01*
X223070Y121381D01*
X223109Y121344D01*
X223141Y121307D01*
X223170Y121267D01*
X223195Y121224D01*
X223214Y121185D01*
X223233Y121142D01*
X223258Y121063D01*
X223264Y121026D01*
X223270Y120993D01*
X223276Y120964D01*
X223279Y120938D01*
X223282Y120914D01*
X223281Y120885D01*
X223273Y120800D01*
X223259Y120725D01*
X223238Y120659D01*
X223214Y120601D01*
X223190Y120559D01*
X223170Y120523D01*
X223160Y120513D01*
X223157Y120503D01*
X223150Y120500D01*
X223150Y120497D01*
X223096Y120442D01*
X223037Y120397D01*
X222977Y120359D01*
X222917Y120327D01*
X222864Y120302D01*
X222845Y120292D01*
X222825Y120283D01*
X222808Y120276D01*
X222795Y120273D01*
X222788Y120270D01*
X222785Y120270D01*
X222739Y120258D01*
X222693Y120246D01*
X222591Y120228D01*
X222489Y120217D01*
X222390Y120208D01*
X222344Y120206D01*
X222302Y120203D01*
X222266Y120204D01*
X222233Y120201D01*
X222206Y120202D01*
X222187Y120202D01*
X222174Y120202D01*
X222170Y120202D01*
X222056Y120208D01*
X222007Y120209D01*
X221957Y120213D01*
X221912Y120217D01*
X221869Y120224D01*
X221833Y120228D01*
X221797Y120232D01*
X221768Y120239D01*
X221738Y120243D01*
X221715Y120246D01*
X221699Y120253D01*
X221683Y120257D01*
X221673Y120257D01*
X221666Y120260D01*
X221663Y120261D01*
X221594Y120281D01*
X221533Y120305D01*
X221477Y120329D01*
X221432Y120350D01*
X221396Y120370D01*
X221367Y120387D01*
X221350Y120397D01*
X221344Y120401D01*
X221299Y120434D01*
X221260Y120471D01*
X221224Y120508D01*
X221196Y120541D01*
X221176Y120574D01*
X221160Y120597D01*
X221151Y120614D01*
X221148Y120621D01*
X221126Y120670D01*
X221107Y120723D01*
X221095Y120776D01*
X221089Y120822D01*
X221083Y120861D01*
X221080Y120894D01*
X221081Y120923D01*
X221089Y121009D01*
X221103Y121084D01*
X221124Y121152D01*
X221148Y121208D01*
X221175Y121253D01*
X221195Y121286D01*
X221202Y121299D01*
X221209Y121308D01*
X221216Y121311D01*
X221216Y121315D01*
X221269Y121370D01*
X221325Y121414D01*
X221385Y121453D01*
X221445Y121485D01*
X221498Y121510D01*
X221521Y121519D01*
X221541Y121526D01*
X221557Y121532D01*
X221570Y121538D01*
X221577Y121541D01*
X221580Y121541D01*
X221626Y121554D01*
X221673Y121566D01*
X221775Y121581D01*
X221877Y121592D01*
X221975Y121600D01*
X222021Y121602D01*
X222064Y121605D01*
X222100Y121604D01*
X222133Y121607D01*
X222159Y121607D01*
D02*
G37*
G36*
X237139Y66273D02*
X237115Y66220D01*
X237095Y66170D01*
X237071Y66124D01*
X237051Y66085D01*
X237034Y66053D01*
X237020Y66031D01*
X237016Y66028D01*
X237016Y66024D01*
X236982Y65964D01*
X236944Y65911D01*
X236913Y65864D01*
X236882Y65825D01*
X236858Y65793D01*
X236841Y65768D01*
X236827Y65754D01*
X236824Y65750D01*
X238633Y65781D01*
X238638Y65496D01*
X236315Y65456D01*
X236312Y65642D01*
X236368Y65675D01*
X236423Y65715D01*
X236475Y65758D01*
X236524Y65801D01*
X236562Y65840D01*
X236593Y65873D01*
X236614Y65894D01*
X236617Y65898D01*
X236621Y65901D01*
X236676Y65969D01*
X236727Y66040D01*
X236772Y66112D01*
X236809Y66176D01*
X236840Y66233D01*
X236850Y66257D01*
X236860Y66279D01*
X236871Y66293D01*
X236878Y66307D01*
X236881Y66314D01*
X236881Y66318D01*
X237159Y66323D01*
X237139Y66273D01*
D02*
G37*
G36*
X238114Y63854D02*
X238667Y63863D01*
X238671Y63578D01*
X238119Y63569D01*
X238124Y63256D01*
X237864Y63251D01*
X237859Y63564D01*
X236363Y63538D01*
X236359Y63770D01*
X237836Y64852D01*
X238096Y64857D01*
X238114Y63854D01*
D02*
G37*
G36*
X237658Y62955D02*
X237771Y62950D01*
X237869Y62941D01*
X237965Y62929D01*
X238049Y62913D01*
X238127Y62896D01*
X238198Y62876D01*
X238258Y62857D01*
X238315Y62836D01*
X238361Y62816D01*
X238400Y62799D01*
X238432Y62782D01*
X238457Y62768D01*
X238474Y62758D01*
X238485Y62751D01*
X238489Y62748D01*
X238532Y62710D01*
X238568Y62672D01*
X238600Y62630D01*
X238629Y62585D01*
X238651Y62543D01*
X238673Y62498D01*
X238702Y62414D01*
X238710Y62375D01*
X238718Y62340D01*
X238725Y62308D01*
X238729Y62280D01*
X238733Y62256D01*
X238734Y62224D01*
X238728Y62132D01*
X238716Y62051D01*
X238696Y61980D01*
X238672Y61917D01*
X238649Y61870D01*
X238628Y61831D01*
X238618Y61821D01*
X238614Y61810D01*
X238607Y61806D01*
X238607Y61803D01*
X238552Y61742D01*
X238490Y61692D01*
X238427Y61648D01*
X238364Y61612D01*
X238309Y61583D01*
X238287Y61572D01*
X238267Y61561D01*
X238249Y61554D01*
X238235Y61550D01*
X238228Y61546D01*
X238225Y61546D01*
X238176Y61531D01*
X238127Y61516D01*
X238018Y61493D01*
X237909Y61477D01*
X237804Y61465D01*
X237754Y61461D01*
X237709Y61456D01*
X237670Y61456D01*
X237635Y61452D01*
X237607Y61451D01*
X237586Y61451D01*
X237572Y61450D01*
X237568Y61450D01*
X237445Y61452D01*
X237392Y61451D01*
X237339Y61453D01*
X237290Y61456D01*
X237244Y61462D01*
X237205Y61465D01*
X237166Y61468D01*
X237135Y61474D01*
X237103Y61477D01*
X237078Y61480D01*
X237060Y61487D01*
X237043Y61490D01*
X237032Y61490D01*
X237025Y61494D01*
X237021Y61494D01*
X236947Y61513D01*
X236880Y61537D01*
X236820Y61560D01*
X236770Y61581D01*
X236731Y61601D01*
X236699Y61618D01*
X236681Y61628D01*
X236674Y61632D01*
X236624Y61666D01*
X236581Y61704D01*
X236542Y61742D01*
X236510Y61777D01*
X236488Y61812D01*
X236470Y61836D01*
X236459Y61853D01*
X236455Y61860D01*
X236430Y61913D01*
X236408Y61969D01*
X236393Y62025D01*
X236385Y62074D01*
X236377Y62116D01*
X236373Y62151D01*
X236372Y62183D01*
X236378Y62274D01*
X236390Y62356D01*
X236410Y62430D01*
X236434Y62490D01*
X236461Y62540D01*
X236482Y62576D01*
X236488Y62590D01*
X236495Y62600D01*
X236502Y62604D01*
X236502Y62608D01*
X236557Y62668D01*
X236616Y62719D01*
X236679Y62762D01*
X236742Y62798D01*
X236798Y62827D01*
X236822Y62838D01*
X236843Y62846D01*
X236860Y62853D01*
X236874Y62861D01*
X236881Y62864D01*
X236885Y62864D01*
X236934Y62879D01*
X236983Y62894D01*
X237092Y62914D01*
X237201Y62929D01*
X237306Y62942D01*
X237355Y62946D01*
X237401Y62951D01*
X237440Y62951D01*
X237475Y62955D01*
X237503Y62956D01*
X237524Y62956D01*
X237538Y62957D01*
X237542Y62957D01*
X237658Y62955D01*
D02*
G37*
G36*
X244620Y60962D02*
X244596Y60911D01*
X244576Y60864D01*
X244552Y60819D01*
X244532Y60782D01*
X244515Y60751D01*
X244501Y60731D01*
X244498Y60728D01*
Y60724D01*
X244464Y60666D01*
X244426Y60615D01*
X244396Y60571D01*
X244365Y60534D01*
X244341Y60503D01*
X244324Y60479D01*
X244311Y60466D01*
X244307Y60462D01*
X246055D01*
Y60187D01*
X243811D01*
Y60367D01*
X243865Y60398D01*
X243920Y60435D01*
X243971Y60476D01*
X244018Y60517D01*
X244056Y60554D01*
X244086Y60585D01*
X244107Y60605D01*
X244110Y60609D01*
X244113Y60612D01*
X244168Y60676D01*
X244219Y60745D01*
X244263Y60812D01*
X244300Y60874D01*
X244331Y60928D01*
X244341Y60952D01*
X244351Y60972D01*
X244362Y60986D01*
X244368Y61000D01*
X244372Y61006D01*
Y61010D01*
X244640D01*
X244620Y60962D01*
D02*
G37*
G36*
X245521Y59480D02*
X245572Y59469D01*
X245660Y59442D01*
X245739Y59405D01*
X245803Y59368D01*
X245830Y59347D01*
X245854Y59330D01*
X245875Y59313D01*
X245892Y59299D01*
X245905Y59286D01*
X245915Y59276D01*
X245919Y59272D01*
X245922Y59269D01*
X245953Y59232D01*
X245977Y59191D01*
X246000Y59150D01*
X246021Y59109D01*
X246051Y59027D01*
X246072Y58949D01*
X246079Y58912D01*
X246082Y58878D01*
X246085Y58847D01*
X246089Y58824D01*
X246092Y58803D01*
Y58772D01*
X246089Y58705D01*
X246082Y58640D01*
X246068Y58582D01*
X246051Y58524D01*
X246031Y58473D01*
X246007Y58422D01*
X245983Y58378D01*
X245956Y58341D01*
X245932Y58303D01*
X245909Y58273D01*
X245885Y58245D01*
X245864Y58225D01*
X245847Y58208D01*
X245834Y58195D01*
X245827Y58188D01*
X245824Y58184D01*
X245783Y58154D01*
X245739Y58126D01*
X245694Y58103D01*
X245647Y58082D01*
X245562Y58052D01*
X245480Y58028D01*
X245443Y58021D01*
X245409Y58018D01*
X245378Y58014D01*
X245351Y58011D01*
X245331Y58008D01*
X245314D01*
X245303D01*
X245300D01*
X245242Y58011D01*
X245184Y58018D01*
X245133Y58028D01*
X245082Y58038D01*
X245038Y58055D01*
X244994Y58072D01*
X244957Y58089D01*
X244919Y58109D01*
X244889Y58130D01*
X244861Y58147D01*
X244838Y58164D01*
X244817Y58181D01*
X244800Y58191D01*
X244790Y58201D01*
X244783Y58208D01*
X244780Y58211D01*
X244742Y58249D01*
X244712Y58290D01*
X244685Y58331D01*
X244661Y58375D01*
X244640Y58416D01*
X244627Y58456D01*
X244600Y58534D01*
X244593Y58569D01*
X244586Y58602D01*
X244583Y58630D01*
X244579Y58657D01*
X244576Y58677D01*
Y58705D01*
X244583Y58786D01*
X244600Y58864D01*
X244620Y58936D01*
X244647Y58997D01*
X244674Y59051D01*
X244685Y59072D01*
X244695Y59092D01*
X244705Y59106D01*
X244712Y59116D01*
X244715Y59123D01*
X244719Y59126D01*
X244117Y59004D01*
Y58113D01*
X243855D01*
Y59221D01*
X245001Y59439D01*
X245038Y59180D01*
X245004Y59157D01*
X244974Y59130D01*
X244946Y59102D01*
X244923Y59079D01*
X244906Y59055D01*
X244892Y59034D01*
X244885Y59021D01*
X244882Y59017D01*
X244861Y58977D01*
X244844Y58936D01*
X244834Y58895D01*
X244824Y58858D01*
X244821Y58824D01*
X244817Y58800D01*
Y58776D01*
X244824Y58701D01*
X244838Y58633D01*
X244861Y58572D01*
X244885Y58524D01*
X244909Y58483D01*
X244933Y58456D01*
X244946Y58439D01*
X244953Y58433D01*
X245008Y58388D01*
X245069Y58354D01*
X245130Y58331D01*
X245188Y58317D01*
X245242Y58307D01*
X245266Y58303D01*
X245286D01*
X245300Y58300D01*
X245314D01*
X245320D01*
X245324D01*
X245412Y58307D01*
X245490Y58320D01*
X245558Y58344D01*
X245616Y58368D01*
X245660Y58392D01*
X245694Y58416D01*
X245715Y58429D01*
X245718Y58436D01*
X245722D01*
X245749Y58463D01*
X245769Y58490D01*
X245807Y58545D01*
X245830Y58602D01*
X245851Y58653D01*
X245861Y58701D01*
X245864Y58738D01*
X245868Y58752D01*
Y58772D01*
X245864Y58830D01*
X245851Y58885D01*
X245834Y58932D01*
X245817Y58973D01*
X245796Y59007D01*
X245783Y59031D01*
X245769Y59044D01*
X245766Y59051D01*
X245722Y59092D01*
X245671Y59123D01*
X245620Y59150D01*
X245569Y59167D01*
X245521Y59180D01*
X245484Y59191D01*
X245470Y59194D01*
X245460Y59197D01*
X245453D01*
X245450D01*
X245470Y59487D01*
X245521Y59480D01*
D02*
G37*
G36*
X245065Y57749D02*
X245174Y57742D01*
X245269Y57732D01*
X245361Y57718D01*
X245443Y57701D01*
X245518Y57684D01*
X245586Y57664D01*
X245643Y57644D01*
X245698Y57623D01*
X245742Y57603D01*
X245779Y57586D01*
X245810Y57569D01*
X245834Y57555D01*
X245851Y57545D01*
X245861Y57538D01*
X245864Y57535D01*
X245905Y57498D01*
X245939Y57460D01*
X245970Y57419D01*
X245997Y57375D01*
X246017Y57334D01*
X246038Y57290D01*
X246065Y57209D01*
X246072Y57171D01*
X246079Y57137D01*
X246085Y57107D01*
X246089Y57079D01*
X246092Y57055D01*
Y57025D01*
X246085Y56937D01*
X246072Y56858D01*
X246051Y56790D01*
X246028Y56729D01*
X246004Y56685D01*
X245983Y56647D01*
X245973Y56637D01*
X245970Y56627D01*
X245963Y56624D01*
Y56620D01*
X245909Y56563D01*
X245847Y56515D01*
X245786Y56474D01*
X245725Y56440D01*
X245671Y56413D01*
X245650Y56403D01*
X245630Y56393D01*
X245613Y56386D01*
X245599Y56382D01*
X245592Y56379D01*
X245589D01*
X245541Y56365D01*
X245494Y56352D01*
X245388Y56331D01*
X245283Y56318D01*
X245181Y56308D01*
X245133Y56304D01*
X245089Y56301D01*
X245052D01*
X245018Y56297D01*
X244991D01*
X244970D01*
X244957D01*
X244953D01*
X244834Y56301D01*
X244783D01*
X244732Y56304D01*
X244685Y56308D01*
X244640Y56314D01*
X244603Y56318D01*
X244566Y56321D01*
X244535Y56328D01*
X244504Y56331D01*
X244481Y56335D01*
X244464Y56341D01*
X244447Y56345D01*
X244436D01*
X244430Y56348D01*
X244426D01*
X244355Y56369D01*
X244290Y56393D01*
X244232Y56416D01*
X244185Y56437D01*
X244147Y56457D01*
X244117Y56474D01*
X244100Y56484D01*
X244093Y56488D01*
X244045Y56522D01*
X244005Y56559D01*
X243967Y56596D01*
X243937Y56630D01*
X243916Y56665D01*
X243899Y56688D01*
X243889Y56705D01*
X243886Y56712D01*
X243862Y56763D01*
X243841Y56818D01*
X243828Y56872D01*
X243821Y56919D01*
X243814Y56960D01*
X243811Y56994D01*
Y57025D01*
X243818Y57113D01*
X243831Y57191D01*
X243852Y57263D01*
X243875Y57321D01*
X243903Y57368D01*
X243923Y57402D01*
X243930Y57416D01*
X243937Y57426D01*
X243943Y57429D01*
Y57433D01*
X243998Y57491D01*
X244056Y57538D01*
X244117Y57579D01*
X244178Y57613D01*
X244232Y57640D01*
X244256Y57651D01*
X244277Y57657D01*
X244294Y57664D01*
X244307Y57671D01*
X244314Y57674D01*
X244317D01*
X244365Y57688D01*
X244413Y57701D01*
X244518Y57718D01*
X244623Y57732D01*
X244725Y57742D01*
X244773Y57746D01*
X244817Y57749D01*
X244855D01*
X244889Y57753D01*
X244916D01*
X244936D01*
X244950D01*
X244953D01*
X245065Y57749D01*
D02*
G37*
G36*
X238085Y144767D02*
X238637Y144776D01*
X238642Y144491D01*
X238089Y144482D01*
X238095Y144169D01*
X237835Y144164D01*
X237829Y144477D01*
X236333Y144451D01*
X236329Y144683D01*
X237807Y145765D01*
X238067Y145770D01*
X238085Y144767D01*
D02*
G37*
G36*
X237629Y143868D02*
X237741Y143863D01*
X237840Y143854D01*
X237935Y143842D01*
X238020Y143826D01*
X238098Y143809D01*
X238169Y143790D01*
X238229Y143770D01*
X238285Y143749D01*
X238332Y143729D01*
X238370Y143712D01*
X238403Y143695D01*
X238427Y143682D01*
X238445Y143671D01*
X238456Y143664D01*
X238459Y143661D01*
X238502Y143623D01*
X238538Y143585D01*
X238571Y143543D01*
X238600Y143498D01*
X238621Y143456D01*
X238643Y143411D01*
X238673Y143327D01*
X238681Y143288D01*
X238688Y143253D01*
X238696Y143221D01*
X238700Y143193D01*
X238704Y143169D01*
X238704Y143137D01*
X238699Y143045D01*
X238686Y142964D01*
X238666Y142894D01*
X238643Y142830D01*
X238619Y142784D01*
X238599Y142745D01*
X238588Y142734D01*
X238585Y142723D01*
X238578Y142719D01*
X238578Y142716D01*
X238523Y142655D01*
X238460Y142605D01*
X238398Y142561D01*
X238335Y142525D01*
X238279Y142496D01*
X238258Y142485D01*
X238237Y142474D01*
X238220Y142467D01*
X238206Y142463D01*
X238199Y142459D01*
X238195Y142459D01*
X238146Y142444D01*
X238097Y142429D01*
X237988Y142406D01*
X237880Y142390D01*
X237774Y142378D01*
X237725Y142374D01*
X237679Y142369D01*
X237641Y142369D01*
X237605Y142365D01*
X237577Y142364D01*
X237556Y142364D01*
X237542Y142363D01*
X237539Y142363D01*
X237415Y142365D01*
X237363Y142364D01*
X237310Y142366D01*
X237260Y142369D01*
X237214Y142375D01*
X237176Y142378D01*
X237137Y142381D01*
X237105Y142387D01*
X237073Y142391D01*
X237049Y142394D01*
X237031Y142400D01*
X237013Y142403D01*
X237003Y142403D01*
X236996Y142407D01*
X236992Y142407D01*
X236918Y142427D01*
X236851Y142450D01*
X236790Y142473D01*
X236741Y142494D01*
X236702Y142514D01*
X236670Y142531D01*
X236652Y142542D01*
X236645Y142545D01*
X236595Y142579D01*
X236552Y142617D01*
X236512Y142655D01*
X236480Y142690D01*
X236458Y142725D01*
X236440Y142749D01*
X236430Y142766D01*
X236426Y142773D01*
X236400Y142826D01*
X236378Y142882D01*
X236363Y142938D01*
X236355Y142987D01*
X236348Y143029D01*
X236343Y143064D01*
X236343Y143096D01*
X236348Y143187D01*
X236361Y143269D01*
X236381Y143343D01*
X236404Y143403D01*
X236432Y143453D01*
X236452Y143489D01*
X236459Y143503D01*
X236466Y143514D01*
X236473Y143517D01*
X236473Y143521D01*
X236528Y143581D01*
X236587Y143632D01*
X236650Y143675D01*
X236712Y143711D01*
X236768Y143740D01*
X236793Y143752D01*
X236814Y143759D01*
X236831Y143766D01*
X236845Y143774D01*
X236852Y143777D01*
X236856Y143777D01*
X236905Y143792D01*
X236954Y143807D01*
X237062Y143827D01*
X237171Y143843D01*
X237277Y143855D01*
X237326Y143859D01*
X237371Y143864D01*
X237410Y143864D01*
X237445Y143869D01*
X237474Y143869D01*
X237495Y143869D01*
X237509Y143870D01*
X237512Y143870D01*
X237629Y143868D01*
D02*
G37*
G36*
X232282Y139966D02*
X232333Y139955D01*
X232421Y139928D01*
X232499Y139891D01*
X232564Y139854D01*
X232591Y139833D01*
X232615Y139816D01*
X232635Y139799D01*
X232652Y139786D01*
X232666Y139772D01*
X232676Y139762D01*
X232680Y139758D01*
X232683Y139755D01*
X232714Y139717D01*
X232737Y139677D01*
X232761Y139636D01*
X232782Y139595D01*
X232812Y139514D01*
X232833Y139435D01*
X232839Y139398D01*
X232843Y139364D01*
X232846Y139333D01*
X232850Y139310D01*
X232853Y139289D01*
Y139259D01*
X232850Y139190D01*
X232843Y139126D01*
X232829Y139068D01*
X232812Y139010D01*
X232792Y138959D01*
X232768Y138908D01*
X232744Y138864D01*
X232717Y138827D01*
X232693Y138789D01*
X232669Y138759D01*
X232646Y138732D01*
X232625Y138711D01*
X232608Y138694D01*
X232594Y138681D01*
X232588Y138674D01*
X232584Y138670D01*
X232543Y138640D01*
X232499Y138612D01*
X232455Y138589D01*
X232407Y138568D01*
X232323Y138538D01*
X232241Y138514D01*
X232204Y138507D01*
X232170Y138504D01*
X232139Y138500D01*
X232112Y138497D01*
X232091Y138494D01*
X232074D01*
X232064D01*
X232061D01*
X232003Y138497D01*
X231945Y138504D01*
X231894Y138514D01*
X231843Y138524D01*
X231799Y138541D01*
X231755Y138558D01*
X231717Y138575D01*
X231680Y138595D01*
X231649Y138616D01*
X231622Y138633D01*
X231598Y138650D01*
X231578Y138667D01*
X231561Y138677D01*
X231551Y138687D01*
X231544Y138694D01*
X231540Y138698D01*
X231503Y138735D01*
X231472Y138776D01*
X231445Y138816D01*
X231421Y138861D01*
X231401Y138901D01*
X231387Y138942D01*
X231360Y139021D01*
X231353Y139055D01*
X231347Y139088D01*
X231343Y139116D01*
X231340Y139143D01*
X231336Y139163D01*
Y139190D01*
X231343Y139272D01*
X231360Y139350D01*
X231381Y139422D01*
X231408Y139483D01*
X231435Y139537D01*
X231445Y139558D01*
X231455Y139578D01*
X231466Y139592D01*
X231472Y139602D01*
X231476Y139609D01*
X231479Y139612D01*
X230877Y139490D01*
Y138599D01*
X230616D01*
Y139707D01*
X231762Y139925D01*
X231799Y139666D01*
X231765Y139643D01*
X231734Y139615D01*
X231707Y139588D01*
X231683Y139565D01*
X231666Y139541D01*
X231653Y139520D01*
X231646Y139507D01*
X231643Y139503D01*
X231622Y139462D01*
X231605Y139422D01*
X231595Y139381D01*
X231585Y139344D01*
X231581Y139310D01*
X231578Y139286D01*
Y139262D01*
X231585Y139187D01*
X231598Y139119D01*
X231622Y139058D01*
X231646Y139010D01*
X231670Y138970D01*
X231694Y138942D01*
X231707Y138925D01*
X231714Y138918D01*
X231768Y138874D01*
X231830Y138840D01*
X231891Y138816D01*
X231948Y138803D01*
X232003Y138793D01*
X232027Y138789D01*
X232047D01*
X232061Y138786D01*
X232074D01*
X232081D01*
X232084D01*
X232173Y138793D01*
X232251Y138806D01*
X232319Y138830D01*
X232377Y138854D01*
X232421Y138878D01*
X232455Y138901D01*
X232475Y138915D01*
X232479Y138922D01*
X232482D01*
X232509Y138949D01*
X232530Y138976D01*
X232567Y139031D01*
X232591Y139088D01*
X232611Y139139D01*
X232622Y139187D01*
X232625Y139225D01*
X232628Y139238D01*
Y139259D01*
X232625Y139316D01*
X232611Y139371D01*
X232594Y139418D01*
X232577Y139459D01*
X232557Y139493D01*
X232543Y139517D01*
X232530Y139531D01*
X232526Y139537D01*
X232482Y139578D01*
X232431Y139609D01*
X232380Y139636D01*
X232329Y139653D01*
X232282Y139666D01*
X232244Y139677D01*
X232231Y139680D01*
X232221Y139683D01*
X232214D01*
X232210D01*
X232231Y139972D01*
X232282Y139966D01*
D02*
G37*
G36*
X231826Y138235D02*
X231935Y138228D01*
X232030Y138218D01*
X232122Y138205D01*
X232204Y138188D01*
X232278Y138171D01*
X232346Y138150D01*
X232404Y138130D01*
X232458Y138109D01*
X232503Y138089D01*
X232540Y138072D01*
X232571Y138055D01*
X232594Y138041D01*
X232611Y138031D01*
X232622Y138024D01*
X232625Y138021D01*
X232666Y137984D01*
X232700Y137946D01*
X232731Y137905D01*
X232758Y137861D01*
X232778Y137820D01*
X232799Y137776D01*
X232826Y137695D01*
X232833Y137657D01*
X232839Y137623D01*
X232846Y137592D01*
X232850Y137565D01*
X232853Y137541D01*
Y137511D01*
X232846Y137423D01*
X232833Y137344D01*
X232812Y137276D01*
X232788Y137215D01*
X232765Y137171D01*
X232744Y137134D01*
X232734Y137123D01*
X232731Y137113D01*
X232724Y137110D01*
Y137106D01*
X232669Y137048D01*
X232608Y137001D01*
X232547Y136960D01*
X232486Y136926D01*
X232431Y136899D01*
X232411Y136889D01*
X232390Y136879D01*
X232373Y136872D01*
X232360Y136868D01*
X232353Y136865D01*
X232350D01*
X232302Y136851D01*
X232255Y136838D01*
X232149Y136817D01*
X232044Y136804D01*
X231942Y136793D01*
X231894Y136790D01*
X231850Y136787D01*
X231813D01*
X231779Y136783D01*
X231751D01*
X231731D01*
X231717D01*
X231714D01*
X231595Y136787D01*
X231544D01*
X231493Y136790D01*
X231445Y136793D01*
X231401Y136800D01*
X231364Y136804D01*
X231326Y136807D01*
X231296Y136814D01*
X231265Y136817D01*
X231241Y136821D01*
X231224Y136828D01*
X231207Y136831D01*
X231197D01*
X231190Y136834D01*
X231187D01*
X231116Y136855D01*
X231051Y136879D01*
X230993Y136902D01*
X230945Y136923D01*
X230908Y136943D01*
X230877Y136960D01*
X230860Y136970D01*
X230854Y136974D01*
X230806Y137008D01*
X230765Y137045D01*
X230728Y137083D01*
X230697Y137117D01*
X230677Y137151D01*
X230660Y137174D01*
X230650Y137191D01*
X230646Y137198D01*
X230623Y137249D01*
X230602Y137303D01*
X230589Y137358D01*
X230582Y137406D01*
X230575Y137446D01*
X230572Y137480D01*
Y137511D01*
X230578Y137599D01*
X230592Y137678D01*
X230612Y137749D01*
X230636Y137807D01*
X230663Y137854D01*
X230684Y137888D01*
X230691Y137902D01*
X230697Y137912D01*
X230704Y137916D01*
Y137919D01*
X230759Y137977D01*
X230816Y138024D01*
X230877Y138065D01*
X230939Y138099D01*
X230993Y138126D01*
X231017Y138136D01*
X231037Y138143D01*
X231054Y138150D01*
X231068Y138157D01*
X231075Y138160D01*
X231078D01*
X231126Y138174D01*
X231173Y138188D01*
X231279Y138205D01*
X231384Y138218D01*
X231486Y138228D01*
X231534Y138232D01*
X231578Y138235D01*
X231615D01*
X231649Y138239D01*
X231677D01*
X231697D01*
X231711D01*
X231714D01*
X231826Y138235D01*
D02*
G37*
%LPC*%
G36*
X269599Y155543D02*
X269516Y155541D01*
X269443Y155538D01*
X269376Y155536D01*
X269312Y155527D01*
X269256Y155521D01*
X269207Y155511D01*
X269164Y155501D01*
X269127Y155494D01*
X269093Y155484D01*
X269068Y155473D01*
X269046Y155465D01*
X269031Y155460D01*
X269019Y155454D01*
X269012Y155448D01*
X269009Y155449D01*
X268984Y155432D01*
X268958Y155412D01*
X268920Y155368D01*
X268893Y155324D01*
X268873Y155282D01*
X268858Y155243D01*
X268854Y155213D01*
X268850Y155201D01*
X268849Y155186D01*
X268851Y155156D01*
X268852Y155125D01*
X268867Y155069D01*
X268892Y155019D01*
X268920Y154975D01*
X268949Y154940D01*
X268975Y154915D01*
X268992Y154898D01*
X268995Y154892D01*
X268998Y154892D01*
X269030Y154869D01*
X269069Y154849D01*
X269114Y154831D01*
X269165Y154816D01*
X269270Y154789D01*
X269379Y154772D01*
X269433Y154763D01*
X269481Y154757D01*
X269527Y154752D01*
X269566Y154750D01*
X269599Y154745D01*
X269624Y154744D01*
X269639Y154743D01*
X269645Y154743D01*
X269733Y154738D01*
X269815Y154740D01*
X269888Y154739D01*
X269955Y154745D01*
X270017Y154750D01*
X270072Y154757D01*
X270118Y154763D01*
X270161Y154773D01*
X270195Y154784D01*
X270226Y154791D01*
X270254Y154799D01*
X270272Y154807D01*
X270288Y154812D01*
X270297Y154818D01*
X270304Y154824D01*
X270307Y154824D01*
X270335Y154843D01*
X270361Y154866D01*
X270386Y154889D01*
X270406Y154913D01*
X270436Y154957D01*
X270456Y155001D01*
X270470Y155040D01*
X270478Y155070D01*
X270482Y155082D01*
X270482Y155097D01*
X270481Y155128D01*
X270479Y155158D01*
X270464Y155214D01*
X270439Y155264D01*
X270411Y155308D01*
X270386Y155343D01*
X270360Y155369D01*
X270342Y155385D01*
X270339Y155391D01*
X270337Y155391D01*
X270304Y155411D01*
X270263Y155432D01*
X270218Y155449D01*
X270170Y155464D01*
X270062Y155491D01*
X269953Y155509D01*
X269902Y155517D01*
X269850Y155523D01*
X269805Y155529D01*
X269765Y155531D01*
X269732Y155535D01*
X269708Y155537D01*
X269693Y155537D01*
X269687Y155538D01*
X269599Y155543D01*
D02*
G37*
G36*
X261963Y155045D02*
X261934Y155044D01*
X261917Y155044D01*
X261910Y155044D01*
X261808Y155042D01*
X261713Y155034D01*
X261628Y155025D01*
X261551Y155017D01*
X261477Y155001D01*
X261414Y154990D01*
X261358Y154974D01*
X261309Y154960D01*
X261267Y154948D01*
X261229Y154934D01*
X261201Y154919D01*
X261176Y154908D01*
X261159Y154901D01*
X261145Y154893D01*
X261138Y154886D01*
X261134Y154886D01*
X261107Y154865D01*
X261079Y154839D01*
X261038Y154786D01*
X261010Y154733D01*
X260990Y154683D01*
X260977Y154637D01*
X260974Y154602D01*
X260971Y154587D01*
X260971Y154570D01*
X260975Y154535D01*
X260979Y154500D01*
X261001Y154437D01*
X261034Y154381D01*
X261070Y154332D01*
X261106Y154294D01*
X261138Y154267D01*
X261160Y154249D01*
X261163Y154242D01*
X261167Y154242D01*
X261206Y154218D01*
X261252Y154198D01*
X261305Y154182D01*
X261365Y154168D01*
X261489Y154146D01*
X261616Y154134D01*
X261679Y154128D01*
X261736Y154126D01*
X261789Y154123D01*
X261834Y154124D01*
X261873Y154121D01*
X261901Y154121D01*
X261919Y154122D01*
X261926Y154122D01*
X262028Y154124D01*
X262123Y154132D01*
X262207Y154137D01*
X262284Y154149D01*
X262355Y154161D01*
X262418Y154173D01*
X262470Y154184D01*
X262519Y154199D01*
X262558Y154214D01*
X262593Y154225D01*
X262624Y154236D01*
X262645Y154247D01*
X262663Y154254D01*
X262673Y154262D01*
X262680Y154269D01*
X262684Y154269D01*
X262715Y154294D01*
X262743Y154323D01*
X262770Y154351D01*
X262791Y154380D01*
X262822Y154433D01*
X262842Y154486D01*
X262855Y154532D01*
X262861Y154568D01*
X262865Y154582D01*
X262864Y154599D01*
X262860Y154635D01*
X262856Y154670D01*
X262834Y154733D01*
X262801Y154788D01*
X262765Y154837D01*
X262733Y154875D01*
X262701Y154903D01*
X262679Y154920D01*
X262676Y154927D01*
X262672Y154927D01*
X262633Y154947D01*
X262583Y154968D01*
X262530Y154984D01*
X262474Y154998D01*
X262347Y155020D01*
X262220Y155032D01*
X262160Y155038D01*
X262100Y155040D01*
X262047Y155043D01*
X262001Y155042D01*
X261963Y155045D01*
D02*
G37*
G36*
X253136Y152787D02*
X253109D01*
X253092D01*
X253085D01*
X252987D01*
X252895Y152780D01*
X252814Y152773D01*
X252739Y152766D01*
X252667Y152753D01*
X252606Y152742D01*
X252552Y152729D01*
X252504Y152715D01*
X252463Y152705D01*
X252426Y152691D01*
X252399Y152678D01*
X252375Y152668D01*
X252358Y152661D01*
X252344Y152654D01*
X252338Y152647D01*
X252334D01*
X252307Y152627D01*
X252280Y152603D01*
X252239Y152552D01*
X252212Y152501D01*
X252191Y152453D01*
X252178Y152409D01*
X252174Y152375D01*
X252171Y152362D01*
Y152345D01*
X252174Y152311D01*
X252178Y152277D01*
X252198Y152215D01*
X252229Y152161D01*
X252263Y152113D01*
X252297Y152076D01*
X252327Y152049D01*
X252348Y152032D01*
X252351Y152025D01*
X252355D01*
X252392Y152001D01*
X252436Y151981D01*
X252487Y151964D01*
X252545Y151950D01*
X252664Y151926D01*
X252786Y151913D01*
X252848Y151906D01*
X252902Y151903D01*
X252953Y151899D01*
X252997D01*
X253034Y151896D01*
X253062D01*
X253079D01*
X253085D01*
X253184D01*
X253276Y151903D01*
X253358Y151906D01*
X253432Y151916D01*
X253500Y151926D01*
X253561Y151937D01*
X253612Y151947D01*
X253660Y151960D01*
X253697Y151974D01*
X253731Y151984D01*
X253762Y151994D01*
X253783Y152005D01*
X253800Y152011D01*
X253810Y152018D01*
X253817Y152025D01*
X253820D01*
X253851Y152049D01*
X253878Y152076D01*
X253905Y152103D01*
X253925Y152130D01*
X253956Y152181D01*
X253976Y152232D01*
X253990Y152277D01*
X253997Y152311D01*
X254000Y152324D01*
Y152341D01*
X253997Y152375D01*
X253993Y152409D01*
X253973Y152470D01*
X253942Y152525D01*
X253908Y152572D01*
X253878Y152610D01*
X253847Y152637D01*
X253827Y152654D01*
X253823Y152661D01*
X253820D01*
X253783Y152681D01*
X253735Y152702D01*
X253684Y152719D01*
X253629Y152732D01*
X253507Y152756D01*
X253385Y152770D01*
X253327Y152776D01*
X253269Y152780D01*
X253218Y152783D01*
X253174D01*
X253136Y152787D01*
D02*
G37*
G36*
X219782Y114976D02*
X219762D01*
X219755D01*
X219704Y114972D01*
X219660Y114959D01*
X219615Y114942D01*
X219581Y114925D01*
X219554Y114904D01*
X219530Y114891D01*
X219517Y114877D01*
X219513Y114874D01*
X219479Y114833D01*
X219456Y114789D01*
X219435Y114744D01*
X219425Y114704D01*
X219418Y114666D01*
X219411Y114639D01*
Y114612D01*
X219415Y114554D01*
X219428Y114506D01*
X219445Y114462D01*
X219462Y114425D01*
X219483Y114394D01*
X219500Y114371D01*
X219513Y114357D01*
X219517Y114354D01*
X219558Y114320D01*
X219598Y114292D01*
X219643Y114275D01*
X219680Y114262D01*
X219714Y114255D01*
X219745Y114248D01*
X219762D01*
X219765D01*
X219768D01*
X219819Y114251D01*
X219867Y114265D01*
X219911Y114279D01*
X219945Y114299D01*
X219976Y114316D01*
X219996Y114333D01*
X220010Y114347D01*
X220013Y114350D01*
X220047Y114391D01*
X220071Y114435D01*
X220088Y114479D01*
X220098Y114520D01*
X220105Y114558D01*
X220112Y114585D01*
Y114612D01*
X220108Y114670D01*
X220095Y114721D01*
X220081Y114768D01*
X220061Y114806D01*
X220044Y114836D01*
X220027Y114860D01*
X220017Y114874D01*
X220013Y114877D01*
X219972Y114911D01*
X219928Y114935D01*
X219887Y114952D01*
X219847Y114962D01*
X219809Y114969D01*
X219782Y114976D01*
D02*
G37*
G36*
X220809Y115064D02*
X220792D01*
X220788D01*
X220720Y115057D01*
X220656Y115044D01*
X220601Y115023D01*
X220554Y114999D01*
X220516Y114979D01*
X220489Y114959D01*
X220472Y114945D01*
X220465Y114938D01*
X220421Y114887D01*
X220391Y114836D01*
X220367Y114782D01*
X220353Y114731D01*
X220343Y114687D01*
X220340Y114649D01*
X220336Y114636D01*
Y114619D01*
X220343Y114547D01*
X220357Y114483D01*
X220377Y114425D01*
X220401Y114377D01*
X220428Y114340D01*
X220448Y114313D01*
X220462Y114296D01*
X220469Y114289D01*
X220520Y114245D01*
X220574Y114211D01*
X220629Y114187D01*
X220680Y114173D01*
X220727Y114163D01*
X220761Y114160D01*
X220775Y114156D01*
X220785D01*
X220792D01*
X220795D01*
X220867Y114163D01*
X220928Y114177D01*
X220986Y114197D01*
X221030Y114221D01*
X221067Y114245D01*
X221094Y114265D01*
X221111Y114279D01*
X221118Y114286D01*
X221159Y114337D01*
X221190Y114388D01*
X221213Y114442D01*
X221227Y114493D01*
X221237Y114541D01*
X221241Y114575D01*
X221244Y114588D01*
Y114609D01*
X221241Y114656D01*
X221234Y114700D01*
X221227Y114738D01*
X221213Y114775D01*
X221203Y114806D01*
X221196Y114826D01*
X221190Y114840D01*
X221186Y114847D01*
X221162Y114884D01*
X221135Y114918D01*
X221105Y114945D01*
X221077Y114969D01*
X221054Y114986D01*
X221033Y114999D01*
X221020Y115006D01*
X221016Y115010D01*
X220975Y115027D01*
X220935Y115040D01*
X220894Y115050D01*
X220860Y115057D01*
X220829Y115061D01*
X220809Y115064D01*
D02*
G37*
G36*
X220380Y113327D02*
X220353D01*
X220336D01*
X220329D01*
X220231D01*
X220139Y113320D01*
X220057Y113313D01*
X219983Y113306D01*
X219911Y113293D01*
X219850Y113283D01*
X219796Y113269D01*
X219748Y113255D01*
X219707Y113245D01*
X219670Y113232D01*
X219643Y113218D01*
X219619Y113208D01*
X219602Y113201D01*
X219588Y113194D01*
X219581Y113187D01*
X219578D01*
X219551Y113167D01*
X219524Y113143D01*
X219483Y113092D01*
X219456Y113041D01*
X219435Y112994D01*
X219422Y112949D01*
X219418Y112915D01*
X219415Y112902D01*
Y112885D01*
X219418Y112851D01*
X219422Y112817D01*
X219442Y112756D01*
X219473Y112701D01*
X219507Y112654D01*
X219541Y112616D01*
X219571Y112589D01*
X219592Y112572D01*
X219595Y112565D01*
X219598D01*
X219636Y112541D01*
X219680Y112521D01*
X219731Y112504D01*
X219789Y112490D01*
X219908Y112467D01*
X220030Y112453D01*
X220091Y112446D01*
X220146Y112443D01*
X220197Y112439D01*
X220241D01*
X220278Y112436D01*
X220306D01*
X220323D01*
X220329D01*
X220428D01*
X220520Y112443D01*
X220601Y112446D01*
X220676Y112456D01*
X220744Y112467D01*
X220805Y112477D01*
X220856Y112487D01*
X220904Y112501D01*
X220941Y112514D01*
X220975Y112524D01*
X221006Y112534D01*
X221026Y112545D01*
X221043Y112551D01*
X221054Y112558D01*
X221060Y112565D01*
X221064D01*
X221094Y112589D01*
X221122Y112616D01*
X221149Y112643D01*
X221169Y112671D01*
X221200Y112722D01*
X221220Y112773D01*
X221234Y112817D01*
X221241Y112851D01*
X221244Y112864D01*
Y112881D01*
X221241Y112915D01*
X221237Y112949D01*
X221217Y113011D01*
X221186Y113065D01*
X221152Y113112D01*
X221122Y113150D01*
X221091Y113177D01*
X221071Y113194D01*
X221067Y113201D01*
X221064D01*
X221026Y113221D01*
X220979Y113242D01*
X220928Y113259D01*
X220873Y113272D01*
X220751Y113296D01*
X220629Y113310D01*
X220571Y113317D01*
X220513Y113320D01*
X220462Y113323D01*
X220418D01*
X220380Y113327D01*
D02*
G37*
G36*
X219915Y96841D02*
X219888D01*
X219871D01*
X219864D01*
X219766D01*
X219674Y96834D01*
X219592Y96827D01*
X219517Y96820D01*
X219446Y96807D01*
X219385Y96797D01*
X219331Y96783D01*
X219283Y96769D01*
X219242Y96759D01*
X219205Y96746D01*
X219178Y96732D01*
X219154Y96722D01*
X219137Y96715D01*
X219123Y96708D01*
X219116Y96702D01*
X219113D01*
X219086Y96681D01*
X219058Y96657D01*
X219018Y96606D01*
X218990Y96555D01*
X218970Y96508D01*
X218956Y96464D01*
X218953Y96430D01*
X218950Y96416D01*
Y96399D01*
X218953Y96365D01*
X218956Y96331D01*
X218977Y96270D01*
X219007Y96215D01*
X219041Y96168D01*
X219075Y96130D01*
X219106Y96103D01*
X219127Y96086D01*
X219130Y96079D01*
X219133D01*
X219171Y96056D01*
X219215Y96035D01*
X219266Y96018D01*
X219324Y96004D01*
X219443Y95981D01*
X219565Y95967D01*
X219626Y95960D01*
X219681Y95957D01*
X219732Y95954D01*
X219776D01*
X219813Y95950D01*
X219841D01*
X219858D01*
X219864D01*
X219963D01*
X220055Y95957D01*
X220136Y95960D01*
X220211Y95970D01*
X220279Y95981D01*
X220340Y95991D01*
X220391Y96001D01*
X220439Y96015D01*
X220476Y96028D01*
X220510Y96039D01*
X220541Y96049D01*
X220561Y96059D01*
X220578Y96066D01*
X220588Y96073D01*
X220595Y96079D01*
X220599D01*
X220629Y96103D01*
X220656Y96130D01*
X220684Y96157D01*
X220704Y96185D01*
X220735Y96236D01*
X220755Y96287D01*
X220769Y96331D01*
X220776Y96365D01*
X220779Y96378D01*
Y96395D01*
X220776Y96430D01*
X220772Y96464D01*
X220752Y96525D01*
X220721Y96579D01*
X220687Y96627D01*
X220656Y96664D01*
X220626Y96691D01*
X220605Y96708D01*
X220602Y96715D01*
X220599D01*
X220561Y96736D01*
X220514Y96756D01*
X220463Y96773D01*
X220408Y96786D01*
X220286Y96810D01*
X220163Y96824D01*
X220106Y96831D01*
X220048Y96834D01*
X219997Y96838D01*
X219953D01*
X219915Y96841D01*
D02*
G37*
G36*
Y95107D02*
X219888D01*
X219871D01*
X219864D01*
X219766D01*
X219674Y95100D01*
X219592Y95093D01*
X219517Y95086D01*
X219446Y95073D01*
X219385Y95063D01*
X219331Y95049D01*
X219283Y95035D01*
X219242Y95025D01*
X219205Y95012D01*
X219178Y94998D01*
X219154Y94988D01*
X219137Y94981D01*
X219123Y94974D01*
X219116Y94968D01*
X219113D01*
X219086Y94947D01*
X219058Y94923D01*
X219018Y94872D01*
X218990Y94821D01*
X218970Y94774D01*
X218956Y94730D01*
X218953Y94696D01*
X218950Y94682D01*
Y94665D01*
X218953Y94631D01*
X218956Y94597D01*
X218977Y94536D01*
X219007Y94481D01*
X219041Y94434D01*
X219075Y94396D01*
X219106Y94369D01*
X219127Y94352D01*
X219130Y94345D01*
X219133D01*
X219171Y94322D01*
X219215Y94301D01*
X219266Y94284D01*
X219324Y94270D01*
X219443Y94247D01*
X219565Y94233D01*
X219626Y94226D01*
X219681Y94223D01*
X219732Y94219D01*
X219776D01*
X219813Y94216D01*
X219841D01*
X219858D01*
X219864D01*
X219963D01*
X220055Y94223D01*
X220136Y94226D01*
X220211Y94236D01*
X220279Y94247D01*
X220340Y94257D01*
X220391Y94267D01*
X220439Y94281D01*
X220476Y94294D01*
X220510Y94305D01*
X220541Y94315D01*
X220561Y94325D01*
X220578Y94332D01*
X220588Y94339D01*
X220595Y94345D01*
X220599D01*
X220629Y94369D01*
X220656Y94396D01*
X220684Y94424D01*
X220704Y94451D01*
X220735Y94502D01*
X220755Y94553D01*
X220769Y94597D01*
X220776Y94631D01*
X220779Y94644D01*
Y94661D01*
X220776Y94696D01*
X220772Y94730D01*
X220752Y94791D01*
X220721Y94845D01*
X220687Y94893D01*
X220656Y94930D01*
X220626Y94957D01*
X220605Y94974D01*
X220602Y94981D01*
X220599D01*
X220561Y95002D01*
X220514Y95022D01*
X220463Y95039D01*
X220408Y95052D01*
X220286Y95076D01*
X220163Y95090D01*
X220106Y95097D01*
X220048Y95100D01*
X219997Y95104D01*
X219953D01*
X219915Y95107D01*
D02*
G37*
G36*
X269033Y52146D02*
X269012D01*
X269005D01*
X268954Y52143D01*
X268910Y52129D01*
X268866Y52112D01*
X268832Y52095D01*
X268805Y52075D01*
X268781Y52061D01*
X268767Y52047D01*
X268764Y52044D01*
X268730Y52003D01*
X268706Y51959D01*
X268686Y51915D01*
X268676Y51874D01*
X268669Y51837D01*
X268662Y51810D01*
Y51782D01*
X268666Y51724D01*
X268679Y51677D01*
X268696Y51633D01*
X268713Y51595D01*
X268733Y51565D01*
X268751Y51541D01*
X268764Y51527D01*
X268767Y51524D01*
X268808Y51490D01*
X268849Y51463D01*
X268893Y51446D01*
X268931Y51432D01*
X268965Y51425D01*
X268995Y51419D01*
X269012D01*
X269016D01*
X269019D01*
X269070Y51422D01*
X269118Y51436D01*
X269162Y51449D01*
X269196Y51469D01*
X269227Y51486D01*
X269247Y51503D01*
X269260Y51517D01*
X269264Y51521D01*
X269298Y51561D01*
X269322Y51605D01*
X269339Y51650D01*
X269349Y51691D01*
X269356Y51728D01*
X269362Y51755D01*
Y51782D01*
X269359Y51840D01*
X269345Y51891D01*
X269332Y51939D01*
X269311Y51976D01*
X269295Y52007D01*
X269277Y52030D01*
X269267Y52044D01*
X269264Y52047D01*
X269223Y52082D01*
X269179Y52105D01*
X269138Y52122D01*
X269097Y52132D01*
X269060Y52139D01*
X269033Y52146D01*
D02*
G37*
G36*
X270059Y52235D02*
X270042D01*
X270039D01*
X269971Y52228D01*
X269906Y52214D01*
X269852Y52194D01*
X269804Y52170D01*
X269767Y52149D01*
X269740Y52129D01*
X269723Y52115D01*
X269716Y52109D01*
X269672Y52058D01*
X269641Y52007D01*
X269618Y51952D01*
X269604Y51901D01*
X269594Y51857D01*
X269590Y51820D01*
X269587Y51806D01*
Y51789D01*
X269594Y51718D01*
X269607Y51653D01*
X269628Y51595D01*
X269652Y51548D01*
X269679Y51510D01*
X269699Y51483D01*
X269713Y51466D01*
X269720Y51459D01*
X269770Y51415D01*
X269825Y51381D01*
X269879Y51357D01*
X269930Y51344D01*
X269978Y51333D01*
X270012Y51330D01*
X270025Y51327D01*
X270036D01*
X270042D01*
X270046D01*
X270117Y51333D01*
X270179Y51347D01*
X270236Y51367D01*
X270281Y51391D01*
X270318Y51415D01*
X270345Y51436D01*
X270362Y51449D01*
X270369Y51456D01*
X270410Y51507D01*
X270440Y51558D01*
X270464Y51612D01*
X270478Y51663D01*
X270488Y51711D01*
X270491Y51745D01*
X270495Y51758D01*
Y51779D01*
X270491Y51827D01*
X270484Y51871D01*
X270478Y51908D01*
X270464Y51946D01*
X270454Y51976D01*
X270447Y51996D01*
X270440Y52010D01*
X270437Y52017D01*
X270413Y52054D01*
X270386Y52088D01*
X270355Y52115D01*
X270328Y52139D01*
X270304Y52156D01*
X270284Y52170D01*
X270270Y52177D01*
X270267Y52180D01*
X270226Y52197D01*
X270185Y52211D01*
X270145Y52221D01*
X270110Y52228D01*
X270080Y52231D01*
X270059Y52235D01*
D02*
G37*
G36*
X269631Y50497D02*
X269604D01*
X269587D01*
X269580D01*
X269481D01*
X269390Y50490D01*
X269308Y50484D01*
X269233Y50477D01*
X269162Y50463D01*
X269101Y50453D01*
X269046Y50439D01*
X268999Y50426D01*
X268958Y50415D01*
X268920Y50402D01*
X268893Y50388D01*
X268869Y50378D01*
X268852Y50371D01*
X268839Y50365D01*
X268832Y50358D01*
X268829D01*
X268801Y50337D01*
X268774Y50314D01*
X268733Y50262D01*
X268706Y50212D01*
X268686Y50164D01*
X268672Y50120D01*
X268669Y50086D01*
X268666Y50072D01*
Y50055D01*
X268669Y50021D01*
X268672Y49987D01*
X268693Y49926D01*
X268723Y49872D01*
X268757Y49824D01*
X268791Y49786D01*
X268822Y49759D01*
X268842Y49742D01*
X268846Y49736D01*
X268849D01*
X268886Y49712D01*
X268931Y49691D01*
X268982Y49674D01*
X269039Y49661D01*
X269158Y49637D01*
X269281Y49623D01*
X269342Y49617D01*
X269396Y49613D01*
X269447Y49610D01*
X269492D01*
X269529Y49606D01*
X269556D01*
X269573D01*
X269580D01*
X269679D01*
X269770Y49613D01*
X269852Y49617D01*
X269927Y49627D01*
X269995Y49637D01*
X270056Y49647D01*
X270107Y49657D01*
X270155Y49671D01*
X270192Y49685D01*
X270226Y49695D01*
X270257Y49705D01*
X270277Y49715D01*
X270294Y49722D01*
X270304Y49729D01*
X270311Y49736D01*
X270314D01*
X270345Y49759D01*
X270372Y49786D01*
X270399Y49814D01*
X270420Y49841D01*
X270450Y49892D01*
X270471Y49943D01*
X270484Y49987D01*
X270491Y50021D01*
X270495Y50035D01*
Y50052D01*
X270491Y50086D01*
X270488Y50120D01*
X270467Y50181D01*
X270437Y50235D01*
X270403Y50283D01*
X270372Y50320D01*
X270342Y50348D01*
X270321Y50365D01*
X270318Y50371D01*
X270314D01*
X270277Y50392D01*
X270229Y50412D01*
X270179Y50429D01*
X270124Y50443D01*
X270002Y50467D01*
X269879Y50480D01*
X269822Y50487D01*
X269764Y50490D01*
X269713Y50494D01*
X269668D01*
X269631Y50497D01*
D02*
G37*
G36*
X261992Y51747D02*
X261963Y51747D01*
X261946Y51746D01*
X261939Y51746D01*
X261837Y51744D01*
X261742Y51736D01*
X261657Y51727D01*
X261580Y51719D01*
X261506Y51704D01*
X261443Y51692D01*
X261387Y51677D01*
X261338Y51662D01*
X261296Y51651D01*
X261258Y51636D01*
X261230Y51621D01*
X261205Y51610D01*
X261188Y51603D01*
X261174Y51596D01*
X261167Y51588D01*
X261163Y51588D01*
X261136Y51567D01*
X261108Y51542D01*
X261067Y51488D01*
X261039Y51435D01*
X261019Y51385D01*
X261006Y51339D01*
X261003Y51304D01*
X261000Y51290D01*
X261000Y51272D01*
X261004Y51237D01*
X261008Y51202D01*
X261031Y51139D01*
X261063Y51083D01*
X261099Y51034D01*
X261135Y50996D01*
X261167Y50969D01*
X261189Y50952D01*
X261192Y50945D01*
X261196Y50945D01*
X261235Y50921D01*
X261281Y50900D01*
X261334Y50884D01*
X261394Y50871D01*
X261518Y50848D01*
X261645Y50836D01*
X261708Y50830D01*
X261765Y50828D01*
X261818Y50825D01*
X261863Y50826D01*
X261902Y50823D01*
X261930Y50824D01*
X261948Y50824D01*
X261955Y50824D01*
X262057Y50826D01*
X262152Y50835D01*
X262236Y50840D01*
X262313Y50852D01*
X262384Y50863D01*
X262447Y50875D01*
X262499Y50886D01*
X262548Y50901D01*
X262587Y50916D01*
X262622Y50927D01*
X262653Y50938D01*
X262674Y50949D01*
X262692Y50957D01*
X262702Y50964D01*
X262709Y50971D01*
X262713Y50971D01*
X262744Y50996D01*
X262772Y51025D01*
X262799Y51054D01*
X262820Y51082D01*
X262851Y51135D01*
X262871Y51189D01*
X262884Y51235D01*
X262891Y51270D01*
X262894Y51284D01*
X262894Y51302D01*
X262889Y51337D01*
X262885Y51372D01*
X262863Y51435D01*
X262830Y51491D01*
X262794Y51539D01*
X262762Y51578D01*
X262730Y51605D01*
X262708Y51622D01*
X262705Y51629D01*
X262701Y51629D01*
X262662Y51650D01*
X262613Y51670D01*
X262559Y51687D01*
X262503Y51700D01*
X262376Y51722D01*
X262249Y51734D01*
X262189Y51740D01*
X262129Y51743D01*
X262076Y51745D01*
X262030Y51744D01*
X261992Y51747D01*
D02*
G37*
G36*
X253489Y55698D02*
X253472D01*
X253465D01*
X253387Y55691D01*
X253319Y55677D01*
X253258Y55657D01*
X253207Y55633D01*
X253169Y55610D01*
X253139Y55589D01*
X253122Y55576D01*
X253115Y55569D01*
X253071Y55518D01*
X253037Y55467D01*
X253013Y55412D01*
X252996Y55365D01*
X252986Y55321D01*
X252982Y55287D01*
X252979Y55273D01*
Y55256D01*
X252986Y55188D01*
X252999Y55127D01*
X253023Y55072D01*
X253047Y55028D01*
X253071Y54991D01*
X253095Y54963D01*
X253108Y54950D01*
X253115Y54943D01*
X253169Y54902D01*
X253227Y54872D01*
X253288Y54851D01*
X253346Y54834D01*
X253397Y54827D01*
X253421Y54824D01*
X253441D01*
X253455Y54821D01*
X253468D01*
X253475D01*
X253479D01*
X253564Y54827D01*
X253639Y54841D01*
X253707Y54861D01*
X253761Y54882D01*
X253802Y54906D01*
X253832Y54926D01*
X253853Y54940D01*
X253859Y54947D01*
X253907Y54994D01*
X253941Y55045D01*
X253965Y55096D01*
X253982Y55140D01*
X253992Y55185D01*
X253995Y55215D01*
X253999Y55229D01*
Y55246D01*
X253995Y55290D01*
X253989Y55331D01*
X253978Y55371D01*
X253965Y55405D01*
X253955Y55433D01*
X253944Y55453D01*
X253938Y55470D01*
X253934Y55474D01*
X253907Y55511D01*
X253873Y55545D01*
X253842Y55572D01*
X253808Y55596D01*
X253781Y55616D01*
X253758Y55630D01*
X253744Y55637D01*
X253737Y55640D01*
X253686Y55660D01*
X253639Y55674D01*
X253594Y55684D01*
X253550Y55691D01*
X253516Y55695D01*
X253489Y55698D01*
D02*
G37*
G36*
X253135Y53984D02*
X253108D01*
X253091D01*
X253084D01*
X252986D01*
X252894Y53978D01*
X252812Y53971D01*
X252737Y53964D01*
X252666Y53950D01*
X252605Y53940D01*
X252551Y53926D01*
X252503Y53913D01*
X252462Y53903D01*
X252425Y53889D01*
X252397Y53875D01*
X252374Y53865D01*
X252357Y53859D01*
X252343Y53852D01*
X252336Y53845D01*
X252333D01*
X252306Y53825D01*
X252278Y53801D01*
X252238Y53750D01*
X252210Y53699D01*
X252190Y53651D01*
X252176Y53607D01*
X252173Y53573D01*
X252170Y53559D01*
Y53542D01*
X252173Y53508D01*
X252176Y53474D01*
X252197Y53413D01*
X252227Y53359D01*
X252261Y53311D01*
X252295Y53274D01*
X252326Y53246D01*
X252346Y53229D01*
X252350Y53223D01*
X252353D01*
X252391Y53199D01*
X252435Y53179D01*
X252486Y53162D01*
X252544Y53148D01*
X252663Y53124D01*
X252785Y53110D01*
X252846Y53104D01*
X252901Y53100D01*
X252952Y53097D01*
X252996D01*
X253033Y53093D01*
X253061D01*
X253078D01*
X253084D01*
X253183D01*
X253275Y53100D01*
X253356Y53104D01*
X253431Y53114D01*
X253499Y53124D01*
X253560Y53134D01*
X253611Y53145D01*
X253659Y53158D01*
X253696Y53172D01*
X253730Y53182D01*
X253761Y53192D01*
X253781Y53202D01*
X253798Y53209D01*
X253808Y53216D01*
X253815Y53223D01*
X253819D01*
X253849Y53246D01*
X253876Y53274D01*
X253904Y53301D01*
X253924Y53328D01*
X253955Y53379D01*
X253975Y53430D01*
X253989Y53474D01*
X253995Y53508D01*
X253999Y53522D01*
Y53539D01*
X253995Y53573D01*
X253992Y53607D01*
X253972Y53668D01*
X253941Y53723D01*
X253907Y53770D01*
X253876Y53807D01*
X253846Y53835D01*
X253825Y53852D01*
X253822Y53859D01*
X253819D01*
X253781Y53879D01*
X253734Y53899D01*
X253683Y53916D01*
X253628Y53930D01*
X253506Y53954D01*
X253383Y53967D01*
X253326Y53974D01*
X253268Y53978D01*
X253217Y53981D01*
X253173D01*
X253135Y53984D01*
D02*
G37*
G36*
X219040Y105585D02*
X219030D01*
X219023D01*
X219020D01*
X218935Y105578D01*
X218860Y105564D01*
X218792Y105544D01*
X218738Y105517D01*
X218693Y105493D01*
X218659Y105472D01*
X218639Y105459D01*
X218632Y105452D01*
X218605Y105425D01*
X218581Y105398D01*
X218547Y105343D01*
X218520Y105292D01*
X218500Y105241D01*
X218489Y105197D01*
X218486Y105163D01*
X218483Y105149D01*
Y105132D01*
X218489Y105068D01*
X218503Y105010D01*
X218527Y104959D01*
X218551Y104915D01*
X218578Y104877D01*
X218602Y104853D01*
X218615Y104837D01*
X218622Y104830D01*
X218680Y104789D01*
X218741Y104758D01*
X218802Y104735D01*
X218863Y104721D01*
X218918Y104711D01*
X218938Y104707D01*
X218959D01*
X218976Y104704D01*
X218989D01*
X218996D01*
X218999D01*
X219081Y104711D01*
X219156Y104724D01*
X219217Y104745D01*
X219271Y104765D01*
X219312Y104789D01*
X219343Y104809D01*
X219360Y104823D01*
X219367Y104830D01*
X219411Y104877D01*
X219445Y104928D01*
X219465Y104983D01*
X219482Y105030D01*
X219492Y105075D01*
X219496Y105108D01*
X219499Y105122D01*
Y105139D01*
X219492Y105207D01*
X219479Y105268D01*
X219458Y105323D01*
X219431Y105370D01*
X219407Y105408D01*
X219387Y105435D01*
X219373Y105452D01*
X219367Y105459D01*
X219312Y105499D01*
X219258Y105530D01*
X219200Y105554D01*
X219142Y105568D01*
X219095Y105578D01*
X219054Y105581D01*
X219040Y105585D01*
D02*
G37*
G36*
X219448Y103850D02*
X219421D01*
X219404D01*
X219397D01*
X219299D01*
X219207Y103844D01*
X219125Y103837D01*
X219050Y103830D01*
X218979Y103817D01*
X218918Y103806D01*
X218863Y103793D01*
X218816Y103779D01*
X218775Y103769D01*
X218738Y103755D01*
X218710Y103742D01*
X218687Y103732D01*
X218670Y103725D01*
X218656Y103718D01*
X218649Y103711D01*
X218646D01*
X218619Y103691D01*
X218591Y103667D01*
X218551Y103616D01*
X218523Y103565D01*
X218503Y103517D01*
X218489Y103473D01*
X218486Y103439D01*
X218483Y103426D01*
Y103409D01*
X218486Y103375D01*
X218489Y103341D01*
X218510Y103279D01*
X218540Y103225D01*
X218574Y103177D01*
X218608Y103140D01*
X218639Y103113D01*
X218659Y103096D01*
X218663Y103089D01*
X218666D01*
X218704Y103065D01*
X218748Y103045D01*
X218799Y103028D01*
X218857Y103014D01*
X218976Y102990D01*
X219098Y102977D01*
X219159Y102970D01*
X219214Y102967D01*
X219265Y102963D01*
X219309D01*
X219346Y102960D01*
X219373D01*
X219390D01*
X219397D01*
X219496D01*
X219588Y102967D01*
X219669Y102970D01*
X219744Y102980D01*
X219812Y102990D01*
X219873Y103000D01*
X219924Y103011D01*
X219972Y103024D01*
X220009Y103038D01*
X220043Y103048D01*
X220074Y103058D01*
X220094Y103069D01*
X220111Y103075D01*
X220121Y103082D01*
X220128Y103089D01*
X220132D01*
X220162Y103113D01*
X220189Y103140D01*
X220217Y103167D01*
X220237Y103194D01*
X220268Y103245D01*
X220288Y103296D01*
X220302Y103341D01*
X220308Y103375D01*
X220312Y103388D01*
Y103405D01*
X220308Y103439D01*
X220305Y103473D01*
X220285Y103534D01*
X220254Y103589D01*
X220220Y103636D01*
X220189Y103674D01*
X220159Y103701D01*
X220138Y103718D01*
X220135Y103725D01*
X220132D01*
X220094Y103745D01*
X220047Y103766D01*
X219996Y103782D01*
X219941Y103796D01*
X219819Y103820D01*
X219696Y103833D01*
X219639Y103840D01*
X219581Y103844D01*
X219530Y103847D01*
X219486D01*
X219448Y103850D01*
D02*
G37*
G36*
X222034Y85438D02*
X222006Y85438D01*
X221988Y85437D01*
X221981Y85437D01*
X221879Y85435D01*
X221784Y85427D01*
X221700Y85418D01*
X221622Y85410D01*
X221549Y85394D01*
X221486Y85383D01*
X221429Y85368D01*
X221380Y85353D01*
X221339Y85341D01*
X221300Y85327D01*
X221272Y85312D01*
X221248Y85301D01*
X221230Y85294D01*
X221216Y85286D01*
X221209Y85279D01*
X221206Y85279D01*
X221178Y85258D01*
X221150Y85233D01*
X221109Y85179D01*
X221082Y85126D01*
X221061Y85076D01*
X221048Y85030D01*
X221045Y84995D01*
X221042Y84981D01*
X221042Y84963D01*
X221046Y84928D01*
X221051Y84893D01*
X221073Y84830D01*
X221106Y84774D01*
X221142Y84725D01*
X221177Y84687D01*
X221210Y84660D01*
X221231Y84642D01*
X221235Y84636D01*
X221238Y84636D01*
X221277Y84612D01*
X221323Y84591D01*
X221376Y84575D01*
X221437Y84562D01*
X221560Y84539D01*
X221687Y84527D01*
X221751Y84521D01*
X221807Y84519D01*
X221860Y84516D01*
X221906Y84517D01*
X221944Y84514D01*
X221972Y84514D01*
X221990Y84515D01*
X221997Y84515D01*
X222099Y84517D01*
X222194Y84526D01*
X222278Y84531D01*
X222356Y84542D01*
X222426Y84554D01*
X222489Y84566D01*
X222542Y84577D01*
X222591Y84592D01*
X222629Y84607D01*
X222664Y84618D01*
X222696Y84629D01*
X222717Y84640D01*
X222734Y84648D01*
X222745Y84655D01*
X222751Y84662D01*
X222755Y84662D01*
X222786Y84687D01*
X222814Y84716D01*
X222842Y84745D01*
X222862Y84773D01*
X222893Y84826D01*
X222913Y84879D01*
X222926Y84926D01*
X222933Y84961D01*
X222936Y84975D01*
X222936Y84993D01*
X222932Y85028D01*
X222928Y85063D01*
X222905Y85126D01*
X222873Y85182D01*
X222837Y85230D01*
X222804Y85268D01*
X222772Y85296D01*
X222751Y85313D01*
X222747Y85320D01*
X222744Y85320D01*
X222704Y85341D01*
X222655Y85361D01*
X222602Y85378D01*
X222545Y85391D01*
X222418Y85413D01*
X222291Y85425D01*
X222231Y85431D01*
X222171Y85433D01*
X222118Y85436D01*
X222073Y85435D01*
X222034Y85438D01*
D02*
G37*
G36*
X234768Y142905D02*
X233769Y142204D01*
X234768D01*
Y142905D01*
D02*
G37*
G36*
X225283Y77539D02*
X225254Y77539D01*
X225237Y77539D01*
X225230Y77539D01*
X225128Y77537D01*
X225033Y77528D01*
X224949Y77520D01*
X224871Y77511D01*
X224798Y77496D01*
X224734Y77484D01*
X224678Y77469D01*
X224629Y77454D01*
X224587Y77443D01*
X224549Y77428D01*
X224521Y77413D01*
X224496Y77403D01*
X224479Y77395D01*
X224465Y77388D01*
X224458Y77381D01*
X224454Y77381D01*
X224427Y77359D01*
X224399Y77334D01*
X224358Y77280D01*
X224330Y77227D01*
X224310Y77178D01*
X224297Y77131D01*
X224294Y77096D01*
X224291Y77082D01*
X224291Y77065D01*
X224295Y77029D01*
X224299Y76994D01*
X224322Y76931D01*
X224354Y76876D01*
X224390Y76827D01*
X224426Y76789D01*
X224458Y76761D01*
X224480Y76744D01*
X224483Y76737D01*
X224487Y76737D01*
X224526Y76713D01*
X224572Y76693D01*
X224625Y76676D01*
X224685Y76663D01*
X224809Y76640D01*
X224936Y76629D01*
X224999Y76623D01*
X225056Y76620D01*
X225109Y76618D01*
X225154Y76618D01*
X225193Y76616D01*
X225221Y76616D01*
X225239Y76616D01*
X225246Y76617D01*
X225348Y76618D01*
X225443Y76627D01*
X225527Y76632D01*
X225605Y76644D01*
X225675Y76656D01*
X225738Y76667D01*
X225791Y76679D01*
X225839Y76694D01*
X225878Y76709D01*
X225913Y76720D01*
X225944Y76731D01*
X225965Y76742D01*
X225983Y76749D01*
X225993Y76756D01*
X226000Y76763D01*
X226004Y76763D01*
X226035Y76789D01*
X226063Y76817D01*
X226090Y76846D01*
X226111Y76875D01*
X226142Y76928D01*
X226162Y76981D01*
X226175Y77027D01*
X226182Y77062D01*
X226185Y77076D01*
X226185Y77094D01*
X226181Y77129D01*
X226176Y77164D01*
X226154Y77227D01*
X226121Y77283D01*
X226085Y77332D01*
X226053Y77370D01*
X226021Y77398D01*
X225999Y77415D01*
X225996Y77422D01*
X225992Y77422D01*
X225953Y77442D01*
X225904Y77462D01*
X225851Y77479D01*
X225794Y77492D01*
X225667Y77514D01*
X225540Y77526D01*
X225480Y77532D01*
X225420Y77535D01*
X225367Y77537D01*
X225321Y77537D01*
X225283Y77539D01*
D02*
G37*
G36*
X230136Y70480D02*
X230109D01*
X230092D01*
X230085D01*
X229987D01*
X229895Y70473D01*
X229813Y70467D01*
X229738Y70460D01*
X229667Y70446D01*
X229606Y70436D01*
X229551Y70422D01*
X229504Y70409D01*
X229463Y70398D01*
X229426Y70385D01*
X229398Y70371D01*
X229375Y70361D01*
X229358Y70354D01*
X229344Y70347D01*
X229337Y70341D01*
X229334D01*
X229307Y70320D01*
X229279Y70297D01*
X229239Y70245D01*
X229211Y70195D01*
X229191Y70147D01*
X229177Y70103D01*
X229174Y70069D01*
X229170Y70055D01*
Y70038D01*
X229174Y70004D01*
X229177Y69970D01*
X229198Y69909D01*
X229228Y69854D01*
X229262Y69807D01*
X229296Y69770D01*
X229327Y69742D01*
X229347Y69725D01*
X229351Y69718D01*
X229354D01*
X229392Y69695D01*
X229436Y69674D01*
X229487Y69657D01*
X229544Y69644D01*
X229663Y69620D01*
X229786Y69606D01*
X229847Y69599D01*
X229902Y69596D01*
X229953Y69593D01*
X229997D01*
X230034Y69589D01*
X230061D01*
X230078D01*
X230085D01*
X230184D01*
X230276Y69596D01*
X230357Y69599D01*
X230432Y69610D01*
X230500Y69620D01*
X230561Y69630D01*
X230612Y69640D01*
X230660Y69654D01*
X230697Y69668D01*
X230731Y69678D01*
X230762Y69688D01*
X230782Y69698D01*
X230799Y69705D01*
X230809Y69712D01*
X230816Y69718D01*
X230820D01*
X230850Y69742D01*
X230877Y69770D01*
X230905Y69797D01*
X230925Y69824D01*
X230956Y69875D01*
X230976Y69926D01*
X230990Y69970D01*
X230996Y70004D01*
X231000Y70018D01*
Y70035D01*
X230996Y70069D01*
X230993Y70103D01*
X230973Y70164D01*
X230942Y70218D01*
X230908Y70266D01*
X230877Y70303D01*
X230847Y70331D01*
X230826Y70347D01*
X230823Y70354D01*
X230820D01*
X230782Y70375D01*
X230734Y70395D01*
X230683Y70412D01*
X230629Y70426D01*
X230507Y70450D01*
X230384Y70463D01*
X230327Y70470D01*
X230269Y70473D01*
X230218Y70477D01*
X230173D01*
X230136Y70480D01*
D02*
G37*
G36*
X245008Y148882D02*
X244981D01*
X244964D01*
X244957D01*
X244858D01*
X244766Y148875D01*
X244685Y148869D01*
X244610Y148862D01*
X244539Y148848D01*
X244477Y148838D01*
X244423Y148824D01*
X244375Y148811D01*
X244335Y148801D01*
X244297Y148787D01*
X244270Y148773D01*
X244246Y148763D01*
X244229Y148756D01*
X244216Y148749D01*
X244209Y148743D01*
X244205D01*
X244178Y148722D01*
X244151Y148698D01*
X244110Y148647D01*
X244083Y148597D01*
X244063Y148549D01*
X244049Y148505D01*
X244046Y148471D01*
X244042Y148457D01*
Y148440D01*
X244046Y148406D01*
X244049Y148372D01*
X244069Y148311D01*
X244100Y148257D01*
X244134Y148209D01*
X244168Y148171D01*
X244199Y148144D01*
X244219Y148127D01*
X244222Y148120D01*
X244226D01*
X244263Y148097D01*
X244307Y148076D01*
X244358Y148059D01*
X244416Y148046D01*
X244535Y148022D01*
X244658Y148008D01*
X244719Y148002D01*
X244773Y147998D01*
X244824Y147995D01*
X244868D01*
X244906Y147991D01*
X244933D01*
X244950D01*
X244957D01*
X245055D01*
X245147Y147998D01*
X245229Y148002D01*
X245304Y148012D01*
X245372Y148022D01*
X245433Y148032D01*
X245484Y148042D01*
X245531Y148056D01*
X245569Y148070D01*
X245603Y148080D01*
X245633Y148090D01*
X245654Y148100D01*
X245671Y148107D01*
X245681Y148114D01*
X245688Y148120D01*
X245691D01*
X245722Y148144D01*
X245749Y148171D01*
X245776Y148199D01*
X245797Y148226D01*
X245827Y148277D01*
X245848Y148328D01*
X245861Y148372D01*
X245868Y148406D01*
X245871Y148420D01*
Y148437D01*
X245868Y148471D01*
X245865Y148505D01*
X245844Y148566D01*
X245814Y148620D01*
X245780Y148668D01*
X245749Y148705D01*
X245718Y148732D01*
X245698Y148749D01*
X245695Y148756D01*
X245691D01*
X245654Y148777D01*
X245606Y148797D01*
X245555Y148814D01*
X245501Y148828D01*
X245378Y148852D01*
X245256Y148865D01*
X245198Y148872D01*
X245140Y148875D01*
X245089Y148879D01*
X245045D01*
X245008Y148882D01*
D02*
G37*
G36*
X227006Y132218D02*
X226989D01*
X226982D01*
X226904Y132211D01*
X226835Y132198D01*
X226774Y132177D01*
X226723Y132153D01*
X226686Y132130D01*
X226655Y132109D01*
X226638Y132096D01*
X226631Y132089D01*
X226587Y132038D01*
X226553Y131987D01*
X226529Y131932D01*
X226512Y131885D01*
X226502Y131841D01*
X226499Y131807D01*
X226495Y131793D01*
Y131776D01*
X226502Y131708D01*
X226516Y131647D01*
X226540Y131593D01*
X226564Y131548D01*
X226587Y131511D01*
X226611Y131484D01*
X226625Y131470D01*
X226631Y131463D01*
X226686Y131422D01*
X226744Y131392D01*
X226805Y131371D01*
X226863Y131354D01*
X226914Y131348D01*
X226937Y131344D01*
X226958D01*
X226972Y131341D01*
X226985D01*
X226992D01*
X226995D01*
X227080Y131348D01*
X227155Y131361D01*
X227223Y131382D01*
X227277Y131402D01*
X227318Y131426D01*
X227349Y131446D01*
X227369Y131460D01*
X227376Y131467D01*
X227424Y131514D01*
X227458Y131565D01*
X227481Y131616D01*
X227499Y131660D01*
X227509Y131705D01*
X227512Y131735D01*
X227516Y131749D01*
Y131766D01*
X227512Y131810D01*
X227505Y131851D01*
X227495Y131892D01*
X227481Y131926D01*
X227471Y131953D01*
X227461Y131973D01*
X227454Y131990D01*
X227451Y131994D01*
X227424Y132031D01*
X227390Y132065D01*
X227359Y132092D01*
X227325Y132116D01*
X227298Y132136D01*
X227274Y132150D01*
X227260Y132157D01*
X227254Y132160D01*
X227203Y132181D01*
X227155Y132194D01*
X227111Y132204D01*
X227067Y132211D01*
X227033Y132215D01*
X227006Y132218D01*
D02*
G37*
G36*
X226652Y130505D02*
X226625D01*
X226608D01*
X226601D01*
X226502D01*
X226410Y130498D01*
X226329Y130491D01*
X226254Y130484D01*
X226183Y130471D01*
X226121Y130460D01*
X226067Y130447D01*
X226020Y130433D01*
X225979Y130423D01*
X225941Y130409D01*
X225914Y130396D01*
X225890Y130385D01*
X225873Y130379D01*
X225860Y130372D01*
X225853Y130365D01*
X225849D01*
X225822Y130345D01*
X225795Y130321D01*
X225754Y130270D01*
X225727Y130219D01*
X225707Y130171D01*
X225693Y130127D01*
X225690Y130093D01*
X225686Y130079D01*
Y130062D01*
X225690Y130028D01*
X225693Y129994D01*
X225713Y129933D01*
X225744Y129879D01*
X225778Y129831D01*
X225812Y129794D01*
X225843Y129767D01*
X225863Y129750D01*
X225866Y129743D01*
X225870D01*
X225907Y129719D01*
X225952Y129699D01*
X226002Y129682D01*
X226060Y129668D01*
X226179Y129644D01*
X226302Y129631D01*
X226363Y129624D01*
X226417Y129621D01*
X226468Y129617D01*
X226512D01*
X226550Y129614D01*
X226577D01*
X226594D01*
X226601D01*
X226699D01*
X226791Y129621D01*
X226873Y129624D01*
X226948Y129634D01*
X227016Y129644D01*
X227077Y129655D01*
X227128Y129665D01*
X227175Y129678D01*
X227213Y129692D01*
X227247Y129702D01*
X227277Y129712D01*
X227298Y129722D01*
X227315Y129729D01*
X227325Y129736D01*
X227332Y129743D01*
X227335D01*
X227366Y129767D01*
X227393Y129794D01*
X227420Y129821D01*
X227441Y129848D01*
X227471Y129899D01*
X227492Y129950D01*
X227505Y129994D01*
X227512Y130028D01*
X227516Y130042D01*
Y130059D01*
X227512Y130093D01*
X227509Y130127D01*
X227488Y130188D01*
X227458Y130243D01*
X227424Y130290D01*
X227393Y130328D01*
X227362Y130355D01*
X227342Y130372D01*
X227339Y130379D01*
X227335D01*
X227298Y130399D01*
X227250Y130420D01*
X227199Y130437D01*
X227145Y130450D01*
X227022Y130474D01*
X226900Y130488D01*
X226842Y130494D01*
X226784Y130498D01*
X226733Y130501D01*
X226689D01*
X226652Y130505D01*
D02*
G37*
G36*
X222095Y121335D02*
X222006Y121330D01*
X221928Y121325D01*
X221855Y121320D01*
X221786Y121308D01*
X221727Y121299D01*
X221674Y121287D01*
X221628Y121275D01*
X221589Y121266D01*
X221552Y121253D01*
X221526Y121240D01*
X221503Y121231D01*
X221486Y121225D01*
X221473Y121218D01*
X221466Y121212D01*
X221463Y121212D01*
X221437Y121193D01*
X221410Y121170D01*
X221370Y121122D01*
X221342Y121073D01*
X221322Y121028D01*
X221308Y120985D01*
X221304Y120952D01*
X221301Y120939D01*
X221301Y120923D01*
X221303Y120890D01*
X221306Y120857D01*
X221325Y120798D01*
X221353Y120745D01*
X221385Y120698D01*
X221417Y120662D01*
X221446Y120635D01*
X221466Y120618D01*
X221469Y120612D01*
X221472Y120612D01*
X221508Y120588D01*
X221550Y120568D01*
X221599Y120550D01*
X221655Y120536D01*
X221769Y120511D01*
X221887Y120496D01*
X221946Y120488D01*
X221998Y120484D01*
X222047Y120480D01*
X222090Y120479D01*
X222126Y120475D01*
X222152Y120475D01*
X222169Y120475D01*
X222175Y120475D01*
X222270Y120473D01*
X222359Y120478D01*
X222438Y120480D01*
X222510Y120488D01*
X222576Y120497D01*
X222635Y120506D01*
X222684Y120515D01*
X222730Y120527D01*
X222767Y120540D01*
X222800Y120549D01*
X222830Y120558D01*
X222849Y120568D01*
X222866Y120574D01*
X222876Y120580D01*
X222882Y120587D01*
X222886Y120587D01*
X222916Y120609D01*
X222942Y120635D01*
X222969Y120661D01*
X222989Y120687D01*
X223020Y120735D01*
X223040Y120784D01*
X223054Y120827D01*
X223061Y120859D01*
X223065Y120872D01*
X223065Y120889D01*
X223062Y120922D01*
X223060Y120955D01*
X223041Y121014D01*
X223012Y121067D01*
X222980Y121113D01*
X222951Y121150D01*
X222922Y121177D01*
X222903Y121193D01*
X222900Y121200D01*
X222896Y121200D01*
X222861Y121220D01*
X222815Y121241D01*
X222766Y121258D01*
X222714Y121272D01*
X222596Y121297D01*
X222479Y121312D01*
X222423Y121320D01*
X222367Y121324D01*
X222318Y121328D01*
X222275Y121329D01*
X222239Y121333D01*
X222213Y121333D01*
X222197Y121334D01*
X222190Y121334D01*
X222095Y121335D01*
D02*
G37*
G36*
X237841Y64574D02*
X236819Y63831D01*
X237854Y63849D01*
X237841Y64574D01*
D02*
G37*
G36*
X237599Y62665D02*
X237571Y62665D01*
X237554Y62665D01*
X237547Y62665D01*
X237445Y62663D01*
X237350Y62654D01*
X237265Y62646D01*
X237188Y62637D01*
X237115Y62622D01*
X237051Y62610D01*
X236995Y62595D01*
X236946Y62580D01*
X236904Y62569D01*
X236866Y62554D01*
X236838Y62539D01*
X236813Y62529D01*
X236796Y62521D01*
X236782Y62514D01*
X236775Y62507D01*
X236771Y62507D01*
X236744Y62485D01*
X236716Y62460D01*
X236675Y62406D01*
X236647Y62353D01*
X236627Y62303D01*
X236614Y62257D01*
X236611Y62222D01*
X236608Y62208D01*
X236608Y62190D01*
X236612Y62155D01*
X236616Y62120D01*
X236638Y62057D01*
X236671Y62001D01*
X236707Y61953D01*
X236743Y61915D01*
X236775Y61887D01*
X236797Y61870D01*
X236800Y61863D01*
X236804Y61863D01*
X236843Y61839D01*
X236889Y61819D01*
X236942Y61802D01*
X237002Y61789D01*
X237126Y61766D01*
X237253Y61755D01*
X237316Y61749D01*
X237373Y61746D01*
X237425Y61743D01*
X237471Y61744D01*
X237510Y61742D01*
X237538Y61742D01*
X237556Y61742D01*
X237563Y61742D01*
X237665Y61744D01*
X237760Y61753D01*
X237844Y61758D01*
X237922Y61770D01*
X237992Y61782D01*
X238055Y61793D01*
X238107Y61805D01*
X238157Y61820D01*
X238195Y61834D01*
X238230Y61846D01*
X238261Y61857D01*
X238282Y61868D01*
X238300Y61875D01*
X238310Y61882D01*
X238317Y61889D01*
X238321Y61889D01*
X238352Y61915D01*
X238380Y61943D01*
X238407Y61972D01*
X238428Y62000D01*
X238459Y62054D01*
X238479Y62107D01*
X238492Y62153D01*
X238499Y62188D01*
X238502Y62202D01*
X238502Y62220D01*
X238497Y62255D01*
X238493Y62290D01*
X238471Y62353D01*
X238438Y62409D01*
X238402Y62458D01*
X238370Y62496D01*
X238338Y62523D01*
X238316Y62541D01*
X238313Y62548D01*
X238309Y62548D01*
X238270Y62568D01*
X238221Y62588D01*
X238167Y62605D01*
X238111Y62618D01*
X237984Y62640D01*
X237857Y62652D01*
X237797Y62658D01*
X237737Y62661D01*
X237684Y62663D01*
X237638Y62663D01*
X237599Y62665D01*
D02*
G37*
G36*
X245004Y57470D02*
X244977D01*
X244960D01*
X244953D01*
X244855D01*
X244763Y57464D01*
X244681Y57457D01*
X244606Y57450D01*
X244535Y57436D01*
X244474Y57426D01*
X244419Y57412D01*
X244372Y57399D01*
X244331Y57389D01*
X244294Y57375D01*
X244266Y57362D01*
X244243Y57351D01*
X244226Y57345D01*
X244212Y57338D01*
X244205Y57331D01*
X244202D01*
X244175Y57310D01*
X244147Y57287D01*
X244107Y57236D01*
X244079Y57185D01*
X244059Y57137D01*
X244045Y57093D01*
X244042Y57059D01*
X244039Y57045D01*
Y57028D01*
X244042Y56994D01*
X244045Y56960D01*
X244066Y56899D01*
X244096Y56845D01*
X244130Y56797D01*
X244164Y56760D01*
X244195Y56732D01*
X244215Y56716D01*
X244219Y56709D01*
X244222D01*
X244260Y56685D01*
X244304Y56665D01*
X244355Y56647D01*
X244413Y56634D01*
X244532Y56610D01*
X244654Y56596D01*
X244715Y56590D01*
X244770Y56586D01*
X244821Y56583D01*
X244865D01*
X244902Y56580D01*
X244929D01*
X244946D01*
X244953D01*
X245052D01*
X245144Y56586D01*
X245225Y56590D01*
X245300Y56600D01*
X245368Y56610D01*
X245429Y56620D01*
X245480Y56630D01*
X245528Y56644D01*
X245565Y56658D01*
X245599Y56668D01*
X245630Y56678D01*
X245650Y56688D01*
X245667Y56695D01*
X245677Y56702D01*
X245684Y56709D01*
X245688D01*
X245718Y56732D01*
X245745Y56760D01*
X245773Y56787D01*
X245793Y56814D01*
X245824Y56865D01*
X245844Y56916D01*
X245858Y56960D01*
X245864Y56994D01*
X245868Y57008D01*
Y57025D01*
X245864Y57059D01*
X245861Y57093D01*
X245841Y57154D01*
X245810Y57209D01*
X245776Y57256D01*
X245745Y57293D01*
X245715Y57321D01*
X245694Y57338D01*
X245691Y57345D01*
X245688D01*
X245650Y57365D01*
X245603Y57385D01*
X245552Y57402D01*
X245497Y57416D01*
X245375Y57440D01*
X245252Y57453D01*
X245195Y57460D01*
X245137Y57464D01*
X245086Y57467D01*
X245042D01*
X245004Y57470D01*
D02*
G37*
G36*
X237811Y145487D02*
X236789Y144744D01*
X237824Y144762D01*
X237811Y145487D01*
D02*
G37*
G36*
X237570Y143579D02*
X237542Y143578D01*
X237524Y143578D01*
X237517Y143578D01*
X237415Y143576D01*
X237320Y143567D01*
X237236Y143559D01*
X237159Y143550D01*
X237085Y143535D01*
X237022Y143523D01*
X236966Y143508D01*
X236917Y143493D01*
X236875Y143482D01*
X236836Y143467D01*
X236808Y143453D01*
X236784Y143442D01*
X236767Y143434D01*
X236753Y143427D01*
X236746Y143420D01*
X236742Y143420D01*
X236714Y143398D01*
X236687Y143373D01*
X236645Y143319D01*
X236618Y143266D01*
X236598Y143217D01*
X236584Y143170D01*
X236582Y143135D01*
X236578Y143121D01*
X236579Y143104D01*
X236583Y143068D01*
X236587Y143033D01*
X236609Y142970D01*
X236642Y142914D01*
X236678Y142866D01*
X236714Y142828D01*
X236746Y142800D01*
X236767Y142783D01*
X236771Y142776D01*
X236774Y142776D01*
X236814Y142752D01*
X236860Y142732D01*
X236913Y142715D01*
X236973Y142702D01*
X237097Y142680D01*
X237223Y142668D01*
X237287Y142662D01*
X237343Y142659D01*
X237396Y142657D01*
X237442Y142657D01*
X237481Y142655D01*
X237509Y142655D01*
X237526Y142655D01*
X237533Y142656D01*
X237635Y142657D01*
X237730Y142666D01*
X237815Y142671D01*
X237892Y142683D01*
X237962Y142695D01*
X238025Y142706D01*
X238078Y142718D01*
X238127Y142733D01*
X238165Y142747D01*
X238201Y142759D01*
X238232Y142770D01*
X238253Y142781D01*
X238270Y142788D01*
X238281Y142795D01*
X238288Y142802D01*
X238291Y142803D01*
X238323Y142828D01*
X238350Y142856D01*
X238378Y142885D01*
X238399Y142913D01*
X238429Y142967D01*
X238450Y143020D01*
X238463Y143066D01*
X238469Y143101D01*
X238472Y143115D01*
X238472Y143133D01*
X238468Y143168D01*
X238464Y143203D01*
X238442Y143266D01*
X238409Y143322D01*
X238373Y143371D01*
X238341Y143409D01*
X238308Y143437D01*
X238287Y143454D01*
X238283Y143461D01*
X238280Y143461D01*
X238241Y143481D01*
X238191Y143501D01*
X238138Y143518D01*
X238082Y143531D01*
X237954Y143553D01*
X237827Y143565D01*
X237767Y143571D01*
X237707Y143574D01*
X237655Y143576D01*
X237609Y143576D01*
X237570Y143579D01*
D02*
G37*
G36*
X231765Y137956D02*
X231738D01*
X231721D01*
X231714D01*
X231615D01*
X231523Y137950D01*
X231442Y137943D01*
X231367Y137936D01*
X231296Y137922D01*
X231235Y137912D01*
X231180Y137899D01*
X231133Y137885D01*
X231092Y137875D01*
X231054Y137861D01*
X231027Y137847D01*
X231003Y137837D01*
X230986Y137830D01*
X230973Y137824D01*
X230966Y137817D01*
X230962D01*
X230935Y137796D01*
X230908Y137773D01*
X230867Y137722D01*
X230840Y137671D01*
X230820Y137623D01*
X230806Y137579D01*
X230803Y137545D01*
X230799Y137531D01*
Y137514D01*
X230803Y137480D01*
X230806Y137446D01*
X230826Y137385D01*
X230857Y137331D01*
X230891Y137283D01*
X230925Y137246D01*
X230956Y137218D01*
X230976Y137201D01*
X230979Y137195D01*
X230983D01*
X231020Y137171D01*
X231065Y137151D01*
X231116Y137134D01*
X231173Y137120D01*
X231292Y137096D01*
X231415Y137083D01*
X231476Y137076D01*
X231530Y137072D01*
X231581Y137069D01*
X231626D01*
X231663Y137065D01*
X231690D01*
X231707D01*
X231714D01*
X231813D01*
X231904Y137072D01*
X231986Y137076D01*
X232061Y137086D01*
X232129Y137096D01*
X232190Y137106D01*
X232241Y137117D01*
X232289Y137130D01*
X232326Y137144D01*
X232360Y137154D01*
X232390Y137164D01*
X232411Y137174D01*
X232428Y137181D01*
X232438Y137188D01*
X232445Y137195D01*
X232448D01*
X232479Y137218D01*
X232506Y137246D01*
X232533Y137273D01*
X232554Y137300D01*
X232584Y137351D01*
X232605Y137402D01*
X232618Y137446D01*
X232625Y137480D01*
X232628Y137494D01*
Y137511D01*
X232625Y137545D01*
X232622Y137579D01*
X232601Y137640D01*
X232571Y137695D01*
X232537Y137742D01*
X232506Y137779D01*
X232475Y137807D01*
X232455Y137824D01*
X232452Y137830D01*
X232448D01*
X232411Y137851D01*
X232363Y137871D01*
X232312Y137888D01*
X232258Y137902D01*
X232136Y137926D01*
X232013Y137939D01*
X231955Y137946D01*
X231897Y137950D01*
X231846Y137953D01*
X231802D01*
X231765Y137956D01*
D02*
G37*
%LPD*%
D32*
X18000Y143909D02*
Y171468D01*
X21937Y151783D02*
Y171468D01*
X25874Y151783D02*
Y171468D01*
X29811Y151783D02*
Y171468D01*
X33748Y151783D02*
Y171468D01*
X37685Y147846D02*
Y171468D01*
X41622Y151783D02*
Y171468D01*
X45559Y151783D02*
Y171468D01*
X49496Y151783D02*
Y171468D01*
X53433Y151783D02*
Y171468D01*
X57370Y143909D02*
Y171468D01*
X96740Y143909D02*
Y171468D01*
X92803Y151783D02*
Y171468D01*
X88866Y151783D02*
Y171468D01*
X84929Y151783D02*
Y171468D01*
X80992Y151783D02*
Y171468D01*
X77055Y147846D02*
Y171468D01*
X73118Y151783D02*
Y171468D01*
X69181Y151783D02*
Y171468D01*
X65244Y151783D02*
Y171468D01*
X61307Y151783D02*
Y171468D01*
X136110Y143909D02*
Y171468D01*
X132173Y151783D02*
Y171468D01*
X128236Y151783D02*
Y171468D01*
X124299Y151783D02*
Y171468D01*
X120362Y151783D02*
Y171468D01*
X116425Y147846D02*
Y171468D01*
X112488Y151783D02*
Y171468D01*
X108551Y151783D02*
Y171468D01*
X104614Y151783D02*
Y171468D01*
X100677Y151783D02*
Y171468D01*
X175480Y143909D02*
Y171468D01*
X171543Y151783D02*
Y171468D01*
X167606Y151783D02*
Y171468D01*
X163669Y151783D02*
Y171468D01*
X159732Y151783D02*
Y171468D01*
X155795Y147846D02*
Y171468D01*
X151858Y151783D02*
Y171468D01*
X147921Y151783D02*
Y171468D01*
X143984Y151783D02*
Y171468D01*
X140047Y151783D02*
Y171468D01*
X214850Y143909D02*
Y171468D01*
X210913Y151783D02*
Y171468D01*
X206977Y151783D02*
Y171468D01*
X203040Y151783D02*
Y171468D01*
X199102Y151783D02*
Y171468D01*
X195166Y147846D02*
Y171468D01*
X191228Y151783D02*
Y171468D01*
X187292Y151783D02*
Y171468D01*
X183354Y151783D02*
Y171468D01*
X179417Y151783D02*
Y171468D01*
X250284Y151783D02*
Y171468D01*
X246347Y151783D02*
Y171468D01*
X242410Y151783D02*
Y171468D01*
X238473Y151783D02*
Y171468D01*
X234536Y147846D02*
Y171468D01*
X230599Y151783D02*
Y171468D01*
X226662Y151783D02*
Y171468D01*
X222725Y151783D02*
Y171468D01*
X218788Y151783D02*
Y171468D01*
D45*
X17500Y155500D02*
D03*
D46*
X721000Y80658D02*
D03*
Y90500D02*
D03*
Y100343D02*
D03*
D47*
Y110185D02*
D03*
D48*
X16999Y103999D02*
D03*
D49*
X270079Y104004D02*
D03*
D61*
X270334Y152819D02*
G03*
X270334Y55235I0J-48792D01*
G01*
Y152819D02*
G03*
X270334Y55235I0J-48792D01*
G01*
Y55235D02*
Y152819D01*
D62*
X270328Y109671D02*
G03*
X270328Y98106I0J-5783D01*
G01*
X224508Y120780D02*
X264894Y105867D01*
X253447Y149803D02*
X268296Y109302D01*
X245929Y146277D02*
X267422Y108888D01*
X239319Y141693D02*
X266590Y108300D01*
X235999Y138693D02*
X266238Y107977D01*
X233014Y135458D02*
X265890Y107596D01*
X227967Y128228D02*
X265319Y106779D01*
X262450Y152178D02*
X269347Y109587D01*
X222244Y112272D02*
X264634Y104899D01*
X224572Y87101D02*
X264892Y101916D01*
X228041Y79696D02*
X265321Y100995D01*
X232712Y72959D02*
X265902Y100166D01*
X235884Y69474D02*
X266242Y99796D01*
X238847Y66755D02*
X266621Y99450D01*
X245997Y61738D02*
X267441Y98877D01*
X253784Y58128D02*
X268354Y98453D01*
X261774Y55992D02*
X269311Y98196D01*
X221542Y103921D02*
X270399Y103960D01*
X222294Y95495D02*
X264633Y102881D01*
D63*
X807704Y0D02*
G03*
X808593Y889I0J889D01*
G01*
D64*
X69055Y129839D02*
D03*
X74055D02*
D03*
X79055D02*
D03*
X69055Y109366D02*
D03*
X79055D02*
D03*
D65*
X52809Y128672D02*
D03*
Y124932D02*
D03*
Y121192D02*
D03*
X43361D02*
D03*
Y124932D02*
D03*
Y128672D02*
D03*
D66*
X201142Y119512D02*
D03*
Y116363D02*
D03*
Y113213D02*
D03*
Y110063D02*
D03*
Y106914D02*
D03*
Y103764D02*
D03*
Y100614D02*
D03*
Y97465D02*
D03*
Y94315D02*
D03*
Y91166D02*
D03*
Y88016D02*
D03*
X152717D02*
D03*
Y91166D02*
D03*
Y94315D02*
D03*
Y97465D02*
D03*
Y100614D02*
D03*
Y103764D02*
D03*
Y106914D02*
D03*
Y110063D02*
D03*
Y113213D02*
D03*
Y116363D02*
D03*
Y119512D02*
D03*
D67*
X192677Y79552D02*
D03*
X189527D02*
D03*
X186378D02*
D03*
X183228D02*
D03*
X180079D02*
D03*
X176929D02*
D03*
X173779D02*
D03*
X170630D02*
D03*
X167480D02*
D03*
X164331D02*
D03*
X161181D02*
D03*
Y127977D02*
D03*
X164331D02*
D03*
X167480D02*
D03*
X170630D02*
D03*
X173779D02*
D03*
X176929D02*
D03*
X180079D02*
D03*
X183228D02*
D03*
X186378D02*
D03*
X189527D02*
D03*
X192677D02*
D03*
D68*
X130354Y122752D02*
D03*
Y119603D02*
D03*
Y116453D02*
D03*
Y113303D02*
D03*
Y110154D02*
D03*
Y107004D02*
D03*
Y103855D02*
D03*
Y100705D02*
D03*
X97283D02*
D03*
Y103855D02*
D03*
Y107004D02*
D03*
Y110154D02*
D03*
Y113303D02*
D03*
Y116453D02*
D03*
Y119603D02*
D03*
Y122752D02*
D03*
D69*
X124843Y95193D02*
D03*
X121693D02*
D03*
X118543D02*
D03*
X115394D02*
D03*
X112244D02*
D03*
X109095D02*
D03*
X105945D02*
D03*
X102795D02*
D03*
Y128264D02*
D03*
X105945D02*
D03*
X109095D02*
D03*
X112244D02*
D03*
X115394D02*
D03*
X118543D02*
D03*
X121693D02*
D03*
X124843D02*
D03*
M02*
