G04*
G04 #@! TF.GenerationSoftware,Altium Limited,Altium Designer,19.0.4 (130)*
G04*
G04 Layer_Color=16711935*
%FSLAX25Y25*%
%MOIN*%
G70*
G01*
G75*
%ADD36R,0.03800X0.03800*%
%ADD39R,0.04300X0.04600*%
%ADD40R,0.04600X0.04300*%
%ADD41R,0.03800X0.03800*%
%ADD52C,0.04147*%
%ADD53C,0.21800*%
%ADD54P,0.08226X8X22.5*%
%ADD55C,0.01968*%
%ADD56C,0.04400*%
%ADD57C,0.02600*%
%ADD80R,0.08800X0.09461*%
%ADD81R,0.07099X0.06312*%
%ADD82R,0.05524X0.06312*%
%ADD83R,0.03556X0.07887*%
G04:AMPARAMS|DCode=84|XSize=55.24mil|YSize=63.12mil|CornerRadius=0mil|HoleSize=0mil|Usage=FLASHONLY|Rotation=315.000|XOffset=0mil|YOffset=0mil|HoleType=Round|Shape=Rectangle|*
%AMROTATEDRECTD84*
4,1,4,-0.04185,-0.00278,0.00278,0.04185,0.04185,0.00278,-0.00278,-0.04185,-0.04185,-0.00278,0.0*
%
%ADD84ROTATEDRECTD84*%

%ADD85R,0.04540X0.04343*%
%ADD86R,0.04540X0.04343*%
G04:AMPARAMS|DCode=87|XSize=55.24mil|YSize=63.12mil|CornerRadius=0mil|HoleSize=0mil|Usage=FLASHONLY|Rotation=225.000|XOffset=0mil|YOffset=0mil|HoleType=Round|Shape=Rectangle|*
%AMROTATEDRECTD87*
4,1,4,-0.00278,0.04185,0.04185,-0.00278,0.00278,-0.04185,-0.04185,0.00278,-0.00278,0.04185,0.0*
%
%ADD87ROTATEDRECTD87*%

%ADD88R,0.04737X0.02572*%
%ADD89R,0.07887X0.09461*%
%ADD90R,0.01981X0.05918*%
D36*
X174994Y276850D02*
D03*
X175000Y271200D02*
D03*
X174994Y264850D02*
D03*
X175000Y259200D02*
D03*
X199000Y279300D02*
D03*
X199006Y273650D02*
D03*
D39*
X171500Y247000D02*
D03*
Y240100D02*
D03*
D40*
X188400Y254500D02*
D03*
X181500D02*
D03*
X181100Y223693D02*
D03*
X188000D02*
D03*
X181600Y232000D02*
D03*
X188500D02*
D03*
X206000Y253500D02*
D03*
X212900D02*
D03*
D41*
X258800Y285000D02*
D03*
X253150Y284994D02*
D03*
D52*
X237504Y163000D02*
D03*
X269000D02*
D03*
D53*
X288000Y307000D02*
D03*
X172000D02*
D03*
D54*
X293500Y220000D02*
D03*
Y210000D02*
D03*
Y200000D02*
D03*
Y190000D02*
D03*
Y180000D02*
D03*
Y170000D02*
D03*
Y160000D02*
D03*
Y150000D02*
D03*
X166500Y220000D02*
D03*
Y210000D02*
D03*
Y200000D02*
D03*
Y190000D02*
D03*
Y180000D02*
D03*
Y170000D02*
D03*
Y160000D02*
D03*
Y150000D02*
D03*
D55*
X258700Y165000D02*
D03*
X274500D02*
D03*
D56*
X171500Y234000D02*
D03*
X219445Y310000D02*
D03*
X268500Y251500D02*
D03*
X262772Y193000D02*
D03*
X268500Y265000D02*
D03*
X197000Y159500D02*
D03*
X196500Y175500D02*
D03*
D57*
X293500Y301500D02*
D03*
Y312500D02*
D03*
X282500Y301500D02*
D03*
Y312500D02*
D03*
X288000Y299000D02*
D03*
X296000Y307000D02*
D03*
X280000D02*
D03*
X288000Y315000D02*
D03*
X177500Y301500D02*
D03*
X166500D02*
D03*
Y312500D02*
D03*
X177500D02*
D03*
X172000Y299000D02*
D03*
X164000Y307000D02*
D03*
X180000D02*
D03*
X172000Y315000D02*
D03*
D80*
X219394Y164575D02*
D03*
X280417D02*
D03*
D81*
X222543Y202370D02*
D03*
D82*
X280417D02*
D03*
D83*
X240653Y204839D02*
D03*
X244984D02*
D03*
X249315D02*
D03*
X253646D02*
D03*
X257976D02*
D03*
X266638D02*
D03*
X270969D02*
D03*
X275299D02*
D03*
X262307D02*
D03*
D84*
X266546Y296454D02*
D03*
X275454Y287546D02*
D03*
D85*
X189826Y274500D02*
D03*
X181174Y270760D02*
D03*
D86*
Y278240D02*
D03*
D87*
X193954Y296454D02*
D03*
X185046Y287546D02*
D03*
D88*
X190307Y247000D02*
D03*
Y239520D02*
D03*
X179283Y243260D02*
D03*
Y239520D02*
D03*
Y247000D02*
D03*
D89*
X200866Y227500D02*
D03*
X259134Y227500D02*
D03*
D90*
X223110Y217669D02*
D03*
X221142D02*
D03*
X207362D02*
D03*
X209331D02*
D03*
X211299D02*
D03*
X213268D02*
D03*
X215236D02*
D03*
X217205D02*
D03*
X219173D02*
D03*
X225079D02*
D03*
X227047D02*
D03*
X229016D02*
D03*
X230984D02*
D03*
X232953D02*
D03*
X234921D02*
D03*
X236890D02*
D03*
X238858D02*
D03*
X240827D02*
D03*
X242795D02*
D03*
X244764D02*
D03*
X246732D02*
D03*
X248701D02*
D03*
X250669D02*
D03*
X252638D02*
D03*
M02*
