G04*
G04 #@! TF.GenerationSoftware,Altium Limited,Altium Designer,19.0.4 (130)*
G04*
G04 Layer_Color=128*
%FSLAX25Y25*%
%MOIN*%
G70*
G01*
G75*
%ADD19R,0.03000X0.03000*%
%ADD22R,0.03500X0.03800*%
%ADD23R,0.03800X0.03500*%
%ADD24R,0.03000X0.03000*%
%ADD69R,0.08000X0.08661*%
%ADD70R,0.06299X0.05512*%
%ADD71R,0.04724X0.05512*%
%ADD72R,0.02756X0.07087*%
G04:AMPARAMS|DCode=73|XSize=47.24mil|YSize=55.12mil|CornerRadius=0mil|HoleSize=0mil|Usage=FLASHONLY|Rotation=315.000|XOffset=0mil|YOffset=0mil|HoleType=Round|Shape=Rectangle|*
%AMROTATEDRECTD73*
4,1,4,-0.03619,-0.00278,0.00278,0.03619,0.03619,0.00278,-0.00278,-0.03619,-0.03619,-0.00278,0.0*
%
%ADD73ROTATEDRECTD73*%

%ADD74R,0.03740X0.03543*%
%ADD75R,0.03740X0.03543*%
G04:AMPARAMS|DCode=76|XSize=47.24mil|YSize=55.12mil|CornerRadius=0mil|HoleSize=0mil|Usage=FLASHONLY|Rotation=225.000|XOffset=0mil|YOffset=0mil|HoleType=Round|Shape=Rectangle|*
%AMROTATEDRECTD76*
4,1,4,-0.00278,0.03619,0.03619,-0.00278,0.00278,-0.03619,-0.03619,0.00278,-0.00278,0.03619,0.0*
%
%ADD76ROTATEDRECTD76*%

%ADD77R,0.03937X0.01772*%
%ADD78R,0.07087X0.08661*%
%ADD79R,0.01181X0.05118*%
D19*
X174994Y276850D02*
D03*
X175000Y271200D02*
D03*
X174994Y264850D02*
D03*
X175000Y259200D02*
D03*
X199000Y279300D02*
D03*
X199006Y273650D02*
D03*
D22*
X171500Y247000D02*
D03*
Y240100D02*
D03*
D23*
X188400Y254500D02*
D03*
X181500D02*
D03*
X181100Y223693D02*
D03*
X188000D02*
D03*
X181600Y232000D02*
D03*
X188500D02*
D03*
X206000Y253500D02*
D03*
X212900D02*
D03*
D24*
X258800Y285000D02*
D03*
X253150Y284994D02*
D03*
D69*
X219394Y164575D02*
D03*
X280417D02*
D03*
D70*
X222543Y202370D02*
D03*
D71*
X280417D02*
D03*
D72*
X240653Y204839D02*
D03*
X244984D02*
D03*
X249315D02*
D03*
X253646D02*
D03*
X257976D02*
D03*
X266638D02*
D03*
X270969D02*
D03*
X275299D02*
D03*
X262307D02*
D03*
D73*
X266546Y296454D02*
D03*
X275454Y287546D02*
D03*
D74*
X189826Y274500D02*
D03*
X181174Y270760D02*
D03*
D75*
Y278240D02*
D03*
D76*
X193954Y296454D02*
D03*
X185046Y287546D02*
D03*
D77*
X190307Y247000D02*
D03*
Y239520D02*
D03*
X179283Y243260D02*
D03*
Y239520D02*
D03*
Y247000D02*
D03*
D78*
X200866Y227500D02*
D03*
X259134Y227500D02*
D03*
D79*
X223110Y217669D02*
D03*
X221142D02*
D03*
X207362D02*
D03*
X209331D02*
D03*
X211299D02*
D03*
X213268D02*
D03*
X215236D02*
D03*
X217205D02*
D03*
X219173D02*
D03*
X225079D02*
D03*
X227047D02*
D03*
X229016D02*
D03*
X230984D02*
D03*
X232953D02*
D03*
X234921D02*
D03*
X236890D02*
D03*
X238858D02*
D03*
X240827D02*
D03*
X242795D02*
D03*
X244764D02*
D03*
X246732D02*
D03*
X248701D02*
D03*
X250669D02*
D03*
X252638D02*
D03*
M02*
