G04*
G04 #@! TF.GenerationSoftware,Altium Limited,Altium Designer,19.0.4 (130)*
G04*
G04 Layer_Physical_Order=1*
G04 Layer_Color=255*
%FSLAX25Y25*%
%MOIN*%
G70*
G01*
G75*
%ADD10C,0.01000*%
%ADD13C,0.00600*%
%ADD14C,0.00500*%
%ADD15C,0.00800*%
%ADD18R,0.03150X0.03150*%
%ADD19R,0.03000X0.03000*%
%ADD20R,0.01000X0.09843*%
%ADD21R,0.09843X0.01000*%
%ADD22R,0.03500X0.03800*%
%ADD23R,0.03800X0.03500*%
%ADD24R,0.03000X0.03000*%
G04:AMPARAMS|DCode=25|XSize=150mil|YSize=65mil|CornerRadius=0mil|HoleSize=0mil|Usage=FLASHONLY|Rotation=180.000|XOffset=0mil|YOffset=0mil|HoleType=Round|Shape=Octagon|*
%AMOCTAGOND25*
4,1,8,-0.07500,0.01625,-0.07500,-0.01625,-0.05875,-0.03250,0.05875,-0.03250,0.07500,-0.01625,0.07500,0.01625,0.05875,0.03250,-0.05875,0.03250,-0.07500,0.01625,0.0*
%
%ADD25OCTAGOND25*%

%ADD26O,0.15000X0.06500*%
%ADD27R,0.10000X0.10000*%
%ADD28R,0.01772X0.03937*%
%ADD29R,0.04331X0.03937*%
%ADD30R,0.05315X0.05906*%
%ADD31R,0.05512X0.05512*%
%ADD32R,0.01575X0.04724*%
%ADD33R,0.02756X0.04724*%
%ADD34R,0.05118X0.04134*%
%ADD55C,0.01968*%
%ADD58C,0.01200*%
%ADD59C,0.03000*%
%ADD60C,0.02000*%
%ADD61C,0.04000*%
%ADD62C,0.06000*%
%ADD63C,0.03347*%
%ADD64C,0.21000*%
%ADD65P,0.07360X8X22.5*%
%ADD66C,0.03600*%
%ADD67C,0.02400*%
%ADD68C,0.01800*%
G36*
X284590Y317494D02*
X282991Y316831D01*
X281514Y315927D01*
X280198Y314802D01*
X279073Y313486D01*
X278169Y312009D01*
X277506Y310410D01*
X277102Y308726D01*
X276966Y307000D01*
X277102Y305274D01*
X277506Y303590D01*
X278169Y301991D01*
X279073Y300514D01*
X280198Y299198D01*
X281514Y298073D01*
X282991Y297169D01*
X284590Y296506D01*
X286274Y296102D01*
X288000Y295966D01*
X289726Y296102D01*
X291410Y296506D01*
X293009Y297169D01*
X294486Y298073D01*
X295802Y299198D01*
X296927Y300514D01*
X297831Y301991D01*
X298494Y303590D01*
X298980Y303475D01*
Y149000D01*
X298983Y148989D01*
X298848Y147969D01*
X298450Y147008D01*
X297817Y146183D01*
X296992Y145550D01*
X296031Y145152D01*
X295011Y145017D01*
X295000Y145020D01*
X165000D01*
X164989Y145017D01*
X163969Y145152D01*
X163008Y145550D01*
X162183Y146183D01*
X161550Y147008D01*
X161152Y147969D01*
X161017Y148989D01*
X161020Y149000D01*
Y303475D01*
X161506Y303590D01*
X162169Y301991D01*
X163073Y300514D01*
X164198Y299198D01*
X165514Y298073D01*
X166991Y297169D01*
X168590Y296506D01*
X170274Y296102D01*
X172000Y295966D01*
X173726Y296102D01*
X175410Y296506D01*
X177009Y297169D01*
X178486Y298073D01*
X179802Y299198D01*
X180927Y300514D01*
X181831Y301991D01*
X182494Y303590D01*
X182898Y305274D01*
X183034Y307000D01*
X182898Y308726D01*
X182494Y310410D01*
X181831Y312009D01*
X180927Y313486D01*
X179802Y314802D01*
X178486Y315927D01*
X177009Y316831D01*
X175410Y317494D01*
X175525Y317981D01*
X284475D01*
X284590Y317494D01*
D02*
G37*
%LPC*%
G36*
X244126Y313173D02*
X241354D01*
Y311331D01*
X241327Y311290D01*
X241211Y310705D01*
Y307874D01*
X240866Y307529D01*
X238134D01*
X237007Y308656D01*
X237384Y309220D01*
X237539Y310000D01*
X237384Y310780D01*
X236942Y311442D01*
X236646Y311640D01*
Y313173D01*
X233874D01*
Y312039D01*
X228250D01*
Y312300D01*
X223750D01*
Y312039D01*
X220533D01*
X220342Y312167D01*
X219445Y312345D01*
X218547Y312167D01*
X217787Y311658D01*
X217278Y310897D01*
X217100Y310000D01*
X217278Y309103D01*
X217787Y308342D01*
X218547Y307833D01*
X219445Y307655D01*
X220342Y307833D01*
X220533Y307961D01*
X223750D01*
Y307500D01*
X228250D01*
Y307961D01*
X233786D01*
X233847Y307655D01*
X234178Y307159D01*
X236419Y304919D01*
X236915Y304587D01*
X237500Y304471D01*
X241500D01*
X242085Y304587D01*
X242581Y304919D01*
X243822Y306159D01*
X244153Y306655D01*
X244269Y307240D01*
Y310705D01*
X244153Y311290D01*
X244126Y311331D01*
Y313173D01*
D02*
G37*
G36*
X236646Y302150D02*
X233874D01*
Y297213D01*
X234138D01*
Y294250D01*
X232600D01*
Y289750D01*
X237400D01*
Y294250D01*
X236381D01*
Y297213D01*
X236646D01*
Y302150D01*
D02*
G37*
G36*
X244126D02*
X241354D01*
Y300307D01*
X241327Y300266D01*
X241211Y299681D01*
Y297271D01*
X241139Y297163D01*
X241007Y296500D01*
X241139Y295837D01*
X241211Y295729D01*
Y294250D01*
X240700D01*
Y289750D01*
X241571D01*
Y279389D01*
X237006D01*
X237006Y279389D01*
X236809Y279350D01*
X235006D01*
Y279339D01*
X206300D01*
X205520Y279184D01*
X204858Y278742D01*
X199658Y273542D01*
X199216Y272880D01*
X199061Y272100D01*
Y266250D01*
X198700D01*
Y266039D01*
X187670D01*
X187403Y266539D01*
X187601Y266837D01*
X187733Y267500D01*
X187601Y268163D01*
X187226Y268726D01*
X186663Y269101D01*
X186000Y269233D01*
X185516Y269137D01*
X183500Y271154D01*
Y274200D01*
X179500D01*
Y270200D01*
X182147D01*
X184363Y267984D01*
X184267Y267500D01*
X184399Y266837D01*
X184597Y266539D01*
X184330Y266039D01*
X175634D01*
Y267366D01*
X171878D01*
Y265293D01*
X171872Y265284D01*
X171717Y264504D01*
Y255244D01*
X171872Y254464D01*
X172314Y253802D01*
X173971Y252146D01*
Y235342D01*
X173471Y235191D01*
X173158Y235658D01*
X172397Y236167D01*
X171500Y236345D01*
X170603Y236167D01*
X169842Y235658D01*
X169333Y234897D01*
X169155Y234000D01*
X169333Y233103D01*
X169842Y232342D01*
X169971Y232256D01*
Y223033D01*
X169509Y222841D01*
X168450Y223900D01*
X164550D01*
X162600Y221950D01*
Y218050D01*
X164550Y216100D01*
X168450D01*
X169509Y217159D01*
X169971Y216967D01*
Y213033D01*
X169509Y212841D01*
X168450Y213900D01*
X164550D01*
X162600Y211950D01*
Y208050D01*
X164550Y206100D01*
X168450D01*
X169509Y207159D01*
X169971Y206967D01*
Y203033D01*
X169509Y202841D01*
X168450Y203900D01*
X164550D01*
X162600Y201950D01*
Y198050D01*
X164550Y196100D01*
X168450D01*
X169509Y197159D01*
X169971Y196967D01*
Y193033D01*
X169509Y192841D01*
X168450Y193900D01*
X164550D01*
X162600Y191950D01*
Y188050D01*
X164550Y186100D01*
X168450D01*
X169509Y187159D01*
X169971Y186967D01*
Y183033D01*
X169509Y182841D01*
X168450Y183900D01*
X164550D01*
X162600Y181950D01*
Y178050D01*
X164550Y176100D01*
X168450D01*
X170400Y178050D01*
Y179730D01*
X170900Y179937D01*
X182419Y168419D01*
X182915Y168087D01*
X183500Y167971D01*
X202325D01*
X202475Y167609D01*
X203076Y166825D01*
X203859Y166224D01*
X204771Y165847D01*
X205750Y165718D01*
X214250D01*
X215229Y165847D01*
X216141Y166224D01*
X216925Y166825D01*
X217021Y166951D01*
X233500D01*
X234249Y167100D01*
X235750D01*
Y167461D01*
X238055D01*
X241925Y163591D01*
Y162325D01*
X246075D01*
Y166475D01*
X244809D01*
X240342Y170942D01*
X239680Y171384D01*
X238900Y171539D01*
X235750D01*
Y171900D01*
X234249D01*
X233500Y172049D01*
X217021D01*
X216925Y172175D01*
X216141Y172776D01*
X215229Y173153D01*
X214784Y173212D01*
X214663Y173732D01*
X214726Y173774D01*
X215101Y174337D01*
X215233Y175000D01*
X215101Y175663D01*
X214726Y176226D01*
X214316Y176500D01*
Y185579D01*
X228315D01*
Y185579D01*
X232221D01*
Y185579D01*
X246235D01*
Y184817D01*
X245544Y184125D01*
X245000Y184233D01*
X244337Y184101D01*
X243774Y183726D01*
X243399Y183163D01*
X243267Y182500D01*
X243399Y181837D01*
X243774Y181274D01*
X244337Y180899D01*
X245000Y180767D01*
X245663Y180899D01*
X246226Y181274D01*
X246601Y181837D01*
X246733Y182500D01*
X246693Y182704D01*
X246997Y183030D01*
X247292Y182627D01*
X247267Y182500D01*
X247399Y181837D01*
X247774Y181274D01*
X248337Y180899D01*
X249000Y180767D01*
X249663Y180899D01*
X250200Y181257D01*
X250343Y181227D01*
X250700Y181084D01*
Y179250D01*
X255500D01*
Y183750D01*
X252303D01*
X251957Y184097D01*
Y191000D01*
X251937Y191098D01*
Y195987D01*
X251937Y196369D01*
X252123Y196811D01*
X252292Y196808D01*
X252500Y196767D01*
X253163Y196899D01*
X253726Y197274D01*
X254101Y197837D01*
X254145Y198058D01*
X257327D01*
Y197874D01*
X268169D01*
Y201811D01*
Y205748D01*
Y209685D01*
Y213806D01*
X277540D01*
X279363Y211984D01*
X279267Y211500D01*
X279399Y210837D01*
X279774Y210274D01*
X280337Y209899D01*
X281000Y209767D01*
X281663Y209899D01*
X281730Y209943D01*
X282171Y209707D01*
Y203834D01*
X272867Y194529D01*
X266541D01*
Y196000D01*
X266383Y196383D01*
X266000Y196541D01*
X254000D01*
X253617Y196383D01*
X253459Y196000D01*
Y186000D01*
X253617Y185617D01*
X254000Y185459D01*
X266000D01*
X266383Y185617D01*
X266541Y186000D01*
Y191471D01*
X273500D01*
X274085Y191587D01*
X274581Y191919D01*
X284220Y201557D01*
X284682Y201366D01*
Y196819D01*
X263392Y175528D01*
X263193Y175231D01*
X263123Y174879D01*
Y171962D01*
X262001D01*
X258300Y175663D01*
Y177500D01*
X254300D01*
Y173500D01*
X256137D01*
X259952Y169685D01*
Y166550D01*
X259453Y166282D01*
X259279Y166398D01*
X258700Y166513D01*
X258121Y166398D01*
X257630Y166070D01*
X257364Y165672D01*
X256905Y165739D01*
X256864Y165755D01*
Y169994D01*
X250352D01*
Y163482D01*
X256864D01*
Y164245D01*
X256905Y164261D01*
X257364Y164328D01*
X257630Y163930D01*
X258121Y163602D01*
X258700Y163487D01*
X259279Y163602D01*
X259453Y163718D01*
X259794Y163581D01*
X259964Y163458D01*
X260069Y162933D01*
X260401Y162437D01*
X264419Y158419D01*
X264915Y158087D01*
X265500Y157971D01*
X273500D01*
X274085Y158087D01*
X274581Y158419D01*
X276133Y159971D01*
X279190D01*
Y153206D01*
X285506D01*
Y159971D01*
X289600D01*
Y158050D01*
X291550Y156100D01*
X295450D01*
X297400Y158050D01*
Y161950D01*
X295450Y163900D01*
X291550D01*
X290679Y163029D01*
X282963D01*
X282848Y163482D01*
X282848Y163529D01*
Y169994D01*
X276336D01*
Y165755D01*
X276295Y165739D01*
X275836Y165672D01*
X275570Y166070D01*
X275079Y166398D01*
X274500Y166513D01*
X273921Y166398D01*
X273430Y166070D01*
X273102Y165579D01*
X272987Y165000D01*
X273102Y164421D01*
X273430Y163930D01*
X273921Y163602D01*
X274500Y163487D01*
X275079Y163602D01*
X275570Y163930D01*
X275836Y164328D01*
X276295Y164261D01*
X276336Y164245D01*
Y163529D01*
X276336Y163482D01*
X276222Y163029D01*
X275500D01*
X274915Y162913D01*
X274419Y162581D01*
X272867Y161029D01*
X270794D01*
X270631Y161529D01*
X271047Y162152D01*
X271216Y163000D01*
X271047Y163848D01*
X270567Y164567D01*
X269848Y165047D01*
X269000Y165216D01*
X268152Y165047D01*
X267433Y164567D01*
X266953Y163848D01*
X266784Y163000D01*
X266953Y162152D01*
X267369Y161529D01*
X267206Y161029D01*
X266133D01*
X263011Y164152D01*
Y166238D01*
X270446D01*
Y171962D01*
X267518D01*
Y175220D01*
X287649Y195351D01*
X287848Y195649D01*
X287918Y196000D01*
Y234000D01*
X287848Y234351D01*
X287649Y234649D01*
X283405Y238893D01*
X283107Y239092D01*
X282756Y239162D01*
X268169D01*
Y241161D01*
X271750D01*
Y240200D01*
X276250D01*
Y245000D01*
X271750D01*
Y243201D01*
X262748D01*
X262650Y243181D01*
X257327D01*
Y239213D01*
Y235123D01*
X248307D01*
X248307Y235123D01*
X247995Y235061D01*
X247730Y234884D01*
X247730Y234884D01*
X243484Y230637D01*
X243000Y230733D01*
X242493Y230632D01*
X242247Y231093D01*
X256813Y245659D01*
X257300Y245439D01*
X257327Y245374D01*
Y245118D01*
X257433D01*
X257433Y245117D01*
X257816Y244959D01*
X268500D01*
X268883Y245117D01*
X269041Y245500D01*
Y249263D01*
X269397Y249333D01*
X270158Y249842D01*
X270667Y250603D01*
X270845Y251500D01*
X270667Y252397D01*
X270158Y253158D01*
X269397Y253667D01*
X269041Y253737D01*
Y257000D01*
X268883Y257383D01*
X268500Y257541D01*
X267400D01*
Y260750D01*
X267400D01*
X267559Y261184D01*
X277162D01*
X292684Y245662D01*
Y223900D01*
X291550D01*
X289600Y221950D01*
Y218050D01*
X291550Y216100D01*
X295450D01*
X297400Y218050D01*
Y221950D01*
X295450Y223900D01*
X294316D01*
Y246000D01*
X294316Y246000D01*
X294254Y246312D01*
X294077Y246577D01*
X294077Y246577D01*
X278077Y262577D01*
X277812Y262754D01*
X277500Y262816D01*
X277500Y262816D01*
X270271D01*
X270119Y263316D01*
X270158Y263342D01*
X270667Y264103D01*
X270845Y265000D01*
X270667Y265897D01*
X270158Y266658D01*
X269397Y267167D01*
X269173Y267211D01*
X264942Y271442D01*
X264942Y271442D01*
X257592Y278792D01*
X257006Y279183D01*
Y279350D01*
X256347D01*
X256150Y279389D01*
X244629D01*
Y289750D01*
X245500D01*
Y294250D01*
X244269D01*
Y295729D01*
X244341Y295837D01*
X244474Y296500D01*
X244341Y297163D01*
X244269Y297271D01*
Y299681D01*
X244153Y300266D01*
X244126Y300307D01*
Y302150D01*
D02*
G37*
G36*
X175634Y280358D02*
X171878D01*
Y274634D01*
X175634D01*
Y277034D01*
X179506D01*
Y275850D01*
X183506D01*
Y279850D01*
X179506D01*
Y278666D01*
X175634D01*
Y280358D01*
D02*
G37*
G36*
X171850Y288494D02*
X167850D01*
Y284494D01*
X169034D01*
Y283944D01*
X167667Y282577D01*
X167490Y282312D01*
X167428Y282000D01*
X167428Y282000D01*
Y280358D01*
X166366D01*
Y274634D01*
X170122D01*
Y280358D01*
X169060D01*
Y281662D01*
X170427Y283029D01*
X170427Y283029D01*
X170604Y283294D01*
X170666Y283606D01*
X170666Y283606D01*
Y284494D01*
X171850D01*
Y288494D01*
D02*
G37*
G36*
X170122Y267366D02*
X166366D01*
Y261642D01*
X167184D01*
Y259300D01*
X166000D01*
Y255300D01*
X170000D01*
Y259300D01*
X168816D01*
Y261642D01*
X170122D01*
Y267366D01*
D02*
G37*
G36*
X166200Y288500D02*
X162200D01*
Y284500D01*
X163184D01*
Y244000D01*
X162774Y243726D01*
X162399Y243163D01*
X162267Y242500D01*
X162399Y241837D01*
X162774Y241274D01*
X163337Y240899D01*
X164000Y240767D01*
X164663Y240899D01*
X165226Y241274D01*
X165584Y241810D01*
X165601Y241837D01*
X165732Y242249D01*
X165735Y242249D01*
X166184Y242126D01*
Y241000D01*
X165774Y240726D01*
X165399Y240163D01*
X165267Y239500D01*
X165399Y238837D01*
X165774Y238274D01*
X166337Y237899D01*
X167000Y237767D01*
X167663Y237899D01*
X168226Y238274D01*
X168601Y238837D01*
X168733Y239500D01*
X168601Y240163D01*
X168226Y240726D01*
X167816Y241000D01*
Y249650D01*
X169994D01*
Y253650D01*
X165994D01*
Y249650D01*
X166184D01*
Y242874D01*
X165735Y242751D01*
X165732Y242751D01*
X165601Y243163D01*
X165584Y243190D01*
X165226Y243726D01*
X164816Y244000D01*
Y284500D01*
X166200D01*
Y288500D01*
D02*
G37*
G36*
X295450Y213900D02*
X291550D01*
X289600Y211950D01*
Y208050D01*
X291550Y206100D01*
X295450D01*
X297400Y208050D01*
Y211950D01*
X295450Y213900D01*
D02*
G37*
G36*
Y203900D02*
X291550D01*
X289600Y201950D01*
Y198050D01*
X291550Y196100D01*
X295450D01*
X297400Y198050D01*
Y201950D01*
X295450Y203900D01*
D02*
G37*
G36*
Y193900D02*
X291550D01*
X289600Y191950D01*
Y188050D01*
X291550Y186100D01*
X295450D01*
X297400Y188050D01*
Y191950D01*
X295450Y193900D01*
D02*
G37*
G36*
Y183900D02*
X291550D01*
X289600Y181950D01*
Y178050D01*
X291550Y176100D01*
X295450D01*
X297400Y178050D01*
Y181950D01*
X295450Y183900D01*
D02*
G37*
G36*
X246075Y177675D02*
X241925D01*
Y173525D01*
X243802D01*
X244094Y173467D01*
X250650D01*
X250847Y173506D01*
X252650D01*
Y175309D01*
X252689Y175506D01*
X252650Y175703D01*
Y177506D01*
X250847D01*
X250650Y177546D01*
X246075D01*
Y177675D01*
D02*
G37*
G36*
X295450Y173900D02*
X291550D01*
X289600Y171950D01*
Y168050D01*
X291550Y166100D01*
X295450D01*
X297400Y168050D01*
Y171950D01*
X295450Y173900D01*
D02*
G37*
G36*
X168450D02*
X164550D01*
X162600Y171950D01*
Y168050D01*
X164550Y166100D01*
X168450D01*
X170400Y168050D01*
Y171950D01*
X168450Y173900D01*
D02*
G37*
G36*
X237504Y165216D02*
X236656Y165047D01*
X235937Y164567D01*
X235457Y163848D01*
X235288Y163000D01*
X235457Y162152D01*
X235937Y161433D01*
X236656Y160953D01*
X237504Y160784D01*
X238352Y160953D01*
X239071Y161433D01*
X239551Y162152D01*
X239720Y163000D01*
X239551Y163848D01*
X239071Y164567D01*
X238352Y165047D01*
X237504Y165216D01*
D02*
G37*
G36*
X191500Y165000D02*
X180500D01*
Y156163D01*
X175866Y151529D01*
X170400D01*
Y151950D01*
X168450Y153900D01*
X164550D01*
X162600Y151950D01*
Y148050D01*
X164550Y146100D01*
X168450D01*
X170400Y148050D01*
Y148471D01*
X176500D01*
X177085Y148587D01*
X177582Y148919D01*
X182663Y154000D01*
X191500D01*
Y155970D01*
X204474D01*
X204771Y155847D01*
X205750Y155718D01*
X214250D01*
X215229Y155847D01*
X216141Y156224D01*
X216925Y156825D01*
X217336Y157361D01*
X222250D01*
Y157100D01*
X226750D01*
Y157361D01*
X229750D01*
Y157000D01*
X234250D01*
Y161800D01*
X229750D01*
Y161439D01*
X226750D01*
Y161900D01*
X222250D01*
Y161439D01*
X217489D01*
X216925Y162174D01*
X216141Y162776D01*
X215229Y163154D01*
X214250Y163282D01*
X205750D01*
X204771Y163154D01*
X204474Y163030D01*
X191500D01*
Y165000D01*
D02*
G37*
G36*
X168450Y163900D02*
X164550D01*
X162600Y161950D01*
Y158050D01*
X164550Y156100D01*
X168450D01*
X170400Y158050D01*
Y161950D01*
X168450Y163900D01*
D02*
G37*
G36*
X254010Y160112D02*
X247694D01*
Y153206D01*
X254010D01*
Y160112D01*
D02*
G37*
G36*
X275171Y154639D02*
X269840D01*
Y149702D01*
X275171D01*
Y154639D01*
D02*
G37*
G36*
X263360D02*
X258029D01*
Y149702D01*
X263360D01*
Y154639D01*
D02*
G37*
%LPD*%
G36*
X262058Y268558D02*
X262058Y268558D01*
X266289Y264327D01*
X266333Y264103D01*
X266842Y263342D01*
X266881Y263316D01*
X266729Y262816D01*
X261500D01*
X261500Y262816D01*
X261188Y262754D01*
X260923Y262577D01*
X256423Y258077D01*
X256374Y258003D01*
X255874Y258155D01*
Y259413D01*
X252274D01*
X252067Y259913D01*
X255577Y263423D01*
X255753Y263688D01*
X255816Y264000D01*
X255816Y264000D01*
Y269700D01*
X257000D01*
Y272963D01*
X257462Y273154D01*
X262058Y268558D01*
D02*
G37*
G36*
X256454Y274162D02*
X256263Y273700D01*
X253000D01*
Y269700D01*
X254184D01*
Y264338D01*
X251178Y261332D01*
X250878Y261438D01*
X250692Y261552D01*
X250570Y262163D01*
X250194Y262726D01*
X249816Y262979D01*
Y269700D01*
X251000D01*
Y273700D01*
X247000D01*
Y269700D01*
X248184D01*
Y267439D01*
X247887Y267301D01*
X247684Y267253D01*
X247163Y267601D01*
X246500Y267733D01*
X245837Y267601D01*
X245274Y267226D01*
X244899Y266663D01*
X244767Y266000D01*
X244899Y265337D01*
X245274Y264774D01*
X245684Y264500D01*
Y263176D01*
X245184Y262969D01*
X243816Y264338D01*
Y267000D01*
X244226Y267274D01*
X244601Y267837D01*
X244733Y268500D01*
X244601Y269163D01*
X244537Y269259D01*
X244773Y269700D01*
X245000D01*
Y273700D01*
X241000D01*
Y269700D01*
X241227D01*
X241463Y269259D01*
X241399Y269163D01*
X241267Y268500D01*
X241399Y267837D01*
X241774Y267274D01*
X242184Y267001D01*
Y264000D01*
X242184Y264000D01*
X242246Y263688D01*
X242423Y263423D01*
X244216Y261631D01*
Y259413D01*
X241910D01*
Y259906D01*
X241910Y259906D01*
X241848Y260218D01*
X241671Y260482D01*
X238637Y263516D01*
X238733Y264000D01*
X238601Y264663D01*
X238226Y265226D01*
X237816Y265500D01*
Y269700D01*
X239000D01*
Y273700D01*
X235000D01*
Y269700D01*
X236184D01*
Y265500D01*
X235774Y265226D01*
X235399Y264663D01*
X235267Y264000D01*
X235399Y263337D01*
X235774Y262774D01*
X236337Y262399D01*
X237000Y262267D01*
X237484Y262363D01*
X239933Y259913D01*
X239726Y259413D01*
X220257D01*
Y261603D01*
X221947Y263294D01*
X221947Y263294D01*
X222124Y263558D01*
X222186Y263871D01*
Y266833D01*
X225154Y269800D01*
X228000D01*
Y271184D01*
X229500D01*
X229774Y270774D01*
X230337Y270399D01*
X231000Y270267D01*
X231663Y270399D01*
X232226Y270774D01*
X232601Y271337D01*
X232733Y272000D01*
X232601Y272663D01*
X232226Y273226D01*
X231663Y273601D01*
X231000Y273733D01*
X230337Y273601D01*
X229774Y273226D01*
X229500Y272816D01*
X228000D01*
Y273800D01*
X224000D01*
Y270953D01*
X220794Y267747D01*
X220617Y267483D01*
X220555Y267170D01*
X220555Y267170D01*
Y264208D01*
X218864Y262518D01*
X218788Y262404D01*
X218288Y262556D01*
Y263482D01*
X218726Y263774D01*
X219101Y264337D01*
X219233Y265000D01*
X219101Y265663D01*
X218726Y266226D01*
X218288Y266518D01*
Y269650D01*
X218994D01*
Y273650D01*
X214994D01*
Y269650D01*
X216657D01*
Y266481D01*
X216274Y266226D01*
X215899Y265663D01*
X215865Y265495D01*
X215323Y265331D01*
X214137Y266516D01*
X214233Y267000D01*
X214101Y267663D01*
X213726Y268226D01*
X213163Y268601D01*
X212500Y268733D01*
X212242Y268682D01*
X211809Y269054D01*
Y269650D01*
X212994D01*
Y273650D01*
X208994D01*
Y269650D01*
X210178D01*
Y268506D01*
X210178Y268506D01*
X210240Y268194D01*
X210417Y267930D01*
X210863Y267484D01*
X210767Y267000D01*
X210899Y266337D01*
X211274Y265774D01*
X211837Y265399D01*
X212500Y265267D01*
X212984Y265363D01*
X214688Y263658D01*
Y259413D01*
X210567D01*
Y248571D01*
X210720D01*
Y248000D01*
X210310Y247726D01*
X209934Y247163D01*
X209802Y246500D01*
X209934Y245837D01*
X210310Y245274D01*
X210872Y244899D01*
X211535Y244767D01*
X212199Y244899D01*
X212279Y244952D01*
X212720Y244716D01*
Y243535D01*
X212310Y243261D01*
X211934Y242699D01*
X211806Y242055D01*
X211723Y241999D01*
X211336Y241818D01*
X210396Y242758D01*
X210131Y242935D01*
X209819Y242997D01*
X209819Y242997D01*
X205177D01*
Y247118D01*
X200572D01*
Y250744D01*
X200572Y250744D01*
X200510Y251056D01*
X200333Y251321D01*
X191577Y260077D01*
X191312Y260254D01*
X191000Y260316D01*
X191000Y260316D01*
X183000D01*
X182726Y260726D01*
X182163Y261101D01*
X181500Y261233D01*
X180837Y261101D01*
X180274Y260726D01*
X179899Y260163D01*
X179767Y259500D01*
X179899Y258837D01*
X180274Y258274D01*
X180837Y257899D01*
X181500Y257767D01*
X182163Y257899D01*
X182726Y258274D01*
X183000Y258684D01*
X190662D01*
X198940Y250406D01*
Y247118D01*
X194335D01*
Y245118D01*
Y241181D01*
Y237295D01*
X193047D01*
X190300Y240042D01*
Y243250D01*
X189939D01*
Y244750D01*
X190400D01*
Y249250D01*
X189939D01*
Y250360D01*
X189939Y250360D01*
X189784Y251140D01*
X189342Y251802D01*
X186202Y254942D01*
X185540Y255384D01*
X184760Y255539D01*
X176345D01*
X175795Y256089D01*
Y261961D01*
X198700D01*
Y261750D01*
X199061D01*
Y258900D01*
X199216Y258120D01*
X199658Y257458D01*
X200459Y256657D01*
Y253000D01*
X200617Y252617D01*
X200617Y252617D01*
X204617Y248617D01*
X205000Y248459D01*
X205000Y248459D01*
X208500D01*
X208883Y248617D01*
X209041Y249000D01*
Y259500D01*
X208883Y259883D01*
X208500Y260041D01*
X203139D01*
Y261750D01*
X203500D01*
Y266250D01*
X203139D01*
Y271255D01*
X207145Y275261D01*
X236956D01*
X237208Y275311D01*
X255305D01*
X256454Y274162D01*
D02*
G37*
G36*
X208500Y249000D02*
X205000D01*
X201000Y253000D01*
Y259500D01*
X208500D01*
Y249000D01*
D02*
G37*
G36*
X268500Y245500D02*
X257816D01*
Y257000D01*
X268500D01*
Y245500D01*
D02*
G37*
G36*
X255874Y248571D02*
X256184Y248199D01*
Y247338D01*
X238662Y229816D01*
X232439D01*
X232301Y230113D01*
X232253Y230316D01*
X232601Y230837D01*
X232733Y231500D01*
X232601Y232163D01*
X232226Y232726D01*
X231663Y233101D01*
X231000Y233233D01*
X230337Y233101D01*
X229774Y232726D01*
X229500Y232316D01*
X228831D01*
X228595Y232757D01*
X228649Y232837D01*
X228781Y233500D01*
X228649Y234163D01*
X228273Y234726D01*
X227711Y235101D01*
X227047Y235233D01*
X226384Y235101D01*
X225822Y234726D01*
X225548Y234316D01*
X217051D01*
X215644Y235722D01*
X215835Y236184D01*
X218000D01*
X218274Y235774D01*
X218837Y235399D01*
X219500Y235267D01*
X220163Y235399D01*
X220726Y235774D01*
X221101Y236337D01*
X221233Y237000D01*
X221101Y237663D01*
X220726Y238226D01*
X220163Y238601D01*
X219500Y238733D01*
X218837Y238601D01*
X218274Y238226D01*
X218000Y237816D01*
X215338D01*
X213318Y239836D01*
X213498Y240223D01*
X213555Y240306D01*
X214199Y240434D01*
X214761Y240810D01*
X215137Y241372D01*
X215269Y242035D01*
X215137Y242699D01*
X214761Y243261D01*
X214351Y243535D01*
Y248571D01*
X220384D01*
Y246000D01*
X219974Y245726D01*
X219599Y245163D01*
X219467Y244500D01*
X219599Y243837D01*
X219974Y243274D01*
X220537Y242899D01*
X221200Y242767D01*
X221863Y242899D01*
X222062Y243032D01*
X222562Y242764D01*
Y241014D01*
X222447Y240991D01*
X221885Y240615D01*
X221509Y240053D01*
X221377Y239390D01*
X221509Y238726D01*
X221885Y238164D01*
X222447Y237788D01*
X223110Y237656D01*
X223774Y237788D01*
X224336Y238164D01*
X224712Y238726D01*
X224844Y239390D01*
X224712Y240053D01*
X224336Y240615D01*
X224194Y240710D01*
Y248571D01*
X230436D01*
Y240248D01*
X230026Y239974D01*
X229651Y239411D01*
X229519Y238748D01*
X229651Y238085D01*
X230026Y237522D01*
X230589Y237147D01*
X231252Y237015D01*
X231915Y237147D01*
X232478Y237522D01*
X232853Y238085D01*
X232985Y238748D01*
X232853Y239411D01*
X232478Y239974D01*
X232068Y240248D01*
Y248571D01*
X249302D01*
X249566Y248071D01*
X249336Y247726D01*
X249204Y247063D01*
X249336Y246400D01*
X249711Y245837D01*
X250274Y245462D01*
X250937Y245330D01*
X251600Y245462D01*
X252163Y245837D01*
X252538Y246400D01*
X252670Y247063D01*
X252538Y247726D01*
X252308Y248071D01*
X252572Y248571D01*
X255874D01*
D02*
G37*
G36*
X284109Y232994D02*
X283902Y232494D01*
X282547D01*
X282350Y232533D01*
X282153Y232494D01*
X280350D01*
Y230691D01*
X280311Y230494D01*
Y227500D01*
Y224494D01*
X280350Y224297D01*
Y222494D01*
X282153D01*
X282171Y222490D01*
Y219960D01*
X281915Y219825D01*
X281671Y219762D01*
X281163Y220101D01*
X280500Y220233D01*
X279837Y220101D01*
X279274Y219726D01*
X279040Y219375D01*
X268169D01*
Y221528D01*
X268169D01*
Y224567D01*
X268669Y224803D01*
X268805Y224692D01*
X268767Y224500D01*
X268899Y223837D01*
X269274Y223274D01*
X269837Y222899D01*
X270500Y222767D01*
X271163Y222899D01*
X271726Y223274D01*
X272000Y223684D01*
X274700D01*
Y222500D01*
X278700D01*
Y226500D01*
X274700D01*
Y225316D01*
X272000D01*
X271726Y225726D01*
X271163Y226101D01*
X270500Y226233D01*
X270016Y226137D01*
X269144Y227010D01*
X269030Y227086D01*
X269181Y227586D01*
X270901D01*
X270902Y227586D01*
X271214Y227648D01*
X271478Y227825D01*
X272016Y228363D01*
X272500Y228267D01*
X273163Y228399D01*
X273726Y228774D01*
X274000Y229184D01*
X274700D01*
Y228500D01*
X278700D01*
Y232500D01*
X278700Y232500D01*
X278838Y232943D01*
X279101Y233337D01*
X279233Y234000D01*
X279101Y234663D01*
X278971Y234858D01*
X279239Y235358D01*
X281744D01*
X284109Y232994D01*
D02*
G37*
G36*
X257327Y231186D02*
X252870D01*
X252870Y231186D01*
X252558Y231124D01*
X252293Y230947D01*
X248662Y227316D01*
X244439D01*
X244301Y227613D01*
X244253Y227816D01*
X244601Y228337D01*
X244733Y229000D01*
X244637Y229484D01*
X248645Y233491D01*
X257327D01*
Y231186D01*
D02*
G37*
G36*
X213166Y230923D02*
X213166Y230923D01*
X213430Y230746D01*
X213742Y230684D01*
X213742Y230684D01*
X229443D01*
X229739Y230283D01*
X229699Y230113D01*
X229561Y229816D01*
X210500D01*
X210188Y229754D01*
X209923Y229577D01*
X209923Y229577D01*
X208520Y228173D01*
X208020Y228380D01*
Y235000D01*
X207942Y235390D01*
X207842Y235540D01*
X208230Y235859D01*
X213166Y230923D01*
D02*
G37*
G36*
X185626Y249750D02*
X185600Y249250D01*
X185600D01*
Y244750D01*
X185861D01*
Y243250D01*
X185500D01*
Y238750D01*
X188708D01*
X191903Y235555D01*
X192234Y235334D01*
X192624Y235256D01*
X194335D01*
Y233307D01*
Y229370D01*
X205177D01*
Y231339D01*
Y234640D01*
X205614Y234827D01*
X205980Y234531D01*
Y228422D01*
X205011Y227453D01*
X199756D01*
X199657Y227433D01*
X194335D01*
Y225374D01*
X193835Y225319D01*
X192059Y227095D01*
Y229350D01*
X189816D01*
Y230750D01*
X190400D01*
Y235250D01*
X185600D01*
Y230750D01*
X188184D01*
Y229350D01*
X185941D01*
Y224217D01*
X192059D01*
Y224217D01*
X192463Y224384D01*
X192959Y223888D01*
X193072Y223812D01*
X192921Y223312D01*
X182941D01*
X182629Y223250D01*
X182364Y223073D01*
X182364Y223073D01*
X181358Y222067D01*
X176886D01*
Y216933D01*
X180684D01*
Y215250D01*
X179100D01*
Y210750D01*
X183900D01*
Y215250D01*
X182316D01*
Y216933D01*
X183004D01*
Y221406D01*
X183279Y221680D01*
X193413D01*
X193565Y221180D01*
X193451Y221104D01*
X192423Y220077D01*
X192246Y219812D01*
X192184Y219500D01*
X192184Y219500D01*
Y213036D01*
X188642Y209494D01*
X186350D01*
Y205494D01*
X187684D01*
Y204250D01*
X186100D01*
Y199750D01*
X190900D01*
X190971Y199279D01*
Y198400D01*
X189250D01*
Y197339D01*
X186750D01*
Y198400D01*
X182250D01*
Y197339D01*
X178000D01*
X177803Y197300D01*
X176000D01*
Y197300D01*
X175529Y197371D01*
Y205971D01*
X180700D01*
Y205500D01*
X184700D01*
Y209500D01*
X180700D01*
Y209029D01*
X175529D01*
Y229867D01*
X176582Y230919D01*
X176913Y231415D01*
X177029Y232000D01*
Y251461D01*
X183915D01*
X185626Y249750D01*
D02*
G37*
G36*
X257327Y225465D02*
X257327D01*
Y225316D01*
X249515D01*
X249416Y225816D01*
X249577Y225923D01*
X253208Y229554D01*
X257327D01*
Y225465D01*
D02*
G37*
G36*
X227699Y227887D02*
X227747Y227684D01*
X227399Y227163D01*
X227267Y226500D01*
X227399Y225837D01*
X227452Y225757D01*
X227216Y225316D01*
X215000D01*
X214726Y225726D01*
X214163Y226101D01*
X213500Y226233D01*
X212837Y226101D01*
X212274Y225726D01*
X211899Y225163D01*
X211767Y224500D01*
X211899Y223837D01*
X212274Y223274D01*
X212837Y222899D01*
X213500Y222767D01*
X214163Y222899D01*
X214726Y223274D01*
X215000Y223684D01*
X215716D01*
X215952Y223243D01*
X215899Y223163D01*
X215767Y222500D01*
X215899Y221837D01*
X216274Y221274D01*
X216837Y220899D01*
X217500Y220767D01*
X218163Y220899D01*
X218726Y221274D01*
X218997Y221680D01*
X257327D01*
Y221496D01*
X257327D01*
Y217559D01*
Y213622D01*
Y209685D01*
Y205544D01*
X243779D01*
X243487Y205486D01*
X243239Y205320D01*
X238544Y200625D01*
X238000Y200733D01*
X237337Y200601D01*
X236774Y200226D01*
X236399Y199663D01*
X236267Y199000D01*
X236399Y198337D01*
X236774Y197774D01*
X237337Y197399D01*
X238000Y197267D01*
X238663Y197399D01*
X239226Y197774D01*
X239601Y198337D01*
X239733Y199000D01*
X239625Y199544D01*
X244096Y204015D01*
X246956D01*
X247018Y203518D01*
X246770Y203352D01*
X243544Y200125D01*
X243000Y200233D01*
X242337Y200101D01*
X241774Y199726D01*
X241399Y199163D01*
X241267Y198500D01*
X241399Y197837D01*
X241774Y197274D01*
X242303Y196921D01*
X242308Y196885D01*
X242012Y196421D01*
X232252D01*
Y196421D01*
X228284D01*
Y196421D01*
X216320D01*
Y201666D01*
X221577Y206923D01*
X221577Y206923D01*
X221754Y207188D01*
X221816Y207500D01*
Y209000D01*
X222226Y209274D01*
X222601Y209837D01*
X222733Y210500D01*
X222601Y211163D01*
X222226Y211726D01*
X221962Y211902D01*
X221816Y212536D01*
X221821Y212551D01*
X221920Y212684D01*
X235500D01*
X235774Y212274D01*
X236337Y211899D01*
X237000Y211767D01*
X237663Y211899D01*
X238226Y212274D01*
X238601Y212837D01*
X238733Y213500D01*
X238601Y214163D01*
X238226Y214726D01*
X237663Y215101D01*
X237000Y215233D01*
X236337Y215101D01*
X235774Y214726D01*
X235500Y214316D01*
X221172D01*
X220859Y214254D01*
X220595Y214077D01*
X220595Y214077D01*
X212316Y205798D01*
X211816Y206005D01*
Y211500D01*
X211816Y211500D01*
X211754Y211812D01*
X211577Y212077D01*
X206486Y217167D01*
X206222Y217344D01*
X206071Y217374D01*
X206008Y217897D01*
X206136Y217982D01*
X209077Y220923D01*
X209077Y220923D01*
X209254Y221188D01*
X209316Y221500D01*
X209316Y221500D01*
Y222000D01*
X209726Y222274D01*
X210101Y222837D01*
X210233Y223500D01*
X210101Y224163D01*
X209726Y224726D01*
X209163Y225101D01*
X208578Y225218D01*
X208438Y225465D01*
X208371Y225717D01*
X210838Y228184D01*
X227561D01*
X227699Y227887D01*
D02*
G37*
G36*
X205000Y206000D02*
X191500D01*
Y206500D01*
Y209500D01*
X205000D01*
Y206000D01*
D02*
G37*
G36*
X219380Y209931D02*
X219399Y209837D01*
X219774Y209274D01*
X220184Y209000D01*
Y207838D01*
X214927Y202581D01*
X214750Y202316D01*
X214688Y202004D01*
X214688Y202004D01*
Y196421D01*
X212383D01*
Y203557D01*
X218901Y210076D01*
X219380Y209931D01*
D02*
G37*
G36*
X194335Y218393D02*
Y215591D01*
Y211653D01*
X205177D01*
Y212962D01*
X205677Y213169D01*
X208184Y210662D01*
Y208500D01*
X207774Y208226D01*
X207399Y207663D01*
X207267Y207000D01*
X207399Y206337D01*
X207774Y205774D01*
X208136Y205533D01*
Y204967D01*
X207774Y204726D01*
X207399Y204163D01*
X207267Y203500D01*
X207399Y202837D01*
X207774Y202274D01*
X208337Y201899D01*
X209000Y201767D01*
X209663Y201899D01*
X210226Y202274D01*
X210251Y202313D01*
X210751Y202161D01*
Y196421D01*
X208598D01*
Y191098D01*
X208579Y191000D01*
Y183250D01*
X205500D01*
Y180763D01*
X201766Y177029D01*
X198244D01*
X198158Y177158D01*
X197397Y177667D01*
X196500Y177845D01*
X195603Y177667D01*
X194842Y177158D01*
X194756Y177029D01*
X192777D01*
X179994Y189813D01*
Y191650D01*
X178156D01*
X176968Y192838D01*
X177160Y193300D01*
X177803D01*
X178000Y193261D01*
X190800D01*
X191580Y193416D01*
X191856Y193600D01*
X193750D01*
Y196171D01*
X193913Y196415D01*
X194029Y197000D01*
Y197501D01*
X194335Y197874D01*
X205177D01*
Y201811D01*
Y205532D01*
X205383Y205617D01*
X205541Y206000D01*
Y209500D01*
X205383Y209883D01*
X205000Y210041D01*
X192203D01*
X191996Y210541D01*
X193577Y212122D01*
X193577Y212122D01*
X193754Y212386D01*
X193816Y212699D01*
X193816Y212699D01*
Y218648D01*
X193835Y218660D01*
X194335Y218393D01*
D02*
G37*
G36*
X266000Y186000D02*
X254000D01*
Y196000D01*
X266000D01*
Y186000D01*
D02*
G37*
G36*
X175994Y189487D02*
Y187650D01*
X177831D01*
X191062Y174419D01*
X191558Y174087D01*
X192144Y173971D01*
X194756D01*
X194842Y173842D01*
X195603Y173333D01*
X196500Y173155D01*
X197397Y173333D01*
X198158Y173842D01*
X198244Y173971D01*
X202400D01*
X202985Y174087D01*
X203481Y174419D01*
X207813Y178750D01*
X210300D01*
Y181958D01*
X210319Y181977D01*
X210540Y182308D01*
X210618Y182698D01*
Y185579D01*
X212684D01*
Y176500D01*
X212274Y176226D01*
X211899Y175663D01*
X211767Y175000D01*
X211899Y174337D01*
X212274Y173774D01*
X212111Y173282D01*
X205750D01*
X204771Y173153D01*
X203859Y172776D01*
X203076Y172175D01*
X202475Y171391D01*
X202325Y171029D01*
X184134D01*
X173029Y182133D01*
Y191798D01*
X173491Y191989D01*
X175994Y189487D01*
D02*
G37*
D10*
X181000Y237050D02*
X189729D01*
X250000Y304000D02*
Y311500D01*
Y292000D02*
Y304000D01*
X226000Y303000D02*
X227000Y304000D01*
X250000D01*
X223600Y287500D02*
X228100Y292000D01*
X212500Y287500D02*
X223600D01*
X226000Y294100D02*
Y303000D01*
Y294100D02*
X228100Y292000D01*
X240500Y314500D02*
X247000D01*
X239000Y313000D02*
X240500Y314500D01*
X239000Y310705D02*
Y313000D01*
X247000Y314500D02*
X250000Y311500D01*
X244000Y146500D02*
X290000D01*
X232000Y200000D02*
Y207000D01*
X228000Y211000D02*
X232000Y207000D01*
X262748Y242181D02*
X273581D01*
X253100Y181500D02*
Y181511D01*
X250937Y183674D02*
X253100Y181511D01*
X250937Y183674D02*
Y191000D01*
X254874D02*
X260100D01*
X262748Y256248D02*
X265000Y258500D01*
X273581Y242181D02*
X274000Y242600D01*
X207900Y181000D02*
X209598Y182698D01*
Y191000D01*
X192624Y236276D02*
X199756D01*
X187900Y241000D02*
X192624Y236276D01*
X260100Y191000D02*
X262772Y188328D01*
X265000Y252000D02*
Y258500D01*
X262748Y246118D02*
Y256248D01*
X271900Y258500D02*
X274000Y256400D01*
Y249500D02*
X286500Y237000D01*
X291500D01*
X274000Y249500D02*
Y256400D01*
X268650Y244150D02*
X274000Y249500D01*
X262748Y244150D02*
X268650D01*
X229850Y266150D02*
X231500Y264500D01*
X225994Y266150D02*
X229850D01*
X209598Y253992D02*
Y262402D01*
X273000Y188000D02*
X274500Y189500D01*
X270000Y188000D02*
X273000D01*
X254000Y184500D02*
X257000D01*
X252906Y185594D02*
Y191000D01*
X263500Y181500D02*
X270000Y188000D01*
X257000Y184500D02*
X260000Y181500D01*
X252906Y185594D02*
X254000Y184500D01*
X271718Y175218D02*
X277500Y181000D01*
X271718Y169100D02*
Y175218D01*
X290000Y146500D02*
X293500Y150000D01*
X260000Y181500D02*
X263500D01*
X233500Y176400D02*
X239400D01*
X232000Y152500D02*
X235500D01*
X244000Y146500D02*
Y151500D01*
X235500Y152500D02*
X241500Y146500D01*
X244000D01*
X226000Y176400D02*
X233500D01*
X224600Y152500D02*
X232000D01*
X224500Y152600D02*
X224600Y152500D01*
X221400Y149500D02*
X224500Y152600D01*
X210000Y149500D02*
X221400D01*
X206000Y270500D02*
X208000Y268500D01*
Y264000D02*
X209598Y262402D01*
X208000Y264000D02*
Y268500D01*
X192500Y230500D02*
Y234279D01*
X189729Y237050D02*
X192500Y234279D01*
X194598Y228402D02*
X199756D01*
Y210685D02*
X205315D01*
X206500Y209500D01*
X207630Y191000D02*
Y198259D01*
X192500Y230500D02*
X194598Y228402D01*
X205630Y193000D02*
X207630Y191000D01*
X204500Y193000D02*
X205630D01*
X201000Y184370D02*
X207630Y191000D01*
X201000Y181000D02*
Y184370D01*
X199600Y181000D02*
X201000D01*
X191500Y189100D02*
X199600Y181000D01*
X195500D02*
X199600D01*
X193000Y178500D02*
X195500Y181000D01*
X188000Y219500D02*
X189000D01*
X185000Y216500D02*
X188000Y219500D01*
X185500Y210100D02*
X188400Y213000D01*
X185500Y204500D02*
Y210100D01*
X183000Y202000D02*
X185500Y204500D01*
X181600Y202000D02*
X183000D01*
X184500Y189100D02*
X191500D01*
X207000Y228000D02*
Y235000D01*
X205724Y236276D02*
X207000Y235000D01*
X199756Y236276D02*
X205724D01*
X199756Y226433D02*
X205433D01*
X207000Y228000D01*
X206500Y199389D02*
X207630Y198259D01*
X206500Y199389D02*
Y209500D01*
D13*
X167000Y250656D02*
X167994Y251650D01*
X167000Y239500D02*
Y250656D01*
X223378Y239657D02*
Y253992D01*
X223110Y239390D02*
X223378Y239657D01*
X277878Y214622D02*
X281000Y211500D01*
X262748Y214622D02*
X277878D01*
X278909Y216591D02*
X280500Y215000D01*
X262748Y216591D02*
X278909D01*
X262748Y218559D02*
X280441D01*
X280500Y218500D01*
X272000Y234000D02*
X277500D01*
X276200Y230000D02*
X276700Y230500D01*
X272500Y230000D02*
X276200D01*
X270902Y228402D02*
X272500Y230000D01*
X213500Y175000D02*
Y190965D01*
X213535Y191000D01*
X270339Y232339D02*
X272000Y234000D01*
X268567Y226433D02*
X270500Y224500D01*
X276700D01*
X262748Y232339D02*
X270339D01*
X277500Y262000D02*
X293500Y246000D01*
X257000Y257500D02*
X261500Y262000D01*
X277500D01*
X188000Y233000D02*
X189000Y232000D01*
Y226783D02*
Y232000D01*
X179945Y219500D02*
X181500Y217945D01*
Y213000D02*
Y217945D01*
X194028Y220528D02*
X199756D01*
X193000Y219500D02*
X194028Y220528D01*
X188350Y207494D02*
X188500Y207344D01*
Y202000D02*
Y207344D01*
X254500Y271200D02*
X255000Y271700D01*
X248969Y271669D02*
X249000Y271700D01*
X250937Y247063D02*
Y253992D01*
Y259937D01*
X277200Y230500D02*
X277200Y230500D01*
X262748Y226433D02*
X268567D01*
X277200Y224500D02*
X277200Y224500D01*
X245031Y253992D02*
Y261968D01*
X243000Y264000D02*
X245031Y261968D01*
X243000Y264000D02*
X243000Y264000D01*
Y268500D01*
X246969Y254024D02*
X247000Y253992D01*
X246500Y260968D02*
Y266000D01*
Y260968D02*
X246969Y260500D01*
Y254024D02*
Y260500D01*
X248969Y253992D02*
Y261500D01*
X249000Y261531D01*
Y271700D01*
X255000Y264000D02*
Y271700D01*
X250937Y259937D02*
X255000Y264000D01*
X237000Y264000D02*
Y271700D01*
X241094Y253992D02*
Y259906D01*
X237000Y264000D02*
X241094Y259906D01*
X243000Y268500D02*
Y271700D01*
X243000Y271700D02*
X243000Y271700D01*
X243000Y264000D02*
Y268500D01*
X199756Y218559D02*
X205559D01*
X208500Y221500D01*
X168000Y257300D02*
Y264260D01*
X168244Y264504D01*
X207630Y253992D02*
Y257470D01*
X276700Y224500D02*
X276700Y224500D01*
X276700Y224500D02*
X277200D01*
X276700Y230500D02*
X277200D01*
X179945Y219500D02*
X182941Y222496D01*
X199756D01*
X262748Y228402D02*
X270902D01*
X199756Y246118D02*
Y250744D01*
Y220528D02*
X205528D01*
X206500Y221500D01*
X293500Y220000D02*
Y246000D01*
X181500Y272000D02*
Y272200D01*
Y272000D02*
X186000Y267500D01*
X174110Y277850D02*
X181506D01*
X173756Y277496D02*
X174110Y277850D01*
X191000Y259500D02*
X199756Y250744D01*
X181500Y259500D02*
X191000D01*
X252874Y198874D02*
X262748D01*
X252500Y198500D02*
X252874Y198874D01*
X192500Y206748D02*
X199756D01*
X192545Y208045D02*
X193185Y208685D01*
X199724D02*
X199756Y208717D01*
X193185Y208685D02*
X199724D01*
X188350Y207494D02*
Y208049D01*
X193000Y212699D02*
Y219500D01*
X188350Y208049D02*
X193000Y212699D01*
X193535Y224465D02*
X199756D01*
X191217Y226783D02*
X193535Y224465D01*
X189000Y226783D02*
X191217D01*
X199756Y214622D02*
X205378D01*
X231252Y238748D02*
Y253992D01*
X199756Y240213D02*
X210000D01*
X211535Y253961D02*
X211567Y253992D01*
X208500Y221500D02*
Y223500D01*
X217500Y222500D02*
X217504Y222496D01*
X262748D01*
X199756Y216591D02*
X205909D01*
X205378Y214622D02*
X209000Y211000D01*
Y207000D02*
Y211000D01*
X215504Y191000D02*
Y202004D01*
X164000Y242500D02*
Y286300D01*
X168244Y277496D02*
Y282000D01*
X169850Y283606D01*
Y285994D01*
Y286494D01*
Y285994D02*
X170350Y286494D01*
X164000Y286300D02*
X164200Y286500D01*
X262713Y224500D02*
X262748Y224465D01*
X206500Y221500D02*
Y225000D01*
X213500Y224500D02*
X262713D01*
X252870Y230370D02*
X262748D01*
X229000Y226500D02*
X249000D01*
X252870Y230370D01*
X206500Y225000D02*
X210500Y229000D01*
X199756Y238244D02*
X206998D01*
X213742Y231500D02*
X231000D01*
X206998Y238244D02*
X213742Y231500D01*
X211535Y246500D02*
Y253961D01*
X199756Y242181D02*
X209819D01*
X215000Y237000D01*
X210000Y240213D02*
X216713Y233500D01*
X227047D01*
X215000Y237000D02*
X219500D01*
X213535Y242035D02*
Y253992D01*
X216994Y271650D02*
X217473Y271171D01*
X210994Y268506D02*
Y271650D01*
X215504Y253992D02*
Y263996D01*
X210994Y268506D02*
X212500Y267000D01*
X215504Y263996D01*
X219441Y253992D02*
Y261941D01*
X221371Y263871D01*
Y267170D02*
X226000Y271800D01*
X221371Y263871D02*
Y267170D01*
X225900Y271900D02*
X226000Y272000D01*
X231000D01*
X239000Y229000D02*
X257000Y247000D01*
Y257500D01*
X210500Y229000D02*
X239000D01*
X217473Y253992D02*
Y271171D01*
X243000Y229000D02*
X248307Y234307D01*
X262748D01*
X209000Y203500D02*
X211000Y205500D01*
Y211500D01*
X205909Y216591D02*
X211000Y211500D01*
X215504Y202004D02*
X221000Y207500D01*
Y210500D01*
X211567Y203895D02*
X221172Y213500D01*
X237000D01*
X211567Y191000D02*
Y203895D01*
X221410Y244910D02*
Y253992D01*
X221200Y253783D02*
X221410Y253992D01*
X221200Y244500D02*
Y244700D01*
Y253783D01*
Y244700D02*
X221410Y244910D01*
X221000Y244500D02*
X221200Y244700D01*
D14*
X245000Y182500D02*
X247000Y184500D01*
X238000Y199000D02*
X243779Y204780D01*
X262748D01*
X243000Y198500D02*
X247311Y202811D01*
X262748D01*
X248969Y182468D02*
X249000Y182500D01*
X247000Y184500D02*
Y191000D01*
X250342Y200842D02*
X262748D01*
X248000Y198500D02*
X250342Y200842D01*
X248969Y182468D02*
Y191000D01*
D15*
X262748Y236276D02*
X282124D01*
X262748Y238244D02*
X282756D01*
X266600Y169100D02*
Y175600D01*
X264041Y169100D02*
Y174879D01*
X282756Y238244D02*
X287000Y234000D01*
X266600Y175600D02*
X287000Y196000D01*
X282124Y236276D02*
X285600Y232800D01*
X264041Y174879D02*
X285600Y196439D01*
X287000Y196000D02*
Y234000D01*
X285600Y196439D02*
Y232800D01*
D18*
X244000Y175600D02*
D03*
X244000Y164400D02*
D03*
D19*
X217000Y277300D02*
D03*
X216994Y271650D02*
D03*
X211000Y277300D02*
D03*
X210994Y271650D02*
D03*
X178000Y195300D02*
D03*
X177994Y189650D02*
D03*
X168000Y257300D02*
D03*
X167994Y251650D02*
D03*
X181506Y277850D02*
D03*
X181500Y272200D02*
D03*
X225994Y266150D02*
D03*
X226000Y271800D02*
D03*
X255006Y277350D02*
D03*
X255000Y271700D02*
D03*
X249006Y277350D02*
D03*
X249000Y271700D02*
D03*
X243006Y277350D02*
D03*
X243000Y271700D02*
D03*
X237006Y277350D02*
D03*
X237000Y271700D02*
D03*
D20*
X207630Y253992D02*
D03*
X209598D02*
D03*
X211567D02*
D03*
X213535D02*
D03*
X215504D02*
D03*
X217473D02*
D03*
X219441D02*
D03*
X221410D02*
D03*
X223378D02*
D03*
X225346D02*
D03*
X227315D02*
D03*
X229283D02*
D03*
X231252D02*
D03*
X233221D02*
D03*
X235189D02*
D03*
X237158D02*
D03*
X239126D02*
D03*
X241094D02*
D03*
X243063D02*
D03*
X245031D02*
D03*
X247000D02*
D03*
X248969D02*
D03*
X250937D02*
D03*
X252906D02*
D03*
X254874D02*
D03*
Y191000D02*
D03*
X252906D02*
D03*
X250937D02*
D03*
X248969D02*
D03*
X247000D02*
D03*
X245031D02*
D03*
X243063D02*
D03*
X241094D02*
D03*
X239126D02*
D03*
X237158D02*
D03*
X235189D02*
D03*
X233221D02*
D03*
X231252Y191000D02*
D03*
X229283D02*
D03*
X227315Y191000D02*
D03*
X225346D02*
D03*
X223378D02*
D03*
X221410D02*
D03*
X219441D02*
D03*
X217473D02*
D03*
X215504D02*
D03*
X213535D02*
D03*
X211567D02*
D03*
X209598D02*
D03*
X207630D02*
D03*
D21*
X262748Y246118D02*
D03*
Y244150D02*
D03*
Y242181D02*
D03*
Y240213D02*
D03*
Y238244D02*
D03*
Y236276D02*
D03*
Y234307D02*
D03*
Y232339D02*
D03*
Y230370D02*
D03*
Y228402D02*
D03*
Y226433D02*
D03*
X262748Y224465D02*
D03*
Y222496D02*
D03*
X262748Y220528D02*
D03*
Y218559D02*
D03*
Y216591D02*
D03*
Y214622D02*
D03*
Y212653D02*
D03*
Y210685D02*
D03*
Y208717D02*
D03*
Y206748D02*
D03*
Y204780D02*
D03*
Y202811D02*
D03*
Y200842D02*
D03*
Y198874D02*
D03*
X199756D02*
D03*
Y200842D02*
D03*
Y202811D02*
D03*
Y204780D02*
D03*
Y206748D02*
D03*
Y208717D02*
D03*
Y210685D02*
D03*
Y212653D02*
D03*
Y214622D02*
D03*
Y216591D02*
D03*
Y218559D02*
D03*
Y220528D02*
D03*
Y222496D02*
D03*
Y224465D02*
D03*
Y226433D02*
D03*
Y228402D02*
D03*
Y230370D02*
D03*
Y232339D02*
D03*
Y234307D02*
D03*
Y236276D02*
D03*
Y238244D02*
D03*
Y240213D02*
D03*
Y242181D02*
D03*
Y244150D02*
D03*
Y246118D02*
D03*
D22*
X233500Y169500D02*
D03*
Y176400D02*
D03*
X226000Y169500D02*
D03*
Y176400D02*
D03*
Y309900D02*
D03*
Y303000D02*
D03*
X191500Y196000D02*
D03*
Y189100D02*
D03*
X184500Y196000D02*
D03*
Y189100D02*
D03*
X224500Y152600D02*
D03*
Y159500D02*
D03*
X232000Y152500D02*
D03*
Y159400D02*
D03*
X274000Y242600D02*
D03*
Y249500D02*
D03*
D23*
X188000Y247000D02*
D03*
X181100D02*
D03*
X265000Y258500D02*
D03*
X271900D02*
D03*
X250000Y292000D02*
D03*
X243100D02*
D03*
X181000Y241000D02*
D03*
X187900D02*
D03*
X253100Y181500D02*
D03*
X260000D02*
D03*
X181600Y202000D02*
D03*
X188500D02*
D03*
X188000Y233000D02*
D03*
X181100D02*
D03*
X208000Y264000D02*
D03*
X201100D02*
D03*
X201000Y181000D02*
D03*
X207900D02*
D03*
X270000Y188000D02*
D03*
X263100D02*
D03*
X188400Y213000D02*
D03*
X181500D02*
D03*
X235000Y292000D02*
D03*
X228100D02*
D03*
D24*
X276700Y224500D02*
D03*
X282350Y224494D02*
D03*
X164200Y286500D02*
D03*
X169850Y286494D02*
D03*
X250650Y175506D02*
D03*
X256300Y175500D02*
D03*
X282350Y230494D02*
D03*
X276700Y230500D02*
D03*
X188350Y207494D02*
D03*
X182700Y207500D02*
D03*
D25*
X210000Y149500D02*
D03*
D26*
Y169500D02*
D03*
Y159500D02*
D03*
D27*
X186000D02*
D03*
D28*
X235260Y299681D02*
D03*
X242740D02*
D03*
X239000Y310705D02*
D03*
X242740D02*
D03*
X235260D02*
D03*
D29*
X260695Y152171D02*
D03*
X272505D02*
D03*
D30*
X250852Y156659D02*
D03*
X282348D02*
D03*
D31*
X253608Y166738D02*
D03*
X279592D02*
D03*
D32*
X261482Y169100D02*
D03*
X264041D02*
D03*
X266600D02*
D03*
X269159D02*
D03*
X271718D02*
D03*
D33*
X168244Y277496D02*
D03*
Y264504D02*
D03*
X173756D02*
D03*
Y277496D02*
D03*
D34*
X179945Y226783D02*
D03*
X189000D02*
D03*
Y219500D02*
D03*
X179945D02*
D03*
D55*
X258700Y165000D02*
D03*
X274500D02*
D03*
D58*
X176100Y228000D02*
X179945Y231845D01*
X181100Y233000D01*
X176100Y212900D02*
X178900Y210100D01*
X176100Y212900D02*
Y228000D01*
X235000Y292000D02*
X235260Y292260D01*
Y299681D01*
X181000Y246900D02*
X181100Y247000D01*
X181000Y241000D02*
Y246900D01*
Y233100D02*
X181100Y233000D01*
X181000Y237050D02*
Y241000D01*
Y233100D02*
Y237050D01*
X188400Y218900D02*
X189000Y219500D01*
X179945Y226783D02*
Y231845D01*
X188400Y213000D02*
Y218900D01*
D59*
X187900Y241000D02*
Y250360D01*
X210100Y159400D02*
X232000D01*
X201100Y258900D02*
X203500Y256500D01*
X201100Y258900D02*
Y264000D01*
X219445Y310000D02*
X235260D01*
X235500D01*
X233500Y169500D02*
X238900D01*
X244000Y164400D01*
X236956Y277300D02*
X237006Y277350D01*
X217000Y277300D02*
X236956D01*
X256150Y277350D02*
X263500Y270000D01*
X255006Y277350D02*
X256150D01*
X244000Y175600D02*
X244094Y175506D01*
X210000Y159500D02*
X210100Y159400D01*
X237006Y277350D02*
X243006D01*
X249006D01*
X255006D01*
X211000Y277300D02*
X217000D01*
X201100Y264000D02*
Y272100D01*
X206300Y277300D01*
X211000D01*
X173756Y264416D02*
X174172Y264000D01*
X201100D01*
X173756Y264416D02*
Y264504D01*
X263500Y270000D02*
X268500Y265000D01*
X282350Y224494D02*
Y227500D01*
Y230494D01*
X190800Y195300D02*
X191500Y196000D01*
X264000Y251500D02*
X268500D01*
X173756Y255244D02*
X175500Y253500D01*
X173756Y255244D02*
Y264416D01*
X175500Y253500D02*
X184760D01*
X187900Y250360D01*
X244094Y175506D02*
X250650D01*
X178000Y195300D02*
X190800D01*
D60*
X174000Y207500D02*
Y230500D01*
Y193644D02*
Y207500D01*
X174000Y207500D01*
X182700D01*
X175500Y232000D02*
Y253500D01*
X174000Y230500D02*
X175500Y232000D01*
X174000Y193644D02*
X177994Y189650D01*
X171500Y181500D02*
X183500Y169500D01*
X171500Y181500D02*
Y234000D01*
X183500Y169500D02*
X210000D01*
X242740Y296500D02*
Y299681D01*
Y292360D02*
Y296500D01*
X235260Y310000D02*
Y310705D01*
Y308240D02*
Y310000D01*
X262772Y193000D02*
X273500D01*
X283700Y203200D01*
Y223144D01*
X282350Y224494D02*
X283700Y223144D01*
X292000Y161500D02*
X293500Y160000D01*
X275500Y161500D02*
X292000D01*
X273500Y159500D02*
X275500Y161500D01*
X265500Y159500D02*
X273500D01*
X261482Y163518D02*
X265500Y159500D01*
X256300Y175500D02*
X261482Y170318D01*
Y163518D02*
Y169100D01*
Y170318D01*
X176500Y150000D02*
X186000Y159500D01*
X166500Y150000D02*
X176500D01*
X235260Y308240D02*
X237500Y306000D01*
X241500D01*
X242740Y307240D01*
Y310705D01*
Y292360D02*
X243100Y292000D01*
X243006Y277350D02*
X243100Y277444D01*
X262772Y188328D02*
Y193000D01*
Y188328D02*
X263100Y188000D01*
X202400Y175500D02*
X207900Y181000D01*
X192144Y175500D02*
X196500D01*
X202400D01*
X177994Y189650D02*
X192144Y175500D01*
X191500Y196000D02*
X192500Y197000D01*
Y208000D02*
X192545Y208045D01*
X192500Y206748D02*
Y208000D01*
Y197000D02*
Y206748D01*
X243100Y277444D02*
Y292000D01*
D61*
X210000Y169500D02*
X226000D01*
X233500D01*
D62*
X186000Y159500D02*
X197000D01*
X210000D01*
D63*
X237504Y163000D02*
D03*
X269000D02*
D03*
D64*
X288000Y307000D02*
D03*
X172000D02*
D03*
D65*
X293500Y220000D02*
D03*
Y210000D02*
D03*
Y200000D02*
D03*
Y190000D02*
D03*
Y180000D02*
D03*
Y170000D02*
D03*
Y160000D02*
D03*
Y150000D02*
D03*
X166500Y220000D02*
D03*
Y210000D02*
D03*
Y200000D02*
D03*
Y190000D02*
D03*
Y180000D02*
D03*
Y170000D02*
D03*
Y160000D02*
D03*
Y150000D02*
D03*
D66*
X171500Y234000D02*
D03*
X219445Y310000D02*
D03*
X268500Y251500D02*
D03*
X262772Y193000D02*
D03*
X268500Y265000D02*
D03*
X197000Y159500D02*
D03*
X196500Y175500D02*
D03*
D67*
X167000Y239500D02*
D03*
X242740Y296500D02*
D03*
X212500Y287500D02*
D03*
X232000Y200000D02*
D03*
X228000Y211000D02*
D03*
X223110Y239390D02*
D03*
X281000Y211500D02*
D03*
X280500Y215000D02*
D03*
Y218500D02*
D03*
X277500Y234000D02*
D03*
X272500Y230000D02*
D03*
X213500Y175000D02*
D03*
X245000Y182500D02*
D03*
X231000Y272000D02*
D03*
X263500Y270000D02*
D03*
X282350Y227500D02*
D03*
X270500Y224500D02*
D03*
X238000Y199000D02*
D03*
X243000Y198500D02*
D03*
X249000Y182500D02*
D03*
X248969Y261500D02*
D03*
X243000Y268500D02*
D03*
X246500Y266000D02*
D03*
X237000Y264000D02*
D03*
X247500Y175500D02*
D03*
X181500Y259500D02*
D03*
X186000Y267500D02*
D03*
X252500Y198500D02*
D03*
X248000D02*
D03*
X297000Y230500D02*
D03*
X291500Y237000D02*
D03*
X231500Y264500D02*
D03*
X274500Y189500D02*
D03*
X277500Y181000D02*
D03*
X239400Y176400D02*
D03*
X244000Y151500D02*
D03*
X206000Y270500D02*
D03*
X184500Y237000D02*
D03*
X204500Y193000D02*
D03*
X193000Y178500D02*
D03*
X185000Y216500D02*
D03*
X231252Y238748D02*
D03*
X217500Y222500D02*
D03*
X208500Y223500D02*
D03*
X209000Y207000D02*
D03*
X164000Y242500D02*
D03*
X213500Y224500D02*
D03*
X229000Y226500D02*
D03*
X231000Y231500D02*
D03*
X227047Y233500D02*
D03*
X211535Y246500D02*
D03*
X219500Y237000D02*
D03*
X213535Y242035D02*
D03*
X212500Y267000D02*
D03*
X217500Y265000D02*
D03*
X250937Y247063D02*
D03*
X243000Y229000D02*
D03*
X209000Y203500D02*
D03*
X221000Y210500D02*
D03*
X237000Y213500D02*
D03*
X221200Y244500D02*
D03*
D68*
X293500Y301500D02*
D03*
Y312500D02*
D03*
X282500Y301500D02*
D03*
Y312500D02*
D03*
X288000Y299000D02*
D03*
X296000Y307000D02*
D03*
X280000D02*
D03*
X288000Y315000D02*
D03*
X177500Y301500D02*
D03*
X166500D02*
D03*
Y312500D02*
D03*
X177500D02*
D03*
X172000Y299000D02*
D03*
X164000Y307000D02*
D03*
X180000D02*
D03*
X172000Y315000D02*
D03*
M02*
