G04*
G04 #@! TF.GenerationSoftware,Altium Limited,Altium Designer,19.0.4 (130)*
G04*
G04 Layer_Color=8421504*
%FSLAX25Y25*%
%MOIN*%
G70*
G01*
G75*
%ADD18R,0.03150X0.03150*%
%ADD19R,0.03000X0.03000*%
%ADD20R,0.01000X0.09843*%
%ADD21R,0.09843X0.01000*%
%ADD22R,0.03500X0.03800*%
%ADD23R,0.03800X0.03500*%
%ADD24R,0.03000X0.03000*%
G04:AMPARAMS|DCode=25|XSize=150mil|YSize=65mil|CornerRadius=0mil|HoleSize=0mil|Usage=FLASHONLY|Rotation=180.000|XOffset=0mil|YOffset=0mil|HoleType=Round|Shape=Octagon|*
%AMOCTAGOND25*
4,1,8,-0.07500,0.01625,-0.07500,-0.01625,-0.05875,-0.03250,0.05875,-0.03250,0.07500,-0.01625,0.07500,0.01625,0.05875,0.03250,-0.05875,0.03250,-0.07500,0.01625,0.0*
%
%ADD25OCTAGOND25*%

%ADD26O,0.15000X0.06500*%
%ADD27R,0.10000X0.10000*%
%ADD28R,0.01772X0.03937*%
%ADD29R,0.04331X0.03937*%
%ADD30R,0.05315X0.05906*%
%ADD31R,0.05512X0.05512*%
%ADD32R,0.01575X0.04724*%
%ADD33R,0.02756X0.04724*%
%ADD34R,0.05118X0.04134*%
D18*
X244000Y175600D02*
D03*
X244000Y164400D02*
D03*
D19*
X217000Y277300D02*
D03*
X216994Y271650D02*
D03*
X211000Y277300D02*
D03*
X210994Y271650D02*
D03*
X178000Y195300D02*
D03*
X177994Y189650D02*
D03*
X168000Y257300D02*
D03*
X167994Y251650D02*
D03*
X181506Y277850D02*
D03*
X181500Y272200D02*
D03*
X225994Y266150D02*
D03*
X226000Y271800D02*
D03*
X255006Y277350D02*
D03*
X255000Y271700D02*
D03*
X249006Y277350D02*
D03*
X249000Y271700D02*
D03*
X243006Y277350D02*
D03*
X243000Y271700D02*
D03*
X237006Y277350D02*
D03*
X237000Y271700D02*
D03*
D20*
X207630Y253992D02*
D03*
X209598D02*
D03*
X211567D02*
D03*
X213535D02*
D03*
X215504D02*
D03*
X217473D02*
D03*
X219441D02*
D03*
X221410D02*
D03*
X223378D02*
D03*
X225346D02*
D03*
X227315D02*
D03*
X229283D02*
D03*
X231252D02*
D03*
X233221D02*
D03*
X235189D02*
D03*
X237158D02*
D03*
X239126D02*
D03*
X241094D02*
D03*
X243063D02*
D03*
X245031D02*
D03*
X247000D02*
D03*
X248969D02*
D03*
X250937D02*
D03*
X252906D02*
D03*
X254874D02*
D03*
Y191000D02*
D03*
X252906D02*
D03*
X250937D02*
D03*
X248969D02*
D03*
X247000D02*
D03*
X245031D02*
D03*
X243063D02*
D03*
X241094D02*
D03*
X239126D02*
D03*
X237158D02*
D03*
X235189D02*
D03*
X233221D02*
D03*
X231252Y191000D02*
D03*
X229283D02*
D03*
X227315Y191000D02*
D03*
X225346D02*
D03*
X223378D02*
D03*
X221410D02*
D03*
X219441D02*
D03*
X217473D02*
D03*
X215504D02*
D03*
X213535D02*
D03*
X211567D02*
D03*
X209598D02*
D03*
X207630D02*
D03*
D21*
X262748Y246118D02*
D03*
Y244150D02*
D03*
Y242181D02*
D03*
Y240213D02*
D03*
Y238244D02*
D03*
Y236276D02*
D03*
Y234307D02*
D03*
Y232339D02*
D03*
Y230370D02*
D03*
Y228402D02*
D03*
Y226433D02*
D03*
X262748Y224465D02*
D03*
Y222496D02*
D03*
X262748Y220528D02*
D03*
Y218559D02*
D03*
Y216591D02*
D03*
Y214622D02*
D03*
Y212653D02*
D03*
Y210685D02*
D03*
Y208717D02*
D03*
Y206748D02*
D03*
Y204780D02*
D03*
Y202811D02*
D03*
Y200842D02*
D03*
Y198874D02*
D03*
X199756D02*
D03*
Y200842D02*
D03*
Y202811D02*
D03*
Y204780D02*
D03*
Y206748D02*
D03*
Y208717D02*
D03*
Y210685D02*
D03*
Y212653D02*
D03*
Y214622D02*
D03*
Y216591D02*
D03*
Y218559D02*
D03*
Y220528D02*
D03*
Y222496D02*
D03*
Y224465D02*
D03*
Y226433D02*
D03*
Y228402D02*
D03*
Y230370D02*
D03*
Y232339D02*
D03*
Y234307D02*
D03*
Y236276D02*
D03*
Y238244D02*
D03*
Y240213D02*
D03*
Y242181D02*
D03*
Y244150D02*
D03*
Y246118D02*
D03*
D22*
X233500Y169500D02*
D03*
Y176400D02*
D03*
X226000Y169500D02*
D03*
Y176400D02*
D03*
Y309900D02*
D03*
Y303000D02*
D03*
X191500Y196000D02*
D03*
Y189100D02*
D03*
X184500Y196000D02*
D03*
Y189100D02*
D03*
X224500Y152600D02*
D03*
Y159500D02*
D03*
X232000Y152500D02*
D03*
Y159400D02*
D03*
X274000Y242600D02*
D03*
Y249500D02*
D03*
D23*
X188000Y247000D02*
D03*
X181100D02*
D03*
X265000Y258500D02*
D03*
X271900D02*
D03*
X250000Y292000D02*
D03*
X243100D02*
D03*
X181000Y241000D02*
D03*
X187900D02*
D03*
X253100Y181500D02*
D03*
X260000D02*
D03*
X181600Y202000D02*
D03*
X188500D02*
D03*
X188000Y233000D02*
D03*
X181100D02*
D03*
X208000Y264000D02*
D03*
X201100D02*
D03*
X201000Y181000D02*
D03*
X207900D02*
D03*
X270000Y188000D02*
D03*
X263100D02*
D03*
X188400Y213000D02*
D03*
X181500D02*
D03*
X235000Y292000D02*
D03*
X228100D02*
D03*
D24*
X276700Y224500D02*
D03*
X282350Y224494D02*
D03*
X164200Y286500D02*
D03*
X169850Y286494D02*
D03*
X250650Y175506D02*
D03*
X256300Y175500D02*
D03*
X282350Y230494D02*
D03*
X276700Y230500D02*
D03*
X188350Y207494D02*
D03*
X182700Y207500D02*
D03*
D25*
X210000Y149500D02*
D03*
D26*
Y169500D02*
D03*
Y159500D02*
D03*
D27*
X186000D02*
D03*
D28*
X235260Y299681D02*
D03*
X242740D02*
D03*
X239000Y310705D02*
D03*
X242740D02*
D03*
X235260D02*
D03*
D29*
X260695Y152171D02*
D03*
X272505D02*
D03*
D30*
X250852Y156659D02*
D03*
X282348D02*
D03*
D31*
X253608Y166738D02*
D03*
X279592D02*
D03*
D32*
X261482Y169100D02*
D03*
X264041D02*
D03*
X266600D02*
D03*
X269159D02*
D03*
X271718D02*
D03*
D33*
X168244Y277496D02*
D03*
Y264504D02*
D03*
X173756D02*
D03*
Y277496D02*
D03*
D34*
X179945Y226783D02*
D03*
X189000D02*
D03*
Y219500D02*
D03*
X179945D02*
D03*
M02*
