G04*
G04 #@! TF.GenerationSoftware,Altium Limited,Altium Designer,19.0.4 (130)*
G04*
G04 Layer_Physical_Order=2*
G04 Layer_Color=16711680*
%FSLAX25Y25*%
%MOIN*%
G70*
G01*
G75*
%ADD10C,0.01000*%
%ADD13C,0.00600*%
%ADD14C,0.00500*%
%ADD19R,0.03000X0.03000*%
%ADD22R,0.03500X0.03800*%
%ADD23R,0.03800X0.03500*%
%ADD24R,0.03000X0.03000*%
%ADD55C,0.01968*%
%ADD58C,0.01200*%
%ADD59C,0.03000*%
%ADD60C,0.02000*%
%ADD61C,0.04000*%
%ADD63C,0.03347*%
%ADD64C,0.21000*%
%ADD65P,0.07360X8X22.5*%
%ADD66C,0.03600*%
%ADD67C,0.02400*%
%ADD68C,0.01800*%
%ADD69R,0.08000X0.08661*%
%ADD70R,0.06299X0.05512*%
%ADD71R,0.04724X0.05512*%
%ADD72R,0.02756X0.07087*%
G04:AMPARAMS|DCode=73|XSize=47.24mil|YSize=55.12mil|CornerRadius=0mil|HoleSize=0mil|Usage=FLASHONLY|Rotation=315.000|XOffset=0mil|YOffset=0mil|HoleType=Round|Shape=Rectangle|*
%AMROTATEDRECTD73*
4,1,4,-0.03619,-0.00278,0.00278,0.03619,0.03619,0.00278,-0.00278,-0.03619,-0.03619,-0.00278,0.0*
%
%ADD73ROTATEDRECTD73*%

%ADD74R,0.03740X0.03543*%
%ADD75R,0.03740X0.03543*%
G04:AMPARAMS|DCode=76|XSize=47.24mil|YSize=55.12mil|CornerRadius=0mil|HoleSize=0mil|Usage=FLASHONLY|Rotation=225.000|XOffset=0mil|YOffset=0mil|HoleType=Round|Shape=Rectangle|*
%AMROTATEDRECTD76*
4,1,4,-0.00278,0.03619,0.03619,-0.00278,0.00278,-0.03619,-0.03619,0.00278,-0.00278,0.03619,0.0*
%
%ADD76ROTATEDRECTD76*%

%ADD77R,0.03937X0.01772*%
%ADD78R,0.07087X0.08661*%
%ADD79R,0.01181X0.05118*%
G36*
X284590Y317494D02*
X282991Y316831D01*
X281514Y315927D01*
X280198Y314802D01*
X279073Y313486D01*
X278169Y312009D01*
X277506Y310410D01*
X277102Y308726D01*
X276966Y307000D01*
X277102Y305274D01*
X277506Y303590D01*
X278169Y301991D01*
X279073Y300514D01*
X280198Y299198D01*
X281514Y298073D01*
X282991Y297169D01*
X284590Y296506D01*
X286274Y296102D01*
X288000Y295966D01*
X289726Y296102D01*
X291410Y296506D01*
X293009Y297169D01*
X294486Y298073D01*
X295802Y299198D01*
X296927Y300514D01*
X297831Y301991D01*
X298494Y303590D01*
X298980Y303475D01*
Y149000D01*
X298983Y148989D01*
X298848Y147969D01*
X298450Y147008D01*
X297817Y146183D01*
X296992Y145550D01*
X296031Y145152D01*
X295011Y145017D01*
X295000Y145020D01*
X165000D01*
X164989Y145017D01*
X163969Y145152D01*
X163008Y145550D01*
X162183Y146183D01*
X161550Y147008D01*
X161152Y147969D01*
X161017Y148989D01*
X161020Y149000D01*
Y253964D01*
X161520Y254116D01*
X161558Y254058D01*
X169250Y246366D01*
Y244600D01*
X173750D01*
Y245471D01*
X181126D01*
X181730Y244866D01*
Y241393D01*
X181386Y241049D01*
X178020D01*
X177434Y240933D01*
X177394Y240905D01*
X176815D01*
Y240478D01*
X172461Y236124D01*
X172397Y236167D01*
X171500Y236345D01*
X170603Y236167D01*
X169842Y235658D01*
X169333Y234897D01*
X169155Y234000D01*
X169333Y233103D01*
X169842Y232342D01*
X170603Y231833D01*
X171500Y231655D01*
X172397Y231833D01*
X173158Y232342D01*
X173513Y232873D01*
X173581Y232919D01*
X178653Y237990D01*
X182020D01*
X182605Y238107D01*
X183101Y238438D01*
X184341Y239678D01*
X184673Y240175D01*
X184789Y240760D01*
Y245500D01*
X184673Y246085D01*
X184341Y246581D01*
X182841Y248081D01*
X182345Y248413D01*
X181760Y248529D01*
X173750D01*
Y249400D01*
X171984D01*
X165039Y256345D01*
Y278655D01*
X194345Y307961D01*
X218357D01*
X218547Y307833D01*
X219445Y307655D01*
X220342Y307833D01*
X221103Y308342D01*
X221611Y309103D01*
X221790Y310000D01*
X221611Y310897D01*
X221103Y311658D01*
X220342Y312167D01*
X219445Y312345D01*
X218547Y312167D01*
X218357Y312039D01*
X193500D01*
X192720Y311884D01*
X192058Y311442D01*
X182119Y301502D01*
X181723Y301814D01*
X181831Y301991D01*
X182494Y303590D01*
X182898Y305274D01*
X183034Y307000D01*
X182898Y308726D01*
X182494Y310410D01*
X181831Y312009D01*
X180927Y313486D01*
X179802Y314802D01*
X178486Y315927D01*
X177009Y316831D01*
X175410Y317494D01*
X175525Y317981D01*
X284475D01*
X284590Y317494D01*
D02*
G37*
G36*
X162169Y301991D02*
X163073Y300514D01*
X164198Y299198D01*
X165514Y298073D01*
X166991Y297169D01*
X168590Y296506D01*
X170274Y296102D01*
X172000Y295966D01*
X173726Y296102D01*
X175410Y296506D01*
X177009Y297169D01*
X177186Y297277D01*
X177498Y296881D01*
X161558Y280942D01*
X161520Y280884D01*
X161020Y281036D01*
Y303475D01*
X161506Y303590D01*
X162169Y301991D01*
D02*
G37*
%LPC*%
G36*
X266824Y300780D02*
X264537Y298493D01*
X195963D01*
X193676Y300780D01*
X189628Y296732D01*
X194232Y292128D01*
X196519Y294415D01*
X263981D01*
X266267Y292128D01*
X270872Y296732D01*
X266824Y300780D01*
D02*
G37*
G36*
X275732Y291872D02*
X271128Y287267D01*
X271404Y286991D01*
X271213Y286529D01*
X260800D01*
Y287000D01*
X256800D01*
Y283000D01*
X260800D01*
Y283471D01*
X272908D01*
X273493Y283587D01*
X273990Y283919D01*
X274233Y284162D01*
X275176Y283220D01*
X279780Y287824D01*
X275732Y291872D01*
D02*
G37*
G36*
X255150Y286994D02*
X251150D01*
Y286523D01*
X237494D01*
X236908Y286407D01*
X236412Y286075D01*
X225517Y275179D01*
X201006D01*
Y275650D01*
X197006D01*
Y275179D01*
X192196D01*
Y276772D01*
X187456D01*
Y272228D01*
X190134D01*
X190676Y272121D01*
X197006D01*
Y271650D01*
X201006D01*
Y272121D01*
X226150D01*
X226735Y272237D01*
X227231Y272569D01*
X238127Y283464D01*
X251150D01*
Y282994D01*
X255150D01*
Y286994D01*
D02*
G37*
G36*
X184767Y291872D02*
X180720Y287824D01*
X185324Y283220D01*
X186267Y284162D01*
X192210Y278219D01*
X192707Y277887D01*
X193292Y277771D01*
X197000D01*
Y277300D01*
X201000D01*
Y281300D01*
X197000D01*
Y280829D01*
X193925D01*
X188430Y286325D01*
X189372Y287267D01*
X184767Y291872D01*
D02*
G37*
G36*
X231000Y273733D02*
X230337Y273601D01*
X229774Y273226D01*
X229399Y272663D01*
X229267Y272000D01*
X229399Y271337D01*
X229774Y270774D01*
X230337Y270399D01*
X231000Y270267D01*
X231663Y270399D01*
X232226Y270774D01*
X232566Y271284D01*
X261712D01*
X261980Y270784D01*
X261899Y270663D01*
X261767Y270000D01*
X261899Y269337D01*
X261952Y269257D01*
X261716Y268816D01*
X244671D01*
X244601Y269163D01*
X244226Y269726D01*
X243663Y270101D01*
X243000Y270233D01*
X242337Y270101D01*
X241774Y269726D01*
X241399Y269163D01*
X241267Y268500D01*
X241399Y267837D01*
X241774Y267274D01*
X242337Y266899D01*
X243000Y266767D01*
X243663Y266899D01*
X244091Y267184D01*
X244716D01*
X244952Y266743D01*
X244899Y266663D01*
X244767Y266000D01*
X244899Y265337D01*
X244952Y265257D01*
X244716Y264816D01*
X238499D01*
X238226Y265226D01*
X237663Y265601D01*
X237000Y265733D01*
X236337Y265601D01*
X235774Y265226D01*
X235399Y264663D01*
X235267Y264000D01*
X235399Y263337D01*
X235774Y262774D01*
X236337Y262399D01*
X237000Y262267D01*
X237663Y262399D01*
X238226Y262774D01*
X238499Y263184D01*
X247529D01*
X247668Y262887D01*
X247715Y262684D01*
X247367Y262163D01*
X247235Y261500D01*
X247367Y260837D01*
X247743Y260274D01*
X248305Y259899D01*
X248969Y259767D01*
X249632Y259899D01*
X250194Y260274D01*
X250468Y260684D01*
X256162D01*
X262684Y254162D01*
Y232331D01*
X255316D01*
Y243500D01*
X255254Y243812D01*
X255077Y244077D01*
X255077Y244077D01*
X252574Y246579D01*
X252670Y247063D01*
X252538Y247726D01*
X252163Y248289D01*
X251600Y248664D01*
X250937Y248796D01*
X250274Y248664D01*
X249711Y248289D01*
X249336Y247726D01*
X249204Y247063D01*
X249336Y246400D01*
X249711Y245837D01*
X250274Y245462D01*
X250937Y245330D01*
X251421Y245426D01*
X253684Y243162D01*
Y220728D01*
X251547D01*
Y214610D01*
X251169Y214316D01*
X250169D01*
X249791Y214610D01*
Y220728D01*
X249516D01*
Y238799D01*
X249454Y239111D01*
X249277Y239376D01*
X249277Y239376D01*
X221077Y267577D01*
X220812Y267754D01*
X220500Y267816D01*
X220500Y267816D01*
X214000D01*
X213726Y268226D01*
X213163Y268601D01*
X212500Y268733D01*
X211837Y268601D01*
X211274Y268226D01*
X210899Y267663D01*
X210767Y267000D01*
X210899Y266337D01*
X211274Y265774D01*
X211837Y265399D01*
X212500Y265267D01*
X213163Y265399D01*
X213726Y265774D01*
X214000Y266184D01*
X215716D01*
X215952Y265743D01*
X215899Y265663D01*
X215767Y265000D01*
X215899Y264337D01*
X216274Y263774D01*
X216837Y263399D01*
X217500Y263267D01*
X217984Y263363D01*
X244184Y237162D01*
Y230784D01*
X243743Y230548D01*
X243663Y230601D01*
X243000Y230733D01*
X242337Y230601D01*
X242142Y230472D01*
X241642Y230739D01*
Y235173D01*
X241642Y235173D01*
X241580Y235485D01*
X241404Y235750D01*
X241404Y235750D01*
X232077Y245077D01*
X231812Y245254D01*
X231500Y245316D01*
X231500Y245316D01*
X222700D01*
X222426Y245726D01*
X221863Y246101D01*
X221200Y246233D01*
X220537Y246101D01*
X219974Y245726D01*
X219599Y245163D01*
X219467Y244500D01*
X219599Y243837D01*
X219749Y243612D01*
X219361Y243293D01*
X213716Y248938D01*
Y251250D01*
X215300D01*
Y255750D01*
X210500D01*
Y251250D01*
X212084D01*
Y248634D01*
X212074Y248591D01*
X211652Y248210D01*
X211535Y248233D01*
X210872Y248101D01*
X210310Y247726D01*
X209934Y247163D01*
X209802Y246500D01*
X209934Y245837D01*
X210310Y245274D01*
X210872Y244899D01*
X211535Y244767D01*
X212199Y244899D01*
X212288Y244958D01*
X213112Y244134D01*
X212967Y243656D01*
X212872Y243637D01*
X212310Y243261D01*
X211934Y242699D01*
X211802Y242035D01*
X211934Y241372D01*
X212310Y240810D01*
X212720Y240536D01*
Y233574D01*
X210722Y231577D01*
X210546Y231312D01*
X210484Y231000D01*
X210484Y231000D01*
Y224491D01*
X209983Y224340D01*
X209726Y224726D01*
X209163Y225101D01*
X209116Y225111D01*
Y240921D01*
X209254Y241127D01*
X209316Y241440D01*
Y242000D01*
X209316Y242000D01*
X209254Y242312D01*
X209077Y242577D01*
X209077Y242577D01*
X186816Y264838D01*
Y266000D01*
X187226Y266274D01*
X187601Y266837D01*
X187733Y267500D01*
X187601Y268163D01*
X187226Y268726D01*
X186663Y269101D01*
X186000Y269233D01*
X185337Y269101D01*
X184774Y268726D01*
X184399Y268163D01*
X184267Y267500D01*
X184399Y266837D01*
X184774Y266274D01*
X185184Y266000D01*
Y264500D01*
X185184Y264500D01*
X185246Y264188D01*
X185423Y263923D01*
X207646Y241701D01*
X207546Y241552D01*
X207484Y241240D01*
X207484Y241240D01*
Y224866D01*
X207274Y224726D01*
X206899Y224163D01*
X206767Y223500D01*
X206899Y222837D01*
X207274Y222274D01*
X207837Y221899D01*
X208500Y221767D01*
X209163Y221899D01*
X209726Y222274D01*
X209983Y222660D01*
X210484Y222509D01*
Y220728D01*
X206272D01*
Y214610D01*
X220326D01*
Y212094D01*
X219774Y211726D01*
X219399Y211163D01*
X219267Y210500D01*
X219399Y209837D01*
X219542Y209622D01*
X219275Y209121D01*
X217559D01*
X214388Y212293D01*
X214024Y212536D01*
X213595Y212622D01*
X213595Y212621D01*
X201965D01*
X190940Y223646D01*
X191049Y224193D01*
Y232000D01*
X190900Y232749D01*
Y234250D01*
X190539D01*
Y236868D01*
X191749Y238078D01*
X191787Y238134D01*
X192776D01*
Y240905D01*
X191787D01*
X191749Y240962D01*
X191087Y241404D01*
X190307Y241559D01*
X189527Y241404D01*
X188865Y240962D01*
X188809Y240905D01*
X187839D01*
Y239935D01*
X187058Y239155D01*
X186616Y238493D01*
X186461Y237713D01*
Y234250D01*
X186100D01*
Y232749D01*
X185951Y232000D01*
Y225943D01*
X185600D01*
Y224442D01*
X185451Y223693D01*
X185600Y222944D01*
Y221443D01*
X186867D01*
X187024Y221338D01*
X188000Y221144D01*
X188976Y221338D01*
X189132Y221443D01*
X189971D01*
X200707Y210707D01*
X200707Y210707D01*
X201071Y210464D01*
X201500Y210379D01*
X213130D01*
X216301Y207207D01*
X216302Y207207D01*
X216665Y206964D01*
X217095Y206878D01*
X217095Y206878D01*
X231000D01*
X231000Y206878D01*
X231429Y206964D01*
X231793Y207207D01*
X233465Y208878D01*
X238776D01*
Y201082D01*
X238328Y200668D01*
X238000Y200733D01*
X237337Y200601D01*
X236774Y200226D01*
X236399Y199663D01*
X236267Y199000D01*
X236375Y198456D01*
X227683Y189765D01*
X190817D01*
X178265Y202317D01*
Y209000D01*
X178207Y209293D01*
X178041Y209541D01*
X169966Y217616D01*
X170400Y218050D01*
Y221950D01*
X168450Y223900D01*
X164550D01*
X162600Y221950D01*
Y218050D01*
X164550Y216100D01*
X168450D01*
X168884Y216534D01*
X176735Y208683D01*
Y202000D01*
X176794Y201707D01*
X176959Y201459D01*
X189299Y189120D01*
X189134Y188577D01*
X189026Y188555D01*
X169966Y207616D01*
X170400Y208050D01*
Y211950D01*
X168450Y213900D01*
X164550D01*
X162600Y211950D01*
Y208050D01*
X164550Y206100D01*
X168450D01*
X168884Y206534D01*
X188154Y187265D01*
X187947Y186765D01*
X180817D01*
X169966Y197616D01*
X170400Y198050D01*
Y201950D01*
X168450Y203900D01*
X164550D01*
X162600Y201950D01*
Y198050D01*
X164550Y196100D01*
X168450D01*
X168884Y196534D01*
X179191Y186228D01*
X179000Y185766D01*
X171888D01*
X170002Y187652D01*
X170400Y188050D01*
Y191950D01*
X168450Y193900D01*
X164550D01*
X162600Y191950D01*
Y188050D01*
X164550Y186100D01*
X168450D01*
X168848Y186498D01*
X170973Y184373D01*
X170973Y184373D01*
X171238Y184196D01*
X171550Y184134D01*
X171550Y184134D01*
X238950D01*
X238950Y184134D01*
X239262Y184196D01*
X239527Y184373D01*
X252016Y196863D01*
X252500Y196767D01*
X253163Y196899D01*
X253726Y197274D01*
X254101Y197837D01*
X254233Y198500D01*
X254191Y198711D01*
X254652Y198957D01*
X260457Y193152D01*
X260427Y193000D01*
X260606Y192103D01*
X261114Y191342D01*
X261875Y190833D01*
X262772Y190655D01*
X263670Y190833D01*
X264431Y191342D01*
X264939Y192103D01*
X265117Y193000D01*
X264939Y193897D01*
X264431Y194658D01*
X263670Y195167D01*
X262772Y195345D01*
X262620Y195315D01*
X257602Y200333D01*
X257793Y200795D01*
X259854D01*
Y208882D01*
X258792D01*
Y213027D01*
X266277Y220512D01*
X266277Y220512D01*
X266454Y220777D01*
X266516Y221089D01*
Y249498D01*
X267016Y249726D01*
X267603Y249333D01*
X268500Y249155D01*
X269397Y249333D01*
X270158Y249842D01*
X270667Y250603D01*
X270845Y251500D01*
X270667Y252397D01*
X270539Y252588D01*
Y263912D01*
X270667Y264103D01*
X270845Y265000D01*
X270667Y265897D01*
X270228Y266554D01*
X270355Y266937D01*
X270444Y267063D01*
X270743Y267104D01*
X274483Y263363D01*
Y230991D01*
X273984Y230840D01*
X273726Y231226D01*
X273163Y231601D01*
X272500Y231733D01*
X271837Y231601D01*
X271274Y231226D01*
X270899Y230663D01*
X270767Y230000D01*
X270899Y229337D01*
X271274Y228774D01*
X271684Y228500D01*
Y226284D01*
X271243Y226048D01*
X271163Y226101D01*
X270500Y226233D01*
X269837Y226101D01*
X269274Y225726D01*
X268899Y225163D01*
X268767Y224500D01*
X268899Y223837D01*
X269274Y223274D01*
X269684Y223000D01*
Y221138D01*
X266061Y217515D01*
X265884Y217250D01*
X265822Y216938D01*
X265822Y216938D01*
Y208882D01*
X264760D01*
Y200795D01*
X268516D01*
Y208882D01*
X267454D01*
Y216600D01*
X269767Y218914D01*
X270191Y218630D01*
X270153Y218440D01*
X270153Y218440D01*
Y208882D01*
X269091D01*
Y200795D01*
X272846D01*
Y208882D01*
X271784D01*
Y218102D01*
X273077Y219395D01*
X273077Y219395D01*
X273254Y219659D01*
X273316Y219972D01*
X273316Y219972D01*
Y228500D01*
X273726Y228774D01*
X273984Y229160D01*
X274483Y229009D01*
Y208882D01*
X273421D01*
Y200795D01*
X277177D01*
Y208882D01*
X276115D01*
Y231775D01*
X276615Y232059D01*
X276684Y232017D01*
Y212000D01*
X276684Y212000D01*
X276746Y211688D01*
X276923Y211423D01*
X283184Y205162D01*
Y181838D01*
X277662Y176316D01*
X249000D01*
X248726Y176726D01*
X248163Y177101D01*
X247500Y177233D01*
X246837Y177101D01*
X246274Y176726D01*
X245899Y176163D01*
X245767Y175500D01*
X245899Y174837D01*
X246274Y174274D01*
X246837Y173899D01*
X247500Y173767D01*
X248163Y173899D01*
X248726Y174274D01*
X249000Y174684D01*
X278000D01*
X278000Y174684D01*
X278312Y174746D01*
X278577Y174923D01*
X284184Y180531D01*
X284684Y180324D01*
Y178000D01*
X284684Y178000D01*
X284746Y177688D01*
X284923Y177423D01*
X289998Y172348D01*
X289600Y171950D01*
Y168050D01*
X291550Y166100D01*
X295450D01*
X297400Y168050D01*
Y171950D01*
X295450Y173900D01*
X291550D01*
X291152Y173502D01*
X286316Y178338D01*
Y185324D01*
X286816Y185531D01*
X289998Y182348D01*
X289600Y181950D01*
Y178050D01*
X291550Y176100D01*
X295450D01*
X297400Y178050D01*
Y181950D01*
X295450Y183900D01*
X291550D01*
X291152Y183502D01*
X287816Y186838D01*
Y193824D01*
X288316Y194031D01*
X289998Y192348D01*
X289600Y191950D01*
Y188050D01*
X291550Y186100D01*
X295450D01*
X297400Y188050D01*
Y191950D01*
X295450Y193900D01*
X291550D01*
X291152Y193502D01*
X289316Y195338D01*
Y197627D01*
X289816Y197834D01*
X291550Y196100D01*
X295450D01*
X297400Y198050D01*
Y201950D01*
X295450Y203900D01*
X291550D01*
X289816Y202166D01*
X289316Y202373D01*
Y207627D01*
X289816Y207834D01*
X291550Y206100D01*
X295450D01*
X297400Y208050D01*
Y211950D01*
X295450Y213900D01*
X291550D01*
X291152Y213502D01*
X289816Y214838D01*
Y217181D01*
X290278Y217372D01*
X291550Y216100D01*
X295450D01*
X297400Y218050D01*
Y221950D01*
X295450Y223900D01*
X291550D01*
X290278Y222628D01*
X289816Y222819D01*
Y258500D01*
X289754Y258812D01*
X289577Y259077D01*
X289577Y259077D01*
X275977Y272677D01*
X275712Y272854D01*
X275400Y272916D01*
X275400Y272916D01*
X232433D01*
X232226Y273226D01*
X231663Y273601D01*
X231000Y273733D01*
D02*
G37*
G36*
X177000Y273200D02*
X173000D01*
Y269200D01*
X173471D01*
Y266850D01*
X172994D01*
Y262850D01*
X176994D01*
Y266850D01*
X176529D01*
Y269200D01*
X177000D01*
Y269671D01*
X178804D01*
Y268488D01*
X183544D01*
Y273031D01*
X178804D01*
Y272729D01*
X177000D01*
Y273200D01*
D02*
G37*
G36*
X181500Y261233D02*
X180837Y261101D01*
X180274Y260726D01*
X180000Y260316D01*
X177000D01*
Y261200D01*
X173000D01*
Y257200D01*
X177000D01*
Y258684D01*
X180000D01*
X180274Y258274D01*
X180837Y257899D01*
X181500Y257767D01*
X182163Y257899D01*
X182726Y258274D01*
X183101Y258837D01*
X183233Y259500D01*
X183101Y260163D01*
X182726Y260726D01*
X182163Y261101D01*
X181500Y261233D01*
D02*
G37*
G36*
X190800Y256750D02*
X186000D01*
Y252250D01*
X189064D01*
X189186Y252128D01*
Y248386D01*
X187839D01*
Y245614D01*
X192776D01*
Y248386D01*
X191429D01*
Y252593D01*
X191429Y252593D01*
X191343Y253022D01*
X191100Y253386D01*
X191100Y253386D01*
X190800Y253686D01*
Y256750D01*
D02*
G37*
G36*
X204909Y232331D02*
X196823D01*
Y222669D01*
X204909D01*
Y232331D01*
D02*
G37*
G36*
X164000Y244233D02*
X163337Y244101D01*
X162774Y243726D01*
X162399Y243163D01*
X162267Y242500D01*
X162399Y241837D01*
X162774Y241274D01*
X163184Y241000D01*
Y230500D01*
X163184Y230500D01*
X163246Y230188D01*
X163423Y229923D01*
X190423Y202923D01*
X190423Y202923D01*
X190688Y202746D01*
X191000Y202684D01*
X191000Y202684D01*
X207500D01*
X207774Y202274D01*
X208337Y201899D01*
X209000Y201767D01*
X209663Y201899D01*
X210226Y202274D01*
X210601Y202837D01*
X210733Y203500D01*
X210601Y204163D01*
X210226Y204726D01*
X209864Y204967D01*
Y205533D01*
X210226Y205774D01*
X210601Y206337D01*
X210733Y207000D01*
X210601Y207663D01*
X210226Y208226D01*
X209663Y208601D01*
X209000Y208733D01*
X208337Y208601D01*
X207774Y208226D01*
X207500Y207816D01*
X190338D01*
X167816Y230338D01*
Y238000D01*
X168226Y238274D01*
X168601Y238837D01*
X168733Y239500D01*
X168601Y240163D01*
X168226Y240726D01*
X167663Y241101D01*
X167000Y241233D01*
X166337Y241101D01*
X165774Y240726D01*
X165416Y240190D01*
X165399Y240163D01*
X165269Y239751D01*
X165265Y239751D01*
X164816Y239874D01*
Y241000D01*
X165226Y241274D01*
X165601Y241837D01*
X165733Y242500D01*
X165601Y243163D01*
X165226Y243726D01*
X164663Y244101D01*
X164000Y244233D01*
D02*
G37*
G36*
X249000Y184233D02*
X248337Y184101D01*
X247774Y183726D01*
X247399Y183163D01*
X247267Y182500D01*
X247307Y182296D01*
X247003Y181970D01*
X246708Y182373D01*
X246733Y182500D01*
X246601Y183163D01*
X246226Y183726D01*
X245663Y184101D01*
X245000Y184233D01*
X244337Y184101D01*
X243774Y183726D01*
X243466Y183265D01*
X176000D01*
X175707Y183206D01*
X175459Y183041D01*
X175459Y183041D01*
X173183Y180765D01*
X170400D01*
Y181950D01*
X168450Y183900D01*
X164550D01*
X162600Y181950D01*
Y178050D01*
X164550Y176100D01*
X168450D01*
X170400Y178050D01*
Y179235D01*
X173500D01*
X173793Y179294D01*
X174041Y179459D01*
X176317Y181735D01*
X176803D01*
X176852Y181235D01*
X176707Y181207D01*
X176459Y181041D01*
X168884Y173466D01*
X168450Y173900D01*
X164550D01*
X162600Y171950D01*
Y168050D01*
X164550Y166100D01*
X168450D01*
X170400Y168050D01*
Y171950D01*
X169966Y172384D01*
X177317Y179735D01*
X247000D01*
X247293Y179794D01*
X247541Y179959D01*
X248456Y180875D01*
X249000Y180767D01*
X249663Y180899D01*
X250226Y181274D01*
X250601Y181837D01*
X250733Y182500D01*
X250601Y183163D01*
X250226Y183726D01*
X249663Y184101D01*
X249000Y184233D01*
D02*
G37*
G36*
X274500Y166513D02*
X273921Y166398D01*
X273430Y166070D01*
X273102Y165579D01*
X272987Y165000D01*
X273102Y164421D01*
X273430Y163930D01*
X273921Y163602D01*
X274500Y163487D01*
X275079Y163602D01*
X275570Y163930D01*
X275898Y164421D01*
X276013Y165000D01*
X275898Y165579D01*
X275570Y166070D01*
X275079Y166398D01*
X274500Y166513D01*
D02*
G37*
G36*
X258700D02*
X258121Y166398D01*
X257630Y166070D01*
X257302Y165579D01*
X257187Y165000D01*
X257302Y164421D01*
X257630Y163930D01*
X258121Y163602D01*
X258700Y163487D01*
X259279Y163602D01*
X259770Y163930D01*
X260098Y164421D01*
X260213Y165000D01*
X260098Y165579D01*
X259770Y166070D01*
X259279Y166398D01*
X258700Y166513D01*
D02*
G37*
G36*
X269000Y165216D02*
X268152Y165047D01*
X267433Y164567D01*
X266953Y163848D01*
X266784Y163000D01*
X266953Y162152D01*
X267433Y161433D01*
X268152Y160953D01*
X269000Y160784D01*
X269848Y160953D01*
X270567Y161433D01*
X271047Y162152D01*
X271216Y163000D01*
X271047Y163848D01*
X270567Y164567D01*
X269848Y165047D01*
X269000Y165216D01*
D02*
G37*
G36*
X237504D02*
X236656Y165047D01*
X235937Y164567D01*
X235457Y163848D01*
X235288Y163000D01*
X235457Y162152D01*
X235937Y161433D01*
X236656Y160953D01*
X237504Y160784D01*
X238352Y160953D01*
X239071Y161433D01*
X239551Y162152D01*
X239720Y163000D01*
X239551Y163848D01*
X239071Y164567D01*
X238352Y165047D01*
X237504Y165216D01*
D02*
G37*
G36*
X196500Y178049D02*
X195525Y177855D01*
X194698Y177302D01*
X194145Y176476D01*
X193951Y175500D01*
Y160000D01*
X194145Y159025D01*
X194698Y158198D01*
X195198Y157698D01*
X196025Y157145D01*
X197000Y156951D01*
X197976Y157145D01*
X198802Y157698D01*
X199355Y158525D01*
X199549Y159500D01*
X199355Y160476D01*
X199049Y160933D01*
Y175500D01*
X198855Y176476D01*
X198302Y177302D01*
X197476Y177855D01*
X196500Y178049D01*
D02*
G37*
G36*
X295450Y163900D02*
X291550D01*
X289600Y161950D01*
Y158050D01*
X291550Y156100D01*
X295450D01*
X297400Y158050D01*
Y161950D01*
X295450Y163900D01*
D02*
G37*
G36*
X213500Y176733D02*
X212837Y176601D01*
X212274Y176226D01*
X211899Y175663D01*
X211767Y175000D01*
X211899Y174337D01*
X212274Y173774D01*
X212684Y173500D01*
Y161838D01*
X202662Y151816D01*
X175838D01*
X170002Y157652D01*
X170400Y158050D01*
Y161950D01*
X168450Y163900D01*
X164550D01*
X162600Y161950D01*
Y158050D01*
X164550Y156100D01*
X168450D01*
X168848Y156498D01*
X174923Y150423D01*
X174923Y150423D01*
X175188Y150246D01*
X175500Y150184D01*
X203000D01*
X203000Y150184D01*
X203312Y150246D01*
X203577Y150423D01*
X214077Y160923D01*
X214077Y160923D01*
X214254Y161188D01*
X214316Y161500D01*
Y173500D01*
X214726Y173774D01*
X215101Y174337D01*
X215233Y175000D01*
X215101Y175663D01*
X214726Y176226D01*
X214163Y176601D01*
X213500Y176733D01*
D02*
G37*
G36*
X168450Y153900D02*
X164550D01*
X162600Y151950D01*
Y148050D01*
X164550Y146100D01*
X168450D01*
X170400Y148050D01*
Y151950D01*
X168450Y153900D01*
D02*
G37*
%LPD*%
G36*
X266881Y266684D02*
X266842Y266658D01*
X266333Y265897D01*
X266155Y265000D01*
X266333Y264103D01*
X266461Y263912D01*
Y256900D01*
X265961Y256693D01*
X256077Y266577D01*
X255916Y266684D01*
X256014Y267184D01*
X266729D01*
X266881Y266684D01*
D02*
G37*
G36*
X240011Y234835D02*
Y231756D01*
X239511Y231605D01*
X239435Y231718D01*
X232889Y238264D01*
X232985Y238748D01*
X232853Y239411D01*
X232478Y239974D01*
X231915Y240349D01*
X231252Y240481D01*
X230589Y240349D01*
X230026Y239974D01*
X229651Y239411D01*
X229519Y238748D01*
X229620Y238241D01*
X229159Y237995D01*
X224577Y242577D01*
X224312Y242754D01*
X224000Y242816D01*
X224000Y242816D01*
X222639D01*
X222501Y243113D01*
X222461Y243283D01*
X222757Y243684D01*
X231162D01*
X240011Y234835D01*
D02*
G37*
G36*
X231129Y233717D02*
X231062Y233465D01*
X230922Y233218D01*
X230337Y233101D01*
X229774Y232726D01*
X229399Y232163D01*
X229267Y231500D01*
X229399Y230837D01*
X229774Y230274D01*
X230184Y230000D01*
Y228284D01*
X229743Y228048D01*
X229663Y228101D01*
X229477Y228138D01*
X229328Y228238D01*
X229016Y228300D01*
X228704Y228238D01*
X228568Y228147D01*
X228337Y228101D01*
X228257Y228048D01*
X227816Y228284D01*
Y231969D01*
X228273Y232274D01*
X228649Y232837D01*
X228781Y233500D01*
X228649Y234163D01*
X228273Y234726D01*
X227711Y235101D01*
X227047Y235233D01*
X226384Y235101D01*
X225822Y234726D01*
X225446Y234163D01*
X225314Y233500D01*
X225446Y232837D01*
X225822Y232274D01*
X226184Y232032D01*
Y220728D01*
X225957D01*
Y214610D01*
X231831D01*
Y210417D01*
X230535Y209121D01*
X222725D01*
X222458Y209622D01*
X222601Y209837D01*
X222733Y210500D01*
X222601Y211163D01*
X222226Y211726D01*
X221957Y211905D01*
Y214610D01*
X224201D01*
Y220728D01*
X223926D01*
Y237890D01*
X224336Y238164D01*
X224712Y238726D01*
X224828Y239311D01*
X225075Y239452D01*
X225328Y239519D01*
X231129Y233717D01*
D02*
G37*
G36*
X288184Y258162D02*
Y214500D01*
X288184Y214500D01*
X288246Y214188D01*
X288423Y213923D01*
X289998Y212348D01*
X289600Y211950D01*
Y211194D01*
X289100Y211042D01*
X289077Y211077D01*
X289077Y211077D01*
X282137Y218016D01*
X282233Y218500D01*
X282101Y219163D01*
X281726Y219726D01*
X281163Y220101D01*
X280500Y220233D01*
X279837Y220101D01*
X279274Y219726D01*
X278899Y219163D01*
X278816Y218746D01*
X278316Y218795D01*
Y232500D01*
X278726Y232774D01*
X279101Y233337D01*
X279233Y234000D01*
X279101Y234663D01*
X278726Y235226D01*
X278163Y235601D01*
X277500Y235733D01*
X276837Y235601D01*
X276615Y235453D01*
X276115Y235720D01*
Y262614D01*
X276577Y262806D01*
X280821Y258562D01*
Y228271D01*
X280749Y228163D01*
X280617Y227500D01*
X280749Y226837D01*
X281124Y226274D01*
X281687Y225899D01*
X282350Y225767D01*
X283013Y225899D01*
X283576Y226274D01*
X283951Y226837D01*
X284083Y227500D01*
X283951Y228163D01*
X283879Y228271D01*
Y259196D01*
X283763Y259781D01*
X283431Y260277D01*
X272924Y270784D01*
X273131Y271284D01*
X275062D01*
X288184Y258162D01*
D02*
G37*
G36*
X247885Y238461D02*
Y220728D01*
X245816D01*
Y237500D01*
X245754Y237812D01*
X245577Y238077D01*
X245577Y238077D01*
X219137Y264516D01*
X219233Y265000D01*
X219101Y265663D01*
X219048Y265743D01*
X219284Y266184D01*
X220162D01*
X247885Y238461D01*
D02*
G37*
G36*
X231252Y237015D02*
X231736Y237111D01*
X238043Y230804D01*
Y220728D01*
X235737D01*
Y231079D01*
X235737Y231079D01*
X235675Y231391D01*
X235498Y231656D01*
X235498Y231656D01*
X230499Y236655D01*
X230745Y237116D01*
X231252Y237015D01*
D02*
G37*
G36*
X214086Y246260D02*
X218923Y241423D01*
X219188Y241246D01*
X219500Y241184D01*
X219500Y241184D01*
X221836D01*
X221988Y240684D01*
X221885Y240615D01*
X221509Y240053D01*
X221377Y239390D01*
X221509Y238726D01*
X221885Y238164D01*
X222294Y237890D01*
Y220728D01*
X220316D01*
Y235500D01*
X220726Y235774D01*
X221101Y236337D01*
X221233Y237000D01*
X221101Y237663D01*
X220726Y238226D01*
X220163Y238601D01*
X219500Y238733D01*
X218837Y238601D01*
X218274Y238226D01*
X217899Y237663D01*
X217767Y237000D01*
X217899Y236337D01*
X218274Y235774D01*
X218684Y235500D01*
Y224284D01*
X218243Y224048D01*
X218163Y224101D01*
X217500Y224233D01*
X216837Y224101D01*
X216757Y224048D01*
X216316Y224284D01*
Y241029D01*
X216351Y241207D01*
Y242864D01*
X216289Y243176D01*
X216112Y243441D01*
X216112Y243441D01*
X213561Y245992D01*
X213561Y246079D01*
X214016Y246269D01*
X214086Y246260D01*
D02*
G37*
G36*
X262516Y222169D02*
X255816Y215469D01*
X255316Y215676D01*
Y222669D01*
X262309D01*
X262516Y222169D01*
D02*
G37*
G36*
X251768Y207563D02*
Y200795D01*
X252467D01*
X252519Y200708D01*
X252518Y200688D01*
X252251Y200184D01*
X251837Y200101D01*
X251274Y199726D01*
X250899Y199163D01*
X250767Y198500D01*
X250863Y198016D01*
X238612Y185766D01*
X237000D01*
X236809Y186228D01*
X247456Y196875D01*
X248000Y196767D01*
X248663Y196899D01*
X249226Y197274D01*
X249601Y197837D01*
X249733Y198500D01*
X249601Y199163D01*
X249226Y199726D01*
X248663Y200101D01*
X248000Y200233D01*
X247337Y200101D01*
X246774Y199726D01*
X246399Y199163D01*
X246267Y198500D01*
X246375Y197956D01*
X235183Y186765D01*
X233053D01*
X232846Y187265D01*
X242456Y196875D01*
X243000Y196767D01*
X243663Y196899D01*
X244226Y197274D01*
X244601Y197837D01*
X244733Y198500D01*
X244601Y199163D01*
X244226Y199726D01*
X243663Y200101D01*
X243000Y200233D01*
X242337Y200101D01*
X241774Y199726D01*
X241399Y199163D01*
X241267Y198500D01*
X241375Y197956D01*
X231683Y188265D01*
X229053D01*
X228846Y188765D01*
X237456Y197375D01*
X238000Y197267D01*
X238663Y197399D01*
X239226Y197774D01*
X239601Y198337D01*
X239733Y199000D01*
X239601Y199663D01*
X239226Y200226D01*
X239121Y200295D01*
X239273Y200795D01*
X242531D01*
Y207217D01*
X242606Y207267D01*
X243106Y206999D01*
Y200795D01*
X246862D01*
Y207754D01*
X246937Y207804D01*
X247437Y207537D01*
Y200795D01*
X251193D01*
Y207780D01*
X251268Y207830D01*
X251768Y207563D01*
D02*
G37*
G36*
X207774Y205774D02*
X208136Y205533D01*
Y204967D01*
X207774Y204726D01*
X207500Y204316D01*
X191338D01*
X189950Y205703D01*
X189951Y205714D01*
X190176Y206184D01*
X207500D01*
X207774Y205774D01*
D02*
G37*
D10*
X291500Y237000D02*
X298500Y230000D01*
X168300Y231700D02*
Y236900D01*
Y231700D02*
X172000Y228000D01*
X168300Y236900D02*
X171500Y240100D01*
X192500Y287500D02*
X212500D01*
X191100Y209900D02*
X210600D01*
X213500Y193000D02*
X225000D01*
X204500D02*
X213500D01*
Y207000D01*
X210600Y209900D02*
X213500Y207000D01*
X171350Y276850D02*
X174994D01*
X169000Y274500D02*
X171350Y276850D01*
X169000Y258000D02*
Y274500D01*
Y258000D02*
X172500Y254500D01*
X181500D01*
X181174Y278240D02*
X185500Y273914D01*
Y271500D02*
Y273914D01*
Y271500D02*
X186500Y270500D01*
X206000D01*
Y253500D02*
Y270500D01*
X206500Y270000D01*
X226000D01*
X174529Y277315D02*
X174994Y276850D01*
X174529Y277315D02*
Y286529D01*
X174994Y276850D02*
X179784D01*
X181174Y278240D01*
X185000Y295000D02*
X192500Y287500D01*
X183000Y295000D02*
X185000D01*
X174529Y286529D02*
X183000Y295000D01*
X225000Y193000D02*
X232000Y200000D01*
X225079Y213921D02*
X228000Y211000D01*
X225079Y213921D02*
Y217669D01*
X231500Y261000D02*
Y264500D01*
Y261000D02*
X250669Y241831D01*
Y217669D02*
Y241831D01*
X262307Y201693D02*
Y204839D01*
X226000Y270000D02*
X231500Y264500D01*
X274500Y189500D02*
X277500Y186500D01*
X298500Y155000D02*
Y230000D01*
X277500Y181000D02*
Y186500D01*
X262307Y201693D02*
X274500Y189500D01*
Y178000D02*
X277500Y181000D01*
X293500Y150000D02*
X298500Y155000D01*
X241000Y178000D02*
X274500D01*
X239400Y176400D02*
X241000Y178000D01*
X239400Y176400D02*
X244000Y171800D01*
X222100Y176400D02*
X239400D01*
X220000Y178500D02*
X222100Y176400D01*
X244000Y151500D02*
Y171800D01*
X181500Y254500D02*
X185000Y251000D01*
Y246588D02*
X187588Y244000D01*
Y241069D02*
Y244000D01*
X185000Y246588D02*
Y251000D01*
X184500Y237981D02*
X187588Y241069D01*
X184500Y237000D02*
Y237981D01*
Y234900D02*
Y237000D01*
X181600Y232000D02*
X184500Y234900D01*
X181100Y231500D02*
X181600Y232000D01*
X174660Y243260D02*
X179283D01*
X171500Y240100D02*
X174660Y243260D01*
X185000Y216000D02*
X191100Y209900D01*
X193000Y178500D02*
X220000D01*
X181100Y223693D02*
Y231500D01*
Y220400D02*
X185000Y216500D01*
X177600Y228000D02*
X181100Y231500D01*
Y220400D02*
Y223693D01*
X185000Y216000D02*
Y216500D01*
X172000Y228000D02*
X177600D01*
D13*
X167000Y230000D02*
Y239500D01*
Y230000D02*
X190000Y207000D01*
X224000Y242000D02*
X234921Y231079D01*
X219500Y242000D02*
X224000D01*
X234921Y217669D02*
Y231079D01*
X223110Y217669D02*
Y239390D01*
X289000Y214500D02*
Y258500D01*
Y214500D02*
X293500Y210000D01*
X284000Y181500D02*
Y205500D01*
X277500Y212000D02*
X284000Y205500D01*
X288500Y195000D02*
Y210500D01*
X280500Y218500D02*
X288500Y210500D01*
X285500Y178000D02*
Y207000D01*
X281000Y211500D02*
X285500Y207000D01*
X287000Y186500D02*
Y208500D01*
X280500Y215000D02*
X287000Y208500D01*
X277500Y212000D02*
Y234000D01*
X272500Y219972D02*
Y230000D01*
X270969Y218440D02*
X272500Y219972D01*
X270969Y204839D02*
Y218440D01*
X171550Y184950D02*
X238950D01*
X166500Y190000D02*
X171550Y184950D01*
X238950D02*
X252500Y198500D01*
X243000Y268500D02*
X243500Y268000D01*
X270500Y220800D02*
Y224500D01*
X266638Y204839D02*
Y216938D01*
X248969Y261500D02*
X256500D01*
X266638Y216938D02*
X270500Y220800D01*
X257976Y204839D02*
Y213365D01*
X265700Y221089D01*
X246500Y266000D02*
X255500D01*
X237000Y264000D02*
X255556D01*
X288500Y195000D02*
X293500Y190000D01*
X287000Y186500D02*
X293500Y180000D01*
X285500Y178000D02*
X293500Y170000D01*
X278000Y175500D02*
X284000Y181500D01*
X247500Y175500D02*
X278000D01*
X186000Y264500D02*
X208500Y242000D01*
X186000Y264500D02*
Y267500D01*
X263500Y222000D02*
Y254500D01*
X256500Y261500D02*
X263500Y254500D01*
X264600Y221544D02*
Y254956D01*
X255556Y264000D02*
X264600Y254956D01*
X265700Y221089D02*
Y255800D01*
X255500Y266000D02*
X265700Y255800D01*
X275299Y204839D02*
Y263701D01*
X231000Y272000D02*
X231100Y272100D01*
X271000Y268000D02*
X275299Y263701D01*
X243500Y268000D02*
X271000D01*
X275400Y272100D02*
X289000Y258500D01*
X231100Y272100D02*
X275400D01*
X166500Y160000D02*
X175500Y151000D01*
X213500Y161500D02*
Y175000D01*
X203000Y151000D02*
X213500Y161500D01*
X175500Y151000D02*
X203000D01*
X208300Y241240D02*
X208500Y241440D01*
Y242000D01*
X208300Y223700D02*
Y241240D01*
X217205Y217669D02*
X217500Y217965D01*
X219173Y217669D02*
X219500Y217996D01*
X217500Y217965D02*
Y222500D01*
X208300Y223700D02*
X208500Y223500D01*
X175000Y259500D02*
X181500D01*
X190000Y207000D02*
X209000D01*
X164000Y230500D02*
Y242500D01*
X213268Y224268D02*
X213500Y224500D01*
X213268Y217669D02*
Y224268D01*
X215236Y217669D02*
X215500Y217933D01*
X229000Y227468D02*
X229016Y227484D01*
X229000Y226500D02*
Y227468D01*
X229016Y217669D02*
Y227484D01*
X231252Y238748D02*
X238858Y231142D01*
Y217669D02*
Y231142D01*
X230984Y217669D02*
X231000Y217685D01*
Y231500D01*
X227000Y217717D02*
X227047Y217669D01*
X227000Y233453D02*
X227047Y233500D01*
X227000Y217717D02*
Y233453D01*
X219500Y217996D02*
Y237000D01*
X213535Y233236D02*
Y242035D01*
X211299Y231000D02*
X213535Y233236D01*
X211299Y217669D02*
Y231000D01*
X211535Y246500D02*
X211899D01*
X215535Y241207D02*
Y242864D01*
X215500Y241172D02*
X215535Y241207D01*
X215500Y217933D02*
Y241172D01*
X211899Y246500D02*
X215535Y242864D01*
X240827Y217669D02*
Y235173D01*
X254356Y211300D02*
X264600Y221544D01*
X253900Y212400D02*
X263500Y222000D01*
X253000Y213500D02*
X254500Y215000D01*
X212500Y267000D02*
X220500D01*
X250937Y247063D02*
X254500Y243500D01*
Y215000D02*
Y243500D01*
X244764Y217669D02*
X245000Y217905D01*
Y237500D01*
X217500Y265000D02*
X245000Y237500D01*
X242795Y217669D02*
X243000Y217874D01*
Y229000D01*
X248701Y217669D02*
Y238799D01*
X220500Y267000D02*
X248701Y238799D01*
X249315Y207437D02*
X253178Y211300D01*
X249315Y206727D02*
Y207437D01*
X253178Y211300D02*
X254356D01*
X249973Y212400D02*
X253900D01*
X244984Y207411D02*
X249973Y212400D01*
X244984Y204839D02*
Y207411D01*
X247280Y213500D02*
X253000D01*
X240653Y206000D02*
Y206874D01*
X247280Y213500D01*
X191000Y203500D02*
X209000D01*
X164000Y230500D02*
X191000Y203500D01*
X237000Y213500D02*
Y217559D01*
X221142Y210500D02*
Y217669D01*
X212900Y248600D02*
Y253500D01*
X231500Y244500D02*
X240827Y235173D01*
X212900Y248600D02*
X219500Y242000D01*
X221200Y244500D02*
X231500D01*
D14*
X190500Y189000D02*
X228000D01*
X177500Y202000D02*
X190500Y189000D01*
X177500Y202000D02*
Y209000D01*
X189000Y187500D02*
X232000D01*
X180500Y186000D02*
X235500D01*
X176000Y182500D02*
X245000D01*
X173500Y180000D02*
X176000Y182500D01*
X166500Y180000D02*
X173500D01*
X247000Y180500D02*
X249000Y182500D01*
X177000Y180500D02*
X247000D01*
X166500Y170000D02*
X177000Y180500D01*
X235500Y186000D02*
X248000Y198500D01*
X232000Y187500D02*
X243000Y198500D01*
X228000Y189000D02*
X238000Y199000D01*
X166500Y220000D02*
X177500Y209000D01*
X166500Y210000D02*
X189000Y187500D01*
X166500Y200000D02*
X180500Y186000D01*
D19*
X174994Y276850D02*
D03*
X175000Y271200D02*
D03*
X174994Y264850D02*
D03*
X175000Y259200D02*
D03*
X199000Y279300D02*
D03*
X199006Y273650D02*
D03*
D22*
X171500Y247000D02*
D03*
Y240100D02*
D03*
D23*
X188400Y254500D02*
D03*
X181500D02*
D03*
X181100Y223693D02*
D03*
X188000D02*
D03*
X181600Y232000D02*
D03*
X188500D02*
D03*
X206000Y253500D02*
D03*
X212900D02*
D03*
D24*
X258800Y285000D02*
D03*
X253150Y284994D02*
D03*
D55*
X258700Y165000D02*
D03*
X274500D02*
D03*
D58*
X190307Y247000D02*
Y252593D01*
X188400Y254500D02*
X190307Y252593D01*
X246732Y214933D02*
Y217669D01*
X241800Y210000D02*
X246732Y214933D01*
X232953Y210047D02*
Y217669D01*
X201500Y211500D02*
X213595D01*
X189307Y223693D02*
X201500Y211500D01*
X188000Y223693D02*
X189307D01*
X213595Y211500D02*
X217095Y208000D01*
X231000D01*
X233000Y210000D01*
X241800D01*
X232953Y210047D02*
X233000Y210000D01*
D59*
X193954Y296454D02*
X266546D01*
X193500Y310000D02*
X219445D01*
X163000Y279500D02*
X193500Y310000D01*
X268500Y251500D02*
Y265000D01*
X163000Y255500D02*
Y279500D01*
Y255500D02*
X171500Y247000D01*
X188500Y237713D02*
X190307Y239520D01*
X188500Y232000D02*
Y237713D01*
D60*
X179283Y239520D02*
X182020D01*
X178020D02*
X179283D01*
X172500Y234000D02*
X178020Y239520D01*
X171500Y234000D02*
X172500D01*
X174994Y264850D02*
X175000Y264856D01*
Y271200D01*
X180734D02*
X181174Y270760D01*
X175000Y271200D02*
X180734D01*
X185046Y287546D02*
X193292Y279300D01*
X199000D01*
X272908Y285000D02*
X275454Y287546D01*
X258800Y285000D02*
X272908D01*
X237494Y284994D02*
X253150D01*
X226150Y273650D02*
X237494Y284994D01*
X199006Y273650D02*
X226150D01*
X190676D02*
X199006D01*
X189826Y274500D02*
X190676Y273650D01*
X171500Y247000D02*
X179283D01*
X182020Y239520D02*
X183260Y240760D01*
X181760Y247000D02*
X183260Y245500D01*
X179283Y247000D02*
X181760D01*
X183260Y240760D02*
Y245500D01*
X253646Y202127D02*
Y204839D01*
Y202127D02*
X262772Y193000D01*
X282350Y227500D02*
Y259196D01*
X263500Y270000D02*
X271546D01*
X282350Y259196D01*
D61*
X196500Y160000D02*
X197000Y159500D01*
X196500Y160000D02*
Y175500D01*
X188500Y224193D02*
Y232000D01*
X188000Y223693D02*
X188500Y224193D01*
D63*
X237504Y163000D02*
D03*
X269000D02*
D03*
D64*
X288000Y307000D02*
D03*
X172000D02*
D03*
D65*
X293500Y220000D02*
D03*
Y210000D02*
D03*
Y200000D02*
D03*
Y190000D02*
D03*
Y180000D02*
D03*
Y170000D02*
D03*
Y160000D02*
D03*
Y150000D02*
D03*
X166500Y220000D02*
D03*
Y210000D02*
D03*
Y200000D02*
D03*
Y190000D02*
D03*
Y180000D02*
D03*
Y170000D02*
D03*
Y160000D02*
D03*
Y150000D02*
D03*
D66*
X171500Y234000D02*
D03*
X219445Y310000D02*
D03*
X268500Y251500D02*
D03*
X262772Y193000D02*
D03*
X268500Y265000D02*
D03*
X197000Y159500D02*
D03*
X196500Y175500D02*
D03*
D67*
X167000Y239500D02*
D03*
X242740Y296500D02*
D03*
X212500Y287500D02*
D03*
X232000Y200000D02*
D03*
X228000Y211000D02*
D03*
X223110Y239390D02*
D03*
X281000Y211500D02*
D03*
X280500Y215000D02*
D03*
Y218500D02*
D03*
X277500Y234000D02*
D03*
X272500Y230000D02*
D03*
X213500Y175000D02*
D03*
X245000Y182500D02*
D03*
X231000Y272000D02*
D03*
X263500Y270000D02*
D03*
X282350Y227500D02*
D03*
X270500Y224500D02*
D03*
X238000Y199000D02*
D03*
X243000Y198500D02*
D03*
X249000Y182500D02*
D03*
X248969Y261500D02*
D03*
X243000Y268500D02*
D03*
X246500Y266000D02*
D03*
X237000Y264000D02*
D03*
X247500Y175500D02*
D03*
X181500Y259500D02*
D03*
X186000Y267500D02*
D03*
X252500Y198500D02*
D03*
X248000D02*
D03*
X297000Y230500D02*
D03*
X291500Y237000D02*
D03*
X231500Y264500D02*
D03*
X274500Y189500D02*
D03*
X277500Y181000D02*
D03*
X239400Y176400D02*
D03*
X244000Y151500D02*
D03*
X206000Y270500D02*
D03*
X184500Y237000D02*
D03*
X204500Y193000D02*
D03*
X193000Y178500D02*
D03*
X185000Y216500D02*
D03*
X231252Y238748D02*
D03*
X217500Y222500D02*
D03*
X208500Y223500D02*
D03*
X209000Y207000D02*
D03*
X164000Y242500D02*
D03*
X213500Y224500D02*
D03*
X229000Y226500D02*
D03*
X231000Y231500D02*
D03*
X227047Y233500D02*
D03*
X211535Y246500D02*
D03*
X219500Y237000D02*
D03*
X213535Y242035D02*
D03*
X212500Y267000D02*
D03*
X217500Y265000D02*
D03*
X250937Y247063D02*
D03*
X243000Y229000D02*
D03*
X209000Y203500D02*
D03*
X221000Y210500D02*
D03*
X237000Y213500D02*
D03*
X221200Y244500D02*
D03*
D68*
X293500Y301500D02*
D03*
Y312500D02*
D03*
X282500Y301500D02*
D03*
Y312500D02*
D03*
X288000Y299000D02*
D03*
X296000Y307000D02*
D03*
X280000D02*
D03*
X288000Y315000D02*
D03*
X177500Y301500D02*
D03*
X166500D02*
D03*
Y312500D02*
D03*
X177500D02*
D03*
X172000Y299000D02*
D03*
X164000Y307000D02*
D03*
X180000D02*
D03*
X172000Y315000D02*
D03*
D69*
X219394Y164575D02*
D03*
X280417D02*
D03*
D70*
X222543Y202370D02*
D03*
D71*
X280417D02*
D03*
D72*
X240653Y204839D02*
D03*
X244984D02*
D03*
X249315D02*
D03*
X253646D02*
D03*
X257976D02*
D03*
X266638D02*
D03*
X270969D02*
D03*
X275299D02*
D03*
X262307D02*
D03*
D73*
X266546Y296454D02*
D03*
X275454Y287546D02*
D03*
D74*
X189826Y274500D02*
D03*
X181174Y270760D02*
D03*
D75*
Y278240D02*
D03*
D76*
X193954Y296454D02*
D03*
X185046Y287546D02*
D03*
D77*
X190307Y247000D02*
D03*
Y239520D02*
D03*
X179283Y243260D02*
D03*
Y239520D02*
D03*
Y247000D02*
D03*
D78*
X200866Y227500D02*
D03*
X259134Y227500D02*
D03*
D79*
X223110Y217669D02*
D03*
X221142D02*
D03*
X207362D02*
D03*
X209331D02*
D03*
X211299D02*
D03*
X213268D02*
D03*
X215236D02*
D03*
X217205D02*
D03*
X219173D02*
D03*
X225079D02*
D03*
X227047D02*
D03*
X229016D02*
D03*
X230984D02*
D03*
X232953D02*
D03*
X234921D02*
D03*
X236890D02*
D03*
X238858D02*
D03*
X240827D02*
D03*
X242795D02*
D03*
X244764D02*
D03*
X246732D02*
D03*
X248701D02*
D03*
X250669D02*
D03*
X252638D02*
D03*
M02*
