G04*
G04 #@! TF.GenerationSoftware,Altium Limited,Altium Designer,19.0.4 (130)*
G04*
G04 Layer_Color=2752767*
%FSLAX25Y25*%
%MOIN*%
G70*
G01*
G75*
%ADD95C,0.00200*%
%ADD96C,0.00267*%
D95*
X236704Y162200D02*
Y163800D01*
X238304D01*
Y162200D01*
X236704D01*
X268200D02*
Y163800D01*
X269800D01*
Y162200D01*
X268200D01*
X293500Y219200D02*
X292700Y220800D01*
X294300D01*
X293500Y219200D01*
Y209200D02*
X292700Y210800D01*
X294300D01*
X293500Y209200D01*
Y199200D02*
X292700Y200800D01*
X294300D01*
X293500Y199200D01*
Y189200D02*
X292700Y190800D01*
X294300D01*
X293500Y189200D01*
Y179200D02*
X292700Y180800D01*
X294300D01*
X293500Y179200D01*
Y169200D02*
X292700Y170800D01*
X294300D01*
X293500Y169200D01*
Y159200D02*
X292700Y160800D01*
X294300D01*
X293500Y159200D01*
Y149200D02*
X292700Y150800D01*
X294300D01*
X293500Y149200D01*
X166500Y219200D02*
X165700Y220800D01*
X167300D01*
X166500Y219200D01*
Y209200D02*
X165700Y210800D01*
X167300D01*
X166500Y209200D01*
Y199200D02*
X165700Y200800D01*
X167300D01*
X166500Y199200D01*
Y189200D02*
X165700Y190800D01*
X167300D01*
X166500Y189200D01*
Y179200D02*
X165700Y180800D01*
X167300D01*
X166500Y179200D01*
Y169200D02*
X165700Y170800D01*
X167300D01*
X166500Y169200D01*
Y159200D02*
X165700Y160800D01*
X167300D01*
X166500Y159200D01*
Y149200D02*
X165700Y150800D01*
X167300D01*
X166500Y149200D01*
X258700Y164200D02*
X259100Y164600D01*
X259500D01*
X259100Y165000D01*
X259500Y165400D01*
X259100D01*
X258700Y165800D01*
X258300Y165400D01*
X257900D01*
X258300Y165000D01*
X257900Y164600D01*
X258300D01*
X258700Y164200D01*
X274500D02*
X274900Y164600D01*
X275300D01*
X274900Y165000D01*
X275300Y165400D01*
X274900D01*
X274500Y165800D01*
X274100Y165400D01*
X273700D01*
X274100Y165000D01*
X273700Y164600D01*
X274100D01*
X274500Y164200D01*
X170700Y233200D02*
X171100Y234000D01*
X170700Y234800D01*
X171500Y234400D01*
X172300Y234800D01*
X171900Y234000D01*
X172300Y233200D01*
X171500Y233600D01*
X170700Y233200D01*
X166600Y239100D02*
Y238700D01*
X167400D01*
Y239100D01*
X167800D01*
Y239900D01*
X167400D01*
Y240300D01*
X166600D01*
Y239900D01*
X166200D01*
Y239100D01*
X166600D01*
X242340Y296100D02*
Y295700D01*
X243140D01*
Y296100D01*
X243540D01*
Y296900D01*
X243140D01*
Y297300D01*
X242340D01*
Y296900D01*
X241940D01*
Y296100D01*
X242340D01*
X218645Y309200D02*
X219045Y310000D01*
X218645Y310800D01*
X219445Y310400D01*
X220245Y310800D01*
X219845Y310000D01*
X220245Y309200D01*
X219445Y309600D01*
X218645Y309200D01*
X212100Y287100D02*
Y286700D01*
X212900D01*
Y287100D01*
X213300D01*
Y287900D01*
X212900D01*
Y288300D01*
X212100D01*
Y287900D01*
X211700D01*
Y287100D01*
X212100D01*
X231600Y199600D02*
Y199200D01*
X232400D01*
Y199600D01*
X232800D01*
Y200400D01*
X232400D01*
Y200800D01*
X231600D01*
Y200400D01*
X231200D01*
Y199600D01*
X231600D01*
X227600Y210600D02*
Y210200D01*
X228400D01*
Y210600D01*
X228800D01*
Y211400D01*
X228400D01*
Y211800D01*
X227600D01*
Y211400D01*
X227200D01*
Y210600D01*
X227600D01*
X222710Y238990D02*
Y238590D01*
X223510D01*
Y238990D01*
X223910D01*
Y239790D01*
X223510D01*
Y240190D01*
X222710D01*
Y239790D01*
X222310D01*
Y238990D01*
X222710D01*
X280600Y211100D02*
Y210700D01*
X281400D01*
Y211100D01*
X281800D01*
Y211900D01*
X281400D01*
Y212300D01*
X280600D01*
Y211900D01*
X280200D01*
Y211100D01*
X280600D01*
X280100Y214600D02*
Y214200D01*
X280900D01*
Y214600D01*
X281300D01*
Y215400D01*
X280900D01*
Y215800D01*
X280100D01*
Y215400D01*
X279700D01*
Y214600D01*
X280100D01*
Y218100D02*
Y217700D01*
X280900D01*
Y218100D01*
X281300D01*
Y218900D01*
X280900D01*
Y219300D01*
X280100D01*
Y218900D01*
X279700D01*
Y218100D01*
X280100D01*
X277100Y233600D02*
Y233200D01*
X277900D01*
Y233600D01*
X278300D01*
Y234400D01*
X277900D01*
Y234800D01*
X277100D01*
Y234400D01*
X276700D01*
Y233600D01*
X277100D01*
X272100Y229600D02*
Y229200D01*
X272900D01*
Y229600D01*
X273300D01*
Y230400D01*
X272900D01*
Y230800D01*
X272100D01*
Y230400D01*
X271700D01*
Y229600D01*
X272100D01*
X213100Y174600D02*
Y174200D01*
X213900D01*
Y174600D01*
X214300D01*
Y175400D01*
X213900D01*
Y175800D01*
X213100D01*
Y175400D01*
X212700D01*
Y174600D01*
X213100D01*
X244600Y182100D02*
Y181700D01*
X245400D01*
Y182100D01*
X245800D01*
Y182900D01*
X245400D01*
Y183300D01*
X244600D01*
Y182900D01*
X244200D01*
Y182100D01*
X244600D01*
X230600Y271600D02*
Y271200D01*
X231400D01*
Y271600D01*
X231800D01*
Y272400D01*
X231400D01*
Y272800D01*
X230600D01*
Y272400D01*
X230200D01*
Y271600D01*
X230600D01*
X263100Y269600D02*
Y269200D01*
X263900D01*
Y269600D01*
X264300D01*
Y270400D01*
X263900D01*
Y270800D01*
X263100D01*
Y270400D01*
X262700D01*
Y269600D01*
X263100D01*
X281950Y227100D02*
Y226700D01*
X282750D01*
Y227100D01*
X283150D01*
Y227900D01*
X282750D01*
Y228300D01*
X281950D01*
Y227900D01*
X281550D01*
Y227100D01*
X281950D01*
X270100Y224100D02*
Y223700D01*
X270900D01*
Y224100D01*
X271300D01*
Y224900D01*
X270900D01*
Y225300D01*
X270100D01*
Y224900D01*
X269700D01*
Y224100D01*
X270100D01*
X267700Y250700D02*
X268100Y251500D01*
X267700Y252300D01*
X268500Y251900D01*
X269300Y252300D01*
X268900Y251500D01*
X269300Y250700D01*
X268500Y251100D01*
X267700Y250700D01*
X237600Y198600D02*
Y198200D01*
X238400D01*
Y198600D01*
X238800D01*
Y199400D01*
X238400D01*
Y199800D01*
X237600D01*
Y199400D01*
X237200D01*
Y198600D01*
X237600D01*
X242600Y198100D02*
Y197700D01*
X243400D01*
Y198100D01*
X243800D01*
Y198900D01*
X243400D01*
Y199300D01*
X242600D01*
Y198900D01*
X242200D01*
Y198100D01*
X242600D01*
X248600Y182100D02*
Y181700D01*
X249400D01*
Y182100D01*
X249800D01*
Y182900D01*
X249400D01*
Y183300D01*
X248600D01*
Y182900D01*
X248200D01*
Y182100D01*
X248600D01*
X292700Y300700D02*
X293100D01*
X293500Y301100D01*
X293900Y300700D01*
X294300D01*
Y301100D01*
X293900Y301500D01*
X294300Y301900D01*
Y302300D01*
X293900D01*
X293500Y301900D01*
X293100Y302300D01*
X292700D01*
Y301900D01*
X293100Y301500D01*
X292700Y301100D01*
Y300700D01*
Y311700D02*
X293100D01*
X293500Y312100D01*
X293900Y311700D01*
X294300D01*
Y312100D01*
X293900Y312500D01*
X294300Y312900D01*
Y313300D01*
X293900D01*
X293500Y312900D01*
X293100Y313300D01*
X292700D01*
Y312900D01*
X293100Y312500D01*
X292700Y312100D01*
Y311700D01*
X281700Y300700D02*
X282100D01*
X282500Y301100D01*
X282900Y300700D01*
X283300D01*
Y301100D01*
X282900Y301500D01*
X283300Y301900D01*
Y302300D01*
X282900D01*
X282500Y301900D01*
X282100Y302300D01*
X281700D01*
Y301900D01*
X282100Y301500D01*
X281700Y301100D01*
Y300700D01*
Y311700D02*
X282100D01*
X282500Y312100D01*
X282900Y311700D01*
X283300D01*
Y312100D01*
X282900Y312500D01*
X283300Y312900D01*
Y313300D01*
X282900D01*
X282500Y312900D01*
X282100Y313300D01*
X281700D01*
Y312900D01*
X282100Y312500D01*
X281700Y312100D01*
Y311700D01*
X287200Y298200D02*
X287600D01*
X288000Y298600D01*
X288400Y298200D01*
X288800D01*
Y298600D01*
X288400Y299000D01*
X288800Y299400D01*
Y299800D01*
X288400D01*
X288000Y299400D01*
X287600Y299800D01*
X287200D01*
Y299400D01*
X287600Y299000D01*
X287200Y298600D01*
Y298200D01*
X295200Y306200D02*
X295600D01*
X296000Y306600D01*
X296400Y306200D01*
X296800D01*
Y306600D01*
X296400Y307000D01*
X296800Y307400D01*
Y307800D01*
X296400D01*
X296000Y307400D01*
X295600Y307800D01*
X295200D01*
Y307400D01*
X295600Y307000D01*
X295200Y306600D01*
Y306200D01*
X279200D02*
X279600D01*
X280000Y306600D01*
X280400Y306200D01*
X280800D01*
Y306600D01*
X280400Y307000D01*
X280800Y307400D01*
Y307800D01*
X280400D01*
X280000Y307400D01*
X279600Y307800D01*
X279200D01*
Y307400D01*
X279600Y307000D01*
X279200Y306600D01*
Y306200D01*
X287200Y314200D02*
X287600D01*
X288000Y314600D01*
X288400Y314200D01*
X288800D01*
Y314600D01*
X288400Y315000D01*
X288800Y315400D01*
Y315800D01*
X288400D01*
X288000Y315400D01*
X287600Y315800D01*
X287200D01*
Y315400D01*
X287600Y315000D01*
X287200Y314600D01*
Y314200D01*
X176700Y300700D02*
X177100D01*
X177500Y301100D01*
X177900Y300700D01*
X178300D01*
Y301100D01*
X177900Y301500D01*
X178300Y301900D01*
Y302300D01*
X177900D01*
X177500Y301900D01*
X177100Y302300D01*
X176700D01*
Y301900D01*
X177100Y301500D01*
X176700Y301100D01*
Y300700D01*
X165700D02*
X166100D01*
X166500Y301100D01*
X166900Y300700D01*
X167300D01*
Y301100D01*
X166900Y301500D01*
X167300Y301900D01*
Y302300D01*
X166900D01*
X166500Y301900D01*
X166100Y302300D01*
X165700D01*
Y301900D01*
X166100Y301500D01*
X165700Y301100D01*
Y300700D01*
Y311700D02*
X166100D01*
X166500Y312100D01*
X166900Y311700D01*
X167300D01*
Y312100D01*
X166900Y312500D01*
X167300Y312900D01*
Y313300D01*
X166900D01*
X166500Y312900D01*
X166100Y313300D01*
X165700D01*
Y312900D01*
X166100Y312500D01*
X165700Y312100D01*
Y311700D01*
X176700D02*
X177100D01*
X177500Y312100D01*
X177900Y311700D01*
X178300D01*
Y312100D01*
X177900Y312500D01*
X178300Y312900D01*
Y313300D01*
X177900D01*
X177500Y312900D01*
X177100Y313300D01*
X176700D01*
Y312900D01*
X177100Y312500D01*
X176700Y312100D01*
Y311700D01*
X171200Y298200D02*
X171600D01*
X172000Y298600D01*
X172400Y298200D01*
X172800D01*
Y298600D01*
X172400Y299000D01*
X172800Y299400D01*
Y299800D01*
X172400D01*
X172000Y299400D01*
X171600Y299800D01*
X171200D01*
Y299400D01*
X171600Y299000D01*
X171200Y298600D01*
Y298200D01*
X163200Y306200D02*
X163600D01*
X164000Y306600D01*
X164400Y306200D01*
X164800D01*
Y306600D01*
X164400Y307000D01*
X164800Y307400D01*
Y307800D01*
X164400D01*
X164000Y307400D01*
X163600Y307800D01*
X163200D01*
Y307400D01*
X163600Y307000D01*
X163200Y306600D01*
Y306200D01*
X179200D02*
X179600D01*
X180000Y306600D01*
X180400Y306200D01*
X180800D01*
Y306600D01*
X180400Y307000D01*
X180800Y307400D01*
Y307800D01*
X180400D01*
X180000Y307400D01*
X179600Y307800D01*
X179200D01*
Y307400D01*
X179600Y307000D01*
X179200Y306600D01*
Y306200D01*
X171200Y314200D02*
X171600D01*
X172000Y314600D01*
X172400Y314200D01*
X172800D01*
Y314600D01*
X172400Y315000D01*
X172800Y315400D01*
Y315800D01*
X172400D01*
X172000Y315400D01*
X171600Y315800D01*
X171200D01*
Y315400D01*
X171600Y315000D01*
X171200Y314600D01*
Y314200D01*
X248569Y261100D02*
Y260700D01*
X249369D01*
Y261100D01*
X249768D01*
Y261900D01*
X249369D01*
Y262300D01*
X248569D01*
Y261900D01*
X248168D01*
Y261100D01*
X248569D01*
X242600Y268100D02*
Y267700D01*
X243400D01*
Y268100D01*
X243800D01*
Y268900D01*
X243400D01*
Y269300D01*
X242600D01*
Y268900D01*
X242200D01*
Y268100D01*
X242600D01*
X246100Y265600D02*
Y265200D01*
X246900D01*
Y265600D01*
X247300D01*
Y266400D01*
X246900D01*
Y266800D01*
X246100D01*
Y266400D01*
X245700D01*
Y265600D01*
X246100D01*
X236600Y263600D02*
Y263200D01*
X237400D01*
Y263600D01*
X237800D01*
Y264400D01*
X237400D01*
Y264800D01*
X236600D01*
Y264400D01*
X236200D01*
Y263600D01*
X236600D01*
X247100Y175100D02*
Y174700D01*
X247900D01*
Y175100D01*
X248300D01*
Y175900D01*
X247900D01*
Y176300D01*
X247100D01*
Y175900D01*
X246700D01*
Y175100D01*
X247100D01*
X181100Y259100D02*
Y258700D01*
X181900D01*
Y259100D01*
X182300D01*
Y259900D01*
X181900D01*
Y260300D01*
X181100D01*
Y259900D01*
X180700D01*
Y259100D01*
X181100D01*
X185600Y267100D02*
Y266700D01*
X186400D01*
Y267100D01*
X186800D01*
Y267900D01*
X186400D01*
Y268300D01*
X185600D01*
Y267900D01*
X185200D01*
Y267100D01*
X185600D01*
X261972Y192200D02*
X262372Y193000D01*
X261972Y193800D01*
X262772Y193400D01*
X263572Y193800D01*
X263172Y193000D01*
X263572Y192200D01*
X262772Y192600D01*
X261972Y192200D01*
X252100Y198100D02*
Y197700D01*
X252900D01*
Y198100D01*
X253300D01*
Y198900D01*
X252900D01*
Y199300D01*
X252100D01*
Y198900D01*
X251700D01*
Y198100D01*
X252100D01*
X247600D02*
Y197700D01*
X248400D01*
Y198100D01*
X248800D01*
Y198900D01*
X248400D01*
Y199300D01*
X247600D01*
Y198900D01*
X247200D01*
Y198100D01*
X247600D01*
X267700Y264200D02*
X268100Y265000D01*
X267700Y265800D01*
X268500Y265400D01*
X269300Y265800D01*
X268900Y265000D01*
X269300Y264200D01*
X268500Y264600D01*
X267700Y264200D01*
X196200Y158700D02*
X196600Y159500D01*
X196200Y160300D01*
X197000Y159900D01*
X197800Y160300D01*
X197400Y159500D01*
X197800Y158700D01*
X197000Y159100D01*
X196200Y158700D01*
X195700Y174700D02*
X196100Y175500D01*
X195700Y176300D01*
X196500Y175900D01*
X197300Y176300D01*
X196900Y175500D01*
X197300Y174700D01*
X196500Y175100D01*
X195700Y174700D01*
X296600Y230100D02*
Y229700D01*
X297400D01*
Y230100D01*
X297800D01*
Y230900D01*
X297400D01*
Y231300D01*
X296600D01*
Y230900D01*
X296200D01*
Y230100D01*
X296600D01*
X291100Y236600D02*
Y236200D01*
X291900D01*
Y236600D01*
X292300D01*
Y237400D01*
X291900D01*
Y237800D01*
X291100D01*
Y237400D01*
X290700D01*
Y236600D01*
X291100D01*
X231100Y264100D02*
Y263700D01*
X231900D01*
Y264100D01*
X232300D01*
Y264900D01*
X231900D01*
Y265300D01*
X231100D01*
Y264900D01*
X230700D01*
Y264100D01*
X231100D01*
X274100Y189100D02*
Y188700D01*
X274900D01*
Y189100D01*
X275300D01*
Y189900D01*
X274900D01*
Y190300D01*
X274100D01*
Y189900D01*
X273700D01*
Y189100D01*
X274100D01*
X277100Y180600D02*
Y180200D01*
X277900D01*
Y180600D01*
X278300D01*
Y181400D01*
X277900D01*
Y181800D01*
X277100D01*
Y181400D01*
X276700D01*
Y180600D01*
X277100D01*
X239000Y176000D02*
Y175600D01*
X239800D01*
Y176000D01*
X240200D01*
Y176800D01*
X239800D01*
Y177200D01*
X239000D01*
Y176800D01*
X238600D01*
Y176000D01*
X239000D01*
X243600Y151100D02*
Y150700D01*
X244400D01*
Y151100D01*
X244800D01*
Y151900D01*
X244400D01*
Y152300D01*
X243600D01*
Y151900D01*
X243200D01*
Y151100D01*
X243600D01*
X205600Y270100D02*
Y269700D01*
X206400D01*
Y270100D01*
X206800D01*
Y270900D01*
X206400D01*
Y271300D01*
X205600D01*
Y270900D01*
X205200D01*
Y270100D01*
X205600D01*
X184100Y236600D02*
Y236200D01*
X184900D01*
Y236600D01*
X185300D01*
Y237400D01*
X184900D01*
Y237800D01*
X184100D01*
Y237400D01*
X183700D01*
Y236600D01*
X184100D01*
X204100Y192600D02*
Y192200D01*
X204900D01*
Y192600D01*
X205300D01*
Y193400D01*
X204900D01*
Y193800D01*
X204100D01*
Y193400D01*
X203700D01*
Y192600D01*
X204100D01*
X192600Y178100D02*
Y177700D01*
X193400D01*
Y178100D01*
X193800D01*
Y178900D01*
X193400D01*
Y179300D01*
X192600D01*
Y178900D01*
X192200D01*
Y178100D01*
X192600D01*
X184600Y216100D02*
Y215700D01*
X185400D01*
Y216100D01*
X185800D01*
Y216900D01*
X185400D01*
Y217300D01*
X184600D01*
Y216900D01*
X184200D01*
Y216100D01*
X184600D01*
X230852Y238348D02*
Y237948D01*
X231652D01*
Y238348D01*
X232052D01*
Y239148D01*
X231652D01*
Y239548D01*
X230852D01*
Y239148D01*
X230452D01*
Y238348D01*
X230852D01*
X217100Y222100D02*
Y221700D01*
X217900D01*
Y222100D01*
X218300D01*
Y222900D01*
X217900D01*
Y223300D01*
X217100D01*
Y222900D01*
X216700D01*
Y222100D01*
X217100D01*
X208100Y223100D02*
Y222700D01*
X208900D01*
Y223100D01*
X209300D01*
Y223900D01*
X208900D01*
Y224300D01*
X208100D01*
Y223900D01*
X207700D01*
Y223100D01*
X208100D01*
X208600Y206600D02*
Y206200D01*
X209400D01*
Y206600D01*
X209800D01*
Y207400D01*
X209400D01*
Y207800D01*
X208600D01*
Y207400D01*
X208200D01*
Y206600D01*
X208600D01*
X163600Y242100D02*
Y241700D01*
X164400D01*
Y242100D01*
X164800D01*
Y242900D01*
X164400D01*
Y243300D01*
X163600D01*
Y242900D01*
X163200D01*
Y242100D01*
X163600D01*
X213100Y224100D02*
Y223700D01*
X213900D01*
Y224100D01*
X214300D01*
Y224900D01*
X213900D01*
Y225300D01*
X213100D01*
Y224900D01*
X212700D01*
Y224100D01*
X213100D01*
X228600Y226100D02*
Y225700D01*
X229400D01*
Y226100D01*
X229800D01*
Y226900D01*
X229400D01*
Y227300D01*
X228600D01*
Y226900D01*
X228200D01*
Y226100D01*
X228600D01*
X230600Y231100D02*
Y230700D01*
X231400D01*
Y231100D01*
X231800D01*
Y231900D01*
X231400D01*
Y232300D01*
X230600D01*
Y231900D01*
X230200D01*
Y231100D01*
X230600D01*
X226647Y233100D02*
Y232700D01*
X227447D01*
Y233100D01*
X227847D01*
Y233900D01*
X227447D01*
Y234300D01*
X226647D01*
Y233900D01*
X226247D01*
Y233100D01*
X226647D01*
X211135Y246100D02*
Y245700D01*
X211935D01*
Y246100D01*
X212335D01*
Y246900D01*
X211935D01*
Y247300D01*
X211135D01*
Y246900D01*
X210735D01*
Y246100D01*
X211135D01*
X219100Y236600D02*
Y236200D01*
X219900D01*
Y236600D01*
X220300D01*
Y237400D01*
X219900D01*
Y237800D01*
X219100D01*
Y237400D01*
X218700D01*
Y236600D01*
X219100D01*
X213135Y241635D02*
Y241235D01*
X213935D01*
Y241635D01*
X214335D01*
Y242435D01*
X213935D01*
Y242835D01*
X213135D01*
Y242435D01*
X212735D01*
Y241635D01*
X213135D01*
X212100Y266600D02*
Y266200D01*
X212900D01*
Y266600D01*
X213300D01*
Y267400D01*
X212900D01*
Y267800D01*
X212100D01*
Y267400D01*
X211700D01*
Y266600D01*
X212100D01*
X217100Y264600D02*
Y264200D01*
X217900D01*
Y264600D01*
X218300D01*
Y265400D01*
X217900D01*
Y265800D01*
X217100D01*
Y265400D01*
X216700D01*
Y264600D01*
X217100D01*
X250537Y246663D02*
Y246263D01*
X251337D01*
Y246663D01*
X251737D01*
Y247463D01*
X251337D01*
Y247863D01*
X250537D01*
Y247463D01*
X250137D01*
Y246663D01*
X250537D01*
X242600Y228600D02*
Y228200D01*
X243400D01*
Y228600D01*
X243800D01*
Y229400D01*
X243400D01*
Y229800D01*
X242600D01*
Y229400D01*
X242200D01*
Y228600D01*
X242600D01*
X208600Y203100D02*
Y202700D01*
X209400D01*
Y203100D01*
X209800D01*
Y203900D01*
X209400D01*
Y204300D01*
X208600D01*
Y203900D01*
X208200D01*
Y203100D01*
X208600D01*
X220600Y210100D02*
Y209700D01*
X221400D01*
Y210100D01*
X221800D01*
Y210900D01*
X221400D01*
Y211300D01*
X220600D01*
Y210900D01*
X220200D01*
Y210100D01*
X220600D01*
X236600Y213100D02*
Y212700D01*
X237400D01*
Y213100D01*
X237800D01*
Y213900D01*
X237400D01*
Y214300D01*
X236600D01*
Y213900D01*
X236200D01*
Y213100D01*
X236600D01*
X220800Y244100D02*
Y243700D01*
X221600D01*
Y244100D01*
X222000D01*
Y244900D01*
X221600D01*
Y245300D01*
X220800D01*
Y244900D01*
X220400D01*
Y244100D01*
X220800D01*
D96*
X288800Y307000D02*
G03*
X288800Y307000I-800J0D01*
G01*
X172800D02*
G03*
X172800Y307000I-800J0D01*
G01*
M02*
