M48
;Layer_Color=9474304
;FILE_FORMAT=2:5
INCH,LZ
;TYPE=PLATED
T1F00S00C0.01000
T2F00S00C0.01200
T3F00S00C0.01968
T4F00S00C0.02400
T5F00S00C0.04000
T6F00S00C0.11811
%
T01
X01665Y03015
X0172Y0299
X01775Y03015
X018Y0307
X01775Y03125
X0172Y0315
X01665Y03125
X0164Y0307
X028
X02825Y03015
X0288Y0299
X02935Y03015
X0296Y0307
X02935Y03125
X0288Y0315
X02825Y03125
T02
X028235Y02275
X0297Y02305
X02915Y0237
X02775Y0234
X02725Y023
X02705Y02245
X02805Y02185
Y0215
X0281Y02115
X02745Y01895
X02775Y0181
X0249Y01825
X0245
X02475Y01755
X02394Y01764
X0238Y0199
X0243Y01985
X0248
X02525
X0232Y02
X0228Y0211
X0221Y02105
X02175Y02225
X02135Y02245
X02085Y02235
X0209Y0207
Y02035
X02045Y0193
X0193Y01785
X02135Y0175
X0244Y01515
X0237Y02135
X0229Y02265
X0231Y02315
X0227047Y02335
X0231252Y0238748
X022311Y023939
X02195Y0237
X02212Y02445
X0213535Y0242035
X0211535Y02465
X02125Y0267
X02175Y0265
X02315Y02645
X0237Y0264
X0243Y02685
X02465Y0266
X0248969Y02615
X0250937Y0247063
X0243Y0229
X0231Y0272
X0206Y02705
X0186Y02675
X01815Y02595
X01845Y0237
X0167Y02395
X0164Y02425
X0185Y02165
X02125Y02875
X024274Y02965
X02635Y027
T03
X02587Y0165
X02745
T04
X0197Y01595
X01965Y01755
X01715Y0234
X02685Y02515
Y0265
X0262772Y0193
X0219445Y031
T05
X02935Y015
Y016
Y017
Y018
Y019
Y02
Y021
Y022
X01665
Y021
Y02
Y019
Y018
Y017
Y016
Y015
T06
X0172Y0307
X0288
M30
