G04*
G04 #@! TF.GenerationSoftware,Altium Limited,Altium Designer,19.0.4 (130)*
G04*
G04 Layer_Color=65535*
%FSLAX25Y25*%
%MOIN*%
G70*
G01*
G75*
%ADD10C,0.01000*%
%ADD11C,0.00787*%
%ADD12C,0.00700*%
%ADD13C,0.00600*%
%ADD14C,0.00500*%
%ADD15C,0.00800*%
%ADD16C,0.00591*%
%ADD17R,0.05400X0.01800*%
G36*
X189973Y303842D02*
X190012Y303836D01*
X190062Y303831D01*
X190118Y303819D01*
X190179Y303803D01*
X190306Y303758D01*
X190373Y303731D01*
X190445Y303697D01*
X190517Y303658D01*
X190584Y303608D01*
X190650Y303553D01*
X190717Y303492D01*
X190723Y303486D01*
X190734Y303475D01*
X190750Y303453D01*
X190772Y303425D01*
X190795Y303392D01*
X190823Y303348D01*
X190856Y303292D01*
X190889Y303231D01*
X190917Y303165D01*
X190950Y303087D01*
X190978Y303004D01*
X191006Y302909D01*
X191022Y302809D01*
X191039Y302698D01*
X191050Y302582D01*
X191056Y302460D01*
Y302454D01*
Y302432D01*
Y302393D01*
X191050Y302349D01*
X191044Y302288D01*
X191039Y302221D01*
X191028Y302149D01*
X191011Y302071D01*
X190972Y301899D01*
X190945Y301810D01*
X190911Y301727D01*
X190872Y301638D01*
X190828Y301555D01*
X190778Y301477D01*
X190717Y301405D01*
X190711Y301400D01*
X190700Y301389D01*
X190684Y301372D01*
X190656Y301350D01*
X190623Y301322D01*
X190584Y301289D01*
X190539Y301261D01*
X190489Y301228D01*
X190428Y301189D01*
X190367Y301161D01*
X190223Y301100D01*
X190145Y301078D01*
X190068Y301061D01*
X189979Y301050D01*
X189890Y301044D01*
X189846D01*
X189796Y301050D01*
X189735Y301061D01*
X189657Y301072D01*
X189579Y301089D01*
X189502Y301117D01*
X189424Y301155D01*
X189418Y301161D01*
X189391Y301178D01*
X189363Y301200D01*
X189324Y301233D01*
X189285Y301277D01*
X189246Y301327D01*
X189218Y301389D01*
X189196Y301455D01*
Y300267D01*
X188614D01*
Y303803D01*
X189196D01*
Y303470D01*
X189207Y303492D01*
X189218Y303525D01*
X189235Y303564D01*
X189269Y303614D01*
X189307Y303658D01*
X189357Y303708D01*
X189424Y303747D01*
X189435Y303753D01*
X189457Y303764D01*
X189502Y303781D01*
X189557Y303797D01*
X189624Y303814D01*
X189707Y303831D01*
X189796Y303842D01*
X189890Y303847D01*
X189940D01*
X189973Y303842D01*
D02*
G37*
G36*
X196223D02*
X196261D01*
X196300Y303836D01*
X196400Y303814D01*
X196506Y303786D01*
X196617Y303742D01*
X196717Y303681D01*
X196766Y303642D01*
X196811Y303597D01*
X196822Y303586D01*
X196844Y303553D01*
X196883Y303498D01*
X196927Y303425D01*
X196966Y303337D01*
X197005Y303237D01*
X197027Y303115D01*
X197038Y302987D01*
Y301111D01*
X196456D01*
Y302826D01*
Y302832D01*
Y302837D01*
Y302865D01*
X196450Y302915D01*
X196439Y302970D01*
X196428Y303031D01*
X196406Y303098D01*
X196372Y303165D01*
X196334Y303220D01*
X196328Y303226D01*
X196311Y303242D01*
X196284Y303264D01*
X196250Y303292D01*
X196200Y303320D01*
X196145Y303342D01*
X196084Y303359D01*
X196012Y303364D01*
X196001D01*
X195967Y303359D01*
X195912Y303348D01*
X195845Y303326D01*
X195767Y303292D01*
X195679Y303242D01*
X195629Y303209D01*
X195584Y303170D01*
X195540Y303120D01*
X195490Y303070D01*
Y303065D01*
X195479Y303059D01*
X195468Y303042D01*
X195451Y303020D01*
X195434Y302993D01*
X195412Y302954D01*
X195368Y302870D01*
X195324Y302765D01*
X195285Y302643D01*
X195257Y302499D01*
X195251Y302426D01*
X195246Y302343D01*
Y301111D01*
X194663D01*
Y303803D01*
X195246D01*
Y303326D01*
X195251Y303337D01*
X195262Y303364D01*
X195285Y303403D01*
X195312Y303459D01*
X195357Y303514D01*
X195407Y303581D01*
X195473Y303642D01*
X195551Y303697D01*
X195562Y303703D01*
X195596Y303719D01*
X195645Y303747D01*
X195712Y303775D01*
X195801Y303797D01*
X195901Y303825D01*
X196017Y303842D01*
X196151Y303847D01*
X196195D01*
X196223Y303842D01*
D02*
G37*
G36*
X200157Y301111D02*
X199575D01*
Y303602D01*
X199086Y301111D01*
X198620D01*
X198132Y303602D01*
Y301111D01*
X197555D01*
Y305157D01*
X198376D01*
X198853Y302702D01*
X199331Y305157D01*
X200157D01*
Y301111D01*
D02*
G37*
G36*
X202111Y301067D02*
X201556D01*
X200396Y305157D01*
X201057D01*
X201831Y302242D01*
X202611Y305157D01*
X203271D01*
X202111Y301067D01*
D02*
G37*
G36*
X205746Y302515D02*
X206296D01*
Y302010D01*
X205746D01*
Y301133D01*
X205186D01*
Y302010D01*
X203421D01*
Y302476D01*
X205308Y305201D01*
X205746D01*
Y302515D01*
D02*
G37*
G36*
X192976Y303842D02*
X193020Y303836D01*
X193070Y303831D01*
X193126Y303819D01*
X193187Y303808D01*
X193320Y303769D01*
X193392Y303742D01*
X193464Y303708D01*
X193531Y303670D01*
X193603Y303631D01*
X193670Y303575D01*
X193731Y303520D01*
X193736Y303514D01*
X193747Y303503D01*
X193758Y303486D01*
X193781Y303459D01*
X193808Y303420D01*
X193836Y303375D01*
X193864Y303320D01*
X193897Y303259D01*
X193925Y303187D01*
X193953Y303103D01*
X193980Y303009D01*
X194008Y302909D01*
X194030Y302798D01*
X194042Y302676D01*
X194053Y302543D01*
X194058Y302399D01*
X192199D01*
Y302393D01*
Y302382D01*
Y302360D01*
X192204Y302332D01*
Y302293D01*
X192210Y302254D01*
X192227Y302166D01*
X192249Y302066D01*
X192282Y301960D01*
X192332Y301866D01*
X192399Y301782D01*
X192410Y301777D01*
X192432Y301755D01*
X192476Y301722D01*
X192537Y301688D01*
X192610Y301655D01*
X192693Y301622D01*
X192787Y301599D01*
X192893Y301594D01*
X192931D01*
X192976Y301599D01*
X193026Y301610D01*
X193087Y301622D01*
X193148Y301638D01*
X193214Y301666D01*
X193270Y301705D01*
X193275Y301710D01*
X193292Y301727D01*
X193320Y301755D01*
X193348Y301799D01*
X193381Y301855D01*
X193414Y301921D01*
X193442Y302005D01*
X193464Y302099D01*
X194080D01*
Y302093D01*
Y302077D01*
X194075Y302049D01*
X194069Y302016D01*
X194058Y301977D01*
X194047Y301927D01*
X194014Y301816D01*
X193964Y301694D01*
X193897Y301566D01*
X193853Y301505D01*
X193808Y301444D01*
X193753Y301383D01*
X193692Y301333D01*
X193686Y301327D01*
X193675Y301322D01*
X193658Y301311D01*
X193631Y301294D01*
X193597Y301272D01*
X193559Y301250D01*
X193514Y301228D01*
X193464Y301200D01*
X193348Y301150D01*
X193214Y301111D01*
X193059Y301078D01*
X192976Y301072D01*
X192893Y301067D01*
X192837D01*
X192798Y301072D01*
X192748Y301078D01*
X192693Y301089D01*
X192626Y301100D01*
X192560Y301111D01*
X192410Y301155D01*
X192326Y301189D01*
X192249Y301222D01*
X192171Y301266D01*
X192093Y301316D01*
X192016Y301372D01*
X191944Y301438D01*
X191938Y301444D01*
X191927Y301455D01*
X191910Y301477D01*
X191888Y301505D01*
X191855Y301544D01*
X191827Y301588D01*
X191794Y301644D01*
X191760Y301705D01*
X191722Y301777D01*
X191688Y301849D01*
X191660Y301938D01*
X191633Y302027D01*
X191605Y302127D01*
X191588Y302232D01*
X191577Y302343D01*
X191572Y302460D01*
Y302465D01*
Y302487D01*
Y302521D01*
X191577Y302565D01*
X191583Y302621D01*
X191594Y302682D01*
X191605Y302748D01*
X191616Y302826D01*
X191660Y302987D01*
X191694Y303070D01*
X191727Y303153D01*
X191771Y303237D01*
X191822Y303320D01*
X191877Y303398D01*
X191944Y303470D01*
X191949Y303475D01*
X191960Y303486D01*
X191982Y303503D01*
X192010Y303531D01*
X192049Y303559D01*
X192093Y303592D01*
X192143Y303625D01*
X192204Y303658D01*
X192265Y303692D01*
X192338Y303731D01*
X192415Y303758D01*
X192499Y303786D01*
X192593Y303814D01*
X192687Y303831D01*
X192787Y303842D01*
X192893Y303847D01*
X192943D01*
X192976Y303842D01*
D02*
G37*
G36*
X186904Y305196D02*
X186949D01*
X186998Y305185D01*
X187059Y305174D01*
X187126Y305163D01*
X187198Y305140D01*
X187276Y305118D01*
X187359Y305085D01*
X187437Y305046D01*
X187520Y304996D01*
X187598Y304941D01*
X187676Y304879D01*
X187753Y304802D01*
X187820Y304718D01*
X187826Y304713D01*
X187837Y304696D01*
X187853Y304669D01*
X187875Y304630D01*
X187903Y304574D01*
X187931Y304508D01*
X187964Y304435D01*
X187997Y304341D01*
X188025Y304241D01*
X188058Y304125D01*
X188086Y303997D01*
X188114Y303853D01*
X188136Y303697D01*
X188153Y303531D01*
X188164Y303348D01*
X188170Y303148D01*
Y303142D01*
Y303137D01*
Y303120D01*
Y303098D01*
Y303042D01*
X188164Y302970D01*
X188158Y302876D01*
X188153Y302776D01*
X188142Y302660D01*
X188125Y302537D01*
X188109Y302410D01*
X188086Y302276D01*
X188058Y302143D01*
X188020Y302010D01*
X187981Y301888D01*
X187936Y301766D01*
X187881Y301655D01*
X187820Y301555D01*
X187814Y301549D01*
X187803Y301533D01*
X187781Y301511D01*
X187753Y301477D01*
X187720Y301444D01*
X187676Y301400D01*
X187626Y301355D01*
X187565Y301311D01*
X187504Y301266D01*
X187426Y301222D01*
X187348Y301178D01*
X187259Y301144D01*
X187165Y301111D01*
X187065Y301089D01*
X186960Y301072D01*
X186843Y301067D01*
X186815D01*
X186782Y301072D01*
X186738D01*
X186688Y301083D01*
X186627Y301094D01*
X186560Y301105D01*
X186482Y301128D01*
X186405Y301155D01*
X186327Y301189D01*
X186244Y301228D01*
X186160Y301272D01*
X186083Y301327D01*
X186000Y301394D01*
X185927Y301472D01*
X185855Y301555D01*
X185850Y301561D01*
X185839Y301577D01*
X185822Y301610D01*
X185800Y301649D01*
X185772Y301705D01*
X185739Y301771D01*
X185711Y301849D01*
X185678Y301938D01*
X185639Y302043D01*
X185611Y302160D01*
X185578Y302293D01*
X185550Y302437D01*
X185528Y302593D01*
X185511Y302765D01*
X185500Y302948D01*
X185494Y303148D01*
Y303153D01*
Y303159D01*
Y303176D01*
Y303198D01*
Y303253D01*
X185500Y303326D01*
X185505Y303420D01*
X185511Y303520D01*
X185522Y303636D01*
X185539Y303758D01*
X185561Y303886D01*
X185583Y304014D01*
X185611Y304147D01*
X185644Y304275D01*
X185689Y304402D01*
X185739Y304519D01*
X185794Y304630D01*
X185855Y304724D01*
X185861Y304730D01*
X185872Y304746D01*
X185894Y304768D01*
X185922Y304796D01*
X185961Y304835D01*
X186005Y304874D01*
X186055Y304918D01*
X186116Y304963D01*
X186183Y305007D01*
X186255Y305051D01*
X186338Y305090D01*
X186427Y305129D01*
X186521Y305157D01*
X186621Y305179D01*
X186726Y305196D01*
X186843Y305201D01*
X186871D01*
X186904Y305196D01*
D02*
G37*
G36*
X214071Y311196D02*
X214116Y311190D01*
X214171Y311179D01*
X214227Y311168D01*
X214293Y311151D01*
X214360Y311129D01*
X214432Y311102D01*
X214504Y311074D01*
X214582Y311035D01*
X214654Y310985D01*
X214726Y310935D01*
X214798Y310874D01*
X214865Y310802D01*
X214871Y310796D01*
X214882Y310785D01*
X214898Y310763D01*
X214921Y310730D01*
X214943Y310685D01*
X214976Y310635D01*
X215004Y310580D01*
X215037Y310508D01*
X215070Y310430D01*
X215098Y310347D01*
X215126Y310247D01*
X215148Y310141D01*
X215170Y310030D01*
X215181Y309908D01*
X215187Y309775D01*
Y309636D01*
X214565D01*
Y309642D01*
Y309659D01*
Y309686D01*
Y309725D01*
X214560Y309770D01*
Y309825D01*
X214549Y309942D01*
X214527Y310069D01*
X214504Y310197D01*
X214465Y310313D01*
X214443Y310369D01*
X214416Y310413D01*
X214410Y310424D01*
X214388Y310452D01*
X214354Y310485D01*
X214310Y310530D01*
X214249Y310574D01*
X214171Y310608D01*
X214083Y310635D01*
X213983Y310646D01*
X213949D01*
X213927Y310641D01*
X213866Y310630D01*
X213788Y310602D01*
X213705Y310558D01*
X213661Y310530D01*
X213616Y310496D01*
X213572Y310458D01*
X213527Y310408D01*
X213483Y310352D01*
X213444Y310291D01*
Y310286D01*
X213433Y310275D01*
X213428Y310252D01*
X213411Y310225D01*
X213394Y310180D01*
X213378Y310130D01*
X213361Y310075D01*
X213344Y310003D01*
X213322Y309925D01*
X213305Y309830D01*
X213289Y309731D01*
X213272Y309620D01*
X213256Y309497D01*
X213250Y309359D01*
X213239Y309214D01*
Y309053D01*
Y309042D01*
Y309020D01*
Y308976D01*
X213245Y308920D01*
Y308854D01*
X213250Y308782D01*
X213256Y308698D01*
X213267Y308610D01*
X213289Y308426D01*
X213328Y308238D01*
X213350Y308149D01*
X213378Y308071D01*
X213411Y307999D01*
X213444Y307932D01*
Y307927D01*
X213455Y307921D01*
X213483Y307882D01*
X213527Y307833D01*
X213589Y307777D01*
X213661Y307721D01*
X213750Y307671D01*
X213849Y307633D01*
X213905Y307627D01*
X213960Y307622D01*
X213971D01*
X213999Y307627D01*
X214038Y307633D01*
X214094Y307649D01*
X214160Y307677D01*
X214227Y307716D01*
X214299Y307771D01*
X214371Y307844D01*
Y307849D01*
X214382Y307855D01*
X214388Y307871D01*
X214404Y307888D01*
X214416Y307916D01*
X214432Y307955D01*
X214449Y307994D01*
X214471Y308043D01*
X214488Y308104D01*
X214504Y308171D01*
X214521Y308249D01*
X214538Y308338D01*
X214549Y308432D01*
X214560Y308537D01*
X214565Y308660D01*
Y308787D01*
X215215D01*
Y308776D01*
Y308748D01*
X215209Y308698D01*
X215204Y308632D01*
X215198Y308554D01*
X215187Y308465D01*
X215176Y308371D01*
X215154Y308265D01*
X215109Y308043D01*
X215076Y307932D01*
X215037Y307821D01*
X214998Y307716D01*
X214948Y307616D01*
X214893Y307527D01*
X214826Y307450D01*
X214821Y307444D01*
X214809Y307433D01*
X214787Y307416D01*
X214760Y307388D01*
X214726Y307361D01*
X214687Y307328D01*
X214637Y307294D01*
X214582Y307261D01*
X214521Y307222D01*
X214454Y307189D01*
X214310Y307128D01*
X214227Y307100D01*
X214144Y307083D01*
X214055Y307072D01*
X213960Y307067D01*
X213933D01*
X213905Y307072D01*
X213861D01*
X213811Y307083D01*
X213755Y307089D01*
X213688Y307105D01*
X213616Y307128D01*
X213544Y307150D01*
X213461Y307183D01*
X213383Y307216D01*
X213300Y307261D01*
X213217Y307316D01*
X213133Y307377D01*
X213050Y307450D01*
X212972Y307533D01*
X212967Y307538D01*
X212956Y307555D01*
X212934Y307583D01*
X212912Y307622D01*
X212878Y307671D01*
X212845Y307733D01*
X212806Y307805D01*
X212773Y307894D01*
X212734Y307988D01*
X212695Y308099D01*
X212662Y308221D01*
X212628Y308354D01*
X212606Y308499D01*
X212584Y308654D01*
X212573Y308826D01*
X212567Y309009D01*
Y309015D01*
Y309020D01*
Y309037D01*
Y309059D01*
Y309115D01*
X212573Y309192D01*
X212579Y309281D01*
X212590Y309386D01*
X212601Y309503D01*
X212617Y309625D01*
X212634Y309758D01*
X212662Y309892D01*
X212695Y310030D01*
X212734Y310163D01*
X212778Y310297D01*
X212828Y310424D01*
X212889Y310546D01*
X212956Y310652D01*
X212961Y310658D01*
X212972Y310674D01*
X212995Y310702D01*
X213028Y310741D01*
X213067Y310780D01*
X213117Y310824D01*
X213167Y310874D01*
X213233Y310929D01*
X213300Y310979D01*
X213378Y311029D01*
X213466Y311074D01*
X213555Y311118D01*
X213655Y311151D01*
X213755Y311179D01*
X213866Y311196D01*
X213983Y311201D01*
X214033D01*
X214071Y311196D01*
D02*
G37*
G36*
X190101Y307067D02*
X189546D01*
X188386Y311157D01*
X189047D01*
X189821Y308243D01*
X190601Y311157D01*
X191261D01*
X190101Y307067D01*
D02*
G37*
G36*
X202927Y310602D02*
X201445D01*
Y310596D01*
X201440Y310574D01*
X201434Y310546D01*
X201429Y310508D01*
X201417Y310458D01*
X201406Y310402D01*
X201395Y310341D01*
X201378Y310275D01*
X201345Y310136D01*
X201312Y309991D01*
X201268Y309853D01*
X201251Y309792D01*
X201229Y309736D01*
X201234D01*
X201240Y309742D01*
X201256Y309753D01*
X201279Y309758D01*
X201329Y309786D01*
X201406Y309814D01*
X201490Y309842D01*
X201589Y309864D01*
X201695Y309875D01*
X201811Y309880D01*
X201845D01*
X201867Y309875D01*
X201928Y309869D01*
X202006Y309858D01*
X202100Y309842D01*
X202200Y309814D01*
X202305Y309781D01*
X202416Y309736D01*
X202422D01*
X202428Y309731D01*
X202466Y309714D01*
X202516Y309681D01*
X202577Y309642D01*
X202644Y309592D01*
X202716Y309525D01*
X202783Y309459D01*
X202838Y309375D01*
X202844Y309364D01*
X202860Y309336D01*
X202883Y309292D01*
X202910Y309231D01*
X202944Y309165D01*
X202977Y309087D01*
X203005Y309003D01*
X203027Y308920D01*
X203032Y308909D01*
X203038Y308881D01*
X203044Y308837D01*
X203055Y308776D01*
X203066Y308704D01*
X203071Y308621D01*
X203077Y308526D01*
Y308432D01*
Y308426D01*
Y308421D01*
X203071Y308387D01*
X203066Y308338D01*
X203060Y308265D01*
X203044Y308188D01*
X203027Y308093D01*
X202999Y307999D01*
X202966Y307894D01*
Y307888D01*
X202960Y307882D01*
X202949Y307849D01*
X202927Y307799D01*
X202894Y307733D01*
X202855Y307660D01*
X202805Y307588D01*
X202744Y307511D01*
X202677Y307438D01*
X202666Y307433D01*
X202644Y307411D01*
X202600Y307377D01*
X202544Y307333D01*
X202477Y307289D01*
X202394Y307239D01*
X202305Y307194D01*
X202205Y307150D01*
X202200D01*
X202194Y307144D01*
X202178Y307139D01*
X202155Y307133D01*
X202100Y307117D01*
X202022Y307100D01*
X201934Y307083D01*
X201823Y307072D01*
X201706Y307067D01*
X201556D01*
X201539Y307072D01*
X201512D01*
X201478Y307078D01*
X201440Y307089D01*
X201351Y307105D01*
X201245Y307139D01*
X201129Y307189D01*
X201007Y307250D01*
X200885Y307327D01*
X200879Y307333D01*
X200868Y307339D01*
X200857Y307355D01*
X200835Y307377D01*
X200807Y307405D01*
X200779Y307438D01*
X200746Y307477D01*
X200707Y307527D01*
X200674Y307583D01*
X200635Y307649D01*
X200596Y307721D01*
X200563Y307799D01*
X200529Y307888D01*
X200496Y307982D01*
X200468Y308088D01*
X200441Y308199D01*
X200957Y308338D01*
Y308332D01*
X200962Y308310D01*
X200973Y308277D01*
X200990Y308238D01*
X201007Y308188D01*
X201029Y308132D01*
X201084Y308016D01*
X201156Y307888D01*
X201201Y307833D01*
X201251Y307777D01*
X201301Y307727D01*
X201356Y307688D01*
X201417Y307655D01*
X201484Y307638D01*
X201501D01*
X201517Y307633D01*
X201545D01*
X201612Y307627D01*
X201784D01*
X201884Y307644D01*
X201978Y307671D01*
X202067Y307710D01*
X202078Y307716D01*
X202106Y307738D01*
X202145Y307766D01*
X202189Y307810D01*
X202244Y307860D01*
X202294Y307921D01*
X202344Y307993D01*
X202383Y308077D01*
X202389Y308088D01*
X202400Y308116D01*
X202416Y308166D01*
X202433Y308226D01*
X202450Y308304D01*
X202461Y308393D01*
X202472Y308487D01*
Y308593D01*
Y308598D01*
Y308604D01*
X202466Y308643D01*
X202461Y308693D01*
X202450Y308759D01*
X202433Y308832D01*
X202405Y308909D01*
X202366Y308993D01*
X202322Y309065D01*
X202316Y309076D01*
X202300Y309098D01*
X202267Y309126D01*
X202228Y309170D01*
X202178Y309209D01*
X202117Y309253D01*
X202050Y309292D01*
X201972Y309320D01*
X201961Y309326D01*
X201934Y309331D01*
X201889Y309336D01*
X201834Y309348D01*
X201678D01*
X201589Y309336D01*
X201490Y309320D01*
X201484D01*
X201478Y309314D01*
X201445Y309303D01*
X201395Y309287D01*
X201334Y309253D01*
X201262Y309209D01*
X201184Y309153D01*
X201107Y309081D01*
X201034Y308993D01*
X200557Y309048D01*
Y309053D01*
X200563Y309059D01*
Y309081D01*
X200568Y309109D01*
X200579Y309153D01*
X200590Y309214D01*
X200607Y309287D01*
X200629Y309386D01*
X200640Y309442D01*
X200657Y309503D01*
X200668Y309570D01*
X200685Y309647D01*
X200701Y309725D01*
X200724Y309814D01*
X200740Y309908D01*
X200763Y310014D01*
X200785Y310125D01*
X200812Y310241D01*
X200840Y310369D01*
X200868Y310502D01*
X200896Y310646D01*
X200929Y310796D01*
X200962Y310957D01*
X201001Y311129D01*
X202927D01*
Y310602D01*
D02*
G37*
G36*
X199014Y311224D02*
X199092Y311218D01*
X199164Y311207D01*
X199175D01*
X199197Y311201D01*
X199236Y311190D01*
X199286Y311174D01*
X199347Y311151D01*
X199414Y311124D01*
X199486Y311085D01*
X199564Y311040D01*
X199575Y311035D01*
X199597Y311018D01*
X199636Y310985D01*
X199686Y310941D01*
X199741Y310885D01*
X199797Y310818D01*
X199852Y310735D01*
X199908Y310641D01*
Y310635D01*
X199913Y310630D01*
X199919Y310613D01*
X199930Y310591D01*
X199947Y310535D01*
X199969Y310463D01*
X199991Y310369D01*
X200002Y310258D01*
X200008Y310136D01*
X200002Y310003D01*
Y309997D01*
Y309986D01*
X199997Y309964D01*
X199991Y309936D01*
X199986Y309903D01*
X199974Y309858D01*
X199963Y309808D01*
X199947Y309753D01*
X199925Y309692D01*
X199902Y309625D01*
X199836Y309475D01*
X199797Y309392D01*
X199752Y309309D01*
X199697Y309220D01*
X199641Y309126D01*
X199636Y309120D01*
X199625Y309103D01*
X199608Y309076D01*
X199575Y309031D01*
X199536Y308981D01*
X199492Y308915D01*
X199431Y308843D01*
X199364Y308754D01*
X199286Y308660D01*
X199197Y308548D01*
X199098Y308432D01*
X198981Y308299D01*
X198859Y308160D01*
X198720Y308005D01*
X198570Y307838D01*
X198409Y307666D01*
X200063D01*
Y307133D01*
X197621D01*
Y307294D01*
Y307300D01*
Y307311D01*
X197627Y307327D01*
X197632Y307355D01*
X197638Y307388D01*
X197643Y307422D01*
X197671Y307511D01*
X197716Y307611D01*
X197771Y307716D01*
X197810Y307771D01*
X197849Y307827D01*
X197893Y307882D01*
X197949Y307938D01*
X197954Y307944D01*
X197965Y307949D01*
X197982Y307966D01*
X198004Y307993D01*
X198032Y308021D01*
X198071Y308060D01*
X198110Y308099D01*
X198160Y308154D01*
X198210Y308210D01*
X198271Y308271D01*
X198332Y308343D01*
X198398Y308421D01*
X198470Y308504D01*
X198548Y308598D01*
X198626Y308693D01*
X198709Y308798D01*
X198715Y308804D01*
X198731Y308826D01*
X198753Y308854D01*
X198781Y308892D01*
X198820Y308943D01*
X198864Y308998D01*
X198909Y309059D01*
X198959Y309131D01*
X199059Y309270D01*
X199153Y309420D01*
X199242Y309564D01*
X199275Y309631D01*
X199303Y309692D01*
Y309697D01*
X199308Y309708D01*
X199314Y309719D01*
X199325Y309742D01*
X199342Y309803D01*
X199364Y309875D01*
X199386Y309958D01*
X199403Y310041D01*
X199408Y310130D01*
X199403Y310213D01*
Y310225D01*
X199397Y310247D01*
X199386Y310286D01*
X199364Y310336D01*
X199342Y310391D01*
X199303Y310447D01*
X199258Y310502D01*
X199203Y310558D01*
X199197Y310563D01*
X199175Y310580D01*
X199142Y310602D01*
X199098Y310624D01*
X199036Y310646D01*
X198975Y310663D01*
X198898Y310674D01*
X198809D01*
X198781Y310669D01*
X198737Y310658D01*
X198681Y310646D01*
X198620Y310624D01*
X198548Y310591D01*
X198470Y310552D01*
X198393Y310502D01*
X198381Y310496D01*
X198359Y310474D01*
X198320Y310435D01*
X198276Y310385D01*
X198226Y310313D01*
X198171Y310230D01*
X198115Y310125D01*
X198065Y310003D01*
X197532Y310086D01*
Y310091D01*
X197544Y310114D01*
X197555Y310141D01*
X197566Y310186D01*
X197588Y310236D01*
X197610Y310291D01*
X197632Y310358D01*
X197666Y310424D01*
X197732Y310563D01*
X197821Y310707D01*
X197865Y310774D01*
X197915Y310835D01*
X197965Y310896D01*
X198021Y310946D01*
X198026Y310952D01*
X198032Y310957D01*
X198049Y310968D01*
X198076Y310985D01*
X198104Y311007D01*
X198137Y311029D01*
X198221Y311074D01*
X198326Y311124D01*
X198443Y311168D01*
X198581Y311201D01*
X198726Y311224D01*
X198737D01*
X198765Y311229D01*
X198942D01*
X199014Y311224D01*
D02*
G37*
G36*
X197177Y310669D02*
X197172Y310663D01*
X197166Y310646D01*
X197150Y310624D01*
X197127Y310591D01*
X197105Y310546D01*
X197077Y310496D01*
X197038Y310435D01*
X197000Y310369D01*
X196961Y310291D01*
X196916Y310208D01*
X196866Y310119D01*
X196817Y310019D01*
X196761Y309914D01*
X196705Y309808D01*
X196650Y309692D01*
X196589Y309570D01*
X196472Y309309D01*
X196350Y309037D01*
X196228Y308743D01*
X196112Y308437D01*
X196001Y308121D01*
X195901Y307799D01*
X195812Y307466D01*
X195740Y307133D01*
X195124D01*
Y307139D01*
X195129Y307155D01*
X195135Y307178D01*
X195146Y307216D01*
X195157Y307261D01*
X195168Y307311D01*
X195185Y307372D01*
X195207Y307444D01*
X195229Y307522D01*
X195251Y307605D01*
X195279Y307699D01*
X195312Y307799D01*
X195346Y307905D01*
X195379Y308016D01*
X195418Y308132D01*
X195462Y308254D01*
X195557Y308510D01*
X195662Y308782D01*
X195779Y309070D01*
X195912Y309370D01*
X196056Y309669D01*
X196212Y309980D01*
X196384Y310291D01*
X196572Y310602D01*
X194597D01*
Y311129D01*
X197177D01*
Y310669D01*
D02*
G37*
G36*
X194175D02*
X194169Y310663D01*
X194164Y310646D01*
X194147Y310624D01*
X194125Y310591D01*
X194103Y310546D01*
X194075Y310496D01*
X194036Y310435D01*
X193997Y310369D01*
X193958Y310291D01*
X193914Y310208D01*
X193864Y310119D01*
X193814Y310019D01*
X193758Y309914D01*
X193703Y309808D01*
X193647Y309692D01*
X193586Y309570D01*
X193470Y309309D01*
X193348Y309037D01*
X193226Y308743D01*
X193109Y308437D01*
X192998Y308121D01*
X192898Y307799D01*
X192809Y307466D01*
X192737Y307133D01*
X192121D01*
Y307139D01*
X192127Y307155D01*
X192132Y307178D01*
X192143Y307216D01*
X192154Y307261D01*
X192166Y307311D01*
X192182Y307372D01*
X192204Y307444D01*
X192227Y307522D01*
X192249Y307605D01*
X192277Y307699D01*
X192310Y307799D01*
X192343Y307905D01*
X192376Y308016D01*
X192415Y308132D01*
X192460Y308254D01*
X192554Y308510D01*
X192659Y308782D01*
X192776Y309070D01*
X192909Y309370D01*
X193053Y309669D01*
X193209Y309980D01*
X193381Y310291D01*
X193570Y310602D01*
X191594D01*
Y311129D01*
X194175D01*
Y310669D01*
D02*
G37*
G36*
X211008Y311151D02*
X211058Y311146D01*
X211119Y311140D01*
X211180Y311129D01*
X211252Y311113D01*
X211402Y311074D01*
X211485Y311046D01*
X211563Y311013D01*
X211641Y310974D01*
X211713Y310929D01*
X211785Y310879D01*
X211851Y310818D01*
X211857Y310813D01*
X211868Y310802D01*
X211885Y310785D01*
X211907Y310757D01*
X211929Y310724D01*
X211957Y310680D01*
X211990Y310635D01*
X212023Y310580D01*
X212051Y310513D01*
X212085Y310447D01*
X212112Y310369D01*
X212140Y310291D01*
X212157Y310202D01*
X212173Y310108D01*
X212184Y310008D01*
X212190Y309903D01*
Y309897D01*
Y309875D01*
Y309847D01*
X212184Y309808D01*
X212179Y309758D01*
X212173Y309703D01*
X212162Y309642D01*
X212146Y309575D01*
X212107Y309425D01*
X212079Y309353D01*
X212046Y309276D01*
X212007Y309198D01*
X211957Y309126D01*
X211907Y309053D01*
X211846Y308987D01*
X211840Y308981D01*
X211829Y308970D01*
X211813Y308954D01*
X211785Y308937D01*
X211752Y308909D01*
X211707Y308881D01*
X211657Y308848D01*
X211602Y308820D01*
X211541Y308787D01*
X211468Y308754D01*
X211391Y308726D01*
X211308Y308704D01*
X211219Y308682D01*
X211119Y308665D01*
X211019Y308654D01*
X210908Y308648D01*
X210303D01*
Y307111D01*
X209654D01*
Y311157D01*
X210963D01*
X211008Y311151D01*
D02*
G37*
G36*
X209165Y310602D02*
X207278D01*
Y309431D01*
X208705D01*
Y308881D01*
X207278D01*
Y307111D01*
X206629D01*
Y311157D01*
X209165D01*
Y310602D01*
D02*
G37*
G36*
X186904Y311196D02*
X186949D01*
X186998Y311185D01*
X187059Y311174D01*
X187126Y311162D01*
X187198Y311140D01*
X187276Y311118D01*
X187359Y311085D01*
X187437Y311046D01*
X187520Y310996D01*
X187598Y310941D01*
X187676Y310879D01*
X187753Y310802D01*
X187820Y310718D01*
X187826Y310713D01*
X187837Y310696D01*
X187853Y310669D01*
X187875Y310630D01*
X187903Y310574D01*
X187931Y310508D01*
X187964Y310435D01*
X187997Y310341D01*
X188025Y310241D01*
X188058Y310125D01*
X188086Y309997D01*
X188114Y309853D01*
X188136Y309697D01*
X188153Y309531D01*
X188164Y309348D01*
X188170Y309148D01*
Y309142D01*
Y309137D01*
Y309120D01*
Y309098D01*
Y309042D01*
X188164Y308970D01*
X188158Y308876D01*
X188153Y308776D01*
X188142Y308660D01*
X188125Y308537D01*
X188109Y308410D01*
X188086Y308277D01*
X188058Y308143D01*
X188020Y308010D01*
X187981Y307888D01*
X187936Y307766D01*
X187881Y307655D01*
X187820Y307555D01*
X187814Y307549D01*
X187803Y307533D01*
X187781Y307511D01*
X187753Y307477D01*
X187720Y307444D01*
X187676Y307400D01*
X187626Y307355D01*
X187565Y307311D01*
X187504Y307266D01*
X187426Y307222D01*
X187348Y307178D01*
X187259Y307144D01*
X187165Y307111D01*
X187065Y307089D01*
X186960Y307072D01*
X186843Y307067D01*
X186815D01*
X186782Y307072D01*
X186738D01*
X186688Y307083D01*
X186627Y307094D01*
X186560Y307105D01*
X186482Y307128D01*
X186405Y307155D01*
X186327Y307189D01*
X186244Y307228D01*
X186160Y307272D01*
X186083Y307327D01*
X186000Y307394D01*
X185927Y307472D01*
X185855Y307555D01*
X185850Y307561D01*
X185839Y307577D01*
X185822Y307611D01*
X185800Y307649D01*
X185772Y307705D01*
X185739Y307771D01*
X185711Y307849D01*
X185678Y307938D01*
X185639Y308043D01*
X185611Y308160D01*
X185578Y308293D01*
X185550Y308437D01*
X185528Y308593D01*
X185511Y308765D01*
X185500Y308948D01*
X185494Y309148D01*
Y309153D01*
Y309159D01*
Y309176D01*
Y309198D01*
Y309253D01*
X185500Y309326D01*
X185505Y309420D01*
X185511Y309520D01*
X185522Y309636D01*
X185539Y309758D01*
X185561Y309886D01*
X185583Y310014D01*
X185611Y310147D01*
X185644Y310275D01*
X185689Y310402D01*
X185739Y310519D01*
X185794Y310630D01*
X185855Y310724D01*
X185861Y310730D01*
X185872Y310746D01*
X185894Y310768D01*
X185922Y310796D01*
X185961Y310835D01*
X186005Y310874D01*
X186055Y310918D01*
X186116Y310963D01*
X186183Y311007D01*
X186255Y311052D01*
X186338Y311090D01*
X186427Y311129D01*
X186521Y311157D01*
X186621Y311179D01*
X186726Y311196D01*
X186843Y311201D01*
X186871D01*
X186904Y311196D01*
D02*
G37*
G36*
X186376Y317196D02*
X186432Y317190D01*
X186487Y317179D01*
X186554Y317168D01*
X186626Y317157D01*
X186770Y317107D01*
X186848Y317079D01*
X186920Y317040D01*
X186993Y317002D01*
X187065Y316946D01*
X187126Y316891D01*
X187181Y316824D01*
X187187Y316818D01*
X187192Y316807D01*
X187209Y316785D01*
X187225Y316757D01*
X187248Y316724D01*
X187270Y316680D01*
X187298Y316630D01*
X187326Y316574D01*
X187348Y316513D01*
X187375Y316452D01*
X187420Y316302D01*
X187453Y316136D01*
X187459Y316047D01*
X187464Y315958D01*
X186815D01*
Y315964D01*
Y315969D01*
Y315986D01*
Y316008D01*
Y316064D01*
X186809Y316130D01*
X186793Y316202D01*
X186770Y316286D01*
X186737Y316363D01*
X186687Y316435D01*
X186682Y316441D01*
X186659Y316463D01*
X186626Y316496D01*
X186582Y316530D01*
X186526Y316563D01*
X186454Y316596D01*
X186371Y316619D01*
X186276Y316624D01*
X186238D01*
X186188Y316619D01*
X186132Y316607D01*
X186071Y316591D01*
X186004Y316569D01*
X185943Y316535D01*
X185882Y316491D01*
X185877Y316485D01*
X185860Y316469D01*
X185838Y316441D01*
X185810Y316397D01*
X185783Y316347D01*
X185760Y316286D01*
X185744Y316219D01*
X185738Y316136D01*
Y316130D01*
Y316102D01*
X185744Y316069D01*
X185755Y316025D01*
X185766Y315975D01*
X185788Y315919D01*
X185816Y315864D01*
X185855Y315808D01*
X185860Y315803D01*
X185882Y315786D01*
X185921Y315753D01*
X185949Y315736D01*
X185982Y315714D01*
X186021Y315692D01*
X186066Y315664D01*
X186116Y315636D01*
X186177Y315609D01*
X186249Y315575D01*
X186321Y315542D01*
X186410Y315503D01*
X186504Y315464D01*
X186510D01*
X186526Y315453D01*
X186554Y315442D01*
X186587Y315431D01*
X186626Y315409D01*
X186676Y315387D01*
X186787Y315325D01*
X186915Y315253D01*
X187042Y315170D01*
X187170Y315070D01*
X187287Y314965D01*
X187292Y314959D01*
X187298Y314954D01*
X187314Y314937D01*
X187331Y314915D01*
X187353Y314881D01*
X187375Y314848D01*
X187431Y314765D01*
X187486Y314665D01*
X187531Y314548D01*
X187564Y314415D01*
X187570Y314349D01*
X187575Y314277D01*
Y314271D01*
Y314254D01*
Y314221D01*
X187570Y314182D01*
X187564Y314138D01*
X187558Y314082D01*
X187548Y314021D01*
X187531Y313960D01*
X187492Y313816D01*
X187464Y313744D01*
X187425Y313671D01*
X187387Y313599D01*
X187342Y313527D01*
X187287Y313461D01*
X187225Y313394D01*
X187220Y313388D01*
X187209Y313377D01*
X187192Y313366D01*
X187164Y313344D01*
X187126Y313316D01*
X187081Y313289D01*
X187031Y313261D01*
X186976Y313233D01*
X186909Y313200D01*
X186843Y313172D01*
X186765Y313144D01*
X186676Y313117D01*
X186587Y313094D01*
X186487Y313083D01*
X186388Y313072D01*
X186276Y313067D01*
X186221D01*
X186177Y313072D01*
X186127Y313078D01*
X186071Y313083D01*
X186004Y313094D01*
X185932Y313111D01*
X185783Y313150D01*
X185705Y313178D01*
X185627Y313211D01*
X185549Y313250D01*
X185477Y313294D01*
X185405Y313344D01*
X185339Y313405D01*
X185333Y313411D01*
X185322Y313422D01*
X185305Y313439D01*
X185289Y313466D01*
X185261Y313499D01*
X185233Y313538D01*
X185200Y313588D01*
X185172Y313638D01*
X185139Y313699D01*
X185105Y313760D01*
X185055Y313905D01*
X185033Y313988D01*
X185017Y314071D01*
X185005Y314160D01*
X185000Y314254D01*
Y314471D01*
X185649D01*
Y314277D01*
Y314271D01*
Y314260D01*
Y314243D01*
X185655Y314227D01*
X185660Y314165D01*
X185672Y314093D01*
X185694Y314016D01*
X185727Y313932D01*
X185777Y313855D01*
X185838Y313788D01*
X185849Y313783D01*
X185871Y313760D01*
X185910Y313738D01*
X185966Y313705D01*
X186027Y313677D01*
X186104Y313649D01*
X186188Y313627D01*
X186276Y313622D01*
X186310D01*
X186332Y313627D01*
X186393Y313633D01*
X186465Y313644D01*
X186548Y313666D01*
X186626Y313694D01*
X186704Y313738D01*
X186770Y313794D01*
X186776Y313799D01*
X186793Y313827D01*
X186820Y313866D01*
X186848Y313916D01*
X186876Y313977D01*
X186904Y314049D01*
X186920Y314132D01*
X186926Y314227D01*
Y314238D01*
X186920Y314260D01*
X186915Y314299D01*
X186904Y314354D01*
X186876Y314410D01*
X186843Y314476D01*
X186798Y314548D01*
X186732Y314615D01*
X186721Y314626D01*
X186698Y314648D01*
X186648Y314682D01*
X186587Y314726D01*
X186504Y314782D01*
X186404Y314837D01*
X186282Y314898D01*
X186143Y314959D01*
X186138D01*
X186121Y314970D01*
X186093Y314981D01*
X186055Y314998D01*
X186010Y315015D01*
X185960Y315037D01*
X185838Y315098D01*
X185710Y315164D01*
X185577Y315248D01*
X185450Y315336D01*
X185394Y315381D01*
X185344Y315431D01*
Y315437D01*
X185333Y315442D01*
X185322Y315459D01*
X185305Y315481D01*
X185261Y315536D01*
X185216Y315609D01*
X185172Y315703D01*
X185128Y315808D01*
X185100Y315930D01*
X185094Y315997D01*
X185089Y316064D01*
Y316069D01*
Y316086D01*
Y316113D01*
X185094Y316147D01*
X185100Y316191D01*
X185105Y316241D01*
X185117Y316297D01*
X185133Y316358D01*
X185172Y316485D01*
X185205Y316552D01*
X185239Y316624D01*
X185277Y316691D01*
X185322Y316757D01*
X185377Y316824D01*
X185438Y316885D01*
X185444Y316891D01*
X185455Y316896D01*
X185477Y316913D01*
X185500Y316935D01*
X185538Y316957D01*
X185577Y316985D01*
X185622Y317013D01*
X185677Y317046D01*
X185733Y317074D01*
X185799Y317102D01*
X185943Y317151D01*
X186021Y317174D01*
X186104Y317190D01*
X186188Y317196D01*
X186276Y317201D01*
X186338D01*
X186376Y317196D01*
D02*
G37*
G36*
X202544Y313111D02*
X201894D01*
Y314948D01*
X200707D01*
Y313111D01*
X200057D01*
Y317157D01*
X200707D01*
Y315503D01*
X201894D01*
Y317157D01*
X202544D01*
Y313111D01*
D02*
G37*
G36*
X193608D02*
X193025D01*
Y315602D01*
X192537Y313111D01*
X192071D01*
X191582Y315602D01*
Y313111D01*
X191005D01*
Y317157D01*
X191826D01*
X192304Y314702D01*
X192781Y317157D01*
X193608D01*
Y313111D01*
D02*
G37*
G36*
X213577Y313067D02*
X213022D01*
X211862Y317157D01*
X212522D01*
X213297Y314243D01*
X214076Y317157D01*
X214737D01*
X213577Y313067D01*
D02*
G37*
G36*
X210547Y317196D02*
X210680Y317174D01*
X210807Y317140D01*
X210935Y317090D01*
X210941D01*
X210952Y317085D01*
X210968Y317074D01*
X210991Y317063D01*
X211046Y317024D01*
X211118Y316968D01*
X211191Y316902D01*
X211268Y316818D01*
X211340Y316719D01*
X211396Y316602D01*
Y316596D01*
X211401Y316585D01*
X211407Y316569D01*
X211418Y316547D01*
X211423Y316513D01*
X211435Y316480D01*
X211451Y316391D01*
X211462Y316286D01*
X211468Y316163D01*
X211457Y316030D01*
X211429Y315886D01*
Y315880D01*
X211423Y315869D01*
X211418Y315847D01*
X211407Y315819D01*
X211396Y315792D01*
X211379Y315753D01*
X211329Y315664D01*
X211296Y315614D01*
X211263Y315564D01*
X211218Y315514D01*
X211168Y315464D01*
X211113Y315409D01*
X211052Y315364D01*
X210985Y315314D01*
X210907Y315270D01*
X210913D01*
X210918Y315264D01*
X210935Y315259D01*
X210957Y315248D01*
X211013Y315220D01*
X211085Y315181D01*
X211157Y315126D01*
X211240Y315059D01*
X211318Y314970D01*
X211390Y314870D01*
Y314865D01*
X211396Y314859D01*
X211407Y314843D01*
X211418Y314820D01*
X211429Y314787D01*
X211446Y314754D01*
X211462Y314715D01*
X211473Y314665D01*
X211501Y314560D01*
X211518Y314426D01*
X211524Y314277D01*
Y314199D01*
X211512Y314110D01*
Y314104D01*
X211507Y314088D01*
Y314066D01*
X211496Y314032D01*
X211490Y313993D01*
X211473Y313949D01*
X211440Y313844D01*
X211385Y313721D01*
X211351Y313660D01*
X211313Y313594D01*
X211268Y313533D01*
X211213Y313472D01*
X211157Y313411D01*
X211090Y313355D01*
X211085Y313350D01*
X211074Y313344D01*
X211052Y313327D01*
X211030Y313311D01*
X210991Y313289D01*
X210952Y313266D01*
X210907Y313239D01*
X210852Y313211D01*
X210730Y313161D01*
X210591Y313117D01*
X210436Y313089D01*
X210352Y313078D01*
X210247D01*
X210225Y313083D01*
X210191D01*
X210153Y313089D01*
X210108Y313094D01*
X210058Y313106D01*
X209997Y313117D01*
X209875Y313155D01*
X209742Y313205D01*
X209609Y313272D01*
X209542Y313316D01*
X209475Y313366D01*
X209470Y313372D01*
X209459Y313377D01*
X209442Y313394D01*
X209420Y313416D01*
X209392Y313450D01*
X209365Y313483D01*
X209331Y313527D01*
X209292Y313577D01*
X209259Y313633D01*
X209220Y313699D01*
X209187Y313772D01*
X209148Y313849D01*
X209120Y313932D01*
X209087Y314021D01*
X209065Y314121D01*
X209043Y314227D01*
X209559Y314315D01*
Y314310D01*
X209564Y314299D01*
X209570Y314282D01*
X209581Y314260D01*
X209603Y314199D01*
X209636Y314127D01*
X209675Y314043D01*
X209725Y313960D01*
X209786Y313877D01*
X209853Y313805D01*
X209864Y313799D01*
X209886Y313777D01*
X209931Y313749D01*
X209986Y313716D01*
X210053Y313683D01*
X210136Y313655D01*
X210225Y313638D01*
X210325Y313633D01*
X210336D01*
X210369Y313638D01*
X210424Y313644D01*
X210486Y313666D01*
X210558Y313688D01*
X210635Y313733D01*
X210708Y313788D01*
X210774Y313860D01*
X210780Y313871D01*
X210802Y313899D01*
X210830Y313944D01*
X210858Y314005D01*
X210885Y314082D01*
X210913Y314165D01*
X210924Y314260D01*
Y314365D01*
Y314371D01*
Y314376D01*
X210918Y314415D01*
X210907Y314465D01*
X210891Y314532D01*
X210863Y314604D01*
X210819Y314676D01*
X210769Y314748D01*
X210702Y314815D01*
X210691Y314820D01*
X210663Y314843D01*
X210641Y314854D01*
X210613Y314870D01*
X210580Y314887D01*
X210536Y314904D01*
X210491Y314926D01*
X210436Y314943D01*
X210380Y314965D01*
X210314Y314981D01*
X210241Y314998D01*
X210164Y315015D01*
X210075Y315031D01*
X209981Y315048D01*
Y315448D01*
X210003D01*
X210031Y315453D01*
X210064Y315459D01*
X210108Y315464D01*
X210153Y315475D01*
X210264Y315497D01*
X210380Y315525D01*
X210502Y315570D01*
X210608Y315620D01*
X210658Y315653D01*
X210697Y315686D01*
X210708Y315697D01*
X210730Y315720D01*
X210763Y315764D01*
X210796Y315819D01*
X210830Y315892D01*
X210863Y315975D01*
X210880Y316075D01*
Y316180D01*
Y316186D01*
Y316191D01*
X210874Y316208D01*
Y316230D01*
X210858Y316286D01*
X210835Y316352D01*
X210802Y316424D01*
X210757Y316496D01*
X210691Y316563D01*
X210608Y316624D01*
X210597Y316630D01*
X210563Y316646D01*
X210513Y316663D01*
X210452Y316680D01*
X210369Y316691D01*
X210280Y316696D01*
X210180Y316685D01*
X210130Y316669D01*
X210075Y316652D01*
X210069D01*
X210064Y316646D01*
X210031Y316630D01*
X209975Y316591D01*
X209942Y316563D01*
X209908Y316530D01*
X209875Y316491D01*
X209836Y316446D01*
X209797Y316397D01*
X209759Y316336D01*
X209720Y316263D01*
X209675Y316186D01*
X209642Y316097D01*
X209603Y316003D01*
X209087Y316086D01*
Y316091D01*
X209092Y316108D01*
X209104Y316130D01*
X209115Y316169D01*
X209126Y316208D01*
X209148Y316258D01*
X209192Y316369D01*
X209248Y316491D01*
X209315Y316619D01*
X209392Y316746D01*
X209481Y316863D01*
X209487Y316868D01*
X209492Y316874D01*
X209509Y316891D01*
X209525Y316907D01*
X209587Y316957D01*
X209664Y317013D01*
X209764Y317074D01*
X209881Y317129D01*
X210014Y317174D01*
X210092Y317190D01*
X210169Y317201D01*
X210191D01*
X210214Y317207D01*
X210430D01*
X210547Y317196D01*
D02*
G37*
G36*
X195534D02*
X195667Y317174D01*
X195795Y317140D01*
X195922Y317090D01*
X195928D01*
X195939Y317085D01*
X195956Y317074D01*
X195978Y317063D01*
X196033Y317024D01*
X196106Y316968D01*
X196178Y316902D01*
X196255Y316818D01*
X196327Y316719D01*
X196383Y316602D01*
Y316596D01*
X196389Y316585D01*
X196394Y316569D01*
X196405Y316547D01*
X196411Y316513D01*
X196422Y316480D01*
X196439Y316391D01*
X196450Y316286D01*
X196455Y316163D01*
X196444Y316030D01*
X196416Y315886D01*
Y315880D01*
X196411Y315869D01*
X196405Y315847D01*
X196394Y315819D01*
X196383Y315792D01*
X196366Y315753D01*
X196317Y315664D01*
X196283Y315614D01*
X196250Y315564D01*
X196205Y315514D01*
X196156Y315464D01*
X196100Y315409D01*
X196039Y315364D01*
X195972Y315314D01*
X195895Y315270D01*
X195900D01*
X195906Y315264D01*
X195922Y315259D01*
X195945Y315248D01*
X196000Y315220D01*
X196072Y315181D01*
X196144Y315126D01*
X196228Y315059D01*
X196305Y314970D01*
X196378Y314870D01*
Y314865D01*
X196383Y314859D01*
X196394Y314843D01*
X196405Y314820D01*
X196416Y314787D01*
X196433Y314754D01*
X196450Y314715D01*
X196461Y314665D01*
X196488Y314560D01*
X196505Y314426D01*
X196511Y314277D01*
Y314199D01*
X196500Y314110D01*
Y314104D01*
X196494Y314088D01*
Y314066D01*
X196483Y314032D01*
X196477Y313993D01*
X196461Y313949D01*
X196427Y313844D01*
X196372Y313721D01*
X196339Y313660D01*
X196300Y313594D01*
X196255Y313533D01*
X196200Y313472D01*
X196144Y313411D01*
X196078Y313355D01*
X196072Y313350D01*
X196061Y313344D01*
X196039Y313327D01*
X196017Y313311D01*
X195978Y313289D01*
X195939Y313266D01*
X195895Y313239D01*
X195839Y313211D01*
X195717Y313161D01*
X195578Y313117D01*
X195423Y313089D01*
X195340Y313078D01*
X195234D01*
X195212Y313083D01*
X195179D01*
X195140Y313089D01*
X195096Y313094D01*
X195045Y313106D01*
X194984Y313117D01*
X194862Y313155D01*
X194729Y313205D01*
X194596Y313272D01*
X194529Y313316D01*
X194463Y313366D01*
X194457Y313372D01*
X194446Y313377D01*
X194429Y313394D01*
X194407Y313416D01*
X194379Y313450D01*
X194352Y313483D01*
X194318Y313527D01*
X194280Y313577D01*
X194246Y313633D01*
X194207Y313699D01*
X194174Y313772D01*
X194135Y313849D01*
X194107Y313932D01*
X194074Y314021D01*
X194052Y314121D01*
X194030Y314227D01*
X194546Y314315D01*
Y314310D01*
X194552Y314299D01*
X194557Y314282D01*
X194568Y314260D01*
X194590Y314199D01*
X194624Y314127D01*
X194663Y314043D01*
X194712Y313960D01*
X194774Y313877D01*
X194840Y313805D01*
X194851Y313799D01*
X194873Y313777D01*
X194918Y313749D01*
X194973Y313716D01*
X195040Y313683D01*
X195123Y313655D01*
X195212Y313638D01*
X195312Y313633D01*
X195323D01*
X195356Y313638D01*
X195412Y313644D01*
X195473Y313666D01*
X195545Y313688D01*
X195623Y313733D01*
X195695Y313788D01*
X195761Y313860D01*
X195767Y313871D01*
X195789Y313899D01*
X195817Y313944D01*
X195845Y314005D01*
X195872Y314082D01*
X195900Y314165D01*
X195911Y314260D01*
Y314365D01*
Y314371D01*
Y314376D01*
X195906Y314415D01*
X195895Y314465D01*
X195878Y314532D01*
X195850Y314604D01*
X195806Y314676D01*
X195756Y314748D01*
X195689Y314815D01*
X195678Y314820D01*
X195650Y314843D01*
X195628Y314854D01*
X195600Y314870D01*
X195567Y314887D01*
X195523Y314904D01*
X195478Y314926D01*
X195423Y314943D01*
X195367Y314965D01*
X195301Y314981D01*
X195229Y314998D01*
X195151Y315015D01*
X195062Y315031D01*
X194968Y315048D01*
Y315448D01*
X194990D01*
X195018Y315453D01*
X195051Y315459D01*
X195096Y315464D01*
X195140Y315475D01*
X195251Y315497D01*
X195367Y315525D01*
X195490Y315570D01*
X195595Y315620D01*
X195645Y315653D01*
X195684Y315686D01*
X195695Y315697D01*
X195717Y315720D01*
X195750Y315764D01*
X195784Y315819D01*
X195817Y315892D01*
X195850Y315975D01*
X195867Y316075D01*
Y316180D01*
Y316186D01*
Y316191D01*
X195861Y316208D01*
Y316230D01*
X195845Y316286D01*
X195823Y316352D01*
X195789Y316424D01*
X195745Y316496D01*
X195678Y316563D01*
X195595Y316624D01*
X195584Y316630D01*
X195551Y316646D01*
X195501Y316663D01*
X195440Y316680D01*
X195356Y316691D01*
X195267Y316696D01*
X195168Y316685D01*
X195118Y316669D01*
X195062Y316652D01*
X195057D01*
X195051Y316646D01*
X195018Y316630D01*
X194962Y316591D01*
X194929Y316563D01*
X194896Y316530D01*
X194862Y316491D01*
X194824Y316446D01*
X194785Y316397D01*
X194746Y316336D01*
X194707Y316263D01*
X194663Y316186D01*
X194629Y316097D01*
X194590Y316003D01*
X194074Y316086D01*
Y316091D01*
X194080Y316108D01*
X194091Y316130D01*
X194102Y316169D01*
X194113Y316208D01*
X194135Y316258D01*
X194180Y316369D01*
X194235Y316491D01*
X194302Y316619D01*
X194379Y316746D01*
X194468Y316863D01*
X194474Y316868D01*
X194479Y316874D01*
X194496Y316891D01*
X194513Y316907D01*
X194574Y316957D01*
X194651Y317013D01*
X194751Y317074D01*
X194868Y317129D01*
X195001Y317174D01*
X195079Y317190D01*
X195157Y317201D01*
X195179D01*
X195201Y317207D01*
X195417D01*
X195534Y317196D01*
D02*
G37*
G36*
X208205Y314515D02*
X208754D01*
Y314010D01*
X208205D01*
Y313133D01*
X207644D01*
Y314010D01*
X205879D01*
Y314476D01*
X207766Y317201D01*
X208205D01*
Y314515D01*
D02*
G37*
G36*
X205641Y316669D02*
X205635Y316663D01*
X205629Y316646D01*
X205613Y316624D01*
X205591Y316591D01*
X205568Y316547D01*
X205540Y316496D01*
X205502Y316435D01*
X205463Y316369D01*
X205424Y316291D01*
X205380Y316208D01*
X205330Y316119D01*
X205280Y316019D01*
X205224Y315914D01*
X205169Y315808D01*
X205113Y315692D01*
X205052Y315570D01*
X204936Y315309D01*
X204814Y315037D01*
X204691Y314743D01*
X204575Y314437D01*
X204464Y314121D01*
X204364Y313799D01*
X204275Y313466D01*
X204203Y313133D01*
X203587D01*
Y313139D01*
X203592Y313155D01*
X203598Y313178D01*
X203609Y313216D01*
X203620Y313261D01*
X203631Y313311D01*
X203648Y313372D01*
X203670Y313444D01*
X203692Y313522D01*
X203715Y313605D01*
X203742Y313699D01*
X203776Y313799D01*
X203809Y313905D01*
X203842Y314016D01*
X203881Y314132D01*
X203925Y314254D01*
X204020Y314510D01*
X204125Y314782D01*
X204242Y315070D01*
X204375Y315370D01*
X204519Y315669D01*
X204675Y315980D01*
X204847Y316291D01*
X205035Y316602D01*
X203060D01*
Y317129D01*
X205641D01*
Y316669D01*
D02*
G37*
G36*
X198470Y317224D02*
X198548Y317218D01*
X198620Y317207D01*
X198631D01*
X198653Y317201D01*
X198692Y317190D01*
X198742Y317174D01*
X198803Y317151D01*
X198870Y317124D01*
X198942Y317085D01*
X199019Y317040D01*
X199030Y317035D01*
X199053Y317018D01*
X199091Y316985D01*
X199141Y316940D01*
X199197Y316885D01*
X199252Y316818D01*
X199308Y316735D01*
X199363Y316641D01*
Y316635D01*
X199369Y316630D01*
X199374Y316613D01*
X199386Y316591D01*
X199402Y316535D01*
X199425Y316463D01*
X199447Y316369D01*
X199458Y316258D01*
X199463Y316136D01*
X199458Y316003D01*
Y315997D01*
Y315986D01*
X199452Y315964D01*
X199447Y315936D01*
X199441Y315903D01*
X199430Y315858D01*
X199419Y315808D01*
X199402Y315753D01*
X199380Y315692D01*
X199358Y315625D01*
X199291Y315475D01*
X199252Y315392D01*
X199208Y315309D01*
X199153Y315220D01*
X199097Y315126D01*
X199091Y315120D01*
X199080Y315104D01*
X199064Y315076D01*
X199030Y315031D01*
X198992Y314981D01*
X198947Y314915D01*
X198886Y314843D01*
X198819Y314754D01*
X198742Y314660D01*
X198653Y314548D01*
X198553Y314432D01*
X198437Y314299D01*
X198314Y314160D01*
X198176Y314005D01*
X198026Y313838D01*
X197865Y313666D01*
X199519D01*
Y313133D01*
X197077D01*
Y313294D01*
Y313300D01*
Y313311D01*
X197082Y313327D01*
X197088Y313355D01*
X197093Y313388D01*
X197099Y313422D01*
X197127Y313511D01*
X197171Y313611D01*
X197227Y313716D01*
X197266Y313772D01*
X197304Y313827D01*
X197349Y313882D01*
X197404Y313938D01*
X197410Y313944D01*
X197421Y313949D01*
X197438Y313966D01*
X197460Y313993D01*
X197487Y314021D01*
X197526Y314060D01*
X197565Y314099D01*
X197615Y314154D01*
X197665Y314210D01*
X197726Y314271D01*
X197787Y314343D01*
X197854Y314421D01*
X197926Y314504D01*
X198004Y314598D01*
X198081Y314693D01*
X198165Y314798D01*
X198170Y314804D01*
X198187Y314826D01*
X198209Y314854D01*
X198237Y314893D01*
X198276Y314943D01*
X198320Y314998D01*
X198364Y315059D01*
X198414Y315131D01*
X198514Y315270D01*
X198609Y315420D01*
X198697Y315564D01*
X198731Y315631D01*
X198758Y315692D01*
Y315697D01*
X198764Y315708D01*
X198770Y315720D01*
X198781Y315742D01*
X198797Y315803D01*
X198819Y315875D01*
X198842Y315958D01*
X198858Y316041D01*
X198864Y316130D01*
X198858Y316213D01*
Y316225D01*
X198853Y316247D01*
X198842Y316286D01*
X198819Y316336D01*
X198797Y316391D01*
X198758Y316446D01*
X198714Y316502D01*
X198659Y316558D01*
X198653Y316563D01*
X198631Y316580D01*
X198598Y316602D01*
X198553Y316624D01*
X198492Y316646D01*
X198431Y316663D01*
X198353Y316674D01*
X198265D01*
X198237Y316669D01*
X198192Y316657D01*
X198137Y316646D01*
X198076Y316624D01*
X198004Y316591D01*
X197926Y316552D01*
X197848Y316502D01*
X197837Y316496D01*
X197815Y316474D01*
X197776Y316435D01*
X197732Y316386D01*
X197682Y316313D01*
X197626Y316230D01*
X197571Y316125D01*
X197521Y316003D01*
X196988Y316086D01*
Y316091D01*
X196999Y316113D01*
X197010Y316141D01*
X197021Y316186D01*
X197044Y316236D01*
X197066Y316291D01*
X197088Y316358D01*
X197121Y316424D01*
X197188Y316563D01*
X197277Y316707D01*
X197321Y316774D01*
X197371Y316835D01*
X197421Y316896D01*
X197476Y316946D01*
X197482Y316952D01*
X197487Y316957D01*
X197504Y316968D01*
X197532Y316985D01*
X197560Y317007D01*
X197593Y317029D01*
X197676Y317074D01*
X197782Y317124D01*
X197898Y317168D01*
X198037Y317201D01*
X198181Y317224D01*
X198192D01*
X198220Y317229D01*
X198398D01*
X198470Y317224D01*
D02*
G37*
G36*
X216640Y313111D02*
X215986D01*
Y317157D01*
X216640D01*
Y313111D01*
D02*
G37*
G36*
X190533Y316602D02*
X189618D01*
Y313111D01*
X188963D01*
Y316602D01*
X188047D01*
Y317157D01*
X190533D01*
Y316602D01*
D02*
G37*
%LPC*%
G36*
X189801Y303314D02*
X189790D01*
X189762Y303309D01*
X189712Y303303D01*
X189657Y303287D01*
X189585Y303259D01*
X189518Y303220D01*
X189446Y303165D01*
X189374Y303092D01*
X189368Y303081D01*
X189346Y303053D01*
X189318Y303004D01*
X189285Y302931D01*
X189252Y302843D01*
X189224Y302732D01*
X189202Y302604D01*
X189196Y302460D01*
Y302454D01*
Y302443D01*
Y302421D01*
X189202Y302393D01*
Y302354D01*
X189207Y302315D01*
X189218Y302221D01*
X189241Y302116D01*
X189274Y302005D01*
X189313Y301899D01*
X189374Y301805D01*
X189385Y301794D01*
X189407Y301766D01*
X189446Y301733D01*
X189496Y301688D01*
X189557Y301644D01*
X189629Y301610D01*
X189712Y301583D01*
X189801Y301572D01*
X189829D01*
X189851Y301577D01*
X189907Y301583D01*
X189979Y301599D01*
X190051Y301627D01*
X190129Y301672D01*
X190201Y301727D01*
X190268Y301805D01*
X190273Y301816D01*
X190295Y301849D01*
X190317Y301899D01*
X190351Y301977D01*
X190378Y302066D01*
X190406Y302182D01*
X190423Y302310D01*
X190428Y302460D01*
Y302465D01*
Y302476D01*
Y302499D01*
Y302526D01*
X190423Y302565D01*
Y302604D01*
X190406Y302693D01*
X190390Y302798D01*
X190362Y302904D01*
X190323Y303004D01*
X190268Y303092D01*
X190262Y303103D01*
X190240Y303126D01*
X190201Y303165D01*
X190151Y303203D01*
X190084Y303242D01*
X190007Y303281D01*
X189912Y303303D01*
X189801Y303314D01*
D02*
G37*
G36*
X205186Y304214D02*
X204026Y302515D01*
X205186D01*
Y304214D01*
D02*
G37*
G36*
X192848Y303337D02*
X192815D01*
X192771Y303331D01*
X192721Y303320D01*
X192665Y303309D01*
X192598Y303287D01*
X192537Y303259D01*
X192471Y303220D01*
X192465Y303214D01*
X192443Y303198D01*
X192415Y303176D01*
X192376Y303137D01*
X192338Y303087D01*
X192293Y303031D01*
X192254Y302959D01*
X192221Y302881D01*
X193409D01*
Y302892D01*
X193398Y302920D01*
X193387Y302959D01*
X193370Y303015D01*
X193342Y303070D01*
X193309Y303126D01*
X193270Y303181D01*
X193220Y303226D01*
X193214Y303231D01*
X193192Y303242D01*
X193165Y303259D01*
X193120Y303281D01*
X193070Y303303D01*
X193004Y303320D01*
X192931Y303331D01*
X192848Y303337D01*
D02*
G37*
G36*
X186843Y304646D02*
X186832D01*
X186799Y304641D01*
X186749Y304630D01*
X186682Y304613D01*
X186610Y304580D01*
X186532Y304530D01*
X186494Y304497D01*
X186449Y304463D01*
X186410Y304419D01*
X186371Y304369D01*
Y304363D01*
X186360Y304358D01*
X186355Y304336D01*
X186338Y304313D01*
X186327Y304275D01*
X186310Y304230D01*
X186288Y304175D01*
X186272Y304114D01*
X186255Y304036D01*
X186233Y303947D01*
X186216Y303847D01*
X186205Y303736D01*
X186188Y303608D01*
X186183Y303470D01*
X186172Y303320D01*
Y303148D01*
Y303137D01*
Y303109D01*
Y303059D01*
X186177Y302998D01*
Y302920D01*
X186183Y302832D01*
X186188Y302737D01*
X186199Y302637D01*
X186222Y302426D01*
X186238Y302326D01*
X186255Y302226D01*
X186277Y302132D01*
X186305Y302049D01*
X186338Y301971D01*
X186371Y301910D01*
Y301905D01*
X186382Y301899D01*
X186410Y301866D01*
X186449Y301821D01*
X186510Y301766D01*
X186577Y301710D01*
X186660Y301666D01*
X186749Y301633D01*
X186793Y301627D01*
X186843Y301622D01*
X186854D01*
X186888Y301627D01*
X186937Y301638D01*
X186998Y301660D01*
X187071Y301694D01*
X187148Y301744D01*
X187187Y301777D01*
X187226Y301816D01*
X187265Y301860D01*
X187298Y301910D01*
Y301916D01*
X187309Y301927D01*
X187315Y301943D01*
X187331Y301971D01*
X187343Y302005D01*
X187359Y302055D01*
X187376Y302110D01*
X187398Y302171D01*
X187415Y302249D01*
X187431Y302338D01*
X187448Y302443D01*
X187465Y302554D01*
X187476Y302682D01*
X187487Y302820D01*
X187493Y302976D01*
Y303148D01*
Y303159D01*
Y303187D01*
Y303237D01*
X187487Y303298D01*
Y303375D01*
X187481Y303459D01*
X187476Y303553D01*
X187470Y303653D01*
X187443Y303858D01*
X187431Y303964D01*
X187409Y304064D01*
X187387Y304152D01*
X187365Y304236D01*
X187331Y304308D01*
X187298Y304369D01*
Y304374D01*
X187287Y304380D01*
X187265Y304413D01*
X187226Y304458D01*
X187171Y304508D01*
X187104Y304557D01*
X187026Y304602D01*
X186937Y304635D01*
X186893Y304641D01*
X186843Y304646D01*
D02*
G37*
G36*
X210775Y310602D02*
X210303D01*
Y309203D01*
X210836D01*
X210869Y309209D01*
X210908D01*
X210991Y309220D01*
X211086Y309237D01*
X211180Y309264D01*
X211269Y309298D01*
X211346Y309348D01*
X211352Y309353D01*
X211374Y309375D01*
X211407Y309414D01*
X211441Y309470D01*
X211474Y309547D01*
X211507Y309642D01*
X211518Y309697D01*
X211529Y309758D01*
X211535Y309830D01*
Y309903D01*
Y309908D01*
Y309919D01*
Y309942D01*
Y309969D01*
X211529Y310003D01*
X211524Y310041D01*
X211513Y310125D01*
X211491Y310213D01*
X211457Y310308D01*
X211407Y310385D01*
X211380Y310424D01*
X211346Y310452D01*
X211335Y310458D01*
X211313Y310474D01*
X211269Y310502D01*
X211208Y310530D01*
X211124Y310552D01*
X211030Y310580D01*
X210913Y310596D01*
X210775Y310602D01*
D02*
G37*
G36*
X186843Y310646D02*
X186832D01*
X186799Y310641D01*
X186749Y310630D01*
X186682Y310613D01*
X186610Y310580D01*
X186532Y310530D01*
X186494Y310496D01*
X186449Y310463D01*
X186410Y310419D01*
X186371Y310369D01*
Y310363D01*
X186360Y310358D01*
X186355Y310336D01*
X186338Y310313D01*
X186327Y310275D01*
X186310Y310230D01*
X186288Y310175D01*
X186272Y310114D01*
X186255Y310036D01*
X186233Y309947D01*
X186216Y309847D01*
X186205Y309736D01*
X186188Y309609D01*
X186183Y309470D01*
X186172Y309320D01*
Y309148D01*
Y309137D01*
Y309109D01*
Y309059D01*
X186177Y308998D01*
Y308920D01*
X186183Y308832D01*
X186188Y308737D01*
X186199Y308637D01*
X186222Y308426D01*
X186238Y308327D01*
X186255Y308226D01*
X186277Y308132D01*
X186305Y308049D01*
X186338Y307971D01*
X186371Y307910D01*
Y307905D01*
X186382Y307899D01*
X186410Y307866D01*
X186449Y307821D01*
X186510Y307766D01*
X186577Y307710D01*
X186660Y307666D01*
X186749Y307633D01*
X186793Y307627D01*
X186843Y307622D01*
X186854D01*
X186888Y307627D01*
X186937Y307638D01*
X186998Y307660D01*
X187071Y307694D01*
X187148Y307744D01*
X187187Y307777D01*
X187226Y307816D01*
X187265Y307860D01*
X187298Y307910D01*
Y307916D01*
X187309Y307927D01*
X187315Y307944D01*
X187331Y307971D01*
X187343Y308005D01*
X187359Y308054D01*
X187376Y308110D01*
X187398Y308171D01*
X187415Y308249D01*
X187431Y308338D01*
X187448Y308443D01*
X187465Y308554D01*
X187476Y308682D01*
X187487Y308820D01*
X187493Y308976D01*
Y309148D01*
Y309159D01*
Y309187D01*
Y309237D01*
X187487Y309298D01*
Y309375D01*
X187481Y309459D01*
X187476Y309553D01*
X187470Y309653D01*
X187443Y309858D01*
X187431Y309964D01*
X187409Y310064D01*
X187387Y310152D01*
X187365Y310236D01*
X187331Y310308D01*
X187298Y310369D01*
Y310374D01*
X187287Y310380D01*
X187265Y310413D01*
X187226Y310458D01*
X187171Y310508D01*
X187104Y310558D01*
X187026Y310602D01*
X186937Y310635D01*
X186893Y310641D01*
X186843Y310646D01*
D02*
G37*
G36*
X207644Y316213D02*
X206484Y314515D01*
X207644D01*
Y316213D01*
D02*
G37*
%LPD*%
D10*
X197787Y248776D02*
G03*
X197792Y248706I-487J-70D01*
G01*
X230544Y167352D02*
G03*
X236400Y167300I2959J3492D01*
G01*
X236456Y178448D02*
G03*
X230600Y178500I-2959J-3492D01*
G01*
X223044Y167352D02*
G03*
X228900Y167300I2959J3492D01*
G01*
X228956Y178448D02*
G03*
X223100Y178500I-2959J-3492D01*
G01*
X228956Y312048D02*
G03*
X223100Y312100I-2959J-3492D01*
G01*
X223044Y300952D02*
G03*
X228900Y300900I2959J3492D01*
G01*
X190148Y244044D02*
G03*
X190200Y249900I-3492J2959D01*
G01*
X179052Y249956D02*
G03*
X179000Y244100I3492J-2959D01*
G01*
X262852Y261456D02*
G03*
X262800Y255600I3492J-2959D01*
G01*
X273948Y255544D02*
G03*
X274000Y261400I-3492J2959D01*
G01*
X252048Y289044D02*
G03*
X252100Y294900I-3492J2959D01*
G01*
X240952Y294956D02*
G03*
X240900Y289100I3492J-2959D01*
G01*
X178952Y243956D02*
G03*
X178900Y238100I3492J-2959D01*
G01*
X190048Y238044D02*
G03*
X190100Y243900I-3492J2959D01*
G01*
X251052Y184456D02*
G03*
X251000Y178600I3492J-2959D01*
G01*
X262148Y178544D02*
G03*
X262200Y184400I-3492J2959D01*
G01*
X179552Y204956D02*
G03*
X179500Y199100I3492J-2959D01*
G01*
X190648Y199044D02*
G03*
X190700Y204900I-3492J2959D01*
G01*
X190048Y230044D02*
G03*
X190100Y235900I-3492J2959D01*
G01*
X178952Y235956D02*
G03*
X178900Y230100I3492J-2959D01*
G01*
X194456Y198048D02*
G03*
X188600Y198100I-2959J-3492D01*
G01*
X188544Y186952D02*
G03*
X194400Y186900I2959J3492D01*
G01*
X187456Y198048D02*
G03*
X181600Y198100I-2959J-3492D01*
G01*
X181544Y186952D02*
G03*
X187400Y186900I2959J3492D01*
G01*
X221544Y150552D02*
G03*
X227400Y150500I2959J3492D01*
G01*
X227456Y161648D02*
G03*
X221600Y161700I-2959J-3492D01*
G01*
X229044Y150452D02*
G03*
X234900Y150400I2959J3492D01*
G01*
X234956Y161548D02*
G03*
X229100Y161600I-2959J-3492D01*
G01*
X210048Y261044D02*
G03*
X210100Y266900I-3492J2959D01*
G01*
X198952Y266956D02*
G03*
X198900Y261100I3492J-2959D01*
G01*
X198952Y183956D02*
G03*
X198900Y178100I3492J-2959D01*
G01*
X210048Y178044D02*
G03*
X210100Y183900I-3492J2959D01*
G01*
X272048Y185044D02*
G03*
X272100Y190900I-3492J2959D01*
G01*
X260952Y190956D02*
G03*
X260900Y185100I3492J-2959D01*
G01*
X190448Y210044D02*
G03*
X190500Y215900I-3492J2959D01*
G01*
X179352Y215956D02*
G03*
X179300Y210100I3492J-2959D01*
G01*
X271044Y240552D02*
G03*
X276900Y240500I2959J3492D01*
G01*
X276956Y251648D02*
G03*
X271100Y251700I-2959J-3492D01*
G01*
X245300Y311693D02*
G03*
X245300Y311693I-300J0D01*
G01*
X243040Y306293D02*
G03*
X243040Y306293I-100J0D01*
G01*
X237148Y289044D02*
G03*
X237200Y294900I-3492J2959D01*
G01*
X226052Y294956D02*
G03*
X226000Y289100I3492J-2959D01*
G01*
X176445Y219500D02*
G03*
X176445Y219500I-500J0D01*
G01*
X230500Y174700D02*
Y178400D01*
X236500Y174700D02*
Y178400D01*
Y167400D02*
Y171200D01*
X230500Y167500D02*
Y171200D01*
X223000Y174700D02*
Y178400D01*
X229000Y174700D02*
Y178400D01*
Y167400D02*
Y171200D01*
X223000Y167500D02*
Y171200D01*
X229000Y301000D02*
Y304700D01*
X223000Y301000D02*
Y304700D01*
Y308200D02*
Y312000D01*
X229000Y308200D02*
Y311900D01*
X179100Y244000D02*
X182800D01*
X179100Y250000D02*
X182800D01*
X186300D02*
X190100D01*
X186300Y244000D02*
X190000D01*
X270200Y261500D02*
X273900D01*
X270200Y255500D02*
X273900D01*
X262900D02*
X266700D01*
X263000Y261500D02*
X266700D01*
X241100Y295000D02*
X244800D01*
X241000Y289000D02*
X244800D01*
X248300D02*
X252000D01*
X248300Y295000D02*
X252000D01*
X186200Y238000D02*
X189900D01*
X186200Y244000D02*
X190000D01*
X179000D02*
X182700D01*
X179000Y238000D02*
X182700D01*
X258300Y178500D02*
X262000D01*
X258300Y184500D02*
X262100D01*
X251100D02*
X254800D01*
X251100Y178500D02*
X254800D01*
X186800Y199000D02*
X190500D01*
X186800Y205000D02*
X190600D01*
X179600D02*
X183300D01*
X179600Y199000D02*
X183300D01*
X179100Y236000D02*
X182800D01*
X179000Y230000D02*
X182800D01*
X186300D02*
X190000D01*
X186300Y236000D02*
X190000D01*
X188500Y187100D02*
Y190800D01*
X194500Y187000D02*
Y190800D01*
Y194300D02*
Y198000D01*
X188500Y194300D02*
Y198000D01*
X181500Y187100D02*
Y190800D01*
X187500Y187000D02*
Y190800D01*
Y194300D02*
Y198000D01*
X181500Y194300D02*
Y198000D01*
X227500Y157800D02*
Y161500D01*
X221500Y157800D02*
Y161600D01*
Y150600D02*
Y154300D01*
X227500Y150600D02*
Y154300D01*
X235000Y157700D02*
Y161400D01*
X229000Y157700D02*
Y161500D01*
Y150500D02*
Y154200D01*
X235000Y150500D02*
Y154200D01*
X199100Y267000D02*
X202800D01*
X199000Y261000D02*
X202800D01*
X206300D02*
X210000D01*
X206300Y267000D02*
X210000D01*
X206200Y178000D02*
X209900D01*
X206200Y184000D02*
X210000D01*
X199000D02*
X202700D01*
X199000Y178000D02*
X202700D01*
X261100Y191000D02*
X264800D01*
X261000Y185000D02*
X264800D01*
X268300D02*
X272000D01*
X268300Y191000D02*
X272000D01*
X179500Y216000D02*
X183200D01*
X179400Y210000D02*
X183200D01*
X186700D02*
X190400D01*
X186700Y216000D02*
X190400D01*
X277000Y247800D02*
Y251500D01*
X271000Y247800D02*
Y251600D01*
Y240600D02*
Y244300D01*
X277000Y240600D02*
Y244300D01*
X226100Y289000D02*
X229800D01*
X226100Y295000D02*
X229800D01*
X233300D02*
X237100D01*
X233300Y289000D02*
X237000D01*
X174150Y274650D02*
X176400Y272400D01*
X176500Y157693D02*
X173301D01*
Y159292D01*
X173834Y159826D01*
X174900D01*
X175434Y159292D01*
Y157693D01*
X173301Y163024D02*
X173834Y161958D01*
X174900Y160892D01*
X175967D01*
X176500Y161425D01*
Y162491D01*
X175967Y163024D01*
X175434D01*
X174900Y162491D01*
Y160892D01*
X176500Y177193D02*
X173301D01*
Y178792D01*
X173834Y179325D01*
X174900D01*
X175434Y178792D01*
Y177193D01*
X176500Y181991D02*
X173301D01*
X174900Y180392D01*
Y182525D01*
X176500Y167193D02*
X173301D01*
Y168792D01*
X173834Y169325D01*
X174900D01*
X175434Y168792D01*
Y167193D01*
X173301Y172524D02*
Y170392D01*
X174900D01*
X174367Y171458D01*
Y171991D01*
X174900Y172524D01*
X175967D01*
X176500Y171991D01*
Y170925D01*
X175967Y170392D01*
X176500Y187193D02*
X173301D01*
Y188792D01*
X173834Y189325D01*
X174900D01*
X175434Y188792D01*
Y187193D01*
X173834Y190392D02*
X173301Y190925D01*
Y191991D01*
X173834Y192525D01*
X174367D01*
X174900Y191991D01*
Y191458D01*
Y191991D01*
X175434Y192525D01*
X175967D01*
X176500Y191991D01*
Y190925D01*
X175967Y190392D01*
X176500Y197693D02*
X173301D01*
Y199292D01*
X173834Y199826D01*
X174900D01*
X175434Y199292D01*
Y197693D01*
X176500Y203025D02*
Y200892D01*
X174367Y203025D01*
X173834D01*
X173301Y202491D01*
Y201425D01*
X173834Y200892D01*
X176500Y207693D02*
X173301D01*
Y209292D01*
X173834Y209825D01*
X174900D01*
X175434Y209292D01*
Y207693D01*
X176500Y210892D02*
Y211958D01*
Y211425D01*
X173301D01*
X173834Y210892D01*
Y145693D02*
X173301Y146226D01*
Y147292D01*
X173834Y147826D01*
X174367D01*
X174900Y147292D01*
Y146759D01*
Y147292D01*
X175434Y147826D01*
X175967D01*
X176500Y147292D01*
Y146226D01*
X175967Y145693D01*
X176500Y148892D02*
X175967D01*
Y149425D01*
X176500D01*
Y148892D01*
X173834Y151558D02*
X173301Y152091D01*
Y153157D01*
X173834Y153690D01*
X174367D01*
X174900Y153157D01*
Y152624D01*
Y153157D01*
X175434Y153690D01*
X175967D01*
X176500Y153157D01*
Y152091D01*
X175967Y151558D01*
X173301Y154757D02*
X175434D01*
X176500Y155823D01*
X175434Y156889D01*
X173301D01*
X176500Y217693D02*
X173301D01*
Y219292D01*
X173834Y219826D01*
X174900D01*
X175434Y219292D01*
Y217693D01*
X173834Y220892D02*
X173301Y221425D01*
Y222491D01*
X173834Y223025D01*
X175967D01*
X176500Y222491D01*
Y221425D01*
X175967Y220892D01*
X173834D01*
X286500Y188000D02*
X283301D01*
Y189600D01*
X283834Y190133D01*
X284900D01*
X285434Y189600D01*
Y188000D01*
X285967Y191199D02*
X286500Y191732D01*
Y192798D01*
X285967Y193332D01*
X283834D01*
X283301Y192798D01*
Y191732D01*
X283834Y191199D01*
X284367D01*
X284900Y191732D01*
Y193332D01*
X283834Y197633D02*
X283301Y197099D01*
Y196033D01*
X283834Y195500D01*
X284367D01*
X284900Y196033D01*
Y197099D01*
X285434Y197633D01*
X285967D01*
X286500Y197099D01*
Y196033D01*
X285967Y195500D01*
X283301Y198699D02*
X283834D01*
X284900Y199765D01*
X283834Y200832D01*
X283301D01*
X284900Y199765D02*
X286500D01*
Y201898D02*
X283301D01*
X286500Y204030D01*
X283301D01*
X286500Y178000D02*
X283301D01*
Y179599D01*
X283834Y180133D01*
X284900D01*
X285434Y179599D01*
Y178000D01*
X283834Y181199D02*
X283301Y181732D01*
Y182798D01*
X283834Y183332D01*
X284367D01*
X284900Y182798D01*
X285434Y183332D01*
X285967D01*
X286500Y182798D01*
Y181732D01*
X285967Y181199D01*
X285434D01*
X284900Y181732D01*
X284367Y181199D01*
X283834D01*
X284900Y181732D02*
Y182798D01*
X283301Y157000D02*
X285434D01*
X286500Y158066D01*
X285434Y159133D01*
X283301D01*
Y160199D02*
Y161265D01*
Y160732D01*
X286500D01*
Y160199D01*
Y161265D01*
Y162865D02*
X283301D01*
X286500Y164997D01*
X283301D01*
X283834Y149133D02*
X283301Y148600D01*
Y147533D01*
X283834Y147000D01*
X285967D01*
X286500Y147533D01*
Y148600D01*
X285967Y149133D01*
X284900D01*
Y148066D01*
X286500Y150199D02*
X283301D01*
X286500Y152332D01*
X283301D01*
Y153398D02*
X286500D01*
Y154997D01*
X285967Y155531D01*
X283834D01*
X283301Y154997D01*
Y153398D01*
X286500Y168500D02*
X283301D01*
Y170099D01*
X283834Y170633D01*
X284900D01*
X285434Y170099D01*
Y168500D01*
X283301Y171699D02*
Y173832D01*
X283834D01*
X285967Y171699D01*
X286500D01*
Y217000D02*
X283301D01*
Y218599D01*
X283834Y219133D01*
X284900D01*
X285434Y218599D01*
Y217000D01*
Y218066D02*
X286500Y219133D01*
X283834Y222332D02*
X283301Y221798D01*
Y220732D01*
X283834Y220199D01*
X284367D01*
X284900Y220732D01*
Y221798D01*
X285434Y222332D01*
X285967D01*
X286500Y221798D01*
Y220732D01*
X285967Y220199D01*
X283301Y223398D02*
Y225531D01*
Y224464D01*
X286500D01*
X283501Y205250D02*
X286500D01*
Y206750D01*
X286000Y207249D01*
X285500D01*
X285000Y206750D01*
Y205250D01*
Y206750D01*
X284501Y207249D01*
X284001D01*
X283501Y206750D01*
Y205250D01*
Y209749D02*
Y208749D01*
X284001Y208249D01*
X286000D01*
X286500Y208749D01*
Y209749D01*
X286000Y210248D01*
X284001D01*
X283501Y209749D01*
Y212748D02*
Y211748D01*
X284001Y211248D01*
X286000D01*
X286500Y211748D01*
Y212748D01*
X286000Y213247D01*
X284001D01*
X283501Y212748D01*
Y214247D02*
Y216246D01*
Y215247D01*
X286500D01*
D11*
X259287Y171800D02*
G03*
X259287Y171800I-394J0D01*
G01*
X203496Y254484D02*
X206646D01*
X199657Y250646D02*
X203496Y254484D01*
X199657Y247594D02*
Y250646D01*
X262748Y247594D02*
Y254484D01*
X256449D02*
X262748D01*
X256350Y191000D02*
X262748D01*
X199756D02*
Y197398D01*
Y191000D02*
X206154D01*
X262748D02*
Y197398D01*
X198700Y146900D02*
Y172900D01*
X196700Y146900D02*
Y172900D01*
X197500Y147000D02*
X200000D01*
X197500Y152000D02*
X200000D01*
X197500Y157000D02*
X200000D01*
X197500Y162000D02*
X200000D01*
X197500Y167000D02*
X200000D01*
X197500Y172000D02*
X200000D01*
X196700Y146900D02*
X198700D01*
X186700D02*
X196700D01*
Y172900D02*
X198700D01*
X186700D02*
X198700D01*
X180700Y162900D02*
X184700Y164900D01*
X186700Y172900D01*
X180700Y156900D02*
Y162900D01*
X184700Y152900D02*
X186367Y147067D01*
X180700Y156900D02*
X184700Y152900D01*
D12*
X241300Y168900D02*
X246800D01*
X241300Y166900D02*
X246800Y166900D01*
X241300Y173100D02*
X241300Y166900D01*
X246800Y166900D02*
Y173100D01*
X241300D02*
X246800D01*
X244905Y302593D02*
Y307793D01*
X233095Y302593D02*
Y307793D01*
Y302593D02*
X244905D01*
X233095Y307793D02*
X244905D01*
D13*
X214994Y269600D02*
X214994Y273300D01*
X214994Y269600D02*
X218994Y269600D01*
Y273300D01*
X218994Y279300D02*
X218994Y275600D01*
X214994Y279300D02*
X218994D01*
X214994D02*
X214994Y275600D01*
X208994Y269600D02*
X208994Y273300D01*
X208994Y269600D02*
X212994Y269600D01*
Y273300D01*
X212994Y279300D02*
X212994Y275600D01*
X208994Y279300D02*
X212994D01*
X208994D02*
X208994Y275600D01*
X280700Y222494D02*
X284400Y222494D01*
X284400Y226494D02*
X284400Y222494D01*
X280700Y226494D02*
X284400D01*
X274700Y226494D02*
X278400Y226494D01*
X274700Y222494D02*
Y226494D01*
Y222494D02*
X278400Y222494D01*
X175994Y187600D02*
X175994Y191300D01*
X175994Y187600D02*
X179994Y187600D01*
Y191300D01*
X179994Y197300D02*
X179994Y193600D01*
X175994Y197300D02*
X179994D01*
X175994D02*
X175994Y193600D01*
X168200Y284494D02*
X171900Y284494D01*
X171900Y288494D02*
X171900Y284494D01*
X168200Y288494D02*
X171900D01*
X162200Y288494D02*
X165900Y288494D01*
X162200Y284494D02*
Y288494D01*
Y284494D02*
X165900Y284494D01*
X165994Y249600D02*
X165994Y253300D01*
X165994Y249600D02*
X169994Y249600D01*
Y253300D01*
X169994Y259300D02*
X169994Y255600D01*
X165994Y259300D02*
X169994D01*
X165994D02*
X165994Y255600D01*
X254600Y177506D02*
X258300Y177506D01*
Y173506D02*
Y177506D01*
X254600Y173506D02*
X258300Y173506D01*
X248600Y173506D02*
X252300D01*
X248600Y177506D02*
X248600Y173506D01*
X248600Y177506D02*
X252300Y177506D01*
X298500Y157500D02*
Y162500D01*
X296000Y155000D02*
X298500Y157500D01*
X291000Y155000D02*
X296000D01*
X288500Y157500D02*
X291000Y155000D01*
X296000Y175000D02*
X298500Y172500D01*
Y167500D02*
Y172500D01*
X296000Y165000D02*
X298500Y167500D01*
X291000Y165000D02*
X296000D01*
X288500Y167500D02*
X291000Y165000D01*
X288500Y167500D02*
Y172500D01*
X291000Y175000D01*
X296000Y165000D02*
X298500Y162500D01*
X288500D02*
X291000Y165000D01*
X288500Y157500D02*
Y162500D01*
X298500Y187500D02*
Y192500D01*
X296000Y185000D02*
X298500Y187500D01*
X291000Y185000D02*
X296000D01*
X288500Y187500D02*
X291000Y185000D01*
X296000D02*
X298500Y182500D01*
Y177500D02*
Y182500D01*
X296000Y175000D02*
X298500Y177500D01*
X291000Y175000D02*
X296000D01*
X288500Y177500D02*
X291000Y175000D01*
X288500Y177500D02*
Y182500D01*
X291000Y185000D01*
X296000Y205000D02*
X298500Y202500D01*
Y197500D02*
Y202500D01*
X296000Y195000D02*
X298500Y197500D01*
X291000Y195000D02*
X296000D01*
X288500Y197500D02*
X291000Y195000D01*
X288500Y197500D02*
Y202500D01*
X291000Y205000D01*
X296000Y195000D02*
X298500Y192500D01*
X288500D02*
X291000Y195000D01*
X288500Y187500D02*
Y192500D01*
X298500Y217500D02*
Y222500D01*
X296000Y215000D02*
X298500Y217500D01*
X291000Y215000D02*
X296000D01*
X288500Y217500D02*
X291000Y215000D01*
X296000D02*
X298500Y212500D01*
Y207500D02*
Y212500D01*
X296000Y205000D02*
X298500Y207500D01*
X291000Y205000D02*
X296000D01*
X288500Y207500D02*
X291000Y205000D01*
X288500Y207500D02*
Y212500D01*
X291000Y215000D01*
Y225000D02*
X296000D01*
X298500Y222500D01*
X288500D02*
X291000Y225000D01*
X288500Y217500D02*
Y222500D01*
X298500Y147500D02*
Y152500D01*
X296000Y145000D02*
X298500Y147500D01*
X291000Y145000D02*
X296000D01*
X288500Y147500D02*
X291000Y145000D01*
X296000Y155000D02*
X298500Y152500D01*
X288500D02*
X291000Y155000D01*
X288500Y147500D02*
Y152500D01*
X171500Y157500D02*
Y162500D01*
X169000Y155000D02*
X171500Y157500D01*
X164000Y155000D02*
X169000D01*
X161500Y157500D02*
X164000Y155000D01*
X169000Y175000D02*
X171500Y172500D01*
Y167500D02*
Y172500D01*
X169000Y165000D02*
X171500Y167500D01*
X164000Y165000D02*
X169000D01*
X161500Y167500D02*
X164000Y165000D01*
X161500Y167500D02*
Y172500D01*
X164000Y175000D01*
X169000Y165000D02*
X171500Y162500D01*
X161500D02*
X164000Y165000D01*
X161500Y157500D02*
Y162500D01*
X171500Y187500D02*
Y192500D01*
X169000Y185000D02*
X171500Y187500D01*
X164000Y185000D02*
X169000D01*
X161500Y187500D02*
X164000Y185000D01*
X169000D02*
X171500Y182500D01*
Y177500D02*
Y182500D01*
X169000Y175000D02*
X171500Y177500D01*
X164000Y175000D02*
X169000D01*
X161500Y177500D02*
X164000Y175000D01*
X161500Y177500D02*
Y182500D01*
X164000Y185000D01*
X169000Y205000D02*
X171500Y202500D01*
Y197500D02*
Y202500D01*
X169000Y195000D02*
X171500Y197500D01*
X164000Y195000D02*
X169000D01*
X161500Y197500D02*
X164000Y195000D01*
X161500Y197500D02*
Y202500D01*
X164000Y205000D01*
X169000Y195000D02*
X171500Y192500D01*
X161500D02*
X164000Y195000D01*
X161500Y187500D02*
Y192500D01*
X171500Y217500D02*
Y222500D01*
X169000Y215000D02*
X171500Y217500D01*
X164000Y215000D02*
X169000D01*
X161500Y217500D02*
X164000Y215000D01*
X169000D02*
X171500Y212500D01*
Y207500D02*
Y212500D01*
X169000Y205000D02*
X171500Y207500D01*
X164000Y205000D02*
X169000D01*
X161500Y207500D02*
X164000Y205000D01*
X161500Y207500D02*
Y212500D01*
X164000Y215000D01*
Y225000D02*
X169000D01*
X171500Y222500D01*
X161500D02*
X164000Y225000D01*
X161500Y217500D02*
Y222500D01*
X171500Y147500D02*
Y152500D01*
X169000Y145000D02*
X171500Y147500D01*
X164000Y145000D02*
X169000D01*
X161500Y147500D02*
X164000Y145000D01*
X169000Y155000D02*
X171500Y152500D01*
X161500D02*
X164000Y155000D01*
X161500Y147500D02*
Y152500D01*
X183506Y273900D02*
X183506Y270200D01*
X179506D02*
X183506D01*
X179506Y273900D02*
X179506Y270200D01*
X179506Y276200D02*
Y279900D01*
X183506Y279900D01*
X183506Y276200D02*
X183506Y279900D01*
X274700Y228494D02*
X278400Y228494D01*
X274700Y228494D02*
Y232494D01*
X278400Y232494D01*
X280700Y232494D02*
X284400D01*
X284400Y228494D01*
X280700Y228494D02*
X284400Y228494D01*
X223994Y273800D02*
X223994Y270100D01*
X223994Y273800D02*
X227994D01*
X227994Y270100D01*
X227994Y264100D02*
Y267800D01*
X223994Y264100D02*
X227994Y264100D01*
X223994Y264100D02*
X223994Y267800D01*
X257006Y273400D02*
X257006Y269700D01*
X253006D02*
X257006D01*
X253006Y273400D02*
X253006Y269700D01*
X253006Y275700D02*
Y279400D01*
X257006Y279400D01*
X257006Y275700D02*
X257006Y279400D01*
X251006Y273400D02*
X251006Y269700D01*
X247006D02*
X251006D01*
X247006Y273400D02*
X247006Y269700D01*
X247006Y275700D02*
Y279400D01*
X251006Y279400D01*
X251006Y275700D02*
X251006Y279400D01*
X245006Y273400D02*
X245006Y269700D01*
X241006D02*
X245006D01*
X241006Y273400D02*
X241006Y269700D01*
X241006Y275700D02*
Y279400D01*
X245006Y279400D01*
X245006Y275700D02*
X245006Y279400D01*
X239006Y273400D02*
X239006Y269700D01*
X235006D02*
X239006D01*
X235006Y273400D02*
X235006Y269700D01*
X235006Y275700D02*
Y279400D01*
X239006Y279400D01*
X239006Y275700D02*
X239006Y279400D01*
X180700Y205494D02*
X184400Y205494D01*
X180700Y205494D02*
Y209494D01*
X184400Y209494D01*
X186700Y209494D02*
X190400D01*
X190400Y205494D01*
X186700Y205494D02*
X190400Y205494D01*
X190745Y222300D02*
Y224000D01*
X183245Y218200D02*
X185745D01*
X183245Y228043D02*
X185745D01*
X178145Y222300D02*
Y224000D01*
D14*
X250400Y160200D02*
Y169900D01*
X282800Y160200D02*
Y169900D01*
X250400D02*
X259900D01*
X273200D02*
X282800D01*
Y151600D02*
Y153100D01*
X250400Y151600D02*
X252900Y149100D01*
X250400Y151600D02*
Y153200D01*
X252900Y149100D02*
X280300D01*
X282800Y151600D01*
D15*
X175500Y264583D02*
X176512D01*
Y264701D02*
Y277299D01*
X175500Y277417D02*
X176512D01*
X165488Y264583D02*
X166500D01*
X165488Y264701D02*
Y277299D01*
Y277417D02*
X166500D01*
X188535Y166900D02*
X187702Y167733D01*
Y169399D01*
X188535Y170232D01*
X189368D01*
X190201Y169399D01*
Y168566D01*
Y169399D01*
X191034Y170232D01*
X191867D01*
X192700Y169399D01*
Y167733D01*
X191867Y166900D01*
X192700Y148900D02*
Y150566D01*
Y149733D01*
X187702D01*
X188535Y148900D01*
D16*
X216099Y220149D02*
X215050D01*
X215574D01*
Y217525D01*
X215050Y217000D01*
X214525D01*
X214000Y217525D01*
X217149Y220149D02*
Y217000D01*
X219248D01*
X222396Y219624D02*
X221871Y220149D01*
X220822D01*
X220297Y219624D01*
Y217525D01*
X220822Y217000D01*
X221871D01*
X222396Y217525D01*
X225545Y220149D02*
X224495D01*
X225020D01*
Y217525D01*
X224495Y217000D01*
X223971D01*
X223446Y217525D01*
X226594Y220149D02*
Y217000D01*
X228693D01*
X231842Y219624D02*
X231317Y220149D01*
X230268D01*
X229743Y219624D01*
Y217525D01*
X230268Y217000D01*
X231317D01*
X231842Y217525D01*
X234991Y220149D02*
X233941D01*
X234466D01*
Y217525D01*
X233941Y217000D01*
X233416D01*
X232892Y217525D01*
X236040Y220149D02*
Y217000D01*
X238139D01*
X241288Y219624D02*
X240763Y220149D01*
X239714D01*
X239189Y219624D01*
Y217525D01*
X239714Y217000D01*
X240763D01*
X241288Y217525D01*
X244436Y220149D02*
X243387D01*
X243912D01*
Y217525D01*
X243387Y217000D01*
X242862D01*
X242337Y217525D01*
X245486Y220149D02*
Y217000D01*
X247585D01*
X250734Y219624D02*
X250209Y220149D01*
X249159D01*
X248635Y219624D01*
Y217525D01*
X249159Y217000D01*
X250209D01*
X250734Y217525D01*
D17*
X244200Y167800D02*
D03*
M02*
