G04*
G04 #@! TF.GenerationSoftware,Altium Limited,Altium Designer,19.0.4 (130)*
G04*
G04 Layer_Color=8388736*
%FSLAX25Y25*%
%MOIN*%
G70*
G01*
G75*
%ADD35R,0.03950X0.03950*%
%ADD36R,0.03800X0.03800*%
%ADD37R,0.01800X0.10642*%
%ADD38R,0.10642X0.01800*%
%ADD39R,0.04300X0.04600*%
%ADD40R,0.04600X0.04300*%
%ADD41R,0.03800X0.03800*%
G04:AMPARAMS|DCode=42|XSize=158mil|YSize=73mil|CornerRadius=0mil|HoleSize=0mil|Usage=FLASHONLY|Rotation=180.000|XOffset=0mil|YOffset=0mil|HoleType=Round|Shape=Octagon|*
%AMOCTAGOND42*
4,1,8,-0.07900,0.01825,-0.07900,-0.01825,-0.06075,-0.03650,0.06075,-0.03650,0.07900,-0.01825,0.07900,0.01825,0.06075,0.03650,-0.06075,0.03650,-0.07900,0.01825,0.0*
%
%ADD42OCTAGOND42*%

%ADD43O,0.15800X0.07300*%
%ADD44R,0.10800X0.10800*%
%ADD45R,0.02572X0.04737*%
%ADD46R,0.05131X0.04737*%
%ADD47R,0.06115X0.06706*%
%ADD48R,0.06312X0.06312*%
%ADD49R,0.02375X0.05524*%
%ADD50R,0.03556X0.05524*%
%ADD51R,0.05918X0.04934*%
%ADD52C,0.04147*%
%ADD53C,0.21800*%
%ADD54P,0.08226X8X22.5*%
%ADD55C,0.01968*%
%ADD56C,0.04400*%
%ADD57C,0.02600*%
D35*
X244000Y175600D02*
D03*
X244000Y164400D02*
D03*
D36*
X217000Y277300D02*
D03*
X216994Y271650D02*
D03*
X211000Y277300D02*
D03*
X210994Y271650D02*
D03*
X178000Y195300D02*
D03*
X177994Y189650D02*
D03*
X168000Y257300D02*
D03*
X167994Y251650D02*
D03*
X181506Y277850D02*
D03*
X181500Y272200D02*
D03*
X225994Y266150D02*
D03*
X226000Y271800D02*
D03*
X255006Y277350D02*
D03*
X255000Y271700D02*
D03*
X249006Y277350D02*
D03*
X249000Y271700D02*
D03*
X243006Y277350D02*
D03*
X243000Y271700D02*
D03*
X237006Y277350D02*
D03*
X237000Y271700D02*
D03*
D37*
X207630Y253992D02*
D03*
X209598D02*
D03*
X211567D02*
D03*
X213535D02*
D03*
X215504D02*
D03*
X217473D02*
D03*
X219441D02*
D03*
X221410D02*
D03*
X223378D02*
D03*
X225346D02*
D03*
X227315D02*
D03*
X229283D02*
D03*
X231252D02*
D03*
X233221D02*
D03*
X235189D02*
D03*
X237158D02*
D03*
X239126D02*
D03*
X241094D02*
D03*
X243063D02*
D03*
X245031D02*
D03*
X247000D02*
D03*
X248969D02*
D03*
X250937D02*
D03*
X252906D02*
D03*
X254874D02*
D03*
Y191000D02*
D03*
X252906D02*
D03*
X250937D02*
D03*
X248969D02*
D03*
X247000D02*
D03*
X245031D02*
D03*
X243063D02*
D03*
X241094D02*
D03*
X239126D02*
D03*
X237158D02*
D03*
X235189D02*
D03*
X233221D02*
D03*
X231252Y191000D02*
D03*
X229283D02*
D03*
X227315Y191000D02*
D03*
X225346D02*
D03*
X223378D02*
D03*
X221410D02*
D03*
X219441D02*
D03*
X217473D02*
D03*
X215504D02*
D03*
X213535D02*
D03*
X211567D02*
D03*
X209598D02*
D03*
X207630D02*
D03*
D38*
X262748Y246118D02*
D03*
Y244150D02*
D03*
Y242181D02*
D03*
Y240213D02*
D03*
Y238244D02*
D03*
Y236276D02*
D03*
Y234307D02*
D03*
Y232339D02*
D03*
Y230370D02*
D03*
Y228402D02*
D03*
Y226433D02*
D03*
X262748Y224465D02*
D03*
Y222496D02*
D03*
X262748Y220528D02*
D03*
Y218559D02*
D03*
Y216591D02*
D03*
Y214622D02*
D03*
Y212653D02*
D03*
Y210685D02*
D03*
Y208717D02*
D03*
Y206748D02*
D03*
Y204780D02*
D03*
Y202811D02*
D03*
Y200842D02*
D03*
Y198874D02*
D03*
X199756D02*
D03*
Y200842D02*
D03*
Y202811D02*
D03*
Y204780D02*
D03*
Y206748D02*
D03*
Y208717D02*
D03*
Y210685D02*
D03*
Y212653D02*
D03*
Y214622D02*
D03*
Y216591D02*
D03*
Y218559D02*
D03*
Y220528D02*
D03*
Y222496D02*
D03*
Y224465D02*
D03*
Y226433D02*
D03*
Y228402D02*
D03*
Y230370D02*
D03*
Y232339D02*
D03*
Y234307D02*
D03*
Y236276D02*
D03*
Y238244D02*
D03*
Y240213D02*
D03*
Y242181D02*
D03*
Y244150D02*
D03*
Y246118D02*
D03*
D39*
X233500Y169500D02*
D03*
Y176400D02*
D03*
X226000Y169500D02*
D03*
Y176400D02*
D03*
Y309900D02*
D03*
Y303000D02*
D03*
X191500Y196000D02*
D03*
Y189100D02*
D03*
X184500Y196000D02*
D03*
Y189100D02*
D03*
X224500Y152600D02*
D03*
Y159500D02*
D03*
X232000Y152500D02*
D03*
Y159400D02*
D03*
X274000Y242600D02*
D03*
Y249500D02*
D03*
D40*
X188000Y247000D02*
D03*
X181100D02*
D03*
X265000Y258500D02*
D03*
X271900D02*
D03*
X250000Y292000D02*
D03*
X243100D02*
D03*
X181000Y241000D02*
D03*
X187900D02*
D03*
X253100Y181500D02*
D03*
X260000D02*
D03*
X181600Y202000D02*
D03*
X188500D02*
D03*
X188000Y233000D02*
D03*
X181100D02*
D03*
X208000Y264000D02*
D03*
X201100D02*
D03*
X201000Y181000D02*
D03*
X207900D02*
D03*
X270000Y188000D02*
D03*
X263100D02*
D03*
X188400Y213000D02*
D03*
X181500D02*
D03*
X235000Y292000D02*
D03*
X228100D02*
D03*
D41*
X276700Y224500D02*
D03*
X282350Y224494D02*
D03*
X164200Y286500D02*
D03*
X169850Y286494D02*
D03*
X250650Y175506D02*
D03*
X256300Y175500D02*
D03*
X282350Y230494D02*
D03*
X276700Y230500D02*
D03*
X188350Y207494D02*
D03*
X182700Y207500D02*
D03*
D42*
X210000Y149500D02*
D03*
D43*
Y169500D02*
D03*
Y159500D02*
D03*
D44*
X186000D02*
D03*
D45*
X235260Y299681D02*
D03*
X242740D02*
D03*
X239000Y310705D02*
D03*
X242740D02*
D03*
X235260D02*
D03*
D46*
X260695Y152171D02*
D03*
X272505D02*
D03*
D47*
X250852Y156659D02*
D03*
X282348D02*
D03*
D48*
X253608Y166738D02*
D03*
X279592D02*
D03*
D49*
X261482Y169100D02*
D03*
X264041D02*
D03*
X266600D02*
D03*
X269159D02*
D03*
X271718D02*
D03*
D50*
X168244Y277496D02*
D03*
Y264504D02*
D03*
X173756D02*
D03*
Y277496D02*
D03*
D51*
X179945Y226783D02*
D03*
X189000D02*
D03*
Y219500D02*
D03*
X179945D02*
D03*
D52*
X237504Y163000D02*
D03*
X269000D02*
D03*
D53*
X288000Y307000D02*
D03*
X172000D02*
D03*
D54*
X293500Y220000D02*
D03*
Y210000D02*
D03*
Y200000D02*
D03*
Y190000D02*
D03*
Y180000D02*
D03*
Y170000D02*
D03*
Y160000D02*
D03*
Y150000D02*
D03*
X166500Y220000D02*
D03*
Y210000D02*
D03*
Y200000D02*
D03*
Y190000D02*
D03*
Y180000D02*
D03*
Y170000D02*
D03*
Y160000D02*
D03*
Y150000D02*
D03*
D55*
X258700Y165000D02*
D03*
X274500D02*
D03*
D56*
X171500Y234000D02*
D03*
X219445Y310000D02*
D03*
X268500Y251500D02*
D03*
X262772Y193000D02*
D03*
X268500Y265000D02*
D03*
X197000Y159500D02*
D03*
X196500Y175500D02*
D03*
D57*
X293500Y301500D02*
D03*
Y312500D02*
D03*
X282500Y301500D02*
D03*
Y312500D02*
D03*
X288000Y299000D02*
D03*
X296000Y307000D02*
D03*
X280000D02*
D03*
X288000Y315000D02*
D03*
X177500Y301500D02*
D03*
X166500D02*
D03*
Y312500D02*
D03*
X177500D02*
D03*
X172000Y299000D02*
D03*
X164000Y307000D02*
D03*
X180000D02*
D03*
X172000Y315000D02*
D03*
M02*
