G04*
G04 #@! TF.GenerationSoftware,Altium Limited,Altium Designer,19.0.4 (130)*
G04*
G04 Layer_Color=32896*
%FSLAX25Y25*%
%MOIN*%
G70*
G01*
G75*
%ADD10C,0.01000*%
%ADD11C,0.00787*%
%ADD12C,0.00700*%
%ADD13C,0.00600*%
%ADD14C,0.00500*%
%ADD15C,0.00800*%
%ADD91C,0.00984*%
%ADD92C,0.01968*%
D10*
X174400Y249200D02*
G03*
X168544Y249148I-2897J-3545D01*
G01*
X168600Y238000D02*
G03*
X174456Y238052I2897J3545D01*
G01*
X178595Y237260D02*
G03*
X178595Y237260I-300J0D01*
G01*
X183795Y239320D02*
G03*
X183795Y239320I-100J0D01*
G01*
X190600Y251600D02*
G03*
X190548Y257456I-3545J2897D01*
G01*
X179400Y257400D02*
G03*
X179452Y251544I3545J-2897D01*
G01*
X179000Y226593D02*
G03*
X179052Y220737I3545J-2897D01*
G01*
X190200Y220793D02*
G03*
X190148Y226649I-3545J2897D01*
G01*
X179500Y234900D02*
G03*
X179552Y229044I3545J-2897D01*
G01*
X190700Y229100D02*
G03*
X190648Y234956I-3545J2897D01*
G01*
X203800Y256400D02*
G03*
X203852Y250544I3545J-2897D01*
G01*
X215000Y250600D02*
G03*
X214948Y256456I-3545J2897D01*
G01*
X168500Y238100D02*
Y241800D01*
X174500Y238100D02*
Y241800D01*
Y245300D02*
Y249100D01*
X168500Y245300D02*
Y249000D01*
X179500Y257500D02*
X183200D01*
X179500Y251500D02*
X183200D01*
X186700D02*
X190500D01*
X186700Y257500D02*
X190400D01*
X186300Y226693D02*
X190000D01*
X186300Y220693D02*
X190100D01*
X179100D02*
X182800D01*
X179100Y226693D02*
X182800D01*
X186800Y235000D02*
X190500D01*
X186800Y229000D02*
X190600D01*
X179600D02*
X183300D01*
X179600Y235000D02*
X183300D01*
X211200Y250500D02*
X214900D01*
X211200Y256500D02*
X214900D01*
X203900D02*
X207700Y256500D01*
X204000Y250500D02*
X207700Y250500D01*
D11*
X184319Y279618D02*
X190126D01*
X184319Y269382D02*
X190126D01*
Y271154D01*
Y277846D02*
Y279618D01*
X197815Y240500D02*
X262185D01*
X197815Y219000D02*
Y222500D01*
Y219000D02*
X205815D01*
X197815Y232500D02*
Y240500D01*
X262185Y232500D02*
Y240500D01*
Y219000D02*
Y222500D01*
X254185Y219000D02*
X262185D01*
D12*
X182195Y237354D02*
X187395D01*
X182195Y249165D02*
X187395D01*
Y237354D02*
Y249165D01*
X182195Y237354D02*
Y249165D01*
D13*
X281554Y155539D02*
X283254Y157239D01*
X216754Y155539D02*
X281554D01*
X216354Y155939D02*
X216754Y155539D01*
X216354Y155939D02*
Y209339D01*
X217853Y210839D01*
X281554D01*
X283254Y209139D01*
Y157239D02*
Y209139D01*
X269754Y155539D02*
X281554D01*
X267553Y157739D02*
X269754Y155539D01*
X237854Y157739D02*
X267553D01*
X235653Y155539D02*
X237854Y157739D01*
X216754Y155539D02*
X235653D01*
X264653Y157639D02*
Y157739D01*
Y157639D02*
X266754Y155539D01*
X262154Y157539D02*
Y157739D01*
Y157539D02*
X264154Y155539D01*
X261253D02*
Y155839D01*
X259353Y157739D02*
X261253Y155839D01*
X256254Y157739D02*
X256353D01*
X258554Y155539D01*
X254153Y157639D02*
Y157739D01*
Y157639D02*
X256254Y155539D01*
X251153Y157739D02*
X251554D01*
X253753Y155539D01*
X248853Y157739D02*
X248954D01*
X251153Y155539D01*
X246553Y157639D02*
Y157739D01*
Y157639D02*
X248654Y155539D01*
X243454Y157739D02*
X243953D01*
X246153Y155539D01*
X241354Y157739D02*
X241454D01*
X243653Y155539D01*
X239154Y157739D02*
X241354Y155539D01*
X237253Y157138D02*
X237554D01*
X239154Y155539D01*
X220153Y146139D02*
Y155439D01*
Y146139D02*
X233353D01*
X243354Y149339D02*
X278753D01*
Y155539D01*
X233353Y146139D02*
X243454Y149339D01*
X172994Y269200D02*
X172994Y272900D01*
X172994Y269200D02*
X176994D01*
X176994Y272900D01*
X176994Y275200D02*
Y278900D01*
X172994Y278900D02*
X176994Y278900D01*
X172994Y278900D02*
X172994Y275200D01*
X172994Y257200D02*
X172994Y260900D01*
X172994Y257200D02*
X176994D01*
X176994Y260900D01*
X176994Y263200D02*
Y266900D01*
X172994Y266900D02*
X176994Y266900D01*
X172994Y266900D02*
X172994Y263200D01*
X251100Y282994D02*
X254800Y282994D01*
X251100Y282994D02*
X251100Y286994D01*
X254800D01*
X257100Y286994D02*
X260800Y286994D01*
Y282994D02*
Y286994D01*
X257100Y282994D02*
X260800Y282994D01*
X201006Y275300D02*
X201006Y271600D01*
X197006Y271600D02*
X201006Y271600D01*
X197006Y271600D02*
Y275300D01*
X197006Y277600D02*
X197006Y281300D01*
X201006D01*
X201006Y277600D02*
X201006Y281300D01*
D14*
X285501Y152001D02*
X285001Y152500D01*
Y153500D01*
X285501Y154000D01*
X287500D01*
X288000Y153500D01*
Y152500D01*
X287500Y152001D01*
X286501D01*
Y153000D01*
X288000Y151001D02*
X285001D01*
X288000Y149002D01*
X285001D01*
Y148002D02*
X288000D01*
Y146502D01*
X287500Y146003D01*
X285501D01*
X285001Y146502D01*
Y148002D01*
Y164000D02*
X287000D01*
X288000Y163000D01*
X287000Y162001D01*
X285001D01*
Y161001D02*
Y160001D01*
Y160501D01*
X288000D01*
Y161001D01*
Y160001D01*
Y158502D02*
X285001D01*
X288000Y156502D01*
X285001D01*
X288000Y172000D02*
X285001D01*
Y170501D01*
X285501Y170001D01*
X286501D01*
X287000Y170501D01*
Y172000D01*
X285001Y169001D02*
Y167002D01*
X285501D01*
X287500Y169001D01*
X288000D01*
Y182000D02*
X285001D01*
Y180500D01*
X285501Y180001D01*
X286501D01*
X287000Y180500D01*
Y182000D01*
X285501Y179001D02*
X285001Y178501D01*
Y177501D01*
X285501Y177002D01*
X286001D01*
X286501Y177501D01*
X287000Y177002D01*
X287500D01*
X288000Y177501D01*
Y178501D01*
X287500Y179001D01*
X287000D01*
X286501Y178501D01*
X286001Y179001D01*
X285501D01*
X286501Y178501D02*
Y177501D01*
X288000Y225500D02*
X285001D01*
Y224001D01*
X285501Y223501D01*
X286501D01*
X287000Y224001D01*
Y225500D01*
Y224500D02*
X288000Y223501D01*
X285501Y220502D02*
X285001Y221002D01*
Y222001D01*
X285501Y222501D01*
X286001D01*
X286501Y222001D01*
Y221002D01*
X287000Y220502D01*
X287500D01*
X288000Y221002D01*
Y222001D01*
X287500Y222501D01*
X285001Y219502D02*
Y217503D01*
Y218502D01*
X288000D01*
X285001Y215500D02*
X288000D01*
Y214001D01*
X287500Y213501D01*
X287000D01*
X286501Y214001D01*
Y215500D01*
Y214001D01*
X286001Y213501D01*
X285501D01*
X285001Y214001D01*
Y215500D01*
Y211001D02*
Y212001D01*
X285501Y212501D01*
X287500D01*
X288000Y212001D01*
Y211001D01*
X287500Y210502D01*
X285501D01*
X285001Y211001D01*
Y208002D02*
Y209002D01*
X285501Y209502D01*
X287500D01*
X288000Y209002D01*
Y208002D01*
X287500Y207503D01*
X285501D01*
X285001Y208002D01*
Y206503D02*
Y204504D01*
Y205503D01*
X288000D01*
X285501Y201001D02*
X285001Y201501D01*
Y202500D01*
X285501Y203000D01*
X286001D01*
X286501Y202500D01*
Y201501D01*
X287000Y201001D01*
X287500D01*
X288000Y201501D01*
Y202500D01*
X287500Y203000D01*
X285001Y200001D02*
X285501D01*
X286501Y199001D01*
X285501Y198002D01*
X285001D01*
X286501Y199001D02*
X288000D01*
Y197002D02*
X285001D01*
X288000Y195003D01*
X285001D01*
X288000Y191500D02*
X285001D01*
Y190000D01*
X285501Y189501D01*
X286501D01*
X287000Y190000D01*
Y191500D01*
X287500Y188501D02*
X288000Y188001D01*
Y187001D01*
X287500Y186502D01*
X285501D01*
X285001Y187001D01*
Y188001D01*
X285501Y188501D01*
X286001D01*
X286501Y188001D01*
Y186502D01*
X173834Y154500D02*
X173301Y153967D01*
Y152901D01*
X173834Y152367D01*
X174367D01*
X174900Y152901D01*
Y153434D01*
Y152901D01*
X175434Y152367D01*
X175967D01*
X176500Y152901D01*
Y153967D01*
X175967Y154500D01*
X173301Y151301D02*
X175434D01*
X176500Y150235D01*
X175434Y149168D01*
X173301D01*
X173834Y148102D02*
X173301Y147569D01*
Y146503D01*
X173834Y145969D01*
X174367D01*
X174900Y146503D01*
Y147036D01*
Y146503D01*
X175434Y145969D01*
X175967D01*
X176500Y146503D01*
Y147569D01*
X175967Y148102D01*
X176500Y162500D02*
X173301D01*
Y160900D01*
X173834Y160367D01*
X174900D01*
X175434Y160900D01*
Y162500D01*
X173301Y157168D02*
X173834Y158235D01*
X174900Y159301D01*
X175967D01*
X176500Y158768D01*
Y157702D01*
X175967Y157168D01*
X175434D01*
X174900Y157702D01*
Y159301D01*
X176500Y172500D02*
X173301D01*
Y170900D01*
X173834Y170367D01*
X174900D01*
X175434Y170900D01*
Y172500D01*
X173301Y167168D02*
Y169301D01*
X174900D01*
X174367Y168235D01*
Y167701D01*
X174900Y167168D01*
X175967D01*
X176500Y167701D01*
Y168768D01*
X175967Y169301D01*
X176500Y182500D02*
X173301D01*
Y180901D01*
X173834Y180367D01*
X174900D01*
X175434Y180901D01*
Y182500D01*
X176500Y177701D02*
X173301D01*
X174900Y179301D01*
Y177168D01*
X176500Y192500D02*
X173301D01*
Y190901D01*
X173834Y190367D01*
X174900D01*
X175434Y190901D01*
Y192500D01*
X173834Y189301D02*
X173301Y188768D01*
Y187701D01*
X173834Y187168D01*
X174367D01*
X174900Y187701D01*
Y188235D01*
Y187701D01*
X175434Y187168D01*
X175967D01*
X176500Y187701D01*
Y188768D01*
X175967Y189301D01*
X176500Y202000D02*
X173301D01*
Y200400D01*
X173834Y199867D01*
X174900D01*
X175434Y200400D01*
Y202000D01*
X176500Y196668D02*
Y198801D01*
X174367Y196668D01*
X173834D01*
X173301Y197202D01*
Y198268D01*
X173834Y198801D01*
X176500Y212000D02*
X173301D01*
Y210401D01*
X173834Y209867D01*
X174900D01*
X175434Y210401D01*
Y212000D01*
X176500Y208801D02*
Y207735D01*
Y208268D01*
X173301D01*
X173834Y208801D01*
X176500Y222000D02*
X173301D01*
Y220401D01*
X173834Y219867D01*
X174900D01*
X175434Y220401D01*
Y222000D01*
X173834Y218801D02*
X173301Y218268D01*
Y217201D01*
X173834Y216668D01*
X175967D01*
X176500Y217201D01*
Y218268D01*
X175967Y218801D01*
X173834D01*
X297000Y290000D02*
Y292999D01*
X295500D01*
X295001Y292499D01*
Y291499D01*
X295500Y291000D01*
X297000D01*
X294001Y290000D02*
X293001D01*
X293501D01*
Y291999D01*
X294001D01*
X291502Y290000D02*
Y291999D01*
X290002D01*
X289502Y291499D01*
Y290000D01*
X285504Y292999D02*
Y290000D01*
X283504D01*
X282505D02*
X281505D01*
X282005D01*
Y291999D01*
X282505D01*
X280006Y290000D02*
X278506D01*
X278006Y290500D01*
X278506Y291000D01*
X279506D01*
X280006Y291499D01*
X279506Y291999D01*
X278006D01*
X276507Y292499D02*
Y291999D01*
X277007D01*
X276007D01*
X276507D01*
Y290500D01*
X276007Y290000D01*
X297000Y283000D02*
Y285999D01*
X295500D01*
X295001Y285499D01*
Y284500D01*
X295500Y284000D01*
X297000D01*
X294001Y285499D02*
X293501Y285999D01*
X292501D01*
X292002Y285499D01*
Y283500D01*
X292501Y283000D01*
X293501D01*
X294001Y283500D01*
Y285499D01*
X291002Y284000D02*
X289003D01*
X291002Y284999D02*
X289003D01*
X288003Y283000D02*
Y285999D01*
X286503D01*
X286004Y285499D01*
Y284500D01*
X286503Y284000D01*
X288003D01*
X285004Y285999D02*
Y283000D01*
X283504D01*
X283004Y283500D01*
Y284000D01*
X283504Y284500D01*
X285004D01*
X283504D01*
X283004Y284999D01*
Y285499D01*
X283504Y285999D01*
X285004D01*
X282005Y283000D02*
X281005D01*
X281505D01*
Y285999D01*
X282005Y285499D01*
X277506Y285999D02*
X279506D01*
Y284500D01*
X278506Y284999D01*
X278006D01*
X277506Y284500D01*
Y283500D01*
X278006Y283000D01*
X279006D01*
X279506Y283500D01*
X276507Y283000D02*
X274507Y284999D01*
X273508Y283000D02*
Y285999D01*
X272508Y284999D01*
X271508Y285999D01*
Y283000D01*
X269009Y285999D02*
X270009D01*
X270509Y285499D01*
Y283500D01*
X270009Y283000D01*
X269009D01*
X268509Y283500D01*
Y285499D01*
X269009Y285999D01*
X265510Y285499D02*
X266010Y285999D01*
X267010D01*
X267510Y285499D01*
Y284999D01*
X267010Y284500D01*
X266010D01*
X265510Y284000D01*
Y283500D01*
X266010Y283000D01*
X267010D01*
X267510Y283500D01*
X264510Y285999D02*
X263511D01*
X264011D01*
Y283000D01*
X264510D01*
X263511D01*
X297000Y278500D02*
Y281499D01*
X295500D01*
X295001Y280999D01*
Y279999D01*
X295500Y279500D01*
X297000D01*
X294001Y278500D02*
X293001D01*
X293501D01*
Y281499D01*
X294001Y280999D01*
X291502Y279500D02*
X289502D01*
X291502Y280499D02*
X289502D01*
X288503Y278500D02*
Y281499D01*
X287003D01*
X286503Y280999D01*
Y279999D01*
X287003Y279500D01*
X288503D01*
X285504Y281499D02*
Y278500D01*
X284004D01*
X283504Y279000D01*
Y279500D01*
X284004Y279999D01*
X285504D01*
X284004D01*
X283504Y280499D01*
Y280999D01*
X284004Y281499D01*
X285504D01*
X282505Y278500D02*
X281505D01*
X282005D01*
Y281499D01*
X282505Y280999D01*
X278506Y278500D02*
Y281499D01*
X280006Y279999D01*
X278006D01*
X277007Y278500D02*
X275007Y280499D01*
X274007Y278500D02*
Y281499D01*
X273008Y280499D01*
X272008Y281499D01*
Y278500D01*
X271008Y281499D02*
X270009D01*
X270509D01*
Y278500D01*
X271008D01*
X270009D01*
X266510Y280999D02*
X267010Y281499D01*
X268009D01*
X268509Y280999D01*
Y280499D01*
X268009Y279999D01*
X267010D01*
X266510Y279500D01*
Y279000D01*
X267010Y278500D01*
X268009D01*
X268509Y279000D01*
X264011Y281499D02*
X265010D01*
X265510Y280999D01*
Y279000D01*
X265010Y278500D01*
X264011D01*
X263511Y279000D01*
Y280999D01*
X264011Y281499D01*
X297000Y274000D02*
Y276999D01*
X295500D01*
X295001Y276499D01*
Y275500D01*
X295500Y275000D01*
X297000D01*
X292002Y274000D02*
X294001D01*
X292002Y275999D01*
Y276499D01*
X292501Y276999D01*
X293501D01*
X294001Y276499D01*
X291002Y275000D02*
X289003D01*
X291002Y275999D02*
X289003D01*
X288003Y274000D02*
Y276999D01*
X286503D01*
X286004Y276499D01*
Y275500D01*
X286503Y275000D01*
X288003D01*
X285004Y276999D02*
Y274000D01*
X283504D01*
X283004Y274500D01*
Y275000D01*
X283504Y275500D01*
X285004D01*
X283504D01*
X283004Y275999D01*
Y276499D01*
X283504Y276999D01*
X285004D01*
X282005Y274000D02*
X281005D01*
X281505D01*
Y276999D01*
X282005Y276499D01*
X279506D02*
X279006Y276999D01*
X278006D01*
X277506Y276499D01*
Y275999D01*
X278006Y275500D01*
X278506D01*
X278006D01*
X277506Y275000D01*
Y274500D01*
X278006Y274000D01*
X279006D01*
X279506Y274500D01*
X276507Y274000D02*
X274507Y275999D01*
X271508Y276499D02*
X272008Y276999D01*
X273008D01*
X273508Y276499D01*
Y275999D01*
X273008Y275500D01*
X272008D01*
X271508Y275000D01*
Y274500D01*
X272008Y274000D01*
X273008D01*
X273508Y274500D01*
X268509Y276499D02*
X269009Y276999D01*
X270009D01*
X270509Y276499D01*
Y274500D01*
X270009Y274000D01*
X269009D01*
X268509Y274500D01*
X267510Y276999D02*
Y274000D01*
X265510D01*
X264510Y276999D02*
Y274000D01*
Y275000D01*
X262511Y276999D01*
X264011Y275500D01*
X262511Y274000D01*
X297000Y265000D02*
Y267999D01*
X295500D01*
X295001Y267499D01*
Y266499D01*
X295500Y266000D01*
X297000D01*
X292501Y265000D02*
Y267999D01*
X294001Y266499D01*
X292002D01*
X291002Y266000D02*
X289003D01*
X291002Y266999D02*
X289003D01*
X288003Y265000D02*
Y267999D01*
X286503D01*
X286004Y267499D01*
Y266499D01*
X286503Y266000D01*
X288003D01*
X285004Y267999D02*
Y265000D01*
X283504D01*
X283004Y265500D01*
Y266000D01*
X283504Y266499D01*
X285004D01*
X283504D01*
X283004Y266999D01*
Y267499D01*
X283504Y267999D01*
X285004D01*
X282005Y265000D02*
X281005D01*
X281505D01*
Y267999D01*
X282005Y267499D01*
X279506D02*
X279006Y267999D01*
X278006D01*
X277506Y267499D01*
Y265500D01*
X278006Y265000D01*
X279006D01*
X279506Y265500D01*
Y267499D01*
X276507Y265000D02*
X274507Y266999D01*
X273508Y267999D02*
X271508D01*
X272508D01*
Y265000D01*
X270509Y267999D02*
X268509Y265000D01*
Y267999D02*
X270509Y265000D01*
X267510Y267999D02*
Y265000D01*
X266010D01*
X265510Y265500D01*
Y267499D01*
X266010Y267999D01*
X267510D01*
X264510Y265000D02*
X262511Y266999D01*
X259512Y267499D02*
X260012Y267999D01*
X261012D01*
X261511Y267499D01*
Y266999D01*
X261012Y266499D01*
X260012D01*
X259512Y266000D01*
Y265500D01*
X260012Y265000D01*
X261012D01*
X261511Y265500D01*
X256513Y267499D02*
X257013Y267999D01*
X258013D01*
X258512Y267499D01*
Y265500D01*
X258013Y265000D01*
X257013D01*
X256513Y265500D01*
X255513Y267999D02*
Y265000D01*
X253514D01*
X297000Y260500D02*
Y263499D01*
X295500D01*
X295001Y262999D01*
Y262000D01*
X295500Y261500D01*
X297000D01*
X292002Y263499D02*
X294001D01*
Y262000D01*
X293001Y262499D01*
X292501D01*
X292002Y262000D01*
Y261000D01*
X292501Y260500D01*
X293501D01*
X294001Y261000D01*
X291002Y261500D02*
X289003D01*
X291002Y262499D02*
X289003D01*
X288003Y260500D02*
Y263499D01*
X286503D01*
X286004Y262999D01*
Y262000D01*
X286503Y261500D01*
X288003D01*
X285004Y263499D02*
Y260500D01*
X283504D01*
X283004Y261000D01*
Y261500D01*
X283504Y262000D01*
X285004D01*
X283504D01*
X283004Y262499D01*
Y262999D01*
X283504Y263499D01*
X285004D01*
X282005Y260500D02*
X281005D01*
X281505D01*
Y263499D01*
X282005Y262999D01*
X279506Y260500D02*
X278506D01*
X279006D01*
Y263499D01*
X279506Y262999D01*
X277007Y260500D02*
X275007Y262499D01*
X274007Y260500D02*
Y263499D01*
X272508D01*
X272008Y262999D01*
Y262000D01*
X272508Y261500D01*
X274007D01*
X273008D02*
X272008Y260500D01*
X271008Y263499D02*
X269009Y260500D01*
Y263499D02*
X271008Y260500D01*
X268009Y263499D02*
Y260500D01*
X266510D01*
X266010Y261000D01*
Y262999D01*
X266510Y263499D01*
X268009D01*
X265010Y260500D02*
X263011Y262499D01*
X260012Y262999D02*
X260512Y263499D01*
X261511D01*
X262011Y262999D01*
Y262499D01*
X261511Y262000D01*
X260512D01*
X260012Y261500D01*
Y261000D01*
X260512Y260500D01*
X261511D01*
X262011Y261000D01*
X259012Y263499D02*
Y260500D01*
X257513D01*
X257013Y261000D01*
Y262999D01*
X257513Y263499D01*
X259012D01*
X256013Y260500D02*
Y262499D01*
X255014Y263499D01*
X254014Y262499D01*
Y260500D01*
Y262000D01*
X256013D01*
X297000Y269500D02*
Y272499D01*
X295500D01*
X295001Y271999D01*
Y271000D01*
X295500Y270500D01*
X297000D01*
X294001Y271999D02*
X293501Y272499D01*
X292501D01*
X292002Y271999D01*
Y271499D01*
X292501Y271000D01*
X293001D01*
X292501D01*
X292002Y270500D01*
Y270000D01*
X292501Y269500D01*
X293501D01*
X294001Y270000D01*
X291002Y270500D02*
X289003D01*
X291002Y271499D02*
X289003D01*
X288003Y269500D02*
Y272499D01*
X286503D01*
X286004Y271999D01*
Y271000D01*
X286503Y270500D01*
X288003D01*
X285004Y272499D02*
Y269500D01*
X283504D01*
X283004Y270000D01*
Y270500D01*
X283504Y271000D01*
X285004D01*
X283504D01*
X283004Y271499D01*
Y271999D01*
X283504Y272499D01*
X285004D01*
X282005Y269500D02*
X281005D01*
X281505D01*
Y272499D01*
X282005Y271999D01*
X277506Y269500D02*
X279506D01*
X277506Y271499D01*
Y271999D01*
X278006Y272499D01*
X279006D01*
X279506Y271999D01*
X276507Y269500D02*
X274507Y271499D01*
X271508Y271999D02*
X272008Y272499D01*
X273008D01*
X273508Y271999D01*
Y271499D01*
X273008Y271000D01*
X272008D01*
X271508Y270500D01*
Y270000D01*
X272008Y269500D01*
X273008D01*
X273508Y270000D01*
X268509Y271999D02*
X269009Y272499D01*
X270009D01*
X270509Y271999D01*
Y271499D01*
X270009Y271000D01*
X269009D01*
X268509Y270500D01*
Y270000D01*
X269009Y269500D01*
X270009D01*
X270509Y270000D01*
X297000Y256000D02*
Y258999D01*
X295500D01*
X295001Y258499D01*
Y257500D01*
X295500Y257000D01*
X297000D01*
X292002Y258999D02*
X293001Y258499D01*
X294001Y257500D01*
Y256500D01*
X293501Y256000D01*
X292501D01*
X292002Y256500D01*
Y257000D01*
X292501Y257500D01*
X294001D01*
X291002Y257000D02*
X289003D01*
X291002Y257999D02*
X289003D01*
X288003Y256000D02*
Y258999D01*
X286503D01*
X286004Y258499D01*
Y257500D01*
X286503Y257000D01*
X288003D01*
X285004Y256000D02*
Y257999D01*
X284004Y258999D01*
X283004Y257999D01*
Y256000D01*
Y257500D01*
X285004D01*
X280006Y258999D02*
X282005D01*
Y257500D01*
X281005Y257999D01*
X280505D01*
X280006Y257500D01*
Y256500D01*
X280505Y256000D01*
X281505D01*
X282005Y256500D01*
X279006Y256000D02*
X277007Y257999D01*
X276007Y256000D02*
Y257999D01*
X275007Y258999D01*
X274007Y257999D01*
Y256000D01*
Y257500D01*
X276007D01*
X273008Y258999D02*
Y256000D01*
X271508D01*
X271008Y256500D01*
Y258499D01*
X271508Y258999D01*
X273008D01*
X268009Y258499D02*
X268509Y258999D01*
X269509D01*
X270009Y258499D01*
Y256500D01*
X269509Y256000D01*
X268509D01*
X268009Y256500D01*
X267010Y256000D02*
X265010Y257999D01*
X264011Y258999D02*
Y256000D01*
X262511D01*
X262011Y256500D01*
Y258499D01*
X262511Y258999D01*
X264011D01*
X261012Y256000D02*
Y257999D01*
X260012Y258999D01*
X259012Y257999D01*
Y256000D01*
Y257500D01*
X261012D01*
X256013Y258499D02*
X256513Y258999D01*
X257513D01*
X258013Y258499D01*
Y256500D01*
X257513Y256000D01*
X256513D01*
X256013Y256500D01*
X297000Y251500D02*
Y254499D01*
X295500D01*
X295001Y253999D01*
Y252999D01*
X295500Y252500D01*
X297000D01*
X294001Y254499D02*
X292002D01*
Y253999D01*
X294001Y252000D01*
Y251500D01*
X291002Y252500D02*
X289003D01*
X291002Y253499D02*
X289003D01*
X288003Y251500D02*
Y254499D01*
X286503D01*
X286004Y253999D01*
Y252999D01*
X286503Y252500D01*
X288003D01*
X285004Y254499D02*
Y251500D01*
X283504D01*
X283004Y252000D01*
Y253999D01*
X283504Y254499D01*
X285004D01*
X282005Y251500D02*
X281005D01*
X281505D01*
Y254499D01*
X282005Y253999D01*
X277506Y251500D02*
X279506D01*
X277506Y253499D01*
Y253999D01*
X278006Y254499D01*
X279006D01*
X279506Y253999D01*
X276507Y251500D02*
X274507Y253499D01*
X271508Y253999D02*
X272008Y254499D01*
X273008D01*
X273508Y253999D01*
Y253499D01*
X273008Y252999D01*
X272008D01*
X271508Y252500D01*
Y252000D01*
X272008Y251500D01*
X273008D01*
X273508Y252000D01*
X268509Y254499D02*
X270509D01*
Y251500D01*
X268509D01*
X270509Y252999D02*
X269509D01*
X267510Y251500D02*
Y254499D01*
X266010D01*
X265510Y253999D01*
Y252999D01*
X266010Y252500D01*
X267510D01*
X266510D02*
X265510Y251500D01*
X264510Y254499D02*
Y252500D01*
X263511Y251500D01*
X262511Y252500D01*
Y254499D01*
X260012D02*
X261012D01*
X261511Y253999D01*
Y252000D01*
X261012Y251500D01*
X260012D01*
X259512Y252000D01*
Y253999D01*
X260012Y254499D01*
X258512Y251500D02*
X257513D01*
X258013D01*
Y254499D01*
X258512Y253999D01*
X297000Y247000D02*
Y249999D01*
X295500D01*
X295001Y249499D01*
Y248499D01*
X295500Y248000D01*
X297000D01*
X294001Y249499D02*
X293501Y249999D01*
X292501D01*
X292002Y249499D01*
Y248999D01*
X292501Y248499D01*
X292002Y248000D01*
Y247500D01*
X292501Y247000D01*
X293501D01*
X294001Y247500D01*
Y248000D01*
X293501Y248499D01*
X294001Y248999D01*
Y249499D01*
X293501Y248499D02*
X292501D01*
X291002Y248000D02*
X289003D01*
X291002Y248999D02*
X289003D01*
X288003Y247000D02*
Y249999D01*
X286503D01*
X286004Y249499D01*
Y248499D01*
X286503Y248000D01*
X288003D01*
X285004Y249999D02*
Y247000D01*
X283504D01*
X283004Y247500D01*
Y249499D01*
X283504Y249999D01*
X285004D01*
X282005Y247000D02*
X281005D01*
X281505D01*
Y249999D01*
X282005Y249499D01*
X279506D02*
X279006Y249999D01*
X278006D01*
X277506Y249499D01*
Y248999D01*
X278006Y248499D01*
X278506D01*
X278006D01*
X277506Y248000D01*
Y247500D01*
X278006Y247000D01*
X279006D01*
X279506Y247500D01*
X276507Y247000D02*
X274507Y248999D01*
X271508Y249499D02*
X272008Y249999D01*
X273008D01*
X273508Y249499D01*
Y248999D01*
X273008Y248499D01*
X272008D01*
X271508Y248000D01*
Y247500D01*
X272008Y247000D01*
X273008D01*
X273508Y247500D01*
X268509Y249999D02*
X270509D01*
Y247000D01*
X268509D01*
X270509Y248499D02*
X269509D01*
X267510Y247000D02*
Y249999D01*
X266010D01*
X265510Y249499D01*
Y248499D01*
X266010Y248000D01*
X267510D01*
X266510D02*
X265510Y247000D01*
X264510Y249999D02*
Y248000D01*
X263511Y247000D01*
X262511Y248000D01*
Y249999D01*
X260012D02*
X261012D01*
X261511Y249499D01*
Y247500D01*
X261012Y247000D01*
X260012D01*
X259512Y247500D01*
Y249499D01*
X260012Y249999D01*
X256513Y247000D02*
X258512D01*
X256513Y248999D01*
Y249499D01*
X257013Y249999D01*
X258013D01*
X258512Y249499D01*
X182500Y206000D02*
X179301D01*
X180367Y204934D01*
X179301Y203867D01*
X182500D01*
X180367Y202268D02*
Y201202D01*
X180901Y200668D01*
X182500D01*
Y202268D01*
X181967Y202801D01*
X181434Y202268D01*
Y200668D01*
X180367Y199602D02*
X182500Y197469D01*
X181434Y198536D01*
X180367Y197469D01*
X182500Y199602D01*
X180367Y193204D02*
X182500Y192138D01*
X180367Y191071D01*
X182500Y189472D02*
Y188406D01*
X181967Y187873D01*
X180901D01*
X180367Y188406D01*
Y189472D01*
X180901Y190005D01*
X181967D01*
X182500Y189472D01*
Y186806D02*
Y185740D01*
Y186273D01*
X179301D01*
Y186806D01*
X179834Y183607D02*
X180367D01*
Y184140D01*
Y183074D01*
Y183607D01*
X181967D01*
X182500Y183074D01*
X180367Y180941D02*
Y179875D01*
X180901Y179342D01*
X182500D01*
Y180941D01*
X181967Y181475D01*
X181434Y180941D01*
Y179342D01*
X183566Y177209D02*
Y176676D01*
X183033Y176143D01*
X180367D01*
Y177743D01*
X180901Y178276D01*
X181967D01*
X182500Y177743D01*
Y176143D01*
Y173477D02*
Y174543D01*
X181967Y175077D01*
X180901D01*
X180367Y174543D01*
Y173477D01*
X180901Y172944D01*
X181434D01*
Y175077D01*
X180367Y171878D02*
Y171344D01*
X180901D01*
Y171878D01*
X180367D01*
X181967D02*
Y171344D01*
X182500D01*
Y171878D01*
X181967D01*
X179301Y163880D02*
Y166013D01*
X180901D01*
X180367Y164947D01*
Y164413D01*
X180901Y163880D01*
X181967D01*
X182500Y164413D01*
Y165480D01*
X181967Y166013D01*
X180367Y162814D02*
X182500Y161748D01*
X180367Y160681D01*
X297000Y242500D02*
Y245499D01*
X295500D01*
X295001Y244999D01*
Y244000D01*
X295500Y243500D01*
X297000D01*
X294001Y243000D02*
X293501Y242500D01*
X292501D01*
X292002Y243000D01*
Y244999D01*
X292501Y245499D01*
X293501D01*
X294001Y244999D01*
Y244499D01*
X293501Y244000D01*
X292002D01*
X291002Y243500D02*
X289003D01*
X291002Y244499D02*
X289003D01*
X288003Y242500D02*
Y245499D01*
X286503D01*
X286004Y244999D01*
Y244000D01*
X286503Y243500D01*
X288003D01*
X285004Y245499D02*
Y242500D01*
X283504D01*
X283004Y243000D01*
Y244999D01*
X283504Y245499D01*
X285004D01*
X282005Y242500D02*
X281005D01*
X281505D01*
Y245499D01*
X282005Y244999D01*
X278006Y242500D02*
Y245499D01*
X279506Y244000D01*
X277506D01*
X276507Y242500D02*
X274507Y244499D01*
X271508Y244999D02*
X272008Y245499D01*
X273008D01*
X273508Y244999D01*
Y244499D01*
X273008Y244000D01*
X272008D01*
X271508Y243500D01*
Y243000D01*
X272008Y242500D01*
X273008D01*
X273508Y243000D01*
X268509Y245499D02*
X270509D01*
Y242500D01*
X268509D01*
X270509Y244000D02*
X269509D01*
X267510Y242500D02*
Y245499D01*
X266010D01*
X265510Y244999D01*
Y244000D01*
X266010Y243500D01*
X267510D01*
X266510D02*
X265510Y242500D01*
X264510Y245499D02*
Y243500D01*
X263511Y242500D01*
X262511Y243500D01*
Y245499D01*
X260012D02*
X261012D01*
X261511Y244999D01*
Y243000D01*
X261012Y242500D01*
X260012D01*
X259512Y243000D01*
Y244999D01*
X260012Y245499D01*
X258512Y244999D02*
X258013Y245499D01*
X257013D01*
X256513Y244999D01*
Y244499D01*
X257013Y244000D01*
X257513D01*
X257013D01*
X256513Y243500D01*
Y243000D01*
X257013Y242500D01*
X258013D01*
X258512Y243000D01*
D15*
X269886Y289216D02*
X271835Y291165D01*
X273784Y293114D01*
X268495Y291165D02*
X271835D01*
X268495D02*
X271835Y294505D01*
Y291165D02*
Y294505D01*
X186716Y293114D02*
X188665Y291165D01*
X190614Y289216D01*
X188665Y291165D02*
Y294505D01*
X192005Y291165D01*
X188665D02*
X192005D01*
D91*
X181792Y267408D02*
G03*
X181792Y267408I-492J0D01*
G01*
D92*
X204748Y215500D02*
G03*
X204748Y215500I-707J0D01*
G01*
M02*
