G04*
G04 #@! TF.GenerationSoftware,Altium Limited,Altium Designer,19.0.4 (130)*
G04*
G04 Layer_Color=16711935*
%FSLAX24Y24*%
%MOIN*%
G70*
G01*
G75*
%ADD30R,0.0400X0.0430*%
%ADD36R,0.0430X0.0400*%
%ADD42R,0.0641X0.1231*%
%ADD43C,0.0483*%
%ADD44C,0.0641*%
%ADD45C,0.0759*%
%ADD46R,0.0641X0.0641*%
%ADD47C,0.0680*%
%ADD48O,0.0759X0.0522*%
%ADD49R,0.0641X0.0641*%
%ADD50C,0.0286*%
%ADD51C,0.0650*%
%ADD52C,0.0680*%
%ADD53R,0.0837X0.0601*%
%ADD54O,0.0837X0.0601*%
%ADD55C,0.0550*%
%ADD56R,0.0550X0.0550*%
%ADD57R,0.0680X0.0680*%
%ADD58C,0.1231*%
%ADD84O,0.2412X0.1034*%
G04:AMPARAMS|DCode=85|XSize=103.4mil|YSize=241.2mil|CornerRadius=0mil|HoleSize=0mil|Usage=FLASHONLY|Rotation=90.000|XOffset=0mil|YOffset=0mil|HoleType=Round|Shape=Octagon|*
%AMOCTAGOND85*
4,1,8,-0.1206,-0.0259,-0.1206,0.0259,-0.0948,0.0517,0.0948,0.0517,0.1206,0.0259,0.1206,-0.0259,0.0948,-0.0517,-0.0948,-0.0517,-0.1206,-0.0259,0.0*
%
%ADD85OCTAGOND85*%

%ADD86O,0.0286X0.0759*%
D30*
X18904Y16350D02*
D03*
Y15660D02*
D03*
X19667Y16350D02*
D03*
Y15660D02*
D03*
X20435Y16350D02*
D03*
Y15660D02*
D03*
X21228Y16350D02*
D03*
Y15660D02*
D03*
X26200Y18800D02*
D03*
Y19490D02*
D03*
D36*
X5660Y8150D02*
D03*
X6350D02*
D03*
X6340Y8980D02*
D03*
X5650D02*
D03*
X2360Y4200D02*
D03*
X3050D02*
D03*
X3040Y5000D02*
D03*
X2350D02*
D03*
X25200Y19500D02*
D03*
X24510D02*
D03*
X7910Y16050D02*
D03*
X8600D02*
D03*
X25350Y32550D02*
D03*
X26040D02*
D03*
D42*
X4400Y11100D02*
D03*
X6400D02*
D03*
D43*
X34176Y35800D02*
D03*
D44*
X31223Y35810D02*
D03*
X10843Y29528D02*
D03*
X9843Y28528D02*
D03*
X10843D02*
D03*
X9843Y27528D02*
D03*
X10843D02*
D03*
X9843Y26528D02*
D03*
X10843D02*
D03*
X9843Y25528D02*
D03*
X10843D02*
D03*
X9843Y24528D02*
D03*
X10843D02*
D03*
X9843Y23528D02*
D03*
X10843D02*
D03*
X9843Y22528D02*
D03*
X10843D02*
D03*
X9843Y21528D02*
D03*
X10843D02*
D03*
X9843Y20528D02*
D03*
X10843D02*
D03*
X9843Y19528D02*
D03*
X10843D02*
D03*
X9843Y18528D02*
D03*
X10843D02*
D03*
X9843Y17528D02*
D03*
X10843D02*
D03*
X9843Y16528D02*
D03*
X10843D02*
D03*
X9843Y15528D02*
D03*
X10843D02*
D03*
X9843Y14528D02*
D03*
X10843D02*
D03*
X9843Y13528D02*
D03*
X10843D02*
D03*
X9843Y12528D02*
D03*
X10843D02*
D03*
X9843Y11528D02*
D03*
X10843D02*
D03*
X9843Y10528D02*
D03*
X10843D02*
D03*
X17700Y36530D02*
D03*
X20700D02*
D03*
X19700D02*
D03*
X18700D02*
D03*
X7750Y7122D02*
D03*
Y6122D02*
D03*
X6750Y7122D02*
D03*
Y6122D02*
D03*
X5750Y7122D02*
D03*
X30528Y10528D02*
D03*
X29528D02*
D03*
X30528Y11528D02*
D03*
X29528D02*
D03*
X30528Y12528D02*
D03*
X29528D02*
D03*
X30528Y13528D02*
D03*
X29528D02*
D03*
X30528Y14528D02*
D03*
X29528D02*
D03*
X30528Y15528D02*
D03*
X29528D02*
D03*
X30528Y16528D02*
D03*
X29528D02*
D03*
X30528Y17528D02*
D03*
X29528D02*
D03*
X30528Y18528D02*
D03*
X29528D02*
D03*
X30528Y19528D02*
D03*
X29528D02*
D03*
X30528Y20528D02*
D03*
X29528D02*
D03*
X30528Y21528D02*
D03*
X29528D02*
D03*
X30528Y22528D02*
D03*
X29528D02*
D03*
X30528Y23528D02*
D03*
X29528D02*
D03*
X30528Y24528D02*
D03*
X29528D02*
D03*
X30528Y25528D02*
D03*
X29528D02*
D03*
X30528Y26528D02*
D03*
X29528D02*
D03*
X30528Y27528D02*
D03*
X29528D02*
D03*
X30528Y28528D02*
D03*
X29528D02*
D03*
X30528Y29528D02*
D03*
X20250Y7050D02*
D03*
X21250D02*
D03*
D45*
X21506Y29900D02*
D03*
X20506D02*
D03*
X19506D02*
D03*
X18506D02*
D03*
X13950Y5200D02*
D03*
X12950D02*
D03*
X11950D02*
D03*
X10950D02*
D03*
X34900Y14697D02*
D03*
Y13697D02*
D03*
Y12697D02*
D03*
Y11697D02*
D03*
X36050Y31100D02*
D03*
Y32100D02*
D03*
X37050D02*
D03*
Y31100D02*
D03*
X34050D02*
D03*
Y32100D02*
D03*
X35050Y31100D02*
D03*
Y32100D02*
D03*
X36650Y6800D02*
D03*
X35650Y7800D02*
D03*
X36650D02*
D03*
X35650Y6800D02*
D03*
Y5800D02*
D03*
X36650D02*
D03*
X16650Y11742D02*
D03*
Y10742D02*
D03*
Y12742D02*
D03*
Y13742D02*
D03*
Y14742D02*
D03*
Y9742D02*
D03*
X10950Y6200D02*
D03*
Y7200D02*
D03*
X12950Y6200D02*
D03*
Y7200D02*
D03*
X13950Y6200D02*
D03*
Y7200D02*
D03*
X11950Y6200D02*
D03*
Y7200D02*
D03*
X35900Y15697D02*
D03*
Y10697D02*
D03*
Y11697D02*
D03*
Y12697D02*
D03*
Y14697D02*
D03*
Y13697D02*
D03*
X35850Y21850D02*
D03*
Y20850D02*
D03*
Y19850D02*
D03*
Y18850D02*
D03*
X2250Y10350D02*
D03*
X3250D02*
D03*
Y9350D02*
D03*
X2250Y8350D02*
D03*
X3250D02*
D03*
X2250Y9350D02*
D03*
Y14350D02*
D03*
X3250D02*
D03*
Y13350D02*
D03*
X2250Y12350D02*
D03*
X3250D02*
D03*
X2250Y13350D02*
D03*
D46*
X9843Y29528D02*
D03*
X29528D02*
D03*
D47*
X4228Y23278D02*
D03*
Y22491D02*
D03*
Y21703D02*
D03*
X6000D02*
D03*
Y22491D02*
D03*
Y23278D02*
D03*
X1378Y18627D02*
D03*
Y17840D02*
D03*
Y17053D02*
D03*
X3150D02*
D03*
Y17840D02*
D03*
Y18627D02*
D03*
D48*
X996Y21042D02*
D03*
X996Y23857D02*
D03*
X2355Y23858D02*
D03*
X2355Y21043D02*
D03*
D49*
X21700Y36530D02*
D03*
X5750Y6122D02*
D03*
X19250Y7050D02*
D03*
D50*
X24150Y12800D02*
D03*
Y13300D02*
D03*
D51*
X17050Y28900D02*
D03*
X18050D02*
D03*
X19050D02*
D03*
X20050D02*
D03*
X21050D02*
D03*
X22050D02*
D03*
X23050D02*
D03*
X5417Y35550D02*
D03*
X7583D02*
D03*
D52*
X21765Y12943D02*
D03*
X19835D02*
D03*
X28350Y34750D02*
D03*
Y33800D02*
D03*
D53*
X35850Y28068D02*
D03*
D54*
Y27084D02*
D03*
Y26100D02*
D03*
Y25116D02*
D03*
D55*
X9950Y36950D02*
D03*
D56*
X10950D02*
D03*
D57*
X25350Y34750D02*
D03*
Y33800D02*
D03*
D58*
X1969Y37402D02*
D03*
X37402D02*
D03*
Y1969D02*
D03*
X1969Y1969D02*
D03*
D84*
X36085Y35800D02*
D03*
D85*
X29314D02*
D03*
D86*
X24700Y23285D02*
D03*
X25200D02*
D03*
X25700D02*
D03*
X26200D02*
D03*
X24700Y20450D02*
D03*
X25200D02*
D03*
X25700D02*
D03*
X26200D02*
D03*
M02*
