G04*
G04 #@! TF.GenerationSoftware,Altium Limited,Altium Designer,19.0.4 (130)*
G04*
G04 Layer_Color=255*
%FSLAX24Y24*%
%MOIN*%
G70*
G01*
G75*
%ADD17R,0.0350X0.0380*%
%ADD18R,0.0386X0.0366*%
%ADD19R,0.0500X0.0600*%
%ADD20R,0.0551X0.0157*%
%ADD21R,0.0748X0.0669*%
%ADD22R,0.1024X0.0906*%
%ADD23R,0.0380X0.0350*%
%ADD24R,0.0394X0.0236*%
%ADD25R,0.0866X0.0299*%
%ADD26R,0.0866X0.1181*%
%ADD27O,0.0118X0.0610*%
%ADD28O,0.0610X0.0118*%
%ADD29R,0.0591X0.1181*%
%ADD64C,0.0433*%
%ADD65C,0.0591*%
%ADD66C,0.0709*%
%ADD67R,0.0591X0.0591*%
%ADD68C,0.0630*%
%ADD69O,0.0709X0.0472*%
%ADD70R,0.0591X0.0591*%
%ADD71C,0.0236*%
%ADD72C,0.0600*%
%ADD73C,0.0630*%
%ADD74R,0.0787X0.0551*%
%ADD75O,0.0787X0.0551*%
%ADD76C,0.0500*%
%ADD77R,0.0500X0.0500*%
%ADD78R,0.0630X0.0630*%
%ADD79C,0.1181*%
D17*
X994Y28670D02*
D03*
Y27980D02*
D03*
X6918Y28623D02*
D03*
Y27933D02*
D03*
X5453Y28623D02*
D03*
Y27933D02*
D03*
X3988Y28637D02*
D03*
Y27947D02*
D03*
X2500Y28670D02*
D03*
Y27980D02*
D03*
X6650Y13046D02*
D03*
Y13736D02*
D03*
X19250Y8194D02*
D03*
Y8884D02*
D03*
X20000D02*
D03*
Y8194D02*
D03*
X1150Y10550D02*
D03*
Y9860D02*
D03*
Y14560D02*
D03*
Y13870D02*
D03*
X15698Y19740D02*
D03*
Y19050D02*
D03*
X22550Y16367D02*
D03*
Y17036D02*
D03*
D18*
X1700Y27997D02*
D03*
Y28603D02*
D03*
X7600Y27947D02*
D03*
Y28553D02*
D03*
X6150Y27947D02*
D03*
Y28553D02*
D03*
X4700Y27947D02*
D03*
Y28553D02*
D03*
X3200Y27997D02*
D03*
Y28603D02*
D03*
X1150Y9100D02*
D03*
Y8494D02*
D03*
Y13100D02*
D03*
Y12494D02*
D03*
D19*
X5700Y13650D02*
D03*
Y12550D02*
D03*
X7900Y16050D02*
D03*
Y14950D02*
D03*
D20*
X2158Y21938D02*
D03*
Y22194D02*
D03*
Y22450D02*
D03*
Y22706D02*
D03*
Y22962D02*
D03*
D21*
X8231Y3200D02*
D03*
X4924D02*
D03*
X22174Y2300D02*
D03*
X25481D02*
D03*
X33976Y2300D02*
D03*
X30669D02*
D03*
X29726Y4550D02*
D03*
X26419D02*
D03*
X33976D02*
D03*
X30669D02*
D03*
X22174Y4550D02*
D03*
X25481D02*
D03*
X26424Y6700D02*
D03*
X29731D02*
D03*
D22*
X27100Y13050D02*
D03*
D23*
X24740Y24250D02*
D03*
X24050D02*
D03*
X24740Y25050D02*
D03*
X24050D02*
D03*
X21740Y8250D02*
D03*
X21050D02*
D03*
X26490Y14450D02*
D03*
X25800D02*
D03*
X24260D02*
D03*
X24950D02*
D03*
X21690Y16278D02*
D03*
X21000D02*
D03*
X21690Y17050D02*
D03*
X21000D02*
D03*
X21890Y14450D02*
D03*
X21200D02*
D03*
X19610D02*
D03*
X20300D02*
D03*
X11650Y34774D02*
D03*
X10960D02*
D03*
X11650Y35850D02*
D03*
X10960D02*
D03*
X16390Y25950D02*
D03*
X15700D02*
D03*
X24490Y19931D02*
D03*
X23800D02*
D03*
X15710Y24950D02*
D03*
X16400D02*
D03*
D24*
X10053Y34076D02*
D03*
Y34824D02*
D03*
X9147Y34450D02*
D03*
D25*
X5389Y17869D02*
D03*
Y18775D02*
D03*
Y16964D02*
D03*
D26*
X7711Y17869D02*
D03*
D27*
X17538Y18849D02*
D03*
X17735D02*
D03*
X17931D02*
D03*
X18128D02*
D03*
X18325D02*
D03*
X18522D02*
D03*
X18719D02*
D03*
X18916D02*
D03*
X19113D02*
D03*
X19309D02*
D03*
X19506D02*
D03*
X19703D02*
D03*
X19900D02*
D03*
X20097D02*
D03*
X20294D02*
D03*
X20491D02*
D03*
X20687D02*
D03*
X20884D02*
D03*
X21081D02*
D03*
X21278D02*
D03*
X21475D02*
D03*
X21672D02*
D03*
X21869D02*
D03*
X22065D02*
D03*
X22262D02*
D03*
Y24951D02*
D03*
X22065D02*
D03*
X21869D02*
D03*
X21672D02*
D03*
X21475D02*
D03*
X21278D02*
D03*
X21081D02*
D03*
X20884D02*
D03*
X20687D02*
D03*
X20491D02*
D03*
X20294D02*
D03*
X20097D02*
D03*
X19900D02*
D03*
X19703D02*
D03*
X19506D02*
D03*
X19309D02*
D03*
X19113D02*
D03*
X18916D02*
D03*
X18719D02*
D03*
X18522D02*
D03*
X18325D02*
D03*
X18128D02*
D03*
X17931D02*
D03*
X17735D02*
D03*
X17538D02*
D03*
D28*
X22951Y19538D02*
D03*
Y19735D02*
D03*
Y19931D02*
D03*
Y20128D02*
D03*
Y20325D02*
D03*
Y20522D02*
D03*
Y20719D02*
D03*
Y20916D02*
D03*
Y21113D02*
D03*
Y21309D02*
D03*
Y21506D02*
D03*
Y21703D02*
D03*
Y21900D02*
D03*
Y22097D02*
D03*
Y22294D02*
D03*
Y22491D02*
D03*
Y22687D02*
D03*
Y22884D02*
D03*
Y23081D02*
D03*
Y23278D02*
D03*
Y23475D02*
D03*
Y23672D02*
D03*
Y23869D02*
D03*
Y24065D02*
D03*
Y24262D02*
D03*
X16849D02*
D03*
Y24065D02*
D03*
Y23869D02*
D03*
Y23672D02*
D03*
Y23475D02*
D03*
Y23278D02*
D03*
Y23081D02*
D03*
Y22884D02*
D03*
Y22687D02*
D03*
Y22491D02*
D03*
Y22294D02*
D03*
Y22097D02*
D03*
Y21900D02*
D03*
Y21703D02*
D03*
Y21506D02*
D03*
Y21309D02*
D03*
Y21113D02*
D03*
Y20916D02*
D03*
Y20719D02*
D03*
Y20522D02*
D03*
Y20325D02*
D03*
Y20128D02*
D03*
Y19931D02*
D03*
Y19735D02*
D03*
Y19538D02*
D03*
D29*
X4600Y15200D02*
D03*
X6600D02*
D03*
D64*
X34176Y35800D02*
D03*
D65*
X31223Y35810D02*
D03*
X10843Y29528D02*
D03*
X9843Y28528D02*
D03*
X10843D02*
D03*
X9843Y27528D02*
D03*
X10843D02*
D03*
X9843Y26528D02*
D03*
X10843D02*
D03*
X9843Y25528D02*
D03*
X10843D02*
D03*
X9843Y24528D02*
D03*
X10843D02*
D03*
X9843Y23528D02*
D03*
X10843D02*
D03*
X9843Y22528D02*
D03*
X10843D02*
D03*
X9843Y21528D02*
D03*
X10843D02*
D03*
X9843Y20528D02*
D03*
X10843D02*
D03*
X9843Y19528D02*
D03*
X10843D02*
D03*
X9843Y18528D02*
D03*
X10843D02*
D03*
X9843Y17528D02*
D03*
X10843D02*
D03*
X9843Y16528D02*
D03*
X10843D02*
D03*
X9843Y15528D02*
D03*
X10843D02*
D03*
X9843Y14528D02*
D03*
X10843D02*
D03*
X9843Y13528D02*
D03*
X10843D02*
D03*
X9843Y12528D02*
D03*
X10843D02*
D03*
X9843Y11528D02*
D03*
X10843D02*
D03*
X9843Y10528D02*
D03*
X10843D02*
D03*
X17700Y36530D02*
D03*
X20700D02*
D03*
X19700D02*
D03*
X18700D02*
D03*
X7750Y7122D02*
D03*
Y6122D02*
D03*
X6750Y7122D02*
D03*
Y6122D02*
D03*
X5750Y7122D02*
D03*
X30528Y10528D02*
D03*
X29528D02*
D03*
X30528Y11528D02*
D03*
X29528D02*
D03*
X30528Y12528D02*
D03*
X29528D02*
D03*
X30528Y13528D02*
D03*
X29528D02*
D03*
X30528Y14528D02*
D03*
X29528D02*
D03*
X30528Y15528D02*
D03*
X29528D02*
D03*
X30528Y16528D02*
D03*
X29528D02*
D03*
X30528Y17528D02*
D03*
X29528D02*
D03*
X30528Y18528D02*
D03*
X29528D02*
D03*
X30528Y19528D02*
D03*
X29528D02*
D03*
X30528Y20528D02*
D03*
X29528D02*
D03*
X30528Y21528D02*
D03*
X29528D02*
D03*
X30528Y22528D02*
D03*
X29528D02*
D03*
X30528Y23528D02*
D03*
X29528D02*
D03*
X30528Y24528D02*
D03*
X29528D02*
D03*
X30528Y25528D02*
D03*
X29528D02*
D03*
X30528Y26528D02*
D03*
X29528D02*
D03*
X30528Y27528D02*
D03*
X29528D02*
D03*
X30528Y28528D02*
D03*
X29528D02*
D03*
X30528Y29528D02*
D03*
X20250Y7050D02*
D03*
X21250D02*
D03*
D66*
X21506Y29900D02*
D03*
X20506D02*
D03*
X19506D02*
D03*
X18506D02*
D03*
X13950Y5200D02*
D03*
X12950D02*
D03*
X11950D02*
D03*
X10950D02*
D03*
X34900Y14697D02*
D03*
Y13697D02*
D03*
Y12697D02*
D03*
Y11697D02*
D03*
X36050Y31100D02*
D03*
Y32100D02*
D03*
X37050D02*
D03*
Y31100D02*
D03*
X34050D02*
D03*
Y32100D02*
D03*
X35050Y31100D02*
D03*
Y32100D02*
D03*
X36650Y6800D02*
D03*
X35650Y7800D02*
D03*
X36650D02*
D03*
X35650Y6800D02*
D03*
Y5800D02*
D03*
X36650D02*
D03*
X16650Y11742D02*
D03*
Y10742D02*
D03*
Y12742D02*
D03*
Y13742D02*
D03*
Y14742D02*
D03*
Y9742D02*
D03*
X10950Y6200D02*
D03*
Y7200D02*
D03*
X12950Y6200D02*
D03*
Y7200D02*
D03*
X13950Y6200D02*
D03*
Y7200D02*
D03*
X11950Y6200D02*
D03*
Y7200D02*
D03*
X35900Y15697D02*
D03*
Y10697D02*
D03*
Y11697D02*
D03*
Y12697D02*
D03*
Y14697D02*
D03*
Y13697D02*
D03*
X35850Y21850D02*
D03*
Y20850D02*
D03*
Y19850D02*
D03*
Y18850D02*
D03*
X2250Y10350D02*
D03*
X3250D02*
D03*
Y9350D02*
D03*
X2250Y8350D02*
D03*
X3250D02*
D03*
X2250Y9350D02*
D03*
Y14350D02*
D03*
X3250D02*
D03*
Y13350D02*
D03*
X2250Y12350D02*
D03*
X3250D02*
D03*
X2250Y13350D02*
D03*
D67*
X9843Y29528D02*
D03*
X29528D02*
D03*
D68*
X4228Y23278D02*
D03*
Y22491D02*
D03*
Y21703D02*
D03*
X6000D02*
D03*
Y22491D02*
D03*
Y23278D02*
D03*
X1378Y18627D02*
D03*
Y17840D02*
D03*
Y17053D02*
D03*
X3150D02*
D03*
Y17840D02*
D03*
Y18627D02*
D03*
D69*
X996Y21042D02*
D03*
X996Y23857D02*
D03*
X2355Y23858D02*
D03*
X2355Y21043D02*
D03*
D70*
X21700Y36530D02*
D03*
X5750Y6122D02*
D03*
X19250Y7050D02*
D03*
D71*
X24150Y12800D02*
D03*
Y13300D02*
D03*
D72*
X17050Y28900D02*
D03*
X18050D02*
D03*
X19050D02*
D03*
X20050D02*
D03*
X21050D02*
D03*
X22050D02*
D03*
X23050D02*
D03*
X5417Y35550D02*
D03*
X7583D02*
D03*
D73*
X21765Y12943D02*
D03*
X19835D02*
D03*
X28350Y34750D02*
D03*
Y33800D02*
D03*
D74*
X35850Y28068D02*
D03*
D75*
Y27084D02*
D03*
Y26100D02*
D03*
Y25116D02*
D03*
D76*
X9950Y36950D02*
D03*
D77*
X10950D02*
D03*
D78*
X25350Y34750D02*
D03*
Y33800D02*
D03*
D79*
X1969Y37402D02*
D03*
X37402D02*
D03*
Y1969D02*
D03*
X1969Y1969D02*
D03*
M02*
