M48
;Layer_Color=9474304
;FILE_FORMAT=2:5
INCH,LZ
;TYPE=PLATED
T1F00S00C0.01200
T2F00S00C0.01417
T3F00S00C0.02756
T5F00S00C0.03000
T6F00S00C0.03150
T7F00S00C0.03200
T8F00S00C0.03543
T9F00S00C0.03937
T10F00S00C0.04331
%
T01
X0039881Y003225
X0056Y00472
X0069
X008Y00468
X00895Y00805
X00885Y0089
X0088Y0095216
X0085Y0098
X00879Y01016
X0085Y0134
X0066208Y01235
X00605Y01232
X0044Y01272
Y01316
Y014
Y0144
X00115Y01515
Y0112
X00145Y0059
X00505Y00815
X005Y00898
X0123474Y00996
X0131Y00924
X0139Y00848
X0142Y01212
X01495Y01148
X0134Y01552
X01835Y0138
Y0128
X0194Y01148
X0205826Y0115
X021614Y01204
X0226Y01296
X0224646Y01375
X0220654Y01455
X0236Y0156
X02435Y01515
X02495Y01505
X0258
X02585Y00824
X0244Y00812
X02235Y00825
X02Y0097
X01925Y00965
X01745Y00896
X0182Y0082
X0198Y00466
X0202Y0044
X02055Y0041
X0207842Y0038
X0214Y00345
X0206Y00495
X02745Y00812
X0287Y0082
X03005Y00809
X0193833Y0143757
X0313Y01324
X03205Y0137423
X03235Y013
X0313Y01152
X03315Y0112
X03365Y01145
X0339Y0117
X03185Y00804
X03155Y01588
Y0165
X03145Y01856
X0315Y0196
X03145Y02052
X03365Y0234
Y02408
Y02488
X0337Y02556
X0367Y02505
Y02025
X03485Y02864
X0349Y02936
X0341Y0294
Y02868
X03155Y03085
X03125Y0311
X0286596Y02936
X0286611Y02896
X0269583Y028
X0263Y02528
Y024883
Y02445
X02675Y02388
X0257Y02395
X0248062Y02456
X02731Y0249
X0278Y0246
X02865Y0244
X0248004Y01984
X0241798Y01985
X0241Y01936
X02445
X02545Y0188
X0258Y0183001
X02615Y01792
X0264966Y0176
X0213Y01755
X0209Y01712
X0210811Y0194811
X0213724Y01974
X0213Y0201
X02194Y02011
X0223Y0198031
X02155Y0206
X02095Y0204
X0207Y02095
X02105Y02241
X0212779Y02275
X0191Y0225
X0179315Y023
X0180783Y02335
X0181283Y0237
X0182824Y024
X0175378Y0243122
X01605Y0245
X0177Y02615
X0203Y0268726
X0193Y0242
X0175378Y02175
X018Y0212
X017511Y0204
X0179315Y01995
X0185221Y0197221
X0190475Y01979
X01935Y02
Y01815
X0168084Y01808
X01635Y0207189
X02255Y0157863
X01395Y01612
X0151Y01788
X0151722Y01905
X0086Y01796
Y01764
Y01728
Y01688
X00475Y01776
Y018
Y01824
X0091472Y0227059
X0086Y0254
X0069183Y02925
X005453
X0039881
X0025Y0293
X0009937
X0007155Y02632
X0016937
X0026718
X00365
X0145Y0266626
X01305Y02896
Y03032
X013Y0314
X01305Y03264
X01665Y03328
Y03444
X01935Y0313
X01975Y03155
X02535Y0316
X0236Y03368
X02355Y03488
X02835Y0326
X02975
X03545Y03365
T02
X02415Y0128
Y0133
T03
X0198354Y0129429
X0217646
T05
X01705Y0289
X01805
X01905
X02005
X02105
X02205
X02305
X0075827Y03555
X0054173
T06
X02535Y0338
Y03475
X02835
Y0338
T07
X00995Y03695
X01095
T08
X00575Y0061223
X00675
X00775
Y0071223
X00675
X00575
X0098425Y0105276
Y0115276
Y0125276
Y0135276
Y0145276
Y0155276
X0108425
Y0145276
Y0135276
Y0125276
Y0115276
Y0105276
X01925Y00705
X02025
X02125
X0295276Y0105276
X0305276
Y0115276
X0295276
Y0125276
X0305276
Y0135276
X0295276
Y0145276
X0305276
Y0155276
X0295276
Y0165276
X0305276
Y0175276
X0295276
Y0185276
X0305276
Y0195276
X0295276
Y0205276
X0305276
Y0215276
X0295276
Y0225276
X0305276
Y0235276
X0295276
Y0245276
X0305276
Y0255276
X0295276
Y0265276
X0305276
Y0275276
X0295276
Y0285276
X0305276
Y0295276
X0295276
X0108425
X0098425
Y0285276
X0108425
Y0275276
X0098425
Y0265276
X0108425
Y0255276
X0098425
Y0245276
X0108425
Y0235276
X0098425
Y0225276
X0108425
Y0215276
X0098425
Y0205276
X0108425
Y0195276
X0098425
Y0185276
X0108425
Y0175276
X0098425
Y0165276
X0108425
X0177Y0365297
X0187
X0197
X0207
X0217
T09
X00225Y00835
X00325
Y00935
Y01035
X00225
Y00935
Y01235
X00325
Y01335
Y01435
X00225
Y01335
X01095Y0072
Y0062
Y0052
X01195
X01295
X01395
Y0062
X01295
Y0072
X01395
X01195
Y0062
X01665Y0097423
Y0107423
Y0117423
Y0127423
Y0137423
Y0147423
X0349Y0146969
Y0136969
Y0126969
Y0116969
X0359
Y0106969
Y0126969
Y0136969
Y0146969
X03565Y0078
X03665
Y0068
X03565
Y0058
X03665
X0359Y0156969
X03585Y01885
Y01985
Y02085
Y02185
Y0251157
Y0261
Y0270843
Y0280685
X03605Y0311
X03705
X03505
X03405
X0215063Y0299
X0205063
X0195063
X0185063
X03405Y0321
X03505
X03605
X03705
T10
X0013784Y0170526
Y01784
Y0186274
X00315
Y01784
Y0170526
X0042284Y0217032
Y0224905
Y023278
X006
Y0224905
Y0217032
M30
