G04*
G04 #@! TF.GenerationSoftware,Altium Limited,Altium Designer,19.0.4 (130)*
G04*
G04 Layer_Color=2752767*
%FSLAX24Y24*%
%MOIN*%
G70*
G01*
G75*
%ADD93C,0.0020*%
%ADD94C,0.0027*%
%ADD95C,0.0013*%
D93*
X34096Y35720D02*
Y35880D01*
X34256D01*
Y35720D01*
X34096D01*
X21506Y29820D02*
X21426Y29980D01*
X21586D01*
X21506Y29820D01*
X20506D02*
X20426Y29980D01*
X20586D01*
X20506Y29820D01*
X19506D02*
X19426Y29980D01*
X19586D01*
X19506Y29820D01*
X18506D02*
X18426Y29980D01*
X18586D01*
X18506Y29820D01*
X13950Y5120D02*
X13870Y5280D01*
X14030D01*
X13950Y5120D01*
X12950D02*
X12870Y5280D01*
X13030D01*
X12950Y5120D01*
X11950D02*
X11870Y5280D01*
X12030D01*
X11950Y5120D01*
X10950D02*
X10870Y5280D01*
X11030D01*
X10950Y5120D01*
X9843Y29448D02*
X9883Y29488D01*
X9923D01*
X9883Y29528D01*
X9923Y29568D01*
X9883D01*
X9843Y29608D01*
X9803Y29568D01*
X9763D01*
X9803Y29528D01*
X9763Y29488D01*
X9803D01*
X9843Y29448D01*
X10843D02*
X10883Y29488D01*
X10923D01*
X10883Y29528D01*
X10923Y29568D01*
X10883D01*
X10843Y29608D01*
X10803Y29568D01*
X10763D01*
X10803Y29528D01*
X10763Y29488D01*
X10803D01*
X10843Y29448D01*
X9843Y28448D02*
X9883Y28488D01*
X9923D01*
X9883Y28528D01*
X9923Y28568D01*
X9883D01*
X9843Y28608D01*
X9803Y28568D01*
X9763D01*
X9803Y28528D01*
X9763Y28488D01*
X9803D01*
X9843Y28448D01*
X10843D02*
X10883Y28488D01*
X10923D01*
X10883Y28528D01*
X10923Y28568D01*
X10883D01*
X10843Y28608D01*
X10803Y28568D01*
X10763D01*
X10803Y28528D01*
X10763Y28488D01*
X10803D01*
X10843Y28448D01*
X9843Y27448D02*
X9883Y27488D01*
X9923D01*
X9883Y27528D01*
X9923Y27568D01*
X9883D01*
X9843Y27608D01*
X9803Y27568D01*
X9763D01*
X9803Y27528D01*
X9763Y27488D01*
X9803D01*
X9843Y27448D01*
X10843D02*
X10883Y27488D01*
X10923D01*
X10883Y27528D01*
X10923Y27568D01*
X10883D01*
X10843Y27608D01*
X10803Y27568D01*
X10763D01*
X10803Y27528D01*
X10763Y27488D01*
X10803D01*
X10843Y27448D01*
X9843Y26448D02*
X9883Y26488D01*
X9923D01*
X9883Y26528D01*
X9923Y26568D01*
X9883D01*
X9843Y26608D01*
X9803Y26568D01*
X9763D01*
X9803Y26528D01*
X9763Y26488D01*
X9803D01*
X9843Y26448D01*
X10843D02*
X10883Y26488D01*
X10923D01*
X10883Y26528D01*
X10923Y26568D01*
X10883D01*
X10843Y26608D01*
X10803Y26568D01*
X10763D01*
X10803Y26528D01*
X10763Y26488D01*
X10803D01*
X10843Y26448D01*
X9843Y25448D02*
X9883Y25488D01*
X9923D01*
X9883Y25528D01*
X9923Y25568D01*
X9883D01*
X9843Y25608D01*
X9803Y25568D01*
X9763D01*
X9803Y25528D01*
X9763Y25488D01*
X9803D01*
X9843Y25448D01*
X10843D02*
X10883Y25488D01*
X10923D01*
X10883Y25528D01*
X10923Y25568D01*
X10883D01*
X10843Y25608D01*
X10803Y25568D01*
X10763D01*
X10803Y25528D01*
X10763Y25488D01*
X10803D01*
X10843Y25448D01*
X9843Y24448D02*
X9883Y24488D01*
X9923D01*
X9883Y24528D01*
X9923Y24568D01*
X9883D01*
X9843Y24608D01*
X9803Y24568D01*
X9763D01*
X9803Y24528D01*
X9763Y24488D01*
X9803D01*
X9843Y24448D01*
X10843D02*
X10883Y24488D01*
X10923D01*
X10883Y24528D01*
X10923Y24568D01*
X10883D01*
X10843Y24608D01*
X10803Y24568D01*
X10763D01*
X10803Y24528D01*
X10763Y24488D01*
X10803D01*
X10843Y24448D01*
X9843Y23448D02*
X9883Y23488D01*
X9923D01*
X9883Y23528D01*
X9923Y23568D01*
X9883D01*
X9843Y23608D01*
X9803Y23568D01*
X9763D01*
X9803Y23528D01*
X9763Y23488D01*
X9803D01*
X9843Y23448D01*
X10843D02*
X10883Y23488D01*
X10923D01*
X10883Y23528D01*
X10923Y23568D01*
X10883D01*
X10843Y23608D01*
X10803Y23568D01*
X10763D01*
X10803Y23528D01*
X10763Y23488D01*
X10803D01*
X10843Y23448D01*
X9843Y22448D02*
X9883Y22488D01*
X9923D01*
X9883Y22528D01*
X9923Y22568D01*
X9883D01*
X9843Y22608D01*
X9803Y22568D01*
X9763D01*
X9803Y22528D01*
X9763Y22488D01*
X9803D01*
X9843Y22448D01*
X10843D02*
X10883Y22488D01*
X10923D01*
X10883Y22528D01*
X10923Y22568D01*
X10883D01*
X10843Y22608D01*
X10803Y22568D01*
X10763D01*
X10803Y22528D01*
X10763Y22488D01*
X10803D01*
X10843Y22448D01*
X9843Y21448D02*
X9883Y21488D01*
X9923D01*
X9883Y21528D01*
X9923Y21568D01*
X9883D01*
X9843Y21608D01*
X9803Y21568D01*
X9763D01*
X9803Y21528D01*
X9763Y21488D01*
X9803D01*
X9843Y21448D01*
X10843D02*
X10883Y21488D01*
X10923D01*
X10883Y21528D01*
X10923Y21568D01*
X10883D01*
X10843Y21608D01*
X10803Y21568D01*
X10763D01*
X10803Y21528D01*
X10763Y21488D01*
X10803D01*
X10843Y21448D01*
X9843Y20448D02*
X9883Y20488D01*
X9923D01*
X9883Y20528D01*
X9923Y20568D01*
X9883D01*
X9843Y20608D01*
X9803Y20568D01*
X9763D01*
X9803Y20528D01*
X9763Y20488D01*
X9803D01*
X9843Y20448D01*
X10843D02*
X10883Y20488D01*
X10923D01*
X10883Y20528D01*
X10923Y20568D01*
X10883D01*
X10843Y20608D01*
X10803Y20568D01*
X10763D01*
X10803Y20528D01*
X10763Y20488D01*
X10803D01*
X10843Y20448D01*
X9843Y19448D02*
X9883Y19488D01*
X9923D01*
X9883Y19528D01*
X9923Y19568D01*
X9883D01*
X9843Y19608D01*
X9803Y19568D01*
X9763D01*
X9803Y19528D01*
X9763Y19488D01*
X9803D01*
X9843Y19448D01*
X10843D02*
X10883Y19488D01*
X10923D01*
X10883Y19528D01*
X10923Y19568D01*
X10883D01*
X10843Y19608D01*
X10803Y19568D01*
X10763D01*
X10803Y19528D01*
X10763Y19488D01*
X10803D01*
X10843Y19448D01*
X9843Y18448D02*
X9883Y18488D01*
X9923D01*
X9883Y18528D01*
X9923Y18568D01*
X9883D01*
X9843Y18608D01*
X9803Y18568D01*
X9763D01*
X9803Y18528D01*
X9763Y18488D01*
X9803D01*
X9843Y18448D01*
X10843D02*
X10883Y18488D01*
X10923D01*
X10883Y18528D01*
X10923Y18568D01*
X10883D01*
X10843Y18608D01*
X10803Y18568D01*
X10763D01*
X10803Y18528D01*
X10763Y18488D01*
X10803D01*
X10843Y18448D01*
X9843Y17448D02*
X9883Y17488D01*
X9923D01*
X9883Y17528D01*
X9923Y17568D01*
X9883D01*
X9843Y17608D01*
X9803Y17568D01*
X9763D01*
X9803Y17528D01*
X9763Y17488D01*
X9803D01*
X9843Y17448D01*
X10843D02*
X10883Y17488D01*
X10923D01*
X10883Y17528D01*
X10923Y17568D01*
X10883D01*
X10843Y17608D01*
X10803Y17568D01*
X10763D01*
X10803Y17528D01*
X10763Y17488D01*
X10803D01*
X10843Y17448D01*
X9843Y16448D02*
X9883Y16488D01*
X9923D01*
X9883Y16528D01*
X9923Y16568D01*
X9883D01*
X9843Y16608D01*
X9803Y16568D01*
X9763D01*
X9803Y16528D01*
X9763Y16488D01*
X9803D01*
X9843Y16448D01*
X10843D02*
X10883Y16488D01*
X10923D01*
X10883Y16528D01*
X10923Y16568D01*
X10883D01*
X10843Y16608D01*
X10803Y16568D01*
X10763D01*
X10803Y16528D01*
X10763Y16488D01*
X10803D01*
X10843Y16448D01*
X9843Y15448D02*
X9883Y15488D01*
X9923D01*
X9883Y15528D01*
X9923Y15568D01*
X9883D01*
X9843Y15608D01*
X9803Y15568D01*
X9763D01*
X9803Y15528D01*
X9763Y15488D01*
X9803D01*
X9843Y15448D01*
X10843D02*
X10883Y15488D01*
X10923D01*
X10883Y15528D01*
X10923Y15568D01*
X10883D01*
X10843Y15608D01*
X10803Y15568D01*
X10763D01*
X10803Y15528D01*
X10763Y15488D01*
X10803D01*
X10843Y15448D01*
X9843Y14448D02*
X9883Y14488D01*
X9923D01*
X9883Y14528D01*
X9923Y14568D01*
X9883D01*
X9843Y14608D01*
X9803Y14568D01*
X9763D01*
X9803Y14528D01*
X9763Y14488D01*
X9803D01*
X9843Y14448D01*
X10843D02*
X10883Y14488D01*
X10923D01*
X10883Y14528D01*
X10923Y14568D01*
X10883D01*
X10843Y14608D01*
X10803Y14568D01*
X10763D01*
X10803Y14528D01*
X10763Y14488D01*
X10803D01*
X10843Y14448D01*
X9843Y13448D02*
X9883Y13488D01*
X9923D01*
X9883Y13528D01*
X9923Y13568D01*
X9883D01*
X9843Y13608D01*
X9803Y13568D01*
X9763D01*
X9803Y13528D01*
X9763Y13488D01*
X9803D01*
X9843Y13448D01*
X10843D02*
X10883Y13488D01*
X10923D01*
X10883Y13528D01*
X10923Y13568D01*
X10883D01*
X10843Y13608D01*
X10803Y13568D01*
X10763D01*
X10803Y13528D01*
X10763Y13488D01*
X10803D01*
X10843Y13448D01*
X9843Y12448D02*
X9883Y12488D01*
X9923D01*
X9883Y12528D01*
X9923Y12568D01*
X9883D01*
X9843Y12608D01*
X9803Y12568D01*
X9763D01*
X9803Y12528D01*
X9763Y12488D01*
X9803D01*
X9843Y12448D01*
X10843D02*
X10883Y12488D01*
X10923D01*
X10883Y12528D01*
X10923Y12568D01*
X10883D01*
X10843Y12608D01*
X10803Y12568D01*
X10763D01*
X10803Y12528D01*
X10763Y12488D01*
X10803D01*
X10843Y12448D01*
X9843Y11448D02*
X9883Y11488D01*
X9923D01*
X9883Y11528D01*
X9923Y11568D01*
X9883D01*
X9843Y11608D01*
X9803Y11568D01*
X9763D01*
X9803Y11528D01*
X9763Y11488D01*
X9803D01*
X9843Y11448D01*
X10843D02*
X10883Y11488D01*
X10923D01*
X10883Y11528D01*
X10923Y11568D01*
X10883D01*
X10843Y11608D01*
X10803Y11568D01*
X10763D01*
X10803Y11528D01*
X10763Y11488D01*
X10803D01*
X10843Y11448D01*
X9843Y10448D02*
X9883Y10488D01*
X9923D01*
X9883Y10528D01*
X9923Y10568D01*
X9883D01*
X9843Y10608D01*
X9803Y10568D01*
X9763D01*
X9803Y10528D01*
X9763Y10488D01*
X9803D01*
X9843Y10448D01*
X10843D02*
X10883Y10488D01*
X10923D01*
X10883Y10528D01*
X10923Y10568D01*
X10883D01*
X10843Y10608D01*
X10803Y10568D01*
X10763D01*
X10803Y10528D01*
X10763Y10488D01*
X10803D01*
X10843Y10448D01*
X4148Y23198D02*
X4188Y23278D01*
X4148Y23358D01*
X4228Y23318D01*
X4308Y23358D01*
X4268Y23278D01*
X4308Y23198D01*
X4228Y23238D01*
X4148Y23198D01*
Y22411D02*
X4188Y22491D01*
X4148Y22571D01*
X4228Y22531D01*
X4308Y22571D01*
X4268Y22491D01*
X4308Y22411D01*
X4228Y22451D01*
X4148Y22411D01*
Y21623D02*
X4188Y21703D01*
X4148Y21783D01*
X4228Y21743D01*
X4308Y21783D01*
X4268Y21703D01*
X4308Y21623D01*
X4228Y21663D01*
X4148Y21623D01*
X5920D02*
X5960Y21703D01*
X5920Y21783D01*
X6000Y21743D01*
X6080Y21783D01*
X6040Y21703D01*
X6080Y21623D01*
X6000Y21663D01*
X5920Y21623D01*
Y22411D02*
X5960Y22491D01*
X5920Y22571D01*
X6000Y22531D01*
X6080Y22571D01*
X6040Y22491D01*
X6080Y22411D01*
X6000Y22451D01*
X5920Y22411D01*
Y23198D02*
X5960Y23278D01*
X5920Y23358D01*
X6000Y23318D01*
X6080Y23358D01*
X6040Y23278D01*
X6080Y23198D01*
X6000Y23238D01*
X5920Y23198D01*
X956Y21003D02*
Y20963D01*
X1036D01*
Y21003D01*
X1076D01*
Y21083D01*
X1036D01*
Y21123D01*
X956D01*
Y21083D01*
X916D01*
Y21003D01*
X956D01*
Y23817D02*
Y23777D01*
X1036D01*
Y23817D01*
X1076D01*
Y23897D01*
X1036D01*
Y23937D01*
X956D01*
Y23897D01*
X916D01*
Y23817D01*
X956D01*
X2315D02*
Y23777D01*
X2395D01*
Y23817D01*
X2435D01*
Y23897D01*
X2395D01*
Y23937D01*
X2315D01*
Y23897D01*
X2275D01*
Y23817D01*
X2315D01*
Y21003D02*
Y20963D01*
X2395D01*
Y21003D01*
X2435D01*
Y21083D01*
X2395D01*
Y21123D01*
X2315D01*
Y21083D01*
X2275D01*
Y21003D01*
X2315D01*
X34900Y14617D02*
X34820Y14777D01*
X34980D01*
X34900Y14617D01*
Y13617D02*
X34820Y13777D01*
X34980D01*
X34900Y13617D01*
Y12617D02*
X34820Y12777D01*
X34980D01*
X34900Y12617D01*
Y11617D02*
X34820Y11777D01*
X34980D01*
X34900Y11617D01*
X1298Y18547D02*
X1338Y18627D01*
X1298Y18707D01*
X1378Y18667D01*
X1458Y18707D01*
X1418Y18627D01*
X1458Y18547D01*
X1378Y18587D01*
X1298Y18547D01*
Y17760D02*
X1338Y17840D01*
X1298Y17920D01*
X1378Y17880D01*
X1458Y17920D01*
X1418Y17840D01*
X1458Y17760D01*
X1378Y17800D01*
X1298Y17760D01*
Y16973D02*
X1338Y17053D01*
X1298Y17133D01*
X1378Y17093D01*
X1458Y17133D01*
X1418Y17053D01*
X1458Y16973D01*
X1378Y17013D01*
X1298Y16973D01*
X3070D02*
X3110Y17053D01*
X3070Y17133D01*
X3150Y17093D01*
X3230Y17133D01*
X3190Y17053D01*
X3230Y16973D01*
X3150Y17013D01*
X3070Y16973D01*
Y17760D02*
X3110Y17840D01*
X3070Y17920D01*
X3150Y17880D01*
X3230Y17920D01*
X3190Y17840D01*
X3230Y17760D01*
X3150Y17800D01*
X3070Y17760D01*
Y18547D02*
X3110Y18627D01*
X3070Y18707D01*
X3150Y18667D01*
X3230Y18707D01*
X3190Y18627D01*
X3230Y18547D01*
X3150Y18587D01*
X3070Y18547D01*
X17700Y36450D02*
X17740Y36490D01*
X17780D01*
X17740Y36530D01*
X17780Y36570D01*
X17740D01*
X17700Y36610D01*
X17660Y36570D01*
X17620D01*
X17660Y36530D01*
X17620Y36490D01*
X17660D01*
X17700Y36450D01*
X21700D02*
X21740Y36490D01*
X21780D01*
X21740Y36530D01*
X21780Y36570D01*
X21740D01*
X21700Y36610D01*
X21660Y36570D01*
X21620D01*
X21660Y36530D01*
X21620Y36490D01*
X21660D01*
X21700Y36450D01*
X20700D02*
X20740Y36490D01*
X20780D01*
X20740Y36530D01*
X20780Y36570D01*
X20740D01*
X20700Y36610D01*
X20660Y36570D01*
X20620D01*
X20660Y36530D01*
X20620Y36490D01*
X20660D01*
X20700Y36450D01*
X19700D02*
X19740Y36490D01*
X19780D01*
X19740Y36530D01*
X19780Y36570D01*
X19740D01*
X19700Y36610D01*
X19660Y36570D01*
X19620D01*
X19660Y36530D01*
X19620Y36490D01*
X19660D01*
X19700Y36450D01*
X18700D02*
X18740Y36490D01*
X18780D01*
X18740Y36530D01*
X18780Y36570D01*
X18740D01*
X18700Y36610D01*
X18660Y36570D01*
X18620D01*
X18660Y36530D01*
X18620Y36490D01*
X18660D01*
X18700Y36450D01*
X36050Y31020D02*
X35970Y31180D01*
X36130D01*
X36050Y31020D01*
Y32020D02*
X35970Y32180D01*
X36130D01*
X36050Y32020D01*
X37050D02*
X36970Y32180D01*
X37130D01*
X37050Y32020D01*
Y31020D02*
X36970Y31180D01*
X37130D01*
X37050Y31020D01*
X34050D02*
X33970Y31180D01*
X34130D01*
X34050Y31020D01*
Y32020D02*
X33970Y32180D01*
X34130D01*
X34050Y32020D01*
X35050Y31020D02*
X34970Y31180D01*
X35130D01*
X35050Y31020D01*
Y32020D02*
X34970Y32180D01*
X35130D01*
X35050Y32020D01*
X7750Y7042D02*
X7790Y7082D01*
X7830D01*
X7790Y7122D01*
X7830Y7162D01*
X7790D01*
X7750Y7202D01*
X7710Y7162D01*
X7670D01*
X7710Y7122D01*
X7670Y7082D01*
X7710D01*
X7750Y7042D01*
Y6042D02*
X7790Y6082D01*
X7830D01*
X7790Y6122D01*
X7830Y6162D01*
X7790D01*
X7750Y6202D01*
X7710Y6162D01*
X7670D01*
X7710Y6122D01*
X7670Y6082D01*
X7710D01*
X7750Y6042D01*
X6750Y7042D02*
X6790Y7082D01*
X6830D01*
X6790Y7122D01*
X6830Y7162D01*
X6790D01*
X6750Y7202D01*
X6710Y7162D01*
X6670D01*
X6710Y7122D01*
X6670Y7082D01*
X6710D01*
X6750Y7042D01*
Y6042D02*
X6790Y6082D01*
X6830D01*
X6790Y6122D01*
X6830Y6162D01*
X6790D01*
X6750Y6202D01*
X6710Y6162D01*
X6670D01*
X6710Y6122D01*
X6670Y6082D01*
X6710D01*
X6750Y6042D01*
X5750Y7042D02*
X5790Y7082D01*
X5830D01*
X5790Y7122D01*
X5830Y7162D01*
X5790D01*
X5750Y7202D01*
X5710Y7162D01*
X5670D01*
X5710Y7122D01*
X5670Y7082D01*
X5710D01*
X5750Y7042D01*
Y6042D02*
X5790Y6082D01*
X5830D01*
X5790Y6122D01*
X5830Y6162D01*
X5790D01*
X5750Y6202D01*
X5710Y6162D01*
X5670D01*
X5710Y6122D01*
X5670Y6082D01*
X5710D01*
X5750Y6042D01*
X30528Y10448D02*
X30568Y10488D01*
X30608D01*
X30568Y10528D01*
X30608Y10568D01*
X30568D01*
X30528Y10608D01*
X30488Y10568D01*
X30448D01*
X30488Y10528D01*
X30448Y10488D01*
X30488D01*
X30528Y10448D01*
X29528D02*
X29568Y10488D01*
X29608D01*
X29568Y10528D01*
X29608Y10568D01*
X29568D01*
X29528Y10608D01*
X29488Y10568D01*
X29448D01*
X29488Y10528D01*
X29448Y10488D01*
X29488D01*
X29528Y10448D01*
X30528Y11448D02*
X30568Y11488D01*
X30608D01*
X30568Y11528D01*
X30608Y11568D01*
X30568D01*
X30528Y11608D01*
X30488Y11568D01*
X30448D01*
X30488Y11528D01*
X30448Y11488D01*
X30488D01*
X30528Y11448D01*
X29528D02*
X29568Y11488D01*
X29608D01*
X29568Y11528D01*
X29608Y11568D01*
X29568D01*
X29528Y11608D01*
X29488Y11568D01*
X29448D01*
X29488Y11528D01*
X29448Y11488D01*
X29488D01*
X29528Y11448D01*
X30528Y12448D02*
X30568Y12488D01*
X30608D01*
X30568Y12528D01*
X30608Y12568D01*
X30568D01*
X30528Y12608D01*
X30488Y12568D01*
X30448D01*
X30488Y12528D01*
X30448Y12488D01*
X30488D01*
X30528Y12448D01*
X29528D02*
X29568Y12488D01*
X29608D01*
X29568Y12528D01*
X29608Y12568D01*
X29568D01*
X29528Y12608D01*
X29488Y12568D01*
X29448D01*
X29488Y12528D01*
X29448Y12488D01*
X29488D01*
X29528Y12448D01*
X30528Y13448D02*
X30568Y13488D01*
X30608D01*
X30568Y13528D01*
X30608Y13568D01*
X30568D01*
X30528Y13608D01*
X30488Y13568D01*
X30448D01*
X30488Y13528D01*
X30448Y13488D01*
X30488D01*
X30528Y13448D01*
X29528D02*
X29568Y13488D01*
X29608D01*
X29568Y13528D01*
X29608Y13568D01*
X29568D01*
X29528Y13608D01*
X29488Y13568D01*
X29448D01*
X29488Y13528D01*
X29448Y13488D01*
X29488D01*
X29528Y13448D01*
X30528Y14448D02*
X30568Y14488D01*
X30608D01*
X30568Y14528D01*
X30608Y14568D01*
X30568D01*
X30528Y14608D01*
X30488Y14568D01*
X30448D01*
X30488Y14528D01*
X30448Y14488D01*
X30488D01*
X30528Y14448D01*
X29528D02*
X29568Y14488D01*
X29608D01*
X29568Y14528D01*
X29608Y14568D01*
X29568D01*
X29528Y14608D01*
X29488Y14568D01*
X29448D01*
X29488Y14528D01*
X29448Y14488D01*
X29488D01*
X29528Y14448D01*
X30528Y15448D02*
X30568Y15488D01*
X30608D01*
X30568Y15528D01*
X30608Y15568D01*
X30568D01*
X30528Y15608D01*
X30488Y15568D01*
X30448D01*
X30488Y15528D01*
X30448Y15488D01*
X30488D01*
X30528Y15448D01*
X29528D02*
X29568Y15488D01*
X29608D01*
X29568Y15528D01*
X29608Y15568D01*
X29568D01*
X29528Y15608D01*
X29488Y15568D01*
X29448D01*
X29488Y15528D01*
X29448Y15488D01*
X29488D01*
X29528Y15448D01*
X30528Y16448D02*
X30568Y16488D01*
X30608D01*
X30568Y16528D01*
X30608Y16568D01*
X30568D01*
X30528Y16608D01*
X30488Y16568D01*
X30448D01*
X30488Y16528D01*
X30448Y16488D01*
X30488D01*
X30528Y16448D01*
X29528D02*
X29568Y16488D01*
X29608D01*
X29568Y16528D01*
X29608Y16568D01*
X29568D01*
X29528Y16608D01*
X29488Y16568D01*
X29448D01*
X29488Y16528D01*
X29448Y16488D01*
X29488D01*
X29528Y16448D01*
X30528Y17448D02*
X30568Y17488D01*
X30608D01*
X30568Y17528D01*
X30608Y17568D01*
X30568D01*
X30528Y17608D01*
X30488Y17568D01*
X30448D01*
X30488Y17528D01*
X30448Y17488D01*
X30488D01*
X30528Y17448D01*
X29528D02*
X29568Y17488D01*
X29608D01*
X29568Y17528D01*
X29608Y17568D01*
X29568D01*
X29528Y17608D01*
X29488Y17568D01*
X29448D01*
X29488Y17528D01*
X29448Y17488D01*
X29488D01*
X29528Y17448D01*
X30528Y18448D02*
X30568Y18488D01*
X30608D01*
X30568Y18528D01*
X30608Y18568D01*
X30568D01*
X30528Y18608D01*
X30488Y18568D01*
X30448D01*
X30488Y18528D01*
X30448Y18488D01*
X30488D01*
X30528Y18448D01*
X29528D02*
X29568Y18488D01*
X29608D01*
X29568Y18528D01*
X29608Y18568D01*
X29568D01*
X29528Y18608D01*
X29488Y18568D01*
X29448D01*
X29488Y18528D01*
X29448Y18488D01*
X29488D01*
X29528Y18448D01*
X30528Y19448D02*
X30568Y19488D01*
X30608D01*
X30568Y19528D01*
X30608Y19568D01*
X30568D01*
X30528Y19608D01*
X30488Y19568D01*
X30448D01*
X30488Y19528D01*
X30448Y19488D01*
X30488D01*
X30528Y19448D01*
X29528D02*
X29568Y19488D01*
X29608D01*
X29568Y19528D01*
X29608Y19568D01*
X29568D01*
X29528Y19608D01*
X29488Y19568D01*
X29448D01*
X29488Y19528D01*
X29448Y19488D01*
X29488D01*
X29528Y19448D01*
X30528Y20448D02*
X30568Y20488D01*
X30608D01*
X30568Y20528D01*
X30608Y20568D01*
X30568D01*
X30528Y20608D01*
X30488Y20568D01*
X30448D01*
X30488Y20528D01*
X30448Y20488D01*
X30488D01*
X30528Y20448D01*
X29528D02*
X29568Y20488D01*
X29608D01*
X29568Y20528D01*
X29608Y20568D01*
X29568D01*
X29528Y20608D01*
X29488Y20568D01*
X29448D01*
X29488Y20528D01*
X29448Y20488D01*
X29488D01*
X29528Y20448D01*
X30528Y21448D02*
X30568Y21488D01*
X30608D01*
X30568Y21528D01*
X30608Y21568D01*
X30568D01*
X30528Y21608D01*
X30488Y21568D01*
X30448D01*
X30488Y21528D01*
X30448Y21488D01*
X30488D01*
X30528Y21448D01*
X29528D02*
X29568Y21488D01*
X29608D01*
X29568Y21528D01*
X29608Y21568D01*
X29568D01*
X29528Y21608D01*
X29488Y21568D01*
X29448D01*
X29488Y21528D01*
X29448Y21488D01*
X29488D01*
X29528Y21448D01*
X30528Y22448D02*
X30568Y22488D01*
X30608D01*
X30568Y22528D01*
X30608Y22568D01*
X30568D01*
X30528Y22608D01*
X30488Y22568D01*
X30448D01*
X30488Y22528D01*
X30448Y22488D01*
X30488D01*
X30528Y22448D01*
X29528D02*
X29568Y22488D01*
X29608D01*
X29568Y22528D01*
X29608Y22568D01*
X29568D01*
X29528Y22608D01*
X29488Y22568D01*
X29448D01*
X29488Y22528D01*
X29448Y22488D01*
X29488D01*
X29528Y22448D01*
X30528Y23448D02*
X30568Y23488D01*
X30608D01*
X30568Y23528D01*
X30608Y23568D01*
X30568D01*
X30528Y23608D01*
X30488Y23568D01*
X30448D01*
X30488Y23528D01*
X30448Y23488D01*
X30488D01*
X30528Y23448D01*
X29528D02*
X29568Y23488D01*
X29608D01*
X29568Y23528D01*
X29608Y23568D01*
X29568D01*
X29528Y23608D01*
X29488Y23568D01*
X29448D01*
X29488Y23528D01*
X29448Y23488D01*
X29488D01*
X29528Y23448D01*
X30528Y24448D02*
X30568Y24488D01*
X30608D01*
X30568Y24528D01*
X30608Y24568D01*
X30568D01*
X30528Y24608D01*
X30488Y24568D01*
X30448D01*
X30488Y24528D01*
X30448Y24488D01*
X30488D01*
X30528Y24448D01*
X29528D02*
X29568Y24488D01*
X29608D01*
X29568Y24528D01*
X29608Y24568D01*
X29568D01*
X29528Y24608D01*
X29488Y24568D01*
X29448D01*
X29488Y24528D01*
X29448Y24488D01*
X29488D01*
X29528Y24448D01*
X30528Y25448D02*
X30568Y25488D01*
X30608D01*
X30568Y25528D01*
X30608Y25568D01*
X30568D01*
X30528Y25608D01*
X30488Y25568D01*
X30448D01*
X30488Y25528D01*
X30448Y25488D01*
X30488D01*
X30528Y25448D01*
X29528D02*
X29568Y25488D01*
X29608D01*
X29568Y25528D01*
X29608Y25568D01*
X29568D01*
X29528Y25608D01*
X29488Y25568D01*
X29448D01*
X29488Y25528D01*
X29448Y25488D01*
X29488D01*
X29528Y25448D01*
X30528Y26448D02*
X30568Y26488D01*
X30608D01*
X30568Y26528D01*
X30608Y26568D01*
X30568D01*
X30528Y26608D01*
X30488Y26568D01*
X30448D01*
X30488Y26528D01*
X30448Y26488D01*
X30488D01*
X30528Y26448D01*
X29528D02*
X29568Y26488D01*
X29608D01*
X29568Y26528D01*
X29608Y26568D01*
X29568D01*
X29528Y26608D01*
X29488Y26568D01*
X29448D01*
X29488Y26528D01*
X29448Y26488D01*
X29488D01*
X29528Y26448D01*
X30528Y27448D02*
X30568Y27488D01*
X30608D01*
X30568Y27528D01*
X30608Y27568D01*
X30568D01*
X30528Y27608D01*
X30488Y27568D01*
X30448D01*
X30488Y27528D01*
X30448Y27488D01*
X30488D01*
X30528Y27448D01*
X29528D02*
X29568Y27488D01*
X29608D01*
X29568Y27528D01*
X29608Y27568D01*
X29568D01*
X29528Y27608D01*
X29488Y27568D01*
X29448D01*
X29488Y27528D01*
X29448Y27488D01*
X29488D01*
X29528Y27448D01*
X30528Y28448D02*
X30568Y28488D01*
X30608D01*
X30568Y28528D01*
X30608Y28568D01*
X30568D01*
X30528Y28608D01*
X30488Y28568D01*
X30448D01*
X30488Y28528D01*
X30448Y28488D01*
X30488D01*
X30528Y28448D01*
X29528D02*
X29568Y28488D01*
X29608D01*
X29568Y28528D01*
X29608Y28568D01*
X29568D01*
X29528Y28608D01*
X29488Y28568D01*
X29448D01*
X29488Y28528D01*
X29448Y28488D01*
X29488D01*
X29528Y28448D01*
X30528Y29448D02*
X30568Y29488D01*
X30608D01*
X30568Y29528D01*
X30608Y29568D01*
X30568D01*
X30528Y29608D01*
X30488Y29568D01*
X30448D01*
X30488Y29528D01*
X30448Y29488D01*
X30488D01*
X30528Y29448D01*
X29528D02*
X29568Y29488D01*
X29608D01*
X29568Y29528D01*
X29608Y29568D01*
X29568D01*
X29528Y29608D01*
X29488Y29568D01*
X29448D01*
X29488Y29528D01*
X29448Y29488D01*
X29488D01*
X29528Y29448D01*
X24070Y12720D02*
X24110D01*
X24150Y12760D01*
X24190Y12720D01*
X24230D01*
Y12760D01*
X24190Y12800D01*
X24230Y12840D01*
Y12880D01*
X24190D01*
X24150Y12840D01*
X24110Y12880D01*
X24070D01*
Y12840D01*
X24110Y12800D01*
X24070Y12760D01*
Y12720D01*
Y13220D02*
X24110D01*
X24150Y13260D01*
X24190Y13220D01*
X24230D01*
Y13260D01*
X24190Y13300D01*
X24230Y13340D01*
Y13380D01*
X24190D01*
X24150Y13340D01*
X24110Y13380D01*
X24070D01*
Y13340D01*
X24110Y13300D01*
X24070Y13260D01*
Y13220D01*
X16970Y28900D02*
X17050Y28980D01*
X17130Y28900D01*
X17050Y28820D01*
X16970Y28900D01*
X17970D02*
X18050Y28980D01*
X18130Y28900D01*
X18050Y28820D01*
X17970Y28900D01*
X18970D02*
X19050Y28980D01*
X19130Y28900D01*
X19050Y28820D01*
X18970Y28900D01*
X19970D02*
X20050Y28980D01*
X20130Y28900D01*
X20050Y28820D01*
X19970Y28900D01*
X20970D02*
X21050Y28980D01*
X21130Y28900D01*
X21050Y28820D01*
X20970Y28900D01*
X21970D02*
X22050Y28980D01*
X22130Y28900D01*
X22050Y28820D01*
X21970Y28900D01*
X22970D02*
X23050Y28980D01*
X23130Y28900D01*
X23050Y28820D01*
X22970Y28900D01*
X36650Y6720D02*
X36570Y6880D01*
X36730D01*
X36650Y6720D01*
X35650Y7720D02*
X35570Y7880D01*
X35730D01*
X35650Y7720D01*
X36650D02*
X36570Y7880D01*
X36730D01*
X36650Y7720D01*
X35650Y6720D02*
X35570Y6880D01*
X35730D01*
X35650Y6720D01*
Y5720D02*
X35570Y5880D01*
X35730D01*
X35650Y5720D01*
X36650D02*
X36570Y5880D01*
X36730D01*
X36650Y5720D01*
X21685Y12863D02*
Y13023D01*
X21845D01*
Y12863D01*
X21685D01*
X21725Y12903D02*
Y12983D01*
X21805D01*
Y12903D01*
X21725D01*
X19755Y12863D02*
Y13023D01*
X19915D01*
Y12863D01*
X19755D01*
X19795Y12903D02*
Y12983D01*
X19875D01*
Y12903D01*
X19795D01*
X16650Y11662D02*
X16570Y11822D01*
X16730D01*
X16650Y11662D01*
Y10662D02*
X16570Y10822D01*
X16730D01*
X16650Y10662D01*
Y12662D02*
X16570Y12822D01*
X16730D01*
X16650Y12662D01*
Y13662D02*
X16570Y13822D01*
X16730D01*
X16650Y13662D01*
Y14662D02*
X16570Y14822D01*
X16730D01*
X16650Y14662D01*
Y9662D02*
X16570Y9822D01*
X16730D01*
X16650Y9662D01*
X10950Y6120D02*
X10870Y6280D01*
X11030D01*
X10950Y6120D01*
Y7120D02*
X10870Y7280D01*
X11030D01*
X10950Y7120D01*
X12950Y6120D02*
X12870Y6280D01*
X13030D01*
X12950Y6120D01*
Y7120D02*
X12870Y7280D01*
X13030D01*
X12950Y7120D01*
X13950Y6120D02*
X13870Y6280D01*
X14030D01*
X13950Y6120D01*
Y7120D02*
X13870Y7280D01*
X14030D01*
X13950Y7120D01*
X11950Y6120D02*
X11870Y6280D01*
X12030D01*
X11950Y6120D01*
Y7120D02*
X11870Y7280D01*
X12030D01*
X11950Y7120D01*
X35900Y15617D02*
X35820Y15777D01*
X35980D01*
X35900Y15617D01*
Y10617D02*
X35820Y10777D01*
X35980D01*
X35900Y10617D01*
Y11617D02*
X35820Y11777D01*
X35980D01*
X35900Y11617D01*
Y12617D02*
X35820Y12777D01*
X35980D01*
X35900Y12617D01*
Y14617D02*
X35820Y14777D01*
X35980D01*
X35900Y14617D01*
Y13617D02*
X35820Y13777D01*
X35980D01*
X35900Y13617D01*
X35850Y21770D02*
X35770Y21930D01*
X35930D01*
X35850Y21770D01*
Y20770D02*
X35770Y20930D01*
X35930D01*
X35850Y20770D01*
Y19770D02*
X35770Y19930D01*
X35930D01*
X35850Y19770D01*
Y18770D02*
X35770Y18930D01*
X35930D01*
X35850Y18770D01*
Y27989D02*
X35770Y28149D01*
X35930D01*
X35850Y27989D01*
Y27004D02*
X35770Y27164D01*
X35930D01*
X35850Y27004D01*
Y26020D02*
X35770Y26180D01*
X35930D01*
X35850Y26020D01*
Y25036D02*
X35770Y25196D01*
X35930D01*
X35850Y25036D01*
X19250Y6970D02*
X19290Y7010D01*
X19330D01*
X19290Y7050D01*
X19330Y7090D01*
X19290D01*
X19250Y7130D01*
X19210Y7090D01*
X19170D01*
X19210Y7050D01*
X19170Y7010D01*
X19210D01*
X19250Y6970D01*
X20250D02*
X20290Y7010D01*
X20330D01*
X20290Y7050D01*
X20330Y7090D01*
X20290D01*
X20250Y7130D01*
X20210Y7090D01*
X20170D01*
X20210Y7050D01*
X20170Y7010D01*
X20210D01*
X20250Y6970D01*
X21250D02*
X21290Y7010D01*
X21330D01*
X21290Y7050D01*
X21330Y7090D01*
X21290D01*
X21250Y7130D01*
X21210Y7090D01*
X21170D01*
X21210Y7050D01*
X21170Y7010D01*
X21210D01*
X21250Y6970D01*
X2250Y10270D02*
X2170Y10430D01*
X2330D01*
X2250Y10270D01*
X3250D02*
X3170Y10430D01*
X3330D01*
X3250Y10270D01*
Y9270D02*
X3170Y9430D01*
X3330D01*
X3250Y9270D01*
X2250Y8270D02*
X2170Y8430D01*
X2330D01*
X2250Y8270D01*
X3250D02*
X3170Y8430D01*
X3330D01*
X3250Y8270D01*
X2250Y9270D02*
X2170Y9430D01*
X2330D01*
X2250Y9270D01*
Y14270D02*
X2170Y14430D01*
X2330D01*
X2250Y14270D01*
X3250D02*
X3170Y14430D01*
X3330D01*
X3250Y14270D01*
Y13270D02*
X3170Y13430D01*
X3330D01*
X3250Y13270D01*
X2250Y12270D02*
X2170Y12430D01*
X2330D01*
X2250Y12270D01*
X3250D02*
X3170Y12430D01*
X3330D01*
X3250Y12270D01*
X2250Y13270D02*
X2170Y13430D01*
X2330D01*
X2250Y13270D01*
X5337Y35550D02*
X5417Y35630D01*
X5497Y35550D01*
X5417Y35470D01*
X5337Y35550D01*
X7503D02*
X7583Y35630D01*
X7663Y35550D01*
X7583Y35470D01*
X7503Y35550D01*
X28350Y34670D02*
X28270Y34830D01*
X28430D01*
X28350Y34670D01*
Y34710D02*
X28310Y34790D01*
X28390D01*
X28350Y34710D01*
X25350Y34670D02*
X25270Y34830D01*
X25430D01*
X25350Y34670D01*
Y34710D02*
X25310Y34790D01*
X25390D01*
X25350Y34710D01*
X28350Y33720D02*
X28270Y33880D01*
X28430D01*
X28350Y33720D01*
Y33760D02*
X28310Y33840D01*
X28390D01*
X28350Y33760D01*
X25350Y33720D02*
X25270Y33880D01*
X25430D01*
X25350Y33720D01*
Y33760D02*
X25310Y33840D01*
X25390D01*
X25350Y33760D01*
X1969Y37322D02*
X2008Y37362D01*
X2049D01*
X2008Y37402D01*
X2049Y37442D01*
X2008D01*
X1969Y37482D01*
X1928Y37442D01*
X1889D01*
X1928Y37402D01*
X1889Y37362D01*
X1928D01*
X1969Y37322D01*
Y37362D02*
X1989Y37382D01*
X2008D01*
X1989Y37402D01*
X2008Y37422D01*
X1989D01*
X1969Y37442D01*
X1948Y37422D01*
X1928D01*
X1948Y37402D01*
X1928Y37382D01*
X1948D01*
X1969Y37362D01*
X37402Y37322D02*
X37442Y37362D01*
X37482D01*
X37442Y37402D01*
X37482Y37442D01*
X37442D01*
X37402Y37482D01*
X37362Y37442D01*
X37322D01*
X37362Y37402D01*
X37322Y37362D01*
X37362D01*
X37402Y37322D01*
Y37362D02*
X37422Y37382D01*
X37442D01*
X37422Y37402D01*
X37442Y37422D01*
X37422D01*
X37402Y37442D01*
X37382Y37422D01*
X37362D01*
X37382Y37402D01*
X37362Y37382D01*
X37382D01*
X37402Y37362D01*
Y1889D02*
X37442Y1928D01*
X37482D01*
X37442Y1969D01*
X37482Y2008D01*
X37442D01*
X37402Y2049D01*
X37362Y2008D01*
X37322D01*
X37362Y1969D01*
X37322Y1928D01*
X37362D01*
X37402Y1889D01*
Y1928D02*
X37422Y1948D01*
X37442D01*
X37422Y1969D01*
X37442Y1989D01*
X37422D01*
X37402Y2008D01*
X37382Y1989D01*
X37362D01*
X37382Y1969D01*
X37362Y1948D01*
X37382D01*
X37402Y1928D01*
X1969Y1889D02*
X2008Y1928D01*
X2049D01*
X2008Y1969D01*
X2049Y2008D01*
X2008D01*
X1969Y2049D01*
X1928Y2008D01*
X1889D01*
X1928Y1969D01*
X1889Y1928D01*
X1928D01*
X1969Y1889D01*
Y1928D02*
X1989Y1948D01*
X2008D01*
X1989Y1969D01*
X2008Y1989D01*
X1989D01*
X1969Y2008D01*
X1948Y1989D01*
X1928D01*
X1948Y1969D01*
X1928Y1948D01*
X1948D01*
X1969Y1928D01*
X3570Y26240D02*
X3610Y26320D01*
X3570Y26400D01*
X3650Y26360D01*
X3730Y26400D01*
X3690Y26320D01*
X3730Y26240D01*
X3650Y26280D01*
X3570Y26240D01*
X3610Y26280D02*
X3630Y26320D01*
X3610Y26360D01*
X3650Y26340D01*
X3690Y26360D01*
X3670Y26320D01*
X3690Y26280D01*
X3650Y26300D01*
X3610Y26280D01*
X2592Y26240D02*
X2632Y26320D01*
X2592Y26400D01*
X2672Y26360D01*
X2752Y26400D01*
X2712Y26320D01*
X2752Y26240D01*
X2672Y26280D01*
X2592Y26240D01*
X2632Y26280D02*
X2652Y26320D01*
X2632Y26360D01*
X2672Y26340D01*
X2712Y26360D01*
X2692Y26320D01*
X2712Y26280D01*
X2672Y26300D01*
X2632Y26280D01*
X1614Y26240D02*
X1654Y26320D01*
X1614Y26400D01*
X1694Y26360D01*
X1774Y26400D01*
X1734Y26320D01*
X1774Y26240D01*
X1694Y26280D01*
X1614Y26240D01*
X1654Y26280D02*
X1674Y26320D01*
X1654Y26360D01*
X1694Y26340D01*
X1734Y26360D01*
X1714Y26320D01*
X1734Y26280D01*
X1694Y26300D01*
X1654Y26280D01*
X636Y26240D02*
X676Y26320D01*
X636Y26400D01*
X716Y26360D01*
X796Y26400D01*
X756Y26320D01*
X796Y26240D01*
X716Y26280D01*
X636Y26240D01*
X676Y26280D02*
X696Y26320D01*
X676Y26360D01*
X716Y26340D01*
X756Y26360D01*
X736Y26320D01*
X756Y26280D01*
X716Y26300D01*
X676Y26280D01*
X8520Y25320D02*
X8560Y25400D01*
X8520Y25480D01*
X8600Y25440D01*
X8680Y25480D01*
X8640Y25400D01*
X8680Y25320D01*
X8600Y25360D01*
X8520Y25320D01*
X8560Y25360D02*
X8580Y25400D01*
X8560Y25440D01*
X8600Y25420D01*
X8640Y25440D01*
X8620Y25400D01*
X8640Y25360D01*
X8600Y25380D01*
X8560Y25360D01*
X3908Y29170D02*
X3948Y29250D01*
X3908Y29330D01*
X3988Y29290D01*
X4068Y29330D01*
X4028Y29250D01*
X4068Y29170D01*
X3988Y29210D01*
X3908Y29170D01*
X3948Y29210D02*
X3968Y29250D01*
X3948Y29290D01*
X3988Y29270D01*
X4028Y29290D01*
X4008Y29250D01*
X4028Y29210D01*
X3988Y29230D01*
X3948Y29210D01*
X6838Y29170D02*
X6878Y29250D01*
X6838Y29330D01*
X6918Y29290D01*
X6998Y29330D01*
X6958Y29250D01*
X6998Y29170D01*
X6918Y29210D01*
X6838Y29170D01*
X6878Y29210D02*
X6898Y29250D01*
X6878Y29290D01*
X6918Y29270D01*
X6958Y29290D01*
X6938Y29250D01*
X6958Y29210D01*
X6918Y29230D01*
X6878Y29210D01*
X5373Y29170D02*
X5413Y29250D01*
X5373Y29330D01*
X5453Y29290D01*
X5533Y29330D01*
X5493Y29250D01*
X5533Y29170D01*
X5453Y29210D01*
X5373Y29170D01*
X5413Y29210D02*
X5433Y29250D01*
X5413Y29290D01*
X5453Y29270D01*
X5493Y29290D01*
X5473Y29250D01*
X5493Y29210D01*
X5453Y29230D01*
X5413Y29210D01*
X2420Y29220D02*
X2460Y29300D01*
X2420Y29380D01*
X2500Y29340D01*
X2580Y29380D01*
X2540Y29300D01*
X2580Y29220D01*
X2500Y29260D01*
X2420Y29220D01*
X2460Y29260D02*
X2480Y29300D01*
X2460Y29340D01*
X2500Y29320D01*
X2540Y29340D01*
X2520Y29300D01*
X2540Y29260D01*
X2500Y29280D01*
X2460Y29260D01*
X914Y29220D02*
X954Y29300D01*
X914Y29380D01*
X994Y29340D01*
X1074Y29380D01*
X1034Y29300D01*
X1074Y29220D01*
X994Y29260D01*
X914Y29220D01*
X954Y29260D02*
X974Y29300D01*
X954Y29340D01*
X994Y29320D01*
X1034Y29340D01*
X1014Y29300D01*
X1034Y29260D01*
X994Y29280D01*
X954Y29260D01*
X9067Y22626D02*
X9107Y22706D01*
X9067Y22786D01*
X9147Y22746D01*
X9227Y22786D01*
X9187Y22706D01*
X9227Y22626D01*
X9147Y22666D01*
X9067Y22626D01*
X9107Y22666D02*
X9127Y22706D01*
X9107Y22746D01*
X9147Y22726D01*
X9187Y22746D01*
X9167Y22706D01*
X9187Y22666D01*
X9147Y22686D01*
X9107Y22666D01*
X36620Y24970D02*
X36660Y25050D01*
X36620Y25130D01*
X36700Y25090D01*
X36780Y25130D01*
X36740Y25050D01*
X36780Y24970D01*
X36700Y25010D01*
X36620Y24970D01*
X36660Y25010D02*
X36680Y25050D01*
X36660Y25090D01*
X36700Y25070D01*
X36740Y25090D01*
X36720Y25050D01*
X36740Y25010D01*
X36700Y25030D01*
X36660Y25010D01*
X35370Y33570D02*
X35410Y33650D01*
X35370Y33730D01*
X35450Y33690D01*
X35530Y33730D01*
X35490Y33650D01*
X35530Y33570D01*
X35450Y33610D01*
X35370Y33570D01*
X35410Y33610D02*
X35430Y33650D01*
X35410Y33690D01*
X35450Y33670D01*
X35490Y33690D01*
X35470Y33650D01*
X35490Y33610D01*
X35450Y33630D01*
X35410Y33610D01*
X36620Y20170D02*
X36660Y20250D01*
X36620Y20330D01*
X36700Y20290D01*
X36780Y20330D01*
X36740Y20250D01*
X36780Y20170D01*
X36700Y20210D01*
X36620Y20170D01*
X36660Y20210D02*
X36680Y20250D01*
X36660Y20290D01*
X36700Y20270D01*
X36740Y20290D01*
X36720Y20250D01*
X36740Y20210D01*
X36700Y20230D01*
X36660Y20210D01*
X20704Y3720D02*
X20744Y3800D01*
X20704Y3880D01*
X20784Y3840D01*
X20864Y3880D01*
X20824Y3800D01*
X20864Y3720D01*
X20784Y3760D01*
X20704Y3720D01*
X20744Y3760D02*
X20764Y3800D01*
X20744Y3840D01*
X20784Y3820D01*
X20824Y3840D01*
X20804Y3800D01*
X20824Y3760D01*
X20784Y3780D01*
X20744Y3760D01*
X25720Y18220D02*
X25760Y18300D01*
X25720Y18380D01*
X25800Y18340D01*
X25880Y18380D01*
X25840Y18300D01*
X25880Y18220D01*
X25800Y18260D01*
X25720Y18220D01*
X25760Y18260D02*
X25780Y18300D01*
X25760Y18340D01*
X25800Y18320D01*
X25840Y18340D01*
X25820Y18300D01*
X25840Y18260D01*
X25800Y18280D01*
X25760Y18260D01*
X26070Y17840D02*
X26110Y17920D01*
X26070Y18000D01*
X26150Y17960D01*
X26230Y18000D01*
X26190Y17920D01*
X26230Y17840D01*
X26150Y17880D01*
X26070Y17840D01*
X26110Y17880D02*
X26130Y17920D01*
X26110Y17960D01*
X26150Y17940D01*
X26190Y17960D01*
X26170Y17920D01*
X26190Y17880D01*
X26150Y17900D01*
X26110Y17880D01*
X26417Y17520D02*
X26457Y17600D01*
X26417Y17680D01*
X26497Y17640D01*
X26577Y17680D01*
X26537Y17600D01*
X26577Y17520D01*
X26497Y17560D01*
X26417Y17520D01*
X26457Y17560D02*
X26477Y17600D01*
X26457Y17640D01*
X26497Y17620D01*
X26537Y17640D01*
X26517Y17600D01*
X26537Y17560D01*
X26497Y17580D01*
X26457Y17560D01*
X20820Y17040D02*
X20860Y17120D01*
X20820Y17200D01*
X20900Y17160D01*
X20980Y17200D01*
X20940Y17120D01*
X20980Y17040D01*
X20900Y17080D01*
X20820Y17040D01*
X20860Y17080D02*
X20880Y17120D01*
X20860Y17160D01*
X20900Y17140D01*
X20940Y17160D01*
X20920Y17120D01*
X20940Y17080D01*
X20900Y17100D01*
X20860Y17080D01*
X23520Y15520D02*
X23560Y15600D01*
X23520Y15680D01*
X23600Y15640D01*
X23680Y15680D01*
X23640Y15600D01*
X23680Y15520D01*
X23600Y15560D01*
X23520Y15520D01*
X23560Y15560D02*
X23580Y15600D01*
X23560Y15640D01*
X23600Y15620D01*
X23640Y15640D01*
X23620Y15600D01*
X23640Y15560D01*
X23600Y15580D01*
X23560Y15560D01*
X24370Y19280D02*
X24410Y19360D01*
X24370Y19440D01*
X24450Y19400D01*
X24530Y19440D01*
X24490Y19360D01*
X24530Y19280D01*
X24450Y19320D01*
X24370Y19280D01*
X24410Y19320D02*
X24430Y19360D01*
X24410Y19400D01*
X24450Y19380D01*
X24490Y19400D01*
X24470Y19360D01*
X24490Y19320D01*
X24450Y19340D01*
X24410Y19320D01*
X24020Y19280D02*
X24060Y19360D01*
X24020Y19440D01*
X24100Y19400D01*
X24180Y19440D01*
X24140Y19360D01*
X24180Y19280D01*
X24100Y19320D01*
X24020Y19280D01*
X24060Y19320D02*
X24080Y19360D01*
X24060Y19400D01*
X24100Y19380D01*
X24140Y19400D01*
X24120Y19360D01*
X24140Y19320D01*
X24100Y19340D01*
X24060Y19320D01*
X17458Y21670D02*
X17498Y21750D01*
X17458Y21830D01*
X17538Y21790D01*
X17618Y21830D01*
X17578Y21750D01*
X17618Y21670D01*
X17538Y21710D01*
X17458Y21670D01*
X17498Y21710D02*
X17518Y21750D01*
X17498Y21790D01*
X17538Y21770D01*
X17578Y21790D01*
X17558Y21750D01*
X17578Y21710D01*
X17538Y21730D01*
X17498Y21710D01*
X16570Y33200D02*
X16610Y33280D01*
X16570Y33360D01*
X16650Y33320D01*
X16730Y33360D01*
X16690Y33280D01*
X16730Y33200D01*
X16650Y33240D01*
X16570Y33200D01*
X16610Y33240D02*
X16630Y33280D01*
X16610Y33320D01*
X16650Y33300D01*
X16690Y33320D01*
X16670Y33280D01*
X16690Y33240D01*
X16650Y33260D01*
X16610Y33240D01*
X16570Y34360D02*
X16610Y34440D01*
X16570Y34520D01*
X16650Y34480D01*
X16730Y34520D01*
X16690Y34440D01*
X16730Y34360D01*
X16650Y34400D01*
X16570Y34360D01*
X16610Y34400D02*
X16630Y34440D01*
X16610Y34480D01*
X16650Y34460D01*
X16690Y34480D01*
X16670Y34440D01*
X16690Y34400D01*
X16650Y34420D01*
X16610Y34400D01*
X23520Y33600D02*
X23560Y33680D01*
X23520Y33760D01*
X23600Y33720D01*
X23680Y33760D01*
X23640Y33680D01*
X23680Y33600D01*
X23600Y33640D01*
X23520Y33600D01*
X23560Y33640D02*
X23580Y33680D01*
X23560Y33720D01*
X23600Y33700D01*
X23640Y33720D01*
X23620Y33680D01*
X23640Y33640D01*
X23600Y33660D01*
X23560Y33640D01*
X23470Y34800D02*
X23510Y34880D01*
X23470Y34960D01*
X23550Y34920D01*
X23630Y34960D01*
X23590Y34880D01*
X23630Y34800D01*
X23550Y34840D01*
X23470Y34800D01*
X23510Y34840D02*
X23530Y34880D01*
X23510Y34920D01*
X23550Y34900D01*
X23590Y34920D01*
X23570Y34880D01*
X23590Y34840D01*
X23550Y34860D01*
X23510Y34840D01*
X18120Y8120D02*
X18160Y8200D01*
X18120Y8280D01*
X18200Y8240D01*
X18280Y8280D01*
X18240Y8200D01*
X18280Y8120D01*
X18200Y8160D01*
X18120Y8120D01*
X18160Y8160D02*
X18180Y8200D01*
X18160Y8240D01*
X18200Y8220D01*
X18240Y8240D01*
X18220Y8200D01*
X18240Y8160D01*
X18200Y8180D01*
X18160Y8160D01*
X17370Y8880D02*
X17410Y8960D01*
X17370Y9040D01*
X17450Y9000D01*
X17530Y9040D01*
X17490Y8960D01*
X17530Y8880D01*
X17450Y8920D01*
X17370Y8880D01*
X17410Y8920D02*
X17430Y8960D01*
X17410Y9000D01*
X17450Y8980D01*
X17490Y9000D01*
X17470Y8960D01*
X17490Y8920D01*
X17450Y8940D01*
X17410Y8920D01*
X14870Y11400D02*
X14910Y11480D01*
X14870Y11560D01*
X14950Y11520D01*
X15030Y11560D01*
X14990Y11480D01*
X15030Y11400D01*
X14950Y11440D01*
X14870Y11400D01*
X14910Y11440D02*
X14930Y11480D01*
X14910Y11520D01*
X14950Y11500D01*
X14990Y11520D01*
X14970Y11480D01*
X14990Y11440D01*
X14950Y11460D01*
X14910Y11440D01*
X14120Y12040D02*
X14160Y12120D01*
X14120Y12200D01*
X14200Y12160D01*
X14280Y12200D01*
X14240Y12120D01*
X14280Y12040D01*
X14200Y12080D01*
X14120Y12040D01*
X14160Y12080D02*
X14180Y12120D01*
X14160Y12160D01*
X14200Y12140D01*
X14240Y12160D01*
X14220Y12120D01*
X14240Y12080D01*
X14200Y12100D01*
X14160Y12080D01*
X13870Y16040D02*
X13910Y16120D01*
X13870Y16200D01*
X13950Y16160D01*
X14030Y16200D01*
X13990Y16120D01*
X14030Y16040D01*
X13950Y16080D01*
X13870Y16040D01*
X13910Y16080D02*
X13930Y16120D01*
X13910Y16160D01*
X13950Y16140D01*
X13990Y16160D01*
X13970Y16120D01*
X13990Y16080D01*
X13950Y16100D01*
X13910Y16080D01*
X13320Y15440D02*
X13360Y15520D01*
X13320Y15600D01*
X13400Y15560D01*
X13480Y15600D01*
X13440Y15520D01*
X13480Y15440D01*
X13400Y15480D01*
X13320Y15440D01*
X13360Y15480D02*
X13380Y15520D01*
X13360Y15560D01*
X13400Y15540D01*
X13440Y15560D01*
X13420Y15520D01*
X13440Y15480D01*
X13400Y15500D01*
X13360Y15480D01*
X15020Y17800D02*
X15060Y17880D01*
X15020Y17960D01*
X15100Y17920D01*
X15180Y17960D01*
X15140Y17880D01*
X15180Y17800D01*
X15100Y17840D01*
X15020Y17800D01*
X15060Y17840D02*
X15080Y17880D01*
X15060Y17920D01*
X15100Y17900D01*
X15140Y17920D01*
X15120Y17880D01*
X15140Y17840D01*
X15100Y17860D01*
X15060Y17840D01*
X31370Y20440D02*
X31410Y20520D01*
X31370Y20600D01*
X31450Y20560D01*
X31530Y20600D01*
X31490Y20520D01*
X31530Y20440D01*
X31450Y20480D01*
X31370Y20440D01*
X31410Y20480D02*
X31430Y20520D01*
X31410Y20560D01*
X31450Y20540D01*
X31490Y20560D01*
X31470Y20520D01*
X31490Y20480D01*
X31450Y20500D01*
X31410Y20480D01*
X31420Y19520D02*
X31460Y19600D01*
X31420Y19680D01*
X31500Y19640D01*
X31580Y19680D01*
X31540Y19600D01*
X31580Y19520D01*
X31500Y19560D01*
X31420Y19520D01*
X31460Y19560D02*
X31480Y19600D01*
X31460Y19640D01*
X31500Y19620D01*
X31540Y19640D01*
X31520Y19600D01*
X31540Y19560D01*
X31500Y19580D01*
X31460Y19560D01*
X31370Y18480D02*
X31410Y18560D01*
X31370Y18640D01*
X31450Y18600D01*
X31530Y18640D01*
X31490Y18560D01*
X31530Y18480D01*
X31450Y18520D01*
X31370Y18480D01*
X31410Y18520D02*
X31430Y18560D01*
X31410Y18600D01*
X31450Y18580D01*
X31490Y18600D01*
X31470Y18560D01*
X31490Y18520D01*
X31450Y18540D01*
X31410Y18520D01*
X31470Y16420D02*
X31510Y16500D01*
X31470Y16580D01*
X31550Y16540D01*
X31630Y16580D01*
X31590Y16500D01*
X31630Y16420D01*
X31550Y16460D01*
X31470Y16420D01*
X31510Y16460D02*
X31530Y16500D01*
X31510Y16540D01*
X31550Y16520D01*
X31590Y16540D01*
X31570Y16500D01*
X31590Y16460D01*
X31550Y16480D01*
X31510Y16460D01*
X31470Y15800D02*
X31510Y15880D01*
X31470Y15960D01*
X31550Y15920D01*
X31630Y15960D01*
X31590Y15880D01*
X31630Y15800D01*
X31550Y15840D01*
X31470Y15800D01*
X31510Y15840D02*
X31530Y15880D01*
X31510Y15920D01*
X31550Y15900D01*
X31590Y15920D01*
X31570Y15880D01*
X31590Y15840D01*
X31550Y15860D01*
X31510Y15840D01*
X31220Y13160D02*
X31260Y13240D01*
X31220Y13320D01*
X31300Y13280D01*
X31380Y13320D01*
X31340Y13240D01*
X31380Y13160D01*
X31300Y13200D01*
X31220Y13160D01*
X31260Y13200D02*
X31280Y13240D01*
X31260Y13280D01*
X31300Y13260D01*
X31340Y13280D01*
X31320Y13240D01*
X31340Y13200D01*
X31300Y13220D01*
X31260Y13200D01*
X31220Y11440D02*
X31260Y11520D01*
X31220Y11600D01*
X31300Y11560D01*
X31380Y11600D01*
X31340Y11520D01*
X31380Y11440D01*
X31300Y11480D01*
X31220Y11440D01*
X31260Y11480D02*
X31280Y11520D01*
X31260Y11560D01*
X31300Y11540D01*
X31340Y11560D01*
X31320Y11520D01*
X31340Y11480D01*
X31300Y11500D01*
X31260Y11480D01*
X31770Y7960D02*
X31810Y8040D01*
X31770Y8120D01*
X31850Y8080D01*
X31930Y8120D01*
X31890Y8040D01*
X31930Y7960D01*
X31850Y8000D01*
X31770Y7960D01*
X31810Y8000D02*
X31830Y8040D01*
X31810Y8080D01*
X31850Y8060D01*
X31890Y8080D01*
X31870Y8040D01*
X31890Y8000D01*
X31850Y8020D01*
X31810Y8000D01*
X29970Y8010D02*
X30010Y8090D01*
X29970Y8170D01*
X30050Y8130D01*
X30130Y8170D01*
X30090Y8090D01*
X30130Y8010D01*
X30050Y8050D01*
X29970Y8010D01*
X30010Y8050D02*
X30030Y8090D01*
X30010Y8130D01*
X30050Y8110D01*
X30090Y8130D01*
X30070Y8090D01*
X30090Y8050D01*
X30050Y8070D01*
X30010Y8050D01*
X28620Y8120D02*
X28660Y8200D01*
X28620Y8280D01*
X28700Y8240D01*
X28780Y8280D01*
X28740Y8200D01*
X28780Y8120D01*
X28700Y8160D01*
X28620Y8120D01*
X28660Y8160D02*
X28680Y8200D01*
X28660Y8240D01*
X28700Y8220D01*
X28740Y8240D01*
X28720Y8200D01*
X28740Y8160D01*
X28700Y8180D01*
X28660Y8160D01*
X27370Y8040D02*
X27410Y8120D01*
X27370Y8200D01*
X27450Y8160D01*
X27530Y8200D01*
X27490Y8120D01*
X27530Y8040D01*
X27450Y8080D01*
X27370Y8040D01*
X27410Y8080D02*
X27430Y8120D01*
X27410Y8160D01*
X27450Y8140D01*
X27490Y8160D01*
X27470Y8120D01*
X27490Y8080D01*
X27450Y8100D01*
X27410Y8080D01*
X25770Y8160D02*
X25810Y8240D01*
X25770Y8320D01*
X25850Y8280D01*
X25930Y8320D01*
X25890Y8240D01*
X25930Y8160D01*
X25850Y8200D01*
X25770Y8160D01*
X25810Y8200D02*
X25830Y8240D01*
X25810Y8280D01*
X25850Y8260D01*
X25890Y8280D01*
X25870Y8240D01*
X25890Y8200D01*
X25850Y8220D01*
X25810Y8200D01*
X24320Y8040D02*
X24360Y8120D01*
X24320Y8200D01*
X24400Y8160D01*
X24480Y8200D01*
X24440Y8120D01*
X24480Y8040D01*
X24400Y8080D01*
X24320Y8040D01*
X24360Y8080D02*
X24380Y8120D01*
X24360Y8160D01*
X24400Y8140D01*
X24440Y8160D01*
X24420Y8120D01*
X24440Y8080D01*
X24400Y8100D01*
X24360Y8080D01*
X22385Y13670D02*
X22425Y13750D01*
X22385Y13830D01*
X22465Y13790D01*
X22545Y13830D01*
X22505Y13750D01*
X22545Y13670D01*
X22465Y13710D01*
X22385Y13670D01*
X22425Y13710D02*
X22445Y13750D01*
X22425Y13790D01*
X22465Y13770D01*
X22505Y13790D01*
X22485Y13750D01*
X22505Y13710D01*
X22465Y13730D01*
X22425Y13710D01*
X22520Y12880D02*
X22560Y12960D01*
X22520Y13040D01*
X22600Y13000D01*
X22680Y13040D01*
X22640Y12960D01*
X22680Y12880D01*
X22600Y12920D01*
X22520Y12880D01*
X22560Y12920D02*
X22580Y12960D01*
X22560Y13000D01*
X22600Y12980D01*
X22640Y13000D01*
X22620Y12960D01*
X22640Y12920D01*
X22600Y12940D01*
X22560Y12920D01*
X21534Y11960D02*
X21574Y12040D01*
X21534Y12120D01*
X21614Y12080D01*
X21694Y12120D01*
X21654Y12040D01*
X21694Y11960D01*
X21614Y12000D01*
X21534Y11960D01*
X21574Y12000D02*
X21594Y12040D01*
X21574Y12080D01*
X21614Y12060D01*
X21654Y12080D01*
X21634Y12040D01*
X21654Y12000D01*
X21614Y12020D01*
X21574Y12000D01*
X18270Y12720D02*
X18310Y12800D01*
X18270Y12880D01*
X18350Y12840D01*
X18430Y12880D01*
X18390Y12800D01*
X18430Y12720D01*
X18350Y12760D01*
X18270Y12720D01*
X18310Y12760D02*
X18330Y12800D01*
X18310Y12840D01*
X18350Y12820D01*
X18390Y12840D01*
X18370Y12800D01*
X18390Y12760D01*
X18350Y12780D01*
X18310Y12760D01*
X18270Y13720D02*
X18310Y13800D01*
X18270Y13880D01*
X18350Y13840D01*
X18430Y13880D01*
X18390Y13800D01*
X18430Y13720D01*
X18350Y13760D01*
X18270Y13720D01*
X18310Y13760D02*
X18330Y13800D01*
X18310Y13840D01*
X18350Y13820D01*
X18390Y13840D01*
X18370Y13800D01*
X18390Y13760D01*
X18350Y13780D01*
X18310Y13760D01*
X21985Y14470D02*
X22025Y14550D01*
X21985Y14630D01*
X22065Y14590D01*
X22145Y14630D01*
X22105Y14550D01*
X22145Y14470D01*
X22065Y14510D01*
X21985Y14470D01*
X22025Y14510D02*
X22045Y14550D01*
X22025Y14590D01*
X22065Y14570D01*
X22105Y14590D01*
X22085Y14550D01*
X22105Y14510D01*
X22065Y14530D01*
X22025Y14510D01*
X19303Y14296D02*
X19343Y14376D01*
X19303Y14456D01*
X19383Y14416D01*
X19463Y14456D01*
X19423Y14376D01*
X19463Y14296D01*
X19383Y14336D01*
X19303Y14296D01*
X19343Y14336D02*
X19363Y14376D01*
X19343Y14416D01*
X19383Y14396D01*
X19423Y14416D01*
X19403Y14376D01*
X19423Y14336D01*
X19383Y14356D01*
X19343Y14336D01*
X19320Y11400D02*
X19360Y11480D01*
X19320Y11560D01*
X19400Y11520D01*
X19480Y11560D01*
X19440Y11480D01*
X19480Y11400D01*
X19400Y11440D01*
X19320Y11400D01*
X19360Y11440D02*
X19380Y11480D01*
X19360Y11520D01*
X19400Y11500D01*
X19440Y11520D01*
X19420Y11480D01*
X19440Y11440D01*
X19400Y11460D01*
X19360Y11440D01*
X20503Y11420D02*
X20543Y11500D01*
X20503Y11580D01*
X20583Y11540D01*
X20663Y11580D01*
X20623Y11500D01*
X20663Y11420D01*
X20583Y11460D01*
X20503Y11420D01*
X20543Y11460D02*
X20563Y11500D01*
X20543Y11540D01*
X20583Y11520D01*
X20623Y11540D01*
X20603Y11500D01*
X20623Y11460D01*
X20583Y11480D01*
X20543Y11460D01*
X5970Y12240D02*
X6010Y12320D01*
X5970Y12400D01*
X6050Y12360D01*
X6130Y12400D01*
X6090Y12320D01*
X6130Y12240D01*
X6050Y12280D01*
X5970Y12240D01*
X6010Y12280D02*
X6030Y12320D01*
X6010Y12360D01*
X6050Y12340D01*
X6090Y12360D01*
X6070Y12320D01*
X6090Y12280D01*
X6050Y12300D01*
X6010Y12280D01*
X6541Y12270D02*
X6581Y12350D01*
X6541Y12430D01*
X6621Y12390D01*
X6701Y12430D01*
X6661Y12350D01*
X6701Y12270D01*
X6621Y12310D01*
X6541Y12270D01*
X6581Y12310D02*
X6601Y12350D01*
X6581Y12390D01*
X6621Y12370D01*
X6661Y12390D01*
X6641Y12350D01*
X6661Y12310D01*
X6621Y12330D01*
X6581Y12310D01*
X13820Y8400D02*
X13860Y8480D01*
X13820Y8560D01*
X13900Y8520D01*
X13980Y8560D01*
X13940Y8480D01*
X13980Y8400D01*
X13900Y8440D01*
X13820Y8400D01*
X13860Y8440D02*
X13880Y8480D01*
X13860Y8520D01*
X13900Y8500D01*
X13940Y8520D01*
X13920Y8480D01*
X13940Y8440D01*
X13900Y8460D01*
X13860Y8440D01*
X13020Y9160D02*
X13060Y9240D01*
X13020Y9320D01*
X13100Y9280D01*
X13180Y9320D01*
X13140Y9240D01*
X13180Y9160D01*
X13100Y9200D01*
X13020Y9160D01*
X13060Y9200D02*
X13080Y9240D01*
X13060Y9280D01*
X13100Y9260D01*
X13140Y9280D01*
X13120Y9240D01*
X13140Y9200D01*
X13100Y9220D01*
X13060Y9200D01*
X12267Y9880D02*
X12307Y9960D01*
X12267Y10040D01*
X12347Y10000D01*
X12427Y10040D01*
X12387Y9960D01*
X12427Y9880D01*
X12347Y9920D01*
X12267Y9880D01*
X12307Y9920D02*
X12327Y9960D01*
X12307Y10000D01*
X12347Y9980D01*
X12387Y10000D01*
X12367Y9960D01*
X12387Y9920D01*
X12347Y9940D01*
X12307Y9920D01*
X7920Y4600D02*
X7960Y4680D01*
X7920Y4760D01*
X8000Y4720D01*
X8080Y4760D01*
X8040Y4680D01*
X8080Y4600D01*
X8000Y4640D01*
X7920Y4600D01*
X7960Y4640D02*
X7980Y4680D01*
X7960Y4720D01*
X8000Y4700D01*
X8040Y4720D01*
X8020Y4680D01*
X8040Y4640D01*
X8000Y4660D01*
X7960Y4640D01*
X6820D02*
X6860Y4720D01*
X6820Y4800D01*
X6900Y4760D01*
X6980Y4800D01*
X6940Y4720D01*
X6980Y4640D01*
X6900Y4680D01*
X6820Y4640D01*
X6860Y4680D02*
X6880Y4720D01*
X6860Y4760D01*
X6900Y4740D01*
X6940Y4760D01*
X6920Y4720D01*
X6940Y4680D01*
X6900Y4700D01*
X6860Y4680D01*
X5520Y4640D02*
X5560Y4720D01*
X5520Y4800D01*
X5600Y4760D01*
X5680Y4800D01*
X5640Y4720D01*
X5680Y4640D01*
X5600Y4680D01*
X5520Y4640D01*
X5560Y4680D02*
X5580Y4720D01*
X5560Y4760D01*
X5600Y4740D01*
X5640Y4760D01*
X5620Y4720D01*
X5640Y4680D01*
X5600Y4700D01*
X5560Y4680D01*
X8420Y13320D02*
X8460Y13400D01*
X8420Y13480D01*
X8500Y13440D01*
X8580Y13480D01*
X8540Y13400D01*
X8580Y13320D01*
X8500Y13360D01*
X8420Y13320D01*
X8460Y13360D02*
X8480Y13400D01*
X8460Y13440D01*
X8500Y13420D01*
X8540Y13440D01*
X8520Y13400D01*
X8540Y13360D01*
X8500Y13380D01*
X8460Y13360D01*
X12970Y28880D02*
X13010Y28960D01*
X12970Y29040D01*
X13050Y29000D01*
X13130Y29040D01*
X13090Y28960D01*
X13130Y28880D01*
X13050Y28920D01*
X12970Y28880D01*
X13010Y28920D02*
X13030Y28960D01*
X13010Y29000D01*
X13050Y28980D01*
X13090Y29000D01*
X13070Y28960D01*
X13090Y28920D01*
X13050Y28940D01*
X13010Y28920D01*
X12970Y30240D02*
X13010Y30320D01*
X12970Y30400D01*
X13050Y30360D01*
X13130Y30400D01*
X13090Y30320D01*
X13130Y30240D01*
X13050Y30280D01*
X12970Y30240D01*
X13010Y30280D02*
X13030Y30320D01*
X13010Y30360D01*
X13050Y30340D01*
X13090Y30360D01*
X13070Y30320D01*
X13090Y30280D01*
X13050Y30300D01*
X13010Y30280D01*
X12920Y31320D02*
X12960Y31400D01*
X12920Y31480D01*
X13000Y31440D01*
X13080Y31480D01*
X13040Y31400D01*
X13080Y31320D01*
X13000Y31360D01*
X12920Y31320D01*
X12960Y31360D02*
X12980Y31400D01*
X12960Y31440D01*
X13000Y31420D01*
X13040Y31440D01*
X13020Y31400D01*
X13040Y31360D01*
X13000Y31380D01*
X12960Y31360D01*
X12970Y32560D02*
X13010Y32640D01*
X12970Y32720D01*
X13050Y32680D01*
X13130Y32720D01*
X13090Y32640D01*
X13130Y32560D01*
X13050Y32600D01*
X12970Y32560D01*
X13010Y32600D02*
X13030Y32640D01*
X13010Y32680D01*
X13050Y32660D01*
X13090Y32680D01*
X13070Y32640D01*
X13090Y32600D01*
X13050Y32620D01*
X13010Y32600D01*
X26670Y23800D02*
X26710Y23880D01*
X26670Y23960D01*
X26750Y23920D01*
X26830Y23960D01*
X26790Y23880D01*
X26830Y23800D01*
X26750Y23840D01*
X26670Y23800D01*
X26710Y23840D02*
X26730Y23880D01*
X26710Y23920D01*
X26750Y23900D01*
X26790Y23920D01*
X26770Y23880D01*
X26790Y23840D01*
X26750Y23860D01*
X26710Y23840D01*
X24100Y19770D02*
X24140Y19850D01*
X24100Y19930D01*
X24180Y19890D01*
X24260Y19930D01*
X24220Y19850D01*
X24260Y19770D01*
X24180Y19810D01*
X24100Y19770D01*
X24140Y19810D02*
X24160Y19850D01*
X24140Y19890D01*
X24180Y19870D01*
X24220Y19890D01*
X24200Y19850D01*
X24220Y19810D01*
X24180Y19830D01*
X24140Y19810D01*
X24720Y19760D02*
X24760Y19840D01*
X24720Y19920D01*
X24800Y19880D01*
X24880Y19920D01*
X24840Y19840D01*
X24880Y19760D01*
X24800Y19800D01*
X24720Y19760D01*
X24760Y19800D02*
X24780Y19840D01*
X24760Y19880D01*
X24800Y19860D01*
X24840Y19880D01*
X24820Y19840D01*
X24840Y19800D01*
X24800Y19820D01*
X24760Y19800D01*
X28570Y24320D02*
X28610Y24400D01*
X28570Y24480D01*
X28650Y24440D01*
X28730Y24480D01*
X28690Y24400D01*
X28730Y24320D01*
X28650Y24360D01*
X28570Y24320D01*
X28610Y24360D02*
X28630Y24400D01*
X28610Y24440D01*
X28650Y24420D01*
X28690Y24440D01*
X28670Y24400D01*
X28690Y24360D01*
X28650Y24380D01*
X28610Y24360D01*
X24726Y24480D02*
X24766Y24560D01*
X24726Y24640D01*
X24806Y24600D01*
X24886Y24640D01*
X24846Y24560D01*
X24886Y24480D01*
X24806Y24520D01*
X24726Y24480D01*
X24766Y24520D02*
X24786Y24560D01*
X24766Y24600D01*
X24806Y24580D01*
X24846Y24600D01*
X24826Y24560D01*
X24846Y24520D01*
X24806Y24540D01*
X24766Y24520D01*
X28581Y28880D02*
X28621Y28960D01*
X28581Y29040D01*
X28661Y29000D01*
X28741Y29040D01*
X28701Y28960D01*
X28741Y28880D01*
X28661Y28920D01*
X28581Y28880D01*
X28621Y28920D02*
X28641Y28960D01*
X28621Y29000D01*
X28661Y28980D01*
X28701Y29000D01*
X28681Y28960D01*
X28701Y28920D01*
X28661Y28940D01*
X28621Y28920D01*
X28580Y29280D02*
X28620Y29360D01*
X28580Y29440D01*
X28660Y29400D01*
X28740Y29440D01*
X28700Y29360D01*
X28740Y29280D01*
X28660Y29320D01*
X28580Y29280D01*
X28620Y29320D02*
X28640Y29360D01*
X28620Y29400D01*
X28660Y29380D01*
X28700Y29400D01*
X28680Y29360D01*
X28700Y29320D01*
X28660Y29340D01*
X28620Y29320D01*
X34820Y29280D02*
X34860Y29360D01*
X34820Y29440D01*
X34900Y29400D01*
X34980Y29440D01*
X34940Y29360D01*
X34980Y29280D01*
X34900Y29320D01*
X34820Y29280D01*
X34860Y29320D02*
X34880Y29360D01*
X34860Y29400D01*
X34900Y29380D01*
X34940Y29400D01*
X34920Y29360D01*
X34940Y29320D01*
X34900Y29340D01*
X34860Y29320D01*
X34770Y28560D02*
X34810Y28640D01*
X34770Y28720D01*
X34850Y28680D01*
X34930Y28720D01*
X34890Y28640D01*
X34930Y28560D01*
X34850Y28600D01*
X34770Y28560D01*
X34810Y28600D02*
X34830Y28640D01*
X34810Y28680D01*
X34850Y28660D01*
X34890Y28680D01*
X34870Y28640D01*
X34890Y28600D01*
X34850Y28620D01*
X34810Y28600D01*
X34020Y29320D02*
X34060Y29400D01*
X34020Y29480D01*
X34100Y29440D01*
X34180Y29480D01*
X34140Y29400D01*
X34180Y29320D01*
X34100Y29360D01*
X34020Y29320D01*
X34060Y29360D02*
X34080Y29400D01*
X34060Y29440D01*
X34100Y29420D01*
X34140Y29440D01*
X34120Y29400D01*
X34140Y29360D01*
X34100Y29380D01*
X34060Y29360D01*
X34020Y28600D02*
X34060Y28680D01*
X34020Y28760D01*
X34100Y28720D01*
X34180Y28760D01*
X34140Y28680D01*
X34180Y28600D01*
X34100Y28640D01*
X34020Y28600D01*
X34060Y28640D02*
X34080Y28680D01*
X34060Y28720D01*
X34100Y28700D01*
X34140Y28720D01*
X34120Y28680D01*
X34140Y28640D01*
X34100Y28660D01*
X34060Y28640D01*
X33620Y25480D02*
X33660Y25560D01*
X33620Y25640D01*
X33700Y25600D01*
X33780Y25640D01*
X33740Y25560D01*
X33780Y25480D01*
X33700Y25520D01*
X33620Y25480D01*
X33660Y25520D02*
X33680Y25560D01*
X33660Y25600D01*
X33700Y25580D01*
X33740Y25600D01*
X33720Y25560D01*
X33740Y25520D01*
X33700Y25540D01*
X33660Y25520D01*
X33570Y23320D02*
X33610Y23400D01*
X33570Y23480D01*
X33650Y23440D01*
X33730Y23480D01*
X33690Y23400D01*
X33730Y23320D01*
X33650Y23360D01*
X33570Y23320D01*
X33610Y23360D02*
X33630Y23400D01*
X33610Y23440D01*
X33650Y23420D01*
X33690Y23440D01*
X33670Y23400D01*
X33690Y23360D01*
X33650Y23380D01*
X33610Y23360D01*
X33570Y24000D02*
X33610Y24080D01*
X33570Y24160D01*
X33650Y24120D01*
X33730Y24160D01*
X33690Y24080D01*
X33730Y24000D01*
X33650Y24040D01*
X33570Y24000D01*
X33610Y24040D02*
X33630Y24080D01*
X33610Y24120D01*
X33650Y24100D01*
X33690Y24120D01*
X33670Y24080D01*
X33690Y24040D01*
X33650Y24060D01*
X33610Y24040D01*
X33570Y24800D02*
X33610Y24880D01*
X33570Y24960D01*
X33650Y24920D01*
X33730Y24960D01*
X33690Y24880D01*
X33730Y24800D01*
X33650Y24840D01*
X33570Y24800D01*
X33610Y24840D02*
X33630Y24880D01*
X33610Y24920D01*
X33650Y24900D01*
X33690Y24920D01*
X33670Y24880D01*
X33690Y24840D01*
X33650Y24860D01*
X33610Y24840D01*
X26220Y25200D02*
X26260Y25280D01*
X26220Y25360D01*
X26300Y25320D01*
X26380Y25360D01*
X26340Y25280D01*
X26380Y25200D01*
X26300Y25240D01*
X26220Y25200D01*
X26260Y25240D02*
X26280Y25280D01*
X26260Y25320D01*
X26300Y25300D01*
X26340Y25320D01*
X26320Y25280D01*
X26340Y25240D01*
X26300Y25260D01*
X26260Y25240D01*
X19670Y31470D02*
X19710Y31550D01*
X19670Y31630D01*
X19750Y31590D01*
X19830Y31630D01*
X19790Y31550D01*
X19830Y31470D01*
X19750Y31510D01*
X19670Y31470D01*
X19710Y31510D02*
X19730Y31550D01*
X19710Y31590D01*
X19750Y31570D01*
X19790Y31590D01*
X19770Y31550D01*
X19790Y31510D01*
X19750Y31530D01*
X19710Y31510D01*
X19270Y31220D02*
X19310Y31300D01*
X19270Y31380D01*
X19350Y31340D01*
X19430Y31380D01*
X19390Y31300D01*
X19430Y31220D01*
X19350Y31260D01*
X19270Y31220D01*
X19310Y31260D02*
X19330Y31300D01*
X19310Y31340D01*
X19350Y31320D01*
X19390Y31340D01*
X19370Y31300D01*
X19390Y31260D01*
X19350Y31280D01*
X19310Y31260D01*
X8710Y10080D02*
X8750Y10160D01*
X8710Y10240D01*
X8790Y10200D01*
X8870Y10240D01*
X8830Y10160D01*
X8870Y10080D01*
X8790Y10120D01*
X8710Y10080D01*
X8750Y10120D02*
X8770Y10160D01*
X8750Y10200D01*
X8790Y10180D01*
X8830Y10200D01*
X8810Y10160D01*
X8830Y10120D01*
X8790Y10140D01*
X8750Y10120D01*
X8420Y9720D02*
X8460Y9800D01*
X8420Y9880D01*
X8500Y9840D01*
X8580Y9880D01*
X8540Y9800D01*
X8580Y9720D01*
X8500Y9760D01*
X8420Y9720D01*
X8460Y9760D02*
X8480Y9800D01*
X8460Y9840D01*
X8500Y9820D01*
X8540Y9840D01*
X8520Y9800D01*
X8540Y9760D01*
X8500Y9780D01*
X8460Y9760D01*
X28270Y32520D02*
X28310Y32600D01*
X28270Y32680D01*
X28350Y32640D01*
X28430Y32680D01*
X28390Y32600D01*
X28430Y32520D01*
X28350Y32560D01*
X28270Y32520D01*
X28310Y32560D02*
X28330Y32600D01*
X28310Y32640D01*
X28350Y32620D01*
X28390Y32640D01*
X28370Y32600D01*
X28390Y32560D01*
X28350Y32580D01*
X28310Y32560D01*
X1070Y15070D02*
X1110Y15150D01*
X1070Y15230D01*
X1150Y15190D01*
X1230Y15230D01*
X1190Y15150D01*
X1230Y15070D01*
X1150Y15110D01*
X1070Y15070D01*
X1110Y15110D02*
X1130Y15150D01*
X1110Y15190D01*
X1150Y15170D01*
X1190Y15190D01*
X1170Y15150D01*
X1190Y15110D01*
X1150Y15130D01*
X1110Y15110D01*
X4670Y18160D02*
X4710Y18240D01*
X4670Y18320D01*
X4750Y18280D01*
X4830Y18320D01*
X4790Y18240D01*
X4830Y18160D01*
X4750Y18200D01*
X4670Y18160D01*
X4710Y18200D02*
X4730Y18240D01*
X4710Y18280D01*
X4750Y18260D01*
X4790Y18280D01*
X4770Y18240D01*
X4790Y18200D01*
X4750Y18220D01*
X4710Y18200D01*
X4670Y17920D02*
X4710Y18000D01*
X4670Y18080D01*
X4750Y18040D01*
X4830Y18080D01*
X4790Y18000D01*
X4830Y17920D01*
X4750Y17960D01*
X4670Y17920D01*
X4710Y17960D02*
X4730Y18000D01*
X4710Y18040D01*
X4750Y18020D01*
X4790Y18040D01*
X4770Y18000D01*
X4790Y17960D01*
X4750Y17980D01*
X4710Y17960D01*
X33820Y11620D02*
X33860Y11700D01*
X33820Y11780D01*
X33900Y11740D01*
X33980Y11780D01*
X33940Y11700D01*
X33980Y11620D01*
X33900Y11660D01*
X33820Y11620D01*
X33860Y11660D02*
X33880Y11700D01*
X33860Y11740D01*
X33900Y11720D01*
X33940Y11740D01*
X33920Y11700D01*
X33940Y11660D01*
X33900Y11680D01*
X33860Y11660D01*
X31170Y31020D02*
X31210Y31100D01*
X31170Y31180D01*
X31250Y31140D01*
X31330Y31180D01*
X31290Y31100D01*
X31330Y31020D01*
X31250Y31060D01*
X31170Y31020D01*
X31210Y31060D02*
X31230Y31100D01*
X31210Y31140D01*
X31250Y31120D01*
X31290Y31140D01*
X31270Y31100D01*
X31290Y31060D01*
X31250Y31080D01*
X31210Y31060D01*
X31470Y30770D02*
X31510Y30850D01*
X31470Y30930D01*
X31550Y30890D01*
X31630Y30930D01*
X31590Y30850D01*
X31630Y30770D01*
X31550Y30810D01*
X31470Y30770D01*
X31510Y30810D02*
X31530Y30850D01*
X31510Y30890D01*
X31550Y30870D01*
X31590Y30890D01*
X31570Y30850D01*
X31590Y30810D01*
X31550Y30830D01*
X31510Y30810D01*
X29670Y32520D02*
X29710Y32600D01*
X29670Y32680D01*
X29750Y32640D01*
X29830Y32680D01*
X29790Y32600D01*
X29830Y32520D01*
X29750Y32560D01*
X29670Y32520D01*
X29710Y32560D02*
X29730Y32600D01*
X29710Y32640D01*
X29750Y32620D01*
X29790Y32640D01*
X29770Y32600D01*
X29790Y32560D01*
X29750Y32580D01*
X29710Y32560D01*
X4970Y8070D02*
X5010Y8150D01*
X4970Y8230D01*
X5050Y8190D01*
X5130Y8230D01*
X5090Y8150D01*
X5130Y8070D01*
X5050Y8110D01*
X4970Y8070D01*
X5010Y8110D02*
X5030Y8150D01*
X5010Y8190D01*
X5050Y8170D01*
X5090Y8190D01*
X5070Y8150D01*
X5090Y8110D01*
X5050Y8130D01*
X5010Y8110D01*
X4920Y8900D02*
X4960Y8980D01*
X4920Y9060D01*
X5000Y9020D01*
X5080Y9060D01*
X5040Y8980D01*
X5080Y8900D01*
X5000Y8940D01*
X4920Y8900D01*
X4960Y8940D02*
X4980Y8980D01*
X4960Y9020D01*
X5000Y9000D01*
X5040Y9020D01*
X5020Y8980D01*
X5040Y8940D01*
X5000Y8960D01*
X4960Y8940D01*
X3908Y3145D02*
X3948Y3225D01*
X3908Y3305D01*
X3988Y3265D01*
X4068Y3305D01*
X4028Y3225D01*
X4068Y3145D01*
X3988Y3185D01*
X3908Y3145D01*
X3948Y3185D02*
X3968Y3225D01*
X3948Y3265D01*
X3988Y3245D01*
X4028Y3265D01*
X4008Y3225D01*
X4028Y3185D01*
X3988Y3205D01*
X3948Y3185D01*
X8720Y9442D02*
X8760Y9522D01*
X8720Y9602D01*
X8800Y9562D01*
X8880Y9602D01*
X8840Y9522D01*
X8880Y9442D01*
X8800Y9482D01*
X8720Y9442D01*
X8760Y9482D02*
X8780Y9522D01*
X8760Y9562D01*
X8800Y9542D01*
X8840Y9562D01*
X8820Y9522D01*
X8840Y9482D01*
X8800Y9502D01*
X8760Y9482D01*
X8770Y8820D02*
X8810Y8900D01*
X8770Y8980D01*
X8850Y8940D01*
X8930Y8980D01*
X8890Y8900D01*
X8930Y8820D01*
X8850Y8860D01*
X8770Y8820D01*
X8810Y8860D02*
X8830Y8900D01*
X8810Y8940D01*
X8850Y8920D01*
X8890Y8940D01*
X8870Y8900D01*
X8890Y8860D01*
X8850Y8880D01*
X8810Y8860D01*
X8870Y7970D02*
X8910Y8050D01*
X8870Y8130D01*
X8950Y8090D01*
X9030Y8130D01*
X8990Y8050D01*
X9030Y7970D01*
X8950Y8010D01*
X8870Y7970D01*
X8910Y8010D02*
X8930Y8050D01*
X8910Y8090D01*
X8950Y8070D01*
X8990Y8090D01*
X8970Y8050D01*
X8990Y8010D01*
X8950Y8030D01*
X8910Y8010D01*
X16728Y18000D02*
X16768Y18080D01*
X16728Y18160D01*
X16808Y18120D01*
X16888Y18160D01*
X16848Y18080D01*
X16888Y18000D01*
X16808Y18040D01*
X16728Y18000D01*
X16768Y18040D02*
X16788Y18080D01*
X16768Y18120D01*
X16808Y18100D01*
X16848Y18120D01*
X16828Y18080D01*
X16848Y18040D01*
X16808Y18060D01*
X16768Y18040D01*
X17920Y21120D02*
X17960Y21200D01*
X17920Y21280D01*
X18000Y21240D01*
X18080Y21280D01*
X18040Y21200D01*
X18080Y21120D01*
X18000Y21160D01*
X17920Y21120D01*
X17960Y21160D02*
X17980Y21200D01*
X17960Y21240D01*
X18000Y21220D01*
X18040Y21240D01*
X18020Y21200D01*
X18040Y21160D01*
X18000Y21180D01*
X17960Y21160D01*
X1370Y5820D02*
X1410Y5900D01*
X1370Y5980D01*
X1450Y5940D01*
X1530Y5980D01*
X1490Y5900D01*
X1530Y5820D01*
X1450Y5860D01*
X1370Y5820D01*
X1410Y5860D02*
X1430Y5900D01*
X1410Y5940D01*
X1450Y5920D01*
X1490Y5940D01*
X1470Y5900D01*
X1490Y5860D01*
X1450Y5880D01*
X1410Y5860D01*
X20520Y4870D02*
X20560Y4950D01*
X20520Y5030D01*
X20600Y4990D01*
X20680Y5030D01*
X20640Y4950D01*
X20680Y4870D01*
X20600Y4910D01*
X20520Y4870D01*
X20560Y4910D02*
X20580Y4950D01*
X20560Y4990D01*
X20600Y4970D01*
X20640Y4990D01*
X20620Y4950D01*
X20640Y4910D01*
X20600Y4930D01*
X20560Y4910D01*
X21320Y3370D02*
X21360Y3450D01*
X21320Y3530D01*
X21400Y3490D01*
X21480Y3530D01*
X21440Y3450D01*
X21480Y3370D01*
X21400Y3410D01*
X21320Y3370D01*
X21360Y3410D02*
X21380Y3450D01*
X21360Y3490D01*
X21400Y3470D01*
X21440Y3490D01*
X21420Y3450D01*
X21440Y3410D01*
X21400Y3430D01*
X21360Y3410D01*
X20470Y4020D02*
X20510Y4100D01*
X20470Y4180D01*
X20550Y4140D01*
X20630Y4180D01*
X20590Y4100D01*
X20630Y4020D01*
X20550Y4060D01*
X20470Y4020D01*
X20510Y4060D02*
X20530Y4100D01*
X20510Y4140D01*
X20550Y4120D01*
X20590Y4140D01*
X20570Y4100D01*
X20590Y4060D01*
X20550Y4080D01*
X20510Y4060D01*
X20120Y4320D02*
X20160Y4400D01*
X20120Y4480D01*
X20200Y4440D01*
X20280Y4480D01*
X20240Y4400D01*
X20280Y4320D01*
X20200Y4360D01*
X20120Y4320D01*
X20160Y4360D02*
X20180Y4400D01*
X20160Y4440D01*
X20200Y4420D01*
X20240Y4440D01*
X20220Y4400D01*
X20240Y4360D01*
X20200Y4380D01*
X20160Y4360D01*
X19720Y4580D02*
X19760Y4660D01*
X19720Y4740D01*
X19800Y4700D01*
X19880Y4740D01*
X19840Y4660D01*
X19880Y4580D01*
X19800Y4620D01*
X19720Y4580D01*
X19760Y4620D02*
X19780Y4660D01*
X19760Y4700D01*
X19800Y4680D01*
X19840Y4700D01*
X19820Y4660D01*
X19840Y4620D01*
X19800Y4640D01*
X19760Y4620D01*
X17998Y23270D02*
X18038Y23350D01*
X17998Y23430D01*
X18078Y23390D01*
X18158Y23430D01*
X18118Y23350D01*
X18158Y23270D01*
X18078Y23310D01*
X17998Y23270D01*
X18038Y23310D02*
X18058Y23350D01*
X18038Y23390D01*
X18078Y23370D01*
X18118Y23390D01*
X18098Y23350D01*
X18118Y23310D01*
X18078Y23330D01*
X18038Y23310D01*
X17852Y22920D02*
X17891Y23000D01*
X17852Y23080D01*
X17931Y23040D01*
X18011Y23080D01*
X17972Y23000D01*
X18011Y22920D01*
X17931Y22960D01*
X17852Y22920D01*
X17891Y22960D02*
X17911Y23000D01*
X17891Y23040D01*
X17931Y23020D01*
X17972Y23040D01*
X17952Y23000D01*
X17972Y22960D01*
X17931Y22980D01*
X17891Y22960D01*
X21860Y20030D02*
X21900Y20110D01*
X21860Y20190D01*
X21940Y20150D01*
X22020Y20190D01*
X21980Y20110D01*
X22020Y20030D01*
X21940Y20070D01*
X21860Y20030D01*
X21900Y20070D02*
X21920Y20110D01*
X21900Y20150D01*
X21940Y20130D01*
X21980Y20150D01*
X21960Y20110D01*
X21980Y20070D01*
X21940Y20090D01*
X21900Y20070D01*
X17620Y26070D02*
X17660Y26150D01*
X17620Y26230D01*
X17700Y26190D01*
X17780Y26230D01*
X17740Y26150D01*
X17780Y26070D01*
X17700Y26110D01*
X17620Y26070D01*
X17660Y26110D02*
X17680Y26150D01*
X17660Y26190D01*
X17700Y26170D01*
X17740Y26190D01*
X17720Y26150D01*
X17740Y26110D01*
X17700Y26130D01*
X17660Y26110D01*
X18048Y23620D02*
X18088Y23700D01*
X18048Y23780D01*
X18128Y23740D01*
X18208Y23780D01*
X18168Y23700D01*
X18208Y23620D01*
X18128Y23660D01*
X18048Y23620D01*
X18088Y23660D02*
X18108Y23700D01*
X18088Y23740D01*
X18128Y23720D01*
X18168Y23740D01*
X18148Y23700D01*
X18168Y23660D01*
X18128Y23680D01*
X18088Y23660D01*
X18202Y23920D02*
X18242Y24000D01*
X18202Y24080D01*
X18282Y24040D01*
X18362Y24080D01*
X18322Y24000D01*
X18362Y23920D01*
X18282Y23960D01*
X18202Y23920D01*
X18242Y23960D02*
X18262Y24000D01*
X18242Y24040D01*
X18282Y24020D01*
X18322Y24040D01*
X18302Y24000D01*
X18322Y23960D01*
X18282Y23980D01*
X18242Y23960D01*
X17852Y19870D02*
X17891Y19950D01*
X17852Y20030D01*
X17931Y19990D01*
X18011Y20030D01*
X17972Y19950D01*
X18011Y19870D01*
X17931Y19910D01*
X17852Y19870D01*
X17891Y19910D02*
X17911Y19950D01*
X17891Y19990D01*
X17931Y19970D01*
X17972Y19990D01*
X17952Y19950D01*
X17972Y19910D01*
X17931Y19930D01*
X17891Y19910D01*
X17458Y24232D02*
X17498Y24312D01*
X17458Y24392D01*
X17538Y24352D01*
X17618Y24392D01*
X17578Y24312D01*
X17618Y24232D01*
X17538Y24272D01*
X17458Y24232D01*
X17498Y24272D02*
X17518Y24312D01*
X17498Y24352D01*
X17538Y24332D01*
X17578Y24352D01*
X17558Y24312D01*
X17578Y24272D01*
X17538Y24292D01*
X17498Y24272D01*
X17431Y20320D02*
X17471Y20400D01*
X17431Y20480D01*
X17511Y20440D01*
X17591Y20480D01*
X17551Y20400D01*
X17591Y20320D01*
X17511Y20360D01*
X17431Y20320D01*
X17471Y20360D02*
X17491Y20400D01*
X17471Y20440D01*
X17511Y20420D01*
X17551Y20440D01*
X17531Y20400D01*
X17551Y20360D01*
X17511Y20380D01*
X17471Y20360D01*
X21001Y19401D02*
X21041Y19481D01*
X21001Y19561D01*
X21081Y19521D01*
X21161Y19561D01*
X21121Y19481D01*
X21161Y19401D01*
X21081Y19441D01*
X21001Y19401D01*
X21041Y19441D02*
X21061Y19481D01*
X21041Y19521D01*
X21081Y19501D01*
X21121Y19521D01*
X21101Y19481D01*
X21121Y19441D01*
X21081Y19461D01*
X21041Y19441D01*
X21292Y19660D02*
X21332Y19740D01*
X21292Y19820D01*
X21372Y19780D01*
X21452Y19820D01*
X21412Y19740D01*
X21452Y19660D01*
X21372Y19700D01*
X21292Y19660D01*
X21332Y19700D02*
X21352Y19740D01*
X21332Y19780D01*
X21372Y19760D01*
X21412Y19780D01*
X21392Y19740D01*
X21412Y19700D01*
X21372Y19720D01*
X21332Y19700D01*
X21220Y20020D02*
X21260Y20100D01*
X21220Y20180D01*
X21300Y20140D01*
X21380Y20180D01*
X21340Y20100D01*
X21380Y20020D01*
X21300Y20060D01*
X21220Y20020D01*
X21260Y20060D02*
X21280Y20100D01*
X21260Y20140D01*
X21300Y20120D01*
X21340Y20140D01*
X21320Y20100D01*
X21340Y20060D01*
X21300Y20080D01*
X21260Y20060D01*
X21220Y17470D02*
X21260Y17550D01*
X21220Y17630D01*
X21300Y17590D01*
X21380Y17630D01*
X21340Y17550D01*
X21380Y17470D01*
X21300Y17510D01*
X21220Y17470D01*
X21260Y17510D02*
X21280Y17550D01*
X21260Y17590D01*
X21300Y17570D01*
X21340Y17590D01*
X21320Y17550D01*
X21340Y17510D01*
X21300Y17530D01*
X21260Y17510D01*
X22220Y19723D02*
X22260Y19803D01*
X22220Y19883D01*
X22300Y19843D01*
X22380Y19883D01*
X22340Y19803D01*
X22380Y19723D01*
X22300Y19763D01*
X22220Y19723D01*
X22260Y19763D02*
X22280Y19803D01*
X22260Y19843D01*
X22300Y19823D01*
X22340Y19843D01*
X22320Y19803D01*
X22340Y19763D01*
X22300Y19783D01*
X22260Y19763D01*
X25620Y23870D02*
X25660Y23950D01*
X25620Y24030D01*
X25700Y23990D01*
X25780Y24030D01*
X25740Y23950D01*
X25780Y23870D01*
X25700Y23910D01*
X25620Y23870D01*
X25660Y23910D02*
X25680Y23950D01*
X25660Y23990D01*
X25700Y23970D01*
X25740Y23990D01*
X25720Y23950D01*
X25740Y23910D01*
X25700Y23930D01*
X25660Y23910D01*
X26878Y27920D02*
X26918Y28000D01*
X26878Y28080D01*
X26958Y28040D01*
X27038Y28080D01*
X26998Y28000D01*
X27038Y27920D01*
X26958Y27960D01*
X26878Y27920D01*
X26918Y27960D02*
X26938Y28000D01*
X26918Y28040D01*
X26958Y28020D01*
X26998Y28040D01*
X26978Y28000D01*
X26998Y27960D01*
X26958Y27980D01*
X26918Y27960D01*
X18442Y19642D02*
X18482Y19722D01*
X18442Y19802D01*
X18522Y19762D01*
X18602Y19802D01*
X18562Y19722D01*
X18602Y19642D01*
X18522Y19682D01*
X18442Y19642D01*
X18482Y19682D02*
X18502Y19722D01*
X18482Y19762D01*
X18522Y19742D01*
X18562Y19762D01*
X18542Y19722D01*
X18562Y19682D01*
X18522Y19702D01*
X18482Y19682D01*
X19220Y24120D02*
X19260Y24200D01*
X19220Y24280D01*
X19300Y24240D01*
X19380Y24280D01*
X19340Y24200D01*
X19380Y24120D01*
X19300Y24160D01*
X19220Y24120D01*
X19260Y24160D02*
X19280Y24200D01*
X19260Y24240D01*
X19300Y24220D01*
X19340Y24240D01*
X19320Y24200D01*
X19340Y24160D01*
X19300Y24180D01*
X19260Y24160D01*
X19020Y22420D02*
X19060Y22500D01*
X19020Y22580D01*
X19100Y22540D01*
X19180Y22580D01*
X19140Y22500D01*
X19180Y22420D01*
X19100Y22460D01*
X19020Y22420D01*
X19060Y22460D02*
X19080Y22500D01*
X19060Y22540D01*
X19100Y22520D01*
X19140Y22540D01*
X19120Y22500D01*
X19140Y22460D01*
X19100Y22480D01*
X19060Y22460D01*
X20220Y26793D02*
X20260Y26873D01*
X20220Y26953D01*
X20300Y26913D01*
X20380Y26953D01*
X20340Y26873D01*
X20380Y26793D01*
X20300Y26833D01*
X20220Y26793D01*
X20260Y26833D02*
X20280Y26873D01*
X20260Y26913D01*
X20300Y26893D01*
X20340Y26913D01*
X20320Y26873D01*
X20340Y26833D01*
X20300Y26853D01*
X20260Y26833D01*
X25270Y31520D02*
X25310Y31600D01*
X25270Y31680D01*
X25350Y31640D01*
X25430Y31680D01*
X25390Y31600D01*
X25430Y31520D01*
X25350Y31560D01*
X25270Y31520D01*
X25310Y31560D02*
X25330Y31600D01*
X25310Y31640D01*
X25350Y31620D01*
X25390Y31640D01*
X25370Y31600D01*
X25390Y31560D01*
X25350Y31580D01*
X25310Y31560D01*
X8520Y17560D02*
X8560Y17640D01*
X8520Y17720D01*
X8600Y17680D01*
X8680Y17720D01*
X8640Y17640D01*
X8680Y17560D01*
X8600Y17600D01*
X8520Y17560D01*
X8560Y17600D02*
X8580Y17640D01*
X8560Y17680D01*
X8600Y17660D01*
X8640Y17680D01*
X8620Y17640D01*
X8640Y17600D01*
X8600Y17620D01*
X8560Y17600D01*
X8520Y17880D02*
X8560Y17960D01*
X8520Y18040D01*
X8600Y18000D01*
X8680Y18040D01*
X8640Y17960D01*
X8680Y17880D01*
X8600Y17920D01*
X8520Y17880D01*
X8560Y17920D02*
X8580Y17960D01*
X8560Y18000D01*
X8600Y17980D01*
X8640Y18000D01*
X8620Y17960D01*
X8640Y17920D01*
X8600Y17940D01*
X8560Y17920D01*
X19270Y18070D02*
X19310Y18150D01*
X19270Y18230D01*
X19350Y18190D01*
X19430Y18230D01*
X19390Y18150D01*
X19430Y18070D01*
X19350Y18110D01*
X19270Y18070D01*
X19310Y18110D02*
X19330Y18150D01*
X19310Y18190D01*
X19350Y18170D01*
X19390Y18190D01*
X19370Y18150D01*
X19390Y18110D01*
X19350Y18130D01*
X19310Y18110D01*
X24270Y15070D02*
X24310Y15150D01*
X24270Y15230D01*
X24350Y15190D01*
X24430Y15230D01*
X24390Y15150D01*
X24430Y15070D01*
X24350Y15110D01*
X24270Y15070D01*
X24310Y15110D02*
X24330Y15150D01*
X24310Y15190D01*
X24350Y15170D01*
X24390Y15190D01*
X24370Y15150D01*
X24390Y15110D01*
X24350Y15130D01*
X24310Y15110D01*
X22470Y15706D02*
X22510Y15786D01*
X22470Y15866D01*
X22550Y15826D01*
X22630Y15866D01*
X22590Y15786D01*
X22630Y15706D01*
X22550Y15746D01*
X22470Y15706D01*
X22510Y15746D02*
X22530Y15786D01*
X22510Y15826D01*
X22550Y15806D01*
X22590Y15826D01*
X22570Y15786D01*
X22590Y15746D01*
X22550Y15766D01*
X22510Y15746D01*
X19270Y19920D02*
X19310Y20000D01*
X19270Y20080D01*
X19350Y20040D01*
X19430Y20080D01*
X19390Y20000D01*
X19430Y19920D01*
X19350Y19960D01*
X19270Y19920D01*
X19310Y19960D02*
X19330Y20000D01*
X19310Y20040D01*
X19350Y20020D01*
X19390Y20040D01*
X19370Y20000D01*
X19390Y19960D01*
X19350Y19980D01*
X19310Y19960D01*
X18967Y19710D02*
X19008Y19790D01*
X18967Y19870D01*
X19047Y19830D01*
X19128Y19870D01*
X19088Y19790D01*
X19128Y19710D01*
X19047Y19750D01*
X18967Y19710D01*
X19008Y19750D02*
X19028Y19790D01*
X19008Y19830D01*
X19047Y19810D01*
X19088Y19830D01*
X19067Y19790D01*
X19088Y19750D01*
X19047Y19770D01*
X19008Y19750D01*
X16270Y20639D02*
X16310Y20719D01*
X16270Y20799D01*
X16350Y20759D01*
X16430Y20799D01*
X16390Y20719D01*
X16430Y20639D01*
X16350Y20679D01*
X16270Y20639D01*
X16310Y20679D02*
X16330Y20719D01*
X16310Y20759D01*
X16350Y20739D01*
X16390Y20759D01*
X16370Y20719D01*
X16390Y20679D01*
X16350Y20699D01*
X16310Y20679D01*
X4320Y12640D02*
X4360Y12720D01*
X4320Y12800D01*
X4400Y12760D01*
X4480Y12800D01*
X4440Y12720D01*
X4480Y12640D01*
X4400Y12680D01*
X4320Y12640D01*
X4360Y12680D02*
X4380Y12720D01*
X4360Y12760D01*
X4400Y12740D01*
X4440Y12760D01*
X4420Y12720D01*
X4440Y12680D01*
X4400Y12700D01*
X4360Y12680D01*
X4320Y13080D02*
X4360Y13160D01*
X4320Y13240D01*
X4400Y13200D01*
X4480Y13240D01*
X4440Y13160D01*
X4480Y13080D01*
X4400Y13120D01*
X4320Y13080D01*
X4360Y13120D02*
X4380Y13160D01*
X4360Y13200D01*
X4400Y13180D01*
X4440Y13200D01*
X4420Y13160D01*
X4440Y13120D01*
X4400Y13140D01*
X4360Y13120D01*
X4320Y13920D02*
X4360Y14000D01*
X4320Y14080D01*
X4400Y14040D01*
X4480Y14080D01*
X4440Y14000D01*
X4480Y13920D01*
X4400Y13960D01*
X4320Y13920D01*
X4360Y13960D02*
X4380Y14000D01*
X4360Y14040D01*
X4400Y14020D01*
X4440Y14040D01*
X4420Y14000D01*
X4440Y13960D01*
X4400Y13980D01*
X4360Y13960D01*
X4320Y14320D02*
X4360Y14400D01*
X4320Y14480D01*
X4400Y14440D01*
X4480Y14480D01*
X4440Y14400D01*
X4480Y14320D01*
X4400Y14360D01*
X4320Y14320D01*
X4360Y14360D02*
X4380Y14400D01*
X4360Y14440D01*
X4400Y14420D01*
X4440Y14440D01*
X4420Y14400D01*
X4440Y14360D01*
X4400Y14380D01*
X4360Y14360D01*
X8520Y16800D02*
X8560Y16880D01*
X8520Y16960D01*
X8600Y16920D01*
X8680Y16960D01*
X8640Y16880D01*
X8680Y16800D01*
X8600Y16840D01*
X8520Y16800D01*
X8560Y16840D02*
X8580Y16880D01*
X8560Y16920D01*
X8600Y16900D01*
X8640Y16920D01*
X8620Y16880D01*
X8640Y16840D01*
X8600Y16860D01*
X8560Y16840D01*
X8520Y17200D02*
X8560Y17280D01*
X8520Y17360D01*
X8600Y17320D01*
X8680Y17360D01*
X8640Y17280D01*
X8680Y17200D01*
X8600Y17240D01*
X8520Y17200D01*
X8560Y17240D02*
X8580Y17280D01*
X8560Y17320D01*
X8600Y17300D01*
X8640Y17320D01*
X8620Y17280D01*
X8640Y17240D01*
X8600Y17260D01*
X8560Y17240D01*
X4670Y17680D02*
X4710Y17760D01*
X4670Y17840D01*
X4750Y17800D01*
X4830Y17840D01*
X4790Y17760D01*
X4830Y17680D01*
X4750Y17720D01*
X4670Y17680D01*
X4710Y17720D02*
X4730Y17760D01*
X4710Y17800D01*
X4750Y17780D01*
X4790Y17800D01*
X4770Y17760D01*
X4790Y17720D01*
X4750Y17740D01*
X4710Y17720D01*
X20970Y22330D02*
X21010Y22410D01*
X20970Y22490D01*
X21050Y22450D01*
X21130Y22490D01*
X21090Y22410D01*
X21130Y22330D01*
X21050Y22370D01*
X20970Y22330D01*
X21010Y22370D02*
X21030Y22410D01*
X21010Y22450D01*
X21050Y22430D01*
X21090Y22450D01*
X21070Y22410D01*
X21090Y22370D01*
X21050Y22390D01*
X21010Y22370D01*
X21198Y22670D02*
X21238Y22750D01*
X21198Y22830D01*
X21278Y22790D01*
X21358Y22830D01*
X21318Y22750D01*
X21358Y22670D01*
X21278Y22710D01*
X21198Y22670D01*
X21238Y22710D02*
X21258Y22750D01*
X21238Y22790D01*
X21278Y22770D01*
X21318Y22790D01*
X21298Y22750D01*
X21318Y22710D01*
X21278Y22730D01*
X21238Y22710D01*
X20620Y20870D02*
X20660Y20950D01*
X20620Y21030D01*
X20700Y20990D01*
X20780Y21030D01*
X20740Y20950D01*
X20780Y20870D01*
X20700Y20910D01*
X20620Y20870D01*
X20660Y20910D02*
X20680Y20950D01*
X20660Y20990D01*
X20700Y20970D01*
X20740Y20990D01*
X20720Y20950D01*
X20740Y20910D01*
X20700Y20930D01*
X20660Y20910D01*
X20870Y20320D02*
X20910Y20400D01*
X20870Y20480D01*
X20950Y20440D01*
X21030Y20480D01*
X20990Y20400D01*
X21030Y20320D01*
X20950Y20360D01*
X20870Y20320D01*
X20910Y20360D02*
X20930Y20400D01*
X20910Y20440D01*
X20950Y20420D01*
X20990Y20440D01*
X20970Y20400D01*
X20990Y20360D01*
X20950Y20380D01*
X20910Y20360D01*
X21470Y20520D02*
X21510Y20600D01*
X21470Y20680D01*
X21550Y20640D01*
X21630Y20680D01*
X21590Y20600D01*
X21630Y20520D01*
X21550Y20560D01*
X21470Y20520D01*
X21510Y20560D02*
X21530Y20600D01*
X21510Y20640D01*
X21550Y20620D01*
X21590Y20640D01*
X21570Y20600D01*
X21590Y20560D01*
X21550Y20580D01*
X21510Y20560D01*
X19920Y9620D02*
X19960Y9700D01*
X19920Y9780D01*
X20000Y9740D01*
X20080Y9780D01*
X20040Y9700D01*
X20080Y9620D01*
X20000Y9660D01*
X19920Y9620D01*
X19960Y9660D02*
X19980Y9700D01*
X19960Y9740D01*
X20000Y9720D01*
X20040Y9740D01*
X20020Y9700D01*
X20040Y9660D01*
X20000Y9680D01*
X19960Y9660D01*
X14420Y26583D02*
X14460Y26663D01*
X14420Y26743D01*
X14500Y26703D01*
X14580Y26743D01*
X14540Y26663D01*
X14580Y26583D01*
X14500Y26623D01*
X14420Y26583D01*
X14460Y26623D02*
X14480Y26663D01*
X14460Y26703D01*
X14500Y26683D01*
X14540Y26703D01*
X14520Y26663D01*
X14540Y26623D01*
X14500Y26643D01*
X14460Y26623D01*
X15970Y24420D02*
X16010Y24500D01*
X15970Y24580D01*
X16050Y24540D01*
X16130Y24580D01*
X16090Y24500D01*
X16130Y24420D01*
X16050Y24460D01*
X15970Y24420D01*
X16010Y24460D02*
X16030Y24500D01*
X16010Y24540D01*
X16050Y24520D01*
X16090Y24540D01*
X16070Y24500D01*
X16090Y24460D01*
X16050Y24480D01*
X16010Y24460D01*
X27230Y24820D02*
X27270Y24900D01*
X27230Y24980D01*
X27310Y24940D01*
X27390Y24980D01*
X27350Y24900D01*
X27390Y24820D01*
X27310Y24860D01*
X27230Y24820D01*
X27270Y24860D02*
X27290Y24900D01*
X27270Y24940D01*
X27310Y24920D01*
X27350Y24940D01*
X27330Y24900D01*
X27350Y24860D01*
X27310Y24880D01*
X27270Y24860D01*
X27720Y24520D02*
X27760Y24600D01*
X27720Y24680D01*
X27800Y24640D01*
X27880Y24680D01*
X27840Y24600D01*
X27880Y24520D01*
X27800Y24560D01*
X27720Y24520D01*
X27760Y24560D02*
X27780Y24600D01*
X27760Y24640D01*
X27800Y24620D01*
X27840Y24640D01*
X27820Y24600D01*
X27840Y24560D01*
X27800Y24580D01*
X27760Y24560D01*
X26220Y24370D02*
X26260Y24450D01*
X26220Y24530D01*
X26300Y24490D01*
X26380Y24530D01*
X26340Y24450D01*
X26380Y24370D01*
X26300Y24410D01*
X26220Y24370D01*
X26260Y24410D02*
X26280Y24450D01*
X26260Y24490D01*
X26300Y24470D01*
X26340Y24490D01*
X26320Y24450D01*
X26340Y24410D01*
X26300Y24430D01*
X26260Y24410D01*
X26220Y24803D02*
X26260Y24883D01*
X26220Y24963D01*
X26300Y24923D01*
X26380Y24963D01*
X26340Y24883D01*
X26380Y24803D01*
X26300Y24843D01*
X26220Y24803D01*
X26260Y24843D02*
X26280Y24883D01*
X26260Y24923D01*
X26300Y24903D01*
X26340Y24923D01*
X26320Y24883D01*
X26340Y24843D01*
X26300Y24863D01*
X26260Y24843D01*
X33570Y11370D02*
X33610Y11450D01*
X33570Y11530D01*
X33650Y11490D01*
X33730Y11530D01*
X33690Y11450D01*
X33730Y11370D01*
X33650Y11410D01*
X33570Y11370D01*
X33610Y11410D02*
X33630Y11450D01*
X33610Y11490D01*
X33650Y11470D01*
X33690Y11490D01*
X33670Y11450D01*
X33690Y11410D01*
X33650Y11430D01*
X33610Y11410D01*
X31970Y13662D02*
X32010Y13742D01*
X31970Y13822D01*
X32050Y13782D01*
X32130Y13822D01*
X32090Y13742D01*
X32130Y13662D01*
X32050Y13702D01*
X31970Y13662D01*
X32010Y13702D02*
X32030Y13742D01*
X32010Y13782D01*
X32050Y13762D01*
X32090Y13782D01*
X32070Y13742D01*
X32090Y13702D01*
X32050Y13722D01*
X32010Y13702D01*
X32270Y12920D02*
X32310Y13000D01*
X32270Y13080D01*
X32350Y13040D01*
X32430Y13080D01*
X32390Y13000D01*
X32430Y12920D01*
X32350Y12960D01*
X32270Y12920D01*
X32310Y12960D02*
X32330Y13000D01*
X32310Y13040D01*
X32350Y13020D01*
X32390Y13040D01*
X32370Y13000D01*
X32390Y12960D01*
X32350Y12980D01*
X32310Y12960D01*
X33070Y11120D02*
X33110Y11200D01*
X33070Y11280D01*
X33150Y11240D01*
X33230Y11280D01*
X33190Y11200D01*
X33230Y11120D01*
X33150Y11160D01*
X33070Y11120D01*
X33110Y11160D02*
X33130Y11200D01*
X33110Y11240D01*
X33150Y11220D01*
X33190Y11240D01*
X33170Y11200D01*
X33190Y11160D01*
X33150Y11180D01*
X33110Y11160D01*
X25720Y14970D02*
X25760Y15050D01*
X25720Y15130D01*
X25800Y15090D01*
X25880Y15130D01*
X25840Y15050D01*
X25880Y14970D01*
X25800Y15010D01*
X25720Y14970D01*
X25760Y15010D02*
X25780Y15050D01*
X25760Y15090D01*
X25800Y15070D01*
X25840Y15090D01*
X25820Y15050D01*
X25840Y15010D01*
X25800Y15030D01*
X25760Y15010D01*
X24870Y14970D02*
X24910Y15050D01*
X24870Y15130D01*
X24950Y15090D01*
X25030Y15130D01*
X24990Y15050D01*
X25030Y14970D01*
X24950Y15010D01*
X24870Y14970D01*
X24910Y15010D02*
X24930Y15050D01*
X24910Y15090D01*
X24950Y15070D01*
X24990Y15090D01*
X24970Y15050D01*
X24990Y15010D01*
X24950Y15030D01*
X24910Y15010D01*
X15092Y18970D02*
X15132Y19050D01*
X15092Y19130D01*
X15172Y19090D01*
X15252Y19130D01*
X15212Y19050D01*
X15252Y18970D01*
X15172Y19010D01*
X15092Y18970D01*
X15132Y19010D02*
X15152Y19050D01*
X15132Y19090D01*
X15172Y19070D01*
X15212Y19090D01*
X15192Y19050D01*
X15212Y19010D01*
X15172Y19030D01*
X15132Y19010D01*
X25370Y18720D02*
X25410Y18800D01*
X25370Y18880D01*
X25450Y18840D01*
X25530Y18880D01*
X25490Y18800D01*
X25530Y18720D01*
X25450Y18760D01*
X25370Y18720D01*
X25410Y18760D02*
X25430Y18800D01*
X25410Y18840D01*
X25450Y18820D01*
X25490Y18840D01*
X25470Y18800D01*
X25490Y18760D01*
X25450Y18780D01*
X25410Y18760D01*
X22270Y8170D02*
X22310Y8250D01*
X22270Y8330D01*
X22350Y8290D01*
X22430Y8330D01*
X22390Y8250D01*
X22430Y8170D01*
X22350Y8210D01*
X22270Y8170D01*
X22310Y8210D02*
X22330Y8250D01*
X22310Y8290D01*
X22350Y8270D01*
X22390Y8290D01*
X22370Y8250D01*
X22390Y8210D01*
X22350Y8230D01*
X22310Y8210D01*
X19170Y9570D02*
X19210Y9650D01*
X19170Y9730D01*
X19250Y9690D01*
X19330Y9730D01*
X19290Y9650D01*
X19330Y9570D01*
X19250Y9610D01*
X19170Y9570D01*
X19210Y9610D02*
X19230Y9650D01*
X19210Y9690D01*
X19250Y9670D01*
X19290Y9690D01*
X19270Y9650D01*
X19290Y9610D01*
X19250Y9630D01*
X19210Y9610D01*
X1070Y11120D02*
X1110Y11200D01*
X1070Y11280D01*
X1150Y11240D01*
X1230Y11280D01*
X1190Y11200D01*
X1230Y11120D01*
X1150Y11160D01*
X1070Y11120D01*
X1110Y11160D02*
X1130Y11200D01*
X1110Y11240D01*
X1150Y11220D01*
X1190Y11240D01*
X1170Y11200D01*
X1190Y11160D01*
X1150Y11180D01*
X1110Y11160D01*
D94*
X31303Y35810D02*
G03*
X31303Y35810I-80J0D01*
G01*
X10030Y36950D02*
G03*
X10030Y36950I-80J0D01*
G01*
X11030D02*
G03*
X11030Y36950I-80J0D01*
G01*
D95*
X9990D02*
G03*
X9990Y36950I-40J0D01*
G01*
X10990D02*
G03*
X10990Y36950I-40J0D01*
G01*
M02*
