G04*
G04 #@! TF.GenerationSoftware,Altium Limited,Altium Designer,19.0.4 (130)*
G04*
G04 Layer_Color=16711935*
%FSLAX24Y24*%
%MOIN*%
G70*
G01*
G75*
%ADD10C,0.0100*%
%ADD90C,0.0039*%
D10*
X789Y8838D02*
X907Y8720D01*
X828Y8917D02*
X946Y8799D01*
X1150Y8639D02*
Y8954D01*
X993Y8718D02*
X1307D01*
X1150D02*
X1307Y8876D01*
X993D02*
X1150Y8718D01*
X993Y8876D02*
X1307D01*
X789Y12838D02*
X907Y12720D01*
X828Y12917D02*
X946Y12799D01*
X1150Y12639D02*
Y12954D01*
X993Y12718D02*
X1307D01*
X1150D02*
X1307Y12876D01*
X993D02*
X1150Y12718D01*
X993Y12876D02*
X1307D01*
D90*
X1943Y28377D02*
X2061Y28259D01*
X1904Y28298D02*
X2022Y28180D01*
X1700Y28143D02*
Y28457D01*
X1543Y28379D02*
X1857D01*
X1543Y28221D02*
X1700Y28379D01*
X1857Y28221D01*
X1543D02*
X1857D01*
X7843Y28327D02*
X7961Y28209D01*
X7804Y28248D02*
X7922Y28130D01*
X7600Y28093D02*
Y28407D01*
X7443Y28329D02*
X7757D01*
X7443Y28171D02*
X7600Y28329D01*
X7757Y28171D01*
X7443D02*
X7757D01*
X6393Y28327D02*
X6511Y28209D01*
X6354Y28248D02*
X6472Y28130D01*
X6150Y28093D02*
Y28407D01*
X5993Y28329D02*
X6307D01*
X5993Y28171D02*
X6150Y28329D01*
X6307Y28171D01*
X5993D02*
X6307D01*
X4943Y28327D02*
X5061Y28209D01*
X4904Y28248D02*
X5022Y28130D01*
X4700Y28093D02*
Y28407D01*
X4543Y28329D02*
X4857D01*
X4543Y28171D02*
X4700Y28329D01*
X4857Y28171D01*
X4543D02*
X4857D01*
X3443Y28377D02*
X3561Y28259D01*
X3404Y28298D02*
X3522Y28180D01*
X3200Y28143D02*
Y28457D01*
X3043Y28379D02*
X3357D01*
X3043Y28221D02*
X3200Y28379D01*
X3357Y28221D01*
X3043D02*
X3357D01*
M02*
