G04*
G04 #@! TF.GenerationSoftware,Altium Limited,Altium Designer,19.0.4 (130)*
G04*
G04 Layer_Color=128*
%FSLAX25Y25*%
%MOIN*%
G70*
G01*
G75*
%ADD21R,0.03800X0.03500*%
%ADD22R,0.03500X0.03800*%
%ADD33R,0.05906X0.11811*%
G04:AMPARAMS|DCode=88|XSize=98.43mil|YSize=236.22mil|CornerRadius=0mil|HoleSize=0mil|Usage=FLASHONLY|Rotation=90.000|XOffset=0mil|YOffset=0mil|HoleType=Round|Shape=Octagon|*
%AMOCTAGOND88*
4,1,8,-0.11811,-0.02461,-0.11811,0.02461,-0.09350,0.04921,0.09350,0.04921,0.11811,0.02461,0.11811,-0.02461,0.09350,-0.04921,-0.09350,-0.04921,-0.11811,-0.02461,0.0*
%
%ADD88OCTAGOND88*%

%ADD89O,0.23622X0.09843*%
%ADD90O,0.02362X0.07087*%
D21*
X252000Y195000D02*
D03*
X245100D02*
D03*
X62791Y137000D02*
D03*
X69691D02*
D03*
X79100Y160500D02*
D03*
X86000D02*
D03*
X253600Y332000D02*
D03*
X260500D02*
D03*
D22*
X189044Y163500D02*
D03*
Y156600D02*
D03*
X196666Y163500D02*
D03*
Y156600D02*
D03*
X204351Y163500D02*
D03*
Y156600D02*
D03*
X212281Y163500D02*
D03*
Y156600D02*
D03*
X262000Y188000D02*
D03*
Y194900D02*
D03*
X68500Y297500D02*
D03*
Y290600D02*
D03*
D33*
X44000Y111500D02*
D03*
X64000D02*
D03*
D88*
X303135Y353000D02*
D03*
D89*
X370852D02*
D03*
D90*
X247000Y232846D02*
D03*
X252000D02*
D03*
X257000D02*
D03*
X262000D02*
D03*
X247000Y204500D02*
D03*
X252000D02*
D03*
X257000D02*
D03*
X262000D02*
D03*
M02*
