G04*
G04 #@! TF.GenerationSoftware,Altium Limited,Altium Designer,19.0.4 (130)*
G04*
G04 Layer_Color=8421504*
%FSLAX25Y25*%
%MOIN*%
G70*
G01*
G75*
%ADD19R,0.05512X0.01575*%
%ADD20R,0.10236X0.09055*%
%ADD21R,0.03800X0.03500*%
%ADD22R,0.03500X0.03800*%
%ADD23R,0.03858X0.03661*%
%ADD24O,0.06102X0.02362*%
%ADD25R,0.02362X0.03937*%
%ADD26R,0.05512X0.05512*%
%ADD27R,0.03937X0.02362*%
%ADD28R,0.08661X0.02992*%
%ADD29R,0.08661X0.11811*%
%ADD30O,0.01181X0.06102*%
%ADD31O,0.06102X0.01181*%
%ADD32R,0.05000X0.06000*%
%ADD33R,0.05906X0.11811*%
D19*
X24473Y279618D02*
D03*
Y277059D02*
D03*
Y274500D02*
D03*
Y271941D02*
D03*
Y269382D02*
D03*
X24332Y204118D02*
D03*
Y201559D02*
D03*
Y199000D02*
D03*
Y196441D02*
D03*
Y193882D02*
D03*
D20*
X271000Y130500D02*
D03*
D21*
X247400Y242500D02*
D03*
X240500D02*
D03*
X247400Y250500D02*
D03*
X240500D02*
D03*
X217400Y82500D02*
D03*
X210500D02*
D03*
X42581Y309500D02*
D03*
X49481D02*
D03*
X80000Y289000D02*
D03*
X86900D02*
D03*
X326600Y293882D02*
D03*
X333500D02*
D03*
Y302500D02*
D03*
X326600D02*
D03*
X264900Y144500D02*
D03*
X258000D02*
D03*
X242600D02*
D03*
X249500D02*
D03*
X216900Y162776D02*
D03*
X210000D02*
D03*
X216900Y170500D02*
D03*
X210000D02*
D03*
X218900Y144500D02*
D03*
X212000D02*
D03*
X196100D02*
D03*
X203000D02*
D03*
X116500Y347740D02*
D03*
X109600D02*
D03*
X116500Y358500D02*
D03*
X109600D02*
D03*
X38600Y196441D02*
D03*
X45500D02*
D03*
X51000Y57000D02*
D03*
X44100D02*
D03*
X163900Y259500D02*
D03*
X157000D02*
D03*
X244900Y199315D02*
D03*
X238000D02*
D03*
X157100Y249500D02*
D03*
X164000D02*
D03*
X44100Y48000D02*
D03*
X51000D02*
D03*
X59681Y309500D02*
D03*
X66581D02*
D03*
D22*
X192500Y81937D02*
D03*
Y88837D02*
D03*
X200000D02*
D03*
Y81937D02*
D03*
X11500Y105500D02*
D03*
Y98600D02*
D03*
Y145600D02*
D03*
Y138700D02*
D03*
X83500Y258100D02*
D03*
Y265000D02*
D03*
X156978Y197400D02*
D03*
Y190500D02*
D03*
X225500Y163668D02*
D03*
Y170355D02*
D03*
D23*
X11500Y91000D02*
D03*
Y84937D02*
D03*
Y131000D02*
D03*
Y124937D02*
D03*
D24*
X65500Y263500D02*
D03*
Y268500D02*
D03*
Y273500D02*
D03*
Y278500D02*
D03*
Y283500D02*
D03*
Y288500D02*
D03*
Y293500D02*
D03*
Y298500D02*
D03*
X44240D02*
D03*
Y293500D02*
D03*
Y288500D02*
D03*
Y283500D02*
D03*
Y278500D02*
D03*
Y273500D02*
D03*
Y268500D02*
D03*
Y263500D02*
D03*
D25*
X87240Y280528D02*
D03*
X79760D02*
D03*
X83500Y271472D02*
D03*
D26*
X327842Y23595D02*
D03*
X308157D02*
D03*
X233658Y21905D02*
D03*
X253343D02*
D03*
X327842Y46095D02*
D03*
X308157D02*
D03*
X289843D02*
D03*
X270158D02*
D03*
X233157Y45906D02*
D03*
X252842D02*
D03*
X270158Y70906D02*
D03*
X289843D02*
D03*
X63842Y35594D02*
D03*
X44157D02*
D03*
D27*
X100528Y340760D02*
D03*
Y348240D02*
D03*
X91472Y344500D02*
D03*
D28*
X53886Y178695D02*
D03*
Y187750D02*
D03*
Y169640D02*
D03*
D29*
X77114Y178695D02*
D03*
D30*
X175378Y188488D02*
D03*
X177347D02*
D03*
X179315D02*
D03*
X181283D02*
D03*
X183252D02*
D03*
X185221D02*
D03*
X187189D02*
D03*
X189157D02*
D03*
X191126D02*
D03*
X193095D02*
D03*
X195063D02*
D03*
X197031D02*
D03*
X199000D02*
D03*
X200969D02*
D03*
X202937D02*
D03*
X204906D02*
D03*
X206874D02*
D03*
X208842D02*
D03*
X210811D02*
D03*
X212779D02*
D03*
X214748D02*
D03*
X216717D02*
D03*
X218685D02*
D03*
X220654D02*
D03*
X222622D02*
D03*
Y249512D02*
D03*
X220654D02*
D03*
X218685D02*
D03*
X216717D02*
D03*
X214748D02*
D03*
X212779D02*
D03*
X210811D02*
D03*
X208842D02*
D03*
X206874D02*
D03*
X204906D02*
D03*
X202937D02*
D03*
X200969D02*
D03*
X199000D02*
D03*
X197031D02*
D03*
X195063D02*
D03*
X193095D02*
D03*
X191126D02*
D03*
X189157D02*
D03*
X187189D02*
D03*
X185221D02*
D03*
X183252D02*
D03*
X181283D02*
D03*
X179315D02*
D03*
X177347D02*
D03*
X175378D02*
D03*
D31*
X229512Y195378D02*
D03*
Y197346D02*
D03*
Y199315D02*
D03*
Y201284D02*
D03*
Y203252D02*
D03*
Y205221D02*
D03*
Y207189D02*
D03*
Y209157D02*
D03*
Y211126D02*
D03*
Y213094D02*
D03*
Y215063D02*
D03*
Y217032D02*
D03*
Y219000D02*
D03*
Y220969D02*
D03*
Y222937D02*
D03*
Y224905D02*
D03*
Y226874D02*
D03*
Y228842D02*
D03*
Y230811D02*
D03*
Y232780D02*
D03*
Y234748D02*
D03*
Y236717D02*
D03*
Y238685D02*
D03*
Y240653D02*
D03*
Y242622D02*
D03*
X168488D02*
D03*
Y240653D02*
D03*
Y238685D02*
D03*
Y236717D02*
D03*
Y234748D02*
D03*
Y232780D02*
D03*
Y230811D02*
D03*
Y228842D02*
D03*
Y226874D02*
D03*
Y224905D02*
D03*
Y222937D02*
D03*
Y220969D02*
D03*
Y219000D02*
D03*
Y217032D02*
D03*
Y215063D02*
D03*
Y213094D02*
D03*
Y211126D02*
D03*
Y209157D02*
D03*
Y207189D02*
D03*
Y205221D02*
D03*
Y203252D02*
D03*
Y201284D02*
D03*
Y199315D02*
D03*
Y197346D02*
D03*
Y195378D02*
D03*
D32*
X79000Y160500D02*
D03*
Y149500D02*
D03*
X62691Y125500D02*
D03*
Y136500D02*
D03*
D33*
X46000Y152000D02*
D03*
X66000D02*
D03*
M02*
