G04*
G04 #@! TF.GenerationSoftware,Altium Limited,Altium Designer,19.0.4 (130)*
G04*
G04 Layer_Color=2752767*
%FSLAX25Y25*%
%MOIN*%
G70*
G01*
G75*
%ADD98C,0.00200*%
%ADD99C,0.00267*%
%ADD100C,0.00133*%
D98*
X25642Y259625D02*
Y261225D01*
X27242D01*
Y259625D01*
X25642D01*
Y287775D02*
Y289375D01*
X27242D01*
Y287775D01*
X25642D01*
X12059D02*
Y289375D01*
X13659D01*
Y287775D01*
X12059D01*
Y259625D02*
Y261225D01*
X13659D01*
Y259625D01*
X12059D01*
X25501Y184125D02*
Y185725D01*
X27101D01*
Y184125D01*
X25501D01*
Y212275D02*
Y213875D01*
X27101D01*
Y212275D01*
X25501D01*
X11918D02*
Y213875D01*
X13518D01*
Y212275D01*
X11918D01*
Y184125D02*
Y185725D01*
X13518D01*
Y184125D01*
X11918D01*
X241500Y127200D02*
X240700Y128800D01*
X242300D01*
X241500Y127200D01*
Y132200D02*
X240700Y133800D01*
X242300D01*
X241500Y132200D01*
X322230Y352298D02*
X322630Y352698D01*
X323030D01*
X322630Y353098D01*
X323030Y353498D01*
X322630D01*
X322230Y353898D01*
X321830Y353498D01*
X321430D01*
X321830Y353098D01*
X321430Y352698D01*
X321830D01*
X322230Y352298D01*
X350957Y352200D02*
X351357Y353000D01*
X350957Y353800D01*
X351757Y353400D01*
X352557Y353800D01*
X352157Y353000D01*
X352557Y352200D01*
X351757Y352600D01*
X350957Y352200D01*
X170100Y288600D02*
Y288200D01*
X170900D01*
Y288600D01*
X171300D01*
Y289400D01*
X170900D01*
Y289800D01*
X170100D01*
Y289400D01*
X169700D01*
Y288600D01*
X170100D01*
X180100D02*
Y288200D01*
X180900D01*
Y288600D01*
X181300D01*
Y289400D01*
X180900D01*
Y289800D01*
X180100D01*
Y289400D01*
X179700D01*
Y288600D01*
X180100D01*
X190100D02*
Y288200D01*
X190900D01*
Y288600D01*
X191300D01*
Y289400D01*
X190900D01*
Y289800D01*
X190100D01*
Y289400D01*
X189700D01*
Y288600D01*
X190100D01*
X200100D02*
Y288200D01*
X200900D01*
Y288600D01*
X201300D01*
Y289400D01*
X200900D01*
Y289800D01*
X200100D01*
Y289400D01*
X199700D01*
Y288600D01*
X200100D01*
X210100D02*
Y288200D01*
X210900D01*
Y288600D01*
X211300D01*
Y289400D01*
X210900D01*
Y289800D01*
X210100D01*
Y289400D01*
X209700D01*
Y288600D01*
X210100D01*
X220100D02*
Y288200D01*
X220900D01*
Y288600D01*
X221300D01*
Y289400D01*
X220900D01*
Y289800D01*
X220100D01*
Y289400D01*
X219700D01*
Y288600D01*
X220100D01*
X230100D02*
Y288200D01*
X230900D01*
Y288600D01*
X231300D01*
Y289400D01*
X230900D01*
Y289800D01*
X230100D01*
Y289400D01*
X229700D01*
Y288600D01*
X230100D01*
X365700Y67200D02*
X366100D01*
X366500Y67600D01*
X366900Y67200D01*
X367300D01*
Y67600D01*
X366900Y68000D01*
X367300Y68400D01*
Y68800D01*
X366900D01*
X366500Y68400D01*
X366100Y68800D01*
X365700D01*
Y68400D01*
X366100Y68000D01*
X365700Y67600D01*
Y67200D01*
X355700Y77200D02*
X356100D01*
X356500Y77600D01*
X356900Y77200D01*
X357300D01*
Y77600D01*
X356900Y78000D01*
X357300Y78400D01*
Y78800D01*
X356900D01*
X356500Y78400D01*
X356100Y78800D01*
X355700D01*
Y78400D01*
X356100Y78000D01*
X355700Y77600D01*
Y77200D01*
X365700D02*
X366100D01*
X366500Y77600D01*
X366900Y77200D01*
X367300D01*
Y77600D01*
X366900Y78000D01*
X367300Y78400D01*
Y78800D01*
X366900D01*
X366500Y78400D01*
X366100Y78800D01*
X365700D01*
Y78400D01*
X366100Y78000D01*
X365700Y77600D01*
Y77200D01*
X355700Y67200D02*
X356100D01*
X356500Y67600D01*
X356900Y67200D01*
X357300D01*
Y67600D01*
X356900Y68000D01*
X357300Y68400D01*
Y68800D01*
X356900D01*
X356500Y68400D01*
X356100Y68800D01*
X355700D01*
Y68400D01*
X356100Y68000D01*
X355700Y67600D01*
Y67200D01*
Y57200D02*
X356100D01*
X356500Y57600D01*
X356900Y57200D01*
X357300D01*
Y57600D01*
X356900Y58000D01*
X357300Y58400D01*
Y58800D01*
X356900D01*
X356500Y58400D01*
X356100Y58800D01*
X355700D01*
Y58400D01*
X356100Y58000D01*
X355700Y57600D01*
Y57200D01*
X365700D02*
X366100D01*
X366500Y57600D01*
X366900Y57200D01*
X367300D01*
Y57600D01*
X366900Y58000D01*
X367300Y58400D01*
Y58800D01*
X366900D01*
X366500Y58400D01*
X366100Y58800D01*
X365700D01*
Y58400D01*
X366100Y58000D01*
X365700Y57600D01*
Y57200D01*
X216846Y129429D02*
X217646Y130229D01*
X218446Y129429D01*
X217646Y128629D01*
X216846Y129429D01*
X197554D02*
X198354Y130229D01*
X199154Y129429D01*
X198354Y128629D01*
X197554Y129429D01*
X165700Y116623D02*
X166100D01*
X166500Y117023D01*
X166900Y116623D01*
X167300D01*
Y117023D01*
X166900Y117423D01*
X167300Y117823D01*
Y118223D01*
X166900D01*
X166500Y117823D01*
X166100Y118223D01*
X165700D01*
Y117823D01*
X166100Y117423D01*
X165700Y117023D01*
Y116623D01*
Y106623D02*
X166100D01*
X166500Y107023D01*
X166900Y106623D01*
X167300D01*
Y107023D01*
X166900Y107423D01*
X167300Y107823D01*
Y108223D01*
X166900D01*
X166500Y107823D01*
X166100Y108223D01*
X165700D01*
Y107823D01*
X166100Y107423D01*
X165700Y107023D01*
Y106623D01*
Y126623D02*
X166100D01*
X166500Y127023D01*
X166900Y126623D01*
X167300D01*
Y127023D01*
X166900Y127423D01*
X167300Y127823D01*
Y128223D01*
X166900D01*
X166500Y127823D01*
X166100Y128223D01*
X165700D01*
Y127823D01*
X166100Y127423D01*
X165700Y127023D01*
Y126623D01*
Y136623D02*
X166100D01*
X166500Y137023D01*
X166900Y136623D01*
X167300D01*
Y137023D01*
X166900Y137423D01*
X167300Y137823D01*
Y138223D01*
X166900D01*
X166500Y137823D01*
X166100Y138223D01*
X165700D01*
Y137823D01*
X166100Y137423D01*
X165700Y137023D01*
Y136623D01*
Y146623D02*
X166100D01*
X166500Y147023D01*
X166900Y146623D01*
X167300D01*
Y147023D01*
X166900Y147423D01*
X167300Y147823D01*
Y148223D01*
X166900D01*
X166500Y147823D01*
X166100Y148223D01*
X165700D01*
Y147823D01*
X166100Y147423D01*
X165700Y147023D01*
Y146623D01*
Y96623D02*
X166100D01*
X166500Y97023D01*
X166900Y96623D01*
X167300D01*
Y97023D01*
X166900Y97423D01*
X167300Y97823D01*
Y98223D01*
X166900D01*
X166500Y97823D01*
X166100Y98223D01*
X165700D01*
Y97823D01*
X166100Y97423D01*
X165700Y97023D01*
Y96623D01*
X108700Y61200D02*
X109100D01*
X109500Y61600D01*
X109900Y61200D01*
X110300D01*
Y61600D01*
X109900Y62000D01*
X110300Y62400D01*
Y62800D01*
X109900D01*
X109500Y62400D01*
X109100Y62800D01*
X108700D01*
Y62400D01*
X109100Y62000D01*
X108700Y61600D01*
Y61200D01*
Y71200D02*
X109100D01*
X109500Y71600D01*
X109900Y71200D01*
X110300D01*
Y71600D01*
X109900Y72000D01*
X110300Y72400D01*
Y72800D01*
X109900D01*
X109500Y72400D01*
X109100Y72800D01*
X108700D01*
Y72400D01*
X109100Y72000D01*
X108700Y71600D01*
Y71200D01*
X128700Y61200D02*
X129100D01*
X129500Y61600D01*
X129900Y61200D01*
X130300D01*
Y61600D01*
X129900Y62000D01*
X130300Y62400D01*
Y62800D01*
X129900D01*
X129500Y62400D01*
X129100Y62800D01*
X128700D01*
Y62400D01*
X129100Y62000D01*
X128700Y61600D01*
Y61200D01*
Y71200D02*
X129100D01*
X129500Y71600D01*
X129900Y71200D01*
X130300D01*
Y71600D01*
X129900Y72000D01*
X130300Y72400D01*
Y72800D01*
X129900D01*
X129500Y72400D01*
X129100Y72800D01*
X128700D01*
Y72400D01*
X129100Y72000D01*
X128700Y71600D01*
Y71200D01*
X138700Y61200D02*
X139100D01*
X139500Y61600D01*
X139900Y61200D01*
X140300D01*
Y61600D01*
X139900Y62000D01*
X140300Y62400D01*
Y62800D01*
X139900D01*
X139500Y62400D01*
X139100Y62800D01*
X138700D01*
Y62400D01*
X139100Y62000D01*
X138700Y61600D01*
Y61200D01*
Y71200D02*
X139100D01*
X139500Y71600D01*
X139900Y71200D01*
X140300D01*
Y71600D01*
X139900Y72000D01*
X140300Y72400D01*
Y72800D01*
X139900D01*
X139500Y72400D01*
X139100Y72800D01*
X138700D01*
Y72400D01*
X139100Y72000D01*
X138700Y71600D01*
Y71200D01*
X118700Y61200D02*
X119100D01*
X119500Y61600D01*
X119900Y61200D01*
X120300D01*
Y61600D01*
X119900Y62000D01*
X120300Y62400D01*
Y62800D01*
X119900D01*
X119500Y62400D01*
X119100Y62800D01*
X118700D01*
Y62400D01*
X119100Y62000D01*
X118700Y61600D01*
Y61200D01*
Y71200D02*
X119100D01*
X119500Y71600D01*
X119900Y71200D01*
X120300D01*
Y71600D01*
X119900Y72000D01*
X120300Y72400D01*
Y72800D01*
X119900D01*
X119500Y72400D01*
X119100Y72800D01*
X118700D01*
Y72400D01*
X119100Y72000D01*
X118700Y71600D01*
Y71200D01*
X358200Y156169D02*
X358600D01*
X359000Y156569D01*
X359400Y156169D01*
X359800D01*
Y156569D01*
X359400Y156969D01*
X359800Y157369D01*
Y157769D01*
X359400D01*
X359000Y157369D01*
X358600Y157769D01*
X358200D01*
Y157369D01*
X358600Y156969D01*
X358200Y156569D01*
Y156169D01*
Y106169D02*
X358600D01*
X359000Y106569D01*
X359400Y106169D01*
X359800D01*
Y106569D01*
X359400Y106969D01*
X359800Y107369D01*
Y107769D01*
X359400D01*
X359000Y107369D01*
X358600Y107769D01*
X358200D01*
Y107369D01*
X358600Y106969D01*
X358200Y106569D01*
Y106169D01*
Y116169D02*
X358600D01*
X359000Y116569D01*
X359400Y116169D01*
X359800D01*
Y116569D01*
X359400Y116969D01*
X359800Y117369D01*
Y117769D01*
X359400D01*
X359000Y117369D01*
X358600Y117769D01*
X358200D01*
Y117369D01*
X358600Y116969D01*
X358200Y116569D01*
Y116169D01*
Y126169D02*
X358600D01*
X359000Y126569D01*
X359400Y126169D01*
X359800D01*
Y126569D01*
X359400Y126969D01*
X359800Y127369D01*
Y127769D01*
X359400D01*
X359000Y127369D01*
X358600Y127769D01*
X358200D01*
Y127369D01*
X358600Y126969D01*
X358200Y126569D01*
Y126169D01*
Y146169D02*
X358600D01*
X359000Y146569D01*
X359400Y146169D01*
X359800D01*
Y146569D01*
X359400Y146969D01*
X359800Y147369D01*
Y147769D01*
X359400D01*
X359000Y147369D01*
X358600Y147769D01*
X358200D01*
Y147369D01*
X358600Y146969D01*
X358200Y146569D01*
Y146169D01*
Y136169D02*
X358600D01*
X359000Y136569D01*
X359400Y136169D01*
X359800D01*
Y136569D01*
X359400Y136969D01*
X359800Y137369D01*
Y137769D01*
X359400D01*
X359000Y137369D01*
X358600Y137769D01*
X358200D01*
Y137369D01*
X358600Y136969D01*
X358200Y136569D01*
Y136169D01*
X357700Y217700D02*
X358100D01*
X358500Y218100D01*
X358900Y217700D01*
X359300D01*
Y218100D01*
X358900Y218500D01*
X359300Y218900D01*
Y219300D01*
X358900D01*
X358500Y218900D01*
X358100Y219300D01*
X357700D01*
Y218900D01*
X358100Y218500D01*
X357700Y218100D01*
Y217700D01*
Y207700D02*
X358100D01*
X358500Y208100D01*
X358900Y207700D01*
X359300D01*
Y208100D01*
X358900Y208500D01*
X359300Y208900D01*
Y209300D01*
X358900D01*
X358500Y208900D01*
X358100Y209300D01*
X357700D01*
Y208900D01*
X358100Y208500D01*
X357700Y208100D01*
Y207700D01*
Y197700D02*
X358100D01*
X358500Y198100D01*
X358900Y197700D01*
X359300D01*
Y198100D01*
X358900Y198500D01*
X359300Y198900D01*
Y199300D01*
X358900D01*
X358500Y198900D01*
X358100Y199300D01*
X357700D01*
Y198900D01*
X358100Y198500D01*
X357700Y198100D01*
Y197700D01*
Y187700D02*
X358100D01*
X358500Y188100D01*
X358900Y187700D01*
X359300D01*
Y188100D01*
X358900Y188500D01*
X359300Y188900D01*
Y189300D01*
X358900D01*
X358500Y188900D01*
X358100Y189300D01*
X357700D01*
Y188900D01*
X358100Y188500D01*
X357700Y188100D01*
Y187700D01*
X356200Y278952D02*
X356600D01*
X357000Y279351D01*
X357400Y278952D01*
X357800D01*
Y279351D01*
X357400Y279751D01*
X357800Y280152D01*
Y280552D01*
X357400D01*
X357000Y280152D01*
X356600Y280552D01*
X356200D01*
Y280152D01*
X356600Y279751D01*
X356200Y279351D01*
Y278952D01*
Y269109D02*
X356600D01*
X357000Y269509D01*
X357400Y269109D01*
X357800D01*
Y269509D01*
X357400Y269909D01*
X357800Y270309D01*
Y270709D01*
X357400D01*
X357000Y270309D01*
X356600Y270709D01*
X356200D01*
Y270309D01*
X356600Y269909D01*
X356200Y269509D01*
Y269109D01*
Y259266D02*
X356600D01*
X357000Y259666D01*
X357400Y259266D01*
X357800D01*
Y259666D01*
X357400Y260067D01*
X357800Y260467D01*
Y260866D01*
X357400D01*
X357000Y260467D01*
X356600Y260866D01*
X356200D01*
Y260467D01*
X356600Y260067D01*
X356200Y259666D01*
Y259266D01*
Y249424D02*
X356600D01*
X357000Y249824D01*
X357400Y249424D01*
X357800D01*
Y249824D01*
X357400Y250224D01*
X357800Y250624D01*
Y251024D01*
X357400D01*
X357000Y250624D01*
X356600Y251024D01*
X356200D01*
Y250624D01*
X356600Y250224D01*
X356200Y249824D01*
Y249424D01*
X63427Y323031D02*
X64227Y323832D01*
X65027Y323031D01*
X64227Y322232D01*
X63427Y323031D01*
X44135D02*
X44935Y323832D01*
X45735Y323031D01*
X44935Y322232D01*
X44135Y323031D01*
X342700Y370200D02*
X343100D01*
X343500Y370600D01*
X343900Y370200D01*
X344300D01*
Y370600D01*
X343900Y371000D01*
X344300Y371400D01*
Y371800D01*
X343900D01*
X343500Y371400D01*
X343100Y371800D01*
X342700D01*
Y371400D01*
X343100Y371000D01*
X342700Y370600D01*
Y370200D01*
X332700D02*
X333100D01*
X333500Y370600D01*
X333900Y370200D01*
X334300D01*
Y370600D01*
X333900Y371000D01*
X334300Y371400D01*
Y371800D01*
X333900D01*
X333500Y371400D01*
X333100Y371800D01*
X332700D01*
Y371400D01*
X333100Y371000D01*
X332700Y370600D01*
Y370200D01*
X342700Y380200D02*
X343100D01*
X343500Y380600D01*
X343900Y380200D01*
X344300D01*
Y380600D01*
X343900Y381000D01*
X344300Y381400D01*
Y381800D01*
X343900D01*
X343500Y381400D01*
X343100Y381800D01*
X342700D01*
Y381400D01*
X343100Y381000D01*
X342700Y380600D01*
Y380200D01*
X332700D02*
X333100D01*
X333500Y380600D01*
X333900Y380200D01*
X334300D01*
Y380600D01*
X333900Y381000D01*
X334300Y381400D01*
Y381800D01*
X333900D01*
X333500Y381400D01*
X333100Y381800D01*
X332700D01*
Y381400D01*
X333100Y381000D01*
X332700Y380600D01*
Y380200D01*
Y350200D02*
X333100D01*
X333500Y350600D01*
X333900Y350200D01*
X334300D01*
Y350600D01*
X333900Y351000D01*
X334300Y351400D01*
Y351800D01*
X333900D01*
X333500Y351400D01*
X333100Y351800D01*
X332700D01*
Y351400D01*
X333100Y351000D01*
X332700Y350600D01*
Y350200D01*
X342700D02*
X343100D01*
X343500Y350600D01*
X343900Y350200D01*
X344300D01*
Y350600D01*
X343900Y351000D01*
X344300Y351400D01*
Y351800D01*
X343900D01*
X343500Y351400D01*
X343100Y351800D01*
X342700D01*
Y351400D01*
X343100Y351000D01*
X342700Y350600D01*
Y350200D01*
Y360200D02*
X343100D01*
X343500Y360600D01*
X343900Y360200D01*
X344300D01*
Y360600D01*
X343900Y361000D01*
X344300Y361400D01*
Y361800D01*
X343900D01*
X343500Y361400D01*
X343100Y361800D01*
X342700D01*
Y361400D01*
X343100Y361000D01*
X342700Y360600D01*
Y360200D01*
X332700D02*
X333100D01*
X333500Y360600D01*
X333900Y360200D01*
X334300D01*
Y360600D01*
X333900Y361000D01*
X334300Y361400D01*
Y361800D01*
X333900D01*
X333500Y361400D01*
X333100Y361800D01*
X332700D01*
Y361400D01*
X333100Y361000D01*
X332700Y360600D01*
Y360200D01*
X34724Y242350D02*
Y243950D01*
X36324D01*
Y242350D01*
X34724D01*
X35124Y242750D02*
Y243550D01*
X35924D01*
Y242750D01*
X35124D01*
X34724Y234476D02*
Y236076D01*
X36324D01*
Y234476D01*
X34724D01*
X35124Y234876D02*
Y235676D01*
X35924D01*
Y234876D01*
X35124D01*
X34724Y226602D02*
Y228202D01*
X36324D01*
Y226602D01*
X34724D01*
X35124Y227002D02*
Y227802D01*
X35924D01*
Y227002D01*
X35124D01*
X52440Y226602D02*
Y228202D01*
X54040D01*
Y226602D01*
X52440D01*
X52840Y227002D02*
Y227802D01*
X53640D01*
Y227002D01*
X52840D01*
X52440Y234476D02*
Y236076D01*
X54040D01*
Y234476D01*
X52440D01*
X52840Y234876D02*
Y235676D01*
X53640D01*
Y234876D01*
X52840D01*
X52440Y242350D02*
Y243950D01*
X54040D01*
Y242350D01*
X52440D01*
X52840Y242750D02*
Y243550D01*
X53640D01*
Y242750D01*
X52840D01*
X21700Y102700D02*
X22100D01*
X22500Y103100D01*
X22900Y102700D01*
X23300D01*
Y103100D01*
X22900Y103500D01*
X23300Y103900D01*
Y104300D01*
X22900D01*
X22500Y103900D01*
X22100Y104300D01*
X21700D01*
Y103900D01*
X22100Y103500D01*
X21700Y103100D01*
Y102700D01*
X31700D02*
X32100D01*
X32500Y103100D01*
X32900Y102700D01*
X33300D01*
Y103100D01*
X32900Y103500D01*
X33300Y103900D01*
Y104300D01*
X32900D01*
X32500Y103900D01*
X32100Y104300D01*
X31700D01*
Y103900D01*
X32100Y103500D01*
X31700Y103100D01*
Y102700D01*
Y92700D02*
X32100D01*
X32500Y93100D01*
X32900Y92700D01*
X33300D01*
Y93100D01*
X32900Y93500D01*
X33300Y93900D01*
Y94300D01*
X32900D01*
X32500Y93900D01*
X32100Y94300D01*
X31700D01*
Y93900D01*
X32100Y93500D01*
X31700Y93100D01*
Y92700D01*
X21700Y82700D02*
X22100D01*
X22500Y83100D01*
X22900Y82700D01*
X23300D01*
Y83100D01*
X22900Y83500D01*
X23300Y83900D01*
Y84300D01*
X22900D01*
X22500Y83900D01*
X22100Y84300D01*
X21700D01*
Y83900D01*
X22100Y83500D01*
X21700Y83100D01*
Y82700D01*
X31700D02*
X32100D01*
X32500Y83100D01*
X32900Y82700D01*
X33300D01*
Y83100D01*
X32900Y83500D01*
X33300Y83900D01*
Y84300D01*
X32900D01*
X32500Y83900D01*
X32100Y84300D01*
X31700D01*
Y83900D01*
X32100Y83500D01*
X31700Y83100D01*
Y82700D01*
X21700Y92700D02*
X22100D01*
X22500Y93100D01*
X22900Y92700D01*
X23300D01*
Y93100D01*
X22900Y93500D01*
X23300Y93900D01*
Y94300D01*
X22900D01*
X22500Y93900D01*
X22100Y94300D01*
X21700D01*
Y93900D01*
X22100Y93500D01*
X21700Y93100D01*
Y92700D01*
Y142700D02*
X22100D01*
X22500Y143100D01*
X22900Y142700D01*
X23300D01*
Y143100D01*
X22900Y143500D01*
X23300Y143900D01*
Y144300D01*
X22900D01*
X22500Y143900D01*
X22100Y144300D01*
X21700D01*
Y143900D01*
X22100Y143500D01*
X21700Y143100D01*
Y142700D01*
X31700D02*
X32100D01*
X32500Y143100D01*
X32900Y142700D01*
X33300D01*
Y143100D01*
X32900Y143500D01*
X33300Y143900D01*
Y144300D01*
X32900D01*
X32500Y143900D01*
X32100Y144300D01*
X31700D01*
Y143900D01*
X32100Y143500D01*
X31700Y143100D01*
Y142700D01*
Y132700D02*
X32100D01*
X32500Y133100D01*
X32900Y132700D01*
X33300D01*
Y133100D01*
X32900Y133500D01*
X33300Y133900D01*
Y134300D01*
X32900D01*
X32500Y133900D01*
X32100Y134300D01*
X31700D01*
Y133900D01*
X32100Y133500D01*
X31700Y133100D01*
Y132700D01*
X21700Y122700D02*
X22100D01*
X22500Y123100D01*
X22900Y122700D01*
X23300D01*
Y123100D01*
X22900Y123500D01*
X23300Y123900D01*
Y124300D01*
X22900D01*
X22500Y123900D01*
X22100Y124300D01*
X21700D01*
Y123900D01*
X22100Y123500D01*
X21700Y123100D01*
Y122700D01*
X31700D02*
X32100D01*
X32500Y123100D01*
X32900Y122700D01*
X33300D01*
Y123100D01*
X32900Y123500D01*
X33300Y123900D01*
Y124300D01*
X32900D01*
X32500Y123900D01*
X32100Y124300D01*
X31700D01*
Y123900D01*
X32100Y123500D01*
X31700Y123100D01*
Y122700D01*
X21700Y132700D02*
X22100D01*
X22500Y133100D01*
X22900Y132700D01*
X23300D01*
Y133100D01*
X22900Y133500D01*
X23300Y133900D01*
Y134300D01*
X22900D01*
X22500Y133900D01*
X22100Y134300D01*
X21700D01*
Y133900D01*
X22100Y133500D01*
X21700Y133100D01*
Y132700D01*
X53773Y355100D02*
Y354700D01*
X54573D01*
Y355100D01*
X54973D01*
Y355900D01*
X54573D01*
Y356300D01*
X53773D01*
Y355900D01*
X53373D01*
Y355100D01*
X53773D01*
X75427D02*
Y354700D01*
X76227D01*
Y355100D01*
X76627D01*
Y355900D01*
X76227D01*
Y356300D01*
X75427D01*
Y355900D01*
X75027D01*
Y355100D01*
X75427D01*
X283500Y352200D02*
X282700Y353800D01*
X284300D01*
X283500Y352200D01*
Y352600D02*
X283100Y353400D01*
X283900D01*
X283500Y352600D01*
X253500Y352200D02*
X252700Y353800D01*
X254300D01*
X253500Y352200D01*
Y352600D02*
X253100Y353400D01*
X253900D01*
X253500Y352600D01*
X283500Y341700D02*
X282700Y343300D01*
X284300D01*
X283500Y341700D01*
Y342100D02*
X283100Y342900D01*
X283900D01*
X283500Y342100D01*
X253500Y341700D02*
X252700Y343300D01*
X254300D01*
X253500Y341700D01*
Y342100D02*
X253100Y342900D01*
X253900D01*
X253500Y342100D01*
X19685Y373216D02*
X20085Y373616D01*
X20485D01*
X20085Y374016D01*
X20485Y374416D01*
X20085D01*
X19685Y374816D01*
X19285Y374416D01*
X18885D01*
X19285Y374016D01*
X18885Y373616D01*
X19285D01*
X19685Y373216D01*
Y373616D02*
X19885Y373816D01*
X20085D01*
X19885Y374016D01*
X20085Y374216D01*
X19885D01*
X19685Y374416D01*
X19485Y374216D01*
X19285D01*
X19485Y374016D01*
X19285Y373816D01*
X19485D01*
X19685Y373616D01*
X374016Y373216D02*
X374416Y373616D01*
X374816D01*
X374416Y374016D01*
X374816Y374416D01*
X374416D01*
X374016Y374816D01*
X373616Y374416D01*
X373216D01*
X373616Y374016D01*
X373216Y373616D01*
X373616D01*
X374016Y373216D01*
Y373616D02*
X374216Y373816D01*
X374416D01*
X374216Y374016D01*
X374416Y374216D01*
X374216D01*
X374016Y374416D01*
X373816Y374216D01*
X373616D01*
X373816Y374016D01*
X373616Y373816D01*
X373816D01*
X374016Y373616D01*
Y18885D02*
X374416Y19285D01*
X374816D01*
X374416Y19685D01*
X374816Y20085D01*
X374416D01*
X374016Y20485D01*
X373616Y20085D01*
X373216D01*
X373616Y19685D01*
X373216Y19285D01*
X373616D01*
X374016Y18885D01*
Y19285D02*
X374216Y19485D01*
X374416D01*
X374216Y19685D01*
X374416Y19885D01*
X374216D01*
X374016Y20085D01*
X373816Y19885D01*
X373616D01*
X373816Y19685D01*
X373616Y19485D01*
X373816D01*
X374016Y19285D01*
X19685Y18885D02*
X20085Y19285D01*
X20485D01*
X20085Y19685D01*
X20485Y20085D01*
X20085D01*
X19685Y20485D01*
X19285Y20085D01*
X18885D01*
X19285Y19685D01*
X18885Y19285D01*
X19285D01*
X19685Y18885D01*
Y19285D02*
X19885Y19485D01*
X20085D01*
X19885Y19685D01*
X20085Y19885D01*
X19885D01*
X19685Y20085D01*
X19485Y19885D01*
X19285D01*
X19485Y19685D01*
X19285Y19485D01*
X19485D01*
X19685Y19285D01*
X163200Y254000D02*
X163600Y254800D01*
X163200Y255600D01*
X164000Y255200D01*
X164800Y255600D01*
X164400Y254800D01*
X164800Y254000D01*
X164000Y254400D01*
X163200Y254000D01*
X163600Y254400D02*
X163800Y254800D01*
X163600Y255200D01*
X164000Y255000D01*
X164400Y255200D01*
X164200Y254800D01*
X164400Y254400D01*
X164000Y254600D01*
X163600Y254400D01*
X285700Y242400D02*
X286100Y243200D01*
X285700Y244000D01*
X286500Y243600D01*
X287300Y244000D01*
X286900Y243200D01*
X287300Y242400D01*
X286500Y242800D01*
X285700Y242400D01*
X286100Y242800D02*
X286300Y243200D01*
X286100Y243600D01*
X286500Y243400D01*
X286900Y243600D01*
X286700Y243200D01*
X286900Y242800D01*
X286500Y243000D01*
X286100Y242800D01*
X285200Y248800D02*
X285600Y249600D01*
X285200Y250400D01*
X286000Y250000D01*
X286800Y250400D01*
X286400Y249600D01*
X286800Y248800D01*
X286000Y249200D01*
X285200Y248800D01*
X285600Y249200D02*
X285800Y249600D01*
X285600Y250000D01*
X286000Y249800D01*
X286400Y250000D01*
X286200Y249600D01*
X286400Y249200D01*
X286000Y249400D01*
X285600Y249200D01*
X145700Y160800D02*
X146100Y161600D01*
X145700Y162400D01*
X146500Y162000D01*
X147300Y162400D01*
X146900Y161600D01*
X147300Y160800D01*
X146500Y161200D01*
X145700Y160800D01*
X146100Y161200D02*
X146300Y161600D01*
X146100Y162000D01*
X146500Y161800D01*
X146900Y162000D01*
X146700Y161600D01*
X146900Y161200D01*
X146500Y161400D01*
X146100Y161200D01*
X142200Y245200D02*
X142600Y246000D01*
X142200Y246800D01*
X143000Y246400D01*
X143800Y246800D01*
X143400Y246000D01*
X143800Y245200D01*
X143000Y245600D01*
X142200Y245200D01*
X142600Y245600D02*
X142800Y246000D01*
X142600Y246400D01*
X143000Y246200D01*
X143400Y246400D01*
X143200Y246000D01*
X143400Y245600D01*
X143000Y245800D01*
X142600Y245600D01*
X154200Y294000D02*
X154600Y294800D01*
X154200Y295600D01*
X155000Y295200D01*
X155800Y295600D01*
X155400Y294800D01*
X155800Y294000D01*
X155000Y294400D01*
X154200Y294000D01*
X154600Y294400D02*
X154800Y294800D01*
X154600Y295200D01*
X155000Y295000D01*
X155400Y295200D01*
X155200Y294800D01*
X155400Y294400D01*
X155000Y294600D01*
X154600Y294400D01*
X154200Y282800D02*
X154600Y283600D01*
X154200Y284400D01*
X155000Y284000D01*
X155800Y284400D01*
X155400Y283600D01*
X155800Y282800D01*
X155000Y283200D01*
X154200Y282800D01*
X154600Y283200D02*
X154800Y283600D01*
X154600Y284000D01*
X155000Y283800D01*
X155400Y284000D01*
X155200Y283600D01*
X155400Y283200D01*
X155000Y283400D01*
X154600Y283200D01*
X169200Y282000D02*
X169600Y282800D01*
X169200Y283600D01*
X170000Y283200D01*
X170800Y283600D01*
X170400Y282800D01*
X170800Y282000D01*
X170000Y282400D01*
X169200Y282000D01*
X169600Y282400D02*
X169800Y282800D01*
X169600Y283200D01*
X170000Y283000D01*
X170400Y283200D01*
X170200Y282800D01*
X170400Y282400D01*
X170000Y282600D01*
X169600Y282400D01*
X174559Y294400D02*
X174959Y295200D01*
X174559Y296000D01*
X175359Y295600D01*
X176159Y296000D01*
X175759Y295200D01*
X176159Y294400D01*
X175359Y294800D01*
X174559Y294400D01*
X174959Y294800D02*
X175159Y295200D01*
X174959Y295600D01*
X175359Y295400D01*
X175759Y295600D01*
X175559Y295200D01*
X175759Y294800D01*
X175359Y295000D01*
X174959Y294800D01*
X246694Y280083D02*
X247094Y280883D01*
X246694Y281683D01*
X247494Y281283D01*
X248294Y281683D01*
X247894Y280883D01*
X248294Y280083D01*
X247494Y280483D01*
X246694Y280083D01*
X247094Y280483D02*
X247294Y280883D01*
X247094Y281283D01*
X247494Y281083D01*
X247894Y281283D01*
X247694Y280883D01*
X247894Y280483D01*
X247494Y280683D01*
X247094Y280483D01*
X349079Y186000D02*
X349479Y186800D01*
X349079Y187600D01*
X349879Y187200D01*
X350679Y187600D01*
X350279Y186800D01*
X350679Y186000D01*
X349879Y186400D01*
X349079Y186000D01*
X349479Y186400D02*
X349679Y186800D01*
X349479Y187200D01*
X349879Y187000D01*
X350279Y187200D01*
X350079Y186800D01*
X350279Y186400D01*
X349879Y186600D01*
X349479Y186400D01*
X346526Y152354D02*
X346926Y153154D01*
X346526Y153954D01*
X347326Y153554D01*
X348126Y153954D01*
X347726Y153154D01*
X348126Y152354D01*
X347326Y152754D01*
X346526Y152354D01*
X346926Y152754D02*
X347126Y153154D01*
X346926Y153554D01*
X347326Y153354D01*
X347726Y153554D01*
X347526Y153154D01*
X347726Y152754D01*
X347326Y152954D01*
X346926Y152754D01*
X351584Y125600D02*
X351984Y126400D01*
X351584Y127200D01*
X352384Y126800D01*
X353184Y127200D01*
X352784Y126400D01*
X353184Y125600D01*
X352384Y126000D01*
X351584Y125600D01*
X351984Y126000D02*
X352184Y126400D01*
X351984Y126800D01*
X352384Y126600D01*
X352784Y126800D01*
X352584Y126400D01*
X352784Y126000D01*
X352384Y126200D01*
X351984Y126000D01*
X346700Y143600D02*
X347100Y144400D01*
X346700Y145200D01*
X347500Y144800D01*
X348300Y145200D01*
X347900Y144400D01*
X348300Y143600D01*
X347500Y144000D01*
X346700Y143600D01*
X347100Y144000D02*
X347300Y144400D01*
X347100Y144800D01*
X347500Y144600D01*
X347900Y144800D01*
X347700Y144400D01*
X347900Y144000D01*
X347500Y144200D01*
X347100Y144000D01*
X356200Y47600D02*
X356600Y48400D01*
X356200Y49200D01*
X357000Y48800D01*
X357800Y49200D01*
X357400Y48400D01*
X357800Y47600D01*
X357000Y48000D01*
X356200Y47600D01*
X356600Y48000D02*
X356800Y48400D01*
X356600Y48800D01*
X357000Y48600D01*
X357400Y48800D01*
X357200Y48400D01*
X357400Y48000D01*
X357000Y48200D01*
X356600Y48000D01*
X345200Y47200D02*
X345600Y48000D01*
X345200Y48800D01*
X346000Y48400D01*
X346800Y48800D01*
X346400Y48000D01*
X346800Y47200D01*
X346000Y47600D01*
X345200Y47200D01*
X345600Y47600D02*
X345800Y48000D01*
X345600Y48400D01*
X346000Y48200D01*
X346400Y48400D01*
X346200Y48000D01*
X346400Y47600D01*
X346000Y47800D01*
X345600Y47600D01*
X249456Y120800D02*
X249856Y121600D01*
X249456Y122400D01*
X250256Y122000D01*
X251056Y122400D01*
X250656Y121600D01*
X251056Y120800D01*
X250256Y121200D01*
X249456Y120800D01*
X249856Y121200D02*
X250056Y121600D01*
X249856Y122000D01*
X250256Y121800D01*
X250656Y122000D01*
X250456Y121600D01*
X250656Y121200D01*
X250256Y121400D01*
X249856Y121200D01*
X238503Y143700D02*
X238902Y144500D01*
X238503Y145300D01*
X239302Y144900D01*
X240103Y145300D01*
X239703Y144500D01*
X240103Y143700D01*
X239302Y144100D01*
X238503Y143700D01*
X238902Y144100D02*
X239103Y144500D01*
X238902Y144900D01*
X239302Y144700D01*
X239703Y144900D01*
X239503Y144500D01*
X239703Y144100D01*
X239302Y144300D01*
X238902Y144100D01*
X279200Y130000D02*
X279600Y130800D01*
X279200Y131600D01*
X280000Y131200D01*
X280800Y131600D01*
X280400Y130800D01*
X280800Y130000D01*
X280000Y130400D01*
X279200Y130000D01*
X279600Y130400D02*
X279800Y130800D01*
X279600Y131200D01*
X280000Y131000D01*
X280400Y131200D01*
X280200Y130800D01*
X280400Y130400D01*
X280000Y130600D01*
X279600Y130400D01*
X270200Y138800D02*
X270600Y139600D01*
X270200Y140400D01*
X271000Y140000D01*
X271800Y140400D01*
X271400Y139600D01*
X271800Y138800D01*
X271000Y139200D01*
X270200Y138800D01*
X270600Y139200D02*
X270800Y139600D01*
X270600Y140000D01*
X271000Y139800D01*
X271400Y140000D01*
X271200Y139600D01*
X271400Y139200D01*
X271000Y139400D01*
X270600Y139200D01*
X254200Y155600D02*
X254600Y156400D01*
X254200Y157200D01*
X255000Y156800D01*
X255800Y157200D01*
X255400Y156400D01*
X255800Y155600D01*
X255000Y156000D01*
X254200Y155600D01*
X254600Y156000D02*
X254800Y156400D01*
X254600Y156800D01*
X255000Y156600D01*
X255400Y156800D01*
X255200Y156400D01*
X255400Y156000D01*
X255000Y156200D01*
X254600Y156000D01*
X278200Y161600D02*
X278600Y162400D01*
X278200Y163200D01*
X279000Y162800D01*
X279800Y163200D01*
X279400Y162400D01*
X279800Y161600D01*
X279000Y162000D01*
X278200Y161600D01*
X278600Y162000D02*
X278800Y162400D01*
X278600Y162800D01*
X279000Y162600D01*
X279400Y162800D01*
X279200Y162400D01*
X279400Y162000D01*
X279000Y162200D01*
X278600Y162000D01*
X195730Y220400D02*
X196130Y221200D01*
X195730Y222000D01*
X196530Y221600D01*
X197330Y222000D01*
X196930Y221200D01*
X197330Y220400D01*
X196530Y220800D01*
X195730Y220400D01*
X196130Y220800D02*
X196330Y221200D01*
X196130Y221600D01*
X196530Y221400D01*
X196930Y221600D01*
X196730Y221200D01*
X196930Y220800D01*
X196530Y221000D01*
X196130Y220800D01*
X201226Y227600D02*
X201626Y228400D01*
X201226Y229200D01*
X202026Y228800D01*
X202826Y229200D01*
X202426Y228400D01*
X202826Y227600D01*
X202026Y228000D01*
X201226Y227600D01*
X201626Y228000D02*
X201826Y228400D01*
X201626Y228800D01*
X202026Y228600D01*
X202426Y228800D01*
X202226Y228400D01*
X202426Y228000D01*
X202026Y228200D01*
X201626Y228000D01*
X208898Y234676D02*
X209298Y235476D01*
X208898Y236276D01*
X209698Y235876D01*
X210498Y236276D01*
X210098Y235476D01*
X210498Y234676D01*
X209698Y235076D01*
X208898Y234676D01*
X209298Y235076D02*
X209498Y235476D01*
X209298Y235876D01*
X209698Y235676D01*
X210098Y235876D01*
X209898Y235476D01*
X210098Y235076D01*
X209698Y235276D01*
X209298Y235076D01*
X207588Y271200D02*
X207987Y272000D01*
X207588Y272800D01*
X208387Y272400D01*
X209188Y272800D01*
X208787Y272000D01*
X209188Y271200D01*
X208387Y271600D01*
X207588Y271200D01*
X207987Y271600D02*
X208188Y272000D01*
X207987Y272400D01*
X208387Y272200D01*
X208787Y272400D01*
X208588Y272000D01*
X208787Y271600D01*
X208387Y271800D01*
X207987Y271600D01*
X186700Y330400D02*
X187100Y331200D01*
X186700Y332000D01*
X187500Y331600D01*
X188300Y332000D01*
X187900Y331200D01*
X188300Y330400D01*
X187500Y330800D01*
X186700Y330400D01*
X187100Y330800D02*
X187300Y331200D01*
X187100Y331600D01*
X187500Y331400D01*
X187900Y331600D01*
X187700Y331200D01*
X187900Y330800D01*
X187500Y331000D01*
X187100Y330800D01*
X64700Y340000D02*
X65100Y340800D01*
X64700Y341600D01*
X65500Y341200D01*
X66300Y341600D01*
X65900Y340800D01*
X66300Y340000D01*
X65500Y340400D01*
X64700Y340000D01*
X65100Y340400D02*
X65300Y340800D01*
X65100Y341200D01*
X65500Y341000D01*
X65900Y341200D01*
X65700Y340800D01*
X65900Y340400D01*
X65500Y340600D01*
X65100Y340400D01*
X107200Y325200D02*
X107600Y326000D01*
X107200Y326800D01*
X108000Y326400D01*
X108800Y326800D01*
X108400Y326000D01*
X108800Y325200D01*
X108000Y325600D01*
X107200Y325200D01*
X107600Y325600D02*
X107800Y326000D01*
X107600Y326400D01*
X108000Y326200D01*
X108400Y326400D01*
X108200Y326000D01*
X108400Y325600D01*
X108000Y325800D01*
X107600Y325600D01*
X106700Y307200D02*
X107100Y308000D01*
X106700Y308800D01*
X107500Y308400D01*
X108300Y308800D01*
X107900Y308000D01*
X108300Y307200D01*
X107500Y307600D01*
X106700Y307200D01*
X107100Y307600D02*
X107300Y308000D01*
X107100Y308400D01*
X107500Y308200D01*
X107900Y308400D01*
X107700Y308000D01*
X107900Y307600D01*
X107500Y307800D01*
X107100Y307600D01*
X124700D02*
X125100Y308400D01*
X124700Y309200D01*
X125500Y308800D01*
X126300Y309200D01*
X125900Y308400D01*
X126300Y307600D01*
X125500Y308000D01*
X124700Y307600D01*
X125100Y308000D02*
X125300Y308400D01*
X125100Y308800D01*
X125500Y308600D01*
X125900Y308800D01*
X125700Y308400D01*
X125900Y308000D01*
X125500Y308200D01*
X125100Y308000D01*
X144320Y190200D02*
X144720Y191000D01*
X144320Y191800D01*
X145120Y191400D01*
X145920Y191800D01*
X145520Y191000D01*
X145920Y190200D01*
X145120Y190600D01*
X144320Y190200D01*
X144720Y190600D02*
X144920Y191000D01*
X144720Y191400D01*
X145120Y191200D01*
X145520Y191400D01*
X145320Y191000D01*
X145520Y190600D01*
X145120Y190800D01*
X144720Y190600D01*
X158700Y60800D02*
X159100Y61600D01*
X158700Y62400D01*
X159500Y62000D01*
X160300Y62400D01*
X159900Y61600D01*
X160300Y60800D01*
X159500Y61200D01*
X158700Y60800D01*
X159100Y61200D02*
X159300Y61600D01*
X159100Y62000D01*
X159500Y61800D01*
X159900Y62000D01*
X159700Y61600D01*
X159900Y61200D01*
X159500Y61400D01*
X159100Y61200D01*
X148700D02*
X149100Y62000D01*
X148700Y62800D01*
X149500Y62400D01*
X150300Y62800D01*
X149900Y62000D01*
X150300Y61200D01*
X149500Y61600D01*
X148700Y61200D01*
X149100Y61600D02*
X149300Y62000D01*
X149100Y62400D01*
X149500Y62200D01*
X149900Y62400D01*
X149700Y62000D01*
X149900Y61600D01*
X149500Y61800D01*
X149100Y61600D01*
X49700Y100000D02*
X50100Y100800D01*
X49700Y101600D01*
X50500Y101200D01*
X51300Y101600D01*
X50900Y100800D01*
X51300Y100000D01*
X50500Y100400D01*
X49700Y100000D01*
X50100Y100400D02*
X50300Y100800D01*
X50100Y101200D01*
X50500Y101000D01*
X50900Y101200D01*
X50700Y100800D01*
X50900Y100400D01*
X50500Y100600D01*
X50100Y100400D01*
X52200Y143600D02*
X52600Y144400D01*
X52200Y145200D01*
X53000Y144800D01*
X53800Y145200D01*
X53400Y144400D01*
X53800Y143600D01*
X53000Y144000D01*
X52200Y143600D01*
X52600Y144000D02*
X52800Y144400D01*
X52600Y144800D01*
X53000Y144600D01*
X53400Y144800D01*
X53200Y144400D01*
X53400Y144000D01*
X53000Y144200D01*
X52600Y144000D01*
X52200Y126800D02*
X52600Y127600D01*
X52200Y128400D01*
X53000Y128000D01*
X53800Y128400D01*
X53400Y127600D01*
X53800Y126800D01*
X53000Y127200D01*
X52200Y126800D01*
X52600Y127200D02*
X52800Y127600D01*
X52600Y128000D01*
X53000Y127800D01*
X53400Y128000D01*
X53200Y127600D01*
X53400Y127200D01*
X53000Y127400D01*
X52600Y127200D01*
X82700Y118800D02*
X83100Y119600D01*
X82700Y120400D01*
X83500Y120000D01*
X84300Y120400D01*
X83900Y119600D01*
X84300Y118800D01*
X83500Y119200D01*
X82700Y118800D01*
X83100Y119200D02*
X83300Y119600D01*
X83100Y120000D01*
X83500Y119800D01*
X83900Y120000D01*
X83700Y119600D01*
X83900Y119200D01*
X83500Y119400D01*
X83100Y119200D01*
X83200Y138000D02*
X83600Y138800D01*
X83200Y139600D01*
X84000Y139200D01*
X84800Y139600D01*
X84400Y138800D01*
X84800Y138000D01*
X84000Y138400D01*
X83200Y138000D01*
X83600Y138400D02*
X83800Y138800D01*
X83600Y139200D01*
X84000Y139000D01*
X84400Y139200D01*
X84200Y138800D01*
X84400Y138400D01*
X84000Y138600D01*
X83600Y138400D01*
X14200Y53200D02*
X14600Y54000D01*
X14200Y54800D01*
X15000Y54400D01*
X15800Y54800D01*
X15400Y54000D01*
X15800Y53200D01*
X15000Y53600D01*
X14200Y53200D01*
X14600Y53600D02*
X14800Y54000D01*
X14600Y54400D01*
X15000Y54200D01*
X15400Y54400D01*
X15200Y54000D01*
X15400Y53600D01*
X15000Y53800D01*
X14600Y53600D01*
X14200Y163600D02*
X14600Y164400D01*
X14200Y165200D01*
X15000Y164800D01*
X15800Y165200D01*
X15400Y164400D01*
X15800Y163600D01*
X15000Y164000D01*
X14200Y163600D01*
X14600Y164000D02*
X14800Y164400D01*
X14600Y164800D01*
X15000Y164600D01*
X15400Y164800D01*
X15200Y164400D01*
X15400Y164000D01*
X15000Y164200D01*
X14600Y164000D01*
X14200Y233600D02*
X14600Y234400D01*
X14200Y235200D01*
X15000Y234800D01*
X15800Y235200D01*
X15400Y234400D01*
X15800Y233600D01*
X15000Y234000D01*
X14200Y233600D01*
X14600Y234000D02*
X14800Y234400D01*
X14600Y234800D01*
X15000Y234600D01*
X15400Y234800D01*
X15200Y234400D01*
X15400Y234000D01*
X15000Y234200D01*
X14600Y234000D01*
X13700Y246000D02*
X14100Y246800D01*
X13700Y247600D01*
X14500Y247200D01*
X15300Y247600D01*
X14900Y246800D01*
X15300Y246000D01*
X14500Y246400D01*
X13700Y246000D01*
X14100Y246400D02*
X14300Y246800D01*
X14100Y247200D01*
X14500Y247000D01*
X14900Y247200D01*
X14700Y246800D01*
X14900Y246400D01*
X14500Y246600D01*
X14100Y246400D01*
X15200Y319200D02*
X15600Y320000D01*
X15200Y320800D01*
X16000Y320400D01*
X16800Y320800D01*
X16400Y320000D01*
X16800Y319200D01*
X16000Y319600D01*
X15200Y319200D01*
X15600Y319600D02*
X15800Y320000D01*
X15600Y320400D01*
X16000Y320200D01*
X16400Y320400D01*
X16200Y320000D01*
X16400Y319600D01*
X16000Y319800D01*
X15600Y319600D01*
X15751Y354700D02*
X16150Y355500D01*
X15751Y356300D01*
X16551Y355900D01*
X17350Y356300D01*
X16951Y355500D01*
X17350Y354700D01*
X16551Y355100D01*
X15751Y354700D01*
X16150Y355100D02*
X16351Y355500D01*
X16150Y355900D01*
X16551Y355700D01*
X16951Y355900D01*
X16750Y355500D01*
X16951Y355100D01*
X16551Y355300D01*
X16150Y355100D01*
X42700Y383200D02*
X43100Y384000D01*
X42700Y384800D01*
X43500Y384400D01*
X44300Y384800D01*
X43900Y384000D01*
X44300Y383200D01*
X43500Y383600D01*
X42700Y383200D01*
X43100Y383600D02*
X43300Y384000D01*
X43100Y384400D01*
X43500Y384200D01*
X43900Y384400D01*
X43700Y384000D01*
X43900Y383600D01*
X43500Y383800D01*
X43100Y383600D01*
X72700Y383200D02*
X73100Y384000D01*
X72700Y384800D01*
X73500Y384400D01*
X74300Y384800D01*
X73900Y384000D01*
X74300Y383200D01*
X73500Y383600D01*
X72700Y383200D01*
X73100Y383600D02*
X73300Y384000D01*
X73100Y384400D01*
X73500Y384200D01*
X73900Y384400D01*
X73700Y384000D01*
X73900Y383600D01*
X73500Y383800D01*
X73100Y383600D01*
X112700Y383200D02*
X113100Y384000D01*
X112700Y384800D01*
X113500Y384400D01*
X114300Y384800D01*
X113900Y384000D01*
X114300Y383200D01*
X113500Y383600D01*
X112700Y383200D01*
X113100Y383600D02*
X113300Y384000D01*
X113100Y384400D01*
X113500Y384200D01*
X113900Y384400D01*
X113700Y384000D01*
X113900Y383600D01*
X113500Y383800D01*
X113100Y383600D01*
X163200Y383200D02*
X163600Y384000D01*
X163200Y384800D01*
X164000Y384400D01*
X164800Y384800D01*
X164400Y384000D01*
X164800Y383200D01*
X164000Y383600D01*
X163200Y383200D01*
X163600Y383600D02*
X163800Y384000D01*
X163600Y384400D01*
X164000Y384200D01*
X164400Y384400D01*
X164200Y384000D01*
X164400Y383600D01*
X164000Y383800D01*
X163600Y383600D01*
X233700Y383200D02*
X234100Y384000D01*
X233700Y384800D01*
X234500Y384400D01*
X235300Y384800D01*
X234900Y384000D01*
X235300Y383200D01*
X234500Y383600D01*
X233700Y383200D01*
X234100Y383600D02*
X234300Y384000D01*
X234100Y384400D01*
X234500Y384200D01*
X234900Y384400D01*
X234700Y384000D01*
X234900Y383600D01*
X234500Y383800D01*
X234100Y383600D01*
X274700Y382400D02*
X275100Y383200D01*
X274700Y384000D01*
X275500Y383600D01*
X276300Y384000D01*
X275900Y383200D01*
X276300Y382400D01*
X275500Y382800D01*
X274700Y382400D01*
X275100Y382800D02*
X275300Y383200D01*
X275100Y383600D01*
X275500Y383400D01*
X275900Y383600D01*
X275700Y383200D01*
X275900Y382800D01*
X275500Y383000D01*
X275100Y382800D01*
X304700Y382000D02*
X305100Y382800D01*
X304700Y383600D01*
X305500Y383200D01*
X306300Y383600D01*
X305900Y382800D01*
X306300Y382000D01*
X305500Y382400D01*
X304700Y382000D01*
X305100Y382400D02*
X305300Y382800D01*
X305100Y383200D01*
X305500Y383000D01*
X305900Y383200D01*
X305700Y382800D01*
X305900Y382400D01*
X305500Y382600D01*
X305100Y382400D01*
X373200Y362000D02*
X373600Y362800D01*
X373200Y363600D01*
X374000Y363200D01*
X374800Y363600D01*
X374400Y362800D01*
X374800Y362000D01*
X374000Y362400D01*
X373200Y362000D01*
X373600Y362400D02*
X373800Y362800D01*
X373600Y363200D01*
X374000Y363000D01*
X374400Y363200D01*
X374200Y362800D01*
X374400Y362400D01*
X374000Y362600D01*
X373600Y362400D01*
X373200Y345200D02*
X373600Y346000D01*
X373200Y346800D01*
X374000Y346400D01*
X374800Y346800D01*
X374400Y346000D01*
X374800Y345200D01*
X374000Y345600D01*
X373200Y345200D01*
X373600Y345600D02*
X373800Y346000D01*
X373600Y346400D01*
X374000Y346200D01*
X374400Y346400D01*
X374200Y346000D01*
X374400Y345600D01*
X374000Y345800D01*
X373600Y345600D01*
X371700Y330800D02*
X372100Y331600D01*
X371700Y332400D01*
X372500Y332000D01*
X373300Y332400D01*
X372900Y331600D01*
X373300Y330800D01*
X372500Y331200D01*
X371700Y330800D01*
X372100Y331200D02*
X372300Y331600D01*
X372100Y332000D01*
X372500Y331800D01*
X372900Y332000D01*
X372700Y331600D01*
X372900Y331200D01*
X372500Y331400D01*
X372100Y331200D01*
X371684Y290700D02*
X372084Y291500D01*
X371684Y292300D01*
X372484Y291900D01*
X373284Y292300D01*
X372884Y291500D01*
X373284Y290700D01*
X372484Y291100D01*
X371684Y290700D01*
X372084Y291100D02*
X372284Y291500D01*
X372084Y291900D01*
X372484Y291700D01*
X372884Y291900D01*
X372684Y291500D01*
X372884Y291100D01*
X372484Y291300D01*
X372084Y291100D01*
X371700Y236000D02*
X372100Y236800D01*
X371700Y237600D01*
X372500Y237200D01*
X373300Y237600D01*
X372900Y236800D01*
X373300Y236000D01*
X372500Y236400D01*
X371700Y236000D01*
X372100Y236400D02*
X372300Y236800D01*
X372100Y237200D01*
X372500Y237000D01*
X372900Y237200D01*
X372700Y236800D01*
X372900Y236400D01*
X372500Y236600D01*
X372100Y236400D01*
X371700Y204000D02*
X372100Y204800D01*
X371700Y205600D01*
X372500Y205200D01*
X373300Y205600D01*
X372900Y204800D01*
X373300Y204000D01*
X372500Y204400D01*
X371700Y204000D01*
X372100Y204400D02*
X372300Y204800D01*
X372100Y205200D01*
X372500Y205000D01*
X372900Y205200D01*
X372700Y204800D01*
X372900Y204400D01*
X372500Y204600D01*
X372100Y204400D01*
X321200Y161200D02*
X321600Y162000D01*
X321200Y162800D01*
X322000Y162400D01*
X322800Y162800D01*
X322400Y162000D01*
X322800Y161200D01*
X322000Y161600D01*
X321200Y161200D01*
X321600Y161600D02*
X321800Y162000D01*
X321600Y162400D01*
X322000Y162200D01*
X322400Y162400D01*
X322200Y162000D01*
X322400Y161600D01*
X322000Y161800D01*
X321600Y161600D01*
X329200Y168800D02*
X329600Y169600D01*
X329200Y170400D01*
X330000Y170000D01*
X330800Y170400D01*
X330400Y169600D01*
X330800Y168800D01*
X330000Y169200D01*
X329200Y168800D01*
X329600Y169200D02*
X329800Y169600D01*
X329600Y170000D01*
X330000Y169800D01*
X330400Y170000D01*
X330200Y169600D01*
X330400Y169200D01*
X330000Y169400D01*
X329600Y169200D01*
X279200Y83200D02*
X279600Y84000D01*
X279200Y84800D01*
X280000Y84400D01*
X280800Y84800D01*
X280400Y84000D01*
X280800Y83200D01*
X280000Y83600D01*
X279200Y83200D01*
X279600Y83600D02*
X279800Y84000D01*
X279600Y84400D01*
X280000Y84200D01*
X280400Y84400D01*
X280200Y84000D01*
X280400Y83600D01*
X280000Y83800D01*
X279600Y83600D01*
X260200Y83200D02*
X260600Y84000D01*
X260200Y84800D01*
X261000Y84400D01*
X261800Y84800D01*
X261400Y84000D01*
X261800Y83200D01*
X261000Y83600D01*
X260200Y83200D01*
X260600Y83600D02*
X260800Y84000D01*
X260600Y84400D01*
X261000Y84200D01*
X261400Y84400D01*
X261200Y84000D01*
X261400Y83600D01*
X261000Y83800D01*
X260600Y83600D01*
X243200Y82800D02*
X243600Y83600D01*
X243200Y84400D01*
X244000Y84000D01*
X244800Y84400D01*
X244400Y83600D01*
X244800Y82800D01*
X244000Y83200D01*
X243200Y82800D01*
X243600Y83200D02*
X243800Y83600D01*
X243600Y84000D01*
X244000Y83800D01*
X244400Y84000D01*
X244200Y83600D01*
X244400Y83200D01*
X244000Y83400D01*
X243600Y83200D01*
X85700Y54400D02*
X86100Y55200D01*
X85700Y56000D01*
X86500Y55600D01*
X87300Y56000D01*
X86900Y55200D01*
X87300Y54400D01*
X86500Y54800D01*
X85700Y54400D01*
X86100Y54800D02*
X86300Y55200D01*
X86100Y55600D01*
X86500Y55400D01*
X86900Y55600D01*
X86700Y55200D01*
X86900Y54800D01*
X86500Y55000D01*
X86100Y54800D01*
X62700D02*
X63100Y55600D01*
X62700Y56400D01*
X63500Y56000D01*
X64300Y56400D01*
X63900Y55600D01*
X64300Y54800D01*
X63500Y55200D01*
X62700Y54800D01*
X63100Y55200D02*
X63300Y55600D01*
X63100Y56000D01*
X63500Y55800D01*
X63900Y56000D01*
X63700Y55600D01*
X63900Y55200D01*
X63500Y55400D01*
X63100Y55200D01*
X66200Y74400D02*
X66600Y75200D01*
X66200Y76000D01*
X67000Y75600D01*
X67800Y76000D01*
X67400Y75200D01*
X67800Y74400D01*
X67000Y74800D01*
X66200Y74400D01*
X66600Y74800D02*
X66800Y75200D01*
X66600Y75600D01*
X67000Y75400D01*
X67400Y75600D01*
X67200Y75200D01*
X67400Y74800D01*
X67000Y75000D01*
X66600Y74800D01*
X50700Y74000D02*
X51100Y74800D01*
X50700Y75600D01*
X51500Y75200D01*
X52300Y75600D01*
X51900Y74800D01*
X52300Y74000D01*
X51500Y74400D01*
X50700Y74000D01*
X51100Y74400D02*
X51300Y74800D01*
X51100Y75200D01*
X51500Y75000D01*
X51900Y75200D01*
X51700Y74800D01*
X51900Y74400D01*
X51500Y74600D01*
X51100Y74400D01*
X123700Y137200D02*
X124100Y138000D01*
X123700Y138800D01*
X124500Y138400D01*
X125300Y138800D01*
X124900Y138000D01*
X125300Y137200D01*
X124500Y137600D01*
X123700Y137200D01*
X124100Y137600D02*
X124300Y138000D01*
X124100Y138400D01*
X124500Y138200D01*
X124900Y138400D01*
X124700Y138000D01*
X124900Y137600D01*
X124500Y137800D01*
X124100Y137600D01*
X248200Y246400D02*
X248600Y247200D01*
X248200Y248000D01*
X249000Y247600D01*
X249800Y248000D01*
X249400Y247200D01*
X249800Y246400D01*
X249000Y246800D01*
X248200Y246400D01*
X248600Y246800D02*
X248800Y247200D01*
X248600Y247600D01*
X249000Y247400D01*
X249400Y247600D01*
X249200Y247200D01*
X249400Y246800D01*
X249000Y247000D01*
X248600Y246800D01*
X77200Y197200D02*
X77600Y198000D01*
X77200Y198800D01*
X78000Y198400D01*
X78800Y198800D01*
X78400Y198000D01*
X78800Y197200D01*
X78000Y197600D01*
X77200Y197200D01*
X77600Y197600D02*
X77800Y198000D01*
X77600Y198400D01*
X78000Y198200D01*
X78400Y198400D01*
X78200Y198000D01*
X78400Y197600D01*
X78000Y197800D01*
X77600Y197600D01*
X76941Y203700D02*
X77341Y204500D01*
X76941Y205300D01*
X77741Y204900D01*
X78540Y205300D01*
X78140Y204500D01*
X78540Y203700D01*
X77741Y204100D01*
X76941Y203700D01*
X77341Y204100D02*
X77540Y204500D01*
X77341Y204900D01*
X77741Y204700D01*
X78140Y204900D01*
X77940Y204500D01*
X78140Y204100D01*
X77741Y204300D01*
X77341Y204100D01*
X159200Y168800D02*
X159600Y169600D01*
X159200Y170400D01*
X160000Y170000D01*
X160800Y170400D01*
X160400Y169600D01*
X160800Y168800D01*
X160000Y169200D01*
X159200Y168800D01*
X159600Y169200D02*
X159800Y169600D01*
X159600Y170000D01*
X160000Y169800D01*
X160400Y170000D01*
X160200Y169600D01*
X160400Y169200D01*
X160000Y169400D01*
X159600Y169200D01*
X138774Y156169D02*
X139174Y156969D01*
X138774Y157769D01*
X139574Y157369D01*
X140374Y157769D01*
X139974Y156969D01*
X140374Y156169D01*
X139574Y156569D01*
X138774Y156169D01*
X139174Y156569D02*
X139374Y156969D01*
X139174Y157369D01*
X139574Y157169D01*
X139974Y157369D01*
X139774Y156969D01*
X139974Y156569D01*
X139574Y156769D01*
X139174Y156569D01*
X205700Y115200D02*
X206100Y116000D01*
X205700Y116800D01*
X206500Y116400D01*
X207300Y116800D01*
X206900Y116000D01*
X207300Y115200D01*
X206500Y115600D01*
X205700Y115200D01*
X206100Y115600D02*
X206300Y116000D01*
X206100Y116400D01*
X206500Y116200D01*
X206900Y116400D01*
X206700Y116000D01*
X206900Y115600D01*
X206500Y115800D01*
X206100Y115600D01*
X187700D02*
X188100Y116400D01*
X187700Y117200D01*
X188500Y116800D01*
X189300Y117200D01*
X188900Y116400D01*
X189300Y115600D01*
X188500Y116000D01*
X187700Y115600D01*
X188100Y116000D02*
X188300Y116400D01*
X188100Y116800D01*
X188500Y116600D01*
X188900Y116800D01*
X188700Y116400D01*
X188900Y116000D01*
X188500Y116200D01*
X188100Y116000D01*
X45700Y32800D02*
X46100Y33600D01*
X45700Y34400D01*
X46500Y34000D01*
X47300Y34400D01*
X46900Y33600D01*
X47300Y32800D01*
X46500Y33200D01*
X45700Y32800D01*
X46100Y33200D02*
X46300Y33600D01*
X46100Y34000D01*
X46500Y33800D01*
X46900Y34000D01*
X46700Y33600D01*
X46900Y33200D01*
X46500Y33400D01*
X46100Y33200D01*
X28200Y32400D02*
X28600Y33200D01*
X28200Y34000D01*
X29000Y33600D01*
X29800Y34000D01*
X29400Y33200D01*
X29800Y32400D01*
X29000Y32800D01*
X28200Y32400D01*
X28600Y32800D02*
X28800Y33200D01*
X28600Y33600D01*
X29000Y33400D01*
X29400Y33600D01*
X29200Y33200D01*
X29400Y32800D01*
X29000Y33000D01*
X28600Y32800D01*
X125200Y326400D02*
X125600Y327200D01*
X125200Y328000D01*
X126000Y327600D01*
X126800Y328000D01*
X126400Y327200D01*
X126800Y326400D01*
X126000Y326800D01*
X125200Y326400D01*
X125600Y326800D02*
X125800Y327200D01*
X125600Y327600D01*
X126000Y327400D01*
X126400Y327600D01*
X126200Y327200D01*
X126400Y326800D01*
X126000Y327000D01*
X125600Y326800D01*
X168074Y330000D02*
X168474Y330800D01*
X168074Y331600D01*
X168874Y331200D01*
X169674Y331600D01*
X169274Y330800D01*
X169674Y330000D01*
X168874Y330400D01*
X168074Y330000D01*
X168474Y330400D02*
X168674Y330800D01*
X168474Y331200D01*
X168874Y331000D01*
X169274Y331200D01*
X169074Y330800D01*
X169274Y330400D01*
X168874Y330600D01*
X168474Y330400D01*
X252116Y289200D02*
X252516Y290000D01*
X252116Y290800D01*
X252916Y290400D01*
X253716Y290800D01*
X253316Y290000D01*
X253716Y289200D01*
X252916Y289600D01*
X252116Y289200D01*
X252516Y289600D02*
X252716Y290000D01*
X252516Y290400D01*
X252916Y290200D01*
X253316Y290400D01*
X253116Y290000D01*
X253316Y289600D01*
X252916Y289800D01*
X252516Y289600D01*
X256426Y297700D02*
X256826Y298500D01*
X256426Y299300D01*
X257226Y298900D01*
X258026Y299300D01*
X257626Y298500D01*
X258026Y297700D01*
X257226Y298100D01*
X256426Y297700D01*
X256826Y298100D02*
X257026Y298500D01*
X256826Y298900D01*
X257226Y298700D01*
X257626Y298900D01*
X257426Y298500D01*
X257626Y298100D01*
X257226Y298300D01*
X256826Y298100D01*
X324700Y312400D02*
X325100Y313200D01*
X324700Y314000D01*
X325500Y313600D01*
X326300Y314000D01*
X325900Y313200D01*
X326300Y312400D01*
X325500Y312800D01*
X324700Y312400D01*
X325100Y312800D02*
X325300Y313200D01*
X325100Y313600D01*
X325500Y313400D01*
X325900Y313600D01*
X325700Y313200D01*
X325900Y312800D01*
X325500Y313000D01*
X325100Y312800D01*
X325700Y324000D02*
X326100Y324800D01*
X325700Y325600D01*
X326500Y325200D01*
X327300Y325600D01*
X326900Y324800D01*
X327300Y324000D01*
X326500Y324400D01*
X325700Y324000D01*
X326100Y324400D02*
X326300Y324800D01*
X326100Y325200D01*
X326500Y325000D01*
X326900Y325200D01*
X326700Y324800D01*
X326900Y324400D01*
X326500Y324600D01*
X326100Y324400D01*
X318200Y319200D02*
X318600Y320000D01*
X318200Y320800D01*
X319000Y320400D01*
X319800Y320800D01*
X319400Y320000D01*
X319800Y319200D01*
X319000Y319600D01*
X318200Y319200D01*
X318600Y319600D02*
X318800Y320000D01*
X318600Y320400D01*
X319000Y320200D01*
X319400Y320400D01*
X319200Y320000D01*
X319400Y319600D01*
X319000Y319800D01*
X318600Y319600D01*
X311200Y313600D02*
X311600Y314400D01*
X311200Y315200D01*
X312000Y314800D01*
X312800Y315200D01*
X312400Y314400D01*
X312800Y313600D01*
X312000Y314000D01*
X311200Y313600D01*
X311600Y314000D02*
X311800Y314400D01*
X311600Y314800D01*
X312000Y314600D01*
X312400Y314800D01*
X312200Y314400D01*
X312400Y314000D01*
X312000Y314200D01*
X311600Y314000D01*
X319200Y296700D02*
X319600Y297500D01*
X319200Y298300D01*
X320000Y297900D01*
X320800Y298300D01*
X320400Y297500D01*
X320800Y296700D01*
X320000Y297100D01*
X319200Y296700D01*
X319600Y297100D02*
X319800Y297500D01*
X319600Y297900D01*
X320000Y297700D01*
X320400Y297900D01*
X320200Y297500D01*
X320400Y297100D01*
X320000Y297300D01*
X319600Y297100D01*
X325800Y288200D02*
X326200Y289000D01*
X325800Y289800D01*
X326600Y289400D01*
X327400Y289800D01*
X327000Y289000D01*
X327400Y288200D01*
X326600Y288600D01*
X325800Y288200D01*
X326200Y288600D02*
X326400Y289000D01*
X326200Y289400D01*
X326600Y289200D01*
X327000Y289400D01*
X326800Y289000D01*
X327000Y288600D01*
X326600Y288800D01*
X326200Y288600D01*
X29700Y204000D02*
X30100Y204800D01*
X29700Y205600D01*
X30500Y205200D01*
X31300Y205600D01*
X30900Y204800D01*
X31300Y204000D01*
X30500Y204400D01*
X29700Y204000D01*
X30100Y204400D02*
X30300Y204800D01*
X30100Y205200D01*
X30500Y205000D01*
X30900Y205200D01*
X30700Y204800D01*
X30900Y204400D01*
X30500Y204600D01*
X30100Y204400D01*
X30200Y279200D02*
X30600Y280000D01*
X30200Y280800D01*
X31000Y280400D01*
X31800Y280800D01*
X31400Y280000D01*
X31800Y279200D01*
X31000Y279600D01*
X30200Y279200D01*
X30600Y279600D02*
X30800Y280000D01*
X30600Y280400D01*
X31000Y280200D01*
X31400Y280400D01*
X31200Y280000D01*
X31400Y279600D01*
X31000Y279800D01*
X30600Y279600D01*
X179983Y232700D02*
X180383Y233500D01*
X179983Y234300D01*
X180783Y233900D01*
X181583Y234300D01*
X181183Y233500D01*
X181583Y232700D01*
X180783Y233100D01*
X179983Y232700D01*
X180383Y233100D02*
X180583Y233500D01*
X180383Y233900D01*
X180783Y233700D01*
X181183Y233900D01*
X180983Y233500D01*
X181183Y233100D01*
X180783Y233300D01*
X180383Y233100D01*
X178515Y229200D02*
X178915Y230000D01*
X178515Y230800D01*
X179315Y230400D01*
X180115Y230800D01*
X179715Y230000D01*
X180115Y229200D01*
X179315Y229600D01*
X178515Y229200D01*
X178915Y229600D02*
X179115Y230000D01*
X178915Y230400D01*
X179315Y230200D01*
X179715Y230400D01*
X179515Y230000D01*
X179715Y229600D01*
X179315Y229800D01*
X178915Y229600D01*
X218600Y200300D02*
X219000Y201100D01*
X218600Y201900D01*
X219400Y201500D01*
X220200Y201900D01*
X219800Y201100D01*
X220200Y200300D01*
X219400Y200700D01*
X218600Y200300D01*
X219000Y200700D02*
X219200Y201100D01*
X219000Y201500D01*
X219400Y201300D01*
X219800Y201500D01*
X219600Y201100D01*
X219800Y200700D01*
X219400Y200900D01*
X219000Y200700D01*
X250700Y159200D02*
X251100Y160000D01*
X250700Y160800D01*
X251500Y160400D01*
X252300Y160800D01*
X251900Y160000D01*
X252300Y159200D01*
X251500Y159600D01*
X250700Y159200D01*
X251100Y159600D02*
X251300Y160000D01*
X251100Y160400D01*
X251500Y160200D01*
X251900Y160400D01*
X251700Y160000D01*
X251900Y159600D01*
X251500Y159800D01*
X251100Y159600D01*
X274406Y165254D02*
X274806Y166054D01*
X274406Y166854D01*
X275206Y166454D01*
X276006Y166854D01*
X275606Y166054D01*
X276006Y165254D01*
X275206Y165654D01*
X274406Y165254D01*
X274806Y165654D02*
X275006Y166054D01*
X274806Y166454D01*
X275206Y166254D01*
X275606Y166454D01*
X275406Y166054D01*
X275606Y165654D01*
X275206Y165854D01*
X274806Y165654D01*
X283200Y317200D02*
X283600Y318000D01*
X283200Y318800D01*
X284000Y318400D01*
X284800Y318800D01*
X284400Y318000D01*
X284800Y317200D01*
X284000Y317600D01*
X283200Y317200D01*
X283600Y317600D02*
X283800Y318000D01*
X283600Y318400D01*
X284000Y318200D01*
X284400Y318400D01*
X284200Y318000D01*
X284400Y317600D01*
X284000Y317800D01*
X283600Y317600D01*
X176200Y260700D02*
X176600Y261500D01*
X176200Y262300D01*
X177000Y261900D01*
X177800Y262300D01*
X177400Y261500D01*
X177800Y260700D01*
X177000Y261100D01*
X176200Y260700D01*
X176600Y261100D02*
X176800Y261500D01*
X176600Y261900D01*
X177000Y261700D01*
X177400Y261900D01*
X177200Y261500D01*
X177400Y261100D01*
X177000Y261300D01*
X176600Y261100D01*
X172200Y255200D02*
X172600Y256000D01*
X172200Y256800D01*
X173000Y256400D01*
X173800Y256800D01*
X173400Y256000D01*
X173800Y255200D01*
X173000Y255600D01*
X172200Y255200D01*
X172600Y255600D02*
X172800Y256000D01*
X172600Y256400D01*
X173000Y256200D01*
X173400Y256400D01*
X173200Y256000D01*
X173400Y255600D01*
X173000Y255800D01*
X172600Y255600D01*
X180483Y236200D02*
X180884Y237000D01*
X180483Y237800D01*
X181283Y237400D01*
X182083Y237800D01*
X181684Y237000D01*
X182083Y236200D01*
X181283Y236600D01*
X180483Y236200D01*
X180884Y236600D02*
X181084Y237000D01*
X180884Y237400D01*
X181283Y237200D01*
X181684Y237400D01*
X181483Y237000D01*
X181684Y236600D01*
X181283Y236800D01*
X180884Y236600D01*
X182024Y239200D02*
X182424Y240000D01*
X182024Y240800D01*
X182824Y240400D01*
X183624Y240800D01*
X183224Y240000D01*
X183624Y239200D01*
X182824Y239600D01*
X182024Y239200D01*
X182424Y239600D02*
X182624Y240000D01*
X182424Y240400D01*
X182824Y240200D01*
X183224Y240400D01*
X183024Y240000D01*
X183224Y239600D01*
X182824Y239800D01*
X182424Y239600D01*
X178515Y198700D02*
X178915Y199500D01*
X178515Y200300D01*
X179315Y199900D01*
X180115Y200300D01*
X179715Y199500D01*
X180115Y198700D01*
X179315Y199100D01*
X178515Y198700D01*
X178915Y199100D02*
X179115Y199500D01*
X178915Y199900D01*
X179315Y199700D01*
X179715Y199900D01*
X179515Y199500D01*
X179715Y199100D01*
X179315Y199300D01*
X178915Y199100D01*
X174578Y242322D02*
X174978Y243122D01*
X174578Y243922D01*
X175378Y243522D01*
X176178Y243922D01*
X175778Y243122D01*
X176178Y242322D01*
X175378Y242722D01*
X174578Y242322D01*
X174978Y242722D02*
X175178Y243122D01*
X174978Y243522D01*
X175378Y243322D01*
X175778Y243522D01*
X175578Y243122D01*
X175778Y242722D01*
X175378Y242922D01*
X174978Y242722D01*
X174310Y203200D02*
X174709Y204000D01*
X174310Y204800D01*
X175110Y204400D01*
X175909Y204800D01*
X175510Y204000D01*
X175909Y203200D01*
X175110Y203600D01*
X174310Y203200D01*
X174709Y203600D02*
X174909Y204000D01*
X174709Y204400D01*
X175110Y204200D01*
X175510Y204400D01*
X175310Y204000D01*
X175510Y203600D01*
X175110Y203800D01*
X174709Y203600D01*
X210011Y194011D02*
X210411Y194811D01*
X210011Y195611D01*
X210811Y195211D01*
X211611Y195611D01*
X211211Y194811D01*
X211611Y194011D01*
X210811Y194411D01*
X210011Y194011D01*
X210411Y194411D02*
X210611Y194811D01*
X210411Y195211D01*
X210811Y195011D01*
X211211Y195211D01*
X211011Y194811D01*
X211211Y194411D01*
X210811Y194611D01*
X210411Y194411D01*
X212924Y196600D02*
X213324Y197400D01*
X212924Y198200D01*
X213724Y197800D01*
X214524Y198200D01*
X214124Y197400D01*
X214524Y196600D01*
X213724Y197000D01*
X212924Y196600D01*
X213324Y197000D02*
X213524Y197400D01*
X213324Y197800D01*
X213724Y197600D01*
X214124Y197800D01*
X213924Y197400D01*
X214124Y197000D01*
X213724Y197200D01*
X213324Y197000D01*
X212200Y200200D02*
X212600Y201000D01*
X212200Y201800D01*
X213000Y201400D01*
X213800Y201800D01*
X213400Y201000D01*
X213800Y200200D01*
X213000Y200600D01*
X212200Y200200D01*
X212600Y200600D02*
X212800Y201000D01*
X212600Y201400D01*
X213000Y201200D01*
X213400Y201400D01*
X213200Y201000D01*
X213400Y200600D01*
X213000Y200800D01*
X212600Y200600D01*
X212200Y174700D02*
X212600Y175500D01*
X212200Y176300D01*
X213000Y175900D01*
X213800Y176300D01*
X213400Y175500D01*
X213800Y174700D01*
X213000Y175100D01*
X212200Y174700D01*
X212600Y175100D02*
X212800Y175500D01*
X212600Y175900D01*
X213000Y175700D01*
X213400Y175900D01*
X213200Y175500D01*
X213400Y175100D01*
X213000Y175300D01*
X212600Y175100D01*
X222200Y197231D02*
X222600Y198031D01*
X222200Y198831D01*
X223000Y198432D01*
X223800Y198831D01*
X223400Y198031D01*
X223800Y197231D01*
X223000Y197632D01*
X222200Y197231D01*
X222600Y197632D02*
X222800Y198031D01*
X222600Y198432D01*
X223000Y198231D01*
X223400Y198432D01*
X223200Y198031D01*
X223400Y197632D01*
X223000Y197831D01*
X222600Y197632D01*
X256200Y238700D02*
X256600Y239500D01*
X256200Y240300D01*
X257000Y239900D01*
X257800Y240300D01*
X257400Y239500D01*
X257800Y238700D01*
X257000Y239100D01*
X256200Y238700D01*
X256600Y239100D02*
X256800Y239500D01*
X256600Y239900D01*
X257000Y239700D01*
X257400Y239900D01*
X257200Y239500D01*
X257400Y239100D01*
X257000Y239300D01*
X256600Y239100D01*
X268783Y279200D02*
X269183Y280000D01*
X268783Y280800D01*
X269583Y280400D01*
X270383Y280800D01*
X269983Y280000D01*
X270383Y279200D01*
X269583Y279600D01*
X268783Y279200D01*
X269183Y279600D02*
X269383Y280000D01*
X269183Y280400D01*
X269583Y280200D01*
X269983Y280400D01*
X269783Y280000D01*
X269983Y279600D01*
X269583Y279800D01*
X269183Y279600D01*
X378700Y296200D02*
X379100Y297000D01*
X378700Y297800D01*
X379500Y297400D01*
X380300Y297800D01*
X379900Y297000D01*
X380300Y296200D01*
X379500Y296600D01*
X378700Y296200D01*
X379100Y296600D02*
X379300Y297000D01*
X379100Y297400D01*
X379500Y297200D01*
X379900Y297400D01*
X379700Y297000D01*
X379900Y296600D01*
X379500Y296800D01*
X379100Y296600D01*
X342700Y300700D02*
X343100Y301500D01*
X342700Y302300D01*
X343500Y301900D01*
X344300Y302300D01*
X343900Y301500D01*
X344300Y300700D01*
X343500Y301100D01*
X342700Y300700D01*
X343100Y301100D02*
X343300Y301500D01*
X343100Y301900D01*
X343500Y301700D01*
X343900Y301900D01*
X343700Y301500D01*
X343900Y301100D01*
X343500Y301300D01*
X343100Y301100D01*
X184421Y196421D02*
X184820Y197221D01*
X184421Y198021D01*
X185221Y197620D01*
X186021Y198021D01*
X185620Y197221D01*
X186021Y196421D01*
X185221Y196820D01*
X184421Y196421D01*
X184820Y196820D02*
X185020Y197221D01*
X184820Y197620D01*
X185221Y197421D01*
X185620Y197620D01*
X185421Y197221D01*
X185620Y196820D01*
X185221Y197020D01*
X184820Y196820D01*
X192200Y241200D02*
X192600Y242000D01*
X192200Y242800D01*
X193000Y242400D01*
X193800Y242800D01*
X193400Y242000D01*
X193800Y241200D01*
X193000Y241600D01*
X192200Y241200D01*
X192600Y241600D02*
X192800Y242000D01*
X192600Y242400D01*
X193000Y242200D01*
X193400Y242400D01*
X193200Y242000D01*
X193400Y241600D01*
X193000Y241800D01*
X192600Y241600D01*
X190200Y224200D02*
X190600Y225000D01*
X190200Y225800D01*
X191000Y225400D01*
X191800Y225800D01*
X191400Y225000D01*
X191800Y224200D01*
X191000Y224600D01*
X190200Y224200D01*
X190600Y224600D02*
X190800Y225000D01*
X190600Y225400D01*
X191000Y225200D01*
X191400Y225400D01*
X191200Y225000D01*
X191400Y224600D01*
X191000Y224800D01*
X190600Y224600D01*
X196648Y206700D02*
X197048Y207500D01*
X196648Y208300D01*
X197448Y207900D01*
X198248Y208300D01*
X197848Y207500D01*
X198248Y206700D01*
X197448Y207100D01*
X196648Y206700D01*
X197048Y207100D02*
X197248Y207500D01*
X197048Y207900D01*
X197448Y207700D01*
X197848Y207900D01*
X197648Y207500D01*
X197848Y207100D01*
X197448Y207300D01*
X197048Y207100D01*
X202200Y267926D02*
X202600Y268726D01*
X202200Y269526D01*
X203000Y269126D01*
X203800Y269526D01*
X203400Y268726D01*
X203800Y267926D01*
X203000Y268326D01*
X202200Y267926D01*
X202600Y268326D02*
X202800Y268726D01*
X202600Y269126D01*
X203000Y268926D01*
X203400Y269126D01*
X203200Y268726D01*
X203400Y268326D01*
X203000Y268526D01*
X202600Y268326D01*
X252957Y315200D02*
X253357Y316000D01*
X252957Y316800D01*
X253757Y316400D01*
X254557Y316800D01*
X254157Y316000D01*
X254557Y315200D01*
X253757Y315600D01*
X252957Y315200D01*
X253357Y315600D02*
X253557Y316000D01*
X253357Y316400D01*
X253757Y316200D01*
X254157Y316400D01*
X253957Y316000D01*
X254157Y315600D01*
X253757Y315800D01*
X253357Y315600D01*
X85200Y175600D02*
X85600Y176400D01*
X85200Y177200D01*
X86000Y176800D01*
X86800Y177200D01*
X86400Y176400D01*
X86800Y175600D01*
X86000Y176000D01*
X85200Y175600D01*
X85600Y176000D02*
X85800Y176400D01*
X85600Y176800D01*
X86000Y176600D01*
X86400Y176800D01*
X86200Y176400D01*
X86400Y176000D01*
X86000Y176200D01*
X85600Y176000D01*
X85200Y178800D02*
X85600Y179600D01*
X85200Y180400D01*
X86000Y180000D01*
X86800Y180400D01*
X86400Y179600D01*
X86800Y178800D01*
X86000Y179200D01*
X85200Y178800D01*
X85600Y179200D02*
X85800Y179600D01*
X85600Y180000D01*
X86000Y179800D01*
X86400Y180000D01*
X86200Y179600D01*
X86400Y179200D01*
X86000Y179400D01*
X85600Y179200D01*
X192700Y180700D02*
X193100Y181500D01*
X192700Y182300D01*
X193500Y181900D01*
X194300Y182300D01*
X193900Y181500D01*
X194300Y180700D01*
X193500Y181100D01*
X192700Y180700D01*
X193100Y181100D02*
X193300Y181500D01*
X193100Y181900D01*
X193500Y181700D01*
X193900Y181900D01*
X193700Y181500D01*
X193900Y181100D01*
X193500Y181300D01*
X193100Y181100D01*
X242700Y150700D02*
X243100Y151500D01*
X242700Y152300D01*
X243500Y151900D01*
X244300Y152300D01*
X243900Y151500D01*
X244300Y150700D01*
X243500Y151100D01*
X242700Y150700D01*
X243100Y151100D02*
X243300Y151500D01*
X243100Y151900D01*
X243500Y151700D01*
X243900Y151900D01*
X243700Y151500D01*
X243900Y151100D01*
X243500Y151300D01*
X243100Y151100D01*
X224700Y157063D02*
X225100Y157863D01*
X224700Y158663D01*
X225500Y158263D01*
X226300Y158663D01*
X225900Y157863D01*
X226300Y157063D01*
X225500Y157463D01*
X224700Y157063D01*
X225100Y157463D02*
X225300Y157863D01*
X225100Y158263D01*
X225500Y158063D01*
X225900Y158263D01*
X225700Y157863D01*
X225900Y157463D01*
X225500Y157663D01*
X225100Y157463D01*
X192700Y199200D02*
X193100Y200000D01*
X192700Y200800D01*
X193500Y200400D01*
X194300Y200800D01*
X193900Y200000D01*
X194300Y199200D01*
X193500Y199600D01*
X192700Y199200D01*
X193100Y199600D02*
X193300Y200000D01*
X193100Y200400D01*
X193500Y200200D01*
X193900Y200400D01*
X193700Y200000D01*
X193900Y199600D01*
X193500Y199800D01*
X193100Y199600D01*
X189675Y197100D02*
X190075Y197900D01*
X189675Y198700D01*
X190475Y198300D01*
X191275Y198700D01*
X190875Y197900D01*
X191275Y197100D01*
X190475Y197500D01*
X189675Y197100D01*
X190075Y197500D02*
X190275Y197900D01*
X190075Y198300D01*
X190475Y198100D01*
X190875Y198300D01*
X190675Y197900D01*
X190875Y197500D01*
X190475Y197700D01*
X190075Y197500D01*
X150422Y196600D02*
X150822Y197400D01*
X150422Y198200D01*
X151222Y197800D01*
X152022Y198200D01*
X151622Y197400D01*
X152022Y196600D01*
X151222Y197000D01*
X150422Y196600D01*
X150822Y197000D02*
X151022Y197400D01*
X150822Y197800D01*
X151222Y197600D01*
X151622Y197800D01*
X151422Y197400D01*
X151622Y197000D01*
X151222Y197200D01*
X150822Y197000D01*
X162700Y206389D02*
X163100Y207189D01*
X162700Y207989D01*
X163500Y207589D01*
X164300Y207989D01*
X163900Y207189D01*
X164300Y206389D01*
X163500Y206789D01*
X162700Y206389D01*
X163100Y206789D02*
X163300Y207189D01*
X163100Y207589D01*
X163500Y207389D01*
X163900Y207589D01*
X163700Y207189D01*
X163900Y206789D01*
X163500Y206989D01*
X163100Y206789D01*
X43200Y126400D02*
X43600Y127200D01*
X43200Y128000D01*
X44000Y127600D01*
X44800Y128000D01*
X44400Y127200D01*
X44800Y126400D01*
X44000Y126800D01*
X43200Y126400D01*
X43600Y126800D02*
X43800Y127200D01*
X43600Y127600D01*
X44000Y127400D01*
X44400Y127600D01*
X44200Y127200D01*
X44400Y126800D01*
X44000Y127000D01*
X43600Y126800D01*
X43200Y130800D02*
X43600Y131600D01*
X43200Y132400D01*
X44000Y132000D01*
X44800Y132400D01*
X44400Y131600D01*
X44800Y130800D01*
X44000Y131200D01*
X43200Y130800D01*
X43600Y131200D02*
X43800Y131600D01*
X43600Y132000D01*
X44000Y131800D01*
X44400Y132000D01*
X44200Y131600D01*
X44400Y131200D01*
X44000Y131400D01*
X43600Y131200D01*
X43200Y134800D02*
X43600Y135600D01*
X43200Y136400D01*
X44000Y136000D01*
X44800Y136400D01*
X44400Y135600D01*
X44800Y134800D01*
X44000Y135200D01*
X43200Y134800D01*
X43600Y135200D02*
X43800Y135600D01*
X43600Y136000D01*
X44000Y135800D01*
X44400Y136000D01*
X44200Y135600D01*
X44400Y135200D01*
X44000Y135400D01*
X43600Y135200D01*
X43200Y139200D02*
X43600Y140000D01*
X43200Y140800D01*
X44000Y140400D01*
X44800Y140800D01*
X44400Y140000D01*
X44800Y139200D01*
X44000Y139600D01*
X43200Y139200D01*
X43600Y139600D02*
X43800Y140000D01*
X43600Y140400D01*
X44000Y140200D01*
X44400Y140400D01*
X44200Y140000D01*
X44400Y139600D01*
X44000Y139800D01*
X43600Y139600D01*
X43200Y143200D02*
X43600Y144000D01*
X43200Y144800D01*
X44000Y144400D01*
X44800Y144800D01*
X44400Y144000D01*
X44800Y143200D01*
X44000Y143600D01*
X43200Y143200D01*
X43600Y143600D02*
X43800Y144000D01*
X43600Y144400D01*
X44000Y144200D01*
X44400Y144400D01*
X44200Y144000D01*
X44400Y143600D01*
X44000Y143800D01*
X43600Y143600D01*
X85200Y168000D02*
X85600Y168800D01*
X85200Y169600D01*
X86000Y169200D01*
X86800Y169600D01*
X86400Y168800D01*
X86800Y168000D01*
X86000Y168400D01*
X85200Y168000D01*
X85600Y168400D02*
X85800Y168800D01*
X85600Y169200D01*
X86000Y169000D01*
X86400Y169200D01*
X86200Y168800D01*
X86400Y168400D01*
X86000Y168600D01*
X85600Y168400D01*
X85200Y172000D02*
X85600Y172800D01*
X85200Y173600D01*
X86000Y173200D01*
X86800Y173600D01*
X86400Y172800D01*
X86800Y172000D01*
X86000Y172400D01*
X85200Y172000D01*
X85600Y172400D02*
X85800Y172800D01*
X85600Y173200D01*
X86000Y173000D01*
X86400Y173200D01*
X86200Y172800D01*
X86400Y172400D01*
X86000Y172600D01*
X85600Y172400D01*
X45950Y178090D02*
X46350Y178890D01*
X45950Y179690D01*
X46750Y179290D01*
X47550Y179690D01*
X47150Y178890D01*
X47550Y178090D01*
X46750Y178490D01*
X45950Y178090D01*
X46350Y178490D02*
X46550Y178890D01*
X46350Y179290D01*
X46750Y179090D01*
X47150Y179290D01*
X46950Y178890D01*
X47150Y178490D01*
X46750Y178690D01*
X46350Y178490D01*
X41200Y178000D02*
X41600Y178800D01*
X41200Y179600D01*
X42000Y179200D01*
X42800Y179600D01*
X42400Y178800D01*
X42800Y178000D01*
X42000Y178400D01*
X41200Y178000D01*
X41600Y178400D02*
X41800Y178800D01*
X41600Y179200D01*
X42000Y179000D01*
X42400Y179200D01*
X42200Y178800D01*
X42400Y178400D01*
X42000Y178600D01*
X41600Y178400D01*
X45700Y181200D02*
X46100Y182000D01*
X45700Y182800D01*
X46500Y182400D01*
X47300Y182800D01*
X46900Y182000D01*
X47300Y181200D01*
X46500Y181600D01*
X45700Y181200D01*
X46100Y181600D02*
X46300Y182000D01*
X46100Y182400D01*
X46500Y182200D01*
X46900Y182400D01*
X46700Y182000D01*
X46900Y181600D01*
X46500Y181800D01*
X46100Y181600D01*
X41200Y181200D02*
X41600Y182000D01*
X41200Y182800D01*
X42000Y182400D01*
X42800Y182800D01*
X42400Y182000D01*
X42800Y181200D01*
X42000Y181600D01*
X41200Y181200D01*
X41600Y181600D02*
X41800Y182000D01*
X41600Y182400D01*
X42000Y182200D01*
X42400Y182400D01*
X42200Y182000D01*
X42400Y181600D01*
X42000Y181800D01*
X41600Y181600D01*
X26200Y236400D02*
X26600Y237200D01*
X26200Y238000D01*
X27000Y237600D01*
X27800Y238000D01*
X27400Y237200D01*
X27800Y236400D01*
X27000Y236800D01*
X26200Y236400D01*
X26600Y236800D02*
X26800Y237200D01*
X26600Y237600D01*
X27000Y237400D01*
X27400Y237600D01*
X27200Y237200D01*
X27400Y236800D01*
X27000Y237000D01*
X26600Y236800D01*
X26200Y241200D02*
X26600Y242000D01*
X26200Y242800D01*
X27000Y242400D01*
X27800Y242800D01*
X27400Y242000D01*
X27800Y241200D01*
X27000Y241600D01*
X26200Y241200D01*
X26600Y241600D02*
X26800Y242000D01*
X26600Y242400D01*
X27000Y242200D01*
X27400Y242400D01*
X27200Y242000D01*
X27400Y241600D01*
X27000Y241800D01*
X26600Y241600D01*
X26200Y246000D02*
X26600Y246800D01*
X26200Y247600D01*
X27000Y247200D01*
X27800Y247600D01*
X27400Y246800D01*
X27800Y246000D01*
X27000Y246400D01*
X26200Y246000D01*
X26600Y246400D02*
X26800Y246800D01*
X26600Y247200D01*
X27000Y247000D01*
X27400Y247200D01*
X27200Y246800D01*
X27400Y246400D01*
X27000Y246600D01*
X26600Y246400D01*
X44700Y200200D02*
X45100Y201000D01*
X44700Y201800D01*
X45500Y201400D01*
X46300Y201800D01*
X45900Y201000D01*
X46300Y200200D01*
X45500Y200600D01*
X44700Y200200D01*
X45100Y200600D02*
X45300Y201000D01*
X45100Y201400D01*
X45500Y201200D01*
X45900Y201400D01*
X45700Y201000D01*
X45900Y200600D01*
X45500Y200800D01*
X45100Y200600D01*
X32200Y199700D02*
X32600Y200500D01*
X32200Y201300D01*
X33000Y200900D01*
X33800Y201300D01*
X33400Y200500D01*
X33800Y199700D01*
X33000Y200100D01*
X32200Y199700D01*
X32600Y200100D02*
X32800Y200500D01*
X32600Y200900D01*
X33000Y200700D01*
X33400Y200900D01*
X33200Y200500D01*
X33400Y200100D01*
X33000Y200300D01*
X32600Y200100D01*
X33200Y195641D02*
X33600Y196441D01*
X33200Y197241D01*
X34000Y196841D01*
X34800Y197241D01*
X34400Y196441D01*
X34800Y195641D01*
X34000Y196041D01*
X33200Y195641D01*
X33600Y196041D02*
X33800Y196441D01*
X33600Y196841D01*
X34000Y196641D01*
X34400Y196841D01*
X34200Y196441D01*
X34400Y196041D01*
X34000Y196241D01*
X33600Y196041D01*
X23532Y206900D02*
X23932Y207700D01*
X23532Y208500D01*
X24332Y208100D01*
X25132Y208500D01*
X24732Y207700D01*
X25132Y206900D01*
X24332Y207300D01*
X23532Y206900D01*
X23932Y207300D02*
X24132Y207700D01*
X23932Y208100D01*
X24332Y207900D01*
X24732Y208100D01*
X24532Y207700D01*
X24732Y207300D01*
X24332Y207500D01*
X23932Y207300D01*
X26482Y206900D02*
X26882Y207700D01*
X26482Y208500D01*
X27282Y208100D01*
X28082Y208500D01*
X27682Y207700D01*
X28082Y206900D01*
X27282Y207300D01*
X26482Y206900D01*
X26882Y207300D02*
X27082Y207700D01*
X26882Y208100D01*
X27282Y207900D01*
X27682Y208100D01*
X27482Y207700D01*
X27682Y207300D01*
X27282Y207500D01*
X26882Y207300D01*
X29532Y206900D02*
X29932Y207700D01*
X29532Y208500D01*
X30332Y208100D01*
X31132Y208500D01*
X30732Y207700D01*
X31132Y206900D01*
X30332Y207300D01*
X29532Y206900D01*
X29932Y207300D02*
X30132Y207700D01*
X29932Y208100D01*
X30332Y207900D01*
X30732Y208100D01*
X30532Y207700D01*
X30732Y207300D01*
X30332Y207500D01*
X29932Y207300D01*
X30200Y282400D02*
X30600Y283200D01*
X30200Y284000D01*
X31000Y283600D01*
X31800Y284000D01*
X31400Y283200D01*
X31800Y282400D01*
X31000Y282800D01*
X30200Y282400D01*
X30600Y282800D02*
X30800Y283200D01*
X30600Y283600D01*
X31000Y283400D01*
X31400Y283600D01*
X31200Y283200D01*
X31400Y282800D01*
X31000Y283000D01*
X30600Y282800D01*
X27150Y282400D02*
X27550Y283200D01*
X27150Y284000D01*
X27950Y283600D01*
X28750Y284000D01*
X28350Y283200D01*
X28750Y282400D01*
X27950Y282800D01*
X27150Y282400D01*
X27550Y282800D02*
X27750Y283200D01*
X27550Y283600D01*
X27950Y283400D01*
X28350Y283600D01*
X28150Y283200D01*
X28350Y282800D01*
X27950Y283000D01*
X27550Y282800D01*
X24200Y282400D02*
X24600Y283200D01*
X24200Y284000D01*
X25000Y283600D01*
X25800Y284000D01*
X25400Y283200D01*
X25800Y282400D01*
X25000Y282800D01*
X24200Y282400D01*
X24600Y282800D02*
X24800Y283200D01*
X24600Y283600D01*
X25000Y283400D01*
X25400Y283600D01*
X25200Y283200D01*
X25400Y282800D01*
X25000Y283000D01*
X24600Y282800D01*
X16200Y268700D02*
X16600Y269500D01*
X16200Y270300D01*
X17000Y269900D01*
X17800Y270300D01*
X17400Y269500D01*
X17800Y268700D01*
X17000Y269100D01*
X16200Y268700D01*
X16600Y269100D02*
X16800Y269500D01*
X16600Y269900D01*
X17000Y269700D01*
X17400Y269900D01*
X17200Y269500D01*
X17400Y269100D01*
X17000Y269300D01*
X16600Y269100D01*
X10700Y116200D02*
X11100Y117000D01*
X10700Y117800D01*
X11500Y117400D01*
X12300Y117800D01*
X11900Y117000D01*
X12300Y116200D01*
X11500Y116600D01*
X10700Y116200D01*
X11100Y116600D02*
X11300Y117000D01*
X11100Y117400D01*
X11500Y117200D01*
X11900Y117400D01*
X11700Y117000D01*
X11900Y116600D01*
X11500Y116800D01*
X11100Y116600D01*
X10700Y150700D02*
X11100Y151500D01*
X10700Y152300D01*
X11500Y151900D01*
X12300Y152300D01*
X11900Y151500D01*
X12300Y150700D01*
X11500Y151100D01*
X10700Y150700D01*
X11100Y151100D02*
X11300Y151500D01*
X11100Y151900D01*
X11500Y151700D01*
X11900Y151900D01*
X11700Y151500D01*
X11900Y151100D01*
X11500Y151300D01*
X11100Y151100D01*
X60749Y226074D02*
X61149Y226874D01*
X60749Y227674D01*
X61549Y227274D01*
X62349Y227674D01*
X61949Y226874D01*
X62349Y226074D01*
X61549Y226474D01*
X60749Y226074D01*
X61149Y226474D02*
X61349Y226874D01*
X61149Y227274D01*
X61549Y227074D01*
X61949Y227274D01*
X61749Y226874D01*
X61949Y226474D01*
X61549Y226674D01*
X61149Y226474D01*
X65200Y224950D02*
X65600Y225750D01*
X65200Y226550D01*
X66000Y226150D01*
X66800Y226550D01*
X66400Y225750D01*
X66800Y224950D01*
X66000Y225350D01*
X65200Y224950D01*
X65600Y225350D02*
X65800Y225750D01*
X65600Y226150D01*
X66000Y225950D01*
X66400Y226150D01*
X66200Y225750D01*
X66400Y225350D01*
X66000Y225550D01*
X65600Y225350D01*
X45755Y186950D02*
X46155Y187750D01*
X45755Y188550D01*
X46555Y188150D01*
X47355Y188550D01*
X46955Y187750D01*
X47355Y186950D01*
X46555Y187350D01*
X45755Y186950D01*
X46155Y187350D02*
X46355Y187750D01*
X46155Y188150D01*
X46555Y187950D01*
X46955Y188150D01*
X46755Y187750D01*
X46955Y187350D01*
X46555Y187550D01*
X46155Y187350D01*
X50200Y277700D02*
X50600Y278500D01*
X50200Y279300D01*
X51000Y278900D01*
X51800Y279300D01*
X51400Y278500D01*
X51800Y277700D01*
X51000Y278100D01*
X50200Y277700D01*
X50600Y278100D02*
X50800Y278500D01*
X50600Y278900D01*
X51000Y278700D01*
X51400Y278900D01*
X51200Y278500D01*
X51400Y278100D01*
X51000Y278300D01*
X50600Y278100D01*
X209700Y223300D02*
X210100Y224100D01*
X209700Y224900D01*
X210500Y224500D01*
X211300Y224900D01*
X210900Y224100D01*
X211300Y223300D01*
X210500Y223700D01*
X209700Y223300D01*
X210100Y223700D02*
X210300Y224100D01*
X210100Y224500D01*
X210500Y224300D01*
X210900Y224500D01*
X210700Y224100D01*
X210900Y223700D01*
X210500Y223900D01*
X210100Y223700D01*
X211980Y226700D02*
X212380Y227500D01*
X211980Y228300D01*
X212779Y227900D01*
X213580Y228300D01*
X213179Y227500D01*
X213580Y226700D01*
X212779Y227100D01*
X211980Y226700D01*
X212380Y227100D02*
X212579Y227500D01*
X212380Y227900D01*
X212779Y227700D01*
X213179Y227900D01*
X212980Y227500D01*
X213179Y227100D01*
X212779Y227300D01*
X212380Y227100D01*
X89700Y263726D02*
X90100Y264526D01*
X89700Y265326D01*
X90500Y264926D01*
X91300Y265326D01*
X90900Y264526D01*
X91300Y263726D01*
X90500Y264126D01*
X89700Y263726D01*
X90100Y264126D02*
X90300Y264526D01*
X90100Y264926D01*
X90500Y264726D01*
X90900Y264926D01*
X90700Y264526D01*
X90900Y264126D01*
X90500Y264326D01*
X90100Y264126D01*
X206200Y208700D02*
X206600Y209500D01*
X206200Y210300D01*
X207000Y209900D01*
X207800Y210300D01*
X207400Y209500D01*
X207800Y208700D01*
X207000Y209100D01*
X206200Y208700D01*
X206600Y209100D02*
X206800Y209500D01*
X206600Y209900D01*
X207000Y209700D01*
X207400Y209900D01*
X207200Y209500D01*
X207400Y209100D01*
X207000Y209300D01*
X206600Y209100D01*
X208700Y203200D02*
X209100Y204000D01*
X208700Y204800D01*
X209500Y204400D01*
X210300Y204800D01*
X209900Y204000D01*
X210300Y203200D01*
X209500Y203600D01*
X208700Y203200D01*
X209100Y203600D02*
X209300Y204000D01*
X209100Y204400D01*
X209500Y204200D01*
X209900Y204400D01*
X209700Y204000D01*
X209900Y203600D01*
X209500Y203800D01*
X209100Y203600D01*
X214700Y205200D02*
X215100Y206000D01*
X214700Y206800D01*
X215500Y206400D01*
X216300Y206800D01*
X215900Y206000D01*
X216300Y205200D01*
X215500Y205600D01*
X214700Y205200D01*
X215100Y205600D02*
X215300Y206000D01*
X215100Y206400D01*
X215500Y206200D01*
X215900Y206400D01*
X215700Y206000D01*
X215900Y205600D01*
X215500Y205800D01*
X215100Y205600D01*
X199200Y96200D02*
X199600Y97000D01*
X199200Y97800D01*
X200000Y97400D01*
X200800Y97800D01*
X200400Y97000D01*
X200800Y96200D01*
X200000Y96600D01*
X199200Y96200D01*
X199600Y96600D02*
X199800Y97000D01*
X199600Y97400D01*
X200000Y97200D01*
X200400Y97400D01*
X200200Y97000D01*
X200400Y96600D01*
X200000Y96800D01*
X199600Y96600D01*
X219983Y33700D02*
X220383Y34500D01*
X219983Y35300D01*
X220783Y34900D01*
X221583Y35300D01*
X221183Y34500D01*
X221583Y33700D01*
X220783Y34100D01*
X219983Y33700D01*
X220383Y34100D02*
X220583Y34500D01*
X220383Y34900D01*
X220783Y34700D01*
X221183Y34900D01*
X220983Y34500D01*
X221183Y34100D01*
X220783Y34300D01*
X220383Y34100D01*
X213700Y36700D02*
X214100Y37500D01*
X213700Y38300D01*
X214500Y37900D01*
X215300Y38300D01*
X214900Y37500D01*
X215300Y36700D01*
X214500Y37100D01*
X213700Y36700D01*
X214100Y37100D02*
X214300Y37500D01*
X214100Y37900D01*
X214500Y37700D01*
X214900Y37900D01*
X214700Y37500D01*
X214900Y37100D01*
X214500Y37300D01*
X214100Y37100D01*
X214200Y40450D02*
X214600Y41250D01*
X214200Y42050D01*
X215000Y41650D01*
X215800Y42050D01*
X215400Y41250D01*
X215800Y40450D01*
X215000Y40850D01*
X214200Y40450D01*
X214600Y40850D02*
X214800Y41250D01*
X214600Y41650D01*
X215000Y41450D01*
X215400Y41650D01*
X215200Y41250D01*
X215400Y40850D01*
X215000Y41050D01*
X214600Y40850D01*
X214200Y43700D02*
X214600Y44500D01*
X214200Y45300D01*
X215000Y44900D01*
X215800Y45300D01*
X215400Y44500D01*
X215800Y43700D01*
X215000Y44100D01*
X214200Y43700D01*
X214600Y44100D02*
X214800Y44500D01*
X214600Y44900D01*
X215000Y44700D01*
X215400Y44900D01*
X215200Y44500D01*
X215400Y44100D01*
X215000Y44300D01*
X214600Y44100D01*
X206200Y46141D02*
X206600Y46941D01*
X206200Y47741D01*
X207000Y47341D01*
X207800Y47741D01*
X207400Y46941D01*
X207800Y46141D01*
X207000Y46541D01*
X206200Y46141D01*
X206600Y46541D02*
X206800Y46941D01*
X206600Y47341D01*
X207000Y47141D01*
X207400Y47341D01*
X207200Y46941D01*
X207400Y46541D01*
X207000Y46741D01*
X206600Y46541D01*
X214700Y48714D02*
X215100Y49514D01*
X214700Y50314D01*
X215500Y49914D01*
X216300Y50314D01*
X215900Y49514D01*
X216300Y48714D01*
X215500Y49114D01*
X214700Y48714D01*
X215100Y49114D02*
X215300Y49514D01*
X215100Y49914D01*
X215500Y49714D01*
X215900Y49914D01*
X215700Y49514D01*
X215900Y49114D01*
X215500Y49314D01*
X215100Y49114D01*
X84200Y79700D02*
X84600Y80500D01*
X84200Y81300D01*
X85000Y80900D01*
X85800Y81300D01*
X85400Y80500D01*
X85800Y79700D01*
X85000Y80100D01*
X84200Y79700D01*
X84600Y80100D02*
X84800Y80500D01*
X84600Y80900D01*
X85000Y80700D01*
X85400Y80900D01*
X85200Y80500D01*
X85400Y80100D01*
X85000Y80300D01*
X84600Y80100D01*
X84200Y87700D02*
X84600Y88500D01*
X84200Y89300D01*
X85000Y88900D01*
X85800Y89300D01*
X85400Y88500D01*
X85800Y87700D01*
X85000Y88100D01*
X84200Y87700D01*
X84600Y88100D02*
X84800Y88500D01*
X84600Y88900D01*
X85000Y88700D01*
X85400Y88900D01*
X85200Y88500D01*
X85400Y88100D01*
X85000Y88300D01*
X84600Y88100D01*
X83700Y94200D02*
X84100Y95000D01*
X83700Y95800D01*
X84500Y95400D01*
X85300Y95800D01*
X84900Y95000D01*
X85300Y94200D01*
X84500Y94600D01*
X83700Y94200D01*
X84100Y94600D02*
X84300Y95000D01*
X84100Y95400D01*
X84500Y95200D01*
X84900Y95400D01*
X84700Y95000D01*
X84900Y94600D01*
X84500Y94800D01*
X84100Y94600D01*
X144200Y265826D02*
X144600Y266626D01*
X144200Y267426D01*
X145000Y267026D01*
X145800Y267426D01*
X145400Y266626D01*
X145800Y265826D01*
X145000Y266226D01*
X144200Y265826D01*
X144600Y266226D02*
X144800Y266626D01*
X144600Y267026D01*
X145000Y266826D01*
X145400Y267026D01*
X145200Y266626D01*
X145400Y266226D01*
X145000Y266426D01*
X144600Y266226D01*
X159700Y244200D02*
X160100Y245000D01*
X159700Y245800D01*
X160500Y245400D01*
X161300Y245800D01*
X160900Y245000D01*
X161300Y244200D01*
X160500Y244600D01*
X159700Y244200D01*
X160100Y244600D02*
X160300Y245000D01*
X160100Y245400D01*
X160500Y245200D01*
X160900Y245400D01*
X160700Y245000D01*
X160900Y244600D01*
X160500Y244800D01*
X160100Y244600D01*
X191200Y304700D02*
X191600Y305500D01*
X191200Y306300D01*
X192000Y305900D01*
X192800Y306300D01*
X192400Y305500D01*
X192800Y304700D01*
X192000Y305100D01*
X191200Y304700D01*
X191600Y305100D02*
X191800Y305500D01*
X191600Y305900D01*
X192000Y305700D01*
X192400Y305900D01*
X192200Y305500D01*
X192400Y305100D01*
X192000Y305300D01*
X191600Y305100D01*
X196500Y306500D02*
X196900Y307300D01*
X196500Y308100D01*
X197300Y307700D01*
X198100Y308100D01*
X197700Y307300D01*
X198100Y306500D01*
X197300Y306900D01*
X196500Y306500D01*
X196900Y306900D02*
X197100Y307300D01*
X196900Y307700D01*
X197300Y307500D01*
X197700Y307700D01*
X197500Y307300D01*
X197700Y306900D01*
X197300Y307100D01*
X196900Y306900D01*
X272300Y248200D02*
X272700Y249000D01*
X272300Y249800D01*
X273100Y249400D01*
X273900Y249800D01*
X273500Y249000D01*
X273900Y248200D01*
X273100Y248600D01*
X272300Y248200D01*
X272700Y248600D02*
X272900Y249000D01*
X272700Y249400D01*
X273100Y249200D01*
X273500Y249400D01*
X273300Y249000D01*
X273500Y248600D01*
X273100Y248800D01*
X272700Y248600D01*
X277200Y245200D02*
X277600Y246000D01*
X277200Y246800D01*
X278000Y246400D01*
X278800Y246800D01*
X278400Y246000D01*
X278800Y245200D01*
X278000Y245600D01*
X277200Y245200D01*
X277600Y245600D02*
X277800Y246000D01*
X277600Y246400D01*
X278000Y246200D01*
X278400Y246400D01*
X278200Y246000D01*
X278400Y245600D01*
X278000Y245800D01*
X277600Y245600D01*
X265200Y331200D02*
X265600Y332000D01*
X265200Y332800D01*
X266000Y332400D01*
X266800Y332800D01*
X266400Y332000D01*
X266800Y331200D01*
X266000Y331600D01*
X265200Y331200D01*
X265600Y331600D02*
X265800Y332000D01*
X265600Y332400D01*
X266000Y332200D01*
X266400Y332400D01*
X266200Y332000D01*
X266400Y331600D01*
X266000Y331800D01*
X265600Y331600D01*
X262200Y243700D02*
X262600Y244500D01*
X262200Y245300D01*
X263000Y244900D01*
X263800Y245300D01*
X263400Y244500D01*
X263800Y243700D01*
X263000Y244100D01*
X262200Y243700D01*
X262600Y244100D02*
X262800Y244500D01*
X262600Y244900D01*
X263000Y244700D01*
X263400Y244900D01*
X263200Y244500D01*
X263400Y244100D01*
X263000Y244300D01*
X262600Y244100D01*
X262200Y248030D02*
X262600Y248830D01*
X262200Y249630D01*
X263000Y249230D01*
X263800Y249630D01*
X263400Y248830D01*
X263800Y248030D01*
X263000Y248430D01*
X262200Y248030D01*
X262600Y248430D02*
X262800Y248830D01*
X262600Y249230D01*
X263000Y249030D01*
X263400Y249230D01*
X263200Y248830D01*
X263400Y248430D01*
X263000Y248630D01*
X262600Y248430D01*
X345200Y57200D02*
X345600Y58000D01*
X345200Y58800D01*
X346000Y58400D01*
X346800Y58800D01*
X346400Y58000D01*
X346800Y57200D01*
X346000Y57600D01*
X345200Y57200D01*
X345600Y57600D02*
X345800Y58000D01*
X345600Y58400D01*
X346000Y58200D01*
X346400Y58400D01*
X346200Y58000D01*
X346400Y57600D01*
X346000Y57800D01*
X345600Y57600D01*
X335700Y113700D02*
X336100Y114500D01*
X335700Y115300D01*
X336500Y114900D01*
X337300Y115300D01*
X336900Y114500D01*
X337300Y113700D01*
X336500Y114100D01*
X335700Y113700D01*
X336100Y114100D02*
X336300Y114500D01*
X336100Y114900D01*
X336500Y114700D01*
X336900Y114900D01*
X336700Y114500D01*
X336900Y114100D01*
X336500Y114300D01*
X336100Y114100D01*
X319700Y136623D02*
X320100Y137423D01*
X319700Y138223D01*
X320500Y137823D01*
X321300Y138223D01*
X320900Y137423D01*
X321300Y136623D01*
X320500Y137023D01*
X319700Y136623D01*
X320100Y137023D02*
X320300Y137423D01*
X320100Y137823D01*
X320500Y137623D01*
X320900Y137823D01*
X320700Y137423D01*
X320900Y137023D01*
X320500Y137223D01*
X320100Y137023D01*
X322700Y129200D02*
X323100Y130000D01*
X322700Y130800D01*
X323500Y130400D01*
X324300Y130800D01*
X323900Y130000D01*
X324300Y129200D01*
X323500Y129600D01*
X322700Y129200D01*
X323100Y129600D02*
X323300Y130000D01*
X323100Y130400D01*
X323500Y130200D01*
X323900Y130400D01*
X323700Y130000D01*
X323900Y129600D01*
X323500Y129800D01*
X323100Y129600D01*
X330700Y111200D02*
X331100Y112000D01*
X330700Y112800D01*
X331500Y112400D01*
X332300Y112800D01*
X331900Y112000D01*
X332300Y111200D01*
X331500Y111600D01*
X330700Y111200D01*
X331100Y111600D02*
X331300Y112000D01*
X331100Y112400D01*
X331500Y112200D01*
X331900Y112400D01*
X331700Y112000D01*
X331900Y111600D01*
X331500Y111800D01*
X331100Y111600D01*
X347700Y116169D02*
X348100Y116969D01*
X347700Y117769D01*
X348500Y117369D01*
X349300Y117769D01*
X348900Y116969D01*
X349300Y116169D01*
X348500Y116569D01*
X347700Y116169D01*
X348100Y116569D02*
X348300Y116969D01*
X348100Y117369D01*
X348500Y117169D01*
X348900Y117369D01*
X348700Y116969D01*
X348900Y116569D01*
X348500Y116769D01*
X348100Y116569D01*
X70440Y277700D02*
X70840Y278500D01*
X70440Y279300D01*
X71240Y278900D01*
X72040Y279300D01*
X71640Y278500D01*
X72040Y277700D01*
X71240Y278100D01*
X70440Y277700D01*
X70840Y278100D02*
X71040Y278500D01*
X70840Y278900D01*
X71240Y278700D01*
X71640Y278900D01*
X71440Y278500D01*
X71640Y278100D01*
X71240Y278300D01*
X70840Y278100D01*
X64700Y258200D02*
X65100Y259000D01*
X64700Y259800D01*
X65500Y259400D01*
X66300Y259800D01*
X65900Y259000D01*
X66300Y258200D01*
X65500Y258600D01*
X64700Y258200D01*
X65100Y258600D02*
X65300Y259000D01*
X65100Y259400D01*
X65500Y259200D01*
X65900Y259400D01*
X65700Y259000D01*
X65900Y258600D01*
X65500Y258800D01*
X65100Y258600D01*
X43440Y257200D02*
X43840Y258000D01*
X43440Y258800D01*
X44240Y258400D01*
X45040Y258800D01*
X44640Y258000D01*
X45040Y257200D01*
X44240Y257600D01*
X43440Y257200D01*
X43840Y257600D02*
X44040Y258000D01*
X43840Y258400D01*
X44240Y258200D01*
X44640Y258400D01*
X44440Y258000D01*
X44640Y257600D01*
X44240Y257800D01*
X43840Y257600D01*
X257200Y149700D02*
X257600Y150500D01*
X257200Y151300D01*
X258000Y150900D01*
X258800Y151300D01*
X258400Y150500D01*
X258800Y149700D01*
X258000Y150100D01*
X257200Y149700D01*
X257600Y150100D02*
X257800Y150500D01*
X257600Y150900D01*
X258000Y150700D01*
X258400Y150900D01*
X258200Y150500D01*
X258400Y150100D01*
X258000Y150300D01*
X257600Y150100D01*
X248700Y149700D02*
X249100Y150500D01*
X248700Y151300D01*
X249500Y150900D01*
X250300Y151300D01*
X249900Y150500D01*
X250300Y149700D01*
X249500Y150100D01*
X248700Y149700D01*
X249100Y150100D02*
X249300Y150500D01*
X249100Y150900D01*
X249500Y150700D01*
X249900Y150900D01*
X249700Y150500D01*
X249900Y150100D01*
X249500Y150300D01*
X249100Y150100D01*
X181200Y155800D02*
X181600Y156600D01*
X181200Y157400D01*
X182000Y157000D01*
X182800Y157400D01*
X182400Y156600D01*
X182800Y155800D01*
X182000Y156200D01*
X181200Y155800D01*
X181600Y156200D02*
X181800Y156600D01*
X181600Y157000D01*
X182000Y156800D01*
X182400Y157000D01*
X182200Y156600D01*
X182400Y156200D01*
X182000Y156400D01*
X181600Y156200D01*
X151322Y248700D02*
X151722Y249500D01*
X151322Y250300D01*
X152122Y249900D01*
X152922Y250300D01*
X152522Y249500D01*
X152922Y248700D01*
X152122Y249100D01*
X151322Y248700D01*
X151722Y249100D02*
X151922Y249500D01*
X151722Y249900D01*
X152122Y249700D01*
X152522Y249900D01*
X152322Y249500D01*
X152522Y249100D01*
X152122Y249300D01*
X151722Y249100D01*
X150922Y189700D02*
X151322Y190500D01*
X150922Y191300D01*
X151722Y190900D01*
X152522Y191300D01*
X152122Y190500D01*
X152522Y189700D01*
X151722Y190100D01*
X150922Y189700D01*
X151322Y190100D02*
X151522Y190500D01*
X151322Y190900D01*
X151722Y190700D01*
X152122Y190900D01*
X151922Y190500D01*
X152122Y190100D01*
X151722Y190300D01*
X151322Y190100D01*
X252200Y249700D02*
X252600Y250500D01*
X252200Y251300D01*
X253000Y250900D01*
X253800Y251300D01*
X253400Y250500D01*
X253800Y249700D01*
X253000Y250100D01*
X252200Y249700D01*
X252600Y250100D02*
X252800Y250500D01*
X252600Y250900D01*
X253000Y250700D01*
X253400Y250900D01*
X253200Y250500D01*
X253400Y250100D01*
X253000Y250300D01*
X252600Y250100D01*
X244200Y189200D02*
X244600Y190000D01*
X244200Y190800D01*
X245000Y190400D01*
X245800Y190800D01*
X245400Y190000D01*
X245800Y189200D01*
X245000Y189600D01*
X244200Y189200D01*
X244600Y189600D02*
X244800Y190000D01*
X244600Y190400D01*
X245000Y190200D01*
X245400Y190400D01*
X245200Y190000D01*
X245400Y189600D01*
X245000Y189800D01*
X244600Y189600D01*
X253700Y187200D02*
X254100Y188000D01*
X253700Y188800D01*
X254500Y188400D01*
X255300Y188800D01*
X254900Y188000D01*
X255300Y187200D01*
X254500Y187600D01*
X253700Y187200D01*
X254100Y187600D02*
X254300Y188000D01*
X254100Y188400D01*
X254500Y188200D01*
X254900Y188400D01*
X254700Y188000D01*
X254900Y187600D01*
X254500Y187800D01*
X254100Y187600D01*
X201700Y61700D02*
X202100Y62500D01*
X201700Y63300D01*
X202500Y62900D01*
X203300Y63300D01*
X202900Y62500D01*
X203300Y61700D01*
X202500Y62100D01*
X201700Y61700D01*
X202100Y62100D02*
X202300Y62500D01*
X202100Y62900D01*
X202500Y62700D01*
X202900Y62900D01*
X202700Y62500D01*
X202900Y62100D01*
X202500Y62300D01*
X202100Y62100D01*
X222700Y81700D02*
X223100Y82500D01*
X222700Y83300D01*
X223500Y82900D01*
X224300Y83300D01*
X223900Y82500D01*
X224300Y81700D01*
X223500Y82100D01*
X222700Y81700D01*
X223100Y82100D02*
X223300Y82500D01*
X223100Y82900D01*
X223500Y82700D01*
X223900Y82900D01*
X223700Y82500D01*
X223900Y82100D01*
X223500Y82300D01*
X223100Y82100D01*
X209700Y88200D02*
X210100Y89000D01*
X209700Y89800D01*
X210500Y89400D01*
X211300Y89800D01*
X210900Y89000D01*
X211300Y88200D01*
X210500Y88600D01*
X209700Y88200D01*
X210100Y88600D02*
X210300Y89000D01*
X210100Y89400D01*
X210500Y89200D01*
X210900Y89400D01*
X210700Y89000D01*
X210900Y88600D01*
X210500Y88800D01*
X210100Y88600D01*
X191700Y95700D02*
X192100Y96500D01*
X191700Y97300D01*
X192500Y96900D01*
X193300Y97300D01*
X192900Y96500D01*
X193300Y95700D01*
X192500Y96100D01*
X191700Y95700D01*
X192100Y96100D02*
X192300Y96500D01*
X192100Y96900D01*
X192500Y96700D01*
X192900Y96900D01*
X192700Y96500D01*
X192900Y96100D01*
X192500Y96300D01*
X192100Y96100D01*
X301700Y22794D02*
X302100Y23595D01*
X301700Y24395D01*
X302500Y23994D01*
X303300Y24395D01*
X302900Y23595D01*
X303300Y22794D01*
X302500Y23194D01*
X301700Y22794D01*
X302100Y23194D02*
X302300Y23595D01*
X302100Y23994D01*
X302500Y23795D01*
X302900Y23994D01*
X302700Y23595D01*
X302900Y23194D01*
X302500Y23394D01*
X302100Y23194D01*
X301700Y45294D02*
X302100Y46095D01*
X301700Y46894D01*
X302500Y46494D01*
X303300Y46894D01*
X302900Y46095D01*
X303300Y45294D01*
X302500Y45695D01*
X301700Y45294D01*
X302100Y45695D02*
X302300Y46095D01*
X302100Y46494D01*
X302500Y46295D01*
X302900Y46494D01*
X302700Y46095D01*
X302900Y45695D01*
X302500Y45895D01*
X302100Y45695D01*
X263700Y45294D02*
X264100Y46095D01*
X263700Y46894D01*
X264500Y46494D01*
X265300Y46894D01*
X264900Y46095D01*
X265300Y45294D01*
X264500Y45695D01*
X263700Y45294D01*
X264100Y45695D02*
X264300Y46095D01*
X264100Y46494D01*
X264500Y46295D01*
X264900Y46494D01*
X264700Y46095D01*
X264900Y45695D01*
X264500Y45895D01*
X264100Y45695D01*
X294700Y70105D02*
X295100Y70906D01*
X294700Y71706D01*
X295500Y71306D01*
X296300Y71706D01*
X295900Y70906D01*
X296300Y70105D01*
X295500Y70505D01*
X294700Y70105D01*
X295100Y70505D02*
X295300Y70906D01*
X295100Y71306D01*
X295500Y71105D01*
X295900Y71306D01*
X295700Y70906D01*
X295900Y70505D01*
X295500Y70705D01*
X295100Y70505D01*
X258200Y21105D02*
X258600Y21905D01*
X258200Y22705D01*
X259000Y22306D01*
X259800Y22705D01*
X259400Y21905D01*
X259800Y21105D01*
X259000Y21506D01*
X258200Y21105D01*
X258600Y21506D02*
X258800Y21905D01*
X258600Y22306D01*
X259000Y22106D01*
X259400Y22306D01*
X259200Y21905D01*
X259400Y21506D01*
X259000Y21705D01*
X258600Y21506D01*
X257700Y45105D02*
X258100Y45906D01*
X257700Y46705D01*
X258500Y46306D01*
X259300Y46705D01*
X258900Y45906D01*
X259300Y45105D01*
X258500Y45505D01*
X257700Y45105D01*
X258100Y45505D02*
X258300Y45906D01*
X258100Y46306D01*
X258500Y46106D01*
X258900Y46306D01*
X258700Y45906D01*
X258900Y45505D01*
X258500Y45706D01*
X258100Y45505D01*
X385700Y352200D02*
X386100Y353000D01*
X385700Y353800D01*
X386500Y353400D01*
X387300Y353800D01*
X386900Y353000D01*
X387300Y352200D01*
X386500Y352600D01*
X385700Y352200D01*
X386100Y352600D02*
X386300Y353000D01*
X386100Y353400D01*
X386500Y353200D01*
X386900Y353400D01*
X386700Y353000D01*
X386900Y352600D01*
X386500Y352800D01*
X386100Y352600D01*
X36758Y56358D02*
X37158Y57157D01*
X36758Y57958D01*
X37558Y57557D01*
X38358Y57958D01*
X37958Y57157D01*
X38358Y56358D01*
X37558Y56757D01*
X36758Y56358D01*
X37158Y56757D02*
X37358Y57157D01*
X37158Y57557D01*
X37558Y57358D01*
X37958Y57557D01*
X37758Y57157D01*
X37958Y56757D01*
X37558Y56958D01*
X37158Y56757D01*
X36758Y47200D02*
X37158Y48000D01*
X36758Y48800D01*
X37558Y48400D01*
X38358Y48800D01*
X37958Y48000D01*
X38358Y47200D01*
X37558Y47600D01*
X36758Y47200D01*
X37158Y47600D02*
X37358Y48000D01*
X37158Y48400D01*
X37558Y48200D01*
X37958Y48400D01*
X37758Y48000D01*
X37958Y47600D01*
X37558Y47800D01*
X37158Y47600D01*
X10700Y75700D02*
X11100Y76500D01*
X10700Y77300D01*
X11500Y76900D01*
X12300Y77300D01*
X11900Y76500D01*
X12300Y75700D01*
X11500Y76100D01*
X10700Y75700D01*
X11100Y76100D02*
X11300Y76500D01*
X11100Y76900D01*
X11500Y76700D01*
X11900Y76900D01*
X11700Y76500D01*
X11900Y76100D01*
X11500Y76300D01*
X11100Y76100D01*
X10700Y111200D02*
X11100Y112000D01*
X10700Y112800D01*
X11500Y112400D01*
X12300Y112800D01*
X11900Y112000D01*
X12300Y111200D01*
X11500Y111600D01*
X10700Y111200D01*
X11100Y111600D02*
X11300Y112000D01*
X11100Y112400D01*
X11500Y112200D01*
X11900Y112400D01*
X11700Y112000D01*
X11900Y111600D01*
X11500Y111800D01*
X11100Y111600D01*
X36200Y110700D02*
X36600Y111500D01*
X36200Y112300D01*
X37000Y111900D01*
X37800Y112300D01*
X37400Y111500D01*
X37800Y110700D01*
X37000Y111100D01*
X36200Y110700D01*
X36600Y111100D02*
X36800Y111500D01*
X36600Y111900D01*
X37000Y111700D01*
X37400Y111900D01*
X37200Y111500D01*
X37400Y111100D01*
X37000Y111300D01*
X36600Y111100D01*
X82700Y251200D02*
X83100Y252000D01*
X82700Y252800D01*
X83500Y252400D01*
X84300Y252800D01*
X83900Y252000D01*
X84300Y251200D01*
X83500Y251600D01*
X82700Y251200D01*
X83100Y251600D02*
X83300Y252000D01*
X83100Y252400D01*
X83500Y252200D01*
X83900Y252400D01*
X83700Y252000D01*
X83900Y251600D01*
X83500Y251800D01*
X83100Y251600D01*
X74700Y279728D02*
X75100Y280528D01*
X74700Y281328D01*
X75500Y280928D01*
X76300Y281328D01*
X75900Y280528D01*
X76300Y279728D01*
X75500Y280128D01*
X74700Y279728D01*
X75100Y280128D02*
X75300Y280528D01*
X75100Y280928D01*
X75500Y280728D01*
X75900Y280928D01*
X75700Y280528D01*
X75900Y280128D01*
X75500Y280328D01*
X75100Y280128D01*
X108800Y351700D02*
X109200Y352500D01*
X108800Y353300D01*
X109600Y352900D01*
X110400Y353300D01*
X110000Y352500D01*
X110400Y351700D01*
X109600Y352100D01*
X108800Y351700D01*
X109200Y352100D02*
X109400Y352500D01*
X109200Y352900D01*
X109600Y352700D01*
X110000Y352900D01*
X109800Y352500D01*
X110000Y352100D01*
X109600Y352300D01*
X109200Y352100D01*
X99728Y351200D02*
X100128Y352000D01*
X99728Y352800D01*
X100528Y352400D01*
X101328Y352800D01*
X100928Y352000D01*
X101328Y351200D01*
X100528Y351600D01*
X99728Y351200D01*
X100128Y351600D02*
X100328Y352000D01*
X100128Y352400D01*
X100528Y352200D01*
X100928Y352400D01*
X100728Y352000D01*
X100928Y351600D01*
X100528Y351800D01*
X100128Y351600D01*
D99*
X109225Y105276D02*
G03*
X109225Y105276I-800J0D01*
G01*
X99225D02*
G03*
X99225Y105276I-800J0D01*
G01*
X109225Y115276D02*
G03*
X109225Y115276I-800J0D01*
G01*
X99225D02*
G03*
X99225Y115276I-800J0D01*
G01*
X109225Y125276D02*
G03*
X109225Y125276I-800J0D01*
G01*
X99225D02*
G03*
X99225Y125276I-800J0D01*
G01*
X109225Y135276D02*
G03*
X109225Y135276I-800J0D01*
G01*
X99225D02*
G03*
X99225Y135276I-800J0D01*
G01*
X109225Y145276D02*
G03*
X109225Y145276I-800J0D01*
G01*
X99225D02*
G03*
X99225Y145276I-800J0D01*
G01*
X109225Y155276D02*
G03*
X109225Y155276I-800J0D01*
G01*
X99225D02*
G03*
X99225Y155276I-800J0D01*
G01*
X109225Y165276D02*
G03*
X109225Y165276I-800J0D01*
G01*
X99225D02*
G03*
X99225Y165276I-800J0D01*
G01*
X109225Y175276D02*
G03*
X109225Y175276I-800J0D01*
G01*
X99225D02*
G03*
X99225Y175276I-800J0D01*
G01*
X109225Y185276D02*
G03*
X109225Y185276I-800J0D01*
G01*
X99225D02*
G03*
X99225Y185276I-800J0D01*
G01*
X109225Y195276D02*
G03*
X109225Y195276I-800J0D01*
G01*
X99225D02*
G03*
X99225Y195276I-800J0D01*
G01*
X109225Y205276D02*
G03*
X109225Y205276I-800J0D01*
G01*
X99225D02*
G03*
X99225Y205276I-800J0D01*
G01*
X109225Y215276D02*
G03*
X109225Y215276I-800J0D01*
G01*
X99225D02*
G03*
X99225Y215276I-800J0D01*
G01*
X109225Y225276D02*
G03*
X109225Y225276I-800J0D01*
G01*
X99225D02*
G03*
X99225Y225276I-800J0D01*
G01*
X109225Y235276D02*
G03*
X109225Y235276I-800J0D01*
G01*
X99225D02*
G03*
X99225Y235276I-800J0D01*
G01*
X109225Y245276D02*
G03*
X109225Y245276I-800J0D01*
G01*
X99225D02*
G03*
X99225Y245276I-800J0D01*
G01*
X109225Y255276D02*
G03*
X109225Y255276I-800J0D01*
G01*
X99225D02*
G03*
X99225Y255276I-800J0D01*
G01*
X109225Y265276D02*
G03*
X109225Y265276I-800J0D01*
G01*
X99225D02*
G03*
X99225Y265276I-800J0D01*
G01*
X109225Y275276D02*
G03*
X109225Y275276I-800J0D01*
G01*
X99225D02*
G03*
X99225Y275276I-800J0D01*
G01*
X109225Y285276D02*
G03*
X109225Y285276I-800J0D01*
G01*
X99225D02*
G03*
X99225Y285276I-800J0D01*
G01*
X109225Y295276D02*
G03*
X109225Y295276I-800J0D01*
G01*
X99225D02*
G03*
X99225Y295276I-800J0D01*
G01*
X306076Y105276D02*
G03*
X306076Y105276I-800J0D01*
G01*
X296076D02*
G03*
X296076Y105276I-800J0D01*
G01*
X306076Y115276D02*
G03*
X306076Y115276I-800J0D01*
G01*
X296076D02*
G03*
X296076Y115276I-800J0D01*
G01*
X306076Y125276D02*
G03*
X306076Y125276I-800J0D01*
G01*
X296076D02*
G03*
X296076Y125276I-800J0D01*
G01*
X306076Y135276D02*
G03*
X306076Y135276I-800J0D01*
G01*
X296076D02*
G03*
X296076Y135276I-800J0D01*
G01*
X306076Y145276D02*
G03*
X306076Y145276I-800J0D01*
G01*
X296076D02*
G03*
X296076Y145276I-800J0D01*
G01*
X306076Y155276D02*
G03*
X306076Y155276I-800J0D01*
G01*
X296076D02*
G03*
X296076Y155276I-800J0D01*
G01*
X306076Y165276D02*
G03*
X306076Y165276I-800J0D01*
G01*
X296076D02*
G03*
X296076Y165276I-800J0D01*
G01*
X306076Y175276D02*
G03*
X306076Y175276I-800J0D01*
G01*
X296076D02*
G03*
X296076Y175276I-800J0D01*
G01*
X306076Y185276D02*
G03*
X306076Y185276I-800J0D01*
G01*
X296076D02*
G03*
X296076Y185276I-800J0D01*
G01*
X306076Y195276D02*
G03*
X306076Y195276I-800J0D01*
G01*
X296076D02*
G03*
X296076Y195276I-800J0D01*
G01*
X306076Y205276D02*
G03*
X306076Y205276I-800J0D01*
G01*
X296076D02*
G03*
X296076Y205276I-800J0D01*
G01*
X306076Y215276D02*
G03*
X306076Y215276I-800J0D01*
G01*
X296076D02*
G03*
X296076Y215276I-800J0D01*
G01*
X306076Y225276D02*
G03*
X306076Y225276I-800J0D01*
G01*
X296076D02*
G03*
X296076Y225276I-800J0D01*
G01*
X306076Y235276D02*
G03*
X306076Y235276I-800J0D01*
G01*
X296076D02*
G03*
X296076Y235276I-800J0D01*
G01*
X306076Y245276D02*
G03*
X306076Y245276I-800J0D01*
G01*
X296076D02*
G03*
X296076Y245276I-800J0D01*
G01*
X306076Y255276D02*
G03*
X306076Y255276I-800J0D01*
G01*
X296076D02*
G03*
X296076Y255276I-800J0D01*
G01*
X306076Y265276D02*
G03*
X306076Y265276I-800J0D01*
G01*
X296076D02*
G03*
X296076Y265276I-800J0D01*
G01*
X306076Y275276D02*
G03*
X306076Y275276I-800J0D01*
G01*
X296076D02*
G03*
X296076Y275276I-800J0D01*
G01*
X306076Y285276D02*
G03*
X306076Y285276I-800J0D01*
G01*
X296076D02*
G03*
X296076Y285276I-800J0D01*
G01*
X306076Y295276D02*
G03*
X306076Y295276I-800J0D01*
G01*
X296076D02*
G03*
X296076Y295276I-800J0D01*
G01*
X349125Y308325D02*
G03*
X349125Y308325I-800J0D01*
G01*
Y318325D02*
G03*
X349125Y318325I-800J0D01*
G01*
X359125Y308325D02*
G03*
X359125Y308325I-800J0D01*
G01*
Y318325D02*
G03*
X359125Y318325I-800J0D01*
G01*
X369125Y308325D02*
G03*
X369125Y308325I-800J0D01*
G01*
Y318325D02*
G03*
X369125Y318325I-800J0D01*
G01*
X193300Y70500D02*
G03*
X193300Y70500I-800J0D01*
G01*
X203300D02*
G03*
X203300Y70500I-800J0D01*
G01*
X213300D02*
G03*
X213300Y70500I-800J0D01*
G01*
X193800Y367500D02*
G03*
X193800Y367500I-800J0D01*
G01*
X203800D02*
G03*
X203800Y367500I-800J0D01*
G01*
X213800D02*
G03*
X213800Y367500I-800J0D01*
G01*
X223800D02*
G03*
X223800Y367500I-800J0D01*
G01*
X183800D02*
G03*
X183800Y367500I-800J0D01*
G01*
X100300Y369500D02*
G03*
X100300Y369500I-800J0D01*
G01*
X110300D02*
G03*
X110300Y369500I-800J0D01*
G01*
D100*
X99900D02*
G03*
X99900Y369500I-400J0D01*
G01*
X109900D02*
G03*
X109900Y369500I-400J0D01*
G01*
M02*
