M48
;Layer_Color=9474304
;FILE_FORMAT=2:5
INCH,LZ
;TYPE=PLATED
T1F00S00C0.01200
T2F00S00C0.01417
T3F00S00C0.02756
T5F00S00C0.03000
T6F00S00C0.03150
T7F00S00C0.03200
T8F00S00C0.03543
T9F00S00C0.03937
T10F00S00C0.04331
%
T01
X0029Y00332
X00465Y00336
X0037558Y0048
Y0057157
X0015Y0054
X00115Y00765
Y0112
Y0117
X0037Y01115
X0044Y01272
Y01316
Y01356
Y014
Y0144
X0053Y01444
Y01276
X00505Y01008
X00515Y00748
X0067Y00752
X00635Y00556
X00865Y00552
X0085Y00805
Y00885
X00845Y0095
X00835Y01196
X0084Y01388
X01245Y0138
X01495Y0062
X00115Y01515
X01885Y01164
X02065Y0116
X02Y0097
X01925Y00965
X02105Y0089
X02235Y00825
X0244Y00836
X0261Y0084
X028
X02955Y0070906
X03025Y0046095
Y0023595
X0259Y0021905
X02585Y0045906
X02645Y0046095
X0215Y00445
Y004125
X02145Y00375
X0220783Y00345
X02155Y0049514
X0207Y0046941
X02025Y00625
X01595Y00616
X0250256Y01216
X02495Y01505
X02435Y01515
X0239302Y01445
X0258Y01505
X0271Y01396
X028Y01308
X03235Y013
X03205Y0137423
X03475Y01444
X0347326Y0153154
X0352384Y01264
X03485Y0116969
X03365Y01145
X03315Y0112
X0346Y0058
Y0048
X0357Y00484
X0349879Y01868
X033Y01696
X0322Y0162
X03725Y02048
Y02368
X0372484Y02915
X03795Y0297
X03435Y03015
X032Y02975
X03266Y0289
X0269583Y028
X0247494Y0280883
X0252916Y029
X0257226Y02985
X0253Y02505
X0249Y02472
X0263Y024883
Y02445
X0257Y02395
X02731Y0249
X0278Y0246
X02865Y02432
X0286Y02496
X0209698Y0235476
X0212779Y02275
X02105Y02241
X0202026Y02284
X019653Y02212
X0191Y0225
X0179315Y023
X0180783Y02335
X0181283Y0237
X0182824Y024
X0175378Y0243122
X0173Y0256
X0177Y02615
X0164Y02548
X01605Y0245
X0193Y0242
X0203Y0268726
X0208387Y0272
X01973Y03073
X0192Y03055
X0175359Y02952
X017Y02828
X01635Y0207189
X017511Y0204
X0179315Y01995
X0185221Y0197221
X0190475Y01979
X01935Y02
X0197448Y02075
X0207Y02095
X02095Y0204
X0213Y0201
X0213724Y01974
X0210811Y0194811
X02194Y02011
X0223Y0198031
X02155Y0206
X0213Y01755
X01935Y01815
X0182Y01566
X016Y01696
X02255Y0157863
X02515Y016
X0255Y01564
X0275206Y0166054
X0279Y01624
X02545Y0188
X0245Y019
X0151722Y01905
X014512Y0191
X0151222Y01974
X01465Y01616
X0139574Y0156969
X0086Y01688
Y01728
Y01764
Y01796
X0078Y0198
X0077741Y02045
X0066Y022575
X0061549Y0226874
X00655Y0259
X004424Y0258
X0051Y02785
X007124
X00755Y0280528
X00905Y0264526
X00835Y0252
X0027Y02468
Y0242
Y02372
X0015Y02344
X00145Y02468
X0017Y02695
X0025Y02832
X002795
X0031
Y028
X0030332Y02077
X0027282
X0024332
X00305Y02048
X0033Y02005
X0034Y0196441
X00455Y0201
X0046555Y018775
X00465Y0182
X004675Y017889
X0042Y01788
Y0182
X0015Y01644
X0143Y0246
X0152122Y02495
X0145Y0266626
X0155Y02836
Y02948
X01255Y03084
X01075Y0308
X0108Y0326
X0126Y03272
X01096Y03525
X0100528Y0352
X01135Y0384
X00735
X00435
X0016551Y03555
X0016Y032
X00655Y03408
X0168874Y03308
X01875Y03312
X0164Y0384
X02345
X02755Y03832
X03055Y03828
X0312Y03144
X0284Y0318
X0266Y0332
X0253757Y0316
X0319Y032
X03265Y03248
X03255Y03132
X03725Y03316
X0374Y0346
Y03628
X03865Y0353
T02
X02415Y0128
Y0133
T03
X0198354Y0129429
X0217646
X0064227Y0323031
X0044935
T05
X01705Y0289
X01805
X01905
X02005
X02105
X02205
X02305
X0075827Y03555
X0054173
T06
X02535Y03425
Y0353
X02835
Y03425
T07
X00995Y03695
X01095
T08
X0098425Y0105276
X0108425
Y0115276
X0098425
Y0125276
X0108425
Y0135276
X0098425
Y0145276
X0108425
Y0155276
X0098425
X01925Y00705
X02025
X02125
X0295276Y0105276
X0305276
Y0115276
X0295276
Y0125276
X0305276
Y0135276
X0295276
Y0145276
X0305276
Y0155276
X0295276
X0348325Y0308325
X0358325
X0368325
X0305276Y0295276
Y0285276
Y0275276
Y0265276
Y0255276
Y0245276
Y0235276
Y0225276
Y0215276
Y0205276
Y0195276
Y0185276
Y0175276
Y0165276
X0295276
Y0175276
Y0185276
Y0195276
Y0205276
Y0215276
Y0225276
Y0235276
Y0245276
Y0255276
Y0265276
Y0275276
Y0285276
Y0295276
X0108425
Y0285276
Y0275276
Y0265276
Y0255276
Y0245276
Y0235276
Y0225276
Y0215276
Y0205276
Y0195276
Y0185276
Y0175276
Y0165276
X0098425
Y0175276
Y0185276
Y0195276
Y0205276
Y0215276
Y0225276
Y0235276
Y0245276
Y0255276
Y0265276
Y0275276
Y0285276
Y0295276
X0183Y03675
X0193
X0203
X0213
X0223
X0348325Y0318325
X0358325
X0368325
T09
X00225Y00835
X00325
Y00935
Y01035
X00225
Y00935
Y01235
X00325
Y01335
Y01435
X00225
Y01335
X01095Y0072
Y0062
X01195
X01295
Y0072
X01395
Y0062
X01195Y0072
X01665Y0097423
Y0107423
Y0117423
Y0127423
Y0137423
Y0147423
X0359Y0146969
Y0136969
Y0126969
Y0116969
Y0106969
X03565Y0078
X03665
Y0068
X03565
Y0058
X03665
X0359Y0156969
X03585Y01885
Y01985
Y02085
Y02185
X0357Y0250224
Y0260067
Y0269909
Y0279751
X03435Y0351
X03335
Y0361
Y0371
X03435
Y0381
X03335
X03435Y0361
T10
X0035524Y0227402
Y0235276
Y024315
X005324
Y0235276
Y0227402
M30
