G04*
G04 #@! TF.GenerationSoftware,Altium Limited,Altium Designer,19.0.4 (130)*
G04*
G04 Layer_Color=8388736*
%FSLAX25Y25*%
%MOIN*%
G70*
G01*
G75*
%ADD34R,0.06012X0.02075*%
%ADD35R,0.10736X0.09555*%
%ADD36R,0.04300X0.04000*%
%ADD37R,0.04000X0.04300*%
%ADD38R,0.04358X0.04161*%
%ADD39O,0.06602X0.02862*%
%ADD40R,0.02862X0.04437*%
%ADD41R,0.06012X0.06012*%
%ADD42R,0.04437X0.02862*%
%ADD43R,0.09161X0.03492*%
%ADD44R,0.09161X0.12311*%
%ADD45O,0.01681X0.06602*%
%ADD46O,0.06602X0.01681*%
%ADD47R,0.05500X0.06500*%
%ADD48R,0.06406X0.12311*%
%ADD49O,0.07587X0.05224*%
%ADD50C,0.06406*%
%ADD51R,0.06406X0.06406*%
%ADD52C,0.02862*%
%ADD53C,0.04831*%
%ADD54C,0.06500*%
%ADD55R,0.06406X0.06406*%
%ADD56C,0.07587*%
%ADD57C,0.06799*%
%ADD58R,0.08374X0.06012*%
%ADD59O,0.08374X0.06012*%
%ADD60C,0.06799*%
%ADD61C,0.05500*%
%ADD62R,0.05500X0.05500*%
%ADD63R,0.06799X0.06799*%
%ADD64C,0.12311*%
D34*
X24473Y279618D02*
D03*
Y277059D02*
D03*
Y274500D02*
D03*
Y271941D02*
D03*
Y269382D02*
D03*
X24332Y204118D02*
D03*
Y201559D02*
D03*
Y199000D02*
D03*
Y196441D02*
D03*
Y193882D02*
D03*
D35*
X271000Y130500D02*
D03*
D36*
X247400Y242500D02*
D03*
X240500D02*
D03*
X247400Y250500D02*
D03*
X240500D02*
D03*
X217400Y82500D02*
D03*
X210500D02*
D03*
X42581Y309500D02*
D03*
X49481D02*
D03*
X80000Y289000D02*
D03*
X86900D02*
D03*
X326600Y293882D02*
D03*
X333500D02*
D03*
Y302500D02*
D03*
X326600D02*
D03*
X264900Y144500D02*
D03*
X258000D02*
D03*
X242600D02*
D03*
X249500D02*
D03*
X216900Y162776D02*
D03*
X210000D02*
D03*
X216900Y170500D02*
D03*
X210000D02*
D03*
X218900Y144500D02*
D03*
X212000D02*
D03*
X196100D02*
D03*
X203000D02*
D03*
X116500Y347740D02*
D03*
X109600D02*
D03*
X116500Y358500D02*
D03*
X109600D02*
D03*
X38600Y196441D02*
D03*
X45500D02*
D03*
X51000Y57000D02*
D03*
X44100D02*
D03*
X163900Y259500D02*
D03*
X157000D02*
D03*
X244900Y199315D02*
D03*
X238000D02*
D03*
X157100Y249500D02*
D03*
X164000D02*
D03*
X44100Y48000D02*
D03*
X51000D02*
D03*
X59681Y309500D02*
D03*
X66581D02*
D03*
D37*
X192500Y81937D02*
D03*
Y88837D02*
D03*
X200000D02*
D03*
Y81937D02*
D03*
X11500Y105500D02*
D03*
Y98600D02*
D03*
Y145600D02*
D03*
Y138700D02*
D03*
X83500Y258100D02*
D03*
Y265000D02*
D03*
X156978Y197400D02*
D03*
Y190500D02*
D03*
X225500Y163668D02*
D03*
Y170355D02*
D03*
D38*
X11500Y91000D02*
D03*
Y84937D02*
D03*
Y131000D02*
D03*
Y124937D02*
D03*
D39*
X65500Y263500D02*
D03*
Y268500D02*
D03*
Y273500D02*
D03*
Y278500D02*
D03*
Y283500D02*
D03*
Y288500D02*
D03*
Y293500D02*
D03*
Y298500D02*
D03*
X44240D02*
D03*
Y293500D02*
D03*
Y288500D02*
D03*
Y283500D02*
D03*
Y278500D02*
D03*
Y273500D02*
D03*
Y268500D02*
D03*
Y263500D02*
D03*
D40*
X87240Y280528D02*
D03*
X79760D02*
D03*
X83500Y271472D02*
D03*
D41*
X327842Y23595D02*
D03*
X308157D02*
D03*
X233658Y21905D02*
D03*
X253343D02*
D03*
X327842Y46095D02*
D03*
X308157D02*
D03*
X289843D02*
D03*
X270158D02*
D03*
X233157Y45906D02*
D03*
X252842D02*
D03*
X270158Y70906D02*
D03*
X289843D02*
D03*
X63842Y35594D02*
D03*
X44157D02*
D03*
D42*
X100528Y340760D02*
D03*
Y348240D02*
D03*
X91472Y344500D02*
D03*
D43*
X53886Y178695D02*
D03*
Y187750D02*
D03*
Y169640D02*
D03*
D44*
X77114Y178695D02*
D03*
D45*
X175378Y188488D02*
D03*
X177347D02*
D03*
X179315D02*
D03*
X181283D02*
D03*
X183252D02*
D03*
X185221D02*
D03*
X187189D02*
D03*
X189157D02*
D03*
X191126D02*
D03*
X193095D02*
D03*
X195063D02*
D03*
X197031D02*
D03*
X199000D02*
D03*
X200969D02*
D03*
X202937D02*
D03*
X204906D02*
D03*
X206874D02*
D03*
X208842D02*
D03*
X210811D02*
D03*
X212779D02*
D03*
X214748D02*
D03*
X216717D02*
D03*
X218685D02*
D03*
X220654D02*
D03*
X222622D02*
D03*
Y249512D02*
D03*
X220654D02*
D03*
X218685D02*
D03*
X216717D02*
D03*
X214748D02*
D03*
X212779D02*
D03*
X210811D02*
D03*
X208842D02*
D03*
X206874D02*
D03*
X204906D02*
D03*
X202937D02*
D03*
X200969D02*
D03*
X199000D02*
D03*
X197031D02*
D03*
X195063D02*
D03*
X193095D02*
D03*
X191126D02*
D03*
X189157D02*
D03*
X187189D02*
D03*
X185221D02*
D03*
X183252D02*
D03*
X181283D02*
D03*
X179315D02*
D03*
X177347D02*
D03*
X175378D02*
D03*
D46*
X229512Y195378D02*
D03*
Y197346D02*
D03*
Y199315D02*
D03*
Y201284D02*
D03*
Y203252D02*
D03*
Y205221D02*
D03*
Y207189D02*
D03*
Y209157D02*
D03*
Y211126D02*
D03*
Y213094D02*
D03*
Y215063D02*
D03*
Y217032D02*
D03*
Y219000D02*
D03*
Y220969D02*
D03*
Y222937D02*
D03*
Y224905D02*
D03*
Y226874D02*
D03*
Y228842D02*
D03*
Y230811D02*
D03*
Y232780D02*
D03*
Y234748D02*
D03*
Y236717D02*
D03*
Y238685D02*
D03*
Y240653D02*
D03*
Y242622D02*
D03*
X168488D02*
D03*
Y240653D02*
D03*
Y238685D02*
D03*
Y236717D02*
D03*
Y234748D02*
D03*
Y232780D02*
D03*
Y230811D02*
D03*
Y228842D02*
D03*
Y226874D02*
D03*
Y224905D02*
D03*
Y222937D02*
D03*
Y220969D02*
D03*
Y219000D02*
D03*
Y217032D02*
D03*
Y215063D02*
D03*
Y213094D02*
D03*
Y211126D02*
D03*
Y209157D02*
D03*
Y207189D02*
D03*
Y205221D02*
D03*
Y203252D02*
D03*
Y201284D02*
D03*
Y199315D02*
D03*
Y197346D02*
D03*
Y195378D02*
D03*
D47*
X79000Y160500D02*
D03*
Y149500D02*
D03*
X62691Y125500D02*
D03*
Y136500D02*
D03*
D48*
X46000Y152000D02*
D03*
X66000D02*
D03*
D49*
X26441Y260425D02*
D03*
X26442Y288575D02*
D03*
X12859Y288574D02*
D03*
X12859Y260425D02*
D03*
X26300Y184925D02*
D03*
X26301Y213075D02*
D03*
X12718Y213074D02*
D03*
X12718Y184925D02*
D03*
D50*
X108425Y105276D02*
D03*
X98425D02*
D03*
X108425Y115276D02*
D03*
X98425D02*
D03*
X108425Y125276D02*
D03*
X98425D02*
D03*
X108425Y135276D02*
D03*
X98425D02*
D03*
X108425Y145276D02*
D03*
X98425D02*
D03*
X108425Y155276D02*
D03*
X98425D02*
D03*
X108425Y165276D02*
D03*
X98425D02*
D03*
X108425Y175276D02*
D03*
X98425D02*
D03*
X108425Y185276D02*
D03*
X98425D02*
D03*
X108425Y195276D02*
D03*
X98425D02*
D03*
X108425Y205276D02*
D03*
X98425D02*
D03*
X108425Y215276D02*
D03*
X98425D02*
D03*
X108425Y225276D02*
D03*
X98425D02*
D03*
X108425Y235276D02*
D03*
X98425D02*
D03*
X108425Y245276D02*
D03*
X98425D02*
D03*
X108425Y255276D02*
D03*
X98425D02*
D03*
X108425Y265276D02*
D03*
X98425D02*
D03*
X108425Y275276D02*
D03*
X98425D02*
D03*
X108425Y285276D02*
D03*
X98425D02*
D03*
X108425Y295276D02*
D03*
X305276Y105276D02*
D03*
X295276D02*
D03*
X305276Y115276D02*
D03*
X295276D02*
D03*
X305276Y125276D02*
D03*
X295276D02*
D03*
X305276Y135276D02*
D03*
X295276D02*
D03*
X305276Y145276D02*
D03*
X295276D02*
D03*
X305276Y155276D02*
D03*
X295276D02*
D03*
X305276Y165276D02*
D03*
X295276D02*
D03*
X305276Y175276D02*
D03*
X295276D02*
D03*
X305276Y185276D02*
D03*
X295276D02*
D03*
X305276Y195276D02*
D03*
X295276D02*
D03*
X305276Y205276D02*
D03*
X295276D02*
D03*
X305276Y215276D02*
D03*
X295276D02*
D03*
X305276Y225276D02*
D03*
X295276D02*
D03*
X305276Y235276D02*
D03*
X295276D02*
D03*
X305276Y245276D02*
D03*
X295276D02*
D03*
X305276Y255276D02*
D03*
X295276D02*
D03*
X305276Y265276D02*
D03*
X295276D02*
D03*
X305276Y275276D02*
D03*
X295276D02*
D03*
X305276Y285276D02*
D03*
X295276D02*
D03*
X305276Y295276D02*
D03*
X322230Y353098D02*
D03*
X348325Y318325D02*
D03*
X358325Y308325D02*
D03*
Y318325D02*
D03*
X368325Y308325D02*
D03*
Y318325D02*
D03*
X202500Y70500D02*
D03*
X212500D02*
D03*
X193000Y367500D02*
D03*
X203000D02*
D03*
X213000D02*
D03*
X183000D02*
D03*
D51*
X98425Y295276D02*
D03*
X295276D02*
D03*
D52*
X241500Y128000D02*
D03*
Y133000D02*
D03*
D53*
X351757Y353000D02*
D03*
D54*
X170500Y289000D02*
D03*
X180500D02*
D03*
X190500D02*
D03*
X200500D02*
D03*
X210500D02*
D03*
X220500D02*
D03*
X230500D02*
D03*
X54173Y355500D02*
D03*
X75827D02*
D03*
D55*
X348325Y308325D02*
D03*
X192500Y70500D02*
D03*
X223000Y367500D02*
D03*
D56*
X366500Y68000D02*
D03*
X356500Y78000D02*
D03*
X366500D02*
D03*
X356500Y68000D02*
D03*
Y58000D02*
D03*
X366500D02*
D03*
X166500Y117423D02*
D03*
Y107423D02*
D03*
Y127423D02*
D03*
Y137423D02*
D03*
Y147423D02*
D03*
Y97423D02*
D03*
X109500Y62000D02*
D03*
Y72000D02*
D03*
X129500Y62000D02*
D03*
Y72000D02*
D03*
X139500Y62000D02*
D03*
Y72000D02*
D03*
X119500Y62000D02*
D03*
Y72000D02*
D03*
X359000Y156969D02*
D03*
Y106969D02*
D03*
Y116969D02*
D03*
Y126969D02*
D03*
Y146969D02*
D03*
Y136969D02*
D03*
X358500Y218500D02*
D03*
Y208500D02*
D03*
Y198500D02*
D03*
Y188500D02*
D03*
X343500Y371000D02*
D03*
X333500D02*
D03*
X343500Y381000D02*
D03*
X333500D02*
D03*
Y351000D02*
D03*
X343500D02*
D03*
Y361000D02*
D03*
X333500D02*
D03*
X22500Y103500D02*
D03*
X32500D02*
D03*
Y93500D02*
D03*
X22500Y83500D02*
D03*
X32500D02*
D03*
X22500Y93500D02*
D03*
Y143500D02*
D03*
X32500D02*
D03*
Y133500D02*
D03*
X22500Y123500D02*
D03*
X32500D02*
D03*
X22500Y133500D02*
D03*
D57*
X217646Y129429D02*
D03*
X198354D02*
D03*
X64227Y323031D02*
D03*
X44935D02*
D03*
X283500Y353000D02*
D03*
Y342500D02*
D03*
D58*
X357000Y279751D02*
D03*
D59*
Y269909D02*
D03*
Y260067D02*
D03*
Y250224D02*
D03*
D60*
X35524Y243150D02*
D03*
Y235276D02*
D03*
Y227402D02*
D03*
X53240D02*
D03*
Y235276D02*
D03*
Y243150D02*
D03*
D61*
X99500Y369500D02*
D03*
D62*
X109500D02*
D03*
D63*
X253500Y353000D02*
D03*
Y342500D02*
D03*
D64*
X19685Y374016D02*
D03*
X374016D02*
D03*
Y19685D02*
D03*
X19685Y19685D02*
D03*
M02*
